M48
;DRILL file {KiCad (6.0.0-rc1-dev-1030-g80d50d98b)} date Wednesday, April 03, 2019 at 08:49:07 PM
;FORMAT={-:-/ absolute / metric / decimal}
FMAT,2
METRIC
T1C0.200
T2C0.254
T3C0.950
T4C0.990
T5C1.000
T6C1.300
%
G90
G05
M71
T1
X149.271Y-89.937
X149.271Y-90.937
X149.271Y-91.937
X150.271Y-89.937
X150.271Y-90.937
X150.271Y-91.937
X151.271Y-89.937
X151.271Y-90.937
X151.271Y-91.937
X150.592Y-115.248
X150.592Y-116.248
X150.592Y-117.248
X151.592Y-115.248
X151.592Y-116.248
X151.592Y-117.248
X152.592Y-115.248
X152.592Y-116.248
X152.592Y-117.248
T2
X103.19Y-116.914
X104.938Y-116.911
X105.496Y-111.521
X105.7Y-98.791
X105.7Y-100.046
X105.816Y-102.596
X105.816Y-106.406
X106.05Y-116.896
X107.742Y-117.18
X108.544Y-86.563
X108.682Y-118.171
X110.444Y-102.88
X110.475Y-98.598
X110.5Y-104.531
X110.505Y-101.509
X110.505Y-105.857
X110.536Y-99.781
X110.846Y-119.41
X111.074Y-105.222
X111.099Y-125.222
X111.12Y-99.182
X111.145Y-102.194
X111.75Y-99.781
X111.775Y-105.842
X111.801Y-102.85
X111.801Y-104.557
X111.816Y-98.522
X111.816Y-101.524
X112.227Y-116.962
X112.268Y-76.297
X113.462Y-102.865
X113.462Y-104.526
X113.462Y-105.903
X113.482Y-98.516
X113.492Y-99.832
X113.508Y-101.539
X114.122Y-105.176
X114.148Y-102.194
X114.158Y-99.192
X114.229Y-120.62
X114.772Y-102.85
X114.788Y-99.842
X114.798Y-98.537
X114.818Y-101.493
X114.828Y-105.862
X114.838Y-104.506
X115.098Y-113.254
X115.275Y-80.754
X115.743Y-86.69
X116.175Y-81.798
X116.2Y-127.813
X116.464Y-88.438
X116.469Y-98.527
X116.469Y-99.863
X116.469Y-102.824
X116.479Y-121.696
X116.5Y-104.531
X116.5Y-105.847
X116.505Y-101.549
X116.637Y-117.096
X117.14Y-105.192
X117.15Y-99.162
X117.16Y-102.24
X117.775Y-104.531
X117.8Y-98.537
X117.81Y-101.549
X117.81Y-101.549
X117.81Y-101.549
X117.81Y-102.845
X117.82Y-105.882
X117.831Y-99.842
X118.613Y-89.19
X119.291Y-116.286
X119.939Y-115.651
X120.198Y-82.753
X120.611Y-115.067
X121.018Y-114.203
X121.178Y-113.07
X122.042Y-110.851
X122.108Y-112.608
X122.169Y-96.815
X123.284Y-107.721
X123.744Y-88.412
X124.75Y-84.13
X126.944Y-94.635
X127.071Y-91.648
X127.58Y-108.632
X127.593Y-105.063
X128.006Y-106.197
X128.158Y-109.885
X128.377Y-73.685
X128.438Y-75.143
X129.065Y-76.571
X129.356Y-73.857
X129.449Y-99.111
X131.343Y-125.451
X131.369Y-119.964
X131.768Y-104.45
X132.491Y-98.674
X132.53Y-105.25
X133.538Y-82.189
X134.066Y-106.416
X135.397Y-109.657
X135.443Y-92.73
X139.497Y-130.78
X139.568Y-97.841
X139.644Y-106.416
X140.31Y-78.816
X141.267Y-107.472
X141.493Y-110.48
X141.521Y-109.238
X141.596Y-108.16
X141.971Y-88.651
X143.241Y-114.127
X143.424Y-91.359
X143.568Y-110.48
X143.642Y-82.911
X143.728Y-100.518
X144.048Y-111.328
X144.734Y-113.048
X144.826Y-83.688
X144.836Y-91.47
X144.846Y-82.271
X144.943Y-123.734
X145.318Y-94.879
X145.344Y-87.33
X145.776Y-115.004
X145.778Y-108.425
X145.801Y-113.099
X145.811Y-124.374
X145.898Y-123.027
X145.923Y-88.417
X145.964Y-111.369
X146.141Y-96.078
X146.411Y-117.086
X146.639Y-119.88
X146.771Y-94.671
X147.742Y-83.657
X147.762Y-110.901
X147.958Y-96.881
X148.089Y-107.993
X148.265Y-87.66
X148.722Y-111.679
X148.783Y-110.348
X149.073Y-123.551
X149.382Y-119.398
X149.675Y-97.109
X150.256Y-82.951
X150.299Y-107.993
X150.31Y-101.072
X150.973Y-110.388
X151.191Y-97.297
X151.437Y-99.952
X151.608Y-124.176
X152.265Y-111.041
X152.481Y-87.787
X152.725Y-83.703
X152.883Y-95.682
X153.06Y-96.865
X153.599Y-119.525
X153.713Y-101.859
X153.723Y-99.926
X153.751Y-111.422
X154.026Y-96.271
X154.168Y-123.485
X155.224Y-87.305
X155.331Y-88.875
X155.438Y-95.606
X155.453Y-90.099
X155.641Y-83.998
X155.824Y-82.403
X156.048Y-99.952
X156.048Y-101.882
X156.088Y-92.182
X156.088Y-94.036
X156.52Y-119.855
X156.84Y-112.37
X156.992Y-83.525
X157.002Y-123.002
X157.028Y-115.715
X157.041Y-94.023
X157.165Y-124.379
X157.277Y-111.288
X157.673Y-108.321
X157.942Y-112.161
X158.171Y-123.683
X158.295Y-99.926
X158.295Y-101.831
X158.389Y-85.888
X159.329Y-119.197
X160.061Y-123.396
X160.061Y-131.557
X160.37Y-98.156
X161.798Y-106.66
X161.91Y-104.165
X167.96Y-93.746
X169.393Y-134.656
X169.403Y-83.398
X169.469Y-96.114
X169.469Y-105.842
X172.065Y-95.565
X172.969Y-84.765
X176.367Y-77.394
X179.075Y-122.723
X179.146Y-128.829
X181.481Y-112.3
X183.805Y-126.228
X183.84Y-131.257
X183.855Y-118.669
X187.823Y-128.59
X188.62Y-122.612
X190.8Y-135.174
T3
X147.884Y-126.408
X150.384Y-126.408
X152.884Y-126.408
X155.384Y-126.408
X146.48Y-80.777
X148.98Y-80.777
X151.48Y-80.777
X153.98Y-80.777
X122.855Y-126.629
X125.355Y-126.629
X127.855Y-126.629
X123.026Y-118.933
X125.526Y-118.933
X128.026Y-118.933
T4
X165.054Y-75.027
X169.554Y-75.027
T5
X105.522Y-124.343
X105.522Y-126.843
X135.179Y-126.66
X137.679Y-126.66
X135.061Y-118.913
X137.561Y-118.913
X166.969Y-114.32
X169.469Y-114.32
X166.977Y-127.945
X169.477Y-127.945
X166.969Y-99.111
X169.469Y-99.111
X166.822Y-87.539
X169.322Y-87.539
X138.669Y-86.573
X138.669Y-89.113
X188.686Y-76.027
X188.686Y-78.567
X188.686Y-81.107
X188.686Y-83.647
X188.686Y-86.187
X188.686Y-88.727
X188.686Y-91.267
X188.686Y-93.807
X188.686Y-96.347
X188.686Y-98.887
X188.686Y-101.427
X188.712Y-107.513
X188.712Y-110.053
X188.712Y-112.593
X188.712Y-115.133
X105.486Y-132.949
X108.026Y-132.949
X110.566Y-132.949
X113.106Y-132.949
X115.646Y-132.949
X118.186Y-132.949
X120.726Y-132.949
X123.266Y-132.949
X125.806Y-132.949
X128.346Y-132.949
X130.886Y-132.949
X133.426Y-132.949
X108.247Y-114.242
X110.787Y-114.242
X106.157Y-79.776
X106.157Y-82.316
X108.697Y-79.776
X108.697Y-82.316
X111.237Y-79.776
X111.237Y-82.316
T6
X163.804Y-77.517
X170.814Y-77.517
T5
G00X182.505Y-122.612
M15
G01X185.205Y-122.612
M16
G05
G00X182.755Y-128.612
M15
G01X184.955Y-128.612
M16
G05
T0
M30
