G04 #@! TF.GenerationSoftware,KiCad,Pcbnew,(6.0.0-rc1-dev-1030-g80d50d98b)*
G04 #@! TF.CreationDate,2019-01-07T10:15:23-07:00*
G04 #@! TF.ProjectId,airmed_board_w1.0,6169726D65645F626F6172645F77312E,rev?*
G04 #@! TF.SameCoordinates,Original*
G04 #@! TF.FileFunction,Paste,Top*
G04 #@! TF.FilePolarity,Positive*
%FSLAX46Y46*%
G04 Gerber Fmt 4.6, Leading zero omitted, Abs format (unit mm)*
G04 Created by KiCad (PCBNEW (6.0.0-rc1-dev-1030-g80d50d98b)) date Monday, January 07, 2019 at 10:15:23 AM*
%MOMM*%
%LPD*%
G01*
G04 APERTURE LIST*
%ADD10C,0.050000*%
%ADD11C,0.100000*%
%ADD12C,0.590000*%
%ADD13C,0.875000*%
%ADD14C,1.250000*%
%ADD15R,2.100000X2.100000*%
%ADD16R,0.900000X0.900000*%
%ADD17R,0.730000X0.730000*%
%ADD18O,0.300000X0.750000*%
%ADD19O,0.750000X0.300000*%
%ADD20R,2.000000X0.800000*%
%ADD21C,0.975000*%
%ADD22R,0.900000X0.800000*%
%ADD23R,0.750000X2.100000*%
%ADD24R,0.700000X1.550000*%
G04 APERTURE END LIST*
D10*
X113487200Y-131826000D02*
X113487200Y-116027200D01*
X175641000Y-131826000D02*
X113487200Y-131826000D01*
X175641000Y-90474800D02*
X175641000Y-131826000D01*
X113487200Y-90474800D02*
X175641000Y-90474800D01*
X113487200Y-91948000D02*
X113487200Y-90474800D01*
X113487200Y-116027200D02*
X113487200Y-91948000D01*
D11*
G04 #@! TO.C,R5*
G36*
X155406358Y-102908310D02*
X155420676Y-102910434D01*
X155434717Y-102913951D01*
X155448346Y-102918828D01*
X155461431Y-102925017D01*
X155473847Y-102932458D01*
X155485473Y-102941081D01*
X155496198Y-102950802D01*
X155505919Y-102961527D01*
X155514542Y-102973153D01*
X155521983Y-102985569D01*
X155528172Y-102998654D01*
X155533049Y-103012283D01*
X155536566Y-103026324D01*
X155538690Y-103040642D01*
X155539400Y-103055100D01*
X155539400Y-103350100D01*
X155538690Y-103364558D01*
X155536566Y-103378876D01*
X155533049Y-103392917D01*
X155528172Y-103406546D01*
X155521983Y-103419631D01*
X155514542Y-103432047D01*
X155505919Y-103443673D01*
X155496198Y-103454398D01*
X155485473Y-103464119D01*
X155473847Y-103472742D01*
X155461431Y-103480183D01*
X155448346Y-103486372D01*
X155434717Y-103491249D01*
X155420676Y-103494766D01*
X155406358Y-103496890D01*
X155391900Y-103497600D01*
X155046900Y-103497600D01*
X155032442Y-103496890D01*
X155018124Y-103494766D01*
X155004083Y-103491249D01*
X154990454Y-103486372D01*
X154977369Y-103480183D01*
X154964953Y-103472742D01*
X154953327Y-103464119D01*
X154942602Y-103454398D01*
X154932881Y-103443673D01*
X154924258Y-103432047D01*
X154916817Y-103419631D01*
X154910628Y-103406546D01*
X154905751Y-103392917D01*
X154902234Y-103378876D01*
X154900110Y-103364558D01*
X154899400Y-103350100D01*
X154899400Y-103055100D01*
X154900110Y-103040642D01*
X154902234Y-103026324D01*
X154905751Y-103012283D01*
X154910628Y-102998654D01*
X154916817Y-102985569D01*
X154924258Y-102973153D01*
X154932881Y-102961527D01*
X154942602Y-102950802D01*
X154953327Y-102941081D01*
X154964953Y-102932458D01*
X154977369Y-102925017D01*
X154990454Y-102918828D01*
X155004083Y-102913951D01*
X155018124Y-102910434D01*
X155032442Y-102908310D01*
X155046900Y-102907600D01*
X155391900Y-102907600D01*
X155406358Y-102908310D01*
X155406358Y-102908310D01*
G37*
D12*
X155219400Y-103202600D03*
D11*
G36*
X155406358Y-101938310D02*
X155420676Y-101940434D01*
X155434717Y-101943951D01*
X155448346Y-101948828D01*
X155461431Y-101955017D01*
X155473847Y-101962458D01*
X155485473Y-101971081D01*
X155496198Y-101980802D01*
X155505919Y-101991527D01*
X155514542Y-102003153D01*
X155521983Y-102015569D01*
X155528172Y-102028654D01*
X155533049Y-102042283D01*
X155536566Y-102056324D01*
X155538690Y-102070642D01*
X155539400Y-102085100D01*
X155539400Y-102380100D01*
X155538690Y-102394558D01*
X155536566Y-102408876D01*
X155533049Y-102422917D01*
X155528172Y-102436546D01*
X155521983Y-102449631D01*
X155514542Y-102462047D01*
X155505919Y-102473673D01*
X155496198Y-102484398D01*
X155485473Y-102494119D01*
X155473847Y-102502742D01*
X155461431Y-102510183D01*
X155448346Y-102516372D01*
X155434717Y-102521249D01*
X155420676Y-102524766D01*
X155406358Y-102526890D01*
X155391900Y-102527600D01*
X155046900Y-102527600D01*
X155032442Y-102526890D01*
X155018124Y-102524766D01*
X155004083Y-102521249D01*
X154990454Y-102516372D01*
X154977369Y-102510183D01*
X154964953Y-102502742D01*
X154953327Y-102494119D01*
X154942602Y-102484398D01*
X154932881Y-102473673D01*
X154924258Y-102462047D01*
X154916817Y-102449631D01*
X154910628Y-102436546D01*
X154905751Y-102422917D01*
X154902234Y-102408876D01*
X154900110Y-102394558D01*
X154899400Y-102380100D01*
X154899400Y-102085100D01*
X154900110Y-102070642D01*
X154902234Y-102056324D01*
X154905751Y-102042283D01*
X154910628Y-102028654D01*
X154916817Y-102015569D01*
X154924258Y-102003153D01*
X154932881Y-101991527D01*
X154942602Y-101980802D01*
X154953327Y-101971081D01*
X154964953Y-101962458D01*
X154977369Y-101955017D01*
X154990454Y-101948828D01*
X155004083Y-101943951D01*
X155018124Y-101940434D01*
X155032442Y-101938310D01*
X155046900Y-101937600D01*
X155391900Y-101937600D01*
X155406358Y-101938310D01*
X155406358Y-101938310D01*
G37*
D12*
X155219400Y-102232600D03*
G04 #@! TD*
D11*
G04 #@! TO.C,D1*
G36*
X155497091Y-98928253D02*
X155518326Y-98931403D01*
X155539150Y-98936619D01*
X155559362Y-98943851D01*
X155578768Y-98953030D01*
X155597181Y-98964066D01*
X155614424Y-98976854D01*
X155630330Y-98991270D01*
X155644746Y-99007176D01*
X155657534Y-99024419D01*
X155668570Y-99042832D01*
X155677749Y-99062238D01*
X155684981Y-99082450D01*
X155690197Y-99103274D01*
X155693347Y-99124509D01*
X155694400Y-99145950D01*
X155694400Y-99583450D01*
X155693347Y-99604891D01*
X155690197Y-99626126D01*
X155684981Y-99646950D01*
X155677749Y-99667162D01*
X155668570Y-99686568D01*
X155657534Y-99704981D01*
X155644746Y-99722224D01*
X155630330Y-99738130D01*
X155614424Y-99752546D01*
X155597181Y-99765334D01*
X155578768Y-99776370D01*
X155559362Y-99785549D01*
X155539150Y-99792781D01*
X155518326Y-99797997D01*
X155497091Y-99801147D01*
X155475650Y-99802200D01*
X154963150Y-99802200D01*
X154941709Y-99801147D01*
X154920474Y-99797997D01*
X154899650Y-99792781D01*
X154879438Y-99785549D01*
X154860032Y-99776370D01*
X154841619Y-99765334D01*
X154824376Y-99752546D01*
X154808470Y-99738130D01*
X154794054Y-99722224D01*
X154781266Y-99704981D01*
X154770230Y-99686568D01*
X154761051Y-99667162D01*
X154753819Y-99646950D01*
X154748603Y-99626126D01*
X154745453Y-99604891D01*
X154744400Y-99583450D01*
X154744400Y-99145950D01*
X154745453Y-99124509D01*
X154748603Y-99103274D01*
X154753819Y-99082450D01*
X154761051Y-99062238D01*
X154770230Y-99042832D01*
X154781266Y-99024419D01*
X154794054Y-99007176D01*
X154808470Y-98991270D01*
X154824376Y-98976854D01*
X154841619Y-98964066D01*
X154860032Y-98953030D01*
X154879438Y-98943851D01*
X154899650Y-98936619D01*
X154920474Y-98931403D01*
X154941709Y-98928253D01*
X154963150Y-98927200D01*
X155475650Y-98927200D01*
X155497091Y-98928253D01*
X155497091Y-98928253D01*
G37*
D13*
X155219400Y-99364700D03*
D11*
G36*
X155497091Y-100503253D02*
X155518326Y-100506403D01*
X155539150Y-100511619D01*
X155559362Y-100518851D01*
X155578768Y-100528030D01*
X155597181Y-100539066D01*
X155614424Y-100551854D01*
X155630330Y-100566270D01*
X155644746Y-100582176D01*
X155657534Y-100599419D01*
X155668570Y-100617832D01*
X155677749Y-100637238D01*
X155684981Y-100657450D01*
X155690197Y-100678274D01*
X155693347Y-100699509D01*
X155694400Y-100720950D01*
X155694400Y-101158450D01*
X155693347Y-101179891D01*
X155690197Y-101201126D01*
X155684981Y-101221950D01*
X155677749Y-101242162D01*
X155668570Y-101261568D01*
X155657534Y-101279981D01*
X155644746Y-101297224D01*
X155630330Y-101313130D01*
X155614424Y-101327546D01*
X155597181Y-101340334D01*
X155578768Y-101351370D01*
X155559362Y-101360549D01*
X155539150Y-101367781D01*
X155518326Y-101372997D01*
X155497091Y-101376147D01*
X155475650Y-101377200D01*
X154963150Y-101377200D01*
X154941709Y-101376147D01*
X154920474Y-101372997D01*
X154899650Y-101367781D01*
X154879438Y-101360549D01*
X154860032Y-101351370D01*
X154841619Y-101340334D01*
X154824376Y-101327546D01*
X154808470Y-101313130D01*
X154794054Y-101297224D01*
X154781266Y-101279981D01*
X154770230Y-101261568D01*
X154761051Y-101242162D01*
X154753819Y-101221950D01*
X154748603Y-101201126D01*
X154745453Y-101179891D01*
X154744400Y-101158450D01*
X154744400Y-100720950D01*
X154745453Y-100699509D01*
X154748603Y-100678274D01*
X154753819Y-100657450D01*
X154761051Y-100637238D01*
X154770230Y-100617832D01*
X154781266Y-100599419D01*
X154794054Y-100582176D01*
X154808470Y-100566270D01*
X154824376Y-100551854D01*
X154841619Y-100539066D01*
X154860032Y-100528030D01*
X154879438Y-100518851D01*
X154899650Y-100511619D01*
X154920474Y-100506403D01*
X154941709Y-100503253D01*
X154963150Y-100502200D01*
X155475650Y-100502200D01*
X155497091Y-100503253D01*
X155497091Y-100503253D01*
G37*
D13*
X155219400Y-100939700D03*
G04 #@! TD*
D11*
G04 #@! TO.C,C3*
G36*
X167273504Y-93480204D02*
X167297773Y-93483804D01*
X167321571Y-93489765D01*
X167344671Y-93498030D01*
X167366849Y-93508520D01*
X167387893Y-93521133D01*
X167407598Y-93535747D01*
X167425777Y-93552223D01*
X167442253Y-93570402D01*
X167456867Y-93590107D01*
X167469480Y-93611151D01*
X167479970Y-93633329D01*
X167488235Y-93656429D01*
X167494196Y-93680227D01*
X167497796Y-93704496D01*
X167499000Y-93729000D01*
X167499000Y-94479000D01*
X167497796Y-94503504D01*
X167494196Y-94527773D01*
X167488235Y-94551571D01*
X167479970Y-94574671D01*
X167469480Y-94596849D01*
X167456867Y-94617893D01*
X167442253Y-94637598D01*
X167425777Y-94655777D01*
X167407598Y-94672253D01*
X167387893Y-94686867D01*
X167366849Y-94699480D01*
X167344671Y-94709970D01*
X167321571Y-94718235D01*
X167297773Y-94724196D01*
X167273504Y-94727796D01*
X167249000Y-94729000D01*
X165999000Y-94729000D01*
X165974496Y-94727796D01*
X165950227Y-94724196D01*
X165926429Y-94718235D01*
X165903329Y-94709970D01*
X165881151Y-94699480D01*
X165860107Y-94686867D01*
X165840402Y-94672253D01*
X165822223Y-94655777D01*
X165805747Y-94637598D01*
X165791133Y-94617893D01*
X165778520Y-94596849D01*
X165768030Y-94574671D01*
X165759765Y-94551571D01*
X165753804Y-94527773D01*
X165750204Y-94503504D01*
X165749000Y-94479000D01*
X165749000Y-93729000D01*
X165750204Y-93704496D01*
X165753804Y-93680227D01*
X165759765Y-93656429D01*
X165768030Y-93633329D01*
X165778520Y-93611151D01*
X165791133Y-93590107D01*
X165805747Y-93570402D01*
X165822223Y-93552223D01*
X165840402Y-93535747D01*
X165860107Y-93521133D01*
X165881151Y-93508520D01*
X165903329Y-93498030D01*
X165926429Y-93489765D01*
X165950227Y-93483804D01*
X165974496Y-93480204D01*
X165999000Y-93479000D01*
X167249000Y-93479000D01*
X167273504Y-93480204D01*
X167273504Y-93480204D01*
G37*
D14*
X166624000Y-94104000D03*
D11*
G36*
X167273504Y-96280204D02*
X167297773Y-96283804D01*
X167321571Y-96289765D01*
X167344671Y-96298030D01*
X167366849Y-96308520D01*
X167387893Y-96321133D01*
X167407598Y-96335747D01*
X167425777Y-96352223D01*
X167442253Y-96370402D01*
X167456867Y-96390107D01*
X167469480Y-96411151D01*
X167479970Y-96433329D01*
X167488235Y-96456429D01*
X167494196Y-96480227D01*
X167497796Y-96504496D01*
X167499000Y-96529000D01*
X167499000Y-97279000D01*
X167497796Y-97303504D01*
X167494196Y-97327773D01*
X167488235Y-97351571D01*
X167479970Y-97374671D01*
X167469480Y-97396849D01*
X167456867Y-97417893D01*
X167442253Y-97437598D01*
X167425777Y-97455777D01*
X167407598Y-97472253D01*
X167387893Y-97486867D01*
X167366849Y-97499480D01*
X167344671Y-97509970D01*
X167321571Y-97518235D01*
X167297773Y-97524196D01*
X167273504Y-97527796D01*
X167249000Y-97529000D01*
X165999000Y-97529000D01*
X165974496Y-97527796D01*
X165950227Y-97524196D01*
X165926429Y-97518235D01*
X165903329Y-97509970D01*
X165881151Y-97499480D01*
X165860107Y-97486867D01*
X165840402Y-97472253D01*
X165822223Y-97455777D01*
X165805747Y-97437598D01*
X165791133Y-97417893D01*
X165778520Y-97396849D01*
X165768030Y-97374671D01*
X165759765Y-97351571D01*
X165753804Y-97327773D01*
X165750204Y-97303504D01*
X165749000Y-97279000D01*
X165749000Y-96529000D01*
X165750204Y-96504496D01*
X165753804Y-96480227D01*
X165759765Y-96456429D01*
X165768030Y-96433329D01*
X165778520Y-96411151D01*
X165791133Y-96390107D01*
X165805747Y-96370402D01*
X165822223Y-96352223D01*
X165840402Y-96335747D01*
X165860107Y-96321133D01*
X165881151Y-96308520D01*
X165903329Y-96298030D01*
X165926429Y-96289765D01*
X165950227Y-96283804D01*
X165974496Y-96280204D01*
X165999000Y-96279000D01*
X167249000Y-96279000D01*
X167273504Y-96280204D01*
X167273504Y-96280204D01*
G37*
D14*
X166624000Y-96904000D03*
G04 #@! TD*
D11*
G04 #@! TO.C,C1*
G36*
X171362904Y-105519804D02*
X171387173Y-105523404D01*
X171410971Y-105529365D01*
X171434071Y-105537630D01*
X171456249Y-105548120D01*
X171477293Y-105560733D01*
X171496998Y-105575347D01*
X171515177Y-105591823D01*
X171531653Y-105610002D01*
X171546267Y-105629707D01*
X171558880Y-105650751D01*
X171569370Y-105672929D01*
X171577635Y-105696029D01*
X171583596Y-105719827D01*
X171587196Y-105744096D01*
X171588400Y-105768600D01*
X171588400Y-106518600D01*
X171587196Y-106543104D01*
X171583596Y-106567373D01*
X171577635Y-106591171D01*
X171569370Y-106614271D01*
X171558880Y-106636449D01*
X171546267Y-106657493D01*
X171531653Y-106677198D01*
X171515177Y-106695377D01*
X171496998Y-106711853D01*
X171477293Y-106726467D01*
X171456249Y-106739080D01*
X171434071Y-106749570D01*
X171410971Y-106757835D01*
X171387173Y-106763796D01*
X171362904Y-106767396D01*
X171338400Y-106768600D01*
X170088400Y-106768600D01*
X170063896Y-106767396D01*
X170039627Y-106763796D01*
X170015829Y-106757835D01*
X169992729Y-106749570D01*
X169970551Y-106739080D01*
X169949507Y-106726467D01*
X169929802Y-106711853D01*
X169911623Y-106695377D01*
X169895147Y-106677198D01*
X169880533Y-106657493D01*
X169867920Y-106636449D01*
X169857430Y-106614271D01*
X169849165Y-106591171D01*
X169843204Y-106567373D01*
X169839604Y-106543104D01*
X169838400Y-106518600D01*
X169838400Y-105768600D01*
X169839604Y-105744096D01*
X169843204Y-105719827D01*
X169849165Y-105696029D01*
X169857430Y-105672929D01*
X169867920Y-105650751D01*
X169880533Y-105629707D01*
X169895147Y-105610002D01*
X169911623Y-105591823D01*
X169929802Y-105575347D01*
X169949507Y-105560733D01*
X169970551Y-105548120D01*
X169992729Y-105537630D01*
X170015829Y-105529365D01*
X170039627Y-105523404D01*
X170063896Y-105519804D01*
X170088400Y-105518600D01*
X171338400Y-105518600D01*
X171362904Y-105519804D01*
X171362904Y-105519804D01*
G37*
D14*
X170713400Y-106143600D03*
D11*
G36*
X171362904Y-108319804D02*
X171387173Y-108323404D01*
X171410971Y-108329365D01*
X171434071Y-108337630D01*
X171456249Y-108348120D01*
X171477293Y-108360733D01*
X171496998Y-108375347D01*
X171515177Y-108391823D01*
X171531653Y-108410002D01*
X171546267Y-108429707D01*
X171558880Y-108450751D01*
X171569370Y-108472929D01*
X171577635Y-108496029D01*
X171583596Y-108519827D01*
X171587196Y-108544096D01*
X171588400Y-108568600D01*
X171588400Y-109318600D01*
X171587196Y-109343104D01*
X171583596Y-109367373D01*
X171577635Y-109391171D01*
X171569370Y-109414271D01*
X171558880Y-109436449D01*
X171546267Y-109457493D01*
X171531653Y-109477198D01*
X171515177Y-109495377D01*
X171496998Y-109511853D01*
X171477293Y-109526467D01*
X171456249Y-109539080D01*
X171434071Y-109549570D01*
X171410971Y-109557835D01*
X171387173Y-109563796D01*
X171362904Y-109567396D01*
X171338400Y-109568600D01*
X170088400Y-109568600D01*
X170063896Y-109567396D01*
X170039627Y-109563796D01*
X170015829Y-109557835D01*
X169992729Y-109549570D01*
X169970551Y-109539080D01*
X169949507Y-109526467D01*
X169929802Y-109511853D01*
X169911623Y-109495377D01*
X169895147Y-109477198D01*
X169880533Y-109457493D01*
X169867920Y-109436449D01*
X169857430Y-109414271D01*
X169849165Y-109391171D01*
X169843204Y-109367373D01*
X169839604Y-109343104D01*
X169838400Y-109318600D01*
X169838400Y-108568600D01*
X169839604Y-108544096D01*
X169843204Y-108519827D01*
X169849165Y-108496029D01*
X169857430Y-108472929D01*
X169867920Y-108450751D01*
X169880533Y-108429707D01*
X169895147Y-108410002D01*
X169911623Y-108391823D01*
X169929802Y-108375347D01*
X169949507Y-108360733D01*
X169970551Y-108348120D01*
X169992729Y-108337630D01*
X170015829Y-108329365D01*
X170039627Y-108323404D01*
X170063896Y-108319804D01*
X170088400Y-108318600D01*
X171338400Y-108318600D01*
X171362904Y-108319804D01*
X171362904Y-108319804D01*
G37*
D14*
X170713400Y-108943600D03*
G04 #@! TD*
D15*
G04 #@! TO.C,IC1*
X127201800Y-108101000D03*
X127201800Y-111101000D03*
X127201800Y-114101000D03*
X130201800Y-108101000D03*
X130201800Y-111101000D03*
X130201800Y-114101000D03*
X133201800Y-108101000D03*
X133201800Y-111101000D03*
X133201800Y-114101000D03*
D16*
X135051800Y-119126000D03*
X133781800Y-119126000D03*
X132511800Y-119126000D03*
X131241800Y-119126000D03*
X129971800Y-119126000D03*
X128701800Y-119126000D03*
X127431800Y-119126000D03*
X126161800Y-119126000D03*
X124891800Y-119126000D03*
X123621800Y-119126000D03*
X122351800Y-119126000D03*
X120651800Y-119126000D03*
X120651800Y-117856000D03*
X120651800Y-116586000D03*
X120651800Y-115316000D03*
X120651800Y-114046000D03*
X120651800Y-112776000D03*
X120651800Y-111506000D03*
X120651800Y-110236000D03*
X120651800Y-108966000D03*
X120651800Y-107696000D03*
X120651800Y-106426000D03*
X120651800Y-105156000D03*
X120651800Y-103886000D03*
X120651800Y-102616000D03*
X120651800Y-101346000D03*
X120651800Y-100076000D03*
X122351800Y-100076000D03*
X123621800Y-100076000D03*
X124891800Y-100076000D03*
X126161800Y-100076000D03*
X127431800Y-100076000D03*
X128701800Y-100076000D03*
X129971800Y-100076000D03*
X131241800Y-100076000D03*
X132511800Y-100076000D03*
X133781800Y-100076000D03*
X135051800Y-100076000D03*
X136751800Y-100076000D03*
X136751800Y-101346000D03*
X136751800Y-102616000D03*
X136751800Y-103886000D03*
X136751800Y-105156000D03*
X136751800Y-106426000D03*
X136751800Y-107696000D03*
X136751800Y-108966000D03*
X136751800Y-110236000D03*
X136751800Y-111506000D03*
X136751800Y-112776000D03*
X136751800Y-114046000D03*
X136751800Y-115316000D03*
X136751800Y-116586000D03*
X136751800Y-117856000D03*
X136751800Y-119126000D03*
G04 #@! TD*
D17*
G04 #@! TO.C,U2*
X160332000Y-97162200D03*
X161232000Y-97162200D03*
X161232000Y-98062200D03*
X160332000Y-98062200D03*
D18*
X160032000Y-96137200D03*
X160532000Y-96137200D03*
X161032000Y-96137200D03*
X161532000Y-96137200D03*
D19*
X162257000Y-96862200D03*
X162257000Y-97362200D03*
X162257000Y-97862200D03*
X162257000Y-98362200D03*
D18*
X161532000Y-99087200D03*
X161032000Y-99087200D03*
X160532000Y-99087200D03*
X160032000Y-99087200D03*
D19*
X159307000Y-98362200D03*
X159307000Y-97862200D03*
X159307000Y-97362200D03*
X159307000Y-96862200D03*
G04 #@! TD*
D17*
G04 #@! TO.C,U1*
X164192800Y-109125600D03*
X165092800Y-109125600D03*
X165092800Y-110025600D03*
X164192800Y-110025600D03*
D18*
X163892800Y-108100600D03*
X164392800Y-108100600D03*
X164892800Y-108100600D03*
X165392800Y-108100600D03*
D19*
X166117800Y-108825600D03*
X166117800Y-109325600D03*
X166117800Y-109825600D03*
X166117800Y-110325600D03*
D18*
X165392800Y-111050600D03*
X164892800Y-111050600D03*
X164392800Y-111050600D03*
X163892800Y-111050600D03*
D19*
X163167800Y-110325600D03*
X163167800Y-109825600D03*
X163167800Y-109325600D03*
X163167800Y-108825600D03*
G04 #@! TD*
D11*
G04 #@! TO.C,R14*
G36*
X157974558Y-98943910D02*
X157988876Y-98946034D01*
X158002917Y-98949551D01*
X158016546Y-98954428D01*
X158029631Y-98960617D01*
X158042047Y-98968058D01*
X158053673Y-98976681D01*
X158064398Y-98986402D01*
X158074119Y-98997127D01*
X158082742Y-99008753D01*
X158090183Y-99021169D01*
X158096372Y-99034254D01*
X158101249Y-99047883D01*
X158104766Y-99061924D01*
X158106890Y-99076242D01*
X158107600Y-99090700D01*
X158107600Y-99435700D01*
X158106890Y-99450158D01*
X158104766Y-99464476D01*
X158101249Y-99478517D01*
X158096372Y-99492146D01*
X158090183Y-99505231D01*
X158082742Y-99517647D01*
X158074119Y-99529273D01*
X158064398Y-99539998D01*
X158053673Y-99549719D01*
X158042047Y-99558342D01*
X158029631Y-99565783D01*
X158016546Y-99571972D01*
X158002917Y-99576849D01*
X157988876Y-99580366D01*
X157974558Y-99582490D01*
X157960100Y-99583200D01*
X157665100Y-99583200D01*
X157650642Y-99582490D01*
X157636324Y-99580366D01*
X157622283Y-99576849D01*
X157608654Y-99571972D01*
X157595569Y-99565783D01*
X157583153Y-99558342D01*
X157571527Y-99549719D01*
X157560802Y-99539998D01*
X157551081Y-99529273D01*
X157542458Y-99517647D01*
X157535017Y-99505231D01*
X157528828Y-99492146D01*
X157523951Y-99478517D01*
X157520434Y-99464476D01*
X157518310Y-99450158D01*
X157517600Y-99435700D01*
X157517600Y-99090700D01*
X157518310Y-99076242D01*
X157520434Y-99061924D01*
X157523951Y-99047883D01*
X157528828Y-99034254D01*
X157535017Y-99021169D01*
X157542458Y-99008753D01*
X157551081Y-98997127D01*
X157560802Y-98986402D01*
X157571527Y-98976681D01*
X157583153Y-98968058D01*
X157595569Y-98960617D01*
X157608654Y-98954428D01*
X157622283Y-98949551D01*
X157636324Y-98946034D01*
X157650642Y-98943910D01*
X157665100Y-98943200D01*
X157960100Y-98943200D01*
X157974558Y-98943910D01*
X157974558Y-98943910D01*
G37*
D12*
X157812600Y-99263200D03*
D11*
G36*
X157004558Y-98943910D02*
X157018876Y-98946034D01*
X157032917Y-98949551D01*
X157046546Y-98954428D01*
X157059631Y-98960617D01*
X157072047Y-98968058D01*
X157083673Y-98976681D01*
X157094398Y-98986402D01*
X157104119Y-98997127D01*
X157112742Y-99008753D01*
X157120183Y-99021169D01*
X157126372Y-99034254D01*
X157131249Y-99047883D01*
X157134766Y-99061924D01*
X157136890Y-99076242D01*
X157137600Y-99090700D01*
X157137600Y-99435700D01*
X157136890Y-99450158D01*
X157134766Y-99464476D01*
X157131249Y-99478517D01*
X157126372Y-99492146D01*
X157120183Y-99505231D01*
X157112742Y-99517647D01*
X157104119Y-99529273D01*
X157094398Y-99539998D01*
X157083673Y-99549719D01*
X157072047Y-99558342D01*
X157059631Y-99565783D01*
X157046546Y-99571972D01*
X157032917Y-99576849D01*
X157018876Y-99580366D01*
X157004558Y-99582490D01*
X156990100Y-99583200D01*
X156695100Y-99583200D01*
X156680642Y-99582490D01*
X156666324Y-99580366D01*
X156652283Y-99576849D01*
X156638654Y-99571972D01*
X156625569Y-99565783D01*
X156613153Y-99558342D01*
X156601527Y-99549719D01*
X156590802Y-99539998D01*
X156581081Y-99529273D01*
X156572458Y-99517647D01*
X156565017Y-99505231D01*
X156558828Y-99492146D01*
X156553951Y-99478517D01*
X156550434Y-99464476D01*
X156548310Y-99450158D01*
X156547600Y-99435700D01*
X156547600Y-99090700D01*
X156548310Y-99076242D01*
X156550434Y-99061924D01*
X156553951Y-99047883D01*
X156558828Y-99034254D01*
X156565017Y-99021169D01*
X156572458Y-99008753D01*
X156581081Y-98997127D01*
X156590802Y-98986402D01*
X156601527Y-98976681D01*
X156613153Y-98968058D01*
X156625569Y-98960617D01*
X156638654Y-98954428D01*
X156652283Y-98949551D01*
X156666324Y-98946034D01*
X156680642Y-98943910D01*
X156695100Y-98943200D01*
X156990100Y-98943200D01*
X157004558Y-98943910D01*
X157004558Y-98943910D01*
G37*
D12*
X156842600Y-99263200D03*
G04 #@! TD*
D11*
G04 #@! TO.C,R13*
G36*
X161886158Y-111008910D02*
X161900476Y-111011034D01*
X161914517Y-111014551D01*
X161928146Y-111019428D01*
X161941231Y-111025617D01*
X161953647Y-111033058D01*
X161965273Y-111041681D01*
X161975998Y-111051402D01*
X161985719Y-111062127D01*
X161994342Y-111073753D01*
X162001783Y-111086169D01*
X162007972Y-111099254D01*
X162012849Y-111112883D01*
X162016366Y-111126924D01*
X162018490Y-111141242D01*
X162019200Y-111155700D01*
X162019200Y-111500700D01*
X162018490Y-111515158D01*
X162016366Y-111529476D01*
X162012849Y-111543517D01*
X162007972Y-111557146D01*
X162001783Y-111570231D01*
X161994342Y-111582647D01*
X161985719Y-111594273D01*
X161975998Y-111604998D01*
X161965273Y-111614719D01*
X161953647Y-111623342D01*
X161941231Y-111630783D01*
X161928146Y-111636972D01*
X161914517Y-111641849D01*
X161900476Y-111645366D01*
X161886158Y-111647490D01*
X161871700Y-111648200D01*
X161576700Y-111648200D01*
X161562242Y-111647490D01*
X161547924Y-111645366D01*
X161533883Y-111641849D01*
X161520254Y-111636972D01*
X161507169Y-111630783D01*
X161494753Y-111623342D01*
X161483127Y-111614719D01*
X161472402Y-111604998D01*
X161462681Y-111594273D01*
X161454058Y-111582647D01*
X161446617Y-111570231D01*
X161440428Y-111557146D01*
X161435551Y-111543517D01*
X161432034Y-111529476D01*
X161429910Y-111515158D01*
X161429200Y-111500700D01*
X161429200Y-111155700D01*
X161429910Y-111141242D01*
X161432034Y-111126924D01*
X161435551Y-111112883D01*
X161440428Y-111099254D01*
X161446617Y-111086169D01*
X161454058Y-111073753D01*
X161462681Y-111062127D01*
X161472402Y-111051402D01*
X161483127Y-111041681D01*
X161494753Y-111033058D01*
X161507169Y-111025617D01*
X161520254Y-111019428D01*
X161533883Y-111014551D01*
X161547924Y-111011034D01*
X161562242Y-111008910D01*
X161576700Y-111008200D01*
X161871700Y-111008200D01*
X161886158Y-111008910D01*
X161886158Y-111008910D01*
G37*
D12*
X161724200Y-111328200D03*
D11*
G36*
X160916158Y-111008910D02*
X160930476Y-111011034D01*
X160944517Y-111014551D01*
X160958146Y-111019428D01*
X160971231Y-111025617D01*
X160983647Y-111033058D01*
X160995273Y-111041681D01*
X161005998Y-111051402D01*
X161015719Y-111062127D01*
X161024342Y-111073753D01*
X161031783Y-111086169D01*
X161037972Y-111099254D01*
X161042849Y-111112883D01*
X161046366Y-111126924D01*
X161048490Y-111141242D01*
X161049200Y-111155700D01*
X161049200Y-111500700D01*
X161048490Y-111515158D01*
X161046366Y-111529476D01*
X161042849Y-111543517D01*
X161037972Y-111557146D01*
X161031783Y-111570231D01*
X161024342Y-111582647D01*
X161015719Y-111594273D01*
X161005998Y-111604998D01*
X160995273Y-111614719D01*
X160983647Y-111623342D01*
X160971231Y-111630783D01*
X160958146Y-111636972D01*
X160944517Y-111641849D01*
X160930476Y-111645366D01*
X160916158Y-111647490D01*
X160901700Y-111648200D01*
X160606700Y-111648200D01*
X160592242Y-111647490D01*
X160577924Y-111645366D01*
X160563883Y-111641849D01*
X160550254Y-111636972D01*
X160537169Y-111630783D01*
X160524753Y-111623342D01*
X160513127Y-111614719D01*
X160502402Y-111604998D01*
X160492681Y-111594273D01*
X160484058Y-111582647D01*
X160476617Y-111570231D01*
X160470428Y-111557146D01*
X160465551Y-111543517D01*
X160462034Y-111529476D01*
X160459910Y-111515158D01*
X160459200Y-111500700D01*
X160459200Y-111155700D01*
X160459910Y-111141242D01*
X160462034Y-111126924D01*
X160465551Y-111112883D01*
X160470428Y-111099254D01*
X160476617Y-111086169D01*
X160484058Y-111073753D01*
X160492681Y-111062127D01*
X160502402Y-111051402D01*
X160513127Y-111041681D01*
X160524753Y-111033058D01*
X160537169Y-111025617D01*
X160550254Y-111019428D01*
X160563883Y-111014551D01*
X160577924Y-111011034D01*
X160592242Y-111008910D01*
X160606700Y-111008200D01*
X160901700Y-111008200D01*
X160916158Y-111008910D01*
X160916158Y-111008910D01*
G37*
D12*
X160754200Y-111328200D03*
G04 #@! TD*
D20*
G04 #@! TO.C,L3*
X156794200Y-95367600D03*
X156794200Y-97367600D03*
G04 #@! TD*
G04 #@! TO.C,L2*
X160477200Y-107331000D03*
X160477200Y-109331000D03*
G04 #@! TD*
D11*
G04 #@! TO.C,C17*
G36*
X158562742Y-92798574D02*
X158586403Y-92802084D01*
X158609607Y-92807896D01*
X158632129Y-92815954D01*
X158653753Y-92826182D01*
X158674270Y-92838479D01*
X158693483Y-92852729D01*
X158711207Y-92868793D01*
X158727271Y-92886517D01*
X158741521Y-92905730D01*
X158753818Y-92926247D01*
X158764046Y-92947871D01*
X158772104Y-92970393D01*
X158777916Y-92993597D01*
X158781426Y-93017258D01*
X158782600Y-93041150D01*
X158782600Y-93953650D01*
X158781426Y-93977542D01*
X158777916Y-94001203D01*
X158772104Y-94024407D01*
X158764046Y-94046929D01*
X158753818Y-94068553D01*
X158741521Y-94089070D01*
X158727271Y-94108283D01*
X158711207Y-94126007D01*
X158693483Y-94142071D01*
X158674270Y-94156321D01*
X158653753Y-94168618D01*
X158632129Y-94178846D01*
X158609607Y-94186904D01*
X158586403Y-94192716D01*
X158562742Y-94196226D01*
X158538850Y-94197400D01*
X158051350Y-94197400D01*
X158027458Y-94196226D01*
X158003797Y-94192716D01*
X157980593Y-94186904D01*
X157958071Y-94178846D01*
X157936447Y-94168618D01*
X157915930Y-94156321D01*
X157896717Y-94142071D01*
X157878993Y-94126007D01*
X157862929Y-94108283D01*
X157848679Y-94089070D01*
X157836382Y-94068553D01*
X157826154Y-94046929D01*
X157818096Y-94024407D01*
X157812284Y-94001203D01*
X157808774Y-93977542D01*
X157807600Y-93953650D01*
X157807600Y-93041150D01*
X157808774Y-93017258D01*
X157812284Y-92993597D01*
X157818096Y-92970393D01*
X157826154Y-92947871D01*
X157836382Y-92926247D01*
X157848679Y-92905730D01*
X157862929Y-92886517D01*
X157878993Y-92868793D01*
X157896717Y-92852729D01*
X157915930Y-92838479D01*
X157936447Y-92826182D01*
X157958071Y-92815954D01*
X157980593Y-92807896D01*
X158003797Y-92802084D01*
X158027458Y-92798574D01*
X158051350Y-92797400D01*
X158538850Y-92797400D01*
X158562742Y-92798574D01*
X158562742Y-92798574D01*
G37*
D21*
X158295100Y-93497400D03*
D11*
G36*
X160437742Y-92798574D02*
X160461403Y-92802084D01*
X160484607Y-92807896D01*
X160507129Y-92815954D01*
X160528753Y-92826182D01*
X160549270Y-92838479D01*
X160568483Y-92852729D01*
X160586207Y-92868793D01*
X160602271Y-92886517D01*
X160616521Y-92905730D01*
X160628818Y-92926247D01*
X160639046Y-92947871D01*
X160647104Y-92970393D01*
X160652916Y-92993597D01*
X160656426Y-93017258D01*
X160657600Y-93041150D01*
X160657600Y-93953650D01*
X160656426Y-93977542D01*
X160652916Y-94001203D01*
X160647104Y-94024407D01*
X160639046Y-94046929D01*
X160628818Y-94068553D01*
X160616521Y-94089070D01*
X160602271Y-94108283D01*
X160586207Y-94126007D01*
X160568483Y-94142071D01*
X160549270Y-94156321D01*
X160528753Y-94168618D01*
X160507129Y-94178846D01*
X160484607Y-94186904D01*
X160461403Y-94192716D01*
X160437742Y-94196226D01*
X160413850Y-94197400D01*
X159926350Y-94197400D01*
X159902458Y-94196226D01*
X159878797Y-94192716D01*
X159855593Y-94186904D01*
X159833071Y-94178846D01*
X159811447Y-94168618D01*
X159790930Y-94156321D01*
X159771717Y-94142071D01*
X159753993Y-94126007D01*
X159737929Y-94108283D01*
X159723679Y-94089070D01*
X159711382Y-94068553D01*
X159701154Y-94046929D01*
X159693096Y-94024407D01*
X159687284Y-94001203D01*
X159683774Y-93977542D01*
X159682600Y-93953650D01*
X159682600Y-93041150D01*
X159683774Y-93017258D01*
X159687284Y-92993597D01*
X159693096Y-92970393D01*
X159701154Y-92947871D01*
X159711382Y-92926247D01*
X159723679Y-92905730D01*
X159737929Y-92886517D01*
X159753993Y-92868793D01*
X159771717Y-92852729D01*
X159790930Y-92838479D01*
X159811447Y-92826182D01*
X159833071Y-92815954D01*
X159855593Y-92807896D01*
X159878797Y-92802084D01*
X159902458Y-92798574D01*
X159926350Y-92797400D01*
X160413850Y-92797400D01*
X160437742Y-92798574D01*
X160437742Y-92798574D01*
G37*
D21*
X160170100Y-93497400D03*
G04 #@! TD*
D11*
G04 #@! TO.C,C16*
G36*
X164194642Y-104736574D02*
X164218303Y-104740084D01*
X164241507Y-104745896D01*
X164264029Y-104753954D01*
X164285653Y-104764182D01*
X164306170Y-104776479D01*
X164325383Y-104790729D01*
X164343107Y-104806793D01*
X164359171Y-104824517D01*
X164373421Y-104843730D01*
X164385718Y-104864247D01*
X164395946Y-104885871D01*
X164404004Y-104908393D01*
X164409816Y-104931597D01*
X164413326Y-104955258D01*
X164414500Y-104979150D01*
X164414500Y-105891650D01*
X164413326Y-105915542D01*
X164409816Y-105939203D01*
X164404004Y-105962407D01*
X164395946Y-105984929D01*
X164385718Y-106006553D01*
X164373421Y-106027070D01*
X164359171Y-106046283D01*
X164343107Y-106064007D01*
X164325383Y-106080071D01*
X164306170Y-106094321D01*
X164285653Y-106106618D01*
X164264029Y-106116846D01*
X164241507Y-106124904D01*
X164218303Y-106130716D01*
X164194642Y-106134226D01*
X164170750Y-106135400D01*
X163683250Y-106135400D01*
X163659358Y-106134226D01*
X163635697Y-106130716D01*
X163612493Y-106124904D01*
X163589971Y-106116846D01*
X163568347Y-106106618D01*
X163547830Y-106094321D01*
X163528617Y-106080071D01*
X163510893Y-106064007D01*
X163494829Y-106046283D01*
X163480579Y-106027070D01*
X163468282Y-106006553D01*
X163458054Y-105984929D01*
X163449996Y-105962407D01*
X163444184Y-105939203D01*
X163440674Y-105915542D01*
X163439500Y-105891650D01*
X163439500Y-104979150D01*
X163440674Y-104955258D01*
X163444184Y-104931597D01*
X163449996Y-104908393D01*
X163458054Y-104885871D01*
X163468282Y-104864247D01*
X163480579Y-104843730D01*
X163494829Y-104824517D01*
X163510893Y-104806793D01*
X163528617Y-104790729D01*
X163547830Y-104776479D01*
X163568347Y-104764182D01*
X163589971Y-104753954D01*
X163612493Y-104745896D01*
X163635697Y-104740084D01*
X163659358Y-104736574D01*
X163683250Y-104735400D01*
X164170750Y-104735400D01*
X164194642Y-104736574D01*
X164194642Y-104736574D01*
G37*
D21*
X163927000Y-105435400D03*
D11*
G36*
X162319642Y-104736574D02*
X162343303Y-104740084D01*
X162366507Y-104745896D01*
X162389029Y-104753954D01*
X162410653Y-104764182D01*
X162431170Y-104776479D01*
X162450383Y-104790729D01*
X162468107Y-104806793D01*
X162484171Y-104824517D01*
X162498421Y-104843730D01*
X162510718Y-104864247D01*
X162520946Y-104885871D01*
X162529004Y-104908393D01*
X162534816Y-104931597D01*
X162538326Y-104955258D01*
X162539500Y-104979150D01*
X162539500Y-105891650D01*
X162538326Y-105915542D01*
X162534816Y-105939203D01*
X162529004Y-105962407D01*
X162520946Y-105984929D01*
X162510718Y-106006553D01*
X162498421Y-106027070D01*
X162484171Y-106046283D01*
X162468107Y-106064007D01*
X162450383Y-106080071D01*
X162431170Y-106094321D01*
X162410653Y-106106618D01*
X162389029Y-106116846D01*
X162366507Y-106124904D01*
X162343303Y-106130716D01*
X162319642Y-106134226D01*
X162295750Y-106135400D01*
X161808250Y-106135400D01*
X161784358Y-106134226D01*
X161760697Y-106130716D01*
X161737493Y-106124904D01*
X161714971Y-106116846D01*
X161693347Y-106106618D01*
X161672830Y-106094321D01*
X161653617Y-106080071D01*
X161635893Y-106064007D01*
X161619829Y-106046283D01*
X161605579Y-106027070D01*
X161593282Y-106006553D01*
X161583054Y-105984929D01*
X161574996Y-105962407D01*
X161569184Y-105939203D01*
X161565674Y-105915542D01*
X161564500Y-105891650D01*
X161564500Y-104979150D01*
X161565674Y-104955258D01*
X161569184Y-104931597D01*
X161574996Y-104908393D01*
X161583054Y-104885871D01*
X161593282Y-104864247D01*
X161605579Y-104843730D01*
X161619829Y-104824517D01*
X161635893Y-104806793D01*
X161653617Y-104790729D01*
X161672830Y-104776479D01*
X161693347Y-104764182D01*
X161714971Y-104753954D01*
X161737493Y-104745896D01*
X161760697Y-104740084D01*
X161784358Y-104736574D01*
X161808250Y-104735400D01*
X162295750Y-104735400D01*
X162319642Y-104736574D01*
X162319642Y-104736574D01*
G37*
D21*
X162052000Y-105435400D03*
G04 #@! TD*
D11*
G04 #@! TO.C,C15*
G36*
X163966158Y-99276110D02*
X163980476Y-99278234D01*
X163994517Y-99281751D01*
X164008146Y-99286628D01*
X164021231Y-99292817D01*
X164033647Y-99300258D01*
X164045273Y-99308881D01*
X164055998Y-99318602D01*
X164065719Y-99329327D01*
X164074342Y-99340953D01*
X164081783Y-99353369D01*
X164087972Y-99366454D01*
X164092849Y-99380083D01*
X164096366Y-99394124D01*
X164098490Y-99408442D01*
X164099200Y-99422900D01*
X164099200Y-99717900D01*
X164098490Y-99732358D01*
X164096366Y-99746676D01*
X164092849Y-99760717D01*
X164087972Y-99774346D01*
X164081783Y-99787431D01*
X164074342Y-99799847D01*
X164065719Y-99811473D01*
X164055998Y-99822198D01*
X164045273Y-99831919D01*
X164033647Y-99840542D01*
X164021231Y-99847983D01*
X164008146Y-99854172D01*
X163994517Y-99859049D01*
X163980476Y-99862566D01*
X163966158Y-99864690D01*
X163951700Y-99865400D01*
X163606700Y-99865400D01*
X163592242Y-99864690D01*
X163577924Y-99862566D01*
X163563883Y-99859049D01*
X163550254Y-99854172D01*
X163537169Y-99847983D01*
X163524753Y-99840542D01*
X163513127Y-99831919D01*
X163502402Y-99822198D01*
X163492681Y-99811473D01*
X163484058Y-99799847D01*
X163476617Y-99787431D01*
X163470428Y-99774346D01*
X163465551Y-99760717D01*
X163462034Y-99746676D01*
X163459910Y-99732358D01*
X163459200Y-99717900D01*
X163459200Y-99422900D01*
X163459910Y-99408442D01*
X163462034Y-99394124D01*
X163465551Y-99380083D01*
X163470428Y-99366454D01*
X163476617Y-99353369D01*
X163484058Y-99340953D01*
X163492681Y-99329327D01*
X163502402Y-99318602D01*
X163513127Y-99308881D01*
X163524753Y-99300258D01*
X163537169Y-99292817D01*
X163550254Y-99286628D01*
X163563883Y-99281751D01*
X163577924Y-99278234D01*
X163592242Y-99276110D01*
X163606700Y-99275400D01*
X163951700Y-99275400D01*
X163966158Y-99276110D01*
X163966158Y-99276110D01*
G37*
D12*
X163779200Y-99570400D03*
D11*
G36*
X163966158Y-98306110D02*
X163980476Y-98308234D01*
X163994517Y-98311751D01*
X164008146Y-98316628D01*
X164021231Y-98322817D01*
X164033647Y-98330258D01*
X164045273Y-98338881D01*
X164055998Y-98348602D01*
X164065719Y-98359327D01*
X164074342Y-98370953D01*
X164081783Y-98383369D01*
X164087972Y-98396454D01*
X164092849Y-98410083D01*
X164096366Y-98424124D01*
X164098490Y-98438442D01*
X164099200Y-98452900D01*
X164099200Y-98747900D01*
X164098490Y-98762358D01*
X164096366Y-98776676D01*
X164092849Y-98790717D01*
X164087972Y-98804346D01*
X164081783Y-98817431D01*
X164074342Y-98829847D01*
X164065719Y-98841473D01*
X164055998Y-98852198D01*
X164045273Y-98861919D01*
X164033647Y-98870542D01*
X164021231Y-98877983D01*
X164008146Y-98884172D01*
X163994517Y-98889049D01*
X163980476Y-98892566D01*
X163966158Y-98894690D01*
X163951700Y-98895400D01*
X163606700Y-98895400D01*
X163592242Y-98894690D01*
X163577924Y-98892566D01*
X163563883Y-98889049D01*
X163550254Y-98884172D01*
X163537169Y-98877983D01*
X163524753Y-98870542D01*
X163513127Y-98861919D01*
X163502402Y-98852198D01*
X163492681Y-98841473D01*
X163484058Y-98829847D01*
X163476617Y-98817431D01*
X163470428Y-98804346D01*
X163465551Y-98790717D01*
X163462034Y-98776676D01*
X163459910Y-98762358D01*
X163459200Y-98747900D01*
X163459200Y-98452900D01*
X163459910Y-98438442D01*
X163462034Y-98424124D01*
X163465551Y-98410083D01*
X163470428Y-98396454D01*
X163476617Y-98383369D01*
X163484058Y-98370953D01*
X163492681Y-98359327D01*
X163502402Y-98348602D01*
X163513127Y-98338881D01*
X163524753Y-98330258D01*
X163537169Y-98322817D01*
X163550254Y-98316628D01*
X163563883Y-98311751D01*
X163577924Y-98308234D01*
X163592242Y-98306110D01*
X163606700Y-98305400D01*
X163951700Y-98305400D01*
X163966158Y-98306110D01*
X163966158Y-98306110D01*
G37*
D12*
X163779200Y-98600400D03*
G04 #@! TD*
D11*
G04 #@! TO.C,C14*
G36*
X167674558Y-111239510D02*
X167688876Y-111241634D01*
X167702917Y-111245151D01*
X167716546Y-111250028D01*
X167729631Y-111256217D01*
X167742047Y-111263658D01*
X167753673Y-111272281D01*
X167764398Y-111282002D01*
X167774119Y-111292727D01*
X167782742Y-111304353D01*
X167790183Y-111316769D01*
X167796372Y-111329854D01*
X167801249Y-111343483D01*
X167804766Y-111357524D01*
X167806890Y-111371842D01*
X167807600Y-111386300D01*
X167807600Y-111681300D01*
X167806890Y-111695758D01*
X167804766Y-111710076D01*
X167801249Y-111724117D01*
X167796372Y-111737746D01*
X167790183Y-111750831D01*
X167782742Y-111763247D01*
X167774119Y-111774873D01*
X167764398Y-111785598D01*
X167753673Y-111795319D01*
X167742047Y-111803942D01*
X167729631Y-111811383D01*
X167716546Y-111817572D01*
X167702917Y-111822449D01*
X167688876Y-111825966D01*
X167674558Y-111828090D01*
X167660100Y-111828800D01*
X167315100Y-111828800D01*
X167300642Y-111828090D01*
X167286324Y-111825966D01*
X167272283Y-111822449D01*
X167258654Y-111817572D01*
X167245569Y-111811383D01*
X167233153Y-111803942D01*
X167221527Y-111795319D01*
X167210802Y-111785598D01*
X167201081Y-111774873D01*
X167192458Y-111763247D01*
X167185017Y-111750831D01*
X167178828Y-111737746D01*
X167173951Y-111724117D01*
X167170434Y-111710076D01*
X167168310Y-111695758D01*
X167167600Y-111681300D01*
X167167600Y-111386300D01*
X167168310Y-111371842D01*
X167170434Y-111357524D01*
X167173951Y-111343483D01*
X167178828Y-111329854D01*
X167185017Y-111316769D01*
X167192458Y-111304353D01*
X167201081Y-111292727D01*
X167210802Y-111282002D01*
X167221527Y-111272281D01*
X167233153Y-111263658D01*
X167245569Y-111256217D01*
X167258654Y-111250028D01*
X167272283Y-111245151D01*
X167286324Y-111241634D01*
X167300642Y-111239510D01*
X167315100Y-111238800D01*
X167660100Y-111238800D01*
X167674558Y-111239510D01*
X167674558Y-111239510D01*
G37*
D12*
X167487600Y-111533800D03*
D11*
G36*
X167674558Y-110269510D02*
X167688876Y-110271634D01*
X167702917Y-110275151D01*
X167716546Y-110280028D01*
X167729631Y-110286217D01*
X167742047Y-110293658D01*
X167753673Y-110302281D01*
X167764398Y-110312002D01*
X167774119Y-110322727D01*
X167782742Y-110334353D01*
X167790183Y-110346769D01*
X167796372Y-110359854D01*
X167801249Y-110373483D01*
X167804766Y-110387524D01*
X167806890Y-110401842D01*
X167807600Y-110416300D01*
X167807600Y-110711300D01*
X167806890Y-110725758D01*
X167804766Y-110740076D01*
X167801249Y-110754117D01*
X167796372Y-110767746D01*
X167790183Y-110780831D01*
X167782742Y-110793247D01*
X167774119Y-110804873D01*
X167764398Y-110815598D01*
X167753673Y-110825319D01*
X167742047Y-110833942D01*
X167729631Y-110841383D01*
X167716546Y-110847572D01*
X167702917Y-110852449D01*
X167688876Y-110855966D01*
X167674558Y-110858090D01*
X167660100Y-110858800D01*
X167315100Y-110858800D01*
X167300642Y-110858090D01*
X167286324Y-110855966D01*
X167272283Y-110852449D01*
X167258654Y-110847572D01*
X167245569Y-110841383D01*
X167233153Y-110833942D01*
X167221527Y-110825319D01*
X167210802Y-110815598D01*
X167201081Y-110804873D01*
X167192458Y-110793247D01*
X167185017Y-110780831D01*
X167178828Y-110767746D01*
X167173951Y-110754117D01*
X167170434Y-110740076D01*
X167168310Y-110725758D01*
X167167600Y-110711300D01*
X167167600Y-110416300D01*
X167168310Y-110401842D01*
X167170434Y-110387524D01*
X167173951Y-110373483D01*
X167178828Y-110359854D01*
X167185017Y-110346769D01*
X167192458Y-110334353D01*
X167201081Y-110322727D01*
X167210802Y-110312002D01*
X167221527Y-110302281D01*
X167233153Y-110293658D01*
X167245569Y-110286217D01*
X167258654Y-110280028D01*
X167272283Y-110275151D01*
X167286324Y-110271634D01*
X167300642Y-110269510D01*
X167315100Y-110268800D01*
X167660100Y-110268800D01*
X167674558Y-110269510D01*
X167674558Y-110269510D01*
G37*
D12*
X167487600Y-110563800D03*
G04 #@! TD*
D11*
G04 #@! TO.C,C13*
G36*
X165310358Y-112228110D02*
X165324676Y-112230234D01*
X165338717Y-112233751D01*
X165352346Y-112238628D01*
X165365431Y-112244817D01*
X165377847Y-112252258D01*
X165389473Y-112260881D01*
X165400198Y-112270602D01*
X165409919Y-112281327D01*
X165418542Y-112292953D01*
X165425983Y-112305369D01*
X165432172Y-112318454D01*
X165437049Y-112332083D01*
X165440566Y-112346124D01*
X165442690Y-112360442D01*
X165443400Y-112374900D01*
X165443400Y-112719900D01*
X165442690Y-112734358D01*
X165440566Y-112748676D01*
X165437049Y-112762717D01*
X165432172Y-112776346D01*
X165425983Y-112789431D01*
X165418542Y-112801847D01*
X165409919Y-112813473D01*
X165400198Y-112824198D01*
X165389473Y-112833919D01*
X165377847Y-112842542D01*
X165365431Y-112849983D01*
X165352346Y-112856172D01*
X165338717Y-112861049D01*
X165324676Y-112864566D01*
X165310358Y-112866690D01*
X165295900Y-112867400D01*
X165000900Y-112867400D01*
X164986442Y-112866690D01*
X164972124Y-112864566D01*
X164958083Y-112861049D01*
X164944454Y-112856172D01*
X164931369Y-112849983D01*
X164918953Y-112842542D01*
X164907327Y-112833919D01*
X164896602Y-112824198D01*
X164886881Y-112813473D01*
X164878258Y-112801847D01*
X164870817Y-112789431D01*
X164864628Y-112776346D01*
X164859751Y-112762717D01*
X164856234Y-112748676D01*
X164854110Y-112734358D01*
X164853400Y-112719900D01*
X164853400Y-112374900D01*
X164854110Y-112360442D01*
X164856234Y-112346124D01*
X164859751Y-112332083D01*
X164864628Y-112318454D01*
X164870817Y-112305369D01*
X164878258Y-112292953D01*
X164886881Y-112281327D01*
X164896602Y-112270602D01*
X164907327Y-112260881D01*
X164918953Y-112252258D01*
X164931369Y-112244817D01*
X164944454Y-112238628D01*
X164958083Y-112233751D01*
X164972124Y-112230234D01*
X164986442Y-112228110D01*
X165000900Y-112227400D01*
X165295900Y-112227400D01*
X165310358Y-112228110D01*
X165310358Y-112228110D01*
G37*
D12*
X165148400Y-112547400D03*
D11*
G36*
X166280358Y-112228110D02*
X166294676Y-112230234D01*
X166308717Y-112233751D01*
X166322346Y-112238628D01*
X166335431Y-112244817D01*
X166347847Y-112252258D01*
X166359473Y-112260881D01*
X166370198Y-112270602D01*
X166379919Y-112281327D01*
X166388542Y-112292953D01*
X166395983Y-112305369D01*
X166402172Y-112318454D01*
X166407049Y-112332083D01*
X166410566Y-112346124D01*
X166412690Y-112360442D01*
X166413400Y-112374900D01*
X166413400Y-112719900D01*
X166412690Y-112734358D01*
X166410566Y-112748676D01*
X166407049Y-112762717D01*
X166402172Y-112776346D01*
X166395983Y-112789431D01*
X166388542Y-112801847D01*
X166379919Y-112813473D01*
X166370198Y-112824198D01*
X166359473Y-112833919D01*
X166347847Y-112842542D01*
X166335431Y-112849983D01*
X166322346Y-112856172D01*
X166308717Y-112861049D01*
X166294676Y-112864566D01*
X166280358Y-112866690D01*
X166265900Y-112867400D01*
X165970900Y-112867400D01*
X165956442Y-112866690D01*
X165942124Y-112864566D01*
X165928083Y-112861049D01*
X165914454Y-112856172D01*
X165901369Y-112849983D01*
X165888953Y-112842542D01*
X165877327Y-112833919D01*
X165866602Y-112824198D01*
X165856881Y-112813473D01*
X165848258Y-112801847D01*
X165840817Y-112789431D01*
X165834628Y-112776346D01*
X165829751Y-112762717D01*
X165826234Y-112748676D01*
X165824110Y-112734358D01*
X165823400Y-112719900D01*
X165823400Y-112374900D01*
X165824110Y-112360442D01*
X165826234Y-112346124D01*
X165829751Y-112332083D01*
X165834628Y-112318454D01*
X165840817Y-112305369D01*
X165848258Y-112292953D01*
X165856881Y-112281327D01*
X165866602Y-112270602D01*
X165877327Y-112260881D01*
X165888953Y-112252258D01*
X165901369Y-112244817D01*
X165914454Y-112238628D01*
X165928083Y-112233751D01*
X165942124Y-112230234D01*
X165956442Y-112228110D01*
X165970900Y-112227400D01*
X166265900Y-112227400D01*
X166280358Y-112228110D01*
X166280358Y-112228110D01*
G37*
D12*
X166118400Y-112547400D03*
G04 #@! TD*
D11*
G04 #@! TO.C,C12*
G36*
X161424158Y-100264710D02*
X161438476Y-100266834D01*
X161452517Y-100270351D01*
X161466146Y-100275228D01*
X161479231Y-100281417D01*
X161491647Y-100288858D01*
X161503273Y-100297481D01*
X161513998Y-100307202D01*
X161523719Y-100317927D01*
X161532342Y-100329553D01*
X161539783Y-100341969D01*
X161545972Y-100355054D01*
X161550849Y-100368683D01*
X161554366Y-100382724D01*
X161556490Y-100397042D01*
X161557200Y-100411500D01*
X161557200Y-100756500D01*
X161556490Y-100770958D01*
X161554366Y-100785276D01*
X161550849Y-100799317D01*
X161545972Y-100812946D01*
X161539783Y-100826031D01*
X161532342Y-100838447D01*
X161523719Y-100850073D01*
X161513998Y-100860798D01*
X161503273Y-100870519D01*
X161491647Y-100879142D01*
X161479231Y-100886583D01*
X161466146Y-100892772D01*
X161452517Y-100897649D01*
X161438476Y-100901166D01*
X161424158Y-100903290D01*
X161409700Y-100904000D01*
X161114700Y-100904000D01*
X161100242Y-100903290D01*
X161085924Y-100901166D01*
X161071883Y-100897649D01*
X161058254Y-100892772D01*
X161045169Y-100886583D01*
X161032753Y-100879142D01*
X161021127Y-100870519D01*
X161010402Y-100860798D01*
X161000681Y-100850073D01*
X160992058Y-100838447D01*
X160984617Y-100826031D01*
X160978428Y-100812946D01*
X160973551Y-100799317D01*
X160970034Y-100785276D01*
X160967910Y-100770958D01*
X160967200Y-100756500D01*
X160967200Y-100411500D01*
X160967910Y-100397042D01*
X160970034Y-100382724D01*
X160973551Y-100368683D01*
X160978428Y-100355054D01*
X160984617Y-100341969D01*
X160992058Y-100329553D01*
X161000681Y-100317927D01*
X161010402Y-100307202D01*
X161021127Y-100297481D01*
X161032753Y-100288858D01*
X161045169Y-100281417D01*
X161058254Y-100275228D01*
X161071883Y-100270351D01*
X161085924Y-100266834D01*
X161100242Y-100264710D01*
X161114700Y-100264000D01*
X161409700Y-100264000D01*
X161424158Y-100264710D01*
X161424158Y-100264710D01*
G37*
D12*
X161262200Y-100584000D03*
D11*
G36*
X162394158Y-100264710D02*
X162408476Y-100266834D01*
X162422517Y-100270351D01*
X162436146Y-100275228D01*
X162449231Y-100281417D01*
X162461647Y-100288858D01*
X162473273Y-100297481D01*
X162483998Y-100307202D01*
X162493719Y-100317927D01*
X162502342Y-100329553D01*
X162509783Y-100341969D01*
X162515972Y-100355054D01*
X162520849Y-100368683D01*
X162524366Y-100382724D01*
X162526490Y-100397042D01*
X162527200Y-100411500D01*
X162527200Y-100756500D01*
X162526490Y-100770958D01*
X162524366Y-100785276D01*
X162520849Y-100799317D01*
X162515972Y-100812946D01*
X162509783Y-100826031D01*
X162502342Y-100838447D01*
X162493719Y-100850073D01*
X162483998Y-100860798D01*
X162473273Y-100870519D01*
X162461647Y-100879142D01*
X162449231Y-100886583D01*
X162436146Y-100892772D01*
X162422517Y-100897649D01*
X162408476Y-100901166D01*
X162394158Y-100903290D01*
X162379700Y-100904000D01*
X162084700Y-100904000D01*
X162070242Y-100903290D01*
X162055924Y-100901166D01*
X162041883Y-100897649D01*
X162028254Y-100892772D01*
X162015169Y-100886583D01*
X162002753Y-100879142D01*
X161991127Y-100870519D01*
X161980402Y-100860798D01*
X161970681Y-100850073D01*
X161962058Y-100838447D01*
X161954617Y-100826031D01*
X161948428Y-100812946D01*
X161943551Y-100799317D01*
X161940034Y-100785276D01*
X161937910Y-100770958D01*
X161937200Y-100756500D01*
X161937200Y-100411500D01*
X161937910Y-100397042D01*
X161940034Y-100382724D01*
X161943551Y-100368683D01*
X161948428Y-100355054D01*
X161954617Y-100341969D01*
X161962058Y-100329553D01*
X161970681Y-100317927D01*
X161980402Y-100307202D01*
X161991127Y-100297481D01*
X162002753Y-100288858D01*
X162015169Y-100281417D01*
X162028254Y-100275228D01*
X162041883Y-100270351D01*
X162055924Y-100266834D01*
X162070242Y-100264710D01*
X162084700Y-100264000D01*
X162379700Y-100264000D01*
X162394158Y-100264710D01*
X162394158Y-100264710D01*
G37*
D12*
X162232200Y-100584000D03*
G04 #@! TD*
D11*
G04 #@! TO.C,C11*
G36*
X164665742Y-94257974D02*
X164689403Y-94261484D01*
X164712607Y-94267296D01*
X164735129Y-94275354D01*
X164756753Y-94285582D01*
X164777270Y-94297879D01*
X164796483Y-94312129D01*
X164814207Y-94328193D01*
X164830271Y-94345917D01*
X164844521Y-94365130D01*
X164856818Y-94385647D01*
X164867046Y-94407271D01*
X164875104Y-94429793D01*
X164880916Y-94452997D01*
X164884426Y-94476658D01*
X164885600Y-94500550D01*
X164885600Y-94988050D01*
X164884426Y-95011942D01*
X164880916Y-95035603D01*
X164875104Y-95058807D01*
X164867046Y-95081329D01*
X164856818Y-95102953D01*
X164844521Y-95123470D01*
X164830271Y-95142683D01*
X164814207Y-95160407D01*
X164796483Y-95176471D01*
X164777270Y-95190721D01*
X164756753Y-95203018D01*
X164735129Y-95213246D01*
X164712607Y-95221304D01*
X164689403Y-95227116D01*
X164665742Y-95230626D01*
X164641850Y-95231800D01*
X163729350Y-95231800D01*
X163705458Y-95230626D01*
X163681797Y-95227116D01*
X163658593Y-95221304D01*
X163636071Y-95213246D01*
X163614447Y-95203018D01*
X163593930Y-95190721D01*
X163574717Y-95176471D01*
X163556993Y-95160407D01*
X163540929Y-95142683D01*
X163526679Y-95123470D01*
X163514382Y-95102953D01*
X163504154Y-95081329D01*
X163496096Y-95058807D01*
X163490284Y-95035603D01*
X163486774Y-95011942D01*
X163485600Y-94988050D01*
X163485600Y-94500550D01*
X163486774Y-94476658D01*
X163490284Y-94452997D01*
X163496096Y-94429793D01*
X163504154Y-94407271D01*
X163514382Y-94385647D01*
X163526679Y-94365130D01*
X163540929Y-94345917D01*
X163556993Y-94328193D01*
X163574717Y-94312129D01*
X163593930Y-94297879D01*
X163614447Y-94285582D01*
X163636071Y-94275354D01*
X163658593Y-94267296D01*
X163681797Y-94261484D01*
X163705458Y-94257974D01*
X163729350Y-94256800D01*
X164641850Y-94256800D01*
X164665742Y-94257974D01*
X164665742Y-94257974D01*
G37*
D21*
X164185600Y-94744300D03*
D11*
G36*
X164665742Y-96132974D02*
X164689403Y-96136484D01*
X164712607Y-96142296D01*
X164735129Y-96150354D01*
X164756753Y-96160582D01*
X164777270Y-96172879D01*
X164796483Y-96187129D01*
X164814207Y-96203193D01*
X164830271Y-96220917D01*
X164844521Y-96240130D01*
X164856818Y-96260647D01*
X164867046Y-96282271D01*
X164875104Y-96304793D01*
X164880916Y-96327997D01*
X164884426Y-96351658D01*
X164885600Y-96375550D01*
X164885600Y-96863050D01*
X164884426Y-96886942D01*
X164880916Y-96910603D01*
X164875104Y-96933807D01*
X164867046Y-96956329D01*
X164856818Y-96977953D01*
X164844521Y-96998470D01*
X164830271Y-97017683D01*
X164814207Y-97035407D01*
X164796483Y-97051471D01*
X164777270Y-97065721D01*
X164756753Y-97078018D01*
X164735129Y-97088246D01*
X164712607Y-97096304D01*
X164689403Y-97102116D01*
X164665742Y-97105626D01*
X164641850Y-97106800D01*
X163729350Y-97106800D01*
X163705458Y-97105626D01*
X163681797Y-97102116D01*
X163658593Y-97096304D01*
X163636071Y-97088246D01*
X163614447Y-97078018D01*
X163593930Y-97065721D01*
X163574717Y-97051471D01*
X163556993Y-97035407D01*
X163540929Y-97017683D01*
X163526679Y-96998470D01*
X163514382Y-96977953D01*
X163504154Y-96956329D01*
X163496096Y-96933807D01*
X163490284Y-96910603D01*
X163486774Y-96886942D01*
X163485600Y-96863050D01*
X163485600Y-96375550D01*
X163486774Y-96351658D01*
X163490284Y-96327997D01*
X163496096Y-96304793D01*
X163504154Y-96282271D01*
X163514382Y-96260647D01*
X163526679Y-96240130D01*
X163540929Y-96220917D01*
X163556993Y-96203193D01*
X163574717Y-96187129D01*
X163593930Y-96172879D01*
X163614447Y-96160582D01*
X163636071Y-96150354D01*
X163658593Y-96142296D01*
X163681797Y-96136484D01*
X163705458Y-96132974D01*
X163729350Y-96131800D01*
X164641850Y-96131800D01*
X164665742Y-96132974D01*
X164665742Y-96132974D01*
G37*
D21*
X164185600Y-96619300D03*
G04 #@! TD*
D11*
G04 #@! TO.C,C10*
G36*
X168932942Y-106246774D02*
X168956603Y-106250284D01*
X168979807Y-106256096D01*
X169002329Y-106264154D01*
X169023953Y-106274382D01*
X169044470Y-106286679D01*
X169063683Y-106300929D01*
X169081407Y-106316993D01*
X169097471Y-106334717D01*
X169111721Y-106353930D01*
X169124018Y-106374447D01*
X169134246Y-106396071D01*
X169142304Y-106418593D01*
X169148116Y-106441797D01*
X169151626Y-106465458D01*
X169152800Y-106489350D01*
X169152800Y-106976850D01*
X169151626Y-107000742D01*
X169148116Y-107024403D01*
X169142304Y-107047607D01*
X169134246Y-107070129D01*
X169124018Y-107091753D01*
X169111721Y-107112270D01*
X169097471Y-107131483D01*
X169081407Y-107149207D01*
X169063683Y-107165271D01*
X169044470Y-107179521D01*
X169023953Y-107191818D01*
X169002329Y-107202046D01*
X168979807Y-107210104D01*
X168956603Y-107215916D01*
X168932942Y-107219426D01*
X168909050Y-107220600D01*
X167996550Y-107220600D01*
X167972658Y-107219426D01*
X167948997Y-107215916D01*
X167925793Y-107210104D01*
X167903271Y-107202046D01*
X167881647Y-107191818D01*
X167861130Y-107179521D01*
X167841917Y-107165271D01*
X167824193Y-107149207D01*
X167808129Y-107131483D01*
X167793879Y-107112270D01*
X167781582Y-107091753D01*
X167771354Y-107070129D01*
X167763296Y-107047607D01*
X167757484Y-107024403D01*
X167753974Y-107000742D01*
X167752800Y-106976850D01*
X167752800Y-106489350D01*
X167753974Y-106465458D01*
X167757484Y-106441797D01*
X167763296Y-106418593D01*
X167771354Y-106396071D01*
X167781582Y-106374447D01*
X167793879Y-106353930D01*
X167808129Y-106334717D01*
X167824193Y-106316993D01*
X167841917Y-106300929D01*
X167861130Y-106286679D01*
X167881647Y-106274382D01*
X167903271Y-106264154D01*
X167925793Y-106256096D01*
X167948997Y-106250284D01*
X167972658Y-106246774D01*
X167996550Y-106245600D01*
X168909050Y-106245600D01*
X168932942Y-106246774D01*
X168932942Y-106246774D01*
G37*
D21*
X168452800Y-106733100D03*
D11*
G36*
X168932942Y-108121774D02*
X168956603Y-108125284D01*
X168979807Y-108131096D01*
X169002329Y-108139154D01*
X169023953Y-108149382D01*
X169044470Y-108161679D01*
X169063683Y-108175929D01*
X169081407Y-108191993D01*
X169097471Y-108209717D01*
X169111721Y-108228930D01*
X169124018Y-108249447D01*
X169134246Y-108271071D01*
X169142304Y-108293593D01*
X169148116Y-108316797D01*
X169151626Y-108340458D01*
X169152800Y-108364350D01*
X169152800Y-108851850D01*
X169151626Y-108875742D01*
X169148116Y-108899403D01*
X169142304Y-108922607D01*
X169134246Y-108945129D01*
X169124018Y-108966753D01*
X169111721Y-108987270D01*
X169097471Y-109006483D01*
X169081407Y-109024207D01*
X169063683Y-109040271D01*
X169044470Y-109054521D01*
X169023953Y-109066818D01*
X169002329Y-109077046D01*
X168979807Y-109085104D01*
X168956603Y-109090916D01*
X168932942Y-109094426D01*
X168909050Y-109095600D01*
X167996550Y-109095600D01*
X167972658Y-109094426D01*
X167948997Y-109090916D01*
X167925793Y-109085104D01*
X167903271Y-109077046D01*
X167881647Y-109066818D01*
X167861130Y-109054521D01*
X167841917Y-109040271D01*
X167824193Y-109024207D01*
X167808129Y-109006483D01*
X167793879Y-108987270D01*
X167781582Y-108966753D01*
X167771354Y-108945129D01*
X167763296Y-108922607D01*
X167757484Y-108899403D01*
X167753974Y-108875742D01*
X167752800Y-108851850D01*
X167752800Y-108364350D01*
X167753974Y-108340458D01*
X167757484Y-108316797D01*
X167763296Y-108293593D01*
X167771354Y-108271071D01*
X167781582Y-108249447D01*
X167793879Y-108228930D01*
X167808129Y-108209717D01*
X167824193Y-108191993D01*
X167841917Y-108175929D01*
X167861130Y-108161679D01*
X167881647Y-108149382D01*
X167903271Y-108139154D01*
X167925793Y-108131096D01*
X167948997Y-108125284D01*
X167972658Y-108121774D01*
X167996550Y-108120600D01*
X168909050Y-108120600D01*
X168932942Y-108121774D01*
X168932942Y-108121774D01*
G37*
D21*
X168452800Y-108608100D03*
G04 #@! TD*
D22*
G04 #@! TO.C,Q3*
X151146000Y-120904000D03*
X153146000Y-119954000D03*
X153146000Y-121854000D03*
G04 #@! TD*
D11*
G04 #@! TO.C,R1*
G36*
X129472958Y-93581710D02*
X129487276Y-93583834D01*
X129501317Y-93587351D01*
X129514946Y-93592228D01*
X129528031Y-93598417D01*
X129540447Y-93605858D01*
X129552073Y-93614481D01*
X129562798Y-93624202D01*
X129572519Y-93634927D01*
X129581142Y-93646553D01*
X129588583Y-93658969D01*
X129594772Y-93672054D01*
X129599649Y-93685683D01*
X129603166Y-93699724D01*
X129605290Y-93714042D01*
X129606000Y-93728500D01*
X129606000Y-94023500D01*
X129605290Y-94037958D01*
X129603166Y-94052276D01*
X129599649Y-94066317D01*
X129594772Y-94079946D01*
X129588583Y-94093031D01*
X129581142Y-94105447D01*
X129572519Y-94117073D01*
X129562798Y-94127798D01*
X129552073Y-94137519D01*
X129540447Y-94146142D01*
X129528031Y-94153583D01*
X129514946Y-94159772D01*
X129501317Y-94164649D01*
X129487276Y-94168166D01*
X129472958Y-94170290D01*
X129458500Y-94171000D01*
X129113500Y-94171000D01*
X129099042Y-94170290D01*
X129084724Y-94168166D01*
X129070683Y-94164649D01*
X129057054Y-94159772D01*
X129043969Y-94153583D01*
X129031553Y-94146142D01*
X129019927Y-94137519D01*
X129009202Y-94127798D01*
X128999481Y-94117073D01*
X128990858Y-94105447D01*
X128983417Y-94093031D01*
X128977228Y-94079946D01*
X128972351Y-94066317D01*
X128968834Y-94052276D01*
X128966710Y-94037958D01*
X128966000Y-94023500D01*
X128966000Y-93728500D01*
X128966710Y-93714042D01*
X128968834Y-93699724D01*
X128972351Y-93685683D01*
X128977228Y-93672054D01*
X128983417Y-93658969D01*
X128990858Y-93646553D01*
X128999481Y-93634927D01*
X129009202Y-93624202D01*
X129019927Y-93614481D01*
X129031553Y-93605858D01*
X129043969Y-93598417D01*
X129057054Y-93592228D01*
X129070683Y-93587351D01*
X129084724Y-93583834D01*
X129099042Y-93581710D01*
X129113500Y-93581000D01*
X129458500Y-93581000D01*
X129472958Y-93581710D01*
X129472958Y-93581710D01*
G37*
D12*
X129286000Y-93876000D03*
D11*
G36*
X129472958Y-94551710D02*
X129487276Y-94553834D01*
X129501317Y-94557351D01*
X129514946Y-94562228D01*
X129528031Y-94568417D01*
X129540447Y-94575858D01*
X129552073Y-94584481D01*
X129562798Y-94594202D01*
X129572519Y-94604927D01*
X129581142Y-94616553D01*
X129588583Y-94628969D01*
X129594772Y-94642054D01*
X129599649Y-94655683D01*
X129603166Y-94669724D01*
X129605290Y-94684042D01*
X129606000Y-94698500D01*
X129606000Y-94993500D01*
X129605290Y-95007958D01*
X129603166Y-95022276D01*
X129599649Y-95036317D01*
X129594772Y-95049946D01*
X129588583Y-95063031D01*
X129581142Y-95075447D01*
X129572519Y-95087073D01*
X129562798Y-95097798D01*
X129552073Y-95107519D01*
X129540447Y-95116142D01*
X129528031Y-95123583D01*
X129514946Y-95129772D01*
X129501317Y-95134649D01*
X129487276Y-95138166D01*
X129472958Y-95140290D01*
X129458500Y-95141000D01*
X129113500Y-95141000D01*
X129099042Y-95140290D01*
X129084724Y-95138166D01*
X129070683Y-95134649D01*
X129057054Y-95129772D01*
X129043969Y-95123583D01*
X129031553Y-95116142D01*
X129019927Y-95107519D01*
X129009202Y-95097798D01*
X128999481Y-95087073D01*
X128990858Y-95075447D01*
X128983417Y-95063031D01*
X128977228Y-95049946D01*
X128972351Y-95036317D01*
X128968834Y-95022276D01*
X128966710Y-95007958D01*
X128966000Y-94993500D01*
X128966000Y-94698500D01*
X128966710Y-94684042D01*
X128968834Y-94669724D01*
X128972351Y-94655683D01*
X128977228Y-94642054D01*
X128983417Y-94628969D01*
X128990858Y-94616553D01*
X128999481Y-94604927D01*
X129009202Y-94594202D01*
X129019927Y-94584481D01*
X129031553Y-94575858D01*
X129043969Y-94568417D01*
X129057054Y-94562228D01*
X129070683Y-94557351D01*
X129084724Y-94553834D01*
X129099042Y-94551710D01*
X129113500Y-94551000D01*
X129458500Y-94551000D01*
X129472958Y-94551710D01*
X129472958Y-94551710D01*
G37*
D12*
X129286000Y-94846000D03*
G04 #@! TD*
D22*
G04 #@! TO.C,Q4*
X143542000Y-120904000D03*
X145542000Y-119954000D03*
X145542000Y-121854000D03*
G04 #@! TD*
G04 #@! TO.C,Q2*
X147336000Y-120904000D03*
X149336000Y-119954000D03*
X149336000Y-121854000D03*
G04 #@! TD*
G04 #@! TO.C,Q1*
X154956000Y-122428000D03*
X156956000Y-121478000D03*
X156956000Y-123378000D03*
G04 #@! TD*
D11*
G04 #@! TO.C,R12*
G36*
X143694958Y-117028710D02*
X143709276Y-117030834D01*
X143723317Y-117034351D01*
X143736946Y-117039228D01*
X143750031Y-117045417D01*
X143762447Y-117052858D01*
X143774073Y-117061481D01*
X143784798Y-117071202D01*
X143794519Y-117081927D01*
X143803142Y-117093553D01*
X143810583Y-117105969D01*
X143816772Y-117119054D01*
X143821649Y-117132683D01*
X143825166Y-117146724D01*
X143827290Y-117161042D01*
X143828000Y-117175500D01*
X143828000Y-117520500D01*
X143827290Y-117534958D01*
X143825166Y-117549276D01*
X143821649Y-117563317D01*
X143816772Y-117576946D01*
X143810583Y-117590031D01*
X143803142Y-117602447D01*
X143794519Y-117614073D01*
X143784798Y-117624798D01*
X143774073Y-117634519D01*
X143762447Y-117643142D01*
X143750031Y-117650583D01*
X143736946Y-117656772D01*
X143723317Y-117661649D01*
X143709276Y-117665166D01*
X143694958Y-117667290D01*
X143680500Y-117668000D01*
X143385500Y-117668000D01*
X143371042Y-117667290D01*
X143356724Y-117665166D01*
X143342683Y-117661649D01*
X143329054Y-117656772D01*
X143315969Y-117650583D01*
X143303553Y-117643142D01*
X143291927Y-117634519D01*
X143281202Y-117624798D01*
X143271481Y-117614073D01*
X143262858Y-117602447D01*
X143255417Y-117590031D01*
X143249228Y-117576946D01*
X143244351Y-117563317D01*
X143240834Y-117549276D01*
X143238710Y-117534958D01*
X143238000Y-117520500D01*
X143238000Y-117175500D01*
X143238710Y-117161042D01*
X143240834Y-117146724D01*
X143244351Y-117132683D01*
X143249228Y-117119054D01*
X143255417Y-117105969D01*
X143262858Y-117093553D01*
X143271481Y-117081927D01*
X143281202Y-117071202D01*
X143291927Y-117061481D01*
X143303553Y-117052858D01*
X143315969Y-117045417D01*
X143329054Y-117039228D01*
X143342683Y-117034351D01*
X143356724Y-117030834D01*
X143371042Y-117028710D01*
X143385500Y-117028000D01*
X143680500Y-117028000D01*
X143694958Y-117028710D01*
X143694958Y-117028710D01*
G37*
D12*
X143533000Y-117348000D03*
D11*
G36*
X144664958Y-117028710D02*
X144679276Y-117030834D01*
X144693317Y-117034351D01*
X144706946Y-117039228D01*
X144720031Y-117045417D01*
X144732447Y-117052858D01*
X144744073Y-117061481D01*
X144754798Y-117071202D01*
X144764519Y-117081927D01*
X144773142Y-117093553D01*
X144780583Y-117105969D01*
X144786772Y-117119054D01*
X144791649Y-117132683D01*
X144795166Y-117146724D01*
X144797290Y-117161042D01*
X144798000Y-117175500D01*
X144798000Y-117520500D01*
X144797290Y-117534958D01*
X144795166Y-117549276D01*
X144791649Y-117563317D01*
X144786772Y-117576946D01*
X144780583Y-117590031D01*
X144773142Y-117602447D01*
X144764519Y-117614073D01*
X144754798Y-117624798D01*
X144744073Y-117634519D01*
X144732447Y-117643142D01*
X144720031Y-117650583D01*
X144706946Y-117656772D01*
X144693317Y-117661649D01*
X144679276Y-117665166D01*
X144664958Y-117667290D01*
X144650500Y-117668000D01*
X144355500Y-117668000D01*
X144341042Y-117667290D01*
X144326724Y-117665166D01*
X144312683Y-117661649D01*
X144299054Y-117656772D01*
X144285969Y-117650583D01*
X144273553Y-117643142D01*
X144261927Y-117634519D01*
X144251202Y-117624798D01*
X144241481Y-117614073D01*
X144232858Y-117602447D01*
X144225417Y-117590031D01*
X144219228Y-117576946D01*
X144214351Y-117563317D01*
X144210834Y-117549276D01*
X144208710Y-117534958D01*
X144208000Y-117520500D01*
X144208000Y-117175500D01*
X144208710Y-117161042D01*
X144210834Y-117146724D01*
X144214351Y-117132683D01*
X144219228Y-117119054D01*
X144225417Y-117105969D01*
X144232858Y-117093553D01*
X144241481Y-117081927D01*
X144251202Y-117071202D01*
X144261927Y-117061481D01*
X144273553Y-117052858D01*
X144285969Y-117045417D01*
X144299054Y-117039228D01*
X144312683Y-117034351D01*
X144326724Y-117030834D01*
X144341042Y-117028710D01*
X144355500Y-117028000D01*
X144650500Y-117028000D01*
X144664958Y-117028710D01*
X144664958Y-117028710D01*
G37*
D12*
X144503000Y-117348000D03*
G04 #@! TD*
D11*
G04 #@! TO.C,R11*
G36*
X151314958Y-117028710D02*
X151329276Y-117030834D01*
X151343317Y-117034351D01*
X151356946Y-117039228D01*
X151370031Y-117045417D01*
X151382447Y-117052858D01*
X151394073Y-117061481D01*
X151404798Y-117071202D01*
X151414519Y-117081927D01*
X151423142Y-117093553D01*
X151430583Y-117105969D01*
X151436772Y-117119054D01*
X151441649Y-117132683D01*
X151445166Y-117146724D01*
X151447290Y-117161042D01*
X151448000Y-117175500D01*
X151448000Y-117520500D01*
X151447290Y-117534958D01*
X151445166Y-117549276D01*
X151441649Y-117563317D01*
X151436772Y-117576946D01*
X151430583Y-117590031D01*
X151423142Y-117602447D01*
X151414519Y-117614073D01*
X151404798Y-117624798D01*
X151394073Y-117634519D01*
X151382447Y-117643142D01*
X151370031Y-117650583D01*
X151356946Y-117656772D01*
X151343317Y-117661649D01*
X151329276Y-117665166D01*
X151314958Y-117667290D01*
X151300500Y-117668000D01*
X151005500Y-117668000D01*
X150991042Y-117667290D01*
X150976724Y-117665166D01*
X150962683Y-117661649D01*
X150949054Y-117656772D01*
X150935969Y-117650583D01*
X150923553Y-117643142D01*
X150911927Y-117634519D01*
X150901202Y-117624798D01*
X150891481Y-117614073D01*
X150882858Y-117602447D01*
X150875417Y-117590031D01*
X150869228Y-117576946D01*
X150864351Y-117563317D01*
X150860834Y-117549276D01*
X150858710Y-117534958D01*
X150858000Y-117520500D01*
X150858000Y-117175500D01*
X150858710Y-117161042D01*
X150860834Y-117146724D01*
X150864351Y-117132683D01*
X150869228Y-117119054D01*
X150875417Y-117105969D01*
X150882858Y-117093553D01*
X150891481Y-117081927D01*
X150901202Y-117071202D01*
X150911927Y-117061481D01*
X150923553Y-117052858D01*
X150935969Y-117045417D01*
X150949054Y-117039228D01*
X150962683Y-117034351D01*
X150976724Y-117030834D01*
X150991042Y-117028710D01*
X151005500Y-117028000D01*
X151300500Y-117028000D01*
X151314958Y-117028710D01*
X151314958Y-117028710D01*
G37*
D12*
X151153000Y-117348000D03*
D11*
G36*
X152284958Y-117028710D02*
X152299276Y-117030834D01*
X152313317Y-117034351D01*
X152326946Y-117039228D01*
X152340031Y-117045417D01*
X152352447Y-117052858D01*
X152364073Y-117061481D01*
X152374798Y-117071202D01*
X152384519Y-117081927D01*
X152393142Y-117093553D01*
X152400583Y-117105969D01*
X152406772Y-117119054D01*
X152411649Y-117132683D01*
X152415166Y-117146724D01*
X152417290Y-117161042D01*
X152418000Y-117175500D01*
X152418000Y-117520500D01*
X152417290Y-117534958D01*
X152415166Y-117549276D01*
X152411649Y-117563317D01*
X152406772Y-117576946D01*
X152400583Y-117590031D01*
X152393142Y-117602447D01*
X152384519Y-117614073D01*
X152374798Y-117624798D01*
X152364073Y-117634519D01*
X152352447Y-117643142D01*
X152340031Y-117650583D01*
X152326946Y-117656772D01*
X152313317Y-117661649D01*
X152299276Y-117665166D01*
X152284958Y-117667290D01*
X152270500Y-117668000D01*
X151975500Y-117668000D01*
X151961042Y-117667290D01*
X151946724Y-117665166D01*
X151932683Y-117661649D01*
X151919054Y-117656772D01*
X151905969Y-117650583D01*
X151893553Y-117643142D01*
X151881927Y-117634519D01*
X151871202Y-117624798D01*
X151861481Y-117614073D01*
X151852858Y-117602447D01*
X151845417Y-117590031D01*
X151839228Y-117576946D01*
X151834351Y-117563317D01*
X151830834Y-117549276D01*
X151828710Y-117534958D01*
X151828000Y-117520500D01*
X151828000Y-117175500D01*
X151828710Y-117161042D01*
X151830834Y-117146724D01*
X151834351Y-117132683D01*
X151839228Y-117119054D01*
X151845417Y-117105969D01*
X151852858Y-117093553D01*
X151861481Y-117081927D01*
X151871202Y-117071202D01*
X151881927Y-117061481D01*
X151893553Y-117052858D01*
X151905969Y-117045417D01*
X151919054Y-117039228D01*
X151932683Y-117034351D01*
X151946724Y-117030834D01*
X151961042Y-117028710D01*
X151975500Y-117028000D01*
X152270500Y-117028000D01*
X152284958Y-117028710D01*
X152284958Y-117028710D01*
G37*
D12*
X152123000Y-117348000D03*
G04 #@! TD*
D11*
G04 #@! TO.C,R10*
G36*
X147504958Y-117028710D02*
X147519276Y-117030834D01*
X147533317Y-117034351D01*
X147546946Y-117039228D01*
X147560031Y-117045417D01*
X147572447Y-117052858D01*
X147584073Y-117061481D01*
X147594798Y-117071202D01*
X147604519Y-117081927D01*
X147613142Y-117093553D01*
X147620583Y-117105969D01*
X147626772Y-117119054D01*
X147631649Y-117132683D01*
X147635166Y-117146724D01*
X147637290Y-117161042D01*
X147638000Y-117175500D01*
X147638000Y-117520500D01*
X147637290Y-117534958D01*
X147635166Y-117549276D01*
X147631649Y-117563317D01*
X147626772Y-117576946D01*
X147620583Y-117590031D01*
X147613142Y-117602447D01*
X147604519Y-117614073D01*
X147594798Y-117624798D01*
X147584073Y-117634519D01*
X147572447Y-117643142D01*
X147560031Y-117650583D01*
X147546946Y-117656772D01*
X147533317Y-117661649D01*
X147519276Y-117665166D01*
X147504958Y-117667290D01*
X147490500Y-117668000D01*
X147195500Y-117668000D01*
X147181042Y-117667290D01*
X147166724Y-117665166D01*
X147152683Y-117661649D01*
X147139054Y-117656772D01*
X147125969Y-117650583D01*
X147113553Y-117643142D01*
X147101927Y-117634519D01*
X147091202Y-117624798D01*
X147081481Y-117614073D01*
X147072858Y-117602447D01*
X147065417Y-117590031D01*
X147059228Y-117576946D01*
X147054351Y-117563317D01*
X147050834Y-117549276D01*
X147048710Y-117534958D01*
X147048000Y-117520500D01*
X147048000Y-117175500D01*
X147048710Y-117161042D01*
X147050834Y-117146724D01*
X147054351Y-117132683D01*
X147059228Y-117119054D01*
X147065417Y-117105969D01*
X147072858Y-117093553D01*
X147081481Y-117081927D01*
X147091202Y-117071202D01*
X147101927Y-117061481D01*
X147113553Y-117052858D01*
X147125969Y-117045417D01*
X147139054Y-117039228D01*
X147152683Y-117034351D01*
X147166724Y-117030834D01*
X147181042Y-117028710D01*
X147195500Y-117028000D01*
X147490500Y-117028000D01*
X147504958Y-117028710D01*
X147504958Y-117028710D01*
G37*
D12*
X147343000Y-117348000D03*
D11*
G36*
X148474958Y-117028710D02*
X148489276Y-117030834D01*
X148503317Y-117034351D01*
X148516946Y-117039228D01*
X148530031Y-117045417D01*
X148542447Y-117052858D01*
X148554073Y-117061481D01*
X148564798Y-117071202D01*
X148574519Y-117081927D01*
X148583142Y-117093553D01*
X148590583Y-117105969D01*
X148596772Y-117119054D01*
X148601649Y-117132683D01*
X148605166Y-117146724D01*
X148607290Y-117161042D01*
X148608000Y-117175500D01*
X148608000Y-117520500D01*
X148607290Y-117534958D01*
X148605166Y-117549276D01*
X148601649Y-117563317D01*
X148596772Y-117576946D01*
X148590583Y-117590031D01*
X148583142Y-117602447D01*
X148574519Y-117614073D01*
X148564798Y-117624798D01*
X148554073Y-117634519D01*
X148542447Y-117643142D01*
X148530031Y-117650583D01*
X148516946Y-117656772D01*
X148503317Y-117661649D01*
X148489276Y-117665166D01*
X148474958Y-117667290D01*
X148460500Y-117668000D01*
X148165500Y-117668000D01*
X148151042Y-117667290D01*
X148136724Y-117665166D01*
X148122683Y-117661649D01*
X148109054Y-117656772D01*
X148095969Y-117650583D01*
X148083553Y-117643142D01*
X148071927Y-117634519D01*
X148061202Y-117624798D01*
X148051481Y-117614073D01*
X148042858Y-117602447D01*
X148035417Y-117590031D01*
X148029228Y-117576946D01*
X148024351Y-117563317D01*
X148020834Y-117549276D01*
X148018710Y-117534958D01*
X148018000Y-117520500D01*
X148018000Y-117175500D01*
X148018710Y-117161042D01*
X148020834Y-117146724D01*
X148024351Y-117132683D01*
X148029228Y-117119054D01*
X148035417Y-117105969D01*
X148042858Y-117093553D01*
X148051481Y-117081927D01*
X148061202Y-117071202D01*
X148071927Y-117061481D01*
X148083553Y-117052858D01*
X148095969Y-117045417D01*
X148109054Y-117039228D01*
X148122683Y-117034351D01*
X148136724Y-117030834D01*
X148151042Y-117028710D01*
X148165500Y-117028000D01*
X148460500Y-117028000D01*
X148474958Y-117028710D01*
X148474958Y-117028710D01*
G37*
D12*
X148313000Y-117348000D03*
G04 #@! TD*
D11*
G04 #@! TO.C,R9*
G36*
X155124958Y-117028710D02*
X155139276Y-117030834D01*
X155153317Y-117034351D01*
X155166946Y-117039228D01*
X155180031Y-117045417D01*
X155192447Y-117052858D01*
X155204073Y-117061481D01*
X155214798Y-117071202D01*
X155224519Y-117081927D01*
X155233142Y-117093553D01*
X155240583Y-117105969D01*
X155246772Y-117119054D01*
X155251649Y-117132683D01*
X155255166Y-117146724D01*
X155257290Y-117161042D01*
X155258000Y-117175500D01*
X155258000Y-117520500D01*
X155257290Y-117534958D01*
X155255166Y-117549276D01*
X155251649Y-117563317D01*
X155246772Y-117576946D01*
X155240583Y-117590031D01*
X155233142Y-117602447D01*
X155224519Y-117614073D01*
X155214798Y-117624798D01*
X155204073Y-117634519D01*
X155192447Y-117643142D01*
X155180031Y-117650583D01*
X155166946Y-117656772D01*
X155153317Y-117661649D01*
X155139276Y-117665166D01*
X155124958Y-117667290D01*
X155110500Y-117668000D01*
X154815500Y-117668000D01*
X154801042Y-117667290D01*
X154786724Y-117665166D01*
X154772683Y-117661649D01*
X154759054Y-117656772D01*
X154745969Y-117650583D01*
X154733553Y-117643142D01*
X154721927Y-117634519D01*
X154711202Y-117624798D01*
X154701481Y-117614073D01*
X154692858Y-117602447D01*
X154685417Y-117590031D01*
X154679228Y-117576946D01*
X154674351Y-117563317D01*
X154670834Y-117549276D01*
X154668710Y-117534958D01*
X154668000Y-117520500D01*
X154668000Y-117175500D01*
X154668710Y-117161042D01*
X154670834Y-117146724D01*
X154674351Y-117132683D01*
X154679228Y-117119054D01*
X154685417Y-117105969D01*
X154692858Y-117093553D01*
X154701481Y-117081927D01*
X154711202Y-117071202D01*
X154721927Y-117061481D01*
X154733553Y-117052858D01*
X154745969Y-117045417D01*
X154759054Y-117039228D01*
X154772683Y-117034351D01*
X154786724Y-117030834D01*
X154801042Y-117028710D01*
X154815500Y-117028000D01*
X155110500Y-117028000D01*
X155124958Y-117028710D01*
X155124958Y-117028710D01*
G37*
D12*
X154963000Y-117348000D03*
D11*
G36*
X156094958Y-117028710D02*
X156109276Y-117030834D01*
X156123317Y-117034351D01*
X156136946Y-117039228D01*
X156150031Y-117045417D01*
X156162447Y-117052858D01*
X156174073Y-117061481D01*
X156184798Y-117071202D01*
X156194519Y-117081927D01*
X156203142Y-117093553D01*
X156210583Y-117105969D01*
X156216772Y-117119054D01*
X156221649Y-117132683D01*
X156225166Y-117146724D01*
X156227290Y-117161042D01*
X156228000Y-117175500D01*
X156228000Y-117520500D01*
X156227290Y-117534958D01*
X156225166Y-117549276D01*
X156221649Y-117563317D01*
X156216772Y-117576946D01*
X156210583Y-117590031D01*
X156203142Y-117602447D01*
X156194519Y-117614073D01*
X156184798Y-117624798D01*
X156174073Y-117634519D01*
X156162447Y-117643142D01*
X156150031Y-117650583D01*
X156136946Y-117656772D01*
X156123317Y-117661649D01*
X156109276Y-117665166D01*
X156094958Y-117667290D01*
X156080500Y-117668000D01*
X155785500Y-117668000D01*
X155771042Y-117667290D01*
X155756724Y-117665166D01*
X155742683Y-117661649D01*
X155729054Y-117656772D01*
X155715969Y-117650583D01*
X155703553Y-117643142D01*
X155691927Y-117634519D01*
X155681202Y-117624798D01*
X155671481Y-117614073D01*
X155662858Y-117602447D01*
X155655417Y-117590031D01*
X155649228Y-117576946D01*
X155644351Y-117563317D01*
X155640834Y-117549276D01*
X155638710Y-117534958D01*
X155638000Y-117520500D01*
X155638000Y-117175500D01*
X155638710Y-117161042D01*
X155640834Y-117146724D01*
X155644351Y-117132683D01*
X155649228Y-117119054D01*
X155655417Y-117105969D01*
X155662858Y-117093553D01*
X155671481Y-117081927D01*
X155681202Y-117071202D01*
X155691927Y-117061481D01*
X155703553Y-117052858D01*
X155715969Y-117045417D01*
X155729054Y-117039228D01*
X155742683Y-117034351D01*
X155756724Y-117030834D01*
X155771042Y-117028710D01*
X155785500Y-117028000D01*
X156080500Y-117028000D01*
X156094958Y-117028710D01*
X156094958Y-117028710D01*
G37*
D12*
X155933000Y-117348000D03*
G04 #@! TD*
D11*
G04 #@! TO.C,R8*
G36*
X157156958Y-119314710D02*
X157171276Y-119316834D01*
X157185317Y-119320351D01*
X157198946Y-119325228D01*
X157212031Y-119331417D01*
X157224447Y-119338858D01*
X157236073Y-119347481D01*
X157246798Y-119357202D01*
X157256519Y-119367927D01*
X157265142Y-119379553D01*
X157272583Y-119391969D01*
X157278772Y-119405054D01*
X157283649Y-119418683D01*
X157287166Y-119432724D01*
X157289290Y-119447042D01*
X157290000Y-119461500D01*
X157290000Y-119806500D01*
X157289290Y-119820958D01*
X157287166Y-119835276D01*
X157283649Y-119849317D01*
X157278772Y-119862946D01*
X157272583Y-119876031D01*
X157265142Y-119888447D01*
X157256519Y-119900073D01*
X157246798Y-119910798D01*
X157236073Y-119920519D01*
X157224447Y-119929142D01*
X157212031Y-119936583D01*
X157198946Y-119942772D01*
X157185317Y-119947649D01*
X157171276Y-119951166D01*
X157156958Y-119953290D01*
X157142500Y-119954000D01*
X156847500Y-119954000D01*
X156833042Y-119953290D01*
X156818724Y-119951166D01*
X156804683Y-119947649D01*
X156791054Y-119942772D01*
X156777969Y-119936583D01*
X156765553Y-119929142D01*
X156753927Y-119920519D01*
X156743202Y-119910798D01*
X156733481Y-119900073D01*
X156724858Y-119888447D01*
X156717417Y-119876031D01*
X156711228Y-119862946D01*
X156706351Y-119849317D01*
X156702834Y-119835276D01*
X156700710Y-119820958D01*
X156700000Y-119806500D01*
X156700000Y-119461500D01*
X156700710Y-119447042D01*
X156702834Y-119432724D01*
X156706351Y-119418683D01*
X156711228Y-119405054D01*
X156717417Y-119391969D01*
X156724858Y-119379553D01*
X156733481Y-119367927D01*
X156743202Y-119357202D01*
X156753927Y-119347481D01*
X156765553Y-119338858D01*
X156777969Y-119331417D01*
X156791054Y-119325228D01*
X156804683Y-119320351D01*
X156818724Y-119316834D01*
X156833042Y-119314710D01*
X156847500Y-119314000D01*
X157142500Y-119314000D01*
X157156958Y-119314710D01*
X157156958Y-119314710D01*
G37*
D12*
X156995000Y-119634000D03*
D11*
G36*
X158126958Y-119314710D02*
X158141276Y-119316834D01*
X158155317Y-119320351D01*
X158168946Y-119325228D01*
X158182031Y-119331417D01*
X158194447Y-119338858D01*
X158206073Y-119347481D01*
X158216798Y-119357202D01*
X158226519Y-119367927D01*
X158235142Y-119379553D01*
X158242583Y-119391969D01*
X158248772Y-119405054D01*
X158253649Y-119418683D01*
X158257166Y-119432724D01*
X158259290Y-119447042D01*
X158260000Y-119461500D01*
X158260000Y-119806500D01*
X158259290Y-119820958D01*
X158257166Y-119835276D01*
X158253649Y-119849317D01*
X158248772Y-119862946D01*
X158242583Y-119876031D01*
X158235142Y-119888447D01*
X158226519Y-119900073D01*
X158216798Y-119910798D01*
X158206073Y-119920519D01*
X158194447Y-119929142D01*
X158182031Y-119936583D01*
X158168946Y-119942772D01*
X158155317Y-119947649D01*
X158141276Y-119951166D01*
X158126958Y-119953290D01*
X158112500Y-119954000D01*
X157817500Y-119954000D01*
X157803042Y-119953290D01*
X157788724Y-119951166D01*
X157774683Y-119947649D01*
X157761054Y-119942772D01*
X157747969Y-119936583D01*
X157735553Y-119929142D01*
X157723927Y-119920519D01*
X157713202Y-119910798D01*
X157703481Y-119900073D01*
X157694858Y-119888447D01*
X157687417Y-119876031D01*
X157681228Y-119862946D01*
X157676351Y-119849317D01*
X157672834Y-119835276D01*
X157670710Y-119820958D01*
X157670000Y-119806500D01*
X157670000Y-119461500D01*
X157670710Y-119447042D01*
X157672834Y-119432724D01*
X157676351Y-119418683D01*
X157681228Y-119405054D01*
X157687417Y-119391969D01*
X157694858Y-119379553D01*
X157703481Y-119367927D01*
X157713202Y-119357202D01*
X157723927Y-119347481D01*
X157735553Y-119338858D01*
X157747969Y-119331417D01*
X157761054Y-119325228D01*
X157774683Y-119320351D01*
X157788724Y-119316834D01*
X157803042Y-119314710D01*
X157817500Y-119314000D01*
X158112500Y-119314000D01*
X158126958Y-119314710D01*
X158126958Y-119314710D01*
G37*
D12*
X157965000Y-119634000D03*
G04 #@! TD*
D11*
G04 #@! TO.C,R7*
G36*
X144204958Y-108948710D02*
X144219276Y-108950834D01*
X144233317Y-108954351D01*
X144246946Y-108959228D01*
X144260031Y-108965417D01*
X144272447Y-108972858D01*
X144284073Y-108981481D01*
X144294798Y-108991202D01*
X144304519Y-109001927D01*
X144313142Y-109013553D01*
X144320583Y-109025969D01*
X144326772Y-109039054D01*
X144331649Y-109052683D01*
X144335166Y-109066724D01*
X144337290Y-109081042D01*
X144338000Y-109095500D01*
X144338000Y-109390500D01*
X144337290Y-109404958D01*
X144335166Y-109419276D01*
X144331649Y-109433317D01*
X144326772Y-109446946D01*
X144320583Y-109460031D01*
X144313142Y-109472447D01*
X144304519Y-109484073D01*
X144294798Y-109494798D01*
X144284073Y-109504519D01*
X144272447Y-109513142D01*
X144260031Y-109520583D01*
X144246946Y-109526772D01*
X144233317Y-109531649D01*
X144219276Y-109535166D01*
X144204958Y-109537290D01*
X144190500Y-109538000D01*
X143845500Y-109538000D01*
X143831042Y-109537290D01*
X143816724Y-109535166D01*
X143802683Y-109531649D01*
X143789054Y-109526772D01*
X143775969Y-109520583D01*
X143763553Y-109513142D01*
X143751927Y-109504519D01*
X143741202Y-109494798D01*
X143731481Y-109484073D01*
X143722858Y-109472447D01*
X143715417Y-109460031D01*
X143709228Y-109446946D01*
X143704351Y-109433317D01*
X143700834Y-109419276D01*
X143698710Y-109404958D01*
X143698000Y-109390500D01*
X143698000Y-109095500D01*
X143698710Y-109081042D01*
X143700834Y-109066724D01*
X143704351Y-109052683D01*
X143709228Y-109039054D01*
X143715417Y-109025969D01*
X143722858Y-109013553D01*
X143731481Y-109001927D01*
X143741202Y-108991202D01*
X143751927Y-108981481D01*
X143763553Y-108972858D01*
X143775969Y-108965417D01*
X143789054Y-108959228D01*
X143802683Y-108954351D01*
X143816724Y-108950834D01*
X143831042Y-108948710D01*
X143845500Y-108948000D01*
X144190500Y-108948000D01*
X144204958Y-108948710D01*
X144204958Y-108948710D01*
G37*
D12*
X144018000Y-109243000D03*
D11*
G36*
X144204958Y-109918710D02*
X144219276Y-109920834D01*
X144233317Y-109924351D01*
X144246946Y-109929228D01*
X144260031Y-109935417D01*
X144272447Y-109942858D01*
X144284073Y-109951481D01*
X144294798Y-109961202D01*
X144304519Y-109971927D01*
X144313142Y-109983553D01*
X144320583Y-109995969D01*
X144326772Y-110009054D01*
X144331649Y-110022683D01*
X144335166Y-110036724D01*
X144337290Y-110051042D01*
X144338000Y-110065500D01*
X144338000Y-110360500D01*
X144337290Y-110374958D01*
X144335166Y-110389276D01*
X144331649Y-110403317D01*
X144326772Y-110416946D01*
X144320583Y-110430031D01*
X144313142Y-110442447D01*
X144304519Y-110454073D01*
X144294798Y-110464798D01*
X144284073Y-110474519D01*
X144272447Y-110483142D01*
X144260031Y-110490583D01*
X144246946Y-110496772D01*
X144233317Y-110501649D01*
X144219276Y-110505166D01*
X144204958Y-110507290D01*
X144190500Y-110508000D01*
X143845500Y-110508000D01*
X143831042Y-110507290D01*
X143816724Y-110505166D01*
X143802683Y-110501649D01*
X143789054Y-110496772D01*
X143775969Y-110490583D01*
X143763553Y-110483142D01*
X143751927Y-110474519D01*
X143741202Y-110464798D01*
X143731481Y-110454073D01*
X143722858Y-110442447D01*
X143715417Y-110430031D01*
X143709228Y-110416946D01*
X143704351Y-110403317D01*
X143700834Y-110389276D01*
X143698710Y-110374958D01*
X143698000Y-110360500D01*
X143698000Y-110065500D01*
X143698710Y-110051042D01*
X143700834Y-110036724D01*
X143704351Y-110022683D01*
X143709228Y-110009054D01*
X143715417Y-109995969D01*
X143722858Y-109983553D01*
X143731481Y-109971927D01*
X143741202Y-109961202D01*
X143751927Y-109951481D01*
X143763553Y-109942858D01*
X143775969Y-109935417D01*
X143789054Y-109929228D01*
X143802683Y-109924351D01*
X143816724Y-109920834D01*
X143831042Y-109918710D01*
X143845500Y-109918000D01*
X144190500Y-109918000D01*
X144204958Y-109918710D01*
X144204958Y-109918710D01*
G37*
D12*
X144018000Y-110213000D03*
G04 #@! TD*
D11*
G04 #@! TO.C,R4*
G36*
X148578958Y-106614710D02*
X148593276Y-106616834D01*
X148607317Y-106620351D01*
X148620946Y-106625228D01*
X148634031Y-106631417D01*
X148646447Y-106638858D01*
X148658073Y-106647481D01*
X148668798Y-106657202D01*
X148678519Y-106667927D01*
X148687142Y-106679553D01*
X148694583Y-106691969D01*
X148700772Y-106705054D01*
X148705649Y-106718683D01*
X148709166Y-106732724D01*
X148711290Y-106747042D01*
X148712000Y-106761500D01*
X148712000Y-107106500D01*
X148711290Y-107120958D01*
X148709166Y-107135276D01*
X148705649Y-107149317D01*
X148700772Y-107162946D01*
X148694583Y-107176031D01*
X148687142Y-107188447D01*
X148678519Y-107200073D01*
X148668798Y-107210798D01*
X148658073Y-107220519D01*
X148646447Y-107229142D01*
X148634031Y-107236583D01*
X148620946Y-107242772D01*
X148607317Y-107247649D01*
X148593276Y-107251166D01*
X148578958Y-107253290D01*
X148564500Y-107254000D01*
X148269500Y-107254000D01*
X148255042Y-107253290D01*
X148240724Y-107251166D01*
X148226683Y-107247649D01*
X148213054Y-107242772D01*
X148199969Y-107236583D01*
X148187553Y-107229142D01*
X148175927Y-107220519D01*
X148165202Y-107210798D01*
X148155481Y-107200073D01*
X148146858Y-107188447D01*
X148139417Y-107176031D01*
X148133228Y-107162946D01*
X148128351Y-107149317D01*
X148124834Y-107135276D01*
X148122710Y-107120958D01*
X148122000Y-107106500D01*
X148122000Y-106761500D01*
X148122710Y-106747042D01*
X148124834Y-106732724D01*
X148128351Y-106718683D01*
X148133228Y-106705054D01*
X148139417Y-106691969D01*
X148146858Y-106679553D01*
X148155481Y-106667927D01*
X148165202Y-106657202D01*
X148175927Y-106647481D01*
X148187553Y-106638858D01*
X148199969Y-106631417D01*
X148213054Y-106625228D01*
X148226683Y-106620351D01*
X148240724Y-106616834D01*
X148255042Y-106614710D01*
X148269500Y-106614000D01*
X148564500Y-106614000D01*
X148578958Y-106614710D01*
X148578958Y-106614710D01*
G37*
D12*
X148417000Y-106934000D03*
D11*
G36*
X147608958Y-106614710D02*
X147623276Y-106616834D01*
X147637317Y-106620351D01*
X147650946Y-106625228D01*
X147664031Y-106631417D01*
X147676447Y-106638858D01*
X147688073Y-106647481D01*
X147698798Y-106657202D01*
X147708519Y-106667927D01*
X147717142Y-106679553D01*
X147724583Y-106691969D01*
X147730772Y-106705054D01*
X147735649Y-106718683D01*
X147739166Y-106732724D01*
X147741290Y-106747042D01*
X147742000Y-106761500D01*
X147742000Y-107106500D01*
X147741290Y-107120958D01*
X147739166Y-107135276D01*
X147735649Y-107149317D01*
X147730772Y-107162946D01*
X147724583Y-107176031D01*
X147717142Y-107188447D01*
X147708519Y-107200073D01*
X147698798Y-107210798D01*
X147688073Y-107220519D01*
X147676447Y-107229142D01*
X147664031Y-107236583D01*
X147650946Y-107242772D01*
X147637317Y-107247649D01*
X147623276Y-107251166D01*
X147608958Y-107253290D01*
X147594500Y-107254000D01*
X147299500Y-107254000D01*
X147285042Y-107253290D01*
X147270724Y-107251166D01*
X147256683Y-107247649D01*
X147243054Y-107242772D01*
X147229969Y-107236583D01*
X147217553Y-107229142D01*
X147205927Y-107220519D01*
X147195202Y-107210798D01*
X147185481Y-107200073D01*
X147176858Y-107188447D01*
X147169417Y-107176031D01*
X147163228Y-107162946D01*
X147158351Y-107149317D01*
X147154834Y-107135276D01*
X147152710Y-107120958D01*
X147152000Y-107106500D01*
X147152000Y-106761500D01*
X147152710Y-106747042D01*
X147154834Y-106732724D01*
X147158351Y-106718683D01*
X147163228Y-106705054D01*
X147169417Y-106691969D01*
X147176858Y-106679553D01*
X147185481Y-106667927D01*
X147195202Y-106657202D01*
X147205927Y-106647481D01*
X147217553Y-106638858D01*
X147229969Y-106631417D01*
X147243054Y-106625228D01*
X147256683Y-106620351D01*
X147270724Y-106616834D01*
X147285042Y-106614710D01*
X147299500Y-106614000D01*
X147594500Y-106614000D01*
X147608958Y-106614710D01*
X147608958Y-106614710D01*
G37*
D12*
X147447000Y-106934000D03*
G04 #@! TD*
D11*
G04 #@! TO.C,R3*
G36*
X148601958Y-103947710D02*
X148616276Y-103949834D01*
X148630317Y-103953351D01*
X148643946Y-103958228D01*
X148657031Y-103964417D01*
X148669447Y-103971858D01*
X148681073Y-103980481D01*
X148691798Y-103990202D01*
X148701519Y-104000927D01*
X148710142Y-104012553D01*
X148717583Y-104024969D01*
X148723772Y-104038054D01*
X148728649Y-104051683D01*
X148732166Y-104065724D01*
X148734290Y-104080042D01*
X148735000Y-104094500D01*
X148735000Y-104439500D01*
X148734290Y-104453958D01*
X148732166Y-104468276D01*
X148728649Y-104482317D01*
X148723772Y-104495946D01*
X148717583Y-104509031D01*
X148710142Y-104521447D01*
X148701519Y-104533073D01*
X148691798Y-104543798D01*
X148681073Y-104553519D01*
X148669447Y-104562142D01*
X148657031Y-104569583D01*
X148643946Y-104575772D01*
X148630317Y-104580649D01*
X148616276Y-104584166D01*
X148601958Y-104586290D01*
X148587500Y-104587000D01*
X148292500Y-104587000D01*
X148278042Y-104586290D01*
X148263724Y-104584166D01*
X148249683Y-104580649D01*
X148236054Y-104575772D01*
X148222969Y-104569583D01*
X148210553Y-104562142D01*
X148198927Y-104553519D01*
X148188202Y-104543798D01*
X148178481Y-104533073D01*
X148169858Y-104521447D01*
X148162417Y-104509031D01*
X148156228Y-104495946D01*
X148151351Y-104482317D01*
X148147834Y-104468276D01*
X148145710Y-104453958D01*
X148145000Y-104439500D01*
X148145000Y-104094500D01*
X148145710Y-104080042D01*
X148147834Y-104065724D01*
X148151351Y-104051683D01*
X148156228Y-104038054D01*
X148162417Y-104024969D01*
X148169858Y-104012553D01*
X148178481Y-104000927D01*
X148188202Y-103990202D01*
X148198927Y-103980481D01*
X148210553Y-103971858D01*
X148222969Y-103964417D01*
X148236054Y-103958228D01*
X148249683Y-103953351D01*
X148263724Y-103949834D01*
X148278042Y-103947710D01*
X148292500Y-103947000D01*
X148587500Y-103947000D01*
X148601958Y-103947710D01*
X148601958Y-103947710D01*
G37*
D12*
X148440000Y-104267000D03*
D11*
G36*
X147631958Y-103947710D02*
X147646276Y-103949834D01*
X147660317Y-103953351D01*
X147673946Y-103958228D01*
X147687031Y-103964417D01*
X147699447Y-103971858D01*
X147711073Y-103980481D01*
X147721798Y-103990202D01*
X147731519Y-104000927D01*
X147740142Y-104012553D01*
X147747583Y-104024969D01*
X147753772Y-104038054D01*
X147758649Y-104051683D01*
X147762166Y-104065724D01*
X147764290Y-104080042D01*
X147765000Y-104094500D01*
X147765000Y-104439500D01*
X147764290Y-104453958D01*
X147762166Y-104468276D01*
X147758649Y-104482317D01*
X147753772Y-104495946D01*
X147747583Y-104509031D01*
X147740142Y-104521447D01*
X147731519Y-104533073D01*
X147721798Y-104543798D01*
X147711073Y-104553519D01*
X147699447Y-104562142D01*
X147687031Y-104569583D01*
X147673946Y-104575772D01*
X147660317Y-104580649D01*
X147646276Y-104584166D01*
X147631958Y-104586290D01*
X147617500Y-104587000D01*
X147322500Y-104587000D01*
X147308042Y-104586290D01*
X147293724Y-104584166D01*
X147279683Y-104580649D01*
X147266054Y-104575772D01*
X147252969Y-104569583D01*
X147240553Y-104562142D01*
X147228927Y-104553519D01*
X147218202Y-104543798D01*
X147208481Y-104533073D01*
X147199858Y-104521447D01*
X147192417Y-104509031D01*
X147186228Y-104495946D01*
X147181351Y-104482317D01*
X147177834Y-104468276D01*
X147175710Y-104453958D01*
X147175000Y-104439500D01*
X147175000Y-104094500D01*
X147175710Y-104080042D01*
X147177834Y-104065724D01*
X147181351Y-104051683D01*
X147186228Y-104038054D01*
X147192417Y-104024969D01*
X147199858Y-104012553D01*
X147208481Y-104000927D01*
X147218202Y-103990202D01*
X147228927Y-103980481D01*
X147240553Y-103971858D01*
X147252969Y-103964417D01*
X147266054Y-103958228D01*
X147279683Y-103953351D01*
X147293724Y-103949834D01*
X147308042Y-103947710D01*
X147322500Y-103947000D01*
X147617500Y-103947000D01*
X147631958Y-103947710D01*
X147631958Y-103947710D01*
G37*
D12*
X147470000Y-104267000D03*
G04 #@! TD*
D11*
G04 #@! TO.C,R2*
G36*
X145422158Y-98258110D02*
X145436476Y-98260234D01*
X145450517Y-98263751D01*
X145464146Y-98268628D01*
X145477231Y-98274817D01*
X145489647Y-98282258D01*
X145501273Y-98290881D01*
X145511998Y-98300602D01*
X145521719Y-98311327D01*
X145530342Y-98322953D01*
X145537783Y-98335369D01*
X145543972Y-98348454D01*
X145548849Y-98362083D01*
X145552366Y-98376124D01*
X145554490Y-98390442D01*
X145555200Y-98404900D01*
X145555200Y-98749900D01*
X145554490Y-98764358D01*
X145552366Y-98778676D01*
X145548849Y-98792717D01*
X145543972Y-98806346D01*
X145537783Y-98819431D01*
X145530342Y-98831847D01*
X145521719Y-98843473D01*
X145511998Y-98854198D01*
X145501273Y-98863919D01*
X145489647Y-98872542D01*
X145477231Y-98879983D01*
X145464146Y-98886172D01*
X145450517Y-98891049D01*
X145436476Y-98894566D01*
X145422158Y-98896690D01*
X145407700Y-98897400D01*
X145112700Y-98897400D01*
X145098242Y-98896690D01*
X145083924Y-98894566D01*
X145069883Y-98891049D01*
X145056254Y-98886172D01*
X145043169Y-98879983D01*
X145030753Y-98872542D01*
X145019127Y-98863919D01*
X145008402Y-98854198D01*
X144998681Y-98843473D01*
X144990058Y-98831847D01*
X144982617Y-98819431D01*
X144976428Y-98806346D01*
X144971551Y-98792717D01*
X144968034Y-98778676D01*
X144965910Y-98764358D01*
X144965200Y-98749900D01*
X144965200Y-98404900D01*
X144965910Y-98390442D01*
X144968034Y-98376124D01*
X144971551Y-98362083D01*
X144976428Y-98348454D01*
X144982617Y-98335369D01*
X144990058Y-98322953D01*
X144998681Y-98311327D01*
X145008402Y-98300602D01*
X145019127Y-98290881D01*
X145030753Y-98282258D01*
X145043169Y-98274817D01*
X145056254Y-98268628D01*
X145069883Y-98263751D01*
X145083924Y-98260234D01*
X145098242Y-98258110D01*
X145112700Y-98257400D01*
X145407700Y-98257400D01*
X145422158Y-98258110D01*
X145422158Y-98258110D01*
G37*
D12*
X145260200Y-98577400D03*
D11*
G36*
X146392158Y-98258110D02*
X146406476Y-98260234D01*
X146420517Y-98263751D01*
X146434146Y-98268628D01*
X146447231Y-98274817D01*
X146459647Y-98282258D01*
X146471273Y-98290881D01*
X146481998Y-98300602D01*
X146491719Y-98311327D01*
X146500342Y-98322953D01*
X146507783Y-98335369D01*
X146513972Y-98348454D01*
X146518849Y-98362083D01*
X146522366Y-98376124D01*
X146524490Y-98390442D01*
X146525200Y-98404900D01*
X146525200Y-98749900D01*
X146524490Y-98764358D01*
X146522366Y-98778676D01*
X146518849Y-98792717D01*
X146513972Y-98806346D01*
X146507783Y-98819431D01*
X146500342Y-98831847D01*
X146491719Y-98843473D01*
X146481998Y-98854198D01*
X146471273Y-98863919D01*
X146459647Y-98872542D01*
X146447231Y-98879983D01*
X146434146Y-98886172D01*
X146420517Y-98891049D01*
X146406476Y-98894566D01*
X146392158Y-98896690D01*
X146377700Y-98897400D01*
X146082700Y-98897400D01*
X146068242Y-98896690D01*
X146053924Y-98894566D01*
X146039883Y-98891049D01*
X146026254Y-98886172D01*
X146013169Y-98879983D01*
X146000753Y-98872542D01*
X145989127Y-98863919D01*
X145978402Y-98854198D01*
X145968681Y-98843473D01*
X145960058Y-98831847D01*
X145952617Y-98819431D01*
X145946428Y-98806346D01*
X145941551Y-98792717D01*
X145938034Y-98778676D01*
X145935910Y-98764358D01*
X145935200Y-98749900D01*
X145935200Y-98404900D01*
X145935910Y-98390442D01*
X145938034Y-98376124D01*
X145941551Y-98362083D01*
X145946428Y-98348454D01*
X145952617Y-98335369D01*
X145960058Y-98322953D01*
X145968681Y-98311327D01*
X145978402Y-98300602D01*
X145989127Y-98290881D01*
X146000753Y-98282258D01*
X146013169Y-98274817D01*
X146026254Y-98268628D01*
X146039883Y-98263751D01*
X146053924Y-98260234D01*
X146068242Y-98258110D01*
X146082700Y-98257400D01*
X146377700Y-98257400D01*
X146392158Y-98258110D01*
X146392158Y-98258110D01*
G37*
D12*
X146230200Y-98577400D03*
G04 #@! TD*
D23*
G04 #@! TO.C,J4*
X137287000Y-93323000D03*
X137287000Y-96923000D03*
X138557000Y-93323000D03*
X138557000Y-96923000D03*
X139827000Y-93323000D03*
X139827000Y-96923000D03*
X141097000Y-93323000D03*
X141097000Y-96923000D03*
X142367000Y-93323000D03*
X142367000Y-96923000D03*
G04 #@! TD*
D11*
G04 #@! TO.C,D5*
G36*
X144803691Y-113304553D02*
X144824926Y-113307703D01*
X144845750Y-113312919D01*
X144865962Y-113320151D01*
X144885368Y-113329330D01*
X144903781Y-113340366D01*
X144921024Y-113353154D01*
X144936930Y-113367570D01*
X144951346Y-113383476D01*
X144964134Y-113400719D01*
X144975170Y-113419132D01*
X144984349Y-113438538D01*
X144991581Y-113458750D01*
X144996797Y-113479574D01*
X144999947Y-113500809D01*
X145001000Y-113522250D01*
X145001000Y-113959750D01*
X144999947Y-113981191D01*
X144996797Y-114002426D01*
X144991581Y-114023250D01*
X144984349Y-114043462D01*
X144975170Y-114062868D01*
X144964134Y-114081281D01*
X144951346Y-114098524D01*
X144936930Y-114114430D01*
X144921024Y-114128846D01*
X144903781Y-114141634D01*
X144885368Y-114152670D01*
X144865962Y-114161849D01*
X144845750Y-114169081D01*
X144824926Y-114174297D01*
X144803691Y-114177447D01*
X144782250Y-114178500D01*
X144269750Y-114178500D01*
X144248309Y-114177447D01*
X144227074Y-114174297D01*
X144206250Y-114169081D01*
X144186038Y-114161849D01*
X144166632Y-114152670D01*
X144148219Y-114141634D01*
X144130976Y-114128846D01*
X144115070Y-114114430D01*
X144100654Y-114098524D01*
X144087866Y-114081281D01*
X144076830Y-114062868D01*
X144067651Y-114043462D01*
X144060419Y-114023250D01*
X144055203Y-114002426D01*
X144052053Y-113981191D01*
X144051000Y-113959750D01*
X144051000Y-113522250D01*
X144052053Y-113500809D01*
X144055203Y-113479574D01*
X144060419Y-113458750D01*
X144067651Y-113438538D01*
X144076830Y-113419132D01*
X144087866Y-113400719D01*
X144100654Y-113383476D01*
X144115070Y-113367570D01*
X144130976Y-113353154D01*
X144148219Y-113340366D01*
X144166632Y-113329330D01*
X144186038Y-113320151D01*
X144206250Y-113312919D01*
X144227074Y-113307703D01*
X144248309Y-113304553D01*
X144269750Y-113303500D01*
X144782250Y-113303500D01*
X144803691Y-113304553D01*
X144803691Y-113304553D01*
G37*
D13*
X144526000Y-113741000D03*
D11*
G36*
X144803691Y-114879553D02*
X144824926Y-114882703D01*
X144845750Y-114887919D01*
X144865962Y-114895151D01*
X144885368Y-114904330D01*
X144903781Y-114915366D01*
X144921024Y-114928154D01*
X144936930Y-114942570D01*
X144951346Y-114958476D01*
X144964134Y-114975719D01*
X144975170Y-114994132D01*
X144984349Y-115013538D01*
X144991581Y-115033750D01*
X144996797Y-115054574D01*
X144999947Y-115075809D01*
X145001000Y-115097250D01*
X145001000Y-115534750D01*
X144999947Y-115556191D01*
X144996797Y-115577426D01*
X144991581Y-115598250D01*
X144984349Y-115618462D01*
X144975170Y-115637868D01*
X144964134Y-115656281D01*
X144951346Y-115673524D01*
X144936930Y-115689430D01*
X144921024Y-115703846D01*
X144903781Y-115716634D01*
X144885368Y-115727670D01*
X144865962Y-115736849D01*
X144845750Y-115744081D01*
X144824926Y-115749297D01*
X144803691Y-115752447D01*
X144782250Y-115753500D01*
X144269750Y-115753500D01*
X144248309Y-115752447D01*
X144227074Y-115749297D01*
X144206250Y-115744081D01*
X144186038Y-115736849D01*
X144166632Y-115727670D01*
X144148219Y-115716634D01*
X144130976Y-115703846D01*
X144115070Y-115689430D01*
X144100654Y-115673524D01*
X144087866Y-115656281D01*
X144076830Y-115637868D01*
X144067651Y-115618462D01*
X144060419Y-115598250D01*
X144055203Y-115577426D01*
X144052053Y-115556191D01*
X144051000Y-115534750D01*
X144051000Y-115097250D01*
X144052053Y-115075809D01*
X144055203Y-115054574D01*
X144060419Y-115033750D01*
X144067651Y-115013538D01*
X144076830Y-114994132D01*
X144087866Y-114975719D01*
X144100654Y-114958476D01*
X144115070Y-114942570D01*
X144130976Y-114928154D01*
X144148219Y-114915366D01*
X144166632Y-114904330D01*
X144186038Y-114895151D01*
X144206250Y-114887919D01*
X144227074Y-114882703D01*
X144248309Y-114879553D01*
X144269750Y-114878500D01*
X144782250Y-114878500D01*
X144803691Y-114879553D01*
X144803691Y-114879553D01*
G37*
D13*
X144526000Y-115316000D03*
G04 #@! TD*
D11*
G04 #@! TO.C,D4*
G36*
X152423691Y-113330053D02*
X152444926Y-113333203D01*
X152465750Y-113338419D01*
X152485962Y-113345651D01*
X152505368Y-113354830D01*
X152523781Y-113365866D01*
X152541024Y-113378654D01*
X152556930Y-113393070D01*
X152571346Y-113408976D01*
X152584134Y-113426219D01*
X152595170Y-113444632D01*
X152604349Y-113464038D01*
X152611581Y-113484250D01*
X152616797Y-113505074D01*
X152619947Y-113526309D01*
X152621000Y-113547750D01*
X152621000Y-113985250D01*
X152619947Y-114006691D01*
X152616797Y-114027926D01*
X152611581Y-114048750D01*
X152604349Y-114068962D01*
X152595170Y-114088368D01*
X152584134Y-114106781D01*
X152571346Y-114124024D01*
X152556930Y-114139930D01*
X152541024Y-114154346D01*
X152523781Y-114167134D01*
X152505368Y-114178170D01*
X152485962Y-114187349D01*
X152465750Y-114194581D01*
X152444926Y-114199797D01*
X152423691Y-114202947D01*
X152402250Y-114204000D01*
X151889750Y-114204000D01*
X151868309Y-114202947D01*
X151847074Y-114199797D01*
X151826250Y-114194581D01*
X151806038Y-114187349D01*
X151786632Y-114178170D01*
X151768219Y-114167134D01*
X151750976Y-114154346D01*
X151735070Y-114139930D01*
X151720654Y-114124024D01*
X151707866Y-114106781D01*
X151696830Y-114088368D01*
X151687651Y-114068962D01*
X151680419Y-114048750D01*
X151675203Y-114027926D01*
X151672053Y-114006691D01*
X151671000Y-113985250D01*
X151671000Y-113547750D01*
X151672053Y-113526309D01*
X151675203Y-113505074D01*
X151680419Y-113484250D01*
X151687651Y-113464038D01*
X151696830Y-113444632D01*
X151707866Y-113426219D01*
X151720654Y-113408976D01*
X151735070Y-113393070D01*
X151750976Y-113378654D01*
X151768219Y-113365866D01*
X151786632Y-113354830D01*
X151806038Y-113345651D01*
X151826250Y-113338419D01*
X151847074Y-113333203D01*
X151868309Y-113330053D01*
X151889750Y-113329000D01*
X152402250Y-113329000D01*
X152423691Y-113330053D01*
X152423691Y-113330053D01*
G37*
D13*
X152146000Y-113766500D03*
D11*
G36*
X152423691Y-114905053D02*
X152444926Y-114908203D01*
X152465750Y-114913419D01*
X152485962Y-114920651D01*
X152505368Y-114929830D01*
X152523781Y-114940866D01*
X152541024Y-114953654D01*
X152556930Y-114968070D01*
X152571346Y-114983976D01*
X152584134Y-115001219D01*
X152595170Y-115019632D01*
X152604349Y-115039038D01*
X152611581Y-115059250D01*
X152616797Y-115080074D01*
X152619947Y-115101309D01*
X152621000Y-115122750D01*
X152621000Y-115560250D01*
X152619947Y-115581691D01*
X152616797Y-115602926D01*
X152611581Y-115623750D01*
X152604349Y-115643962D01*
X152595170Y-115663368D01*
X152584134Y-115681781D01*
X152571346Y-115699024D01*
X152556930Y-115714930D01*
X152541024Y-115729346D01*
X152523781Y-115742134D01*
X152505368Y-115753170D01*
X152485962Y-115762349D01*
X152465750Y-115769581D01*
X152444926Y-115774797D01*
X152423691Y-115777947D01*
X152402250Y-115779000D01*
X151889750Y-115779000D01*
X151868309Y-115777947D01*
X151847074Y-115774797D01*
X151826250Y-115769581D01*
X151806038Y-115762349D01*
X151786632Y-115753170D01*
X151768219Y-115742134D01*
X151750976Y-115729346D01*
X151735070Y-115714930D01*
X151720654Y-115699024D01*
X151707866Y-115681781D01*
X151696830Y-115663368D01*
X151687651Y-115643962D01*
X151680419Y-115623750D01*
X151675203Y-115602926D01*
X151672053Y-115581691D01*
X151671000Y-115560250D01*
X151671000Y-115122750D01*
X151672053Y-115101309D01*
X151675203Y-115080074D01*
X151680419Y-115059250D01*
X151687651Y-115039038D01*
X151696830Y-115019632D01*
X151707866Y-115001219D01*
X151720654Y-114983976D01*
X151735070Y-114968070D01*
X151750976Y-114953654D01*
X151768219Y-114940866D01*
X151786632Y-114929830D01*
X151806038Y-114920651D01*
X151826250Y-114913419D01*
X151847074Y-114908203D01*
X151868309Y-114905053D01*
X151889750Y-114904000D01*
X152402250Y-114904000D01*
X152423691Y-114905053D01*
X152423691Y-114905053D01*
G37*
D13*
X152146000Y-115341500D03*
G04 #@! TD*
D11*
G04 #@! TO.C,D3*
G36*
X148613691Y-113330053D02*
X148634926Y-113333203D01*
X148655750Y-113338419D01*
X148675962Y-113345651D01*
X148695368Y-113354830D01*
X148713781Y-113365866D01*
X148731024Y-113378654D01*
X148746930Y-113393070D01*
X148761346Y-113408976D01*
X148774134Y-113426219D01*
X148785170Y-113444632D01*
X148794349Y-113464038D01*
X148801581Y-113484250D01*
X148806797Y-113505074D01*
X148809947Y-113526309D01*
X148811000Y-113547750D01*
X148811000Y-113985250D01*
X148809947Y-114006691D01*
X148806797Y-114027926D01*
X148801581Y-114048750D01*
X148794349Y-114068962D01*
X148785170Y-114088368D01*
X148774134Y-114106781D01*
X148761346Y-114124024D01*
X148746930Y-114139930D01*
X148731024Y-114154346D01*
X148713781Y-114167134D01*
X148695368Y-114178170D01*
X148675962Y-114187349D01*
X148655750Y-114194581D01*
X148634926Y-114199797D01*
X148613691Y-114202947D01*
X148592250Y-114204000D01*
X148079750Y-114204000D01*
X148058309Y-114202947D01*
X148037074Y-114199797D01*
X148016250Y-114194581D01*
X147996038Y-114187349D01*
X147976632Y-114178170D01*
X147958219Y-114167134D01*
X147940976Y-114154346D01*
X147925070Y-114139930D01*
X147910654Y-114124024D01*
X147897866Y-114106781D01*
X147886830Y-114088368D01*
X147877651Y-114068962D01*
X147870419Y-114048750D01*
X147865203Y-114027926D01*
X147862053Y-114006691D01*
X147861000Y-113985250D01*
X147861000Y-113547750D01*
X147862053Y-113526309D01*
X147865203Y-113505074D01*
X147870419Y-113484250D01*
X147877651Y-113464038D01*
X147886830Y-113444632D01*
X147897866Y-113426219D01*
X147910654Y-113408976D01*
X147925070Y-113393070D01*
X147940976Y-113378654D01*
X147958219Y-113365866D01*
X147976632Y-113354830D01*
X147996038Y-113345651D01*
X148016250Y-113338419D01*
X148037074Y-113333203D01*
X148058309Y-113330053D01*
X148079750Y-113329000D01*
X148592250Y-113329000D01*
X148613691Y-113330053D01*
X148613691Y-113330053D01*
G37*
D13*
X148336000Y-113766500D03*
D11*
G36*
X148613691Y-114905053D02*
X148634926Y-114908203D01*
X148655750Y-114913419D01*
X148675962Y-114920651D01*
X148695368Y-114929830D01*
X148713781Y-114940866D01*
X148731024Y-114953654D01*
X148746930Y-114968070D01*
X148761346Y-114983976D01*
X148774134Y-115001219D01*
X148785170Y-115019632D01*
X148794349Y-115039038D01*
X148801581Y-115059250D01*
X148806797Y-115080074D01*
X148809947Y-115101309D01*
X148811000Y-115122750D01*
X148811000Y-115560250D01*
X148809947Y-115581691D01*
X148806797Y-115602926D01*
X148801581Y-115623750D01*
X148794349Y-115643962D01*
X148785170Y-115663368D01*
X148774134Y-115681781D01*
X148761346Y-115699024D01*
X148746930Y-115714930D01*
X148731024Y-115729346D01*
X148713781Y-115742134D01*
X148695368Y-115753170D01*
X148675962Y-115762349D01*
X148655750Y-115769581D01*
X148634926Y-115774797D01*
X148613691Y-115777947D01*
X148592250Y-115779000D01*
X148079750Y-115779000D01*
X148058309Y-115777947D01*
X148037074Y-115774797D01*
X148016250Y-115769581D01*
X147996038Y-115762349D01*
X147976632Y-115753170D01*
X147958219Y-115742134D01*
X147940976Y-115729346D01*
X147925070Y-115714930D01*
X147910654Y-115699024D01*
X147897866Y-115681781D01*
X147886830Y-115663368D01*
X147877651Y-115643962D01*
X147870419Y-115623750D01*
X147865203Y-115602926D01*
X147862053Y-115581691D01*
X147861000Y-115560250D01*
X147861000Y-115122750D01*
X147862053Y-115101309D01*
X147865203Y-115080074D01*
X147870419Y-115059250D01*
X147877651Y-115039038D01*
X147886830Y-115019632D01*
X147897866Y-115001219D01*
X147910654Y-114983976D01*
X147925070Y-114968070D01*
X147940976Y-114953654D01*
X147958219Y-114940866D01*
X147976632Y-114929830D01*
X147996038Y-114920651D01*
X148016250Y-114913419D01*
X148037074Y-114908203D01*
X148058309Y-114905053D01*
X148079750Y-114904000D01*
X148592250Y-114904000D01*
X148613691Y-114905053D01*
X148613691Y-114905053D01*
G37*
D13*
X148336000Y-115341500D03*
G04 #@! TD*
D11*
G04 #@! TO.C,D2*
G36*
X156233691Y-113330053D02*
X156254926Y-113333203D01*
X156275750Y-113338419D01*
X156295962Y-113345651D01*
X156315368Y-113354830D01*
X156333781Y-113365866D01*
X156351024Y-113378654D01*
X156366930Y-113393070D01*
X156381346Y-113408976D01*
X156394134Y-113426219D01*
X156405170Y-113444632D01*
X156414349Y-113464038D01*
X156421581Y-113484250D01*
X156426797Y-113505074D01*
X156429947Y-113526309D01*
X156431000Y-113547750D01*
X156431000Y-113985250D01*
X156429947Y-114006691D01*
X156426797Y-114027926D01*
X156421581Y-114048750D01*
X156414349Y-114068962D01*
X156405170Y-114088368D01*
X156394134Y-114106781D01*
X156381346Y-114124024D01*
X156366930Y-114139930D01*
X156351024Y-114154346D01*
X156333781Y-114167134D01*
X156315368Y-114178170D01*
X156295962Y-114187349D01*
X156275750Y-114194581D01*
X156254926Y-114199797D01*
X156233691Y-114202947D01*
X156212250Y-114204000D01*
X155699750Y-114204000D01*
X155678309Y-114202947D01*
X155657074Y-114199797D01*
X155636250Y-114194581D01*
X155616038Y-114187349D01*
X155596632Y-114178170D01*
X155578219Y-114167134D01*
X155560976Y-114154346D01*
X155545070Y-114139930D01*
X155530654Y-114124024D01*
X155517866Y-114106781D01*
X155506830Y-114088368D01*
X155497651Y-114068962D01*
X155490419Y-114048750D01*
X155485203Y-114027926D01*
X155482053Y-114006691D01*
X155481000Y-113985250D01*
X155481000Y-113547750D01*
X155482053Y-113526309D01*
X155485203Y-113505074D01*
X155490419Y-113484250D01*
X155497651Y-113464038D01*
X155506830Y-113444632D01*
X155517866Y-113426219D01*
X155530654Y-113408976D01*
X155545070Y-113393070D01*
X155560976Y-113378654D01*
X155578219Y-113365866D01*
X155596632Y-113354830D01*
X155616038Y-113345651D01*
X155636250Y-113338419D01*
X155657074Y-113333203D01*
X155678309Y-113330053D01*
X155699750Y-113329000D01*
X156212250Y-113329000D01*
X156233691Y-113330053D01*
X156233691Y-113330053D01*
G37*
D13*
X155956000Y-113766500D03*
D11*
G36*
X156233691Y-114905053D02*
X156254926Y-114908203D01*
X156275750Y-114913419D01*
X156295962Y-114920651D01*
X156315368Y-114929830D01*
X156333781Y-114940866D01*
X156351024Y-114953654D01*
X156366930Y-114968070D01*
X156381346Y-114983976D01*
X156394134Y-115001219D01*
X156405170Y-115019632D01*
X156414349Y-115039038D01*
X156421581Y-115059250D01*
X156426797Y-115080074D01*
X156429947Y-115101309D01*
X156431000Y-115122750D01*
X156431000Y-115560250D01*
X156429947Y-115581691D01*
X156426797Y-115602926D01*
X156421581Y-115623750D01*
X156414349Y-115643962D01*
X156405170Y-115663368D01*
X156394134Y-115681781D01*
X156381346Y-115699024D01*
X156366930Y-115714930D01*
X156351024Y-115729346D01*
X156333781Y-115742134D01*
X156315368Y-115753170D01*
X156295962Y-115762349D01*
X156275750Y-115769581D01*
X156254926Y-115774797D01*
X156233691Y-115777947D01*
X156212250Y-115779000D01*
X155699750Y-115779000D01*
X155678309Y-115777947D01*
X155657074Y-115774797D01*
X155636250Y-115769581D01*
X155616038Y-115762349D01*
X155596632Y-115753170D01*
X155578219Y-115742134D01*
X155560976Y-115729346D01*
X155545070Y-115714930D01*
X155530654Y-115699024D01*
X155517866Y-115681781D01*
X155506830Y-115663368D01*
X155497651Y-115643962D01*
X155490419Y-115623750D01*
X155485203Y-115602926D01*
X155482053Y-115581691D01*
X155481000Y-115560250D01*
X155481000Y-115122750D01*
X155482053Y-115101309D01*
X155485203Y-115080074D01*
X155490419Y-115059250D01*
X155497651Y-115039038D01*
X155506830Y-115019632D01*
X155517866Y-115001219D01*
X155530654Y-114983976D01*
X155545070Y-114968070D01*
X155560976Y-114953654D01*
X155578219Y-114940866D01*
X155596632Y-114929830D01*
X155616038Y-114920651D01*
X155636250Y-114913419D01*
X155657074Y-114908203D01*
X155678309Y-114905053D01*
X155699750Y-114904000D01*
X156212250Y-114904000D01*
X156233691Y-114905053D01*
X156233691Y-114905053D01*
G37*
D13*
X155956000Y-115341500D03*
G04 #@! TD*
D11*
G04 #@! TO.C,C9*
G36*
X146490958Y-108948710D02*
X146505276Y-108950834D01*
X146519317Y-108954351D01*
X146532946Y-108959228D01*
X146546031Y-108965417D01*
X146558447Y-108972858D01*
X146570073Y-108981481D01*
X146580798Y-108991202D01*
X146590519Y-109001927D01*
X146599142Y-109013553D01*
X146606583Y-109025969D01*
X146612772Y-109039054D01*
X146617649Y-109052683D01*
X146621166Y-109066724D01*
X146623290Y-109081042D01*
X146624000Y-109095500D01*
X146624000Y-109390500D01*
X146623290Y-109404958D01*
X146621166Y-109419276D01*
X146617649Y-109433317D01*
X146612772Y-109446946D01*
X146606583Y-109460031D01*
X146599142Y-109472447D01*
X146590519Y-109484073D01*
X146580798Y-109494798D01*
X146570073Y-109504519D01*
X146558447Y-109513142D01*
X146546031Y-109520583D01*
X146532946Y-109526772D01*
X146519317Y-109531649D01*
X146505276Y-109535166D01*
X146490958Y-109537290D01*
X146476500Y-109538000D01*
X146131500Y-109538000D01*
X146117042Y-109537290D01*
X146102724Y-109535166D01*
X146088683Y-109531649D01*
X146075054Y-109526772D01*
X146061969Y-109520583D01*
X146049553Y-109513142D01*
X146037927Y-109504519D01*
X146027202Y-109494798D01*
X146017481Y-109484073D01*
X146008858Y-109472447D01*
X146001417Y-109460031D01*
X145995228Y-109446946D01*
X145990351Y-109433317D01*
X145986834Y-109419276D01*
X145984710Y-109404958D01*
X145984000Y-109390500D01*
X145984000Y-109095500D01*
X145984710Y-109081042D01*
X145986834Y-109066724D01*
X145990351Y-109052683D01*
X145995228Y-109039054D01*
X146001417Y-109025969D01*
X146008858Y-109013553D01*
X146017481Y-109001927D01*
X146027202Y-108991202D01*
X146037927Y-108981481D01*
X146049553Y-108972858D01*
X146061969Y-108965417D01*
X146075054Y-108959228D01*
X146088683Y-108954351D01*
X146102724Y-108950834D01*
X146117042Y-108948710D01*
X146131500Y-108948000D01*
X146476500Y-108948000D01*
X146490958Y-108948710D01*
X146490958Y-108948710D01*
G37*
D12*
X146304000Y-109243000D03*
D11*
G36*
X146490958Y-109918710D02*
X146505276Y-109920834D01*
X146519317Y-109924351D01*
X146532946Y-109929228D01*
X146546031Y-109935417D01*
X146558447Y-109942858D01*
X146570073Y-109951481D01*
X146580798Y-109961202D01*
X146590519Y-109971927D01*
X146599142Y-109983553D01*
X146606583Y-109995969D01*
X146612772Y-110009054D01*
X146617649Y-110022683D01*
X146621166Y-110036724D01*
X146623290Y-110051042D01*
X146624000Y-110065500D01*
X146624000Y-110360500D01*
X146623290Y-110374958D01*
X146621166Y-110389276D01*
X146617649Y-110403317D01*
X146612772Y-110416946D01*
X146606583Y-110430031D01*
X146599142Y-110442447D01*
X146590519Y-110454073D01*
X146580798Y-110464798D01*
X146570073Y-110474519D01*
X146558447Y-110483142D01*
X146546031Y-110490583D01*
X146532946Y-110496772D01*
X146519317Y-110501649D01*
X146505276Y-110505166D01*
X146490958Y-110507290D01*
X146476500Y-110508000D01*
X146131500Y-110508000D01*
X146117042Y-110507290D01*
X146102724Y-110505166D01*
X146088683Y-110501649D01*
X146075054Y-110496772D01*
X146061969Y-110490583D01*
X146049553Y-110483142D01*
X146037927Y-110474519D01*
X146027202Y-110464798D01*
X146017481Y-110454073D01*
X146008858Y-110442447D01*
X146001417Y-110430031D01*
X145995228Y-110416946D01*
X145990351Y-110403317D01*
X145986834Y-110389276D01*
X145984710Y-110374958D01*
X145984000Y-110360500D01*
X145984000Y-110065500D01*
X145984710Y-110051042D01*
X145986834Y-110036724D01*
X145990351Y-110022683D01*
X145995228Y-110009054D01*
X146001417Y-109995969D01*
X146008858Y-109983553D01*
X146017481Y-109971927D01*
X146027202Y-109961202D01*
X146037927Y-109951481D01*
X146049553Y-109942858D01*
X146061969Y-109935417D01*
X146075054Y-109929228D01*
X146088683Y-109924351D01*
X146102724Y-109920834D01*
X146117042Y-109918710D01*
X146131500Y-109918000D01*
X146476500Y-109918000D01*
X146490958Y-109918710D01*
X146490958Y-109918710D01*
G37*
D12*
X146304000Y-110213000D03*
G04 #@! TD*
D11*
G04 #@! TO.C,C8*
G36*
X122360958Y-124523710D02*
X122375276Y-124525834D01*
X122389317Y-124529351D01*
X122402946Y-124534228D01*
X122416031Y-124540417D01*
X122428447Y-124547858D01*
X122440073Y-124556481D01*
X122450798Y-124566202D01*
X122460519Y-124576927D01*
X122469142Y-124588553D01*
X122476583Y-124600969D01*
X122482772Y-124614054D01*
X122487649Y-124627683D01*
X122491166Y-124641724D01*
X122493290Y-124656042D01*
X122494000Y-124670500D01*
X122494000Y-124965500D01*
X122493290Y-124979958D01*
X122491166Y-124994276D01*
X122487649Y-125008317D01*
X122482772Y-125021946D01*
X122476583Y-125035031D01*
X122469142Y-125047447D01*
X122460519Y-125059073D01*
X122450798Y-125069798D01*
X122440073Y-125079519D01*
X122428447Y-125088142D01*
X122416031Y-125095583D01*
X122402946Y-125101772D01*
X122389317Y-125106649D01*
X122375276Y-125110166D01*
X122360958Y-125112290D01*
X122346500Y-125113000D01*
X122001500Y-125113000D01*
X121987042Y-125112290D01*
X121972724Y-125110166D01*
X121958683Y-125106649D01*
X121945054Y-125101772D01*
X121931969Y-125095583D01*
X121919553Y-125088142D01*
X121907927Y-125079519D01*
X121897202Y-125069798D01*
X121887481Y-125059073D01*
X121878858Y-125047447D01*
X121871417Y-125035031D01*
X121865228Y-125021946D01*
X121860351Y-125008317D01*
X121856834Y-124994276D01*
X121854710Y-124979958D01*
X121854000Y-124965500D01*
X121854000Y-124670500D01*
X121854710Y-124656042D01*
X121856834Y-124641724D01*
X121860351Y-124627683D01*
X121865228Y-124614054D01*
X121871417Y-124600969D01*
X121878858Y-124588553D01*
X121887481Y-124576927D01*
X121897202Y-124566202D01*
X121907927Y-124556481D01*
X121919553Y-124547858D01*
X121931969Y-124540417D01*
X121945054Y-124534228D01*
X121958683Y-124529351D01*
X121972724Y-124525834D01*
X121987042Y-124523710D01*
X122001500Y-124523000D01*
X122346500Y-124523000D01*
X122360958Y-124523710D01*
X122360958Y-124523710D01*
G37*
D12*
X122174000Y-124818000D03*
D11*
G36*
X122360958Y-123553710D02*
X122375276Y-123555834D01*
X122389317Y-123559351D01*
X122402946Y-123564228D01*
X122416031Y-123570417D01*
X122428447Y-123577858D01*
X122440073Y-123586481D01*
X122450798Y-123596202D01*
X122460519Y-123606927D01*
X122469142Y-123618553D01*
X122476583Y-123630969D01*
X122482772Y-123644054D01*
X122487649Y-123657683D01*
X122491166Y-123671724D01*
X122493290Y-123686042D01*
X122494000Y-123700500D01*
X122494000Y-123995500D01*
X122493290Y-124009958D01*
X122491166Y-124024276D01*
X122487649Y-124038317D01*
X122482772Y-124051946D01*
X122476583Y-124065031D01*
X122469142Y-124077447D01*
X122460519Y-124089073D01*
X122450798Y-124099798D01*
X122440073Y-124109519D01*
X122428447Y-124118142D01*
X122416031Y-124125583D01*
X122402946Y-124131772D01*
X122389317Y-124136649D01*
X122375276Y-124140166D01*
X122360958Y-124142290D01*
X122346500Y-124143000D01*
X122001500Y-124143000D01*
X121987042Y-124142290D01*
X121972724Y-124140166D01*
X121958683Y-124136649D01*
X121945054Y-124131772D01*
X121931969Y-124125583D01*
X121919553Y-124118142D01*
X121907927Y-124109519D01*
X121897202Y-124099798D01*
X121887481Y-124089073D01*
X121878858Y-124077447D01*
X121871417Y-124065031D01*
X121865228Y-124051946D01*
X121860351Y-124038317D01*
X121856834Y-124024276D01*
X121854710Y-124009958D01*
X121854000Y-123995500D01*
X121854000Y-123700500D01*
X121854710Y-123686042D01*
X121856834Y-123671724D01*
X121860351Y-123657683D01*
X121865228Y-123644054D01*
X121871417Y-123630969D01*
X121878858Y-123618553D01*
X121887481Y-123606927D01*
X121897202Y-123596202D01*
X121907927Y-123586481D01*
X121919553Y-123577858D01*
X121931969Y-123570417D01*
X121945054Y-123564228D01*
X121958683Y-123559351D01*
X121972724Y-123555834D01*
X121987042Y-123553710D01*
X122001500Y-123553000D01*
X122346500Y-123553000D01*
X122360958Y-123553710D01*
X122360958Y-123553710D01*
G37*
D12*
X122174000Y-123848000D03*
G04 #@! TD*
D11*
G04 #@! TO.C,C7*
G36*
X120582958Y-124523710D02*
X120597276Y-124525834D01*
X120611317Y-124529351D01*
X120624946Y-124534228D01*
X120638031Y-124540417D01*
X120650447Y-124547858D01*
X120662073Y-124556481D01*
X120672798Y-124566202D01*
X120682519Y-124576927D01*
X120691142Y-124588553D01*
X120698583Y-124600969D01*
X120704772Y-124614054D01*
X120709649Y-124627683D01*
X120713166Y-124641724D01*
X120715290Y-124656042D01*
X120716000Y-124670500D01*
X120716000Y-124965500D01*
X120715290Y-124979958D01*
X120713166Y-124994276D01*
X120709649Y-125008317D01*
X120704772Y-125021946D01*
X120698583Y-125035031D01*
X120691142Y-125047447D01*
X120682519Y-125059073D01*
X120672798Y-125069798D01*
X120662073Y-125079519D01*
X120650447Y-125088142D01*
X120638031Y-125095583D01*
X120624946Y-125101772D01*
X120611317Y-125106649D01*
X120597276Y-125110166D01*
X120582958Y-125112290D01*
X120568500Y-125113000D01*
X120223500Y-125113000D01*
X120209042Y-125112290D01*
X120194724Y-125110166D01*
X120180683Y-125106649D01*
X120167054Y-125101772D01*
X120153969Y-125095583D01*
X120141553Y-125088142D01*
X120129927Y-125079519D01*
X120119202Y-125069798D01*
X120109481Y-125059073D01*
X120100858Y-125047447D01*
X120093417Y-125035031D01*
X120087228Y-125021946D01*
X120082351Y-125008317D01*
X120078834Y-124994276D01*
X120076710Y-124979958D01*
X120076000Y-124965500D01*
X120076000Y-124670500D01*
X120076710Y-124656042D01*
X120078834Y-124641724D01*
X120082351Y-124627683D01*
X120087228Y-124614054D01*
X120093417Y-124600969D01*
X120100858Y-124588553D01*
X120109481Y-124576927D01*
X120119202Y-124566202D01*
X120129927Y-124556481D01*
X120141553Y-124547858D01*
X120153969Y-124540417D01*
X120167054Y-124534228D01*
X120180683Y-124529351D01*
X120194724Y-124525834D01*
X120209042Y-124523710D01*
X120223500Y-124523000D01*
X120568500Y-124523000D01*
X120582958Y-124523710D01*
X120582958Y-124523710D01*
G37*
D12*
X120396000Y-124818000D03*
D11*
G36*
X120582958Y-123553710D02*
X120597276Y-123555834D01*
X120611317Y-123559351D01*
X120624946Y-123564228D01*
X120638031Y-123570417D01*
X120650447Y-123577858D01*
X120662073Y-123586481D01*
X120672798Y-123596202D01*
X120682519Y-123606927D01*
X120691142Y-123618553D01*
X120698583Y-123630969D01*
X120704772Y-123644054D01*
X120709649Y-123657683D01*
X120713166Y-123671724D01*
X120715290Y-123686042D01*
X120716000Y-123700500D01*
X120716000Y-123995500D01*
X120715290Y-124009958D01*
X120713166Y-124024276D01*
X120709649Y-124038317D01*
X120704772Y-124051946D01*
X120698583Y-124065031D01*
X120691142Y-124077447D01*
X120682519Y-124089073D01*
X120672798Y-124099798D01*
X120662073Y-124109519D01*
X120650447Y-124118142D01*
X120638031Y-124125583D01*
X120624946Y-124131772D01*
X120611317Y-124136649D01*
X120597276Y-124140166D01*
X120582958Y-124142290D01*
X120568500Y-124143000D01*
X120223500Y-124143000D01*
X120209042Y-124142290D01*
X120194724Y-124140166D01*
X120180683Y-124136649D01*
X120167054Y-124131772D01*
X120153969Y-124125583D01*
X120141553Y-124118142D01*
X120129927Y-124109519D01*
X120119202Y-124099798D01*
X120109481Y-124089073D01*
X120100858Y-124077447D01*
X120093417Y-124065031D01*
X120087228Y-124051946D01*
X120082351Y-124038317D01*
X120078834Y-124024276D01*
X120076710Y-124009958D01*
X120076000Y-123995500D01*
X120076000Y-123700500D01*
X120076710Y-123686042D01*
X120078834Y-123671724D01*
X120082351Y-123657683D01*
X120087228Y-123644054D01*
X120093417Y-123630969D01*
X120100858Y-123618553D01*
X120109481Y-123606927D01*
X120119202Y-123596202D01*
X120129927Y-123586481D01*
X120141553Y-123577858D01*
X120153969Y-123570417D01*
X120167054Y-123564228D01*
X120180683Y-123559351D01*
X120194724Y-123555834D01*
X120209042Y-123553710D01*
X120223500Y-123553000D01*
X120568500Y-123553000D01*
X120582958Y-123553710D01*
X120582958Y-123553710D01*
G37*
D12*
X120396000Y-123848000D03*
G04 #@! TD*
D11*
G04 #@! TO.C,C2*
G36*
X158174958Y-115074910D02*
X158189276Y-115077034D01*
X158203317Y-115080551D01*
X158216946Y-115085428D01*
X158230031Y-115091617D01*
X158242447Y-115099058D01*
X158254073Y-115107681D01*
X158264798Y-115117402D01*
X158274519Y-115128127D01*
X158283142Y-115139753D01*
X158290583Y-115152169D01*
X158296772Y-115165254D01*
X158301649Y-115178883D01*
X158305166Y-115192924D01*
X158307290Y-115207242D01*
X158308000Y-115221700D01*
X158308000Y-115516700D01*
X158307290Y-115531158D01*
X158305166Y-115545476D01*
X158301649Y-115559517D01*
X158296772Y-115573146D01*
X158290583Y-115586231D01*
X158283142Y-115598647D01*
X158274519Y-115610273D01*
X158264798Y-115620998D01*
X158254073Y-115630719D01*
X158242447Y-115639342D01*
X158230031Y-115646783D01*
X158216946Y-115652972D01*
X158203317Y-115657849D01*
X158189276Y-115661366D01*
X158174958Y-115663490D01*
X158160500Y-115664200D01*
X157815500Y-115664200D01*
X157801042Y-115663490D01*
X157786724Y-115661366D01*
X157772683Y-115657849D01*
X157759054Y-115652972D01*
X157745969Y-115646783D01*
X157733553Y-115639342D01*
X157721927Y-115630719D01*
X157711202Y-115620998D01*
X157701481Y-115610273D01*
X157692858Y-115598647D01*
X157685417Y-115586231D01*
X157679228Y-115573146D01*
X157674351Y-115559517D01*
X157670834Y-115545476D01*
X157668710Y-115531158D01*
X157668000Y-115516700D01*
X157668000Y-115221700D01*
X157668710Y-115207242D01*
X157670834Y-115192924D01*
X157674351Y-115178883D01*
X157679228Y-115165254D01*
X157685417Y-115152169D01*
X157692858Y-115139753D01*
X157701481Y-115128127D01*
X157711202Y-115117402D01*
X157721927Y-115107681D01*
X157733553Y-115099058D01*
X157745969Y-115091617D01*
X157759054Y-115085428D01*
X157772683Y-115080551D01*
X157786724Y-115077034D01*
X157801042Y-115074910D01*
X157815500Y-115074200D01*
X158160500Y-115074200D01*
X158174958Y-115074910D01*
X158174958Y-115074910D01*
G37*
D12*
X157988000Y-115369200D03*
D11*
G36*
X158174958Y-114104910D02*
X158189276Y-114107034D01*
X158203317Y-114110551D01*
X158216946Y-114115428D01*
X158230031Y-114121617D01*
X158242447Y-114129058D01*
X158254073Y-114137681D01*
X158264798Y-114147402D01*
X158274519Y-114158127D01*
X158283142Y-114169753D01*
X158290583Y-114182169D01*
X158296772Y-114195254D01*
X158301649Y-114208883D01*
X158305166Y-114222924D01*
X158307290Y-114237242D01*
X158308000Y-114251700D01*
X158308000Y-114546700D01*
X158307290Y-114561158D01*
X158305166Y-114575476D01*
X158301649Y-114589517D01*
X158296772Y-114603146D01*
X158290583Y-114616231D01*
X158283142Y-114628647D01*
X158274519Y-114640273D01*
X158264798Y-114650998D01*
X158254073Y-114660719D01*
X158242447Y-114669342D01*
X158230031Y-114676783D01*
X158216946Y-114682972D01*
X158203317Y-114687849D01*
X158189276Y-114691366D01*
X158174958Y-114693490D01*
X158160500Y-114694200D01*
X157815500Y-114694200D01*
X157801042Y-114693490D01*
X157786724Y-114691366D01*
X157772683Y-114687849D01*
X157759054Y-114682972D01*
X157745969Y-114676783D01*
X157733553Y-114669342D01*
X157721927Y-114660719D01*
X157711202Y-114650998D01*
X157701481Y-114640273D01*
X157692858Y-114628647D01*
X157685417Y-114616231D01*
X157679228Y-114603146D01*
X157674351Y-114589517D01*
X157670834Y-114575476D01*
X157668710Y-114561158D01*
X157668000Y-114546700D01*
X157668000Y-114251700D01*
X157668710Y-114237242D01*
X157670834Y-114222924D01*
X157674351Y-114208883D01*
X157679228Y-114195254D01*
X157685417Y-114182169D01*
X157692858Y-114169753D01*
X157701481Y-114158127D01*
X157711202Y-114147402D01*
X157721927Y-114137681D01*
X157733553Y-114129058D01*
X157745969Y-114121617D01*
X157759054Y-114115428D01*
X157772683Y-114110551D01*
X157786724Y-114107034D01*
X157801042Y-114104910D01*
X157815500Y-114104200D01*
X158160500Y-114104200D01*
X158174958Y-114104910D01*
X158174958Y-114104910D01*
G37*
D12*
X157988000Y-114399200D03*
G04 #@! TD*
D24*
G04 #@! TO.C,IC2*
X141351000Y-100399000D03*
X142621000Y-100399000D03*
X143891000Y-100399000D03*
X145161000Y-100399000D03*
X145161000Y-105849000D03*
X143891000Y-105849000D03*
X142621000Y-105849000D03*
X141351000Y-105849000D03*
G04 #@! TD*
M02*
