G04 #@! TF.GenerationSoftware,KiCad,Pcbnew,(6.0.0-rc1-dev-1030-g80d50d98b)*
G04 #@! TF.CreationDate,2019-03-21T09:46:57-06:00*
G04 #@! TF.ProjectId,airmed_board_w3.0,6169726D65645F626F6172645F77332E,rev?*
G04 #@! TF.SameCoordinates,Original*
G04 #@! TF.FileFunction,Soldermask,Bot*
G04 #@! TF.FilePolarity,Negative*
%FSLAX46Y46*%
G04 Gerber Fmt 4.6, Leading zero omitted, Abs format (unit mm)*
G04 Created by KiCad (PCBNEW (6.0.0-rc1-dev-1030-g80d50d98b)) date Thursday, March 21, 2019 at 09:46:57 AM*
%MOMM*%
%LPD*%
G01*
G04 APERTURE LIST*
%ADD10C,0.050000*%
%ADD11C,0.020000*%
G04 APERTURE END LIST*
D10*
X145542000Y-146344640D02*
X46598840Y-146410680D01*
X145542000Y-78851760D02*
X145542000Y-146344640D01*
X46664880Y-78765400D02*
X145542000Y-78851760D01*
X46598840Y-146410680D02*
X46664880Y-78765400D01*
D11*
G36*
X83547520Y-142734600D02*
X81745520Y-142734600D01*
X81745520Y-140932600D01*
X83547520Y-140932600D01*
X83547520Y-142734600D01*
X83547520Y-142734600D01*
G37*
G36*
X80216962Y-140939118D02*
X80283147Y-140945637D01*
X80396373Y-140979984D01*
X80452987Y-140997157D01*
X80591607Y-141071252D01*
X80609511Y-141080822D01*
X80629777Y-141097454D01*
X80746706Y-141193414D01*
X80819013Y-141281522D01*
X80859298Y-141330609D01*
X80859299Y-141330611D01*
X80942963Y-141487133D01*
X80942963Y-141487134D01*
X80994483Y-141656973D01*
X81011879Y-141833600D01*
X80994483Y-142010227D01*
X80960136Y-142123453D01*
X80942963Y-142180067D01*
X80868868Y-142318687D01*
X80859298Y-142336591D01*
X80829968Y-142372329D01*
X80746706Y-142473786D01*
X80645249Y-142557048D01*
X80609511Y-142586378D01*
X80609509Y-142586379D01*
X80452987Y-142670043D01*
X80396373Y-142687216D01*
X80283147Y-142721563D01*
X80216962Y-142728082D01*
X80150780Y-142734600D01*
X80062260Y-142734600D01*
X79996078Y-142728082D01*
X79929893Y-142721563D01*
X79816667Y-142687216D01*
X79760053Y-142670043D01*
X79603531Y-142586379D01*
X79603529Y-142586378D01*
X79567791Y-142557048D01*
X79466334Y-142473786D01*
X79383072Y-142372329D01*
X79353742Y-142336591D01*
X79344172Y-142318687D01*
X79270077Y-142180067D01*
X79252904Y-142123453D01*
X79218557Y-142010227D01*
X79201161Y-141833600D01*
X79218557Y-141656973D01*
X79270077Y-141487134D01*
X79270077Y-141487133D01*
X79353741Y-141330611D01*
X79353742Y-141330609D01*
X79394027Y-141281522D01*
X79466334Y-141193414D01*
X79583263Y-141097454D01*
X79603529Y-141080822D01*
X79621433Y-141071252D01*
X79760053Y-140997157D01*
X79816667Y-140979984D01*
X79929893Y-140945637D01*
X79996078Y-140939118D01*
X80062260Y-140932600D01*
X80150780Y-140932600D01*
X80216962Y-140939118D01*
X80216962Y-140939118D01*
G37*
G36*
X77676962Y-140939118D02*
X77743147Y-140945637D01*
X77856373Y-140979984D01*
X77912987Y-140997157D01*
X78051607Y-141071252D01*
X78069511Y-141080822D01*
X78089777Y-141097454D01*
X78206706Y-141193414D01*
X78279013Y-141281522D01*
X78319298Y-141330609D01*
X78319299Y-141330611D01*
X78402963Y-141487133D01*
X78402963Y-141487134D01*
X78454483Y-141656973D01*
X78471879Y-141833600D01*
X78454483Y-142010227D01*
X78420136Y-142123453D01*
X78402963Y-142180067D01*
X78328868Y-142318687D01*
X78319298Y-142336591D01*
X78289968Y-142372329D01*
X78206706Y-142473786D01*
X78105249Y-142557048D01*
X78069511Y-142586378D01*
X78069509Y-142586379D01*
X77912987Y-142670043D01*
X77856373Y-142687216D01*
X77743147Y-142721563D01*
X77676962Y-142728082D01*
X77610780Y-142734600D01*
X77522260Y-142734600D01*
X77456078Y-142728082D01*
X77389893Y-142721563D01*
X77276667Y-142687216D01*
X77220053Y-142670043D01*
X77063531Y-142586379D01*
X77063529Y-142586378D01*
X77027791Y-142557048D01*
X76926334Y-142473786D01*
X76843072Y-142372329D01*
X76813742Y-142336591D01*
X76804172Y-142318687D01*
X76730077Y-142180067D01*
X76712904Y-142123453D01*
X76678557Y-142010227D01*
X76661161Y-141833600D01*
X76678557Y-141656973D01*
X76730077Y-141487134D01*
X76730077Y-141487133D01*
X76813741Y-141330611D01*
X76813742Y-141330609D01*
X76854027Y-141281522D01*
X76926334Y-141193414D01*
X77043263Y-141097454D01*
X77063529Y-141080822D01*
X77081433Y-141071252D01*
X77220053Y-140997157D01*
X77276667Y-140979984D01*
X77389893Y-140945637D01*
X77456078Y-140939118D01*
X77522260Y-140932600D01*
X77610780Y-140932600D01*
X77676962Y-140939118D01*
X77676962Y-140939118D01*
G37*
G36*
X75136962Y-140939118D02*
X75203147Y-140945637D01*
X75316373Y-140979984D01*
X75372987Y-140997157D01*
X75511607Y-141071252D01*
X75529511Y-141080822D01*
X75549777Y-141097454D01*
X75666706Y-141193414D01*
X75739013Y-141281522D01*
X75779298Y-141330609D01*
X75779299Y-141330611D01*
X75862963Y-141487133D01*
X75862963Y-141487134D01*
X75914483Y-141656973D01*
X75931879Y-141833600D01*
X75914483Y-142010227D01*
X75880136Y-142123453D01*
X75862963Y-142180067D01*
X75788868Y-142318687D01*
X75779298Y-142336591D01*
X75749968Y-142372329D01*
X75666706Y-142473786D01*
X75565249Y-142557048D01*
X75529511Y-142586378D01*
X75529509Y-142586379D01*
X75372987Y-142670043D01*
X75316373Y-142687216D01*
X75203147Y-142721563D01*
X75136962Y-142728082D01*
X75070780Y-142734600D01*
X74982260Y-142734600D01*
X74916078Y-142728082D01*
X74849893Y-142721563D01*
X74736667Y-142687216D01*
X74680053Y-142670043D01*
X74523531Y-142586379D01*
X74523529Y-142586378D01*
X74487791Y-142557048D01*
X74386334Y-142473786D01*
X74303072Y-142372329D01*
X74273742Y-142336591D01*
X74264172Y-142318687D01*
X74190077Y-142180067D01*
X74172904Y-142123453D01*
X74138557Y-142010227D01*
X74121161Y-141833600D01*
X74138557Y-141656973D01*
X74190077Y-141487134D01*
X74190077Y-141487133D01*
X74273741Y-141330611D01*
X74273742Y-141330609D01*
X74314027Y-141281522D01*
X74386334Y-141193414D01*
X74503263Y-141097454D01*
X74523529Y-141080822D01*
X74541433Y-141071252D01*
X74680053Y-140997157D01*
X74736667Y-140979984D01*
X74849893Y-140945637D01*
X74916078Y-140939118D01*
X74982260Y-140932600D01*
X75070780Y-140932600D01*
X75136962Y-140939118D01*
X75136962Y-140939118D01*
G37*
G36*
X72596962Y-140939118D02*
X72663147Y-140945637D01*
X72776373Y-140979984D01*
X72832987Y-140997157D01*
X72971607Y-141071252D01*
X72989511Y-141080822D01*
X73009777Y-141097454D01*
X73126706Y-141193414D01*
X73199013Y-141281522D01*
X73239298Y-141330609D01*
X73239299Y-141330611D01*
X73322963Y-141487133D01*
X73322963Y-141487134D01*
X73374483Y-141656973D01*
X73391879Y-141833600D01*
X73374483Y-142010227D01*
X73340136Y-142123453D01*
X73322963Y-142180067D01*
X73248868Y-142318687D01*
X73239298Y-142336591D01*
X73209968Y-142372329D01*
X73126706Y-142473786D01*
X73025249Y-142557048D01*
X72989511Y-142586378D01*
X72989509Y-142586379D01*
X72832987Y-142670043D01*
X72776373Y-142687216D01*
X72663147Y-142721563D01*
X72596962Y-142728082D01*
X72530780Y-142734600D01*
X72442260Y-142734600D01*
X72376078Y-142728082D01*
X72309893Y-142721563D01*
X72196667Y-142687216D01*
X72140053Y-142670043D01*
X71983531Y-142586379D01*
X71983529Y-142586378D01*
X71947791Y-142557048D01*
X71846334Y-142473786D01*
X71763072Y-142372329D01*
X71733742Y-142336591D01*
X71724172Y-142318687D01*
X71650077Y-142180067D01*
X71632904Y-142123453D01*
X71598557Y-142010227D01*
X71581161Y-141833600D01*
X71598557Y-141656973D01*
X71650077Y-141487134D01*
X71650077Y-141487133D01*
X71733741Y-141330611D01*
X71733742Y-141330609D01*
X71774027Y-141281522D01*
X71846334Y-141193414D01*
X71963263Y-141097454D01*
X71983529Y-141080822D01*
X72001433Y-141071252D01*
X72140053Y-140997157D01*
X72196667Y-140979984D01*
X72309893Y-140945637D01*
X72376078Y-140939118D01*
X72442260Y-140932600D01*
X72530780Y-140932600D01*
X72596962Y-140939118D01*
X72596962Y-140939118D01*
G37*
G36*
X70056962Y-140939118D02*
X70123147Y-140945637D01*
X70236373Y-140979984D01*
X70292987Y-140997157D01*
X70431607Y-141071252D01*
X70449511Y-141080822D01*
X70469777Y-141097454D01*
X70586706Y-141193414D01*
X70659013Y-141281522D01*
X70699298Y-141330609D01*
X70699299Y-141330611D01*
X70782963Y-141487133D01*
X70782963Y-141487134D01*
X70834483Y-141656973D01*
X70851879Y-141833600D01*
X70834483Y-142010227D01*
X70800136Y-142123453D01*
X70782963Y-142180067D01*
X70708868Y-142318687D01*
X70699298Y-142336591D01*
X70669968Y-142372329D01*
X70586706Y-142473786D01*
X70485249Y-142557048D01*
X70449511Y-142586378D01*
X70449509Y-142586379D01*
X70292987Y-142670043D01*
X70236373Y-142687216D01*
X70123147Y-142721563D01*
X70056962Y-142728082D01*
X69990780Y-142734600D01*
X69902260Y-142734600D01*
X69836078Y-142728082D01*
X69769893Y-142721563D01*
X69656667Y-142687216D01*
X69600053Y-142670043D01*
X69443531Y-142586379D01*
X69443529Y-142586378D01*
X69407791Y-142557048D01*
X69306334Y-142473786D01*
X69223072Y-142372329D01*
X69193742Y-142336591D01*
X69184172Y-142318687D01*
X69110077Y-142180067D01*
X69092904Y-142123453D01*
X69058557Y-142010227D01*
X69041161Y-141833600D01*
X69058557Y-141656973D01*
X69110077Y-141487134D01*
X69110077Y-141487133D01*
X69193741Y-141330611D01*
X69193742Y-141330609D01*
X69234027Y-141281522D01*
X69306334Y-141193414D01*
X69423263Y-141097454D01*
X69443529Y-141080822D01*
X69461433Y-141071252D01*
X69600053Y-140997157D01*
X69656667Y-140979984D01*
X69769893Y-140945637D01*
X69836078Y-140939118D01*
X69902260Y-140932600D01*
X69990780Y-140932600D01*
X70056962Y-140939118D01*
X70056962Y-140939118D01*
G37*
G36*
X67516962Y-140939118D02*
X67583147Y-140945637D01*
X67696373Y-140979984D01*
X67752987Y-140997157D01*
X67891607Y-141071252D01*
X67909511Y-141080822D01*
X67929777Y-141097454D01*
X68046706Y-141193414D01*
X68119013Y-141281522D01*
X68159298Y-141330609D01*
X68159299Y-141330611D01*
X68242963Y-141487133D01*
X68242963Y-141487134D01*
X68294483Y-141656973D01*
X68311879Y-141833600D01*
X68294483Y-142010227D01*
X68260136Y-142123453D01*
X68242963Y-142180067D01*
X68168868Y-142318687D01*
X68159298Y-142336591D01*
X68129968Y-142372329D01*
X68046706Y-142473786D01*
X67945249Y-142557048D01*
X67909511Y-142586378D01*
X67909509Y-142586379D01*
X67752987Y-142670043D01*
X67696373Y-142687216D01*
X67583147Y-142721563D01*
X67516962Y-142728082D01*
X67450780Y-142734600D01*
X67362260Y-142734600D01*
X67296078Y-142728082D01*
X67229893Y-142721563D01*
X67116667Y-142687216D01*
X67060053Y-142670043D01*
X66903531Y-142586379D01*
X66903529Y-142586378D01*
X66867791Y-142557048D01*
X66766334Y-142473786D01*
X66683072Y-142372329D01*
X66653742Y-142336591D01*
X66644172Y-142318687D01*
X66570077Y-142180067D01*
X66552904Y-142123453D01*
X66518557Y-142010227D01*
X66501161Y-141833600D01*
X66518557Y-141656973D01*
X66570077Y-141487134D01*
X66570077Y-141487133D01*
X66653741Y-141330611D01*
X66653742Y-141330609D01*
X66694027Y-141281522D01*
X66766334Y-141193414D01*
X66883263Y-141097454D01*
X66903529Y-141080822D01*
X66921433Y-141071252D01*
X67060053Y-140997157D01*
X67116667Y-140979984D01*
X67229893Y-140945637D01*
X67296078Y-140939118D01*
X67362260Y-140932600D01*
X67450780Y-140932600D01*
X67516962Y-140939118D01*
X67516962Y-140939118D01*
G37*
G36*
X64976962Y-140939118D02*
X65043147Y-140945637D01*
X65156373Y-140979984D01*
X65212987Y-140997157D01*
X65351607Y-141071252D01*
X65369511Y-141080822D01*
X65389777Y-141097454D01*
X65506706Y-141193414D01*
X65579013Y-141281522D01*
X65619298Y-141330609D01*
X65619299Y-141330611D01*
X65702963Y-141487133D01*
X65702963Y-141487134D01*
X65754483Y-141656973D01*
X65771879Y-141833600D01*
X65754483Y-142010227D01*
X65720136Y-142123453D01*
X65702963Y-142180067D01*
X65628868Y-142318687D01*
X65619298Y-142336591D01*
X65589968Y-142372329D01*
X65506706Y-142473786D01*
X65405249Y-142557048D01*
X65369511Y-142586378D01*
X65369509Y-142586379D01*
X65212987Y-142670043D01*
X65156373Y-142687216D01*
X65043147Y-142721563D01*
X64976962Y-142728082D01*
X64910780Y-142734600D01*
X64822260Y-142734600D01*
X64756078Y-142728082D01*
X64689893Y-142721563D01*
X64576667Y-142687216D01*
X64520053Y-142670043D01*
X64363531Y-142586379D01*
X64363529Y-142586378D01*
X64327791Y-142557048D01*
X64226334Y-142473786D01*
X64143072Y-142372329D01*
X64113742Y-142336591D01*
X64104172Y-142318687D01*
X64030077Y-142180067D01*
X64012904Y-142123453D01*
X63978557Y-142010227D01*
X63961161Y-141833600D01*
X63978557Y-141656973D01*
X64030077Y-141487134D01*
X64030077Y-141487133D01*
X64113741Y-141330611D01*
X64113742Y-141330609D01*
X64154027Y-141281522D01*
X64226334Y-141193414D01*
X64343263Y-141097454D01*
X64363529Y-141080822D01*
X64381433Y-141071252D01*
X64520053Y-140997157D01*
X64576667Y-140979984D01*
X64689893Y-140945637D01*
X64756078Y-140939118D01*
X64822260Y-140932600D01*
X64910780Y-140932600D01*
X64976962Y-140939118D01*
X64976962Y-140939118D01*
G37*
G36*
X62436962Y-140939118D02*
X62503147Y-140945637D01*
X62616373Y-140979984D01*
X62672987Y-140997157D01*
X62811607Y-141071252D01*
X62829511Y-141080822D01*
X62849777Y-141097454D01*
X62966706Y-141193414D01*
X63039013Y-141281522D01*
X63079298Y-141330609D01*
X63079299Y-141330611D01*
X63162963Y-141487133D01*
X63162963Y-141487134D01*
X63214483Y-141656973D01*
X63231879Y-141833600D01*
X63214483Y-142010227D01*
X63180136Y-142123453D01*
X63162963Y-142180067D01*
X63088868Y-142318687D01*
X63079298Y-142336591D01*
X63049968Y-142372329D01*
X62966706Y-142473786D01*
X62865249Y-142557048D01*
X62829511Y-142586378D01*
X62829509Y-142586379D01*
X62672987Y-142670043D01*
X62616373Y-142687216D01*
X62503147Y-142721563D01*
X62436962Y-142728082D01*
X62370780Y-142734600D01*
X62282260Y-142734600D01*
X62216078Y-142728082D01*
X62149893Y-142721563D01*
X62036667Y-142687216D01*
X61980053Y-142670043D01*
X61823531Y-142586379D01*
X61823529Y-142586378D01*
X61787791Y-142557048D01*
X61686334Y-142473786D01*
X61603072Y-142372329D01*
X61573742Y-142336591D01*
X61564172Y-142318687D01*
X61490077Y-142180067D01*
X61472904Y-142123453D01*
X61438557Y-142010227D01*
X61421161Y-141833600D01*
X61438557Y-141656973D01*
X61490077Y-141487134D01*
X61490077Y-141487133D01*
X61573741Y-141330611D01*
X61573742Y-141330609D01*
X61614027Y-141281522D01*
X61686334Y-141193414D01*
X61803263Y-141097454D01*
X61823529Y-141080822D01*
X61841433Y-141071252D01*
X61980053Y-140997157D01*
X62036667Y-140979984D01*
X62149893Y-140945637D01*
X62216078Y-140939118D01*
X62282260Y-140932600D01*
X62370780Y-140932600D01*
X62436962Y-140939118D01*
X62436962Y-140939118D01*
G37*
G36*
X59896962Y-140939118D02*
X59963147Y-140945637D01*
X60076373Y-140979984D01*
X60132987Y-140997157D01*
X60271607Y-141071252D01*
X60289511Y-141080822D01*
X60309777Y-141097454D01*
X60426706Y-141193414D01*
X60499013Y-141281522D01*
X60539298Y-141330609D01*
X60539299Y-141330611D01*
X60622963Y-141487133D01*
X60622963Y-141487134D01*
X60674483Y-141656973D01*
X60691879Y-141833600D01*
X60674483Y-142010227D01*
X60640136Y-142123453D01*
X60622963Y-142180067D01*
X60548868Y-142318687D01*
X60539298Y-142336591D01*
X60509968Y-142372329D01*
X60426706Y-142473786D01*
X60325249Y-142557048D01*
X60289511Y-142586378D01*
X60289509Y-142586379D01*
X60132987Y-142670043D01*
X60076373Y-142687216D01*
X59963147Y-142721563D01*
X59896962Y-142728082D01*
X59830780Y-142734600D01*
X59742260Y-142734600D01*
X59676078Y-142728082D01*
X59609893Y-142721563D01*
X59496667Y-142687216D01*
X59440053Y-142670043D01*
X59283531Y-142586379D01*
X59283529Y-142586378D01*
X59247791Y-142557048D01*
X59146334Y-142473786D01*
X59063072Y-142372329D01*
X59033742Y-142336591D01*
X59024172Y-142318687D01*
X58950077Y-142180067D01*
X58932904Y-142123453D01*
X58898557Y-142010227D01*
X58881161Y-141833600D01*
X58898557Y-141656973D01*
X58950077Y-141487134D01*
X58950077Y-141487133D01*
X59033741Y-141330611D01*
X59033742Y-141330609D01*
X59074027Y-141281522D01*
X59146334Y-141193414D01*
X59263263Y-141097454D01*
X59283529Y-141080822D01*
X59301433Y-141071252D01*
X59440053Y-140997157D01*
X59496667Y-140979984D01*
X59609893Y-140945637D01*
X59676078Y-140939118D01*
X59742260Y-140932600D01*
X59830780Y-140932600D01*
X59896962Y-140939118D01*
X59896962Y-140939118D01*
G37*
G36*
X57356962Y-140939118D02*
X57423147Y-140945637D01*
X57536373Y-140979984D01*
X57592987Y-140997157D01*
X57731607Y-141071252D01*
X57749511Y-141080822D01*
X57769777Y-141097454D01*
X57886706Y-141193414D01*
X57959013Y-141281522D01*
X57999298Y-141330609D01*
X57999299Y-141330611D01*
X58082963Y-141487133D01*
X58082963Y-141487134D01*
X58134483Y-141656973D01*
X58151879Y-141833600D01*
X58134483Y-142010227D01*
X58100136Y-142123453D01*
X58082963Y-142180067D01*
X58008868Y-142318687D01*
X57999298Y-142336591D01*
X57969968Y-142372329D01*
X57886706Y-142473786D01*
X57785249Y-142557048D01*
X57749511Y-142586378D01*
X57749509Y-142586379D01*
X57592987Y-142670043D01*
X57536373Y-142687216D01*
X57423147Y-142721563D01*
X57356962Y-142728082D01*
X57290780Y-142734600D01*
X57202260Y-142734600D01*
X57136078Y-142728082D01*
X57069893Y-142721563D01*
X56956667Y-142687216D01*
X56900053Y-142670043D01*
X56743531Y-142586379D01*
X56743529Y-142586378D01*
X56707791Y-142557048D01*
X56606334Y-142473786D01*
X56523072Y-142372329D01*
X56493742Y-142336591D01*
X56484172Y-142318687D01*
X56410077Y-142180067D01*
X56392904Y-142123453D01*
X56358557Y-142010227D01*
X56341161Y-141833600D01*
X56358557Y-141656973D01*
X56410077Y-141487134D01*
X56410077Y-141487133D01*
X56493741Y-141330611D01*
X56493742Y-141330609D01*
X56534027Y-141281522D01*
X56606334Y-141193414D01*
X56723263Y-141097454D01*
X56743529Y-141080822D01*
X56761433Y-141071252D01*
X56900053Y-140997157D01*
X56956667Y-140979984D01*
X57069893Y-140945637D01*
X57136078Y-140939118D01*
X57202260Y-140932600D01*
X57290780Y-140932600D01*
X57356962Y-140939118D01*
X57356962Y-140939118D01*
G37*
G36*
X54816962Y-140939118D02*
X54883147Y-140945637D01*
X54996373Y-140979984D01*
X55052987Y-140997157D01*
X55191607Y-141071252D01*
X55209511Y-141080822D01*
X55229777Y-141097454D01*
X55346706Y-141193414D01*
X55419013Y-141281522D01*
X55459298Y-141330609D01*
X55459299Y-141330611D01*
X55542963Y-141487133D01*
X55542963Y-141487134D01*
X55594483Y-141656973D01*
X55611879Y-141833600D01*
X55594483Y-142010227D01*
X55560136Y-142123453D01*
X55542963Y-142180067D01*
X55468868Y-142318687D01*
X55459298Y-142336591D01*
X55429968Y-142372329D01*
X55346706Y-142473786D01*
X55245249Y-142557048D01*
X55209511Y-142586378D01*
X55209509Y-142586379D01*
X55052987Y-142670043D01*
X54996373Y-142687216D01*
X54883147Y-142721563D01*
X54816962Y-142728082D01*
X54750780Y-142734600D01*
X54662260Y-142734600D01*
X54596078Y-142728082D01*
X54529893Y-142721563D01*
X54416667Y-142687216D01*
X54360053Y-142670043D01*
X54203531Y-142586379D01*
X54203529Y-142586378D01*
X54167791Y-142557048D01*
X54066334Y-142473786D01*
X53983072Y-142372329D01*
X53953742Y-142336591D01*
X53944172Y-142318687D01*
X53870077Y-142180067D01*
X53852904Y-142123453D01*
X53818557Y-142010227D01*
X53801161Y-141833600D01*
X53818557Y-141656973D01*
X53870077Y-141487134D01*
X53870077Y-141487133D01*
X53953741Y-141330611D01*
X53953742Y-141330609D01*
X53994027Y-141281522D01*
X54066334Y-141193414D01*
X54183263Y-141097454D01*
X54203529Y-141080822D01*
X54221433Y-141071252D01*
X54360053Y-140997157D01*
X54416667Y-140979984D01*
X54529893Y-140945637D01*
X54596078Y-140939118D01*
X54662260Y-140932600D01*
X54750780Y-140932600D01*
X54816962Y-140939118D01*
X54816962Y-140939118D01*
G37*
G36*
X143134534Y-139654952D02*
X143344002Y-139741716D01*
X143532523Y-139867682D01*
X143692838Y-140027997D01*
X143818804Y-140216518D01*
X143905568Y-140425986D01*
X143949800Y-140648355D01*
X143949800Y-140875085D01*
X143905568Y-141097454D01*
X143818804Y-141306922D01*
X143692838Y-141495443D01*
X143532523Y-141655758D01*
X143344002Y-141781724D01*
X143134534Y-141868488D01*
X142912165Y-141912720D01*
X142685435Y-141912720D01*
X142463066Y-141868488D01*
X142253598Y-141781724D01*
X142065077Y-141655758D01*
X141904762Y-141495443D01*
X141778796Y-141306922D01*
X141692032Y-141097454D01*
X141647800Y-140875085D01*
X141647800Y-140648355D01*
X141692032Y-140425986D01*
X141778796Y-140216518D01*
X141904762Y-140027997D01*
X142065077Y-139867682D01*
X142253598Y-139741716D01*
X142463066Y-139654952D01*
X142685435Y-139610720D01*
X142912165Y-139610720D01*
X143134534Y-139654952D01*
X143134534Y-139654952D01*
G37*
G36*
X49596494Y-139629552D02*
X49805962Y-139716316D01*
X49994483Y-139842282D01*
X50154798Y-140002597D01*
X50280764Y-140191118D01*
X50367528Y-140400586D01*
X50411760Y-140622955D01*
X50411760Y-140849685D01*
X50367528Y-141072054D01*
X50280764Y-141281522D01*
X50154798Y-141470043D01*
X49994483Y-141630358D01*
X49805962Y-141756324D01*
X49596494Y-141843088D01*
X49374125Y-141887320D01*
X49147395Y-141887320D01*
X48925026Y-141843088D01*
X48715558Y-141756324D01*
X48527037Y-141630358D01*
X48366722Y-141470043D01*
X48240756Y-141281522D01*
X48153992Y-141072054D01*
X48109760Y-140849685D01*
X48109760Y-140622955D01*
X48153992Y-140400586D01*
X48240756Y-140191118D01*
X48366722Y-140002597D01*
X48527037Y-139842282D01*
X48715558Y-139716316D01*
X48925026Y-139629552D01*
X49147395Y-139585320D01*
X49374125Y-139585320D01*
X49596494Y-139629552D01*
X49596494Y-139629552D01*
G37*
G36*
X134943522Y-136306490D02*
X135044330Y-136337071D01*
X135137239Y-136386732D01*
X135218676Y-136453564D01*
X135285508Y-136535001D01*
X135335169Y-136627910D01*
X135365750Y-136728718D01*
X135376680Y-136839700D01*
X135376680Y-138153420D01*
X135365750Y-138264402D01*
X135335169Y-138365210D01*
X135285508Y-138458119D01*
X135218676Y-138539556D01*
X135137239Y-138606388D01*
X135044330Y-138656049D01*
X134943522Y-138686630D01*
X134832540Y-138697560D01*
X131318820Y-138697560D01*
X131207838Y-138686630D01*
X131107030Y-138656049D01*
X131014121Y-138606388D01*
X130932684Y-138539556D01*
X130865852Y-138458119D01*
X130816191Y-138365210D01*
X130785610Y-138264402D01*
X130774680Y-138153420D01*
X130774680Y-136839700D01*
X130785610Y-136728718D01*
X130816191Y-136627910D01*
X130865852Y-136535001D01*
X130932684Y-136453564D01*
X131014121Y-136386732D01*
X131107030Y-136337071D01*
X131207838Y-136306490D01*
X131318820Y-136295560D01*
X134832540Y-136295560D01*
X134943522Y-136306490D01*
X134943522Y-136306490D01*
G37*
G36*
X118874006Y-135791837D02*
X118987232Y-135826184D01*
X119043846Y-135843357D01*
X119200369Y-135927021D01*
X119337566Y-136039614D01*
X119416828Y-136136196D01*
X119450158Y-136176809D01*
X119450159Y-136176811D01*
X119533823Y-136333333D01*
X119546915Y-136376491D01*
X119585343Y-136503173D01*
X119591180Y-136562440D01*
X119594872Y-136599919D01*
X119598380Y-136635542D01*
X119598380Y-137024057D01*
X119585343Y-137156426D01*
X119533823Y-137326266D01*
X119450158Y-137482791D01*
X119450157Y-137482792D01*
X119337566Y-137619986D01*
X119242631Y-137697896D01*
X119200371Y-137732578D01*
X119200369Y-137732579D01*
X119043847Y-137816243D01*
X119003114Y-137828599D01*
X118874007Y-137867763D01*
X118697380Y-137885159D01*
X118520754Y-137867763D01*
X118391647Y-137828599D01*
X118350914Y-137816243D01*
X118194392Y-137732579D01*
X118194390Y-137732578D01*
X118057196Y-137619986D01*
X118057192Y-137619983D01*
X117944602Y-137482792D01*
X117860937Y-137326267D01*
X117843764Y-137269653D01*
X117809417Y-137156427D01*
X117797679Y-137037249D01*
X117796380Y-137024060D01*
X117796380Y-136635541D01*
X117807769Y-136519908D01*
X117809417Y-136503174D01*
X117858530Y-136341270D01*
X117860937Y-136333334D01*
X117944601Y-136176811D01*
X118057194Y-136039614D01*
X118158651Y-135956352D01*
X118194389Y-135927022D01*
X118212293Y-135917452D01*
X118350913Y-135843357D01*
X118407527Y-135826184D01*
X118520753Y-135791837D01*
X118697380Y-135774441D01*
X118874006Y-135791837D01*
X118874006Y-135791837D01*
G37*
G36*
X116955980Y-135782789D02*
X116989029Y-135792814D01*
X117019486Y-135809094D01*
X117046179Y-135831001D01*
X117068086Y-135857694D01*
X117084366Y-135888151D01*
X117094391Y-135921200D01*
X117098380Y-135961704D01*
X117098380Y-137697896D01*
X117094391Y-137738400D01*
X117084366Y-137771449D01*
X117068086Y-137801906D01*
X117046179Y-137828599D01*
X117019486Y-137850506D01*
X116989029Y-137866786D01*
X116955980Y-137876811D01*
X116915476Y-137880800D01*
X115479284Y-137880800D01*
X115438780Y-137876811D01*
X115405731Y-137866786D01*
X115375274Y-137850506D01*
X115348581Y-137828599D01*
X115326674Y-137801906D01*
X115310394Y-137771449D01*
X115300369Y-137738400D01*
X115296380Y-137697896D01*
X115296380Y-135961704D01*
X115300369Y-135921200D01*
X115310394Y-135888151D01*
X115326674Y-135857694D01*
X115348581Y-135831001D01*
X115375274Y-135809094D01*
X115405731Y-135792814D01*
X115438780Y-135782789D01*
X115479284Y-135778800D01*
X116915476Y-135778800D01*
X116955980Y-135782789D01*
X116955980Y-135782789D01*
G37*
G36*
X55874200Y-135348589D02*
X55907249Y-135358614D01*
X55937706Y-135374894D01*
X55964399Y-135396801D01*
X55986306Y-135423494D01*
X56002586Y-135453951D01*
X56012611Y-135487000D01*
X56016600Y-135527504D01*
X56016600Y-136963696D01*
X56012611Y-137004200D01*
X56002586Y-137037249D01*
X55986306Y-137067706D01*
X55964399Y-137094399D01*
X55937706Y-137116306D01*
X55907249Y-137132586D01*
X55874200Y-137142611D01*
X55833696Y-137146600D01*
X54097504Y-137146600D01*
X54057000Y-137142611D01*
X54023951Y-137132586D01*
X53993494Y-137116306D01*
X53966801Y-137094399D01*
X53944894Y-137067706D01*
X53928614Y-137037249D01*
X53918589Y-137004200D01*
X53914600Y-136963696D01*
X53914600Y-135527504D01*
X53918589Y-135487000D01*
X53928614Y-135453951D01*
X53944894Y-135423494D01*
X53966801Y-135396801D01*
X53993494Y-135374894D01*
X54023951Y-135358614D01*
X54057000Y-135348589D01*
X54097504Y-135344600D01*
X55833696Y-135344600D01*
X55874200Y-135348589D01*
X55874200Y-135348589D01*
G37*
G36*
X87075746Y-134506597D02*
X87186787Y-134540281D01*
X87245586Y-134558117D01*
X87402109Y-134641781D01*
X87539306Y-134754374D01*
X87622568Y-134855831D01*
X87651898Y-134891569D01*
X87651899Y-134891571D01*
X87735563Y-135048093D01*
X87752736Y-135104707D01*
X87787083Y-135217933D01*
X87787083Y-135217935D01*
X87799581Y-135344823D01*
X87800120Y-135350302D01*
X87800120Y-135738817D01*
X87787083Y-135871186D01*
X87735563Y-136041026D01*
X87651898Y-136197551D01*
X87641887Y-136209749D01*
X87539306Y-136334746D01*
X87444371Y-136412656D01*
X87402111Y-136447338D01*
X87402109Y-136447339D01*
X87245587Y-136531003D01*
X87188973Y-136548176D01*
X87075747Y-136582523D01*
X86899120Y-136599919D01*
X86722494Y-136582523D01*
X86609268Y-136548176D01*
X86552654Y-136531003D01*
X86396132Y-136447339D01*
X86396130Y-136447338D01*
X86286267Y-136357176D01*
X86258932Y-136334743D01*
X86146342Y-136197552D01*
X86062677Y-136041027D01*
X86032756Y-135942389D01*
X86011157Y-135871187D01*
X86002058Y-135778800D01*
X85998120Y-135738820D01*
X85998120Y-135350301D01*
X86011157Y-135217936D01*
X86011157Y-135217934D01*
X86062677Y-135048095D01*
X86062677Y-135048094D01*
X86146341Y-134891571D01*
X86258934Y-134754374D01*
X86367705Y-134665109D01*
X86396129Y-134641782D01*
X86417273Y-134630480D01*
X86552653Y-134558117D01*
X86611452Y-134540281D01*
X86722493Y-134506597D01*
X86899120Y-134489201D01*
X87075746Y-134506597D01*
X87075746Y-134506597D01*
G37*
G36*
X85157720Y-134497549D02*
X85190769Y-134507574D01*
X85221226Y-134523854D01*
X85247919Y-134545761D01*
X85269826Y-134572454D01*
X85286106Y-134602911D01*
X85296131Y-134635960D01*
X85300120Y-134676464D01*
X85300120Y-136412656D01*
X85296131Y-136453160D01*
X85286106Y-136486209D01*
X85269826Y-136516666D01*
X85247919Y-136543359D01*
X85221226Y-136565266D01*
X85190769Y-136581546D01*
X85157720Y-136591571D01*
X85117216Y-136595560D01*
X83681024Y-136595560D01*
X83640520Y-136591571D01*
X83607471Y-136581546D01*
X83577014Y-136565266D01*
X83550321Y-136543359D01*
X83528414Y-136516666D01*
X83512134Y-136486209D01*
X83502109Y-136453160D01*
X83498120Y-136412656D01*
X83498120Y-134676464D01*
X83502109Y-134635960D01*
X83512134Y-134602911D01*
X83528414Y-134572454D01*
X83550321Y-134545761D01*
X83577014Y-134523854D01*
X83607471Y-134507574D01*
X83640520Y-134497549D01*
X83681024Y-134493560D01*
X85117216Y-134493560D01*
X85157720Y-134497549D01*
X85157720Y-134497549D01*
G37*
G36*
X77251666Y-134501117D02*
X77364892Y-134535464D01*
X77421506Y-134552637D01*
X77578029Y-134636301D01*
X77715226Y-134748894D01*
X77774920Y-134821633D01*
X77827818Y-134886089D01*
X77827819Y-134886091D01*
X77911483Y-135042613D01*
X77913146Y-135048095D01*
X77963003Y-135212453D01*
X77963003Y-135212455D01*
X77976040Y-135344820D01*
X77976040Y-135683339D01*
X77969522Y-135749521D01*
X77963003Y-135815706D01*
X77911483Y-135985546D01*
X77827818Y-136142071D01*
X77799309Y-136176809D01*
X77715226Y-136279266D01*
X77620291Y-136357176D01*
X77578031Y-136391858D01*
X77578029Y-136391859D01*
X77421507Y-136475523D01*
X77386279Y-136486209D01*
X77251667Y-136527043D01*
X77075040Y-136544439D01*
X76898414Y-136527043D01*
X76763802Y-136486209D01*
X76728574Y-136475523D01*
X76572052Y-136391859D01*
X76572050Y-136391858D01*
X76477189Y-136314008D01*
X76434852Y-136279263D01*
X76322262Y-136142072D01*
X76238597Y-135985547D01*
X76203907Y-135871187D01*
X76187077Y-135815707D01*
X76174040Y-135683338D01*
X76174040Y-135344823D01*
X76187077Y-135212454D01*
X76221424Y-135099228D01*
X76238597Y-135042614D01*
X76322261Y-134886091D01*
X76434854Y-134748894D01*
X76546647Y-134657149D01*
X76572049Y-134636302D01*
X76618760Y-134611334D01*
X76728573Y-134552637D01*
X76785187Y-134535464D01*
X76898413Y-134501117D01*
X77075040Y-134483721D01*
X77251666Y-134501117D01*
X77251666Y-134501117D01*
G37*
G36*
X74751666Y-134501117D02*
X74864892Y-134535464D01*
X74921506Y-134552637D01*
X75078029Y-134636301D01*
X75215226Y-134748894D01*
X75274920Y-134821633D01*
X75327818Y-134886089D01*
X75327819Y-134886091D01*
X75411483Y-135042613D01*
X75413146Y-135048095D01*
X75463003Y-135212453D01*
X75463003Y-135212455D01*
X75476040Y-135344820D01*
X75476040Y-135683339D01*
X75469522Y-135749521D01*
X75463003Y-135815706D01*
X75411483Y-135985546D01*
X75327818Y-136142071D01*
X75299309Y-136176809D01*
X75215226Y-136279266D01*
X75120291Y-136357176D01*
X75078031Y-136391858D01*
X75078029Y-136391859D01*
X74921507Y-136475523D01*
X74886279Y-136486209D01*
X74751667Y-136527043D01*
X74575040Y-136544439D01*
X74398414Y-136527043D01*
X74263802Y-136486209D01*
X74228574Y-136475523D01*
X74072052Y-136391859D01*
X74072050Y-136391858D01*
X73977189Y-136314008D01*
X73934852Y-136279263D01*
X73822262Y-136142072D01*
X73738597Y-135985547D01*
X73703907Y-135871187D01*
X73687077Y-135815707D01*
X73674040Y-135683338D01*
X73674040Y-135344823D01*
X73687077Y-135212454D01*
X73721424Y-135099228D01*
X73738597Y-135042614D01*
X73822261Y-134886091D01*
X73934854Y-134748894D01*
X74046647Y-134657149D01*
X74072049Y-134636302D01*
X74118760Y-134611334D01*
X74228573Y-134552637D01*
X74285187Y-134535464D01*
X74398413Y-134501117D01*
X74575040Y-134483721D01*
X74751666Y-134501117D01*
X74751666Y-134501117D01*
G37*
G36*
X72833640Y-134492069D02*
X72866689Y-134502094D01*
X72897146Y-134518374D01*
X72923839Y-134540281D01*
X72945746Y-134566974D01*
X72962026Y-134597431D01*
X72972051Y-134630480D01*
X72976040Y-134670984D01*
X72976040Y-136357176D01*
X72972051Y-136397680D01*
X72962026Y-136430729D01*
X72945746Y-136461186D01*
X72923839Y-136487879D01*
X72897146Y-136509786D01*
X72866689Y-136526066D01*
X72833640Y-136536091D01*
X72793136Y-136540080D01*
X71356944Y-136540080D01*
X71316440Y-136536091D01*
X71283391Y-136526066D01*
X71252934Y-136509786D01*
X71226241Y-136487879D01*
X71204334Y-136461186D01*
X71188054Y-136430729D01*
X71178029Y-136397680D01*
X71174040Y-136357176D01*
X71174040Y-134670984D01*
X71178029Y-134630480D01*
X71188054Y-134597431D01*
X71204334Y-134566974D01*
X71226241Y-134540281D01*
X71252934Y-134518374D01*
X71283391Y-134502094D01*
X71316440Y-134492069D01*
X71356944Y-134488080D01*
X72793136Y-134488080D01*
X72833640Y-134492069D01*
X72833640Y-134492069D01*
G37*
G36*
X104780826Y-134280137D02*
X104894052Y-134314484D01*
X104950666Y-134331657D01*
X105107189Y-134415321D01*
X105244386Y-134527914D01*
X105312846Y-134611334D01*
X105356978Y-134665109D01*
X105356979Y-134665111D01*
X105440643Y-134821633D01*
X105457816Y-134878247D01*
X105492163Y-134991473D01*
X105492163Y-134991475D01*
X105505200Y-135123840D01*
X105505200Y-135462359D01*
X105502773Y-135487000D01*
X105492163Y-135594726D01*
X105440643Y-135764566D01*
X105356978Y-135921091D01*
X105339499Y-135942389D01*
X105244386Y-136058286D01*
X105149451Y-136136196D01*
X105107191Y-136170878D01*
X105107189Y-136170879D01*
X104950667Y-136254543D01*
X104909934Y-136266899D01*
X104780827Y-136306063D01*
X104604200Y-136323459D01*
X104427574Y-136306063D01*
X104298467Y-136266899D01*
X104257734Y-136254543D01*
X104101212Y-136170879D01*
X104101210Y-136170878D01*
X103964016Y-136058286D01*
X103964012Y-136058283D01*
X103851422Y-135921092D01*
X103767757Y-135764567D01*
X103750584Y-135707953D01*
X103716237Y-135594727D01*
X103705627Y-135487000D01*
X103703200Y-135462360D01*
X103703200Y-135123841D01*
X103716237Y-134991476D01*
X103716237Y-134991474D01*
X103767757Y-134821635D01*
X103767757Y-134821634D01*
X103851421Y-134665111D01*
X103964014Y-134527914D01*
X104065471Y-134444652D01*
X104101209Y-134415322D01*
X104119113Y-134405752D01*
X104257733Y-134331657D01*
X104314347Y-134314484D01*
X104427573Y-134280137D01*
X104604200Y-134262741D01*
X104780826Y-134280137D01*
X104780826Y-134280137D01*
G37*
G36*
X102280826Y-134280137D02*
X102394052Y-134314484D01*
X102450666Y-134331657D01*
X102607189Y-134415321D01*
X102744386Y-134527914D01*
X102812846Y-134611334D01*
X102856978Y-134665109D01*
X102856979Y-134665111D01*
X102940643Y-134821633D01*
X102957816Y-134878247D01*
X102992163Y-134991473D01*
X102992163Y-134991475D01*
X103005200Y-135123840D01*
X103005200Y-135462359D01*
X103002773Y-135487000D01*
X102992163Y-135594726D01*
X102940643Y-135764566D01*
X102856978Y-135921091D01*
X102839499Y-135942389D01*
X102744386Y-136058286D01*
X102649451Y-136136196D01*
X102607191Y-136170878D01*
X102607189Y-136170879D01*
X102450667Y-136254543D01*
X102409934Y-136266899D01*
X102280827Y-136306063D01*
X102104200Y-136323459D01*
X101927574Y-136306063D01*
X101798467Y-136266899D01*
X101757734Y-136254543D01*
X101601212Y-136170879D01*
X101601210Y-136170878D01*
X101464016Y-136058286D01*
X101464012Y-136058283D01*
X101351422Y-135921092D01*
X101267757Y-135764567D01*
X101250584Y-135707953D01*
X101216237Y-135594727D01*
X101205627Y-135487000D01*
X101203200Y-135462360D01*
X101203200Y-135123841D01*
X101216237Y-134991476D01*
X101216237Y-134991474D01*
X101267757Y-134821635D01*
X101267757Y-134821634D01*
X101351421Y-134665111D01*
X101464014Y-134527914D01*
X101565471Y-134444652D01*
X101601209Y-134415322D01*
X101619113Y-134405752D01*
X101757733Y-134331657D01*
X101814347Y-134314484D01*
X101927573Y-134280137D01*
X102104200Y-134262741D01*
X102280826Y-134280137D01*
X102280826Y-134280137D01*
G37*
G36*
X99780826Y-134280137D02*
X99894052Y-134314484D01*
X99950666Y-134331657D01*
X100107189Y-134415321D01*
X100244386Y-134527914D01*
X100312846Y-134611334D01*
X100356978Y-134665109D01*
X100356979Y-134665111D01*
X100440643Y-134821633D01*
X100457816Y-134878247D01*
X100492163Y-134991473D01*
X100492163Y-134991475D01*
X100505200Y-135123840D01*
X100505200Y-135462359D01*
X100502773Y-135487000D01*
X100492163Y-135594726D01*
X100440643Y-135764566D01*
X100356978Y-135921091D01*
X100339499Y-135942389D01*
X100244386Y-136058286D01*
X100149451Y-136136196D01*
X100107191Y-136170878D01*
X100107189Y-136170879D01*
X99950667Y-136254543D01*
X99909934Y-136266899D01*
X99780827Y-136306063D01*
X99604200Y-136323459D01*
X99427574Y-136306063D01*
X99298467Y-136266899D01*
X99257734Y-136254543D01*
X99101212Y-136170879D01*
X99101210Y-136170878D01*
X98964016Y-136058286D01*
X98964012Y-136058283D01*
X98851422Y-135921092D01*
X98767757Y-135764567D01*
X98750584Y-135707953D01*
X98716237Y-135594727D01*
X98705627Y-135487000D01*
X98703200Y-135462360D01*
X98703200Y-135123841D01*
X98716237Y-134991476D01*
X98716237Y-134991474D01*
X98767757Y-134821635D01*
X98767757Y-134821634D01*
X98851421Y-134665111D01*
X98964014Y-134527914D01*
X99065471Y-134444652D01*
X99101209Y-134415322D01*
X99119113Y-134405752D01*
X99257733Y-134331657D01*
X99314347Y-134314484D01*
X99427573Y-134280137D01*
X99604200Y-134262741D01*
X99780826Y-134280137D01*
X99780826Y-134280137D01*
G37*
G36*
X97862800Y-134271089D02*
X97895849Y-134281114D01*
X97926306Y-134297394D01*
X97952999Y-134319301D01*
X97974906Y-134345994D01*
X97991186Y-134376451D01*
X98001211Y-134409500D01*
X98005200Y-134450004D01*
X98005200Y-136136196D01*
X98001211Y-136176700D01*
X97991186Y-136209749D01*
X97974906Y-136240206D01*
X97952999Y-136266899D01*
X97926306Y-136288806D01*
X97895849Y-136305086D01*
X97862800Y-136315111D01*
X97822296Y-136319100D01*
X96386104Y-136319100D01*
X96345600Y-136315111D01*
X96312551Y-136305086D01*
X96282094Y-136288806D01*
X96255401Y-136266899D01*
X96233494Y-136240206D01*
X96217214Y-136209749D01*
X96207189Y-136176700D01*
X96203200Y-136136196D01*
X96203200Y-134450004D01*
X96207189Y-134409500D01*
X96217214Y-134376451D01*
X96233494Y-134345994D01*
X96255401Y-134319301D01*
X96282094Y-134297394D01*
X96312551Y-134281114D01*
X96345600Y-134271089D01*
X96386104Y-134267100D01*
X97822296Y-134267100D01*
X97862800Y-134271089D01*
X97862800Y-134271089D01*
G37*
G36*
X55226043Y-132851119D02*
X55292227Y-132857637D01*
X55405453Y-132891984D01*
X55462067Y-132909157D01*
X55600687Y-132983252D01*
X55618591Y-132992822D01*
X55654329Y-133022152D01*
X55755786Y-133105414D01*
X55839048Y-133206871D01*
X55868378Y-133242609D01*
X55868379Y-133242611D01*
X55952043Y-133399133D01*
X55952043Y-133399134D01*
X56003563Y-133568973D01*
X56020959Y-133745600D01*
X56003563Y-133922227D01*
X55969216Y-134035453D01*
X55952043Y-134092067D01*
X55877948Y-134230687D01*
X55868378Y-134248591D01*
X55856765Y-134262741D01*
X55755786Y-134385786D01*
X55654329Y-134469048D01*
X55618591Y-134498378D01*
X55618589Y-134498379D01*
X55462067Y-134582043D01*
X55405453Y-134599216D01*
X55292227Y-134633563D01*
X55226043Y-134640081D01*
X55159860Y-134646600D01*
X54771340Y-134646600D01*
X54705157Y-134640081D01*
X54638973Y-134633563D01*
X54525747Y-134599216D01*
X54469133Y-134582043D01*
X54312611Y-134498379D01*
X54312609Y-134498378D01*
X54276871Y-134469048D01*
X54175414Y-134385786D01*
X54074435Y-134262741D01*
X54062822Y-134248591D01*
X54053252Y-134230687D01*
X53979157Y-134092067D01*
X53961984Y-134035453D01*
X53927637Y-133922227D01*
X53910241Y-133745600D01*
X53927637Y-133568973D01*
X53979157Y-133399134D01*
X53979157Y-133399133D01*
X54062821Y-133242611D01*
X54062822Y-133242609D01*
X54092152Y-133206871D01*
X54175414Y-133105414D01*
X54276871Y-133022152D01*
X54312609Y-132992822D01*
X54330513Y-132983252D01*
X54469133Y-132909157D01*
X54525747Y-132891984D01*
X54638973Y-132857637D01*
X54705157Y-132851119D01*
X54771340Y-132844600D01*
X55159860Y-132844600D01*
X55226043Y-132851119D01*
X55226043Y-132851119D01*
G37*
G36*
X135193522Y-130306490D02*
X135294330Y-130337071D01*
X135387239Y-130386732D01*
X135468676Y-130453564D01*
X135535508Y-130535001D01*
X135585169Y-130627910D01*
X135615750Y-130728718D01*
X135626680Y-130839700D01*
X135626680Y-132153420D01*
X135615750Y-132264402D01*
X135585169Y-132365210D01*
X135535508Y-132458119D01*
X135468676Y-132539556D01*
X135387239Y-132606388D01*
X135294330Y-132656049D01*
X135193522Y-132686630D01*
X135082540Y-132697560D01*
X131068820Y-132697560D01*
X130957838Y-132686630D01*
X130857030Y-132656049D01*
X130764121Y-132606388D01*
X130682684Y-132539556D01*
X130615852Y-132458119D01*
X130566191Y-132365210D01*
X130535610Y-132264402D01*
X130524680Y-132153420D01*
X130524680Y-130839700D01*
X130535610Y-130728718D01*
X130566191Y-130627910D01*
X130615852Y-130535001D01*
X130682684Y-130453564D01*
X130764121Y-130386732D01*
X130857030Y-130337071D01*
X130957838Y-130306490D01*
X131068820Y-130295560D01*
X135082540Y-130295560D01*
X135193522Y-130306490D01*
X135193522Y-130306490D01*
G37*
G36*
X84458267Y-126759597D02*
X84564690Y-126791880D01*
X84628107Y-126811117D01*
X84739716Y-126870774D01*
X84784631Y-126894782D01*
X84820369Y-126924112D01*
X84921826Y-127007374D01*
X85005088Y-127108831D01*
X85034418Y-127144569D01*
X85118083Y-127301094D01*
X85169603Y-127470934D01*
X85182640Y-127603303D01*
X85182640Y-127991818D01*
X85169603Y-128124187D01*
X85135256Y-128237413D01*
X85118083Y-128294027D01*
X85043988Y-128432647D01*
X85034418Y-128450551D01*
X85005088Y-128486289D01*
X84921826Y-128587746D01*
X84784629Y-128700339D01*
X84628106Y-128784003D01*
X84571492Y-128801176D01*
X84458266Y-128835523D01*
X84281640Y-128852919D01*
X84105013Y-128835523D01*
X83991787Y-128801176D01*
X83935173Y-128784003D01*
X83778651Y-128700339D01*
X83778649Y-128700338D01*
X83736389Y-128665656D01*
X83641454Y-128587746D01*
X83528861Y-128450549D01*
X83445197Y-128294026D01*
X83428024Y-128237412D01*
X83393677Y-128124186D01*
X83380640Y-127991817D01*
X83380640Y-127603302D01*
X83393677Y-127470933D01*
X83445197Y-127301094D01*
X83445197Y-127301093D01*
X83528862Y-127144568D01*
X83641452Y-127007377D01*
X83704703Y-126955469D01*
X83778650Y-126894782D01*
X83823565Y-126870774D01*
X83935174Y-126811117D01*
X83998591Y-126791880D01*
X84105014Y-126759597D01*
X84281640Y-126742201D01*
X84458267Y-126759597D01*
X84458267Y-126759597D01*
G37*
G36*
X87540240Y-126750549D02*
X87573289Y-126760574D01*
X87603746Y-126776854D01*
X87630439Y-126798761D01*
X87652346Y-126825454D01*
X87668626Y-126855911D01*
X87678651Y-126888960D01*
X87682640Y-126929464D01*
X87682640Y-128665656D01*
X87678651Y-128706160D01*
X87668626Y-128739209D01*
X87652346Y-128769666D01*
X87630439Y-128796359D01*
X87603746Y-128818266D01*
X87573289Y-128834546D01*
X87540240Y-128844571D01*
X87499736Y-128848560D01*
X86063544Y-128848560D01*
X86023040Y-128844571D01*
X85989991Y-128834546D01*
X85959534Y-128818266D01*
X85932841Y-128796359D01*
X85910934Y-128769666D01*
X85894654Y-128739209D01*
X85884629Y-128706160D01*
X85880640Y-128665656D01*
X85880640Y-126929464D01*
X85884629Y-126888960D01*
X85894654Y-126855911D01*
X85910934Y-126825454D01*
X85932841Y-126798761D01*
X85959534Y-126776854D01*
X85989991Y-126760574D01*
X86023040Y-126750549D01*
X86063544Y-126746560D01*
X87499736Y-126746560D01*
X87540240Y-126750549D01*
X87540240Y-126750549D01*
G37*
G36*
X74923107Y-126804917D02*
X75036333Y-126839264D01*
X75092947Y-126856437D01*
X75229569Y-126929464D01*
X75249471Y-126940102D01*
X75273547Y-126959861D01*
X75386666Y-127052694D01*
X75462064Y-127144568D01*
X75499258Y-127189889D01*
X75582923Y-127346414D01*
X75634443Y-127516254D01*
X75634443Y-127516256D01*
X75643017Y-127603303D01*
X75647480Y-127648623D01*
X75647480Y-127987138D01*
X75634443Y-128119507D01*
X75633023Y-128124187D01*
X75582923Y-128289347D01*
X75580421Y-128294027D01*
X75499258Y-128445871D01*
X75495417Y-128450551D01*
X75386666Y-128583066D01*
X75249469Y-128695659D01*
X75092946Y-128779323D01*
X75052213Y-128791679D01*
X74923106Y-128830843D01*
X74746480Y-128848239D01*
X74569853Y-128830843D01*
X74440746Y-128791679D01*
X74400013Y-128779323D01*
X74254381Y-128701480D01*
X74243489Y-128695658D01*
X74201229Y-128660976D01*
X74106294Y-128583066D01*
X73993701Y-128445869D01*
X73910037Y-128289346D01*
X73892864Y-128232732D01*
X73858517Y-128119506D01*
X73845480Y-127987137D01*
X73845480Y-127648622D01*
X73849944Y-127603302D01*
X73858517Y-127516255D01*
X73858517Y-127516253D01*
X73910037Y-127346414D01*
X73910037Y-127346413D01*
X73993702Y-127189888D01*
X74106292Y-127052697D01*
X74219414Y-126959861D01*
X74243490Y-126940102D01*
X74263392Y-126929464D01*
X74400014Y-126856437D01*
X74456628Y-126839264D01*
X74569854Y-126804917D01*
X74746480Y-126787521D01*
X74923107Y-126804917D01*
X74923107Y-126804917D01*
G37*
G36*
X72423107Y-126804917D02*
X72536333Y-126839264D01*
X72592947Y-126856437D01*
X72729569Y-126929464D01*
X72749471Y-126940102D01*
X72773547Y-126959861D01*
X72886666Y-127052694D01*
X72962064Y-127144568D01*
X72999258Y-127189889D01*
X73082923Y-127346414D01*
X73134443Y-127516254D01*
X73134443Y-127516256D01*
X73143017Y-127603303D01*
X73147480Y-127648623D01*
X73147480Y-127987138D01*
X73134443Y-128119507D01*
X73133023Y-128124187D01*
X73082923Y-128289347D01*
X73080421Y-128294027D01*
X72999258Y-128445871D01*
X72995417Y-128450551D01*
X72886666Y-128583066D01*
X72749469Y-128695659D01*
X72592946Y-128779323D01*
X72552213Y-128791679D01*
X72423106Y-128830843D01*
X72246480Y-128848239D01*
X72069853Y-128830843D01*
X71940746Y-128791679D01*
X71900013Y-128779323D01*
X71754381Y-128701480D01*
X71743489Y-128695658D01*
X71701229Y-128660976D01*
X71606294Y-128583066D01*
X71493701Y-128445869D01*
X71410037Y-128289346D01*
X71392864Y-128232732D01*
X71358517Y-128119506D01*
X71345480Y-127987137D01*
X71345480Y-127648622D01*
X71349944Y-127603302D01*
X71358517Y-127516255D01*
X71358517Y-127516253D01*
X71410037Y-127346414D01*
X71410037Y-127346413D01*
X71493702Y-127189888D01*
X71606292Y-127052697D01*
X71719414Y-126959861D01*
X71743490Y-126940102D01*
X71763392Y-126929464D01*
X71900014Y-126856437D01*
X71956628Y-126839264D01*
X72069854Y-126804917D01*
X72246480Y-126787521D01*
X72423107Y-126804917D01*
X72423107Y-126804917D01*
G37*
G36*
X78005080Y-126795869D02*
X78038129Y-126805894D01*
X78068586Y-126822174D01*
X78095279Y-126844081D01*
X78117186Y-126870774D01*
X78133466Y-126901231D01*
X78143491Y-126934280D01*
X78147480Y-126974784D01*
X78147480Y-128660976D01*
X78143491Y-128701480D01*
X78133466Y-128734529D01*
X78117186Y-128764986D01*
X78095279Y-128791679D01*
X78068586Y-128813586D01*
X78038129Y-128829866D01*
X78005080Y-128839891D01*
X77964576Y-128843880D01*
X76528384Y-128843880D01*
X76487880Y-128839891D01*
X76454831Y-128829866D01*
X76424374Y-128813586D01*
X76397681Y-128791679D01*
X76375774Y-128764986D01*
X76359494Y-128734529D01*
X76349469Y-128701480D01*
X76345480Y-128660976D01*
X76345480Y-126974784D01*
X76349469Y-126934280D01*
X76359494Y-126901231D01*
X76375774Y-126870774D01*
X76397681Y-126844081D01*
X76424374Y-126822174D01*
X76454831Y-126805894D01*
X76487880Y-126795869D01*
X76528384Y-126791880D01*
X77964576Y-126791880D01*
X78005080Y-126795869D01*
X78005080Y-126795869D01*
G37*
G36*
X138042603Y-123123559D02*
X138108787Y-123130077D01*
X138222013Y-123164424D01*
X138278627Y-123181597D01*
X138417247Y-123255692D01*
X138435151Y-123265262D01*
X138470889Y-123294592D01*
X138572346Y-123377854D01*
X138650401Y-123472966D01*
X138684938Y-123515049D01*
X138684939Y-123515051D01*
X138768603Y-123671573D01*
X138777744Y-123701707D01*
X138820123Y-123841413D01*
X138837519Y-124018040D01*
X138820123Y-124194667D01*
X138802655Y-124252251D01*
X138768603Y-124364507D01*
X138694508Y-124503127D01*
X138684938Y-124521031D01*
X138655608Y-124556769D01*
X138572346Y-124658226D01*
X138470889Y-124741488D01*
X138435151Y-124770818D01*
X138435149Y-124770819D01*
X138278627Y-124854483D01*
X138222013Y-124871656D01*
X138108787Y-124906003D01*
X138042602Y-124912522D01*
X137976420Y-124919040D01*
X137887900Y-124919040D01*
X137821718Y-124912522D01*
X137755533Y-124906003D01*
X137642307Y-124871656D01*
X137585693Y-124854483D01*
X137429171Y-124770819D01*
X137429169Y-124770818D01*
X137393431Y-124741488D01*
X137291974Y-124658226D01*
X137208712Y-124556769D01*
X137179382Y-124521031D01*
X137169812Y-124503127D01*
X137095717Y-124364507D01*
X137061665Y-124252251D01*
X137044197Y-124194667D01*
X137026801Y-124018040D01*
X137044197Y-123841413D01*
X137086576Y-123701707D01*
X137095717Y-123671573D01*
X137179381Y-123515051D01*
X137179382Y-123515049D01*
X137213919Y-123472966D01*
X137291974Y-123377854D01*
X137393431Y-123294592D01*
X137429169Y-123265262D01*
X137447073Y-123255692D01*
X137585693Y-123181597D01*
X137642307Y-123164424D01*
X137755533Y-123130077D01*
X137821717Y-123123559D01*
X137887900Y-123117040D01*
X137976420Y-123117040D01*
X138042603Y-123123559D01*
X138042603Y-123123559D01*
G37*
G36*
X118866386Y-122167277D02*
X118979612Y-122201624D01*
X119036226Y-122218797D01*
X119192749Y-122302461D01*
X119329946Y-122415054D01*
X119413208Y-122516511D01*
X119442538Y-122552249D01*
X119442539Y-122552251D01*
X119526203Y-122708773D01*
X119543376Y-122765387D01*
X119577723Y-122878613D01*
X119590760Y-123010982D01*
X119590760Y-123399497D01*
X119577723Y-123531866D01*
X119526203Y-123701706D01*
X119442538Y-123858231D01*
X119442537Y-123858232D01*
X119329946Y-123995426D01*
X119235011Y-124073336D01*
X119192751Y-124108018D01*
X119192749Y-124108019D01*
X119036227Y-124191683D01*
X118995494Y-124204039D01*
X118866387Y-124243203D01*
X118689760Y-124260599D01*
X118513134Y-124243203D01*
X118384027Y-124204039D01*
X118343294Y-124191683D01*
X118186772Y-124108019D01*
X118186770Y-124108018D01*
X118107023Y-124042572D01*
X118049572Y-123995423D01*
X117936982Y-123858232D01*
X117853317Y-123701707D01*
X117831410Y-123629489D01*
X117801797Y-123531867D01*
X117788760Y-123399498D01*
X117788760Y-123010983D01*
X117801797Y-122878614D01*
X117853317Y-122708775D01*
X117853317Y-122708774D01*
X117936981Y-122552251D01*
X118049574Y-122415054D01*
X118151031Y-122331792D01*
X118186769Y-122302462D01*
X118209977Y-122290057D01*
X118343293Y-122218797D01*
X118399907Y-122201624D01*
X118513133Y-122167277D01*
X118689760Y-122149881D01*
X118866386Y-122167277D01*
X118866386Y-122167277D01*
G37*
G36*
X116948360Y-122158229D02*
X116981409Y-122168254D01*
X117011866Y-122184534D01*
X117038559Y-122206441D01*
X117060466Y-122233134D01*
X117076746Y-122263591D01*
X117086771Y-122296640D01*
X117090760Y-122337144D01*
X117090760Y-124073336D01*
X117086771Y-124113840D01*
X117076746Y-124146889D01*
X117060466Y-124177346D01*
X117038559Y-124204039D01*
X117011866Y-124225946D01*
X116981409Y-124242226D01*
X116948360Y-124252251D01*
X116907856Y-124256240D01*
X115471664Y-124256240D01*
X115431160Y-124252251D01*
X115398111Y-124242226D01*
X115367654Y-124225946D01*
X115340961Y-124204039D01*
X115319054Y-124177346D01*
X115302774Y-124146889D01*
X115292749Y-124113840D01*
X115288760Y-124073336D01*
X115288760Y-122337144D01*
X115292749Y-122296640D01*
X115302774Y-122263591D01*
X115319054Y-122233134D01*
X115340961Y-122206441D01*
X115367654Y-122184534D01*
X115398111Y-122168254D01*
X115431160Y-122158229D01*
X115471664Y-122154240D01*
X116907856Y-122154240D01*
X116948360Y-122158229D01*
X116948360Y-122158229D01*
G37*
G36*
X57565764Y-122230819D02*
X57644127Y-122238537D01*
X57726719Y-122263591D01*
X57813967Y-122290057D01*
X57902059Y-122337144D01*
X57970491Y-122373722D01*
X58006229Y-122403052D01*
X58107686Y-122486314D01*
X58161797Y-122552250D01*
X58220278Y-122623509D01*
X58220279Y-122623511D01*
X58303943Y-122780033D01*
X58303943Y-122780034D01*
X58355463Y-122949873D01*
X58372859Y-123126500D01*
X58355463Y-123303127D01*
X58326229Y-123399498D01*
X58303943Y-123472967D01*
X58281449Y-123515049D01*
X58220278Y-123629491D01*
X58190948Y-123665229D01*
X58107686Y-123766686D01*
X58016627Y-123841415D01*
X57970491Y-123879278D01*
X57970489Y-123879279D01*
X57813967Y-123962943D01*
X57757353Y-123980116D01*
X57644127Y-124014463D01*
X57577942Y-124020982D01*
X57511760Y-124027500D01*
X57423240Y-124027500D01*
X57357058Y-124020982D01*
X57290873Y-124014463D01*
X57177647Y-123980116D01*
X57121033Y-123962943D01*
X56964511Y-123879279D01*
X56964509Y-123879278D01*
X56918373Y-123841415D01*
X56827314Y-123766686D01*
X56744052Y-123665229D01*
X56714722Y-123629491D01*
X56653551Y-123515049D01*
X56631057Y-123472967D01*
X56608771Y-123399498D01*
X56579537Y-123303127D01*
X56562141Y-123126500D01*
X56579537Y-122949873D01*
X56631057Y-122780034D01*
X56631057Y-122780033D01*
X56714721Y-122623511D01*
X56714722Y-122623509D01*
X56773203Y-122552250D01*
X56827314Y-122486314D01*
X56928771Y-122403052D01*
X56964509Y-122373722D01*
X57032941Y-122337144D01*
X57121033Y-122290057D01*
X57208281Y-122263591D01*
X57290873Y-122238537D01*
X57369236Y-122230819D01*
X57423240Y-122225500D01*
X57511760Y-122225500D01*
X57565764Y-122230819D01*
X57565764Y-122230819D01*
G37*
G36*
X60908500Y-124027500D02*
X59106500Y-124027500D01*
X59106500Y-122225500D01*
X60908500Y-122225500D01*
X60908500Y-124027500D01*
X60908500Y-124027500D01*
G37*
G36*
X138042603Y-120583559D02*
X138108787Y-120590077D01*
X138222013Y-120624424D01*
X138278627Y-120641597D01*
X138417247Y-120715692D01*
X138435151Y-120725262D01*
X138470889Y-120754592D01*
X138572346Y-120837854D01*
X138655608Y-120939311D01*
X138684938Y-120975049D01*
X138684939Y-120975051D01*
X138768603Y-121131573D01*
X138768603Y-121131574D01*
X138820123Y-121301413D01*
X138837519Y-121478040D01*
X138820123Y-121654667D01*
X138785776Y-121767893D01*
X138768603Y-121824507D01*
X138694508Y-121963127D01*
X138684938Y-121981031D01*
X138655608Y-122016769D01*
X138572346Y-122118226D01*
X138491548Y-122184534D01*
X138435151Y-122230818D01*
X138435149Y-122230819D01*
X138278627Y-122314483D01*
X138222013Y-122331656D01*
X138108787Y-122366003D01*
X138042603Y-122372521D01*
X137976420Y-122379040D01*
X137887900Y-122379040D01*
X137821717Y-122372521D01*
X137755533Y-122366003D01*
X137642307Y-122331656D01*
X137585693Y-122314483D01*
X137429171Y-122230819D01*
X137429169Y-122230818D01*
X137372772Y-122184534D01*
X137291974Y-122118226D01*
X137208712Y-122016769D01*
X137179382Y-121981031D01*
X137169812Y-121963127D01*
X137095717Y-121824507D01*
X137078544Y-121767893D01*
X137044197Y-121654667D01*
X137026801Y-121478040D01*
X137044197Y-121301413D01*
X137095717Y-121131574D01*
X137095717Y-121131573D01*
X137179381Y-120975051D01*
X137179382Y-120975049D01*
X137208712Y-120939311D01*
X137291974Y-120837854D01*
X137393431Y-120754592D01*
X137429169Y-120725262D01*
X137447073Y-120715692D01*
X137585693Y-120641597D01*
X137642307Y-120624424D01*
X137755533Y-120590077D01*
X137821717Y-120583559D01*
X137887900Y-120577040D01*
X137976420Y-120577040D01*
X138042603Y-120583559D01*
X138042603Y-120583559D01*
G37*
G36*
X138042602Y-118043558D02*
X138108787Y-118050077D01*
X138222013Y-118084424D01*
X138278627Y-118101597D01*
X138417247Y-118175692D01*
X138435151Y-118185262D01*
X138470889Y-118214592D01*
X138572346Y-118297854D01*
X138655608Y-118399311D01*
X138684938Y-118435049D01*
X138684939Y-118435051D01*
X138768603Y-118591573D01*
X138768603Y-118591574D01*
X138820123Y-118761413D01*
X138837519Y-118938040D01*
X138820123Y-119114667D01*
X138785776Y-119227893D01*
X138768603Y-119284507D01*
X138694508Y-119423127D01*
X138684938Y-119441031D01*
X138655608Y-119476769D01*
X138572346Y-119578226D01*
X138470889Y-119661488D01*
X138435151Y-119690818D01*
X138435149Y-119690819D01*
X138278627Y-119774483D01*
X138222013Y-119791656D01*
X138108787Y-119826003D01*
X138042603Y-119832521D01*
X137976420Y-119839040D01*
X137887900Y-119839040D01*
X137821717Y-119832521D01*
X137755533Y-119826003D01*
X137642307Y-119791656D01*
X137585693Y-119774483D01*
X137429171Y-119690819D01*
X137429169Y-119690818D01*
X137393431Y-119661488D01*
X137291974Y-119578226D01*
X137208712Y-119476769D01*
X137179382Y-119441031D01*
X137169812Y-119423127D01*
X137095717Y-119284507D01*
X137078544Y-119227893D01*
X137044197Y-119114667D01*
X137026801Y-118938040D01*
X137044197Y-118761413D01*
X137095717Y-118591574D01*
X137095717Y-118591573D01*
X137179381Y-118435051D01*
X137179382Y-118435049D01*
X137208712Y-118399311D01*
X137291974Y-118297854D01*
X137393431Y-118214592D01*
X137429169Y-118185262D01*
X137447073Y-118175692D01*
X137585693Y-118101597D01*
X137642307Y-118084424D01*
X137755533Y-118050077D01*
X137821718Y-118043558D01*
X137887900Y-118037040D01*
X137976420Y-118037040D01*
X138042602Y-118043558D01*
X138042602Y-118043558D01*
G37*
G36*
X138833160Y-117299040D02*
X137031160Y-117299040D01*
X137031160Y-115497040D01*
X138833160Y-115497040D01*
X138833160Y-117299040D01*
X138833160Y-117299040D01*
G37*
G36*
X138017203Y-109417719D02*
X138083387Y-109424237D01*
X138196613Y-109458584D01*
X138253227Y-109475757D01*
X138391847Y-109549852D01*
X138409751Y-109559422D01*
X138445489Y-109588752D01*
X138546946Y-109672014D01*
X138630208Y-109773471D01*
X138659538Y-109809209D01*
X138659539Y-109809211D01*
X138743203Y-109965733D01*
X138743203Y-109965734D01*
X138794723Y-110135573D01*
X138812119Y-110312200D01*
X138794723Y-110488827D01*
X138760376Y-110602053D01*
X138743203Y-110658667D01*
X138669108Y-110797287D01*
X138659538Y-110815191D01*
X138630208Y-110850929D01*
X138546946Y-110952386D01*
X138445489Y-111035648D01*
X138409751Y-111064978D01*
X138409749Y-111064979D01*
X138253227Y-111148643D01*
X138196613Y-111165816D01*
X138083387Y-111200163D01*
X138017202Y-111206682D01*
X137951020Y-111213200D01*
X137862500Y-111213200D01*
X137796318Y-111206682D01*
X137730133Y-111200163D01*
X137616907Y-111165816D01*
X137560293Y-111148643D01*
X137403771Y-111064979D01*
X137403769Y-111064978D01*
X137368031Y-111035648D01*
X137266574Y-110952386D01*
X137183312Y-110850929D01*
X137153982Y-110815191D01*
X137144412Y-110797287D01*
X137070317Y-110658667D01*
X137053144Y-110602053D01*
X137018797Y-110488827D01*
X137001401Y-110312200D01*
X137018797Y-110135573D01*
X137070317Y-109965734D01*
X137070317Y-109965733D01*
X137153981Y-109809211D01*
X137153982Y-109809209D01*
X137183312Y-109773471D01*
X137266574Y-109672014D01*
X137368031Y-109588752D01*
X137403769Y-109559422D01*
X137421673Y-109549852D01*
X137560293Y-109475757D01*
X137616907Y-109458584D01*
X137730133Y-109424237D01*
X137796317Y-109417719D01*
X137862500Y-109411200D01*
X137951020Y-109411200D01*
X138017203Y-109417719D01*
X138017203Y-109417719D01*
G37*
G36*
X118866386Y-106957757D02*
X118979612Y-106992104D01*
X119036226Y-107009277D01*
X119192749Y-107092941D01*
X119329946Y-107205534D01*
X119413208Y-107306991D01*
X119442538Y-107342729D01*
X119442539Y-107342731D01*
X119526203Y-107499253D01*
X119543376Y-107555867D01*
X119577723Y-107669093D01*
X119590760Y-107801462D01*
X119590760Y-108189977D01*
X119577723Y-108322346D01*
X119526203Y-108492186D01*
X119442538Y-108648711D01*
X119422440Y-108673200D01*
X119329946Y-108785906D01*
X119235011Y-108863816D01*
X119192751Y-108898498D01*
X119192749Y-108898499D01*
X119036227Y-108982163D01*
X118995494Y-108994519D01*
X118866387Y-109033683D01*
X118689760Y-109051079D01*
X118513134Y-109033683D01*
X118384027Y-108994519D01*
X118343294Y-108982163D01*
X118186772Y-108898499D01*
X118186770Y-108898498D01*
X118049576Y-108785906D01*
X118049572Y-108785903D01*
X117936982Y-108648712D01*
X117853317Y-108492187D01*
X117829110Y-108412385D01*
X117801797Y-108322347D01*
X117788760Y-108189978D01*
X117788760Y-107801463D01*
X117801797Y-107669094D01*
X117853317Y-107499255D01*
X117853317Y-107499254D01*
X117936981Y-107342731D01*
X118049574Y-107205534D01*
X118151031Y-107122272D01*
X118186769Y-107092942D01*
X118204673Y-107083372D01*
X118343293Y-107009277D01*
X118399907Y-106992104D01*
X118513133Y-106957757D01*
X118689760Y-106940361D01*
X118866386Y-106957757D01*
X118866386Y-106957757D01*
G37*
G36*
X116948360Y-106948709D02*
X116981409Y-106958734D01*
X117011866Y-106975014D01*
X117038559Y-106996921D01*
X117060466Y-107023614D01*
X117076746Y-107054071D01*
X117086771Y-107087120D01*
X117090760Y-107127624D01*
X117090760Y-108863816D01*
X117086771Y-108904320D01*
X117076746Y-108937369D01*
X117060466Y-108967826D01*
X117038559Y-108994519D01*
X117011866Y-109016426D01*
X116981409Y-109032706D01*
X116948360Y-109042731D01*
X116907856Y-109046720D01*
X115471664Y-109046720D01*
X115431160Y-109042731D01*
X115398111Y-109032706D01*
X115367654Y-109016426D01*
X115340961Y-108994519D01*
X115319054Y-108967826D01*
X115302774Y-108937369D01*
X115292749Y-108904320D01*
X115288760Y-108863816D01*
X115288760Y-107127624D01*
X115292749Y-107087120D01*
X115302774Y-107054071D01*
X115319054Y-107023614D01*
X115340961Y-106996921D01*
X115367654Y-106975014D01*
X115398111Y-106958734D01*
X115431160Y-106948709D01*
X115471664Y-106944720D01*
X116907856Y-106944720D01*
X116948360Y-106948709D01*
X116948360Y-106948709D01*
G37*
G36*
X138017203Y-106877719D02*
X138083387Y-106884237D01*
X138196613Y-106918584D01*
X138253227Y-106935757D01*
X138353549Y-106989381D01*
X138409751Y-107019422D01*
X138445489Y-107048752D01*
X138546946Y-107132014D01*
X138630208Y-107233471D01*
X138659538Y-107269209D01*
X138659539Y-107269211D01*
X138743203Y-107425733D01*
X138743203Y-107425734D01*
X138794723Y-107595573D01*
X138812119Y-107772200D01*
X138794723Y-107948827D01*
X138760376Y-108062053D01*
X138743203Y-108118667D01*
X138705086Y-108189977D01*
X138659538Y-108275191D01*
X138630208Y-108310929D01*
X138546946Y-108412386D01*
X138449708Y-108492186D01*
X138409751Y-108524978D01*
X138409749Y-108524979D01*
X138253227Y-108608643D01*
X138196613Y-108625816D01*
X138083387Y-108660163D01*
X138017203Y-108666681D01*
X137951020Y-108673200D01*
X137862500Y-108673200D01*
X137796317Y-108666681D01*
X137730133Y-108660163D01*
X137616907Y-108625816D01*
X137560293Y-108608643D01*
X137403771Y-108524979D01*
X137403769Y-108524978D01*
X137363812Y-108492186D01*
X137266574Y-108412386D01*
X137183312Y-108310929D01*
X137153982Y-108275191D01*
X137108434Y-108189977D01*
X137070317Y-108118667D01*
X137053144Y-108062053D01*
X137018797Y-107948827D01*
X137001401Y-107772200D01*
X137018797Y-107595573D01*
X137070317Y-107425734D01*
X137070317Y-107425733D01*
X137153981Y-107269211D01*
X137153982Y-107269209D01*
X137183312Y-107233471D01*
X137266574Y-107132014D01*
X137368031Y-107048752D01*
X137403769Y-107019422D01*
X137459971Y-106989381D01*
X137560293Y-106935757D01*
X137616907Y-106918584D01*
X137730133Y-106884237D01*
X137796317Y-106877719D01*
X137862500Y-106871200D01*
X137951020Y-106871200D01*
X138017203Y-106877719D01*
X138017203Y-106877719D01*
G37*
G36*
X138017203Y-104337719D02*
X138083387Y-104344237D01*
X138196613Y-104378584D01*
X138253227Y-104395757D01*
X138391847Y-104469852D01*
X138409751Y-104479422D01*
X138445489Y-104508752D01*
X138546946Y-104592014D01*
X138630208Y-104693471D01*
X138659538Y-104729209D01*
X138659539Y-104729211D01*
X138743203Y-104885733D01*
X138743203Y-104885734D01*
X138794723Y-105055573D01*
X138812119Y-105232200D01*
X138794723Y-105408827D01*
X138760376Y-105522053D01*
X138743203Y-105578667D01*
X138669108Y-105717287D01*
X138659538Y-105735191D01*
X138630208Y-105770929D01*
X138546946Y-105872386D01*
X138445489Y-105955648D01*
X138409751Y-105984978D01*
X138409749Y-105984979D01*
X138253227Y-106068643D01*
X138196613Y-106085816D01*
X138083387Y-106120163D01*
X138017202Y-106126682D01*
X137951020Y-106133200D01*
X137862500Y-106133200D01*
X137796318Y-106126682D01*
X137730133Y-106120163D01*
X137616907Y-106085816D01*
X137560293Y-106068643D01*
X137403771Y-105984979D01*
X137403769Y-105984978D01*
X137368031Y-105955648D01*
X137266574Y-105872386D01*
X137183312Y-105770929D01*
X137153982Y-105735191D01*
X137144412Y-105717287D01*
X137070317Y-105578667D01*
X137053144Y-105522053D01*
X137018797Y-105408827D01*
X137001401Y-105232200D01*
X137018797Y-105055573D01*
X137070317Y-104885734D01*
X137070317Y-104885733D01*
X137153981Y-104729211D01*
X137153982Y-104729209D01*
X137183312Y-104693471D01*
X137266574Y-104592014D01*
X137368031Y-104508752D01*
X137403769Y-104479422D01*
X137421673Y-104469852D01*
X137560293Y-104395757D01*
X137616907Y-104378584D01*
X137730133Y-104344237D01*
X137796317Y-104337719D01*
X137862500Y-104331200D01*
X137951020Y-104331200D01*
X138017203Y-104337719D01*
X138017203Y-104337719D01*
G37*
G36*
X138017203Y-101797719D02*
X138083387Y-101804237D01*
X138196613Y-101838584D01*
X138253227Y-101855757D01*
X138391847Y-101929852D01*
X138409751Y-101939422D01*
X138445489Y-101968752D01*
X138546946Y-102052014D01*
X138630208Y-102153471D01*
X138659538Y-102189209D01*
X138659539Y-102189211D01*
X138743203Y-102345733D01*
X138743203Y-102345734D01*
X138794723Y-102515573D01*
X138812119Y-102692200D01*
X138794723Y-102868827D01*
X138760376Y-102982053D01*
X138743203Y-103038667D01*
X138669108Y-103177287D01*
X138659538Y-103195191D01*
X138630208Y-103230929D01*
X138546946Y-103332386D01*
X138445489Y-103415648D01*
X138409751Y-103444978D01*
X138409749Y-103444979D01*
X138253227Y-103528643D01*
X138196613Y-103545816D01*
X138083387Y-103580163D01*
X138017202Y-103586682D01*
X137951020Y-103593200D01*
X137862500Y-103593200D01*
X137796318Y-103586682D01*
X137730133Y-103580163D01*
X137616907Y-103545816D01*
X137560293Y-103528643D01*
X137403771Y-103444979D01*
X137403769Y-103444978D01*
X137368031Y-103415648D01*
X137266574Y-103332386D01*
X137183312Y-103230929D01*
X137153982Y-103195191D01*
X137144412Y-103177287D01*
X137070317Y-103038667D01*
X137053144Y-102982053D01*
X137018797Y-102868827D01*
X137001401Y-102692200D01*
X137018797Y-102515573D01*
X137070317Y-102345734D01*
X137070317Y-102345733D01*
X137153981Y-102189211D01*
X137153982Y-102189209D01*
X137183312Y-102153471D01*
X137266574Y-102052014D01*
X137368031Y-101968752D01*
X137403769Y-101939422D01*
X137421673Y-101929852D01*
X137560293Y-101855757D01*
X137616907Y-101838584D01*
X137730133Y-101804237D01*
X137796317Y-101797719D01*
X137862500Y-101791200D01*
X137951020Y-101791200D01*
X138017203Y-101797719D01*
X138017203Y-101797719D01*
G37*
G36*
X138017203Y-99257719D02*
X138083387Y-99264237D01*
X138196613Y-99298584D01*
X138253227Y-99315757D01*
X138391847Y-99389852D01*
X138409751Y-99399422D01*
X138445489Y-99428752D01*
X138546946Y-99512014D01*
X138630208Y-99613471D01*
X138659538Y-99649209D01*
X138659539Y-99649211D01*
X138743203Y-99805733D01*
X138743203Y-99805734D01*
X138794723Y-99975573D01*
X138812119Y-100152200D01*
X138794723Y-100328827D01*
X138760376Y-100442053D01*
X138743203Y-100498667D01*
X138669108Y-100637287D01*
X138659538Y-100655191D01*
X138630208Y-100690929D01*
X138546946Y-100792386D01*
X138445489Y-100875648D01*
X138409751Y-100904978D01*
X138409749Y-100904979D01*
X138253227Y-100988643D01*
X138196613Y-101005816D01*
X138083387Y-101040163D01*
X138017203Y-101046681D01*
X137951020Y-101053200D01*
X137862500Y-101053200D01*
X137796317Y-101046681D01*
X137730133Y-101040163D01*
X137616907Y-101005816D01*
X137560293Y-100988643D01*
X137403771Y-100904979D01*
X137403769Y-100904978D01*
X137368031Y-100875648D01*
X137266574Y-100792386D01*
X137183312Y-100690929D01*
X137153982Y-100655191D01*
X137144412Y-100637287D01*
X137070317Y-100498667D01*
X137053144Y-100442053D01*
X137018797Y-100328827D01*
X137001401Y-100152200D01*
X137018797Y-99975573D01*
X137070317Y-99805734D01*
X137070317Y-99805733D01*
X137153981Y-99649211D01*
X137153982Y-99649209D01*
X137183312Y-99613471D01*
X137266574Y-99512014D01*
X137368031Y-99428752D01*
X137403769Y-99399422D01*
X137421673Y-99389852D01*
X137560293Y-99315757D01*
X137616907Y-99298584D01*
X137730133Y-99264237D01*
X137796317Y-99257719D01*
X137862500Y-99251200D01*
X137951020Y-99251200D01*
X138017203Y-99257719D01*
X138017203Y-99257719D01*
G37*
G36*
X87999523Y-97103799D02*
X88065707Y-97110317D01*
X88178933Y-97144664D01*
X88235547Y-97161837D01*
X88374167Y-97235932D01*
X88392071Y-97245502D01*
X88427809Y-97274832D01*
X88529266Y-97358094D01*
X88581940Y-97422279D01*
X88641858Y-97495289D01*
X88641859Y-97495291D01*
X88725523Y-97651813D01*
X88725523Y-97651814D01*
X88777043Y-97821653D01*
X88794439Y-97998280D01*
X88777043Y-98174907D01*
X88753540Y-98252385D01*
X88725523Y-98344747D01*
X88651428Y-98483367D01*
X88641858Y-98501271D01*
X88632068Y-98513200D01*
X88529266Y-98638466D01*
X88427809Y-98721728D01*
X88392071Y-98751058D01*
X88392069Y-98751059D01*
X88235547Y-98834723D01*
X88178933Y-98851896D01*
X88065707Y-98886243D01*
X87999522Y-98892762D01*
X87933340Y-98899280D01*
X87844820Y-98899280D01*
X87778638Y-98892762D01*
X87712453Y-98886243D01*
X87599227Y-98851896D01*
X87542613Y-98834723D01*
X87386091Y-98751059D01*
X87386089Y-98751058D01*
X87350351Y-98721728D01*
X87248894Y-98638466D01*
X87146092Y-98513200D01*
X87136302Y-98501271D01*
X87126732Y-98483367D01*
X87052637Y-98344747D01*
X87024620Y-98252385D01*
X87001117Y-98174907D01*
X86983721Y-97998280D01*
X87001117Y-97821653D01*
X87052637Y-97651814D01*
X87052637Y-97651813D01*
X87136301Y-97495291D01*
X87136302Y-97495289D01*
X87196220Y-97422279D01*
X87248894Y-97358094D01*
X87350351Y-97274832D01*
X87386089Y-97245502D01*
X87403993Y-97235932D01*
X87542613Y-97161837D01*
X87599227Y-97144664D01*
X87712453Y-97110317D01*
X87778637Y-97103799D01*
X87844820Y-97097280D01*
X87933340Y-97097280D01*
X87999523Y-97103799D01*
X87999523Y-97103799D01*
G37*
G36*
X138017202Y-96717718D02*
X138083387Y-96724237D01*
X138168669Y-96750107D01*
X138253227Y-96775757D01*
X138391847Y-96849852D01*
X138409751Y-96859422D01*
X138445489Y-96888752D01*
X138546946Y-96972014D01*
X138630208Y-97073471D01*
X138659538Y-97109209D01*
X138659539Y-97109211D01*
X138743203Y-97265733D01*
X138743203Y-97265734D01*
X138794723Y-97435573D01*
X138812119Y-97612200D01*
X138794723Y-97788827D01*
X138760376Y-97902053D01*
X138743203Y-97958667D01*
X138722029Y-97998280D01*
X138659538Y-98115191D01*
X138630208Y-98150929D01*
X138546946Y-98252386D01*
X138445489Y-98335648D01*
X138409751Y-98364978D01*
X138409749Y-98364979D01*
X138253227Y-98448643D01*
X138196613Y-98465816D01*
X138083387Y-98500163D01*
X138017203Y-98506681D01*
X137951020Y-98513200D01*
X137862500Y-98513200D01*
X137796317Y-98506681D01*
X137730133Y-98500163D01*
X137616907Y-98465816D01*
X137560293Y-98448643D01*
X137403771Y-98364979D01*
X137403769Y-98364978D01*
X137368031Y-98335648D01*
X137266574Y-98252386D01*
X137183312Y-98150929D01*
X137153982Y-98115191D01*
X137091491Y-97998280D01*
X137070317Y-97958667D01*
X137053144Y-97902053D01*
X137018797Y-97788827D01*
X137001401Y-97612200D01*
X137018797Y-97435573D01*
X137070317Y-97265734D01*
X137070317Y-97265733D01*
X137153981Y-97109211D01*
X137153982Y-97109209D01*
X137183312Y-97073471D01*
X137266574Y-96972014D01*
X137368031Y-96888752D01*
X137403769Y-96859422D01*
X137421673Y-96849852D01*
X137560293Y-96775757D01*
X137644851Y-96750107D01*
X137730133Y-96724237D01*
X137796318Y-96717718D01*
X137862500Y-96711200D01*
X137951020Y-96711200D01*
X138017202Y-96717718D01*
X138017202Y-96717718D01*
G37*
G36*
X118719066Y-95385517D02*
X118828344Y-95418666D01*
X118888906Y-95437037D01*
X119045429Y-95520701D01*
X119182626Y-95633294D01*
X119247533Y-95712385D01*
X119295218Y-95770489D01*
X119295219Y-95770491D01*
X119378883Y-95927013D01*
X119388939Y-95960163D01*
X119430403Y-96096853D01*
X119443440Y-96229222D01*
X119443440Y-96617737D01*
X119430403Y-96750106D01*
X119378883Y-96919946D01*
X119295218Y-97076471D01*
X119295217Y-97076472D01*
X119182626Y-97213666D01*
X119087691Y-97291576D01*
X119045431Y-97326258D01*
X119045429Y-97326259D01*
X118888907Y-97409923D01*
X118848174Y-97422279D01*
X118719067Y-97461443D01*
X118542440Y-97478839D01*
X118365814Y-97461443D01*
X118236707Y-97422279D01*
X118195974Y-97409923D01*
X118039452Y-97326259D01*
X118039450Y-97326258D01*
X117959703Y-97260812D01*
X117902252Y-97213663D01*
X117789662Y-97076472D01*
X117705997Y-96919947D01*
X117662258Y-96775757D01*
X117654477Y-96750107D01*
X117641440Y-96617738D01*
X117641440Y-96229223D01*
X117654477Y-96096854D01*
X117705997Y-95927015D01*
X117705997Y-95927014D01*
X117789661Y-95770491D01*
X117902254Y-95633294D01*
X118003711Y-95550032D01*
X118039449Y-95520702D01*
X118057353Y-95511132D01*
X118195973Y-95437037D01*
X118256535Y-95418666D01*
X118365813Y-95385517D01*
X118542440Y-95368121D01*
X118719066Y-95385517D01*
X118719066Y-95385517D01*
G37*
G36*
X116801040Y-95376469D02*
X116834089Y-95386494D01*
X116864546Y-95402774D01*
X116891239Y-95424681D01*
X116913146Y-95451374D01*
X116929426Y-95481831D01*
X116939451Y-95514880D01*
X116943440Y-95555384D01*
X116943440Y-97291576D01*
X116939451Y-97332080D01*
X116929426Y-97365129D01*
X116913146Y-97395586D01*
X116891239Y-97422279D01*
X116864546Y-97444186D01*
X116834089Y-97460466D01*
X116801040Y-97470491D01*
X116760536Y-97474480D01*
X115324344Y-97474480D01*
X115283840Y-97470491D01*
X115250791Y-97460466D01*
X115220334Y-97444186D01*
X115193641Y-97422279D01*
X115171734Y-97395586D01*
X115155454Y-97365129D01*
X115145429Y-97332080D01*
X115141440Y-97291576D01*
X115141440Y-95555384D01*
X115145429Y-95514880D01*
X115155454Y-95481831D01*
X115171734Y-95451374D01*
X115193641Y-95424681D01*
X115220334Y-95402774D01*
X115250791Y-95386494D01*
X115283840Y-95376469D01*
X115324344Y-95372480D01*
X116760536Y-95372480D01*
X116801040Y-95376469D01*
X116801040Y-95376469D01*
G37*
G36*
X88790080Y-96359280D02*
X86988080Y-96359280D01*
X86988080Y-94557280D01*
X88790080Y-94557280D01*
X88790080Y-96359280D01*
X88790080Y-96359280D01*
G37*
G36*
X138017203Y-94177719D02*
X138083387Y-94184237D01*
X138196613Y-94218584D01*
X138253227Y-94235757D01*
X138391847Y-94309852D01*
X138409751Y-94319422D01*
X138445489Y-94348752D01*
X138546946Y-94432014D01*
X138630208Y-94533471D01*
X138659538Y-94569209D01*
X138659539Y-94569211D01*
X138743203Y-94725733D01*
X138743203Y-94725734D01*
X138794723Y-94895573D01*
X138812119Y-95072200D01*
X138794723Y-95248827D01*
X138760376Y-95362053D01*
X138743203Y-95418667D01*
X138704938Y-95490254D01*
X138659538Y-95575191D01*
X138630208Y-95610929D01*
X138546946Y-95712386D01*
X138445489Y-95795648D01*
X138409751Y-95824978D01*
X138409749Y-95824979D01*
X138253227Y-95908643D01*
X138196613Y-95925816D01*
X138083387Y-95960163D01*
X138017203Y-95966681D01*
X137951020Y-95973200D01*
X137862500Y-95973200D01*
X137796317Y-95966681D01*
X137730133Y-95960163D01*
X137616907Y-95925816D01*
X137560293Y-95908643D01*
X137403771Y-95824979D01*
X137403769Y-95824978D01*
X137368031Y-95795648D01*
X137266574Y-95712386D01*
X137183312Y-95610929D01*
X137153982Y-95575191D01*
X137108582Y-95490254D01*
X137070317Y-95418667D01*
X137053144Y-95362053D01*
X137018797Y-95248827D01*
X137001401Y-95072200D01*
X137018797Y-94895573D01*
X137070317Y-94725734D01*
X137070317Y-94725733D01*
X137153981Y-94569211D01*
X137153982Y-94569209D01*
X137183312Y-94533471D01*
X137266574Y-94432014D01*
X137368031Y-94348752D01*
X137403769Y-94319422D01*
X137421673Y-94309852D01*
X137560293Y-94235757D01*
X137616907Y-94218584D01*
X137730133Y-94184237D01*
X137796317Y-94177719D01*
X137862500Y-94171200D01*
X137951020Y-94171200D01*
X138017203Y-94177719D01*
X138017203Y-94177719D01*
G37*
G36*
X138017203Y-91637719D02*
X138083387Y-91644237D01*
X138196613Y-91678584D01*
X138253227Y-91695757D01*
X138391847Y-91769852D01*
X138409751Y-91779422D01*
X138445489Y-91808752D01*
X138546946Y-91892014D01*
X138597831Y-91954019D01*
X138659538Y-92029209D01*
X138659539Y-92029211D01*
X138743203Y-92185733D01*
X138743203Y-92185734D01*
X138794723Y-92355573D01*
X138812119Y-92532200D01*
X138794723Y-92708827D01*
X138760376Y-92822053D01*
X138743203Y-92878667D01*
X138669108Y-93017287D01*
X138659538Y-93035191D01*
X138630208Y-93070929D01*
X138546946Y-93172386D01*
X138445489Y-93255648D01*
X138409751Y-93284978D01*
X138409749Y-93284979D01*
X138253227Y-93368643D01*
X138196613Y-93385816D01*
X138083387Y-93420163D01*
X138017202Y-93426682D01*
X137951020Y-93433200D01*
X137862500Y-93433200D01*
X137796318Y-93426682D01*
X137730133Y-93420163D01*
X137616907Y-93385816D01*
X137560293Y-93368643D01*
X137403771Y-93284979D01*
X137403769Y-93284978D01*
X137368031Y-93255648D01*
X137266574Y-93172386D01*
X137183312Y-93070929D01*
X137153982Y-93035191D01*
X137144412Y-93017287D01*
X137070317Y-92878667D01*
X137053144Y-92822053D01*
X137018797Y-92708827D01*
X137001401Y-92532200D01*
X137018797Y-92355573D01*
X137070317Y-92185734D01*
X137070317Y-92185733D01*
X137153981Y-92029211D01*
X137153982Y-92029209D01*
X137215689Y-91954019D01*
X137266574Y-91892014D01*
X137368031Y-91808752D01*
X137403769Y-91779422D01*
X137421673Y-91769852D01*
X137560293Y-91695757D01*
X137616907Y-91678584D01*
X137730133Y-91644237D01*
X137796317Y-91637719D01*
X137862500Y-91631200D01*
X137951020Y-91631200D01*
X138017203Y-91637719D01*
X138017203Y-91637719D01*
G37*
G36*
X60567522Y-90306758D02*
X60633707Y-90313277D01*
X60746933Y-90347624D01*
X60803547Y-90364797D01*
X60920265Y-90427185D01*
X60960071Y-90448462D01*
X60992041Y-90474699D01*
X61097266Y-90561054D01*
X61176585Y-90657706D01*
X61209858Y-90698249D01*
X61209859Y-90698251D01*
X61293523Y-90854773D01*
X61293523Y-90854774D01*
X61345043Y-91024613D01*
X61362439Y-91201240D01*
X61345043Y-91377867D01*
X61310696Y-91491093D01*
X61293523Y-91547707D01*
X61248894Y-91631200D01*
X61209858Y-91704231D01*
X61180528Y-91739969D01*
X61097266Y-91841426D01*
X60995809Y-91924688D01*
X60960071Y-91954018D01*
X60960069Y-91954019D01*
X60803547Y-92037683D01*
X60746933Y-92054856D01*
X60633707Y-92089203D01*
X60567522Y-92095722D01*
X60501340Y-92102240D01*
X60412820Y-92102240D01*
X60346638Y-92095722D01*
X60280453Y-92089203D01*
X60167227Y-92054856D01*
X60110613Y-92037683D01*
X59954091Y-91954019D01*
X59954089Y-91954018D01*
X59918351Y-91924688D01*
X59816894Y-91841426D01*
X59733632Y-91739969D01*
X59704302Y-91704231D01*
X59665266Y-91631200D01*
X59620637Y-91547707D01*
X59603464Y-91491093D01*
X59569117Y-91377867D01*
X59551721Y-91201240D01*
X59569117Y-91024613D01*
X59620637Y-90854774D01*
X59620637Y-90854773D01*
X59704301Y-90698251D01*
X59704302Y-90698249D01*
X59737575Y-90657706D01*
X59816894Y-90561054D01*
X59922119Y-90474699D01*
X59954089Y-90448462D01*
X59993895Y-90427185D01*
X60110613Y-90364797D01*
X60167227Y-90347624D01*
X60280453Y-90313277D01*
X60346638Y-90306758D01*
X60412820Y-90300240D01*
X60501340Y-90300240D01*
X60567522Y-90306758D01*
X60567522Y-90306758D01*
G37*
G36*
X56278080Y-92102240D02*
X54476080Y-92102240D01*
X54476080Y-90300240D01*
X56278080Y-90300240D01*
X56278080Y-92102240D01*
X56278080Y-92102240D01*
G37*
G36*
X58027522Y-90306758D02*
X58093707Y-90313277D01*
X58206933Y-90347624D01*
X58263547Y-90364797D01*
X58380265Y-90427185D01*
X58420071Y-90448462D01*
X58452041Y-90474699D01*
X58557266Y-90561054D01*
X58636585Y-90657706D01*
X58669858Y-90698249D01*
X58669859Y-90698251D01*
X58753523Y-90854773D01*
X58753523Y-90854774D01*
X58805043Y-91024613D01*
X58822439Y-91201240D01*
X58805043Y-91377867D01*
X58770696Y-91491093D01*
X58753523Y-91547707D01*
X58708894Y-91631200D01*
X58669858Y-91704231D01*
X58640528Y-91739969D01*
X58557266Y-91841426D01*
X58455809Y-91924688D01*
X58420071Y-91954018D01*
X58420069Y-91954019D01*
X58263547Y-92037683D01*
X58206933Y-92054856D01*
X58093707Y-92089203D01*
X58027522Y-92095722D01*
X57961340Y-92102240D01*
X57872820Y-92102240D01*
X57806638Y-92095722D01*
X57740453Y-92089203D01*
X57627227Y-92054856D01*
X57570613Y-92037683D01*
X57414091Y-91954019D01*
X57414089Y-91954018D01*
X57378351Y-91924688D01*
X57276894Y-91841426D01*
X57193632Y-91739969D01*
X57164302Y-91704231D01*
X57125266Y-91631200D01*
X57080637Y-91547707D01*
X57063464Y-91491093D01*
X57029117Y-91377867D01*
X57011721Y-91201240D01*
X57029117Y-91024613D01*
X57080637Y-90854774D01*
X57080637Y-90854773D01*
X57164301Y-90698251D01*
X57164302Y-90698249D01*
X57197575Y-90657706D01*
X57276894Y-90561054D01*
X57382119Y-90474699D01*
X57414089Y-90448462D01*
X57453895Y-90427185D01*
X57570613Y-90364797D01*
X57627227Y-90347624D01*
X57740453Y-90313277D01*
X57806638Y-90306758D01*
X57872820Y-90300240D01*
X57961340Y-90300240D01*
X58027522Y-90306758D01*
X58027522Y-90306758D01*
G37*
G36*
X138017202Y-89097718D02*
X138083387Y-89104237D01*
X138196613Y-89138584D01*
X138253227Y-89155757D01*
X138318287Y-89190533D01*
X138409751Y-89239422D01*
X138445489Y-89268752D01*
X138546946Y-89352014D01*
X138597831Y-89414019D01*
X138659538Y-89489209D01*
X138659539Y-89489211D01*
X138743203Y-89645733D01*
X138743203Y-89645734D01*
X138794723Y-89815573D01*
X138812119Y-89992200D01*
X138794723Y-90168827D01*
X138760376Y-90282053D01*
X138743203Y-90338667D01*
X138729236Y-90364797D01*
X138659538Y-90495191D01*
X138630208Y-90530929D01*
X138546946Y-90632386D01*
X138466688Y-90698251D01*
X138409751Y-90744978D01*
X138409749Y-90744979D01*
X138253227Y-90828643D01*
X138196613Y-90845816D01*
X138083387Y-90880163D01*
X138017202Y-90886682D01*
X137951020Y-90893200D01*
X137862500Y-90893200D01*
X137796318Y-90886682D01*
X137730133Y-90880163D01*
X137616907Y-90845816D01*
X137560293Y-90828643D01*
X137403771Y-90744979D01*
X137403769Y-90744978D01*
X137346832Y-90698251D01*
X137266574Y-90632386D01*
X137183312Y-90530929D01*
X137153982Y-90495191D01*
X137084284Y-90364797D01*
X137070317Y-90338667D01*
X137053144Y-90282053D01*
X137018797Y-90168827D01*
X137001401Y-89992200D01*
X137018797Y-89815573D01*
X137070317Y-89645734D01*
X137070317Y-89645733D01*
X137153981Y-89489211D01*
X137153982Y-89489209D01*
X137215689Y-89414019D01*
X137266574Y-89352014D01*
X137368031Y-89268752D01*
X137403769Y-89239422D01*
X137495233Y-89190533D01*
X137560293Y-89155757D01*
X137616907Y-89138584D01*
X137730133Y-89104237D01*
X137796318Y-89097718D01*
X137862500Y-89091200D01*
X137951020Y-89091200D01*
X138017202Y-89097718D01*
X138017202Y-89097718D01*
G37*
G36*
X100876827Y-88649037D02*
X100990053Y-88683384D01*
X101046667Y-88700557D01*
X101185287Y-88774652D01*
X101203191Y-88784222D01*
X101238929Y-88813552D01*
X101340386Y-88896814D01*
X101423648Y-88998271D01*
X101452978Y-89034009D01*
X101536643Y-89190534D01*
X101588163Y-89360374D01*
X101601200Y-89492743D01*
X101601200Y-89831258D01*
X101588163Y-89963627D01*
X101579495Y-89992200D01*
X101536643Y-90133467D01*
X101517743Y-90168825D01*
X101452978Y-90289991D01*
X101423648Y-90325729D01*
X101340386Y-90427186D01*
X101203189Y-90539779D01*
X101046666Y-90623443D01*
X101017184Y-90632386D01*
X100876826Y-90674963D01*
X100700200Y-90692359D01*
X100523573Y-90674963D01*
X100383215Y-90632386D01*
X100353733Y-90623443D01*
X100197211Y-90539779D01*
X100197209Y-90539778D01*
X100142880Y-90495191D01*
X100060014Y-90427186D01*
X99947421Y-90289989D01*
X99863757Y-90133466D01*
X99820905Y-89992200D01*
X99812237Y-89963626D01*
X99799200Y-89831257D01*
X99799200Y-89492742D01*
X99812237Y-89360373D01*
X99863757Y-89190534D01*
X99863757Y-89190533D01*
X99947422Y-89034008D01*
X100060012Y-88896817D01*
X100117911Y-88849301D01*
X100197210Y-88784222D01*
X100215114Y-88774652D01*
X100353734Y-88700557D01*
X100410348Y-88683384D01*
X100523574Y-88649037D01*
X100700200Y-88631641D01*
X100876827Y-88649037D01*
X100876827Y-88649037D01*
G37*
G36*
X98376827Y-88649037D02*
X98490053Y-88683384D01*
X98546667Y-88700557D01*
X98685287Y-88774652D01*
X98703191Y-88784222D01*
X98738929Y-88813552D01*
X98840386Y-88896814D01*
X98923648Y-88998271D01*
X98952978Y-89034009D01*
X99036643Y-89190534D01*
X99088163Y-89360374D01*
X99101200Y-89492743D01*
X99101200Y-89831258D01*
X99088163Y-89963627D01*
X99079495Y-89992200D01*
X99036643Y-90133467D01*
X99017743Y-90168825D01*
X98952978Y-90289991D01*
X98923648Y-90325729D01*
X98840386Y-90427186D01*
X98703189Y-90539779D01*
X98546666Y-90623443D01*
X98517184Y-90632386D01*
X98376826Y-90674963D01*
X98200200Y-90692359D01*
X98023573Y-90674963D01*
X97883215Y-90632386D01*
X97853733Y-90623443D01*
X97697211Y-90539779D01*
X97697209Y-90539778D01*
X97642880Y-90495191D01*
X97560014Y-90427186D01*
X97447421Y-90289989D01*
X97363757Y-90133466D01*
X97320905Y-89992200D01*
X97312237Y-89963626D01*
X97299200Y-89831257D01*
X97299200Y-89492742D01*
X97312237Y-89360373D01*
X97363757Y-89190534D01*
X97363757Y-89190533D01*
X97447422Y-89034008D01*
X97560012Y-88896817D01*
X97617911Y-88849301D01*
X97697210Y-88784222D01*
X97715114Y-88774652D01*
X97853734Y-88700557D01*
X97910348Y-88683384D01*
X98023574Y-88649037D01*
X98200200Y-88631641D01*
X98376827Y-88649037D01*
X98376827Y-88649037D01*
G37*
G36*
X95876827Y-88649037D02*
X95990053Y-88683384D01*
X96046667Y-88700557D01*
X96185287Y-88774652D01*
X96203191Y-88784222D01*
X96238929Y-88813552D01*
X96340386Y-88896814D01*
X96423648Y-88998271D01*
X96452978Y-89034009D01*
X96536643Y-89190534D01*
X96588163Y-89360374D01*
X96601200Y-89492743D01*
X96601200Y-89831258D01*
X96588163Y-89963627D01*
X96579495Y-89992200D01*
X96536643Y-90133467D01*
X96517743Y-90168825D01*
X96452978Y-90289991D01*
X96423648Y-90325729D01*
X96340386Y-90427186D01*
X96203189Y-90539779D01*
X96046666Y-90623443D01*
X96017184Y-90632386D01*
X95876826Y-90674963D01*
X95700200Y-90692359D01*
X95523573Y-90674963D01*
X95383215Y-90632386D01*
X95353733Y-90623443D01*
X95197211Y-90539779D01*
X95197209Y-90539778D01*
X95142880Y-90495191D01*
X95060014Y-90427186D01*
X94947421Y-90289989D01*
X94863757Y-90133466D01*
X94820905Y-89992200D01*
X94812237Y-89963626D01*
X94799200Y-89831257D01*
X94799200Y-89492742D01*
X94812237Y-89360373D01*
X94863757Y-89190534D01*
X94863757Y-89190533D01*
X94947422Y-89034008D01*
X95060012Y-88896817D01*
X95117911Y-88849301D01*
X95197210Y-88784222D01*
X95215114Y-88774652D01*
X95353734Y-88700557D01*
X95410348Y-88683384D01*
X95523574Y-88649037D01*
X95700200Y-88631641D01*
X95876827Y-88649037D01*
X95876827Y-88649037D01*
G37*
G36*
X103958800Y-88639989D02*
X103991849Y-88650014D01*
X104022306Y-88666294D01*
X104048999Y-88688201D01*
X104070906Y-88714894D01*
X104087186Y-88745351D01*
X104097211Y-88778400D01*
X104101200Y-88818904D01*
X104101200Y-90505096D01*
X104097211Y-90545600D01*
X104087186Y-90578649D01*
X104070906Y-90609106D01*
X104048999Y-90635799D01*
X104022306Y-90657706D01*
X103991849Y-90673986D01*
X103958800Y-90684011D01*
X103918296Y-90688000D01*
X102482104Y-90688000D01*
X102441600Y-90684011D01*
X102408551Y-90673986D01*
X102378094Y-90657706D01*
X102351401Y-90635799D01*
X102329494Y-90609106D01*
X102313214Y-90578649D01*
X102303189Y-90545600D01*
X102299200Y-90505096D01*
X102299200Y-88818904D01*
X102303189Y-88778400D01*
X102313214Y-88745351D01*
X102329494Y-88714894D01*
X102351401Y-88688201D01*
X102378094Y-88666294D01*
X102408551Y-88650014D01*
X102441600Y-88639989D01*
X102482104Y-88636000D01*
X103918296Y-88636000D01*
X103958800Y-88639989D01*
X103958800Y-88639989D01*
G37*
G36*
X60567523Y-87766759D02*
X60633707Y-87773277D01*
X60746933Y-87807624D01*
X60803547Y-87824797D01*
X60942167Y-87898892D01*
X60960071Y-87908462D01*
X60995809Y-87937792D01*
X61097266Y-88021054D01*
X61180528Y-88122511D01*
X61209858Y-88158249D01*
X61209859Y-88158251D01*
X61293523Y-88314773D01*
X61293523Y-88314774D01*
X61345043Y-88484613D01*
X61362439Y-88661240D01*
X61345043Y-88837867D01*
X61325892Y-88901000D01*
X61293523Y-89007707D01*
X61279464Y-89034009D01*
X61209858Y-89164231D01*
X61180528Y-89199969D01*
X61097266Y-89301426D01*
X61025435Y-89360375D01*
X60960071Y-89414018D01*
X60960069Y-89414019D01*
X60803547Y-89497683D01*
X60746933Y-89514856D01*
X60633707Y-89549203D01*
X60567523Y-89555721D01*
X60501340Y-89562240D01*
X60412820Y-89562240D01*
X60346637Y-89555721D01*
X60280453Y-89549203D01*
X60167227Y-89514856D01*
X60110613Y-89497683D01*
X59954091Y-89414019D01*
X59954089Y-89414018D01*
X59888725Y-89360375D01*
X59816894Y-89301426D01*
X59733632Y-89199969D01*
X59704302Y-89164231D01*
X59634696Y-89034009D01*
X59620637Y-89007707D01*
X59588268Y-88901000D01*
X59569117Y-88837867D01*
X59551721Y-88661240D01*
X59569117Y-88484613D01*
X59620637Y-88314774D01*
X59620637Y-88314773D01*
X59704301Y-88158251D01*
X59704302Y-88158249D01*
X59733632Y-88122511D01*
X59816894Y-88021054D01*
X59918351Y-87937792D01*
X59954089Y-87908462D01*
X59971993Y-87898892D01*
X60110613Y-87824797D01*
X60167227Y-87807624D01*
X60280453Y-87773277D01*
X60346637Y-87766759D01*
X60412820Y-87760240D01*
X60501340Y-87760240D01*
X60567523Y-87766759D01*
X60567523Y-87766759D01*
G37*
G36*
X58027523Y-87766759D02*
X58093707Y-87773277D01*
X58206933Y-87807624D01*
X58263547Y-87824797D01*
X58402167Y-87898892D01*
X58420071Y-87908462D01*
X58455809Y-87937792D01*
X58557266Y-88021054D01*
X58640528Y-88122511D01*
X58669858Y-88158249D01*
X58669859Y-88158251D01*
X58753523Y-88314773D01*
X58753523Y-88314774D01*
X58805043Y-88484613D01*
X58822439Y-88661240D01*
X58805043Y-88837867D01*
X58785892Y-88901000D01*
X58753523Y-89007707D01*
X58739464Y-89034009D01*
X58669858Y-89164231D01*
X58640528Y-89199969D01*
X58557266Y-89301426D01*
X58485435Y-89360375D01*
X58420071Y-89414018D01*
X58420069Y-89414019D01*
X58263547Y-89497683D01*
X58206933Y-89514856D01*
X58093707Y-89549203D01*
X58027523Y-89555721D01*
X57961340Y-89562240D01*
X57872820Y-89562240D01*
X57806637Y-89555721D01*
X57740453Y-89549203D01*
X57627227Y-89514856D01*
X57570613Y-89497683D01*
X57414091Y-89414019D01*
X57414089Y-89414018D01*
X57348725Y-89360375D01*
X57276894Y-89301426D01*
X57193632Y-89199969D01*
X57164302Y-89164231D01*
X57094696Y-89034009D01*
X57080637Y-89007707D01*
X57048268Y-88901000D01*
X57029117Y-88837867D01*
X57011721Y-88661240D01*
X57029117Y-88484613D01*
X57080637Y-88314774D01*
X57080637Y-88314773D01*
X57164301Y-88158251D01*
X57164302Y-88158249D01*
X57193632Y-88122511D01*
X57276894Y-88021054D01*
X57378351Y-87937792D01*
X57414089Y-87908462D01*
X57431993Y-87898892D01*
X57570613Y-87824797D01*
X57627227Y-87807624D01*
X57740453Y-87773277D01*
X57806637Y-87766759D01*
X57872820Y-87760240D01*
X57961340Y-87760240D01*
X58027523Y-87766759D01*
X58027523Y-87766759D01*
G37*
G36*
X55487523Y-87766759D02*
X55553707Y-87773277D01*
X55666933Y-87807624D01*
X55723547Y-87824797D01*
X55862167Y-87898892D01*
X55880071Y-87908462D01*
X55915809Y-87937792D01*
X56017266Y-88021054D01*
X56100528Y-88122511D01*
X56129858Y-88158249D01*
X56129859Y-88158251D01*
X56213523Y-88314773D01*
X56213523Y-88314774D01*
X56265043Y-88484613D01*
X56282439Y-88661240D01*
X56265043Y-88837867D01*
X56245892Y-88901000D01*
X56213523Y-89007707D01*
X56199464Y-89034009D01*
X56129858Y-89164231D01*
X56100528Y-89199969D01*
X56017266Y-89301426D01*
X55945435Y-89360375D01*
X55880071Y-89414018D01*
X55880069Y-89414019D01*
X55723547Y-89497683D01*
X55666933Y-89514856D01*
X55553707Y-89549203D01*
X55487523Y-89555721D01*
X55421340Y-89562240D01*
X55332820Y-89562240D01*
X55266637Y-89555721D01*
X55200453Y-89549203D01*
X55087227Y-89514856D01*
X55030613Y-89497683D01*
X54874091Y-89414019D01*
X54874089Y-89414018D01*
X54808725Y-89360375D01*
X54736894Y-89301426D01*
X54653632Y-89199969D01*
X54624302Y-89164231D01*
X54554696Y-89034009D01*
X54540637Y-89007707D01*
X54508268Y-88901000D01*
X54489117Y-88837867D01*
X54471721Y-88661240D01*
X54489117Y-88484613D01*
X54540637Y-88314774D01*
X54540637Y-88314773D01*
X54624301Y-88158251D01*
X54624302Y-88158249D01*
X54653632Y-88122511D01*
X54736894Y-88021054D01*
X54838351Y-87937792D01*
X54874089Y-87908462D01*
X54891993Y-87898892D01*
X55030613Y-87824797D01*
X55087227Y-87807624D01*
X55200453Y-87773277D01*
X55266637Y-87766759D01*
X55332820Y-87760240D01*
X55421340Y-87760240D01*
X55487523Y-87766759D01*
X55487523Y-87766759D01*
G37*
G36*
X138017202Y-86557718D02*
X138083387Y-86564237D01*
X138196613Y-86598584D01*
X138253227Y-86615757D01*
X138391847Y-86689852D01*
X138409751Y-86699422D01*
X138437980Y-86722589D01*
X138546946Y-86812014D01*
X138630208Y-86913471D01*
X138659538Y-86949209D01*
X138659539Y-86949211D01*
X138743203Y-87105733D01*
X138743203Y-87105734D01*
X138794723Y-87275573D01*
X138812119Y-87452200D01*
X138794723Y-87628827D01*
X138760376Y-87742053D01*
X138743203Y-87798667D01*
X138729236Y-87824797D01*
X138659538Y-87955191D01*
X138630208Y-87990929D01*
X138546946Y-88092386D01*
X138466688Y-88158251D01*
X138409751Y-88204978D01*
X138409749Y-88204979D01*
X138253227Y-88288643D01*
X138196613Y-88305816D01*
X138083387Y-88340163D01*
X138017203Y-88346681D01*
X137951020Y-88353200D01*
X137862500Y-88353200D01*
X137796317Y-88346681D01*
X137730133Y-88340163D01*
X137616907Y-88305816D01*
X137560293Y-88288643D01*
X137403771Y-88204979D01*
X137403769Y-88204978D01*
X137346832Y-88158251D01*
X137266574Y-88092386D01*
X137183312Y-87990929D01*
X137153982Y-87955191D01*
X137084284Y-87824797D01*
X137070317Y-87798667D01*
X137053144Y-87742053D01*
X137018797Y-87628827D01*
X137001401Y-87452200D01*
X137018797Y-87275573D01*
X137070317Y-87105734D01*
X137070317Y-87105733D01*
X137153981Y-86949211D01*
X137153982Y-86949209D01*
X137183312Y-86913471D01*
X137266574Y-86812014D01*
X137375540Y-86722589D01*
X137403769Y-86699422D01*
X137421673Y-86689852D01*
X137560293Y-86615757D01*
X137616907Y-86598584D01*
X137730133Y-86564237D01*
X137796318Y-86557718D01*
X137862500Y-86551200D01*
X137951020Y-86551200D01*
X138017202Y-86557718D01*
X138017202Y-86557718D01*
G37*
G36*
X113239395Y-85321596D02*
X113345750Y-85342751D01*
X113416590Y-85372094D01*
X113546116Y-85425745D01*
X113726450Y-85546241D01*
X113879799Y-85699590D01*
X114000295Y-85879924D01*
X114083289Y-86080291D01*
X114125600Y-86293000D01*
X114125600Y-86509880D01*
X114104539Y-86615757D01*
X114087898Y-86699421D01*
X114083289Y-86722589D01*
X114000295Y-86922956D01*
X113879799Y-87103290D01*
X113726450Y-87256639D01*
X113726447Y-87256641D01*
X113726446Y-87256642D01*
X113546119Y-87377133D01*
X113546116Y-87377135D01*
X113416590Y-87430786D01*
X113345750Y-87460129D01*
X113239395Y-87481284D01*
X113133040Y-87502440D01*
X112916160Y-87502440D01*
X112809805Y-87481284D01*
X112703450Y-87460129D01*
X112632610Y-87430786D01*
X112503084Y-87377135D01*
X112503081Y-87377133D01*
X112322754Y-87256642D01*
X112322753Y-87256641D01*
X112322750Y-87256639D01*
X112169401Y-87103290D01*
X112048905Y-86922956D01*
X111965911Y-86722589D01*
X111961303Y-86699421D01*
X111944661Y-86615757D01*
X111923600Y-86509880D01*
X111923600Y-86293000D01*
X111965911Y-86080291D01*
X112048905Y-85879924D01*
X112169401Y-85699590D01*
X112322750Y-85546241D01*
X112503084Y-85425745D01*
X112632610Y-85372094D01*
X112703450Y-85342751D01*
X112809805Y-85321596D01*
X112916160Y-85300440D01*
X113133040Y-85300440D01*
X113239395Y-85321596D01*
X113239395Y-85321596D01*
G37*
G36*
X120249395Y-85321596D02*
X120355750Y-85342751D01*
X120426590Y-85372094D01*
X120556116Y-85425745D01*
X120736450Y-85546241D01*
X120889799Y-85699590D01*
X121010295Y-85879924D01*
X121093289Y-86080291D01*
X121135600Y-86293000D01*
X121135600Y-86509880D01*
X121114539Y-86615757D01*
X121097898Y-86699421D01*
X121093289Y-86722589D01*
X121010295Y-86922956D01*
X120889799Y-87103290D01*
X120736450Y-87256639D01*
X120736447Y-87256641D01*
X120736446Y-87256642D01*
X120556119Y-87377133D01*
X120556116Y-87377135D01*
X120426590Y-87430786D01*
X120355750Y-87460129D01*
X120249395Y-87481284D01*
X120143040Y-87502440D01*
X119926160Y-87502440D01*
X119819805Y-87481284D01*
X119713450Y-87460129D01*
X119642610Y-87430786D01*
X119513084Y-87377135D01*
X119513081Y-87377133D01*
X119332754Y-87256642D01*
X119332753Y-87256641D01*
X119332750Y-87256639D01*
X119179401Y-87103290D01*
X119058905Y-86922956D01*
X118975911Y-86722589D01*
X118971303Y-86699421D01*
X118954661Y-86615757D01*
X118933600Y-86509880D01*
X118933600Y-86293000D01*
X118975911Y-86080291D01*
X119058905Y-85879924D01*
X119179401Y-85699590D01*
X119332750Y-85546241D01*
X119513084Y-85425745D01*
X119642610Y-85372094D01*
X119713450Y-85342751D01*
X119819805Y-85321596D01*
X119926160Y-85300440D01*
X120143040Y-85300440D01*
X120249395Y-85321596D01*
X120249395Y-85321596D01*
G37*
G36*
X138807760Y-85813200D02*
X137005760Y-85813200D01*
X137005760Y-84011200D01*
X138807760Y-84011200D01*
X138807760Y-85813200D01*
X138807760Y-85813200D01*
G37*
G36*
X119044704Y-83021025D02*
X119213226Y-83090829D01*
X119364891Y-83192168D01*
X119493872Y-83321149D01*
X119595211Y-83472814D01*
X119665015Y-83641336D01*
X119700600Y-83820237D01*
X119700600Y-84002643D01*
X119665015Y-84181544D01*
X119595211Y-84350066D01*
X119493872Y-84501731D01*
X119364891Y-84630712D01*
X119213226Y-84732051D01*
X119044704Y-84801855D01*
X118865803Y-84837440D01*
X118683397Y-84837440D01*
X118504496Y-84801855D01*
X118335974Y-84732051D01*
X118184309Y-84630712D01*
X118055328Y-84501731D01*
X117953989Y-84350066D01*
X117884185Y-84181544D01*
X117848600Y-84002643D01*
X117848600Y-83820237D01*
X117884185Y-83641336D01*
X117953989Y-83472814D01*
X118055328Y-83321149D01*
X118184309Y-83192168D01*
X118335974Y-83090829D01*
X118504496Y-83021025D01*
X118683397Y-82985440D01*
X118865803Y-82985440D01*
X119044704Y-83021025D01*
X119044704Y-83021025D01*
G37*
G36*
X114544704Y-83021025D02*
X114713226Y-83090829D01*
X114864891Y-83192168D01*
X114993872Y-83321149D01*
X115095211Y-83472814D01*
X115165015Y-83641336D01*
X115200600Y-83820237D01*
X115200600Y-84002643D01*
X115165015Y-84181544D01*
X115095211Y-84350066D01*
X114993872Y-84501731D01*
X114864891Y-84630712D01*
X114713226Y-84732051D01*
X114544704Y-84801855D01*
X114365803Y-84837440D01*
X114183397Y-84837440D01*
X114004496Y-84801855D01*
X113835974Y-84732051D01*
X113684309Y-84630712D01*
X113555328Y-84501731D01*
X113453989Y-84350066D01*
X113384185Y-84181544D01*
X113348600Y-84002643D01*
X113348600Y-83820237D01*
X113384185Y-83641336D01*
X113453989Y-83472814D01*
X113555328Y-83321149D01*
X113684309Y-83192168D01*
X113835974Y-83090829D01*
X114004496Y-83021025D01*
X114183397Y-82985440D01*
X114365803Y-82985440D01*
X114544704Y-83021025D01*
X114544704Y-83021025D01*
G37*
G36*
X49703174Y-80305312D02*
X49912642Y-80392076D01*
X50101163Y-80518042D01*
X50261478Y-80678357D01*
X50387444Y-80866878D01*
X50474208Y-81076346D01*
X50518440Y-81298715D01*
X50518440Y-81525445D01*
X50474208Y-81747814D01*
X50387444Y-81957282D01*
X50261478Y-82145803D01*
X50101163Y-82306118D01*
X49912642Y-82432084D01*
X49703174Y-82518848D01*
X49480805Y-82563080D01*
X49254075Y-82563080D01*
X49031706Y-82518848D01*
X48822238Y-82432084D01*
X48633717Y-82306118D01*
X48473402Y-82145803D01*
X48347436Y-81957282D01*
X48260672Y-81747814D01*
X48216440Y-81525445D01*
X48216440Y-81298715D01*
X48260672Y-81076346D01*
X48347436Y-80866878D01*
X48473402Y-80678357D01*
X48633717Y-80518042D01*
X48822238Y-80392076D01*
X49031706Y-80305312D01*
X49254075Y-80261080D01*
X49480805Y-80261080D01*
X49703174Y-80305312D01*
X49703174Y-80305312D01*
G37*
G36*
X143297094Y-80300232D02*
X143506562Y-80386996D01*
X143695083Y-80512962D01*
X143855398Y-80673277D01*
X143981364Y-80861798D01*
X144068128Y-81071266D01*
X144112360Y-81293635D01*
X144112360Y-81520365D01*
X144068128Y-81742734D01*
X143981364Y-81952202D01*
X143855398Y-82140723D01*
X143695083Y-82301038D01*
X143506562Y-82427004D01*
X143297094Y-82513768D01*
X143074725Y-82558000D01*
X142847995Y-82558000D01*
X142625626Y-82513768D01*
X142416158Y-82427004D01*
X142227637Y-82301038D01*
X142067322Y-82140723D01*
X141941356Y-81952202D01*
X141854592Y-81742734D01*
X141810360Y-81520365D01*
X141810360Y-81293635D01*
X141854592Y-81071266D01*
X141941356Y-80861798D01*
X142067322Y-80673277D01*
X142227637Y-80512962D01*
X142416158Y-80386996D01*
X142625626Y-80300232D01*
X142847995Y-80256000D01*
X143074725Y-80256000D01*
X143297094Y-80300232D01*
X143297094Y-80300232D01*
G37*
M02*
