M48
;DRILL file {KiCad (6.0.0-rc1-dev-1030-g80d50d98b)} date Thursday, March 21, 2019 at 09:47:00 AM
;FORMAT={-:-/ absolute / metric / decimal}
FMAT,2
METRIC
T1C0.200
T2C0.254
T3C0.950
T4C0.990
T5C1.000
T6C1.300
T7C2.200
%
G90
G05
M71
T1
X98.492Y-98.822
X98.492Y-99.822
X98.492Y-100.822
X99.492Y-98.822
X99.492Y-99.822
X99.492Y-100.822
X100.492Y-98.822
X100.492Y-99.822
X100.492Y-100.822
X99.813Y-124.133
X99.813Y-125.133
X99.813Y-126.133
X100.813Y-124.133
X100.813Y-125.133
X100.813Y-126.133
X101.813Y-124.133
X101.813Y-125.133
X101.813Y-126.133
T2
X54.112Y-128.636
X54.132Y-120.614
X54.158Y-125.796
X54.63Y-126.741
X54.92Y-107.676
X54.92Y-108.93
X55.036Y-111.481
X55.036Y-115.291
X56.962Y-126.065
X57.765Y-95.448
X57.902Y-127.056
X59.39Y-136.987
X59.665Y-111.765
X59.695Y-107.483
X59.72Y-113.416
X59.726Y-110.393
X59.726Y-114.742
X59.756Y-108.666
X60.066Y-128.295
X60.295Y-114.107
X60.32Y-134.107
X60.34Y-108.067
X60.366Y-111.079
X60.97Y-108.666
X60.996Y-114.727
X61.021Y-111.735
X61.021Y-113.441
X61.036Y-107.406
X61.036Y-110.409
X61.448Y-125.827
X61.488Y-85.181
X61.819Y-128.839
X62.682Y-111.75
X62.682Y-113.411
X62.682Y-114.788
X62.702Y-107.401
X62.713Y-108.717
X62.728Y-110.424
X63.271Y-121.976
X63.343Y-114.061
X63.368Y-111.079
X63.378Y-108.077
X63.546Y-126.243
X63.993Y-111.735
X64.008Y-108.727
X64.018Y-107.422
X64.038Y-110.378
X64.049Y-114.747
X64.059Y-113.391
X64.496Y-89.639
X64.963Y-95.575
X65.395Y-90.683
X65.42Y-136.698
X65.684Y-97.323
X65.689Y-107.412
X65.689Y-108.748
X65.689Y-111.709
X65.7Y-130.581
X65.72Y-113.416
X65.72Y-114.732
X65.725Y-110.434
X66.36Y-114.076
X66.37Y-108.047
X66.38Y-111.125
X66.995Y-113.416
X67.02Y-107.422
X67.031Y-110.434
X67.031Y-110.434
X67.031Y-110.434
X67.031Y-111.73
X67.041Y-114.767
X67.051Y-108.727
X67.833Y-98.074
X68.511Y-125.171
X69.159Y-124.536
X69.418Y-91.638
X69.832Y-123.952
X70.238Y-123.088
X70.399Y-121.955
X71.262Y-119.736
X71.389Y-105.7
X72.504Y-116.606
X72.964Y-97.297
X73.97Y-93.015
X76.164Y-103.52
X76.291Y-100.533
X76.801Y-117.517
X76.813Y-113.948
X77.226Y-115.082
X77.379Y-118.77
X77.597Y-82.57
X77.658Y-84.028
X78.285Y-85.456
X78.576Y-82.742
X78.669Y-107.996
X80.564Y-134.336
X80.589Y-128.849
X80.988Y-113.335
X81.712Y-107.559
X81.75Y-114.135
X82.758Y-91.074
X83.287Y-115.301
X84.618Y-118.542
X84.663Y-101.615
X88.717Y-139.664
X88.788Y-106.726
X88.864Y-115.301
X89.53Y-87.701
X90.487Y-116.357
X90.714Y-119.365
X90.742Y-118.123
X90.817Y-117.045
X91.191Y-97.536
X92.461Y-123.012
X92.644Y-100.244
X92.789Y-119.365
X92.862Y-91.796
X92.949Y-109.403
X93.269Y-120.213
X93.955Y-121.933
X94.046Y-92.573
X94.056Y-100.355
X94.066Y-91.156
X94.163Y-132.618
X94.539Y-103.764
X94.564Y-96.215
X94.996Y-123.888
X94.998Y-117.31
X95.021Y-121.983
X95.032Y-133.259
X95.118Y-131.912
X95.143Y-97.302
X95.184Y-120.254
X95.362Y-104.963
X95.631Y-125.971
X95.86Y-128.765
X95.992Y-103.556
X96.962Y-92.542
X96.982Y-119.786
X97.178Y-105.766
X97.31Y-116.878
X97.485Y-96.545
X97.942Y-120.564
X98.003Y-119.233
X98.293Y-132.436
X98.603Y-128.283
X98.895Y-105.994
X99.477Y-91.836
X99.52Y-116.878
X99.53Y-109.957
X100.193Y-119.273
X100.411Y-106.182
X100.658Y-108.837
X100.828Y-133.06
X101.486Y-119.926
X101.702Y-96.672
X101.945Y-92.588
X102.103Y-104.567
X102.281Y-105.75
X102.819Y-128.41
X102.933Y-110.744
X102.944Y-108.811
X102.972Y-120.307
X103.246Y-105.156
X103.388Y-132.37
X104.445Y-96.19
X104.551Y-97.76
X104.658Y-104.491
X104.673Y-98.984
X104.861Y-92.883
X105.044Y-91.288
X105.268Y-108.837
X105.268Y-110.767
X105.308Y-101.067
X105.308Y-102.921
X105.74Y-128.74
X106.06Y-121.255
X106.213Y-92.41
X106.223Y-131.887
X106.248Y-124.6
X106.261Y-102.908
X106.385Y-133.264
X106.497Y-120.172
X106.893Y-117.206
X107.163Y-121.046
X107.391Y-132.568
X107.516Y-108.811
X107.516Y-110.716
X107.61Y-94.772
X108.549Y-128.082
X109.281Y-132.281
X109.281Y-140.442
X109.591Y-107.041
X111.018Y-115.545
X111.13Y-113.05
X117.18Y-102.631
X118.613Y-143.54
X118.623Y-92.283
X118.69Y-104.999
X118.69Y-114.727
X121.285Y-104.45
X122.189Y-93.65
X125.588Y-86.279
X128.295Y-131.607
X128.367Y-137.714
X130.701Y-121.185
X133.025Y-135.113
X133.06Y-140.142
X133.076Y-127.554
X137.043Y-137.475
X137.841Y-131.497
T3
X97.104Y-135.293
X99.604Y-135.293
X102.104Y-135.293
X104.604Y-135.293
X95.7Y-89.662
X98.2Y-89.662
X100.7Y-89.662
X103.2Y-89.662
X72.075Y-135.514
X74.575Y-135.514
X77.075Y-135.514
X72.246Y-127.818
X74.746Y-127.818
X77.246Y-127.818
T4
X114.275Y-83.911
X118.775Y-83.911
T5
X54.966Y-133.746
X54.966Y-136.246
X84.399Y-135.545
X86.899Y-135.545
X84.282Y-127.798
X86.782Y-127.798
X116.19Y-123.205
X118.69Y-123.205
X116.197Y-136.83
X118.697Y-136.83
X116.19Y-107.996
X118.69Y-107.996
X116.042Y-96.423
X118.542Y-96.423
X87.889Y-95.458
X87.889Y-97.998
X137.907Y-84.912
X137.907Y-87.452
X137.907Y-89.992
X137.907Y-92.532
X137.907Y-95.072
X137.907Y-97.612
X137.907Y-100.152
X137.907Y-102.692
X137.907Y-105.232
X137.907Y-107.772
X137.907Y-110.312
X54.707Y-141.834
X57.247Y-141.834
X59.787Y-141.834
X62.327Y-141.834
X64.867Y-141.834
X67.407Y-141.834
X69.947Y-141.834
X72.487Y-141.834
X75.027Y-141.834
X77.567Y-141.834
X80.107Y-141.834
X82.647Y-141.834
X55.377Y-88.661
X55.377Y-91.201
X57.917Y-88.661
X57.917Y-91.201
X60.457Y-88.661
X60.457Y-91.201
X137.932Y-116.398
X137.932Y-118.938
X137.932Y-121.478
X137.932Y-124.018
X57.467Y-123.126
X60.008Y-123.126
T6
X113.025Y-86.401
X120.035Y-86.401
T7
X49.261Y-140.736
X49.367Y-81.412
X142.799Y-140.762
X142.961Y-81.407
T5
G00X131.726Y-131.497
M15
G01X134.426Y-131.497
M16
G05
G00X131.976Y-137.497
M15
G01X134.176Y-137.497
M16
G05
T0
M30
