M48
;DRILL file {KiCad (6.0.0-rc1-dev-1030-g80d50d98b)} date Friday, January 25, 2019 at 02:04:44 PM
;FORMAT={-:-/ absolute / metric / decimal}
FMAT,2
METRIC
T1C0.254
T2C0.990
T3C1.000
T4C1.300
T5C2.200
%
G90
G05
M71
T1
X119.761Y-97.358
X119.786Y-92.177
X119.786Y-93.574
X119.786Y-94.894
X119.786Y-96.114
X119.786Y-98.628
X120.396Y-120.777
X121.031Y-98.654
X121.234Y-92.1
X121.61Y-111.506
X121.61Y-115.316
X121.615Y-107.696
X122.149Y-112.776
X122.174Y-117.856
X122.479Y-108.966
X124.079Y-101.143
X124.104Y-98.73
X124.993Y-101.117
X126.365Y-108.102
X126.416Y-114.097
X126.441Y-111.15
X127.178Y-108.864
X127.203Y-107.29
X127.203Y-110.338
X127.203Y-111.887
X127.203Y-113.335
X127.203Y-114.884
X127.991Y-114.071
X128.016Y-108.128
X128.016Y-111.15
X129.413Y-108.077
X129.413Y-114.122
X129.464Y-111.15
X130.175Y-110.312
X130.175Y-111.887
X130.175Y-113.309
X130.2Y-107.315
X130.2Y-108.864
X130.2Y-114.884
X130.528Y-94.846
X130.962Y-111.15
X131.013Y-108.077
X131.013Y-114.122
X132.41Y-108.077
X132.41Y-114.122
X132.436Y-111.125
X132.461Y-101.016
X133.198Y-110.312
X133.198Y-111.887
X133.198Y-113.309
X133.198Y-114.884
X133.223Y-107.29
X133.223Y-108.864
X133.782Y-96.266
X133.985Y-114.097
X134.01Y-108.052
X134.01Y-111.15
X134.874Y-97.028
X135.763Y-97.917
X135.763Y-104.191
X136.398Y-122.936
X138.049Y-99.483
X139.827Y-95.123
X142.875Y-107.823
X142.9Y-115.291
X143.51Y-122.428
X144.018Y-111.252
X144.272Y-123.317
X145.034Y-107.95
X147.066Y-124.079
X147.447Y-105.537
X147.574Y-98.577
X148.184Y-100.99
X148.438Y-93.142
X150.571Y-122.987
X150.622Y-125.146
X154.356Y-98.577
X154.356Y-109.347
X158.09Y-124.663
X158.445Y-94.818
X160.172Y-98.247
X160.198Y-97.028
X160.782Y-97.612
X161.239Y-122.908
X161.341Y-94.818
X161.366Y-97.003
X161.366Y-98.222
X162.382Y-107.01
X163.576Y-125.374
X164.084Y-109.017
X164.084Y-110.16
X164.643Y-109.576
X164.866Y-124.231
X165.202Y-108.966
X165.227Y-110.16
X165.252Y-106.756
X165.532Y-92.405
X169.189Y-103.022
X171.907Y-125.044
T2
X162.022Y-128.981
X166.522Y-128.981
T3
X121.412Y-127.254
X121.412Y-129.794
X123.952Y-127.254
X123.952Y-129.794
X126.492Y-127.254
X126.492Y-129.794
X129.032Y-127.254
X129.032Y-129.794
X131.572Y-127.254
X131.572Y-129.794
X134.112Y-127.254
X134.112Y-129.794
X136.652Y-127.254
X136.652Y-129.794
X139.192Y-127.254
X139.192Y-129.794
X141.732Y-127.254
X141.732Y-129.794
X144.272Y-127.254
X144.272Y-129.794
X146.812Y-127.254
X146.812Y-129.794
X149.352Y-127.254
X149.352Y-129.794
X151.892Y-127.254
X151.892Y-129.794
X154.432Y-127.254
X154.432Y-129.794
X156.972Y-127.254
X156.972Y-129.794
X121.92Y-93.853
X121.92Y-96.393
X124.46Y-93.853
X124.46Y-96.393
X127.0Y-93.853
X127.0Y-96.393
X151.257Y-103.505
X151.257Y-106.045
X151.257Y-108.585
T4
X160.762Y-126.491
X167.772Y-126.491
T5
X172.11Y-94.234
X116.332Y-93.218
X172.06Y-128.321
X116.332Y-129.032
T3
G00X161.484Y-119.866
M15
G01X161.484Y-117.166
M16
G05
G00X167.484Y-119.616
M15
G01X167.484Y-117.416
M16
G05
T0
M30
