G04 #@! TF.GenerationSoftware,KiCad,Pcbnew,(6.0.0-rc1-dev-1030-g80d50d98b)*
G04 #@! TF.CreationDate,2019-01-07T10:15:23-07:00*
G04 #@! TF.ProjectId,airmed_board_w1.0,6169726D65645F626F6172645F77312E,rev?*
G04 #@! TF.SameCoordinates,Original*
G04 #@! TF.FileFunction,Soldermask,Top*
G04 #@! TF.FilePolarity,Negative*
%FSLAX46Y46*%
G04 Gerber Fmt 4.6, Leading zero omitted, Abs format (unit mm)*
G04 Created by KiCad (PCBNEW (6.0.0-rc1-dev-1030-g80d50d98b)) date Monday, January 07, 2019 at 10:15:23 AM*
%MOMM*%
%LPD*%
G01*
G04 APERTURE LIST*
%ADD10C,0.050000*%
%ADD11C,0.100000*%
G04 APERTURE END LIST*
D10*
X113487200Y-131826000D02*
X113487200Y-116027200D01*
X175641000Y-131826000D02*
X113487200Y-131826000D01*
X175641000Y-90474800D02*
X175641000Y-131826000D01*
X113487200Y-90474800D02*
X175641000Y-90474800D01*
X113487200Y-91948000D02*
X113487200Y-90474800D01*
X113487200Y-116027200D02*
X113487200Y-91948000D01*
D11*
G36*
X157082442Y-128899518D02*
X157148627Y-128906037D01*
X157261853Y-128940384D01*
X157318467Y-128957557D01*
X157457087Y-129031652D01*
X157474991Y-129041222D01*
X157491198Y-129054523D01*
X157612186Y-129153814D01*
X157692193Y-129251304D01*
X157724778Y-129291009D01*
X157724779Y-129291011D01*
X157808443Y-129447533D01*
X157808443Y-129447534D01*
X157859963Y-129617373D01*
X157877359Y-129794000D01*
X157859963Y-129970627D01*
X157825616Y-130083853D01*
X157808443Y-130140467D01*
X157785708Y-130183000D01*
X157724778Y-130296991D01*
X157695448Y-130332729D01*
X157612186Y-130434186D01*
X157510729Y-130517448D01*
X157474991Y-130546778D01*
X157474989Y-130546779D01*
X157318467Y-130630443D01*
X157261853Y-130647616D01*
X157148627Y-130681963D01*
X157082443Y-130688481D01*
X157016260Y-130695000D01*
X156927740Y-130695000D01*
X156861557Y-130688481D01*
X156795373Y-130681963D01*
X156682147Y-130647616D01*
X156625533Y-130630443D01*
X156469011Y-130546779D01*
X156469009Y-130546778D01*
X156433271Y-130517448D01*
X156331814Y-130434186D01*
X156248552Y-130332729D01*
X156219222Y-130296991D01*
X156158292Y-130183000D01*
X156135557Y-130140467D01*
X156118384Y-130083853D01*
X156084037Y-129970627D01*
X156066641Y-129794000D01*
X156084037Y-129617373D01*
X156135557Y-129447534D01*
X156135557Y-129447533D01*
X156219221Y-129291011D01*
X156219222Y-129291009D01*
X156251807Y-129251304D01*
X156331814Y-129153814D01*
X156452802Y-129054523D01*
X156469009Y-129041222D01*
X156486913Y-129031652D01*
X156625533Y-128957557D01*
X156682147Y-128940384D01*
X156795373Y-128906037D01*
X156861558Y-128899518D01*
X156927740Y-128893000D01*
X157016260Y-128893000D01*
X157082442Y-128899518D01*
X157082442Y-128899518D01*
G37*
G36*
X154542442Y-128899518D02*
X154608627Y-128906037D01*
X154721853Y-128940384D01*
X154778467Y-128957557D01*
X154917087Y-129031652D01*
X154934991Y-129041222D01*
X154951198Y-129054523D01*
X155072186Y-129153814D01*
X155152193Y-129251304D01*
X155184778Y-129291009D01*
X155184779Y-129291011D01*
X155268443Y-129447533D01*
X155268443Y-129447534D01*
X155319963Y-129617373D01*
X155337359Y-129794000D01*
X155319963Y-129970627D01*
X155285616Y-130083853D01*
X155268443Y-130140467D01*
X155245708Y-130183000D01*
X155184778Y-130296991D01*
X155155448Y-130332729D01*
X155072186Y-130434186D01*
X154970729Y-130517448D01*
X154934991Y-130546778D01*
X154934989Y-130546779D01*
X154778467Y-130630443D01*
X154721853Y-130647616D01*
X154608627Y-130681963D01*
X154542443Y-130688481D01*
X154476260Y-130695000D01*
X154387740Y-130695000D01*
X154321557Y-130688481D01*
X154255373Y-130681963D01*
X154142147Y-130647616D01*
X154085533Y-130630443D01*
X153929011Y-130546779D01*
X153929009Y-130546778D01*
X153893271Y-130517448D01*
X153791814Y-130434186D01*
X153708552Y-130332729D01*
X153679222Y-130296991D01*
X153618292Y-130183000D01*
X153595557Y-130140467D01*
X153578384Y-130083853D01*
X153544037Y-129970627D01*
X153526641Y-129794000D01*
X153544037Y-129617373D01*
X153595557Y-129447534D01*
X153595557Y-129447533D01*
X153679221Y-129291011D01*
X153679222Y-129291009D01*
X153711807Y-129251304D01*
X153791814Y-129153814D01*
X153912802Y-129054523D01*
X153929009Y-129041222D01*
X153946913Y-129031652D01*
X154085533Y-128957557D01*
X154142147Y-128940384D01*
X154255373Y-128906037D01*
X154321558Y-128899518D01*
X154387740Y-128893000D01*
X154476260Y-128893000D01*
X154542442Y-128899518D01*
X154542442Y-128899518D01*
G37*
G36*
X152002442Y-128899518D02*
X152068627Y-128906037D01*
X152181853Y-128940384D01*
X152238467Y-128957557D01*
X152377087Y-129031652D01*
X152394991Y-129041222D01*
X152411198Y-129054523D01*
X152532186Y-129153814D01*
X152612193Y-129251304D01*
X152644778Y-129291009D01*
X152644779Y-129291011D01*
X152728443Y-129447533D01*
X152728443Y-129447534D01*
X152779963Y-129617373D01*
X152797359Y-129794000D01*
X152779963Y-129970627D01*
X152745616Y-130083853D01*
X152728443Y-130140467D01*
X152705708Y-130183000D01*
X152644778Y-130296991D01*
X152615448Y-130332729D01*
X152532186Y-130434186D01*
X152430729Y-130517448D01*
X152394991Y-130546778D01*
X152394989Y-130546779D01*
X152238467Y-130630443D01*
X152181853Y-130647616D01*
X152068627Y-130681963D01*
X152002443Y-130688481D01*
X151936260Y-130695000D01*
X151847740Y-130695000D01*
X151781557Y-130688481D01*
X151715373Y-130681963D01*
X151602147Y-130647616D01*
X151545533Y-130630443D01*
X151389011Y-130546779D01*
X151389009Y-130546778D01*
X151353271Y-130517448D01*
X151251814Y-130434186D01*
X151168552Y-130332729D01*
X151139222Y-130296991D01*
X151078292Y-130183000D01*
X151055557Y-130140467D01*
X151038384Y-130083853D01*
X151004037Y-129970627D01*
X150986641Y-129794000D01*
X151004037Y-129617373D01*
X151055557Y-129447534D01*
X151055557Y-129447533D01*
X151139221Y-129291011D01*
X151139222Y-129291009D01*
X151171807Y-129251304D01*
X151251814Y-129153814D01*
X151372802Y-129054523D01*
X151389009Y-129041222D01*
X151406913Y-129031652D01*
X151545533Y-128957557D01*
X151602147Y-128940384D01*
X151715373Y-128906037D01*
X151781558Y-128899518D01*
X151847740Y-128893000D01*
X151936260Y-128893000D01*
X152002442Y-128899518D01*
X152002442Y-128899518D01*
G37*
G36*
X149462442Y-128899518D02*
X149528627Y-128906037D01*
X149641853Y-128940384D01*
X149698467Y-128957557D01*
X149837087Y-129031652D01*
X149854991Y-129041222D01*
X149871198Y-129054523D01*
X149992186Y-129153814D01*
X150072193Y-129251304D01*
X150104778Y-129291009D01*
X150104779Y-129291011D01*
X150188443Y-129447533D01*
X150188443Y-129447534D01*
X150239963Y-129617373D01*
X150257359Y-129794000D01*
X150239963Y-129970627D01*
X150205616Y-130083853D01*
X150188443Y-130140467D01*
X150165708Y-130183000D01*
X150104778Y-130296991D01*
X150075448Y-130332729D01*
X149992186Y-130434186D01*
X149890729Y-130517448D01*
X149854991Y-130546778D01*
X149854989Y-130546779D01*
X149698467Y-130630443D01*
X149641853Y-130647616D01*
X149528627Y-130681963D01*
X149462443Y-130688481D01*
X149396260Y-130695000D01*
X149307740Y-130695000D01*
X149241557Y-130688481D01*
X149175373Y-130681963D01*
X149062147Y-130647616D01*
X149005533Y-130630443D01*
X148849011Y-130546779D01*
X148849009Y-130546778D01*
X148813271Y-130517448D01*
X148711814Y-130434186D01*
X148628552Y-130332729D01*
X148599222Y-130296991D01*
X148538292Y-130183000D01*
X148515557Y-130140467D01*
X148498384Y-130083853D01*
X148464037Y-129970627D01*
X148446641Y-129794000D01*
X148464037Y-129617373D01*
X148515557Y-129447534D01*
X148515557Y-129447533D01*
X148599221Y-129291011D01*
X148599222Y-129291009D01*
X148631807Y-129251304D01*
X148711814Y-129153814D01*
X148832802Y-129054523D01*
X148849009Y-129041222D01*
X148866913Y-129031652D01*
X149005533Y-128957557D01*
X149062147Y-128940384D01*
X149175373Y-128906037D01*
X149241558Y-128899518D01*
X149307740Y-128893000D01*
X149396260Y-128893000D01*
X149462442Y-128899518D01*
X149462442Y-128899518D01*
G37*
G36*
X146922442Y-128899518D02*
X146988627Y-128906037D01*
X147101853Y-128940384D01*
X147158467Y-128957557D01*
X147297087Y-129031652D01*
X147314991Y-129041222D01*
X147331198Y-129054523D01*
X147452186Y-129153814D01*
X147532193Y-129251304D01*
X147564778Y-129291009D01*
X147564779Y-129291011D01*
X147648443Y-129447533D01*
X147648443Y-129447534D01*
X147699963Y-129617373D01*
X147717359Y-129794000D01*
X147699963Y-129970627D01*
X147665616Y-130083853D01*
X147648443Y-130140467D01*
X147625708Y-130183000D01*
X147564778Y-130296991D01*
X147535448Y-130332729D01*
X147452186Y-130434186D01*
X147350729Y-130517448D01*
X147314991Y-130546778D01*
X147314989Y-130546779D01*
X147158467Y-130630443D01*
X147101853Y-130647616D01*
X146988627Y-130681963D01*
X146922443Y-130688481D01*
X146856260Y-130695000D01*
X146767740Y-130695000D01*
X146701557Y-130688481D01*
X146635373Y-130681963D01*
X146522147Y-130647616D01*
X146465533Y-130630443D01*
X146309011Y-130546779D01*
X146309009Y-130546778D01*
X146273271Y-130517448D01*
X146171814Y-130434186D01*
X146088552Y-130332729D01*
X146059222Y-130296991D01*
X145998292Y-130183000D01*
X145975557Y-130140467D01*
X145958384Y-130083853D01*
X145924037Y-129970627D01*
X145906641Y-129794000D01*
X145924037Y-129617373D01*
X145975557Y-129447534D01*
X145975557Y-129447533D01*
X146059221Y-129291011D01*
X146059222Y-129291009D01*
X146091807Y-129251304D01*
X146171814Y-129153814D01*
X146292802Y-129054523D01*
X146309009Y-129041222D01*
X146326913Y-129031652D01*
X146465533Y-128957557D01*
X146522147Y-128940384D01*
X146635373Y-128906037D01*
X146701558Y-128899518D01*
X146767740Y-128893000D01*
X146856260Y-128893000D01*
X146922442Y-128899518D01*
X146922442Y-128899518D01*
G37*
G36*
X144382442Y-128899518D02*
X144448627Y-128906037D01*
X144561853Y-128940384D01*
X144618467Y-128957557D01*
X144757087Y-129031652D01*
X144774991Y-129041222D01*
X144791198Y-129054523D01*
X144912186Y-129153814D01*
X144992193Y-129251304D01*
X145024778Y-129291009D01*
X145024779Y-129291011D01*
X145108443Y-129447533D01*
X145108443Y-129447534D01*
X145159963Y-129617373D01*
X145177359Y-129794000D01*
X145159963Y-129970627D01*
X145125616Y-130083853D01*
X145108443Y-130140467D01*
X145085708Y-130183000D01*
X145024778Y-130296991D01*
X144995448Y-130332729D01*
X144912186Y-130434186D01*
X144810729Y-130517448D01*
X144774991Y-130546778D01*
X144774989Y-130546779D01*
X144618467Y-130630443D01*
X144561853Y-130647616D01*
X144448627Y-130681963D01*
X144382443Y-130688481D01*
X144316260Y-130695000D01*
X144227740Y-130695000D01*
X144161557Y-130688481D01*
X144095373Y-130681963D01*
X143982147Y-130647616D01*
X143925533Y-130630443D01*
X143769011Y-130546779D01*
X143769009Y-130546778D01*
X143733271Y-130517448D01*
X143631814Y-130434186D01*
X143548552Y-130332729D01*
X143519222Y-130296991D01*
X143458292Y-130183000D01*
X143435557Y-130140467D01*
X143418384Y-130083853D01*
X143384037Y-129970627D01*
X143366641Y-129794000D01*
X143384037Y-129617373D01*
X143435557Y-129447534D01*
X143435557Y-129447533D01*
X143519221Y-129291011D01*
X143519222Y-129291009D01*
X143551807Y-129251304D01*
X143631814Y-129153814D01*
X143752802Y-129054523D01*
X143769009Y-129041222D01*
X143786913Y-129031652D01*
X143925533Y-128957557D01*
X143982147Y-128940384D01*
X144095373Y-128906037D01*
X144161558Y-128899518D01*
X144227740Y-128893000D01*
X144316260Y-128893000D01*
X144382442Y-128899518D01*
X144382442Y-128899518D01*
G37*
G36*
X141842442Y-128899518D02*
X141908627Y-128906037D01*
X142021853Y-128940384D01*
X142078467Y-128957557D01*
X142217087Y-129031652D01*
X142234991Y-129041222D01*
X142251198Y-129054523D01*
X142372186Y-129153814D01*
X142452193Y-129251304D01*
X142484778Y-129291009D01*
X142484779Y-129291011D01*
X142568443Y-129447533D01*
X142568443Y-129447534D01*
X142619963Y-129617373D01*
X142637359Y-129794000D01*
X142619963Y-129970627D01*
X142585616Y-130083853D01*
X142568443Y-130140467D01*
X142545708Y-130183000D01*
X142484778Y-130296991D01*
X142455448Y-130332729D01*
X142372186Y-130434186D01*
X142270729Y-130517448D01*
X142234991Y-130546778D01*
X142234989Y-130546779D01*
X142078467Y-130630443D01*
X142021853Y-130647616D01*
X141908627Y-130681963D01*
X141842443Y-130688481D01*
X141776260Y-130695000D01*
X141687740Y-130695000D01*
X141621557Y-130688481D01*
X141555373Y-130681963D01*
X141442147Y-130647616D01*
X141385533Y-130630443D01*
X141229011Y-130546779D01*
X141229009Y-130546778D01*
X141193271Y-130517448D01*
X141091814Y-130434186D01*
X141008552Y-130332729D01*
X140979222Y-130296991D01*
X140918292Y-130183000D01*
X140895557Y-130140467D01*
X140878384Y-130083853D01*
X140844037Y-129970627D01*
X140826641Y-129794000D01*
X140844037Y-129617373D01*
X140895557Y-129447534D01*
X140895557Y-129447533D01*
X140979221Y-129291011D01*
X140979222Y-129291009D01*
X141011807Y-129251304D01*
X141091814Y-129153814D01*
X141212802Y-129054523D01*
X141229009Y-129041222D01*
X141246913Y-129031652D01*
X141385533Y-128957557D01*
X141442147Y-128940384D01*
X141555373Y-128906037D01*
X141621558Y-128899518D01*
X141687740Y-128893000D01*
X141776260Y-128893000D01*
X141842442Y-128899518D01*
X141842442Y-128899518D01*
G37*
G36*
X139302442Y-128899518D02*
X139368627Y-128906037D01*
X139481853Y-128940384D01*
X139538467Y-128957557D01*
X139677087Y-129031652D01*
X139694991Y-129041222D01*
X139711198Y-129054523D01*
X139832186Y-129153814D01*
X139912193Y-129251304D01*
X139944778Y-129291009D01*
X139944779Y-129291011D01*
X140028443Y-129447533D01*
X140028443Y-129447534D01*
X140079963Y-129617373D01*
X140097359Y-129794000D01*
X140079963Y-129970627D01*
X140045616Y-130083853D01*
X140028443Y-130140467D01*
X140005708Y-130183000D01*
X139944778Y-130296991D01*
X139915448Y-130332729D01*
X139832186Y-130434186D01*
X139730729Y-130517448D01*
X139694991Y-130546778D01*
X139694989Y-130546779D01*
X139538467Y-130630443D01*
X139481853Y-130647616D01*
X139368627Y-130681963D01*
X139302443Y-130688481D01*
X139236260Y-130695000D01*
X139147740Y-130695000D01*
X139081557Y-130688481D01*
X139015373Y-130681963D01*
X138902147Y-130647616D01*
X138845533Y-130630443D01*
X138689011Y-130546779D01*
X138689009Y-130546778D01*
X138653271Y-130517448D01*
X138551814Y-130434186D01*
X138468552Y-130332729D01*
X138439222Y-130296991D01*
X138378292Y-130183000D01*
X138355557Y-130140467D01*
X138338384Y-130083853D01*
X138304037Y-129970627D01*
X138286641Y-129794000D01*
X138304037Y-129617373D01*
X138355557Y-129447534D01*
X138355557Y-129447533D01*
X138439221Y-129291011D01*
X138439222Y-129291009D01*
X138471807Y-129251304D01*
X138551814Y-129153814D01*
X138672802Y-129054523D01*
X138689009Y-129041222D01*
X138706913Y-129031652D01*
X138845533Y-128957557D01*
X138902147Y-128940384D01*
X139015373Y-128906037D01*
X139081558Y-128899518D01*
X139147740Y-128893000D01*
X139236260Y-128893000D01*
X139302442Y-128899518D01*
X139302442Y-128899518D01*
G37*
G36*
X136762442Y-128899518D02*
X136828627Y-128906037D01*
X136941853Y-128940384D01*
X136998467Y-128957557D01*
X137137087Y-129031652D01*
X137154991Y-129041222D01*
X137171198Y-129054523D01*
X137292186Y-129153814D01*
X137372193Y-129251304D01*
X137404778Y-129291009D01*
X137404779Y-129291011D01*
X137488443Y-129447533D01*
X137488443Y-129447534D01*
X137539963Y-129617373D01*
X137557359Y-129794000D01*
X137539963Y-129970627D01*
X137505616Y-130083853D01*
X137488443Y-130140467D01*
X137465708Y-130183000D01*
X137404778Y-130296991D01*
X137375448Y-130332729D01*
X137292186Y-130434186D01*
X137190729Y-130517448D01*
X137154991Y-130546778D01*
X137154989Y-130546779D01*
X136998467Y-130630443D01*
X136941853Y-130647616D01*
X136828627Y-130681963D01*
X136762443Y-130688481D01*
X136696260Y-130695000D01*
X136607740Y-130695000D01*
X136541557Y-130688481D01*
X136475373Y-130681963D01*
X136362147Y-130647616D01*
X136305533Y-130630443D01*
X136149011Y-130546779D01*
X136149009Y-130546778D01*
X136113271Y-130517448D01*
X136011814Y-130434186D01*
X135928552Y-130332729D01*
X135899222Y-130296991D01*
X135838292Y-130183000D01*
X135815557Y-130140467D01*
X135798384Y-130083853D01*
X135764037Y-129970627D01*
X135746641Y-129794000D01*
X135764037Y-129617373D01*
X135815557Y-129447534D01*
X135815557Y-129447533D01*
X135899221Y-129291011D01*
X135899222Y-129291009D01*
X135931807Y-129251304D01*
X136011814Y-129153814D01*
X136132802Y-129054523D01*
X136149009Y-129041222D01*
X136166913Y-129031652D01*
X136305533Y-128957557D01*
X136362147Y-128940384D01*
X136475373Y-128906037D01*
X136541558Y-128899518D01*
X136607740Y-128893000D01*
X136696260Y-128893000D01*
X136762442Y-128899518D01*
X136762442Y-128899518D01*
G37*
G36*
X134222442Y-128899518D02*
X134288627Y-128906037D01*
X134401853Y-128940384D01*
X134458467Y-128957557D01*
X134597087Y-129031652D01*
X134614991Y-129041222D01*
X134631198Y-129054523D01*
X134752186Y-129153814D01*
X134832193Y-129251304D01*
X134864778Y-129291009D01*
X134864779Y-129291011D01*
X134948443Y-129447533D01*
X134948443Y-129447534D01*
X134999963Y-129617373D01*
X135017359Y-129794000D01*
X134999963Y-129970627D01*
X134965616Y-130083853D01*
X134948443Y-130140467D01*
X134925708Y-130183000D01*
X134864778Y-130296991D01*
X134835448Y-130332729D01*
X134752186Y-130434186D01*
X134650729Y-130517448D01*
X134614991Y-130546778D01*
X134614989Y-130546779D01*
X134458467Y-130630443D01*
X134401853Y-130647616D01*
X134288627Y-130681963D01*
X134222443Y-130688481D01*
X134156260Y-130695000D01*
X134067740Y-130695000D01*
X134001557Y-130688481D01*
X133935373Y-130681963D01*
X133822147Y-130647616D01*
X133765533Y-130630443D01*
X133609011Y-130546779D01*
X133609009Y-130546778D01*
X133573271Y-130517448D01*
X133471814Y-130434186D01*
X133388552Y-130332729D01*
X133359222Y-130296991D01*
X133298292Y-130183000D01*
X133275557Y-130140467D01*
X133258384Y-130083853D01*
X133224037Y-129970627D01*
X133206641Y-129794000D01*
X133224037Y-129617373D01*
X133275557Y-129447534D01*
X133275557Y-129447533D01*
X133359221Y-129291011D01*
X133359222Y-129291009D01*
X133391807Y-129251304D01*
X133471814Y-129153814D01*
X133592802Y-129054523D01*
X133609009Y-129041222D01*
X133626913Y-129031652D01*
X133765533Y-128957557D01*
X133822147Y-128940384D01*
X133935373Y-128906037D01*
X134001558Y-128899518D01*
X134067740Y-128893000D01*
X134156260Y-128893000D01*
X134222442Y-128899518D01*
X134222442Y-128899518D01*
G37*
G36*
X131682442Y-128899518D02*
X131748627Y-128906037D01*
X131861853Y-128940384D01*
X131918467Y-128957557D01*
X132057087Y-129031652D01*
X132074991Y-129041222D01*
X132091198Y-129054523D01*
X132212186Y-129153814D01*
X132292193Y-129251304D01*
X132324778Y-129291009D01*
X132324779Y-129291011D01*
X132408443Y-129447533D01*
X132408443Y-129447534D01*
X132459963Y-129617373D01*
X132477359Y-129794000D01*
X132459963Y-129970627D01*
X132425616Y-130083853D01*
X132408443Y-130140467D01*
X132385708Y-130183000D01*
X132324778Y-130296991D01*
X132295448Y-130332729D01*
X132212186Y-130434186D01*
X132110729Y-130517448D01*
X132074991Y-130546778D01*
X132074989Y-130546779D01*
X131918467Y-130630443D01*
X131861853Y-130647616D01*
X131748627Y-130681963D01*
X131682443Y-130688481D01*
X131616260Y-130695000D01*
X131527740Y-130695000D01*
X131461557Y-130688481D01*
X131395373Y-130681963D01*
X131282147Y-130647616D01*
X131225533Y-130630443D01*
X131069011Y-130546779D01*
X131069009Y-130546778D01*
X131033271Y-130517448D01*
X130931814Y-130434186D01*
X130848552Y-130332729D01*
X130819222Y-130296991D01*
X130758292Y-130183000D01*
X130735557Y-130140467D01*
X130718384Y-130083853D01*
X130684037Y-129970627D01*
X130666641Y-129794000D01*
X130684037Y-129617373D01*
X130735557Y-129447534D01*
X130735557Y-129447533D01*
X130819221Y-129291011D01*
X130819222Y-129291009D01*
X130851807Y-129251304D01*
X130931814Y-129153814D01*
X131052802Y-129054523D01*
X131069009Y-129041222D01*
X131086913Y-129031652D01*
X131225533Y-128957557D01*
X131282147Y-128940384D01*
X131395373Y-128906037D01*
X131461558Y-128899518D01*
X131527740Y-128893000D01*
X131616260Y-128893000D01*
X131682442Y-128899518D01*
X131682442Y-128899518D01*
G37*
G36*
X129142442Y-128899518D02*
X129208627Y-128906037D01*
X129321853Y-128940384D01*
X129378467Y-128957557D01*
X129517087Y-129031652D01*
X129534991Y-129041222D01*
X129551198Y-129054523D01*
X129672186Y-129153814D01*
X129752193Y-129251304D01*
X129784778Y-129291009D01*
X129784779Y-129291011D01*
X129868443Y-129447533D01*
X129868443Y-129447534D01*
X129919963Y-129617373D01*
X129937359Y-129794000D01*
X129919963Y-129970627D01*
X129885616Y-130083853D01*
X129868443Y-130140467D01*
X129845708Y-130183000D01*
X129784778Y-130296991D01*
X129755448Y-130332729D01*
X129672186Y-130434186D01*
X129570729Y-130517448D01*
X129534991Y-130546778D01*
X129534989Y-130546779D01*
X129378467Y-130630443D01*
X129321853Y-130647616D01*
X129208627Y-130681963D01*
X129142443Y-130688481D01*
X129076260Y-130695000D01*
X128987740Y-130695000D01*
X128921557Y-130688481D01*
X128855373Y-130681963D01*
X128742147Y-130647616D01*
X128685533Y-130630443D01*
X128529011Y-130546779D01*
X128529009Y-130546778D01*
X128493271Y-130517448D01*
X128391814Y-130434186D01*
X128308552Y-130332729D01*
X128279222Y-130296991D01*
X128218292Y-130183000D01*
X128195557Y-130140467D01*
X128178384Y-130083853D01*
X128144037Y-129970627D01*
X128126641Y-129794000D01*
X128144037Y-129617373D01*
X128195557Y-129447534D01*
X128195557Y-129447533D01*
X128279221Y-129291011D01*
X128279222Y-129291009D01*
X128311807Y-129251304D01*
X128391814Y-129153814D01*
X128512802Y-129054523D01*
X128529009Y-129041222D01*
X128546913Y-129031652D01*
X128685533Y-128957557D01*
X128742147Y-128940384D01*
X128855373Y-128906037D01*
X128921558Y-128899518D01*
X128987740Y-128893000D01*
X129076260Y-128893000D01*
X129142442Y-128899518D01*
X129142442Y-128899518D01*
G37*
G36*
X126602442Y-128899518D02*
X126668627Y-128906037D01*
X126781853Y-128940384D01*
X126838467Y-128957557D01*
X126977087Y-129031652D01*
X126994991Y-129041222D01*
X127011198Y-129054523D01*
X127132186Y-129153814D01*
X127212193Y-129251304D01*
X127244778Y-129291009D01*
X127244779Y-129291011D01*
X127328443Y-129447533D01*
X127328443Y-129447534D01*
X127379963Y-129617373D01*
X127397359Y-129794000D01*
X127379963Y-129970627D01*
X127345616Y-130083853D01*
X127328443Y-130140467D01*
X127305708Y-130183000D01*
X127244778Y-130296991D01*
X127215448Y-130332729D01*
X127132186Y-130434186D01*
X127030729Y-130517448D01*
X126994991Y-130546778D01*
X126994989Y-130546779D01*
X126838467Y-130630443D01*
X126781853Y-130647616D01*
X126668627Y-130681963D01*
X126602443Y-130688481D01*
X126536260Y-130695000D01*
X126447740Y-130695000D01*
X126381557Y-130688481D01*
X126315373Y-130681963D01*
X126202147Y-130647616D01*
X126145533Y-130630443D01*
X125989011Y-130546779D01*
X125989009Y-130546778D01*
X125953271Y-130517448D01*
X125851814Y-130434186D01*
X125768552Y-130332729D01*
X125739222Y-130296991D01*
X125678292Y-130183000D01*
X125655557Y-130140467D01*
X125638384Y-130083853D01*
X125604037Y-129970627D01*
X125586641Y-129794000D01*
X125604037Y-129617373D01*
X125655557Y-129447534D01*
X125655557Y-129447533D01*
X125739221Y-129291011D01*
X125739222Y-129291009D01*
X125771807Y-129251304D01*
X125851814Y-129153814D01*
X125972802Y-129054523D01*
X125989009Y-129041222D01*
X126006913Y-129031652D01*
X126145533Y-128957557D01*
X126202147Y-128940384D01*
X126315373Y-128906037D01*
X126381558Y-128899518D01*
X126447740Y-128893000D01*
X126536260Y-128893000D01*
X126602442Y-128899518D01*
X126602442Y-128899518D01*
G37*
G36*
X124062442Y-128899518D02*
X124128627Y-128906037D01*
X124241853Y-128940384D01*
X124298467Y-128957557D01*
X124437087Y-129031652D01*
X124454991Y-129041222D01*
X124471198Y-129054523D01*
X124592186Y-129153814D01*
X124672193Y-129251304D01*
X124704778Y-129291009D01*
X124704779Y-129291011D01*
X124788443Y-129447533D01*
X124788443Y-129447534D01*
X124839963Y-129617373D01*
X124857359Y-129794000D01*
X124839963Y-129970627D01*
X124805616Y-130083853D01*
X124788443Y-130140467D01*
X124765708Y-130183000D01*
X124704778Y-130296991D01*
X124675448Y-130332729D01*
X124592186Y-130434186D01*
X124490729Y-130517448D01*
X124454991Y-130546778D01*
X124454989Y-130546779D01*
X124298467Y-130630443D01*
X124241853Y-130647616D01*
X124128627Y-130681963D01*
X124062443Y-130688481D01*
X123996260Y-130695000D01*
X123907740Y-130695000D01*
X123841557Y-130688481D01*
X123775373Y-130681963D01*
X123662147Y-130647616D01*
X123605533Y-130630443D01*
X123449011Y-130546779D01*
X123449009Y-130546778D01*
X123413271Y-130517448D01*
X123311814Y-130434186D01*
X123228552Y-130332729D01*
X123199222Y-130296991D01*
X123138292Y-130183000D01*
X123115557Y-130140467D01*
X123098384Y-130083853D01*
X123064037Y-129970627D01*
X123046641Y-129794000D01*
X123064037Y-129617373D01*
X123115557Y-129447534D01*
X123115557Y-129447533D01*
X123199221Y-129291011D01*
X123199222Y-129291009D01*
X123231807Y-129251304D01*
X123311814Y-129153814D01*
X123432802Y-129054523D01*
X123449009Y-129041222D01*
X123466913Y-129031652D01*
X123605533Y-128957557D01*
X123662147Y-128940384D01*
X123775373Y-128906037D01*
X123841558Y-128899518D01*
X123907740Y-128893000D01*
X123996260Y-128893000D01*
X124062442Y-128899518D01*
X124062442Y-128899518D01*
G37*
G36*
X122313000Y-130695000D02*
X120511000Y-130695000D01*
X120511000Y-128893000D01*
X122313000Y-128893000D01*
X122313000Y-130695000D01*
X122313000Y-130695000D01*
G37*
G36*
X116667734Y-127925232D02*
X116877202Y-128011996D01*
X117065723Y-128137962D01*
X117226038Y-128298277D01*
X117352004Y-128486798D01*
X117438768Y-128696266D01*
X117483000Y-128918635D01*
X117483000Y-129145365D01*
X117438768Y-129367734D01*
X117352004Y-129577202D01*
X117226038Y-129765723D01*
X117065723Y-129926038D01*
X116877202Y-130052004D01*
X116667734Y-130138768D01*
X116445365Y-130183000D01*
X116218635Y-130183000D01*
X115996266Y-130138768D01*
X115786798Y-130052004D01*
X115598277Y-129926038D01*
X115437962Y-129765723D01*
X115311996Y-129577202D01*
X115225232Y-129367734D01*
X115181000Y-129145365D01*
X115181000Y-128918635D01*
X115225232Y-128696266D01*
X115311996Y-128486798D01*
X115437962Y-128298277D01*
X115598277Y-128137962D01*
X115786798Y-128011996D01*
X115996266Y-127925232D01*
X116218635Y-127881000D01*
X116445365Y-127881000D01*
X116667734Y-127925232D01*
X116667734Y-127925232D01*
G37*
G36*
X166792504Y-128090785D02*
X166961026Y-128160589D01*
X167112691Y-128261928D01*
X167241672Y-128390909D01*
X167343011Y-128542574D01*
X167412815Y-128711096D01*
X167448400Y-128889997D01*
X167448400Y-129072403D01*
X167412815Y-129251304D01*
X167343011Y-129419826D01*
X167241672Y-129571491D01*
X167112691Y-129700472D01*
X166961026Y-129801811D01*
X166792504Y-129871615D01*
X166613603Y-129907200D01*
X166431197Y-129907200D01*
X166252296Y-129871615D01*
X166083774Y-129801811D01*
X165932109Y-129700472D01*
X165803128Y-129571491D01*
X165701789Y-129419826D01*
X165631985Y-129251304D01*
X165596400Y-129072403D01*
X165596400Y-128889997D01*
X165631985Y-128711096D01*
X165701789Y-128542574D01*
X165803128Y-128390909D01*
X165932109Y-128261928D01*
X166083774Y-128160589D01*
X166252296Y-128090785D01*
X166431197Y-128055200D01*
X166613603Y-128055200D01*
X166792504Y-128090785D01*
X166792504Y-128090785D01*
G37*
G36*
X162292504Y-128090785D02*
X162461026Y-128160589D01*
X162612691Y-128261928D01*
X162741672Y-128390909D01*
X162843011Y-128542574D01*
X162912815Y-128711096D01*
X162948400Y-128889997D01*
X162948400Y-129072403D01*
X162912815Y-129251304D01*
X162843011Y-129419826D01*
X162741672Y-129571491D01*
X162612691Y-129700472D01*
X162461026Y-129801811D01*
X162292504Y-129871615D01*
X162113603Y-129907200D01*
X161931197Y-129907200D01*
X161752296Y-129871615D01*
X161583774Y-129801811D01*
X161432109Y-129700472D01*
X161303128Y-129571491D01*
X161201789Y-129419826D01*
X161131985Y-129251304D01*
X161096400Y-129072403D01*
X161096400Y-128889997D01*
X161131985Y-128711096D01*
X161201789Y-128542574D01*
X161303128Y-128390909D01*
X161432109Y-128261928D01*
X161583774Y-128160589D01*
X161752296Y-128090785D01*
X161931197Y-128055200D01*
X162113603Y-128055200D01*
X162292504Y-128090785D01*
X162292504Y-128090785D01*
G37*
G36*
X172395334Y-127214032D02*
X172604802Y-127300796D01*
X172793323Y-127426762D01*
X172953638Y-127587077D01*
X173079604Y-127775598D01*
X173166368Y-127985066D01*
X173210600Y-128207435D01*
X173210600Y-128434165D01*
X173166368Y-128656534D01*
X173079604Y-128866002D01*
X172953638Y-129054523D01*
X172793323Y-129214838D01*
X172604802Y-129340804D01*
X172395334Y-129427568D01*
X172172965Y-129471800D01*
X171946235Y-129471800D01*
X171723866Y-129427568D01*
X171514398Y-129340804D01*
X171325877Y-129214838D01*
X171165562Y-129054523D01*
X171039596Y-128866002D01*
X170952832Y-128656534D01*
X170908600Y-128434165D01*
X170908600Y-128207435D01*
X170952832Y-127985066D01*
X171039596Y-127775598D01*
X171165562Y-127587077D01*
X171325877Y-127426762D01*
X171514398Y-127300796D01*
X171723866Y-127214032D01*
X171946235Y-127169800D01*
X172172965Y-127169800D01*
X172395334Y-127214032D01*
X172395334Y-127214032D01*
G37*
G36*
X126602443Y-126359519D02*
X126668627Y-126366037D01*
X126781853Y-126400384D01*
X126838467Y-126417557D01*
X126977087Y-126491652D01*
X126994991Y-126501222D01*
X127030729Y-126530552D01*
X127132186Y-126613814D01*
X127215448Y-126715271D01*
X127244778Y-126751009D01*
X127244779Y-126751011D01*
X127328443Y-126907533D01*
X127328443Y-126907534D01*
X127379963Y-127077373D01*
X127397359Y-127254000D01*
X127379963Y-127430627D01*
X127368961Y-127466895D01*
X127328443Y-127600467D01*
X127254348Y-127739087D01*
X127244778Y-127756991D01*
X127215448Y-127792729D01*
X127132186Y-127894186D01*
X127030729Y-127977448D01*
X126994991Y-128006778D01*
X126994989Y-128006779D01*
X126838467Y-128090443D01*
X126781853Y-128107616D01*
X126668627Y-128141963D01*
X126602443Y-128148481D01*
X126536260Y-128155000D01*
X126447740Y-128155000D01*
X126381557Y-128148481D01*
X126315373Y-128141963D01*
X126202147Y-128107616D01*
X126145533Y-128090443D01*
X125989011Y-128006779D01*
X125989009Y-128006778D01*
X125953271Y-127977448D01*
X125851814Y-127894186D01*
X125768552Y-127792729D01*
X125739222Y-127756991D01*
X125729652Y-127739087D01*
X125655557Y-127600467D01*
X125615039Y-127466895D01*
X125604037Y-127430627D01*
X125586641Y-127254000D01*
X125604037Y-127077373D01*
X125655557Y-126907534D01*
X125655557Y-126907533D01*
X125739221Y-126751011D01*
X125739222Y-126751009D01*
X125768552Y-126715271D01*
X125851814Y-126613814D01*
X125953271Y-126530552D01*
X125989009Y-126501222D01*
X126006913Y-126491652D01*
X126145533Y-126417557D01*
X126202147Y-126400384D01*
X126315373Y-126366037D01*
X126381557Y-126359519D01*
X126447740Y-126353000D01*
X126536260Y-126353000D01*
X126602443Y-126359519D01*
X126602443Y-126359519D01*
G37*
G36*
X154542443Y-126359519D02*
X154608627Y-126366037D01*
X154721853Y-126400384D01*
X154778467Y-126417557D01*
X154917087Y-126491652D01*
X154934991Y-126501222D01*
X154970729Y-126530552D01*
X155072186Y-126613814D01*
X155155448Y-126715271D01*
X155184778Y-126751009D01*
X155184779Y-126751011D01*
X155268443Y-126907533D01*
X155268443Y-126907534D01*
X155319963Y-127077373D01*
X155337359Y-127254000D01*
X155319963Y-127430627D01*
X155308961Y-127466895D01*
X155268443Y-127600467D01*
X155194348Y-127739087D01*
X155184778Y-127756991D01*
X155155448Y-127792729D01*
X155072186Y-127894186D01*
X154970729Y-127977448D01*
X154934991Y-128006778D01*
X154934989Y-128006779D01*
X154778467Y-128090443D01*
X154721853Y-128107616D01*
X154608627Y-128141963D01*
X154542443Y-128148481D01*
X154476260Y-128155000D01*
X154387740Y-128155000D01*
X154321557Y-128148481D01*
X154255373Y-128141963D01*
X154142147Y-128107616D01*
X154085533Y-128090443D01*
X153929011Y-128006779D01*
X153929009Y-128006778D01*
X153893271Y-127977448D01*
X153791814Y-127894186D01*
X153708552Y-127792729D01*
X153679222Y-127756991D01*
X153669652Y-127739087D01*
X153595557Y-127600467D01*
X153555039Y-127466895D01*
X153544037Y-127430627D01*
X153526641Y-127254000D01*
X153544037Y-127077373D01*
X153595557Y-126907534D01*
X153595557Y-126907533D01*
X153679221Y-126751011D01*
X153679222Y-126751009D01*
X153708552Y-126715271D01*
X153791814Y-126613814D01*
X153893271Y-126530552D01*
X153929009Y-126501222D01*
X153946913Y-126491652D01*
X154085533Y-126417557D01*
X154142147Y-126400384D01*
X154255373Y-126366037D01*
X154321557Y-126359519D01*
X154387740Y-126353000D01*
X154476260Y-126353000D01*
X154542443Y-126359519D01*
X154542443Y-126359519D01*
G37*
G36*
X124062443Y-126359519D02*
X124128627Y-126366037D01*
X124241853Y-126400384D01*
X124298467Y-126417557D01*
X124437087Y-126491652D01*
X124454991Y-126501222D01*
X124490729Y-126530552D01*
X124592186Y-126613814D01*
X124675448Y-126715271D01*
X124704778Y-126751009D01*
X124704779Y-126751011D01*
X124788443Y-126907533D01*
X124788443Y-126907534D01*
X124839963Y-127077373D01*
X124857359Y-127254000D01*
X124839963Y-127430627D01*
X124828961Y-127466895D01*
X124788443Y-127600467D01*
X124714348Y-127739087D01*
X124704778Y-127756991D01*
X124675448Y-127792729D01*
X124592186Y-127894186D01*
X124490729Y-127977448D01*
X124454991Y-128006778D01*
X124454989Y-128006779D01*
X124298467Y-128090443D01*
X124241853Y-128107616D01*
X124128627Y-128141963D01*
X124062443Y-128148481D01*
X123996260Y-128155000D01*
X123907740Y-128155000D01*
X123841557Y-128148481D01*
X123775373Y-128141963D01*
X123662147Y-128107616D01*
X123605533Y-128090443D01*
X123449011Y-128006779D01*
X123449009Y-128006778D01*
X123413271Y-127977448D01*
X123311814Y-127894186D01*
X123228552Y-127792729D01*
X123199222Y-127756991D01*
X123189652Y-127739087D01*
X123115557Y-127600467D01*
X123075039Y-127466895D01*
X123064037Y-127430627D01*
X123046641Y-127254000D01*
X123064037Y-127077373D01*
X123115557Y-126907534D01*
X123115557Y-126907533D01*
X123199221Y-126751011D01*
X123199222Y-126751009D01*
X123228552Y-126715271D01*
X123311814Y-126613814D01*
X123413271Y-126530552D01*
X123449009Y-126501222D01*
X123466913Y-126491652D01*
X123605533Y-126417557D01*
X123662147Y-126400384D01*
X123775373Y-126366037D01*
X123841557Y-126359519D01*
X123907740Y-126353000D01*
X123996260Y-126353000D01*
X124062443Y-126359519D01*
X124062443Y-126359519D01*
G37*
G36*
X121522443Y-126359519D02*
X121588627Y-126366037D01*
X121701853Y-126400384D01*
X121758467Y-126417557D01*
X121897087Y-126491652D01*
X121914991Y-126501222D01*
X121950729Y-126530552D01*
X122052186Y-126613814D01*
X122135448Y-126715271D01*
X122164778Y-126751009D01*
X122164779Y-126751011D01*
X122248443Y-126907533D01*
X122248443Y-126907534D01*
X122299963Y-127077373D01*
X122317359Y-127254000D01*
X122299963Y-127430627D01*
X122288961Y-127466895D01*
X122248443Y-127600467D01*
X122174348Y-127739087D01*
X122164778Y-127756991D01*
X122135448Y-127792729D01*
X122052186Y-127894186D01*
X121950729Y-127977448D01*
X121914991Y-128006778D01*
X121914989Y-128006779D01*
X121758467Y-128090443D01*
X121701853Y-128107616D01*
X121588627Y-128141963D01*
X121522443Y-128148481D01*
X121456260Y-128155000D01*
X121367740Y-128155000D01*
X121301557Y-128148481D01*
X121235373Y-128141963D01*
X121122147Y-128107616D01*
X121065533Y-128090443D01*
X120909011Y-128006779D01*
X120909009Y-128006778D01*
X120873271Y-127977448D01*
X120771814Y-127894186D01*
X120688552Y-127792729D01*
X120659222Y-127756991D01*
X120649652Y-127739087D01*
X120575557Y-127600467D01*
X120535039Y-127466895D01*
X120524037Y-127430627D01*
X120506641Y-127254000D01*
X120524037Y-127077373D01*
X120575557Y-126907534D01*
X120575557Y-126907533D01*
X120659221Y-126751011D01*
X120659222Y-126751009D01*
X120688552Y-126715271D01*
X120771814Y-126613814D01*
X120873271Y-126530552D01*
X120909009Y-126501222D01*
X120926913Y-126491652D01*
X121065533Y-126417557D01*
X121122147Y-126400384D01*
X121235373Y-126366037D01*
X121301557Y-126359519D01*
X121367740Y-126353000D01*
X121456260Y-126353000D01*
X121522443Y-126359519D01*
X121522443Y-126359519D01*
G37*
G36*
X129142443Y-126359519D02*
X129208627Y-126366037D01*
X129321853Y-126400384D01*
X129378467Y-126417557D01*
X129517087Y-126491652D01*
X129534991Y-126501222D01*
X129570729Y-126530552D01*
X129672186Y-126613814D01*
X129755448Y-126715271D01*
X129784778Y-126751009D01*
X129784779Y-126751011D01*
X129868443Y-126907533D01*
X129868443Y-126907534D01*
X129919963Y-127077373D01*
X129937359Y-127254000D01*
X129919963Y-127430627D01*
X129908961Y-127466895D01*
X129868443Y-127600467D01*
X129794348Y-127739087D01*
X129784778Y-127756991D01*
X129755448Y-127792729D01*
X129672186Y-127894186D01*
X129570729Y-127977448D01*
X129534991Y-128006778D01*
X129534989Y-128006779D01*
X129378467Y-128090443D01*
X129321853Y-128107616D01*
X129208627Y-128141963D01*
X129142443Y-128148481D01*
X129076260Y-128155000D01*
X128987740Y-128155000D01*
X128921557Y-128148481D01*
X128855373Y-128141963D01*
X128742147Y-128107616D01*
X128685533Y-128090443D01*
X128529011Y-128006779D01*
X128529009Y-128006778D01*
X128493271Y-127977448D01*
X128391814Y-127894186D01*
X128308552Y-127792729D01*
X128279222Y-127756991D01*
X128269652Y-127739087D01*
X128195557Y-127600467D01*
X128155039Y-127466895D01*
X128144037Y-127430627D01*
X128126641Y-127254000D01*
X128144037Y-127077373D01*
X128195557Y-126907534D01*
X128195557Y-126907533D01*
X128279221Y-126751011D01*
X128279222Y-126751009D01*
X128308552Y-126715271D01*
X128391814Y-126613814D01*
X128493271Y-126530552D01*
X128529009Y-126501222D01*
X128546913Y-126491652D01*
X128685533Y-126417557D01*
X128742147Y-126400384D01*
X128855373Y-126366037D01*
X128921557Y-126359519D01*
X128987740Y-126353000D01*
X129076260Y-126353000D01*
X129142443Y-126359519D01*
X129142443Y-126359519D01*
G37*
G36*
X157082443Y-126359519D02*
X157148627Y-126366037D01*
X157261853Y-126400384D01*
X157318467Y-126417557D01*
X157457087Y-126491652D01*
X157474991Y-126501222D01*
X157510729Y-126530552D01*
X157612186Y-126613814D01*
X157695448Y-126715271D01*
X157724778Y-126751009D01*
X157724779Y-126751011D01*
X157808443Y-126907533D01*
X157808443Y-126907534D01*
X157859963Y-127077373D01*
X157877359Y-127254000D01*
X157859963Y-127430627D01*
X157848961Y-127466895D01*
X157808443Y-127600467D01*
X157734348Y-127739087D01*
X157724778Y-127756991D01*
X157695448Y-127792729D01*
X157612186Y-127894186D01*
X157510729Y-127977448D01*
X157474991Y-128006778D01*
X157474989Y-128006779D01*
X157318467Y-128090443D01*
X157261853Y-128107616D01*
X157148627Y-128141963D01*
X157082443Y-128148481D01*
X157016260Y-128155000D01*
X156927740Y-128155000D01*
X156861557Y-128148481D01*
X156795373Y-128141963D01*
X156682147Y-128107616D01*
X156625533Y-128090443D01*
X156469011Y-128006779D01*
X156469009Y-128006778D01*
X156433271Y-127977448D01*
X156331814Y-127894186D01*
X156248552Y-127792729D01*
X156219222Y-127756991D01*
X156209652Y-127739087D01*
X156135557Y-127600467D01*
X156095039Y-127466895D01*
X156084037Y-127430627D01*
X156066641Y-127254000D01*
X156084037Y-127077373D01*
X156135557Y-126907534D01*
X156135557Y-126907533D01*
X156219221Y-126751011D01*
X156219222Y-126751009D01*
X156248552Y-126715271D01*
X156331814Y-126613814D01*
X156433271Y-126530552D01*
X156469009Y-126501222D01*
X156486913Y-126491652D01*
X156625533Y-126417557D01*
X156682147Y-126400384D01*
X156795373Y-126366037D01*
X156861557Y-126359519D01*
X156927740Y-126353000D01*
X157016260Y-126353000D01*
X157082443Y-126359519D01*
X157082443Y-126359519D01*
G37*
G36*
X131682443Y-126359519D02*
X131748627Y-126366037D01*
X131861853Y-126400384D01*
X131918467Y-126417557D01*
X132057087Y-126491652D01*
X132074991Y-126501222D01*
X132110729Y-126530552D01*
X132212186Y-126613814D01*
X132295448Y-126715271D01*
X132324778Y-126751009D01*
X132324779Y-126751011D01*
X132408443Y-126907533D01*
X132408443Y-126907534D01*
X132459963Y-127077373D01*
X132477359Y-127254000D01*
X132459963Y-127430627D01*
X132448961Y-127466895D01*
X132408443Y-127600467D01*
X132334348Y-127739087D01*
X132324778Y-127756991D01*
X132295448Y-127792729D01*
X132212186Y-127894186D01*
X132110729Y-127977448D01*
X132074991Y-128006778D01*
X132074989Y-128006779D01*
X131918467Y-128090443D01*
X131861853Y-128107616D01*
X131748627Y-128141963D01*
X131682443Y-128148481D01*
X131616260Y-128155000D01*
X131527740Y-128155000D01*
X131461557Y-128148481D01*
X131395373Y-128141963D01*
X131282147Y-128107616D01*
X131225533Y-128090443D01*
X131069011Y-128006779D01*
X131069009Y-128006778D01*
X131033271Y-127977448D01*
X130931814Y-127894186D01*
X130848552Y-127792729D01*
X130819222Y-127756991D01*
X130809652Y-127739087D01*
X130735557Y-127600467D01*
X130695039Y-127466895D01*
X130684037Y-127430627D01*
X130666641Y-127254000D01*
X130684037Y-127077373D01*
X130735557Y-126907534D01*
X130735557Y-126907533D01*
X130819221Y-126751011D01*
X130819222Y-126751009D01*
X130848552Y-126715271D01*
X130931814Y-126613814D01*
X131033271Y-126530552D01*
X131069009Y-126501222D01*
X131086913Y-126491652D01*
X131225533Y-126417557D01*
X131282147Y-126400384D01*
X131395373Y-126366037D01*
X131461557Y-126359519D01*
X131527740Y-126353000D01*
X131616260Y-126353000D01*
X131682443Y-126359519D01*
X131682443Y-126359519D01*
G37*
G36*
X134222443Y-126359519D02*
X134288627Y-126366037D01*
X134401853Y-126400384D01*
X134458467Y-126417557D01*
X134597087Y-126491652D01*
X134614991Y-126501222D01*
X134650729Y-126530552D01*
X134752186Y-126613814D01*
X134835448Y-126715271D01*
X134864778Y-126751009D01*
X134864779Y-126751011D01*
X134948443Y-126907533D01*
X134948443Y-126907534D01*
X134999963Y-127077373D01*
X135017359Y-127254000D01*
X134999963Y-127430627D01*
X134988961Y-127466895D01*
X134948443Y-127600467D01*
X134874348Y-127739087D01*
X134864778Y-127756991D01*
X134835448Y-127792729D01*
X134752186Y-127894186D01*
X134650729Y-127977448D01*
X134614991Y-128006778D01*
X134614989Y-128006779D01*
X134458467Y-128090443D01*
X134401853Y-128107616D01*
X134288627Y-128141963D01*
X134222443Y-128148481D01*
X134156260Y-128155000D01*
X134067740Y-128155000D01*
X134001557Y-128148481D01*
X133935373Y-128141963D01*
X133822147Y-128107616D01*
X133765533Y-128090443D01*
X133609011Y-128006779D01*
X133609009Y-128006778D01*
X133573271Y-127977448D01*
X133471814Y-127894186D01*
X133388552Y-127792729D01*
X133359222Y-127756991D01*
X133349652Y-127739087D01*
X133275557Y-127600467D01*
X133235039Y-127466895D01*
X133224037Y-127430627D01*
X133206641Y-127254000D01*
X133224037Y-127077373D01*
X133275557Y-126907534D01*
X133275557Y-126907533D01*
X133359221Y-126751011D01*
X133359222Y-126751009D01*
X133388552Y-126715271D01*
X133471814Y-126613814D01*
X133573271Y-126530552D01*
X133609009Y-126501222D01*
X133626913Y-126491652D01*
X133765533Y-126417557D01*
X133822147Y-126400384D01*
X133935373Y-126366037D01*
X134001557Y-126359519D01*
X134067740Y-126353000D01*
X134156260Y-126353000D01*
X134222443Y-126359519D01*
X134222443Y-126359519D01*
G37*
G36*
X152002443Y-126359519D02*
X152068627Y-126366037D01*
X152181853Y-126400384D01*
X152238467Y-126417557D01*
X152377087Y-126491652D01*
X152394991Y-126501222D01*
X152430729Y-126530552D01*
X152532186Y-126613814D01*
X152615448Y-126715271D01*
X152644778Y-126751009D01*
X152644779Y-126751011D01*
X152728443Y-126907533D01*
X152728443Y-126907534D01*
X152779963Y-127077373D01*
X152797359Y-127254000D01*
X152779963Y-127430627D01*
X152768961Y-127466895D01*
X152728443Y-127600467D01*
X152654348Y-127739087D01*
X152644778Y-127756991D01*
X152615448Y-127792729D01*
X152532186Y-127894186D01*
X152430729Y-127977448D01*
X152394991Y-128006778D01*
X152394989Y-128006779D01*
X152238467Y-128090443D01*
X152181853Y-128107616D01*
X152068627Y-128141963D01*
X152002443Y-128148481D01*
X151936260Y-128155000D01*
X151847740Y-128155000D01*
X151781557Y-128148481D01*
X151715373Y-128141963D01*
X151602147Y-128107616D01*
X151545533Y-128090443D01*
X151389011Y-128006779D01*
X151389009Y-128006778D01*
X151353271Y-127977448D01*
X151251814Y-127894186D01*
X151168552Y-127792729D01*
X151139222Y-127756991D01*
X151129652Y-127739087D01*
X151055557Y-127600467D01*
X151015039Y-127466895D01*
X151004037Y-127430627D01*
X150986641Y-127254000D01*
X151004037Y-127077373D01*
X151055557Y-126907534D01*
X151055557Y-126907533D01*
X151139221Y-126751011D01*
X151139222Y-126751009D01*
X151168552Y-126715271D01*
X151251814Y-126613814D01*
X151353271Y-126530552D01*
X151389009Y-126501222D01*
X151406913Y-126491652D01*
X151545533Y-126417557D01*
X151602147Y-126400384D01*
X151715373Y-126366037D01*
X151781557Y-126359519D01*
X151847740Y-126353000D01*
X151936260Y-126353000D01*
X152002443Y-126359519D01*
X152002443Y-126359519D01*
G37*
G36*
X136762443Y-126359519D02*
X136828627Y-126366037D01*
X136941853Y-126400384D01*
X136998467Y-126417557D01*
X137137087Y-126491652D01*
X137154991Y-126501222D01*
X137190729Y-126530552D01*
X137292186Y-126613814D01*
X137375448Y-126715271D01*
X137404778Y-126751009D01*
X137404779Y-126751011D01*
X137488443Y-126907533D01*
X137488443Y-126907534D01*
X137539963Y-127077373D01*
X137557359Y-127254000D01*
X137539963Y-127430627D01*
X137528961Y-127466895D01*
X137488443Y-127600467D01*
X137414348Y-127739087D01*
X137404778Y-127756991D01*
X137375448Y-127792729D01*
X137292186Y-127894186D01*
X137190729Y-127977448D01*
X137154991Y-128006778D01*
X137154989Y-128006779D01*
X136998467Y-128090443D01*
X136941853Y-128107616D01*
X136828627Y-128141963D01*
X136762443Y-128148481D01*
X136696260Y-128155000D01*
X136607740Y-128155000D01*
X136541557Y-128148481D01*
X136475373Y-128141963D01*
X136362147Y-128107616D01*
X136305533Y-128090443D01*
X136149011Y-128006779D01*
X136149009Y-128006778D01*
X136113271Y-127977448D01*
X136011814Y-127894186D01*
X135928552Y-127792729D01*
X135899222Y-127756991D01*
X135889652Y-127739087D01*
X135815557Y-127600467D01*
X135775039Y-127466895D01*
X135764037Y-127430627D01*
X135746641Y-127254000D01*
X135764037Y-127077373D01*
X135815557Y-126907534D01*
X135815557Y-126907533D01*
X135899221Y-126751011D01*
X135899222Y-126751009D01*
X135928552Y-126715271D01*
X136011814Y-126613814D01*
X136113271Y-126530552D01*
X136149009Y-126501222D01*
X136166913Y-126491652D01*
X136305533Y-126417557D01*
X136362147Y-126400384D01*
X136475373Y-126366037D01*
X136541557Y-126359519D01*
X136607740Y-126353000D01*
X136696260Y-126353000D01*
X136762443Y-126359519D01*
X136762443Y-126359519D01*
G37*
G36*
X149462443Y-126359519D02*
X149528627Y-126366037D01*
X149641853Y-126400384D01*
X149698467Y-126417557D01*
X149837087Y-126491652D01*
X149854991Y-126501222D01*
X149890729Y-126530552D01*
X149992186Y-126613814D01*
X150075448Y-126715271D01*
X150104778Y-126751009D01*
X150104779Y-126751011D01*
X150188443Y-126907533D01*
X150188443Y-126907534D01*
X150239963Y-127077373D01*
X150257359Y-127254000D01*
X150239963Y-127430627D01*
X150228961Y-127466895D01*
X150188443Y-127600467D01*
X150114348Y-127739087D01*
X150104778Y-127756991D01*
X150075448Y-127792729D01*
X149992186Y-127894186D01*
X149890729Y-127977448D01*
X149854991Y-128006778D01*
X149854989Y-128006779D01*
X149698467Y-128090443D01*
X149641853Y-128107616D01*
X149528627Y-128141963D01*
X149462443Y-128148481D01*
X149396260Y-128155000D01*
X149307740Y-128155000D01*
X149241557Y-128148481D01*
X149175373Y-128141963D01*
X149062147Y-128107616D01*
X149005533Y-128090443D01*
X148849011Y-128006779D01*
X148849009Y-128006778D01*
X148813271Y-127977448D01*
X148711814Y-127894186D01*
X148628552Y-127792729D01*
X148599222Y-127756991D01*
X148589652Y-127739087D01*
X148515557Y-127600467D01*
X148475039Y-127466895D01*
X148464037Y-127430627D01*
X148446641Y-127254000D01*
X148464037Y-127077373D01*
X148515557Y-126907534D01*
X148515557Y-126907533D01*
X148599221Y-126751011D01*
X148599222Y-126751009D01*
X148628552Y-126715271D01*
X148711814Y-126613814D01*
X148813271Y-126530552D01*
X148849009Y-126501222D01*
X148866913Y-126491652D01*
X149005533Y-126417557D01*
X149062147Y-126400384D01*
X149175373Y-126366037D01*
X149241557Y-126359519D01*
X149307740Y-126353000D01*
X149396260Y-126353000D01*
X149462443Y-126359519D01*
X149462443Y-126359519D01*
G37*
G36*
X139302443Y-126359519D02*
X139368627Y-126366037D01*
X139481853Y-126400384D01*
X139538467Y-126417557D01*
X139677087Y-126491652D01*
X139694991Y-126501222D01*
X139730729Y-126530552D01*
X139832186Y-126613814D01*
X139915448Y-126715271D01*
X139944778Y-126751009D01*
X139944779Y-126751011D01*
X140028443Y-126907533D01*
X140028443Y-126907534D01*
X140079963Y-127077373D01*
X140097359Y-127254000D01*
X140079963Y-127430627D01*
X140068961Y-127466895D01*
X140028443Y-127600467D01*
X139954348Y-127739087D01*
X139944778Y-127756991D01*
X139915448Y-127792729D01*
X139832186Y-127894186D01*
X139730729Y-127977448D01*
X139694991Y-128006778D01*
X139694989Y-128006779D01*
X139538467Y-128090443D01*
X139481853Y-128107616D01*
X139368627Y-128141963D01*
X139302443Y-128148481D01*
X139236260Y-128155000D01*
X139147740Y-128155000D01*
X139081557Y-128148481D01*
X139015373Y-128141963D01*
X138902147Y-128107616D01*
X138845533Y-128090443D01*
X138689011Y-128006779D01*
X138689009Y-128006778D01*
X138653271Y-127977448D01*
X138551814Y-127894186D01*
X138468552Y-127792729D01*
X138439222Y-127756991D01*
X138429652Y-127739087D01*
X138355557Y-127600467D01*
X138315039Y-127466895D01*
X138304037Y-127430627D01*
X138286641Y-127254000D01*
X138304037Y-127077373D01*
X138355557Y-126907534D01*
X138355557Y-126907533D01*
X138439221Y-126751011D01*
X138439222Y-126751009D01*
X138468552Y-126715271D01*
X138551814Y-126613814D01*
X138653271Y-126530552D01*
X138689009Y-126501222D01*
X138706913Y-126491652D01*
X138845533Y-126417557D01*
X138902147Y-126400384D01*
X139015373Y-126366037D01*
X139081557Y-126359519D01*
X139147740Y-126353000D01*
X139236260Y-126353000D01*
X139302443Y-126359519D01*
X139302443Y-126359519D01*
G37*
G36*
X146922443Y-126359519D02*
X146988627Y-126366037D01*
X147101853Y-126400384D01*
X147158467Y-126417557D01*
X147297087Y-126491652D01*
X147314991Y-126501222D01*
X147350729Y-126530552D01*
X147452186Y-126613814D01*
X147535448Y-126715271D01*
X147564778Y-126751009D01*
X147564779Y-126751011D01*
X147648443Y-126907533D01*
X147648443Y-126907534D01*
X147699963Y-127077373D01*
X147717359Y-127254000D01*
X147699963Y-127430627D01*
X147688961Y-127466895D01*
X147648443Y-127600467D01*
X147574348Y-127739087D01*
X147564778Y-127756991D01*
X147535448Y-127792729D01*
X147452186Y-127894186D01*
X147350729Y-127977448D01*
X147314991Y-128006778D01*
X147314989Y-128006779D01*
X147158467Y-128090443D01*
X147101853Y-128107616D01*
X146988627Y-128141963D01*
X146922443Y-128148481D01*
X146856260Y-128155000D01*
X146767740Y-128155000D01*
X146701557Y-128148481D01*
X146635373Y-128141963D01*
X146522147Y-128107616D01*
X146465533Y-128090443D01*
X146309011Y-128006779D01*
X146309009Y-128006778D01*
X146273271Y-127977448D01*
X146171814Y-127894186D01*
X146088552Y-127792729D01*
X146059222Y-127756991D01*
X146049652Y-127739087D01*
X145975557Y-127600467D01*
X145935039Y-127466895D01*
X145924037Y-127430627D01*
X145906641Y-127254000D01*
X145924037Y-127077373D01*
X145975557Y-126907534D01*
X145975557Y-126907533D01*
X146059221Y-126751011D01*
X146059222Y-126751009D01*
X146088552Y-126715271D01*
X146171814Y-126613814D01*
X146273271Y-126530552D01*
X146309009Y-126501222D01*
X146326913Y-126491652D01*
X146465533Y-126417557D01*
X146522147Y-126400384D01*
X146635373Y-126366037D01*
X146701557Y-126359519D01*
X146767740Y-126353000D01*
X146856260Y-126353000D01*
X146922443Y-126359519D01*
X146922443Y-126359519D01*
G37*
G36*
X141842443Y-126359519D02*
X141908627Y-126366037D01*
X142021853Y-126400384D01*
X142078467Y-126417557D01*
X142217087Y-126491652D01*
X142234991Y-126501222D01*
X142270729Y-126530552D01*
X142372186Y-126613814D01*
X142455448Y-126715271D01*
X142484778Y-126751009D01*
X142484779Y-126751011D01*
X142568443Y-126907533D01*
X142568443Y-126907534D01*
X142619963Y-127077373D01*
X142637359Y-127254000D01*
X142619963Y-127430627D01*
X142608961Y-127466895D01*
X142568443Y-127600467D01*
X142494348Y-127739087D01*
X142484778Y-127756991D01*
X142455448Y-127792729D01*
X142372186Y-127894186D01*
X142270729Y-127977448D01*
X142234991Y-128006778D01*
X142234989Y-128006779D01*
X142078467Y-128090443D01*
X142021853Y-128107616D01*
X141908627Y-128141963D01*
X141842443Y-128148481D01*
X141776260Y-128155000D01*
X141687740Y-128155000D01*
X141621557Y-128148481D01*
X141555373Y-128141963D01*
X141442147Y-128107616D01*
X141385533Y-128090443D01*
X141229011Y-128006779D01*
X141229009Y-128006778D01*
X141193271Y-127977448D01*
X141091814Y-127894186D01*
X141008552Y-127792729D01*
X140979222Y-127756991D01*
X140969652Y-127739087D01*
X140895557Y-127600467D01*
X140855039Y-127466895D01*
X140844037Y-127430627D01*
X140826641Y-127254000D01*
X140844037Y-127077373D01*
X140895557Y-126907534D01*
X140895557Y-126907533D01*
X140979221Y-126751011D01*
X140979222Y-126751009D01*
X141008552Y-126715271D01*
X141091814Y-126613814D01*
X141193271Y-126530552D01*
X141229009Y-126501222D01*
X141246913Y-126491652D01*
X141385533Y-126417557D01*
X141442147Y-126400384D01*
X141555373Y-126366037D01*
X141621557Y-126359519D01*
X141687740Y-126353000D01*
X141776260Y-126353000D01*
X141842443Y-126359519D01*
X141842443Y-126359519D01*
G37*
G36*
X144382443Y-126359519D02*
X144448627Y-126366037D01*
X144561853Y-126400384D01*
X144618467Y-126417557D01*
X144757087Y-126491652D01*
X144774991Y-126501222D01*
X144810729Y-126530552D01*
X144912186Y-126613814D01*
X144995448Y-126715271D01*
X145024778Y-126751009D01*
X145024779Y-126751011D01*
X145108443Y-126907533D01*
X145108443Y-126907534D01*
X145159963Y-127077373D01*
X145177359Y-127254000D01*
X145159963Y-127430627D01*
X145148961Y-127466895D01*
X145108443Y-127600467D01*
X145034348Y-127739087D01*
X145024778Y-127756991D01*
X144995448Y-127792729D01*
X144912186Y-127894186D01*
X144810729Y-127977448D01*
X144774991Y-128006778D01*
X144774989Y-128006779D01*
X144618467Y-128090443D01*
X144561853Y-128107616D01*
X144448627Y-128141963D01*
X144382443Y-128148481D01*
X144316260Y-128155000D01*
X144227740Y-128155000D01*
X144161557Y-128148481D01*
X144095373Y-128141963D01*
X143982147Y-128107616D01*
X143925533Y-128090443D01*
X143769011Y-128006779D01*
X143769009Y-128006778D01*
X143733271Y-127977448D01*
X143631814Y-127894186D01*
X143548552Y-127792729D01*
X143519222Y-127756991D01*
X143509652Y-127739087D01*
X143435557Y-127600467D01*
X143395039Y-127466895D01*
X143384037Y-127430627D01*
X143366641Y-127254000D01*
X143384037Y-127077373D01*
X143435557Y-126907534D01*
X143435557Y-126907533D01*
X143519221Y-126751011D01*
X143519222Y-126751009D01*
X143548552Y-126715271D01*
X143631814Y-126613814D01*
X143733271Y-126530552D01*
X143769009Y-126501222D01*
X143786913Y-126491652D01*
X143925533Y-126417557D01*
X143982147Y-126400384D01*
X144095373Y-126366037D01*
X144161557Y-126359519D01*
X144227740Y-126353000D01*
X144316260Y-126353000D01*
X144382443Y-126359519D01*
X144382443Y-126359519D01*
G37*
G36*
X160977194Y-125411355D02*
X161083550Y-125432511D01*
X161154390Y-125461854D01*
X161283916Y-125515505D01*
X161464250Y-125636001D01*
X161617599Y-125789350D01*
X161738095Y-125969684D01*
X161821089Y-126170051D01*
X161863400Y-126382760D01*
X161863400Y-126599640D01*
X161860580Y-126613815D01*
X161833291Y-126751009D01*
X161821089Y-126812349D01*
X161738095Y-127012716D01*
X161738093Y-127012719D01*
X161633135Y-127169800D01*
X161617599Y-127193050D01*
X161464250Y-127346399D01*
X161283916Y-127466895D01*
X161154390Y-127520546D01*
X161083550Y-127549889D01*
X160977195Y-127571044D01*
X160870840Y-127592200D01*
X160653960Y-127592200D01*
X160547605Y-127571044D01*
X160441250Y-127549889D01*
X160370410Y-127520546D01*
X160240884Y-127466895D01*
X160060550Y-127346399D01*
X159907201Y-127193050D01*
X159891666Y-127169800D01*
X159786707Y-127012719D01*
X159786705Y-127012716D01*
X159703711Y-126812349D01*
X159691510Y-126751009D01*
X159664220Y-126613815D01*
X159661400Y-126599640D01*
X159661400Y-126382760D01*
X159703711Y-126170051D01*
X159786705Y-125969684D01*
X159907201Y-125789350D01*
X160060550Y-125636001D01*
X160240884Y-125515505D01*
X160370410Y-125461854D01*
X160441250Y-125432511D01*
X160547606Y-125411355D01*
X160653960Y-125390200D01*
X160870840Y-125390200D01*
X160977194Y-125411355D01*
X160977194Y-125411355D01*
G37*
G36*
X167987194Y-125411355D02*
X168093550Y-125432511D01*
X168164390Y-125461854D01*
X168293916Y-125515505D01*
X168474250Y-125636001D01*
X168627599Y-125789350D01*
X168748095Y-125969684D01*
X168831089Y-126170051D01*
X168873400Y-126382760D01*
X168873400Y-126599640D01*
X168870580Y-126613815D01*
X168843291Y-126751009D01*
X168831089Y-126812349D01*
X168748095Y-127012716D01*
X168748093Y-127012719D01*
X168643135Y-127169800D01*
X168627599Y-127193050D01*
X168474250Y-127346399D01*
X168293916Y-127466895D01*
X168164390Y-127520546D01*
X168093550Y-127549889D01*
X167987195Y-127571044D01*
X167880840Y-127592200D01*
X167663960Y-127592200D01*
X167557605Y-127571044D01*
X167451250Y-127549889D01*
X167380410Y-127520546D01*
X167250884Y-127466895D01*
X167070550Y-127346399D01*
X166917201Y-127193050D01*
X166901666Y-127169800D01*
X166796707Y-127012719D01*
X166796705Y-127012716D01*
X166713711Y-126812349D01*
X166701510Y-126751009D01*
X166674220Y-126613815D01*
X166671400Y-126599640D01*
X166671400Y-126382760D01*
X166713711Y-126170051D01*
X166796705Y-125969684D01*
X166917201Y-125789350D01*
X167070550Y-125636001D01*
X167250884Y-125515505D01*
X167380410Y-125461854D01*
X167451250Y-125432511D01*
X167557606Y-125411355D01*
X167663960Y-125390200D01*
X167880840Y-125390200D01*
X167987194Y-125411355D01*
X167987194Y-125411355D01*
G37*
G36*
X122455938Y-124474716D02*
X122476556Y-124480970D01*
X122495556Y-124491126D01*
X122512208Y-124504792D01*
X122525874Y-124521444D01*
X122536030Y-124540444D01*
X122542284Y-124561062D01*
X122545000Y-124588640D01*
X122545000Y-125047360D01*
X122542284Y-125074938D01*
X122536030Y-125095556D01*
X122525874Y-125114556D01*
X122512208Y-125131208D01*
X122495556Y-125144874D01*
X122476556Y-125155030D01*
X122455938Y-125161284D01*
X122428360Y-125164000D01*
X121919640Y-125164000D01*
X121892062Y-125161284D01*
X121871444Y-125155030D01*
X121852444Y-125144874D01*
X121835792Y-125131208D01*
X121822126Y-125114556D01*
X121811970Y-125095556D01*
X121805716Y-125074938D01*
X121803000Y-125047360D01*
X121803000Y-124588640D01*
X121805716Y-124561062D01*
X121811970Y-124540444D01*
X121822126Y-124521444D01*
X121835792Y-124504792D01*
X121852444Y-124491126D01*
X121871444Y-124480970D01*
X121892062Y-124474716D01*
X121919640Y-124472000D01*
X122428360Y-124472000D01*
X122455938Y-124474716D01*
X122455938Y-124474716D01*
G37*
G36*
X120677938Y-124474716D02*
X120698556Y-124480970D01*
X120717556Y-124491126D01*
X120734208Y-124504792D01*
X120747874Y-124521444D01*
X120758030Y-124540444D01*
X120764284Y-124561062D01*
X120767000Y-124588640D01*
X120767000Y-125047360D01*
X120764284Y-125074938D01*
X120758030Y-125095556D01*
X120747874Y-125114556D01*
X120734208Y-125131208D01*
X120717556Y-125144874D01*
X120698556Y-125155030D01*
X120677938Y-125161284D01*
X120650360Y-125164000D01*
X120141640Y-125164000D01*
X120114062Y-125161284D01*
X120093444Y-125155030D01*
X120074444Y-125144874D01*
X120057792Y-125131208D01*
X120044126Y-125114556D01*
X120033970Y-125095556D01*
X120027716Y-125074938D01*
X120025000Y-125047360D01*
X120025000Y-124588640D01*
X120027716Y-124561062D01*
X120033970Y-124540444D01*
X120044126Y-124521444D01*
X120057792Y-124504792D01*
X120074444Y-124491126D01*
X120093444Y-124480970D01*
X120114062Y-124474716D01*
X120141640Y-124472000D01*
X120650360Y-124472000D01*
X120677938Y-124474716D01*
X120677938Y-124474716D01*
G37*
G36*
X120677938Y-123504716D02*
X120698556Y-123510970D01*
X120717556Y-123521126D01*
X120734208Y-123534792D01*
X120747874Y-123551444D01*
X120758030Y-123570444D01*
X120764284Y-123591062D01*
X120767000Y-123618640D01*
X120767000Y-124077360D01*
X120764284Y-124104938D01*
X120758030Y-124125556D01*
X120747874Y-124144556D01*
X120734208Y-124161208D01*
X120717556Y-124174874D01*
X120698556Y-124185030D01*
X120677938Y-124191284D01*
X120650360Y-124194000D01*
X120141640Y-124194000D01*
X120114062Y-124191284D01*
X120093444Y-124185030D01*
X120074444Y-124174874D01*
X120057792Y-124161208D01*
X120044126Y-124144556D01*
X120033970Y-124125556D01*
X120027716Y-124104938D01*
X120025000Y-124077360D01*
X120025000Y-123618640D01*
X120027716Y-123591062D01*
X120033970Y-123570444D01*
X120044126Y-123551444D01*
X120057792Y-123534792D01*
X120074444Y-123521126D01*
X120093444Y-123510970D01*
X120114062Y-123504716D01*
X120141640Y-123502000D01*
X120650360Y-123502000D01*
X120677938Y-123504716D01*
X120677938Y-123504716D01*
G37*
G36*
X122455938Y-123504716D02*
X122476556Y-123510970D01*
X122495556Y-123521126D01*
X122512208Y-123534792D01*
X122525874Y-123551444D01*
X122536030Y-123570444D01*
X122542284Y-123591062D01*
X122545000Y-123618640D01*
X122545000Y-124077360D01*
X122542284Y-124104938D01*
X122536030Y-124125556D01*
X122525874Y-124144556D01*
X122512208Y-124161208D01*
X122495556Y-124174874D01*
X122476556Y-124185030D01*
X122455938Y-124191284D01*
X122428360Y-124194000D01*
X121919640Y-124194000D01*
X121892062Y-124191284D01*
X121871444Y-124185030D01*
X121852444Y-124174874D01*
X121835792Y-124161208D01*
X121822126Y-124144556D01*
X121811970Y-124125556D01*
X121805716Y-124104938D01*
X121803000Y-124077360D01*
X121803000Y-123618640D01*
X121805716Y-123591062D01*
X121811970Y-123570444D01*
X121822126Y-123551444D01*
X121835792Y-123534792D01*
X121852444Y-123521126D01*
X121871444Y-123510970D01*
X121892062Y-123504716D01*
X121919640Y-123502000D01*
X122428360Y-123502000D01*
X122455938Y-123504716D01*
X122455938Y-123504716D01*
G37*
G36*
X157457000Y-123829000D02*
X156455000Y-123829000D01*
X156455000Y-122927000D01*
X157457000Y-122927000D01*
X157457000Y-123829000D01*
X157457000Y-123829000D01*
G37*
G36*
X155457000Y-122879000D02*
X154455000Y-122879000D01*
X154455000Y-121977000D01*
X155457000Y-121977000D01*
X155457000Y-122879000D01*
X155457000Y-122879000D01*
G37*
G36*
X149837000Y-122305000D02*
X148835000Y-122305000D01*
X148835000Y-121403000D01*
X149837000Y-121403000D01*
X149837000Y-122305000D01*
X149837000Y-122305000D01*
G37*
G36*
X153647000Y-122305000D02*
X152645000Y-122305000D01*
X152645000Y-121403000D01*
X153647000Y-121403000D01*
X153647000Y-122305000D01*
X153647000Y-122305000D01*
G37*
G36*
X146043000Y-122305000D02*
X145041000Y-122305000D01*
X145041000Y-121403000D01*
X146043000Y-121403000D01*
X146043000Y-122305000D01*
X146043000Y-122305000D01*
G37*
G36*
X157457000Y-121929000D02*
X156455000Y-121929000D01*
X156455000Y-121027000D01*
X157457000Y-121027000D01*
X157457000Y-121929000D01*
X157457000Y-121929000D01*
G37*
G36*
X151647000Y-121355000D02*
X150645000Y-121355000D01*
X150645000Y-120453000D01*
X151647000Y-120453000D01*
X151647000Y-121355000D01*
X151647000Y-121355000D01*
G37*
G36*
X147837000Y-121355000D02*
X146835000Y-121355000D01*
X146835000Y-120453000D01*
X147837000Y-120453000D01*
X147837000Y-121355000D01*
X147837000Y-121355000D01*
G37*
G36*
X144043000Y-121355000D02*
X143041000Y-121355000D01*
X143041000Y-120453000D01*
X144043000Y-120453000D01*
X144043000Y-121355000D01*
X144043000Y-121355000D01*
G37*
G36*
X162251642Y-115976330D02*
X162352450Y-116006911D01*
X162445359Y-116056572D01*
X162526796Y-116123404D01*
X162593628Y-116204841D01*
X162643289Y-116297750D01*
X162673870Y-116398558D01*
X162684800Y-116509540D01*
X162684800Y-120523260D01*
X162673870Y-120634242D01*
X162643289Y-120735050D01*
X162593628Y-120827959D01*
X162526796Y-120909396D01*
X162445359Y-120976228D01*
X162352450Y-121025889D01*
X162251642Y-121056470D01*
X162140660Y-121067400D01*
X160826940Y-121067400D01*
X160715958Y-121056470D01*
X160615150Y-121025889D01*
X160522241Y-120976228D01*
X160440804Y-120909396D01*
X160373972Y-120827959D01*
X160324311Y-120735050D01*
X160293730Y-120634242D01*
X160282800Y-120523260D01*
X160282800Y-116509540D01*
X160293730Y-116398558D01*
X160324311Y-116297750D01*
X160373972Y-116204841D01*
X160440804Y-116123404D01*
X160522241Y-116056572D01*
X160615150Y-116006911D01*
X160715958Y-115976330D01*
X160826940Y-115965400D01*
X162140660Y-115965400D01*
X162251642Y-115976330D01*
X162251642Y-115976330D01*
G37*
G36*
X168251642Y-116226330D02*
X168352450Y-116256911D01*
X168445359Y-116306572D01*
X168526796Y-116373404D01*
X168593628Y-116454841D01*
X168643289Y-116547750D01*
X168673870Y-116648558D01*
X168684800Y-116759540D01*
X168684800Y-120273260D01*
X168673870Y-120384242D01*
X168643289Y-120485050D01*
X168593628Y-120577959D01*
X168526796Y-120659396D01*
X168445359Y-120726228D01*
X168352450Y-120775889D01*
X168251642Y-120806470D01*
X168140660Y-120817400D01*
X166826940Y-120817400D01*
X166715958Y-120806470D01*
X166615150Y-120775889D01*
X166522241Y-120726228D01*
X166440804Y-120659396D01*
X166373972Y-120577959D01*
X166324311Y-120485050D01*
X166293730Y-120384242D01*
X166282800Y-120273260D01*
X166282800Y-116759540D01*
X166293730Y-116648558D01*
X166324311Y-116547750D01*
X166373972Y-116454841D01*
X166440804Y-116373404D01*
X166522241Y-116306572D01*
X166615150Y-116256911D01*
X166715958Y-116226330D01*
X166826940Y-116215400D01*
X168140660Y-116215400D01*
X168251642Y-116226330D01*
X168251642Y-116226330D01*
G37*
G36*
X153647000Y-120405000D02*
X152645000Y-120405000D01*
X152645000Y-119503000D01*
X153647000Y-119503000D01*
X153647000Y-120405000D01*
X153647000Y-120405000D01*
G37*
G36*
X149837000Y-120405000D02*
X148835000Y-120405000D01*
X148835000Y-119503000D01*
X149837000Y-119503000D01*
X149837000Y-120405000D01*
X149837000Y-120405000D01*
G37*
G36*
X146043000Y-120405000D02*
X145041000Y-120405000D01*
X145041000Y-119503000D01*
X146043000Y-119503000D01*
X146043000Y-120405000D01*
X146043000Y-120405000D01*
G37*
G36*
X158221938Y-119265716D02*
X158242556Y-119271970D01*
X158261556Y-119282126D01*
X158278208Y-119295792D01*
X158291874Y-119312444D01*
X158302030Y-119331444D01*
X158308284Y-119352062D01*
X158311000Y-119379640D01*
X158311000Y-119888360D01*
X158308284Y-119915938D01*
X158302030Y-119936556D01*
X158291874Y-119955556D01*
X158278208Y-119972208D01*
X158261556Y-119985874D01*
X158242556Y-119996030D01*
X158221938Y-120002284D01*
X158194360Y-120005000D01*
X157735640Y-120005000D01*
X157708062Y-120002284D01*
X157687444Y-119996030D01*
X157668444Y-119985874D01*
X157651792Y-119972208D01*
X157638126Y-119955556D01*
X157627970Y-119936556D01*
X157621716Y-119915938D01*
X157619000Y-119888360D01*
X157619000Y-119379640D01*
X157621716Y-119352062D01*
X157627970Y-119331444D01*
X157638126Y-119312444D01*
X157651792Y-119295792D01*
X157668444Y-119282126D01*
X157687444Y-119271970D01*
X157708062Y-119265716D01*
X157735640Y-119263000D01*
X158194360Y-119263000D01*
X158221938Y-119265716D01*
X158221938Y-119265716D01*
G37*
G36*
X157251938Y-119265716D02*
X157272556Y-119271970D01*
X157291556Y-119282126D01*
X157308208Y-119295792D01*
X157321874Y-119312444D01*
X157332030Y-119331444D01*
X157338284Y-119352062D01*
X157341000Y-119379640D01*
X157341000Y-119888360D01*
X157338284Y-119915938D01*
X157332030Y-119936556D01*
X157321874Y-119955556D01*
X157308208Y-119972208D01*
X157291556Y-119985874D01*
X157272556Y-119996030D01*
X157251938Y-120002284D01*
X157224360Y-120005000D01*
X156765640Y-120005000D01*
X156738062Y-120002284D01*
X156717444Y-119996030D01*
X156698444Y-119985874D01*
X156681792Y-119972208D01*
X156668126Y-119955556D01*
X156657970Y-119936556D01*
X156651716Y-119915938D01*
X156649000Y-119888360D01*
X156649000Y-119379640D01*
X156651716Y-119352062D01*
X156657970Y-119331444D01*
X156668126Y-119312444D01*
X156681792Y-119295792D01*
X156698444Y-119282126D01*
X156717444Y-119271970D01*
X156738062Y-119265716D01*
X156765640Y-119263000D01*
X157224360Y-119263000D01*
X157251938Y-119265716D01*
X157251938Y-119265716D01*
G37*
G36*
X135552800Y-119627000D02*
X134550800Y-119627000D01*
X134550800Y-118625000D01*
X135552800Y-118625000D01*
X135552800Y-119627000D01*
X135552800Y-119627000D01*
G37*
G36*
X134282800Y-119627000D02*
X133280800Y-119627000D01*
X133280800Y-118625000D01*
X134282800Y-118625000D01*
X134282800Y-119627000D01*
X134282800Y-119627000D01*
G37*
G36*
X137252800Y-119627000D02*
X136250800Y-119627000D01*
X136250800Y-118625000D01*
X137252800Y-118625000D01*
X137252800Y-119627000D01*
X137252800Y-119627000D01*
G37*
G36*
X133012800Y-119627000D02*
X132010800Y-119627000D01*
X132010800Y-118625000D01*
X133012800Y-118625000D01*
X133012800Y-119627000D01*
X133012800Y-119627000D01*
G37*
G36*
X131742800Y-119627000D02*
X130740800Y-119627000D01*
X130740800Y-118625000D01*
X131742800Y-118625000D01*
X131742800Y-119627000D01*
X131742800Y-119627000D01*
G37*
G36*
X130472800Y-119627000D02*
X129470800Y-119627000D01*
X129470800Y-118625000D01*
X130472800Y-118625000D01*
X130472800Y-119627000D01*
X130472800Y-119627000D01*
G37*
G36*
X129202800Y-119627000D02*
X128200800Y-119627000D01*
X128200800Y-118625000D01*
X129202800Y-118625000D01*
X129202800Y-119627000D01*
X129202800Y-119627000D01*
G37*
G36*
X127932800Y-119627000D02*
X126930800Y-119627000D01*
X126930800Y-118625000D01*
X127932800Y-118625000D01*
X127932800Y-119627000D01*
X127932800Y-119627000D01*
G37*
G36*
X126662800Y-119627000D02*
X125660800Y-119627000D01*
X125660800Y-118625000D01*
X126662800Y-118625000D01*
X126662800Y-119627000D01*
X126662800Y-119627000D01*
G37*
G36*
X121152800Y-119627000D02*
X120150800Y-119627000D01*
X120150800Y-118625000D01*
X121152800Y-118625000D01*
X121152800Y-119627000D01*
X121152800Y-119627000D01*
G37*
G36*
X122852800Y-119627000D02*
X121850800Y-119627000D01*
X121850800Y-118625000D01*
X122852800Y-118625000D01*
X122852800Y-119627000D01*
X122852800Y-119627000D01*
G37*
G36*
X124122800Y-119627000D02*
X123120800Y-119627000D01*
X123120800Y-118625000D01*
X124122800Y-118625000D01*
X124122800Y-119627000D01*
X124122800Y-119627000D01*
G37*
G36*
X125392800Y-119627000D02*
X124390800Y-119627000D01*
X124390800Y-118625000D01*
X125392800Y-118625000D01*
X125392800Y-119627000D01*
X125392800Y-119627000D01*
G37*
G36*
X121152800Y-118357000D02*
X120150800Y-118357000D01*
X120150800Y-117355000D01*
X121152800Y-117355000D01*
X121152800Y-118357000D01*
X121152800Y-118357000D01*
G37*
G36*
X137252800Y-118357000D02*
X136250800Y-118357000D01*
X136250800Y-117355000D01*
X137252800Y-117355000D01*
X137252800Y-118357000D01*
X137252800Y-118357000D01*
G37*
G36*
X144759938Y-116979716D02*
X144780556Y-116985970D01*
X144799556Y-116996126D01*
X144816208Y-117009792D01*
X144829874Y-117026444D01*
X144840030Y-117045444D01*
X144846284Y-117066062D01*
X144849000Y-117093640D01*
X144849000Y-117602360D01*
X144846284Y-117629938D01*
X144840030Y-117650556D01*
X144829874Y-117669556D01*
X144816208Y-117686208D01*
X144799556Y-117699874D01*
X144780556Y-117710030D01*
X144759938Y-117716284D01*
X144732360Y-117719000D01*
X144273640Y-117719000D01*
X144246062Y-117716284D01*
X144225444Y-117710030D01*
X144206444Y-117699874D01*
X144189792Y-117686208D01*
X144176126Y-117669556D01*
X144165970Y-117650556D01*
X144159716Y-117629938D01*
X144157000Y-117602360D01*
X144157000Y-117093640D01*
X144159716Y-117066062D01*
X144165970Y-117045444D01*
X144176126Y-117026444D01*
X144189792Y-117009792D01*
X144206444Y-116996126D01*
X144225444Y-116985970D01*
X144246062Y-116979716D01*
X144273640Y-116977000D01*
X144732360Y-116977000D01*
X144759938Y-116979716D01*
X144759938Y-116979716D01*
G37*
G36*
X143789938Y-116979716D02*
X143810556Y-116985970D01*
X143829556Y-116996126D01*
X143846208Y-117009792D01*
X143859874Y-117026444D01*
X143870030Y-117045444D01*
X143876284Y-117066062D01*
X143879000Y-117093640D01*
X143879000Y-117602360D01*
X143876284Y-117629938D01*
X143870030Y-117650556D01*
X143859874Y-117669556D01*
X143846208Y-117686208D01*
X143829556Y-117699874D01*
X143810556Y-117710030D01*
X143789938Y-117716284D01*
X143762360Y-117719000D01*
X143303640Y-117719000D01*
X143276062Y-117716284D01*
X143255444Y-117710030D01*
X143236444Y-117699874D01*
X143219792Y-117686208D01*
X143206126Y-117669556D01*
X143195970Y-117650556D01*
X143189716Y-117629938D01*
X143187000Y-117602360D01*
X143187000Y-117093640D01*
X143189716Y-117066062D01*
X143195970Y-117045444D01*
X143206126Y-117026444D01*
X143219792Y-117009792D01*
X143236444Y-116996126D01*
X143255444Y-116985970D01*
X143276062Y-116979716D01*
X143303640Y-116977000D01*
X143762360Y-116977000D01*
X143789938Y-116979716D01*
X143789938Y-116979716D01*
G37*
G36*
X156189938Y-116979716D02*
X156210556Y-116985970D01*
X156229556Y-116996126D01*
X156246208Y-117009792D01*
X156259874Y-117026444D01*
X156270030Y-117045444D01*
X156276284Y-117066062D01*
X156279000Y-117093640D01*
X156279000Y-117602360D01*
X156276284Y-117629938D01*
X156270030Y-117650556D01*
X156259874Y-117669556D01*
X156246208Y-117686208D01*
X156229556Y-117699874D01*
X156210556Y-117710030D01*
X156189938Y-117716284D01*
X156162360Y-117719000D01*
X155703640Y-117719000D01*
X155676062Y-117716284D01*
X155655444Y-117710030D01*
X155636444Y-117699874D01*
X155619792Y-117686208D01*
X155606126Y-117669556D01*
X155595970Y-117650556D01*
X155589716Y-117629938D01*
X155587000Y-117602360D01*
X155587000Y-117093640D01*
X155589716Y-117066062D01*
X155595970Y-117045444D01*
X155606126Y-117026444D01*
X155619792Y-117009792D01*
X155636444Y-116996126D01*
X155655444Y-116985970D01*
X155676062Y-116979716D01*
X155703640Y-116977000D01*
X156162360Y-116977000D01*
X156189938Y-116979716D01*
X156189938Y-116979716D01*
G37*
G36*
X155219938Y-116979716D02*
X155240556Y-116985970D01*
X155259556Y-116996126D01*
X155276208Y-117009792D01*
X155289874Y-117026444D01*
X155300030Y-117045444D01*
X155306284Y-117066062D01*
X155309000Y-117093640D01*
X155309000Y-117602360D01*
X155306284Y-117629938D01*
X155300030Y-117650556D01*
X155289874Y-117669556D01*
X155276208Y-117686208D01*
X155259556Y-117699874D01*
X155240556Y-117710030D01*
X155219938Y-117716284D01*
X155192360Y-117719000D01*
X154733640Y-117719000D01*
X154706062Y-117716284D01*
X154685444Y-117710030D01*
X154666444Y-117699874D01*
X154649792Y-117686208D01*
X154636126Y-117669556D01*
X154625970Y-117650556D01*
X154619716Y-117629938D01*
X154617000Y-117602360D01*
X154617000Y-117093640D01*
X154619716Y-117066062D01*
X154625970Y-117045444D01*
X154636126Y-117026444D01*
X154649792Y-117009792D01*
X154666444Y-116996126D01*
X154685444Y-116985970D01*
X154706062Y-116979716D01*
X154733640Y-116977000D01*
X155192360Y-116977000D01*
X155219938Y-116979716D01*
X155219938Y-116979716D01*
G37*
G36*
X152379938Y-116979716D02*
X152400556Y-116985970D01*
X152419556Y-116996126D01*
X152436208Y-117009792D01*
X152449874Y-117026444D01*
X152460030Y-117045444D01*
X152466284Y-117066062D01*
X152469000Y-117093640D01*
X152469000Y-117602360D01*
X152466284Y-117629938D01*
X152460030Y-117650556D01*
X152449874Y-117669556D01*
X152436208Y-117686208D01*
X152419556Y-117699874D01*
X152400556Y-117710030D01*
X152379938Y-117716284D01*
X152352360Y-117719000D01*
X151893640Y-117719000D01*
X151866062Y-117716284D01*
X151845444Y-117710030D01*
X151826444Y-117699874D01*
X151809792Y-117686208D01*
X151796126Y-117669556D01*
X151785970Y-117650556D01*
X151779716Y-117629938D01*
X151777000Y-117602360D01*
X151777000Y-117093640D01*
X151779716Y-117066062D01*
X151785970Y-117045444D01*
X151796126Y-117026444D01*
X151809792Y-117009792D01*
X151826444Y-116996126D01*
X151845444Y-116985970D01*
X151866062Y-116979716D01*
X151893640Y-116977000D01*
X152352360Y-116977000D01*
X152379938Y-116979716D01*
X152379938Y-116979716D01*
G37*
G36*
X151409938Y-116979716D02*
X151430556Y-116985970D01*
X151449556Y-116996126D01*
X151466208Y-117009792D01*
X151479874Y-117026444D01*
X151490030Y-117045444D01*
X151496284Y-117066062D01*
X151499000Y-117093640D01*
X151499000Y-117602360D01*
X151496284Y-117629938D01*
X151490030Y-117650556D01*
X151479874Y-117669556D01*
X151466208Y-117686208D01*
X151449556Y-117699874D01*
X151430556Y-117710030D01*
X151409938Y-117716284D01*
X151382360Y-117719000D01*
X150923640Y-117719000D01*
X150896062Y-117716284D01*
X150875444Y-117710030D01*
X150856444Y-117699874D01*
X150839792Y-117686208D01*
X150826126Y-117669556D01*
X150815970Y-117650556D01*
X150809716Y-117629938D01*
X150807000Y-117602360D01*
X150807000Y-117093640D01*
X150809716Y-117066062D01*
X150815970Y-117045444D01*
X150826126Y-117026444D01*
X150839792Y-117009792D01*
X150856444Y-116996126D01*
X150875444Y-116985970D01*
X150896062Y-116979716D01*
X150923640Y-116977000D01*
X151382360Y-116977000D01*
X151409938Y-116979716D01*
X151409938Y-116979716D01*
G37*
G36*
X147599938Y-116979716D02*
X147620556Y-116985970D01*
X147639556Y-116996126D01*
X147656208Y-117009792D01*
X147669874Y-117026444D01*
X147680030Y-117045444D01*
X147686284Y-117066062D01*
X147689000Y-117093640D01*
X147689000Y-117602360D01*
X147686284Y-117629938D01*
X147680030Y-117650556D01*
X147669874Y-117669556D01*
X147656208Y-117686208D01*
X147639556Y-117699874D01*
X147620556Y-117710030D01*
X147599938Y-117716284D01*
X147572360Y-117719000D01*
X147113640Y-117719000D01*
X147086062Y-117716284D01*
X147065444Y-117710030D01*
X147046444Y-117699874D01*
X147029792Y-117686208D01*
X147016126Y-117669556D01*
X147005970Y-117650556D01*
X146999716Y-117629938D01*
X146997000Y-117602360D01*
X146997000Y-117093640D01*
X146999716Y-117066062D01*
X147005970Y-117045444D01*
X147016126Y-117026444D01*
X147029792Y-117009792D01*
X147046444Y-116996126D01*
X147065444Y-116985970D01*
X147086062Y-116979716D01*
X147113640Y-116977000D01*
X147572360Y-116977000D01*
X147599938Y-116979716D01*
X147599938Y-116979716D01*
G37*
G36*
X148569938Y-116979716D02*
X148590556Y-116985970D01*
X148609556Y-116996126D01*
X148626208Y-117009792D01*
X148639874Y-117026444D01*
X148650030Y-117045444D01*
X148656284Y-117066062D01*
X148659000Y-117093640D01*
X148659000Y-117602360D01*
X148656284Y-117629938D01*
X148650030Y-117650556D01*
X148639874Y-117669556D01*
X148626208Y-117686208D01*
X148609556Y-117699874D01*
X148590556Y-117710030D01*
X148569938Y-117716284D01*
X148542360Y-117719000D01*
X148083640Y-117719000D01*
X148056062Y-117716284D01*
X148035444Y-117710030D01*
X148016444Y-117699874D01*
X147999792Y-117686208D01*
X147986126Y-117669556D01*
X147975970Y-117650556D01*
X147969716Y-117629938D01*
X147967000Y-117602360D01*
X147967000Y-117093640D01*
X147969716Y-117066062D01*
X147975970Y-117045444D01*
X147986126Y-117026444D01*
X147999792Y-117009792D01*
X148016444Y-116996126D01*
X148035444Y-116985970D01*
X148056062Y-116979716D01*
X148083640Y-116977000D01*
X148542360Y-116977000D01*
X148569938Y-116979716D01*
X148569938Y-116979716D01*
G37*
G36*
X121152800Y-117087000D02*
X120150800Y-117087000D01*
X120150800Y-116085000D01*
X121152800Y-116085000D01*
X121152800Y-117087000D01*
X121152800Y-117087000D01*
G37*
G36*
X137252800Y-117087000D02*
X136250800Y-117087000D01*
X136250800Y-116085000D01*
X137252800Y-116085000D01*
X137252800Y-117087000D01*
X137252800Y-117087000D01*
G37*
G36*
X152525591Y-114857085D02*
X152559569Y-114867393D01*
X152590887Y-114884133D01*
X152618339Y-114906661D01*
X152640867Y-114934113D01*
X152657607Y-114965431D01*
X152667915Y-114999409D01*
X152672000Y-115040890D01*
X152672000Y-115642110D01*
X152667915Y-115683591D01*
X152657607Y-115717569D01*
X152640867Y-115748887D01*
X152618339Y-115776339D01*
X152590887Y-115798867D01*
X152559569Y-115815607D01*
X152525591Y-115825915D01*
X152484110Y-115830000D01*
X151807890Y-115830000D01*
X151766409Y-115825915D01*
X151732431Y-115815607D01*
X151701113Y-115798867D01*
X151673661Y-115776339D01*
X151651133Y-115748887D01*
X151634393Y-115717569D01*
X151624085Y-115683591D01*
X151620000Y-115642110D01*
X151620000Y-115040890D01*
X151624085Y-114999409D01*
X151634393Y-114965431D01*
X151651133Y-114934113D01*
X151673661Y-114906661D01*
X151701113Y-114884133D01*
X151732431Y-114867393D01*
X151766409Y-114857085D01*
X151807890Y-114853000D01*
X152484110Y-114853000D01*
X152525591Y-114857085D01*
X152525591Y-114857085D01*
G37*
G36*
X148715591Y-114857085D02*
X148749569Y-114867393D01*
X148780887Y-114884133D01*
X148808339Y-114906661D01*
X148830867Y-114934113D01*
X148847607Y-114965431D01*
X148857915Y-114999409D01*
X148862000Y-115040890D01*
X148862000Y-115642110D01*
X148857915Y-115683591D01*
X148847607Y-115717569D01*
X148830867Y-115748887D01*
X148808339Y-115776339D01*
X148780887Y-115798867D01*
X148749569Y-115815607D01*
X148715591Y-115825915D01*
X148674110Y-115830000D01*
X147997890Y-115830000D01*
X147956409Y-115825915D01*
X147922431Y-115815607D01*
X147891113Y-115798867D01*
X147863661Y-115776339D01*
X147841133Y-115748887D01*
X147824393Y-115717569D01*
X147814085Y-115683591D01*
X147810000Y-115642110D01*
X147810000Y-115040890D01*
X147814085Y-114999409D01*
X147824393Y-114965431D01*
X147841133Y-114934113D01*
X147863661Y-114906661D01*
X147891113Y-114884133D01*
X147922431Y-114867393D01*
X147956409Y-114857085D01*
X147997890Y-114853000D01*
X148674110Y-114853000D01*
X148715591Y-114857085D01*
X148715591Y-114857085D01*
G37*
G36*
X156335591Y-114857085D02*
X156369569Y-114867393D01*
X156400887Y-114884133D01*
X156428339Y-114906661D01*
X156450867Y-114934113D01*
X156467607Y-114965431D01*
X156477915Y-114999409D01*
X156482000Y-115040890D01*
X156482000Y-115642110D01*
X156477915Y-115683591D01*
X156467607Y-115717569D01*
X156450867Y-115748887D01*
X156428339Y-115776339D01*
X156400887Y-115798867D01*
X156369569Y-115815607D01*
X156335591Y-115825915D01*
X156294110Y-115830000D01*
X155617890Y-115830000D01*
X155576409Y-115825915D01*
X155542431Y-115815607D01*
X155511113Y-115798867D01*
X155483661Y-115776339D01*
X155461133Y-115748887D01*
X155444393Y-115717569D01*
X155434085Y-115683591D01*
X155430000Y-115642110D01*
X155430000Y-115040890D01*
X155434085Y-114999409D01*
X155444393Y-114965431D01*
X155461133Y-114934113D01*
X155483661Y-114906661D01*
X155511113Y-114884133D01*
X155542431Y-114867393D01*
X155576409Y-114857085D01*
X155617890Y-114853000D01*
X156294110Y-114853000D01*
X156335591Y-114857085D01*
X156335591Y-114857085D01*
G37*
G36*
X137252800Y-115817000D02*
X136250800Y-115817000D01*
X136250800Y-114815000D01*
X137252800Y-114815000D01*
X137252800Y-115817000D01*
X137252800Y-115817000D01*
G37*
G36*
X121152800Y-115817000D02*
X120150800Y-115817000D01*
X120150800Y-114815000D01*
X121152800Y-114815000D01*
X121152800Y-115817000D01*
X121152800Y-115817000D01*
G37*
G36*
X144905591Y-114831585D02*
X144939569Y-114841893D01*
X144970887Y-114858633D01*
X144998339Y-114881161D01*
X145020867Y-114908613D01*
X145037607Y-114939931D01*
X145047915Y-114973909D01*
X145052000Y-115015390D01*
X145052000Y-115616610D01*
X145047915Y-115658091D01*
X145037607Y-115692069D01*
X145020867Y-115723387D01*
X144998339Y-115750839D01*
X144970887Y-115773367D01*
X144939569Y-115790107D01*
X144905591Y-115800415D01*
X144864110Y-115804500D01*
X144187890Y-115804500D01*
X144146409Y-115800415D01*
X144112431Y-115790107D01*
X144081113Y-115773367D01*
X144053661Y-115750839D01*
X144031133Y-115723387D01*
X144014393Y-115692069D01*
X144004085Y-115658091D01*
X144000000Y-115616610D01*
X144000000Y-115015390D01*
X144004085Y-114973909D01*
X144014393Y-114939931D01*
X144031133Y-114908613D01*
X144053661Y-114881161D01*
X144081113Y-114858633D01*
X144112431Y-114841893D01*
X144146409Y-114831585D01*
X144187890Y-114827500D01*
X144864110Y-114827500D01*
X144905591Y-114831585D01*
X144905591Y-114831585D01*
G37*
G36*
X158269938Y-115025916D02*
X158290556Y-115032170D01*
X158309556Y-115042326D01*
X158326208Y-115055992D01*
X158339874Y-115072644D01*
X158350030Y-115091644D01*
X158356284Y-115112262D01*
X158359000Y-115139840D01*
X158359000Y-115598560D01*
X158356284Y-115626138D01*
X158350030Y-115646756D01*
X158339874Y-115665756D01*
X158326208Y-115682408D01*
X158309556Y-115696074D01*
X158290556Y-115706230D01*
X158269938Y-115712484D01*
X158242360Y-115715200D01*
X157733640Y-115715200D01*
X157706062Y-115712484D01*
X157685444Y-115706230D01*
X157666444Y-115696074D01*
X157649792Y-115682408D01*
X157636126Y-115665756D01*
X157625970Y-115646756D01*
X157619716Y-115626138D01*
X157617000Y-115598560D01*
X157617000Y-115139840D01*
X157619716Y-115112262D01*
X157625970Y-115091644D01*
X157636126Y-115072644D01*
X157649792Y-115055992D01*
X157666444Y-115042326D01*
X157685444Y-115032170D01*
X157706062Y-115025916D01*
X157733640Y-115023200D01*
X158242360Y-115023200D01*
X158269938Y-115025916D01*
X158269938Y-115025916D01*
G37*
G36*
X134302800Y-115202000D02*
X132100800Y-115202000D01*
X132100800Y-113000000D01*
X134302800Y-113000000D01*
X134302800Y-115202000D01*
X134302800Y-115202000D01*
G37*
G36*
X131302800Y-115202000D02*
X129100800Y-115202000D01*
X129100800Y-113000000D01*
X131302800Y-113000000D01*
X131302800Y-115202000D01*
X131302800Y-115202000D01*
G37*
G36*
X128302800Y-115202000D02*
X126100800Y-115202000D01*
X126100800Y-113000000D01*
X128302800Y-113000000D01*
X128302800Y-115202000D01*
X128302800Y-115202000D01*
G37*
G36*
X158269938Y-114055916D02*
X158290556Y-114062170D01*
X158309556Y-114072326D01*
X158326208Y-114085992D01*
X158339874Y-114102644D01*
X158350030Y-114121644D01*
X158356284Y-114142262D01*
X158359000Y-114169840D01*
X158359000Y-114628560D01*
X158356284Y-114656138D01*
X158350030Y-114676756D01*
X158339874Y-114695756D01*
X158326208Y-114712408D01*
X158309556Y-114726074D01*
X158290556Y-114736230D01*
X158269938Y-114742484D01*
X158242360Y-114745200D01*
X157733640Y-114745200D01*
X157706062Y-114742484D01*
X157685444Y-114736230D01*
X157666444Y-114726074D01*
X157649792Y-114712408D01*
X157636126Y-114695756D01*
X157625970Y-114676756D01*
X157619716Y-114656138D01*
X157617000Y-114628560D01*
X157617000Y-114169840D01*
X157619716Y-114142262D01*
X157625970Y-114121644D01*
X157636126Y-114102644D01*
X157649792Y-114085992D01*
X157666444Y-114072326D01*
X157685444Y-114062170D01*
X157706062Y-114055916D01*
X157733640Y-114053200D01*
X158242360Y-114053200D01*
X158269938Y-114055916D01*
X158269938Y-114055916D01*
G37*
G36*
X137252800Y-114547000D02*
X136250800Y-114547000D01*
X136250800Y-113545000D01*
X137252800Y-113545000D01*
X137252800Y-114547000D01*
X137252800Y-114547000D01*
G37*
G36*
X121152800Y-114547000D02*
X120150800Y-114547000D01*
X120150800Y-113545000D01*
X121152800Y-113545000D01*
X121152800Y-114547000D01*
X121152800Y-114547000D01*
G37*
G36*
X156335591Y-113282085D02*
X156369569Y-113292393D01*
X156400887Y-113309133D01*
X156428339Y-113331661D01*
X156450867Y-113359113D01*
X156467607Y-113390431D01*
X156477915Y-113424409D01*
X156482000Y-113465890D01*
X156482000Y-114067110D01*
X156477915Y-114108591D01*
X156467607Y-114142569D01*
X156450867Y-114173887D01*
X156428339Y-114201339D01*
X156400887Y-114223867D01*
X156369569Y-114240607D01*
X156335591Y-114250915D01*
X156294110Y-114255000D01*
X155617890Y-114255000D01*
X155576409Y-114250915D01*
X155542431Y-114240607D01*
X155511113Y-114223867D01*
X155483661Y-114201339D01*
X155461133Y-114173887D01*
X155444393Y-114142569D01*
X155434085Y-114108591D01*
X155430000Y-114067110D01*
X155430000Y-113465890D01*
X155434085Y-113424409D01*
X155444393Y-113390431D01*
X155461133Y-113359113D01*
X155483661Y-113331661D01*
X155511113Y-113309133D01*
X155542431Y-113292393D01*
X155576409Y-113282085D01*
X155617890Y-113278000D01*
X156294110Y-113278000D01*
X156335591Y-113282085D01*
X156335591Y-113282085D01*
G37*
G36*
X152525591Y-113282085D02*
X152559569Y-113292393D01*
X152590887Y-113309133D01*
X152618339Y-113331661D01*
X152640867Y-113359113D01*
X152657607Y-113390431D01*
X152667915Y-113424409D01*
X152672000Y-113465890D01*
X152672000Y-114067110D01*
X152667915Y-114108591D01*
X152657607Y-114142569D01*
X152640867Y-114173887D01*
X152618339Y-114201339D01*
X152590887Y-114223867D01*
X152559569Y-114240607D01*
X152525591Y-114250915D01*
X152484110Y-114255000D01*
X151807890Y-114255000D01*
X151766409Y-114250915D01*
X151732431Y-114240607D01*
X151701113Y-114223867D01*
X151673661Y-114201339D01*
X151651133Y-114173887D01*
X151634393Y-114142569D01*
X151624085Y-114108591D01*
X151620000Y-114067110D01*
X151620000Y-113465890D01*
X151624085Y-113424409D01*
X151634393Y-113390431D01*
X151651133Y-113359113D01*
X151673661Y-113331661D01*
X151701113Y-113309133D01*
X151732431Y-113292393D01*
X151766409Y-113282085D01*
X151807890Y-113278000D01*
X152484110Y-113278000D01*
X152525591Y-113282085D01*
X152525591Y-113282085D01*
G37*
G36*
X148715591Y-113282085D02*
X148749569Y-113292393D01*
X148780887Y-113309133D01*
X148808339Y-113331661D01*
X148830867Y-113359113D01*
X148847607Y-113390431D01*
X148857915Y-113424409D01*
X148862000Y-113465890D01*
X148862000Y-114067110D01*
X148857915Y-114108591D01*
X148847607Y-114142569D01*
X148830867Y-114173887D01*
X148808339Y-114201339D01*
X148780887Y-114223867D01*
X148749569Y-114240607D01*
X148715591Y-114250915D01*
X148674110Y-114255000D01*
X147997890Y-114255000D01*
X147956409Y-114250915D01*
X147922431Y-114240607D01*
X147891113Y-114223867D01*
X147863661Y-114201339D01*
X147841133Y-114173887D01*
X147824393Y-114142569D01*
X147814085Y-114108591D01*
X147810000Y-114067110D01*
X147810000Y-113465890D01*
X147814085Y-113424409D01*
X147824393Y-113390431D01*
X147841133Y-113359113D01*
X147863661Y-113331661D01*
X147891113Y-113309133D01*
X147922431Y-113292393D01*
X147956409Y-113282085D01*
X147997890Y-113278000D01*
X148674110Y-113278000D01*
X148715591Y-113282085D01*
X148715591Y-113282085D01*
G37*
G36*
X144905591Y-113256585D02*
X144939569Y-113266893D01*
X144970887Y-113283633D01*
X144998339Y-113306161D01*
X145020867Y-113333613D01*
X145037607Y-113364931D01*
X145047915Y-113398909D01*
X145052000Y-113440390D01*
X145052000Y-114041610D01*
X145047915Y-114083091D01*
X145037607Y-114117069D01*
X145020867Y-114148387D01*
X144998339Y-114175839D01*
X144970887Y-114198367D01*
X144939569Y-114215107D01*
X144905591Y-114225415D01*
X144864110Y-114229500D01*
X144187890Y-114229500D01*
X144146409Y-114225415D01*
X144112431Y-114215107D01*
X144081113Y-114198367D01*
X144053661Y-114175839D01*
X144031133Y-114148387D01*
X144014393Y-114117069D01*
X144004085Y-114083091D01*
X144000000Y-114041610D01*
X144000000Y-113440390D01*
X144004085Y-113398909D01*
X144014393Y-113364931D01*
X144031133Y-113333613D01*
X144053661Y-113306161D01*
X144081113Y-113283633D01*
X144112431Y-113266893D01*
X144146409Y-113256585D01*
X144187890Y-113252500D01*
X144864110Y-113252500D01*
X144905591Y-113256585D01*
X144905591Y-113256585D01*
G37*
G36*
X121152800Y-113277000D02*
X120150800Y-113277000D01*
X120150800Y-112275000D01*
X121152800Y-112275000D01*
X121152800Y-113277000D01*
X121152800Y-113277000D01*
G37*
G36*
X137252800Y-113277000D02*
X136250800Y-113277000D01*
X136250800Y-112275000D01*
X137252800Y-112275000D01*
X137252800Y-113277000D01*
X137252800Y-113277000D01*
G37*
G36*
X165405338Y-112179116D02*
X165425956Y-112185370D01*
X165444956Y-112195526D01*
X165461608Y-112209192D01*
X165475274Y-112225844D01*
X165485430Y-112244844D01*
X165491684Y-112265462D01*
X165494400Y-112293040D01*
X165494400Y-112801760D01*
X165491684Y-112829338D01*
X165485430Y-112849956D01*
X165475274Y-112868956D01*
X165461608Y-112885608D01*
X165444956Y-112899274D01*
X165425956Y-112909430D01*
X165405338Y-112915684D01*
X165377760Y-112918400D01*
X164919040Y-112918400D01*
X164891462Y-112915684D01*
X164870844Y-112909430D01*
X164851844Y-112899274D01*
X164835192Y-112885608D01*
X164821526Y-112868956D01*
X164811370Y-112849956D01*
X164805116Y-112829338D01*
X164802400Y-112801760D01*
X164802400Y-112293040D01*
X164805116Y-112265462D01*
X164811370Y-112244844D01*
X164821526Y-112225844D01*
X164835192Y-112209192D01*
X164851844Y-112195526D01*
X164870844Y-112185370D01*
X164891462Y-112179116D01*
X164919040Y-112176400D01*
X165377760Y-112176400D01*
X165405338Y-112179116D01*
X165405338Y-112179116D01*
G37*
G36*
X166375338Y-112179116D02*
X166395956Y-112185370D01*
X166414956Y-112195526D01*
X166431608Y-112209192D01*
X166445274Y-112225844D01*
X166455430Y-112244844D01*
X166461684Y-112265462D01*
X166464400Y-112293040D01*
X166464400Y-112801760D01*
X166461684Y-112829338D01*
X166455430Y-112849956D01*
X166445274Y-112868956D01*
X166431608Y-112885608D01*
X166414956Y-112899274D01*
X166395956Y-112909430D01*
X166375338Y-112915684D01*
X166347760Y-112918400D01*
X165889040Y-112918400D01*
X165861462Y-112915684D01*
X165840844Y-112909430D01*
X165821844Y-112899274D01*
X165805192Y-112885608D01*
X165791526Y-112868956D01*
X165781370Y-112849956D01*
X165775116Y-112829338D01*
X165772400Y-112801760D01*
X165772400Y-112293040D01*
X165775116Y-112265462D01*
X165781370Y-112244844D01*
X165791526Y-112225844D01*
X165805192Y-112209192D01*
X165821844Y-112195526D01*
X165840844Y-112185370D01*
X165861462Y-112179116D01*
X165889040Y-112176400D01*
X166347760Y-112176400D01*
X166375338Y-112179116D01*
X166375338Y-112179116D01*
G37*
G36*
X134302800Y-112202000D02*
X132100800Y-112202000D01*
X132100800Y-110000000D01*
X134302800Y-110000000D01*
X134302800Y-112202000D01*
X134302800Y-112202000D01*
G37*
G36*
X131302800Y-112202000D02*
X129100800Y-112202000D01*
X129100800Y-110000000D01*
X131302800Y-110000000D01*
X131302800Y-112202000D01*
X131302800Y-112202000D01*
G37*
G36*
X128302800Y-112202000D02*
X126100800Y-112202000D01*
X126100800Y-110000000D01*
X128302800Y-110000000D01*
X128302800Y-112202000D01*
X128302800Y-112202000D01*
G37*
G36*
X137252800Y-112007000D02*
X136250800Y-112007000D01*
X136250800Y-111005000D01*
X137252800Y-111005000D01*
X137252800Y-112007000D01*
X137252800Y-112007000D01*
G37*
G36*
X121152800Y-112007000D02*
X120150800Y-112007000D01*
X120150800Y-111005000D01*
X121152800Y-111005000D01*
X121152800Y-112007000D01*
X121152800Y-112007000D01*
G37*
G36*
X167769538Y-111190516D02*
X167790156Y-111196770D01*
X167809156Y-111206926D01*
X167825808Y-111220592D01*
X167839474Y-111237244D01*
X167849630Y-111256244D01*
X167855884Y-111276862D01*
X167858600Y-111304440D01*
X167858600Y-111763160D01*
X167855884Y-111790738D01*
X167849630Y-111811356D01*
X167839474Y-111830356D01*
X167825808Y-111847008D01*
X167809156Y-111860674D01*
X167790156Y-111870830D01*
X167769538Y-111877084D01*
X167741960Y-111879800D01*
X167233240Y-111879800D01*
X167205662Y-111877084D01*
X167185044Y-111870830D01*
X167166044Y-111860674D01*
X167149392Y-111847008D01*
X167135726Y-111830356D01*
X167125570Y-111811356D01*
X167119316Y-111790738D01*
X167116600Y-111763160D01*
X167116600Y-111304440D01*
X167119316Y-111276862D01*
X167125570Y-111256244D01*
X167135726Y-111237244D01*
X167149392Y-111220592D01*
X167166044Y-111206926D01*
X167185044Y-111196770D01*
X167205662Y-111190516D01*
X167233240Y-111187800D01*
X167741960Y-111187800D01*
X167769538Y-111190516D01*
X167769538Y-111190516D01*
G37*
G36*
X161011138Y-110959916D02*
X161031756Y-110966170D01*
X161050756Y-110976326D01*
X161067408Y-110989992D01*
X161081074Y-111006644D01*
X161091230Y-111025644D01*
X161097484Y-111046262D01*
X161100200Y-111073840D01*
X161100200Y-111582560D01*
X161097484Y-111610138D01*
X161091230Y-111630756D01*
X161081074Y-111649756D01*
X161067408Y-111666408D01*
X161050756Y-111680074D01*
X161031756Y-111690230D01*
X161011138Y-111696484D01*
X160983560Y-111699200D01*
X160524840Y-111699200D01*
X160497262Y-111696484D01*
X160476644Y-111690230D01*
X160457644Y-111680074D01*
X160440992Y-111666408D01*
X160427326Y-111649756D01*
X160417170Y-111630756D01*
X160410916Y-111610138D01*
X160408200Y-111582560D01*
X160408200Y-111073840D01*
X160410916Y-111046262D01*
X160417170Y-111025644D01*
X160427326Y-111006644D01*
X160440992Y-110989992D01*
X160457644Y-110976326D01*
X160476644Y-110966170D01*
X160497262Y-110959916D01*
X160524840Y-110957200D01*
X160983560Y-110957200D01*
X161011138Y-110959916D01*
X161011138Y-110959916D01*
G37*
G36*
X161981138Y-110959916D02*
X162001756Y-110966170D01*
X162020756Y-110976326D01*
X162037408Y-110989992D01*
X162051074Y-111006644D01*
X162061230Y-111025644D01*
X162067484Y-111046262D01*
X162070200Y-111073840D01*
X162070200Y-111582560D01*
X162067484Y-111610138D01*
X162061230Y-111630756D01*
X162051074Y-111649756D01*
X162037408Y-111666408D01*
X162020756Y-111680074D01*
X162001756Y-111690230D01*
X161981138Y-111696484D01*
X161953560Y-111699200D01*
X161494840Y-111699200D01*
X161467262Y-111696484D01*
X161446644Y-111690230D01*
X161427644Y-111680074D01*
X161410992Y-111666408D01*
X161397326Y-111649756D01*
X161387170Y-111630756D01*
X161380916Y-111610138D01*
X161378200Y-111582560D01*
X161378200Y-111073840D01*
X161380916Y-111046262D01*
X161387170Y-111025644D01*
X161397326Y-111006644D01*
X161410992Y-110989992D01*
X161427644Y-110976326D01*
X161446644Y-110966170D01*
X161467262Y-110959916D01*
X161494840Y-110957200D01*
X161953560Y-110957200D01*
X161981138Y-110959916D01*
X161981138Y-110959916D01*
G37*
G36*
X165432198Y-107677508D02*
X165432201Y-107677509D01*
X165432202Y-107677509D01*
X165470090Y-107689002D01*
X165505009Y-107707666D01*
X165535616Y-107732784D01*
X165560734Y-107763390D01*
X165575357Y-107790748D01*
X165579397Y-107798307D01*
X165590892Y-107836200D01*
X165593800Y-107865727D01*
X165593800Y-108335473D01*
X165590892Y-108365000D01*
X165590891Y-108365003D01*
X165579398Y-108402891D01*
X165560734Y-108437810D01*
X165560732Y-108437812D01*
X165559202Y-108440675D01*
X165549825Y-108463314D01*
X165545044Y-108487347D01*
X165545044Y-108511852D01*
X165549824Y-108535885D01*
X165559202Y-108558524D01*
X165572815Y-108578899D01*
X165590142Y-108596226D01*
X165610162Y-108609603D01*
X165614866Y-108618404D01*
X165630412Y-108637346D01*
X165649354Y-108652892D01*
X165670965Y-108664443D01*
X165694414Y-108671556D01*
X165718800Y-108673958D01*
X165743186Y-108671556D01*
X165766635Y-108664443D01*
X165777725Y-108659198D01*
X165780588Y-108657668D01*
X165780590Y-108657666D01*
X165815509Y-108639002D01*
X165853397Y-108627509D01*
X165853400Y-108627508D01*
X165882927Y-108624600D01*
X166352673Y-108624600D01*
X166382200Y-108627508D01*
X166382203Y-108627509D01*
X166420091Y-108639002D01*
X166455010Y-108657666D01*
X166485616Y-108682784D01*
X166510734Y-108713390D01*
X166528266Y-108746190D01*
X166529397Y-108748307D01*
X166540892Y-108786200D01*
X166544772Y-108825600D01*
X166540892Y-108865000D01*
X166540891Y-108865003D01*
X166529398Y-108902891D01*
X166510734Y-108937810D01*
X166488055Y-108965444D01*
X166485614Y-108968418D01*
X166472752Y-108978973D01*
X166455425Y-108996300D01*
X166441811Y-109016674D01*
X166432433Y-109039313D01*
X166427652Y-109063346D01*
X166427652Y-109087851D01*
X166432432Y-109111884D01*
X166441809Y-109134523D01*
X166455423Y-109154898D01*
X166472750Y-109172225D01*
X166485616Y-109182784D01*
X166510734Y-109213390D01*
X166528266Y-109246190D01*
X166529397Y-109248307D01*
X166540892Y-109286200D01*
X166544772Y-109325600D01*
X166540892Y-109365000D01*
X166540891Y-109365003D01*
X166529398Y-109402891D01*
X166510734Y-109437810D01*
X166486778Y-109467000D01*
X166485614Y-109468418D01*
X166472752Y-109478973D01*
X166455425Y-109496300D01*
X166441811Y-109516674D01*
X166432433Y-109539313D01*
X166427652Y-109563346D01*
X166427652Y-109587851D01*
X166432432Y-109611884D01*
X166441809Y-109634523D01*
X166455423Y-109654898D01*
X166472750Y-109672225D01*
X166485616Y-109682784D01*
X166510734Y-109713390D01*
X166522284Y-109735000D01*
X166529397Y-109748307D01*
X166540892Y-109786200D01*
X166544772Y-109825600D01*
X166540892Y-109865000D01*
X166540891Y-109865003D01*
X166529398Y-109902891D01*
X166510734Y-109937810D01*
X166485616Y-109968416D01*
X166485614Y-109968418D01*
X166472752Y-109978973D01*
X166455425Y-109996300D01*
X166441811Y-110016674D01*
X166432433Y-110039313D01*
X166427652Y-110063346D01*
X166427652Y-110087851D01*
X166432432Y-110111884D01*
X166441809Y-110134523D01*
X166455423Y-110154898D01*
X166472750Y-110172225D01*
X166485616Y-110182784D01*
X166510734Y-110213390D01*
X166529398Y-110248309D01*
X166535142Y-110267244D01*
X166540892Y-110286200D01*
X166544772Y-110325600D01*
X166540892Y-110365000D01*
X166540891Y-110365003D01*
X166529398Y-110402891D01*
X166510734Y-110437810D01*
X166485616Y-110468416D01*
X166455010Y-110493534D01*
X166420091Y-110512198D01*
X166389255Y-110521552D01*
X166382200Y-110523692D01*
X166352673Y-110526600D01*
X165882927Y-110526600D01*
X165853400Y-110523692D01*
X165846345Y-110521552D01*
X165815509Y-110512198D01*
X165780590Y-110493534D01*
X165780588Y-110493532D01*
X165777725Y-110492002D01*
X165755086Y-110482625D01*
X165731053Y-110477844D01*
X165706548Y-110477844D01*
X165682515Y-110482624D01*
X165659876Y-110492002D01*
X165639501Y-110505615D01*
X165622174Y-110522942D01*
X165608797Y-110542962D01*
X165599996Y-110547666D01*
X165581054Y-110563212D01*
X165565508Y-110582154D01*
X165553957Y-110603765D01*
X165546844Y-110627214D01*
X165544442Y-110651600D01*
X165546844Y-110675986D01*
X165553957Y-110699435D01*
X165559202Y-110710525D01*
X165560732Y-110713388D01*
X165560734Y-110713390D01*
X165573353Y-110737000D01*
X165579397Y-110748307D01*
X165590892Y-110786200D01*
X165593800Y-110815727D01*
X165593800Y-111285473D01*
X165590892Y-111315000D01*
X165590891Y-111315003D01*
X165579398Y-111352891D01*
X165560734Y-111387810D01*
X165535616Y-111418416D01*
X165505010Y-111443534D01*
X165470091Y-111462198D01*
X165439255Y-111471552D01*
X165432200Y-111473692D01*
X165392800Y-111477572D01*
X165353402Y-111473692D01*
X165353399Y-111473691D01*
X165353398Y-111473691D01*
X165315510Y-111462198D01*
X165280591Y-111443534D01*
X165249985Y-111418416D01*
X165239425Y-111405549D01*
X165222101Y-111388225D01*
X165201727Y-111374611D01*
X165179088Y-111365233D01*
X165155055Y-111360452D01*
X165130550Y-111360452D01*
X165106517Y-111365232D01*
X165083878Y-111374609D01*
X165063503Y-111388223D01*
X165046176Y-111405549D01*
X165046174Y-111405552D01*
X165035616Y-111418416D01*
X165005010Y-111443534D01*
X164970091Y-111462198D01*
X164939255Y-111471552D01*
X164932200Y-111473692D01*
X164892800Y-111477572D01*
X164853402Y-111473692D01*
X164853399Y-111473691D01*
X164853398Y-111473691D01*
X164815510Y-111462198D01*
X164780591Y-111443534D01*
X164749985Y-111418416D01*
X164739425Y-111405549D01*
X164722101Y-111388225D01*
X164701727Y-111374611D01*
X164679088Y-111365233D01*
X164655055Y-111360452D01*
X164630550Y-111360452D01*
X164606517Y-111365232D01*
X164583878Y-111374609D01*
X164563503Y-111388223D01*
X164546176Y-111405549D01*
X164546174Y-111405552D01*
X164535616Y-111418416D01*
X164505010Y-111443534D01*
X164470091Y-111462198D01*
X164439255Y-111471552D01*
X164432200Y-111473692D01*
X164392800Y-111477572D01*
X164353402Y-111473692D01*
X164353399Y-111473691D01*
X164353398Y-111473691D01*
X164315510Y-111462198D01*
X164280591Y-111443534D01*
X164249985Y-111418416D01*
X164239425Y-111405549D01*
X164222101Y-111388225D01*
X164201727Y-111374611D01*
X164179088Y-111365233D01*
X164155055Y-111360452D01*
X164130550Y-111360452D01*
X164106517Y-111365232D01*
X164083878Y-111374609D01*
X164063503Y-111388223D01*
X164046176Y-111405549D01*
X164046174Y-111405552D01*
X164035616Y-111418416D01*
X164005010Y-111443534D01*
X163970091Y-111462198D01*
X163939255Y-111471552D01*
X163932200Y-111473692D01*
X163892800Y-111477572D01*
X163853402Y-111473692D01*
X163853399Y-111473691D01*
X163853398Y-111473691D01*
X163815510Y-111462198D01*
X163780591Y-111443534D01*
X163749985Y-111418416D01*
X163724867Y-111387810D01*
X163706203Y-111352891D01*
X163694710Y-111315003D01*
X163694710Y-111315002D01*
X163694709Y-111314999D01*
X163691800Y-111285469D01*
X163691800Y-110815728D01*
X163694708Y-110786201D01*
X163706203Y-110748306D01*
X163718884Y-110724584D01*
X163724866Y-110713391D01*
X163724868Y-110713389D01*
X163726398Y-110710526D01*
X163735776Y-110687887D01*
X163740557Y-110663854D01*
X163740557Y-110639349D01*
X163735777Y-110615316D01*
X163726400Y-110592677D01*
X163712786Y-110572302D01*
X163695459Y-110554975D01*
X163675438Y-110541597D01*
X163670734Y-110532796D01*
X163655188Y-110513854D01*
X163636246Y-110498308D01*
X163614635Y-110486757D01*
X163591186Y-110479644D01*
X163566800Y-110477242D01*
X163542414Y-110479644D01*
X163518965Y-110486757D01*
X163507875Y-110492002D01*
X163505012Y-110493532D01*
X163505010Y-110493534D01*
X163470091Y-110512198D01*
X163439255Y-110521552D01*
X163432200Y-110523692D01*
X163402673Y-110526600D01*
X162932927Y-110526600D01*
X162903400Y-110523692D01*
X162896345Y-110521552D01*
X162865509Y-110512198D01*
X162830590Y-110493534D01*
X162799984Y-110468416D01*
X162774866Y-110437810D01*
X162756202Y-110402891D01*
X162744709Y-110365003D01*
X162744708Y-110365000D01*
X162740828Y-110325600D01*
X162744708Y-110286200D01*
X162750458Y-110267244D01*
X162756202Y-110248309D01*
X162774866Y-110213390D01*
X162799984Y-110182784D01*
X162812850Y-110172225D01*
X162830175Y-110154900D01*
X162843789Y-110134526D01*
X162853167Y-110111887D01*
X162857948Y-110087854D01*
X162857948Y-110063349D01*
X162853168Y-110039316D01*
X162843791Y-110016677D01*
X162830177Y-109996302D01*
X162812848Y-109978973D01*
X162799986Y-109968418D01*
X162799984Y-109968416D01*
X162774866Y-109937810D01*
X162756202Y-109902891D01*
X162744709Y-109865003D01*
X162744708Y-109865000D01*
X162740828Y-109825600D01*
X162744708Y-109786200D01*
X162756203Y-109748307D01*
X162763316Y-109735000D01*
X162774866Y-109713390D01*
X162799984Y-109682784D01*
X162812850Y-109672225D01*
X162830175Y-109654900D01*
X162843789Y-109634526D01*
X162853167Y-109611887D01*
X162857948Y-109587854D01*
X162857948Y-109563349D01*
X162853168Y-109539316D01*
X162843791Y-109516677D01*
X162830177Y-109496302D01*
X162812848Y-109478973D01*
X162799986Y-109468418D01*
X162798822Y-109467000D01*
X162774866Y-109437810D01*
X162756202Y-109402891D01*
X162744709Y-109365003D01*
X162744708Y-109365000D01*
X162740828Y-109325600D01*
X162744708Y-109286200D01*
X162756203Y-109248307D01*
X162757334Y-109246190D01*
X162774866Y-109213390D01*
X162799984Y-109182784D01*
X162812850Y-109172225D01*
X162830175Y-109154900D01*
X162843789Y-109134526D01*
X162853167Y-109111887D01*
X162857948Y-109087854D01*
X162857948Y-109063349D01*
X162853168Y-109039316D01*
X162843791Y-109016677D01*
X162830177Y-108996302D01*
X162812848Y-108978973D01*
X162799986Y-108968418D01*
X162797545Y-108965444D01*
X162774866Y-108937810D01*
X162756202Y-108902891D01*
X162744709Y-108865003D01*
X162744708Y-108865000D01*
X162740828Y-108825600D01*
X162744708Y-108786200D01*
X162756203Y-108748307D01*
X162757334Y-108746190D01*
X162774866Y-108713390D01*
X162799984Y-108682784D01*
X162830590Y-108657666D01*
X162865509Y-108639002D01*
X162903397Y-108627509D01*
X162903400Y-108627508D01*
X162932927Y-108624600D01*
X163402673Y-108624600D01*
X163432200Y-108627508D01*
X163432203Y-108627509D01*
X163470091Y-108639002D01*
X163505010Y-108657666D01*
X163505012Y-108657668D01*
X163507875Y-108659198D01*
X163530514Y-108668575D01*
X163554547Y-108673356D01*
X163579052Y-108673356D01*
X163603085Y-108668576D01*
X163625724Y-108659198D01*
X163646099Y-108645585D01*
X163663426Y-108628258D01*
X163676802Y-108608239D01*
X163685605Y-108603534D01*
X163704547Y-108587988D01*
X163720093Y-108569046D01*
X163731644Y-108547435D01*
X163738757Y-108523986D01*
X163741159Y-108499600D01*
X163738757Y-108475214D01*
X163731644Y-108451765D01*
X163726399Y-108440675D01*
X163724869Y-108437812D01*
X163724867Y-108437810D01*
X163706203Y-108402891D01*
X163694710Y-108365003D01*
X163694710Y-108365002D01*
X163694709Y-108364999D01*
X163691800Y-108335469D01*
X163691800Y-107865728D01*
X163694708Y-107836201D01*
X163706203Y-107798308D01*
X163712799Y-107785968D01*
X163724866Y-107763391D01*
X163749984Y-107732784D01*
X163780590Y-107707666D01*
X163815509Y-107689002D01*
X163853397Y-107677509D01*
X163853400Y-107677508D01*
X163892800Y-107673628D01*
X163932198Y-107677508D01*
X163932201Y-107677509D01*
X163932202Y-107677509D01*
X163970090Y-107689002D01*
X164005009Y-107707666D01*
X164035616Y-107732784D01*
X164035619Y-107732787D01*
X164046173Y-107745648D01*
X164063500Y-107762975D01*
X164083874Y-107776589D01*
X164106513Y-107785967D01*
X164130546Y-107790748D01*
X164155051Y-107790748D01*
X164179084Y-107785968D01*
X164201723Y-107776591D01*
X164222098Y-107762977D01*
X164239427Y-107745648D01*
X164249982Y-107732786D01*
X164249984Y-107732784D01*
X164280590Y-107707666D01*
X164315509Y-107689002D01*
X164353397Y-107677509D01*
X164353400Y-107677508D01*
X164392800Y-107673628D01*
X164432198Y-107677508D01*
X164432201Y-107677509D01*
X164432202Y-107677509D01*
X164470090Y-107689002D01*
X164505009Y-107707666D01*
X164535616Y-107732784D01*
X164535619Y-107732787D01*
X164546173Y-107745648D01*
X164563500Y-107762975D01*
X164583874Y-107776589D01*
X164606513Y-107785967D01*
X164630546Y-107790748D01*
X164655051Y-107790748D01*
X164679084Y-107785968D01*
X164701723Y-107776591D01*
X164722098Y-107762977D01*
X164739427Y-107745648D01*
X164749982Y-107732786D01*
X164749984Y-107732784D01*
X164780590Y-107707666D01*
X164815509Y-107689002D01*
X164853397Y-107677509D01*
X164853400Y-107677508D01*
X164892800Y-107673628D01*
X164932198Y-107677508D01*
X164932201Y-107677509D01*
X164932202Y-107677509D01*
X164970090Y-107689002D01*
X165005009Y-107707666D01*
X165035616Y-107732784D01*
X165035619Y-107732787D01*
X165046173Y-107745648D01*
X165063500Y-107762975D01*
X165083874Y-107776589D01*
X165106513Y-107785967D01*
X165130546Y-107790748D01*
X165155051Y-107790748D01*
X165179084Y-107785968D01*
X165201723Y-107776591D01*
X165222098Y-107762977D01*
X165239427Y-107745648D01*
X165249982Y-107732786D01*
X165249984Y-107732784D01*
X165280590Y-107707666D01*
X165315509Y-107689002D01*
X165353397Y-107677509D01*
X165353400Y-107677508D01*
X165392800Y-107673628D01*
X165432198Y-107677508D01*
X165432198Y-107677508D01*
G37*
G36*
X167769538Y-110220516D02*
X167790156Y-110226770D01*
X167809156Y-110236926D01*
X167825808Y-110250592D01*
X167839474Y-110267244D01*
X167849630Y-110286244D01*
X167855884Y-110306862D01*
X167858600Y-110334440D01*
X167858600Y-110793160D01*
X167855884Y-110820738D01*
X167849630Y-110841356D01*
X167839474Y-110860356D01*
X167825808Y-110877008D01*
X167809156Y-110890674D01*
X167790156Y-110900830D01*
X167769538Y-110907084D01*
X167741960Y-110909800D01*
X167233240Y-110909800D01*
X167205662Y-110907084D01*
X167185044Y-110900830D01*
X167166044Y-110890674D01*
X167149392Y-110877008D01*
X167135726Y-110860356D01*
X167125570Y-110841356D01*
X167119316Y-110820738D01*
X167116600Y-110793160D01*
X167116600Y-110334440D01*
X167119316Y-110306862D01*
X167125570Y-110286244D01*
X167135726Y-110267244D01*
X167149392Y-110250592D01*
X167166044Y-110236926D01*
X167185044Y-110226770D01*
X167205662Y-110220516D01*
X167233240Y-110217800D01*
X167741960Y-110217800D01*
X167769538Y-110220516D01*
X167769538Y-110220516D01*
G37*
G36*
X121152800Y-110737000D02*
X120150800Y-110737000D01*
X120150800Y-109735000D01*
X121152800Y-109735000D01*
X121152800Y-110737000D01*
X121152800Y-110737000D01*
G37*
G36*
X137252800Y-110737000D02*
X136250800Y-110737000D01*
X136250800Y-109735000D01*
X137252800Y-109735000D01*
X137252800Y-110737000D01*
X137252800Y-110737000D01*
G37*
G36*
X144299938Y-109869716D02*
X144320556Y-109875970D01*
X144339556Y-109886126D01*
X144356208Y-109899792D01*
X144369874Y-109916444D01*
X144380030Y-109935444D01*
X144386284Y-109956062D01*
X144389000Y-109983640D01*
X144389000Y-110442360D01*
X144386284Y-110469938D01*
X144380030Y-110490556D01*
X144369874Y-110509556D01*
X144356208Y-110526208D01*
X144339556Y-110539874D01*
X144320556Y-110550030D01*
X144299938Y-110556284D01*
X144272360Y-110559000D01*
X143763640Y-110559000D01*
X143736062Y-110556284D01*
X143715444Y-110550030D01*
X143696444Y-110539874D01*
X143679792Y-110526208D01*
X143666126Y-110509556D01*
X143655970Y-110490556D01*
X143649716Y-110469938D01*
X143647000Y-110442360D01*
X143647000Y-109983640D01*
X143649716Y-109956062D01*
X143655970Y-109935444D01*
X143666126Y-109916444D01*
X143679792Y-109899792D01*
X143696444Y-109886126D01*
X143715444Y-109875970D01*
X143736062Y-109869716D01*
X143763640Y-109867000D01*
X144272360Y-109867000D01*
X144299938Y-109869716D01*
X144299938Y-109869716D01*
G37*
G36*
X146585938Y-109869716D02*
X146606556Y-109875970D01*
X146625556Y-109886126D01*
X146642208Y-109899792D01*
X146655874Y-109916444D01*
X146666030Y-109935444D01*
X146672284Y-109956062D01*
X146675000Y-109983640D01*
X146675000Y-110442360D01*
X146672284Y-110469938D01*
X146666030Y-110490556D01*
X146655874Y-110509556D01*
X146642208Y-110526208D01*
X146625556Y-110539874D01*
X146606556Y-110550030D01*
X146585938Y-110556284D01*
X146558360Y-110559000D01*
X146049640Y-110559000D01*
X146022062Y-110556284D01*
X146001444Y-110550030D01*
X145982444Y-110539874D01*
X145965792Y-110526208D01*
X145952126Y-110509556D01*
X145941970Y-110490556D01*
X145935716Y-110469938D01*
X145933000Y-110442360D01*
X145933000Y-109983640D01*
X145935716Y-109956062D01*
X145941970Y-109935444D01*
X145952126Y-109916444D01*
X145965792Y-109899792D01*
X145982444Y-109886126D01*
X146001444Y-109875970D01*
X146022062Y-109869716D01*
X146049640Y-109867000D01*
X146558360Y-109867000D01*
X146585938Y-109869716D01*
X146585938Y-109869716D01*
G37*
G36*
X161528200Y-109782000D02*
X159426200Y-109782000D01*
X159426200Y-108880000D01*
X161528200Y-108880000D01*
X161528200Y-109782000D01*
X161528200Y-109782000D01*
G37*
G36*
X171482004Y-108271947D02*
X171518545Y-108283032D01*
X171552220Y-108301031D01*
X171581741Y-108325259D01*
X171605969Y-108354780D01*
X171623968Y-108388455D01*
X171635053Y-108424996D01*
X171639400Y-108469138D01*
X171639400Y-109418062D01*
X171635053Y-109462204D01*
X171623968Y-109498745D01*
X171605969Y-109532420D01*
X171581741Y-109561941D01*
X171552220Y-109586169D01*
X171518545Y-109604168D01*
X171482004Y-109615253D01*
X171437862Y-109619600D01*
X169988938Y-109619600D01*
X169944796Y-109615253D01*
X169908255Y-109604168D01*
X169874580Y-109586169D01*
X169845059Y-109561941D01*
X169820831Y-109532420D01*
X169802832Y-109498745D01*
X169791747Y-109462204D01*
X169787400Y-109418062D01*
X169787400Y-108469138D01*
X169791747Y-108424996D01*
X169802832Y-108388455D01*
X169820831Y-108354780D01*
X169845059Y-108325259D01*
X169874580Y-108301031D01*
X169908255Y-108283032D01*
X169944796Y-108271947D01*
X169988938Y-108267600D01*
X171437862Y-108267600D01*
X171482004Y-108271947D01*
X171482004Y-108271947D01*
G37*
G36*
X144299938Y-108899716D02*
X144320556Y-108905970D01*
X144339556Y-108916126D01*
X144356208Y-108929792D01*
X144369874Y-108946444D01*
X144380030Y-108965444D01*
X144386284Y-108986062D01*
X144389000Y-109013640D01*
X144389000Y-109472360D01*
X144386284Y-109499938D01*
X144380030Y-109520556D01*
X144369874Y-109539556D01*
X144356208Y-109556208D01*
X144339556Y-109569874D01*
X144320556Y-109580030D01*
X144299938Y-109586284D01*
X144272360Y-109589000D01*
X143763640Y-109589000D01*
X143736062Y-109586284D01*
X143715444Y-109580030D01*
X143696444Y-109569874D01*
X143679792Y-109556208D01*
X143666126Y-109539556D01*
X143655970Y-109520556D01*
X143649716Y-109499938D01*
X143647000Y-109472360D01*
X143647000Y-109013640D01*
X143649716Y-108986062D01*
X143655970Y-108965444D01*
X143666126Y-108946444D01*
X143679792Y-108929792D01*
X143696444Y-108916126D01*
X143715444Y-108905970D01*
X143736062Y-108899716D01*
X143763640Y-108897000D01*
X144272360Y-108897000D01*
X144299938Y-108899716D01*
X144299938Y-108899716D01*
G37*
G36*
X146585938Y-108899716D02*
X146606556Y-108905970D01*
X146625556Y-108916126D01*
X146642208Y-108929792D01*
X146655874Y-108946444D01*
X146666030Y-108965444D01*
X146672284Y-108986062D01*
X146675000Y-109013640D01*
X146675000Y-109472360D01*
X146672284Y-109499938D01*
X146666030Y-109520556D01*
X146655874Y-109539556D01*
X146642208Y-109556208D01*
X146625556Y-109569874D01*
X146606556Y-109580030D01*
X146585938Y-109586284D01*
X146558360Y-109589000D01*
X146049640Y-109589000D01*
X146022062Y-109586284D01*
X146001444Y-109580030D01*
X145982444Y-109569874D01*
X145965792Y-109556208D01*
X145952126Y-109539556D01*
X145941970Y-109520556D01*
X145935716Y-109499938D01*
X145933000Y-109472360D01*
X145933000Y-109013640D01*
X145935716Y-108986062D01*
X145941970Y-108965444D01*
X145952126Y-108946444D01*
X145965792Y-108929792D01*
X145982444Y-108916126D01*
X146001444Y-108905970D01*
X146022062Y-108899716D01*
X146049640Y-108897000D01*
X146558360Y-108897000D01*
X146585938Y-108899716D01*
X146585938Y-108899716D01*
G37*
G36*
X151367443Y-107690519D02*
X151433627Y-107697037D01*
X151546853Y-107731384D01*
X151603467Y-107748557D01*
X151696541Y-107798307D01*
X151759991Y-107832222D01*
X151764839Y-107836201D01*
X151897186Y-107944814D01*
X151980448Y-108046271D01*
X152009778Y-108082009D01*
X152009779Y-108082011D01*
X152093443Y-108238533D01*
X152093443Y-108238534D01*
X152144963Y-108408373D01*
X152162359Y-108585000D01*
X152144963Y-108761627D01*
X152125557Y-108825600D01*
X152093443Y-108931467D01*
X152042412Y-109026937D01*
X152009778Y-109087991D01*
X151990688Y-109111252D01*
X151897186Y-109225186D01*
X151822839Y-109286200D01*
X151759991Y-109337778D01*
X151759989Y-109337779D01*
X151603467Y-109421443D01*
X151549518Y-109437808D01*
X151433627Y-109472963D01*
X151372605Y-109478973D01*
X151301260Y-109486000D01*
X151212740Y-109486000D01*
X151141395Y-109478973D01*
X151080373Y-109472963D01*
X150964482Y-109437808D01*
X150910533Y-109421443D01*
X150754011Y-109337779D01*
X150754009Y-109337778D01*
X150691161Y-109286200D01*
X150616814Y-109225186D01*
X150523312Y-109111252D01*
X150504222Y-109087991D01*
X150471588Y-109026937D01*
X150420557Y-108931467D01*
X150388443Y-108825600D01*
X150369037Y-108761627D01*
X150351641Y-108585000D01*
X150369037Y-108408373D01*
X150420557Y-108238534D01*
X150420557Y-108238533D01*
X150504221Y-108082011D01*
X150504222Y-108082009D01*
X150533552Y-108046271D01*
X150616814Y-107944814D01*
X150749161Y-107836201D01*
X150754009Y-107832222D01*
X150817459Y-107798307D01*
X150910533Y-107748557D01*
X150967147Y-107731384D01*
X151080373Y-107697037D01*
X151146557Y-107690519D01*
X151212740Y-107684000D01*
X151301260Y-107684000D01*
X151367443Y-107690519D01*
X151367443Y-107690519D01*
G37*
G36*
X137252800Y-109467000D02*
X136250800Y-109467000D01*
X136250800Y-108465000D01*
X137252800Y-108465000D01*
X137252800Y-109467000D01*
X137252800Y-109467000D01*
G37*
G36*
X121152800Y-109467000D02*
X120150800Y-109467000D01*
X120150800Y-108465000D01*
X121152800Y-108465000D01*
X121152800Y-109467000D01*
X121152800Y-109467000D01*
G37*
G36*
X134302800Y-109202000D02*
X132100800Y-109202000D01*
X132100800Y-107000000D01*
X134302800Y-107000000D01*
X134302800Y-109202000D01*
X134302800Y-109202000D01*
G37*
G36*
X128302800Y-109202000D02*
X126100800Y-109202000D01*
X126100800Y-107000000D01*
X128302800Y-107000000D01*
X128302800Y-109202000D01*
X128302800Y-109202000D01*
G37*
G36*
X131302800Y-109202000D02*
X129100800Y-109202000D01*
X129100800Y-107000000D01*
X131302800Y-107000000D01*
X131302800Y-109202000D01*
X131302800Y-109202000D01*
G37*
G36*
X169037266Y-108074165D02*
X169075937Y-108085896D01*
X169111579Y-108104948D01*
X169142817Y-108130583D01*
X169168452Y-108161821D01*
X169187504Y-108197463D01*
X169199235Y-108236134D01*
X169203800Y-108282488D01*
X169203800Y-108933712D01*
X169199235Y-108980066D01*
X169187504Y-109018737D01*
X169168452Y-109054379D01*
X169142817Y-109085617D01*
X169111579Y-109111252D01*
X169075937Y-109130304D01*
X169037266Y-109142035D01*
X168990912Y-109146600D01*
X167914688Y-109146600D01*
X167868334Y-109142035D01*
X167829663Y-109130304D01*
X167794021Y-109111252D01*
X167762783Y-109085617D01*
X167737148Y-109054379D01*
X167718096Y-109018737D01*
X167706365Y-108980066D01*
X167701800Y-108933712D01*
X167701800Y-108282488D01*
X167706365Y-108236134D01*
X167718096Y-108197463D01*
X167737148Y-108161821D01*
X167762783Y-108130583D01*
X167794021Y-108104948D01*
X167829663Y-108085896D01*
X167868334Y-108074165D01*
X167914688Y-108069600D01*
X168990912Y-108069600D01*
X169037266Y-108074165D01*
X169037266Y-108074165D01*
G37*
G36*
X121152800Y-108197000D02*
X120150800Y-108197000D01*
X120150800Y-107195000D01*
X121152800Y-107195000D01*
X121152800Y-108197000D01*
X121152800Y-108197000D01*
G37*
G36*
X137252800Y-108197000D02*
X136250800Y-108197000D01*
X136250800Y-107195000D01*
X137252800Y-107195000D01*
X137252800Y-108197000D01*
X137252800Y-108197000D01*
G37*
G36*
X161528200Y-107782000D02*
X159426200Y-107782000D01*
X159426200Y-106880000D01*
X161528200Y-106880000D01*
X161528200Y-107782000D01*
X161528200Y-107782000D01*
G37*
G36*
X148673938Y-106565716D02*
X148694556Y-106571970D01*
X148713556Y-106582126D01*
X148730208Y-106595792D01*
X148743874Y-106612444D01*
X148754030Y-106631444D01*
X148760284Y-106652062D01*
X148763000Y-106679640D01*
X148763000Y-107188360D01*
X148760284Y-107215938D01*
X148754030Y-107236556D01*
X148743874Y-107255556D01*
X148730208Y-107272208D01*
X148713556Y-107285874D01*
X148694556Y-107296030D01*
X148673938Y-107302284D01*
X148646360Y-107305000D01*
X148187640Y-107305000D01*
X148160062Y-107302284D01*
X148139444Y-107296030D01*
X148120444Y-107285874D01*
X148103792Y-107272208D01*
X148090126Y-107255556D01*
X148079970Y-107236556D01*
X148073716Y-107215938D01*
X148071000Y-107188360D01*
X148071000Y-106679640D01*
X148073716Y-106652062D01*
X148079970Y-106631444D01*
X148090126Y-106612444D01*
X148103792Y-106595792D01*
X148120444Y-106582126D01*
X148139444Y-106571970D01*
X148160062Y-106565716D01*
X148187640Y-106563000D01*
X148646360Y-106563000D01*
X148673938Y-106565716D01*
X148673938Y-106565716D01*
G37*
G36*
X147703938Y-106565716D02*
X147724556Y-106571970D01*
X147743556Y-106582126D01*
X147760208Y-106595792D01*
X147773874Y-106612444D01*
X147784030Y-106631444D01*
X147790284Y-106652062D01*
X147793000Y-106679640D01*
X147793000Y-107188360D01*
X147790284Y-107215938D01*
X147784030Y-107236556D01*
X147773874Y-107255556D01*
X147760208Y-107272208D01*
X147743556Y-107285874D01*
X147724556Y-107296030D01*
X147703938Y-107302284D01*
X147676360Y-107305000D01*
X147217640Y-107305000D01*
X147190062Y-107302284D01*
X147169444Y-107296030D01*
X147150444Y-107285874D01*
X147133792Y-107272208D01*
X147120126Y-107255556D01*
X147109970Y-107236556D01*
X147103716Y-107215938D01*
X147101000Y-107188360D01*
X147101000Y-106679640D01*
X147103716Y-106652062D01*
X147109970Y-106631444D01*
X147120126Y-106612444D01*
X147133792Y-106595792D01*
X147150444Y-106582126D01*
X147169444Y-106571970D01*
X147190062Y-106565716D01*
X147217640Y-106563000D01*
X147676360Y-106563000D01*
X147703938Y-106565716D01*
X147703938Y-106565716D01*
G37*
G36*
X169037266Y-106199165D02*
X169075937Y-106210896D01*
X169111579Y-106229948D01*
X169142817Y-106255583D01*
X169168452Y-106286821D01*
X169187504Y-106322463D01*
X169199235Y-106361134D01*
X169203800Y-106407488D01*
X169203800Y-107058712D01*
X169199235Y-107105066D01*
X169187504Y-107143737D01*
X169168452Y-107179379D01*
X169142817Y-107210617D01*
X169111579Y-107236252D01*
X169075937Y-107255304D01*
X169037266Y-107267035D01*
X168990912Y-107271600D01*
X167914688Y-107271600D01*
X167868334Y-107267035D01*
X167829663Y-107255304D01*
X167794021Y-107236252D01*
X167762783Y-107210617D01*
X167737148Y-107179379D01*
X167718096Y-107143737D01*
X167706365Y-107105066D01*
X167701800Y-107058712D01*
X167701800Y-106407488D01*
X167706365Y-106361134D01*
X167718096Y-106322463D01*
X167737148Y-106286821D01*
X167762783Y-106255583D01*
X167794021Y-106229948D01*
X167829663Y-106210896D01*
X167868334Y-106199165D01*
X167914688Y-106194600D01*
X168990912Y-106194600D01*
X169037266Y-106199165D01*
X169037266Y-106199165D01*
G37*
G36*
X151367443Y-105150519D02*
X151433627Y-105157037D01*
X151546853Y-105191384D01*
X151603467Y-105208557D01*
X151742087Y-105282652D01*
X151759991Y-105292222D01*
X151795729Y-105321552D01*
X151897186Y-105404814D01*
X151965604Y-105488183D01*
X152009778Y-105542009D01*
X152009779Y-105542011D01*
X152093443Y-105698533D01*
X152093443Y-105698534D01*
X152144963Y-105868373D01*
X152162359Y-106045000D01*
X152144963Y-106221627D01*
X152116862Y-106314263D01*
X152093443Y-106391467D01*
X152084879Y-106407488D01*
X152009778Y-106547991D01*
X151997460Y-106563000D01*
X151897186Y-106685186D01*
X151803658Y-106761941D01*
X151759991Y-106797778D01*
X151759989Y-106797779D01*
X151603467Y-106881443D01*
X151546853Y-106898616D01*
X151433627Y-106932963D01*
X151367442Y-106939482D01*
X151301260Y-106946000D01*
X151212740Y-106946000D01*
X151146558Y-106939482D01*
X151080373Y-106932963D01*
X150967147Y-106898616D01*
X150910533Y-106881443D01*
X150754011Y-106797779D01*
X150754009Y-106797778D01*
X150710342Y-106761941D01*
X150616814Y-106685186D01*
X150516540Y-106563000D01*
X150504222Y-106547991D01*
X150429121Y-106407488D01*
X150420557Y-106391467D01*
X150397138Y-106314263D01*
X150369037Y-106221627D01*
X150351641Y-106045000D01*
X150369037Y-105868373D01*
X150420557Y-105698534D01*
X150420557Y-105698533D01*
X150504221Y-105542011D01*
X150504222Y-105542009D01*
X150548396Y-105488183D01*
X150616814Y-105404814D01*
X150718271Y-105321552D01*
X150754009Y-105292222D01*
X150771913Y-105282652D01*
X150910533Y-105208557D01*
X150967147Y-105191384D01*
X151080373Y-105157037D01*
X151146558Y-105150518D01*
X151212740Y-105144000D01*
X151301260Y-105144000D01*
X151367443Y-105150519D01*
X151367443Y-105150519D01*
G37*
G36*
X137252800Y-106927000D02*
X136250800Y-106927000D01*
X136250800Y-105925000D01*
X137252800Y-105925000D01*
X137252800Y-106927000D01*
X137252800Y-106927000D01*
G37*
G36*
X121152800Y-106927000D02*
X120150800Y-106927000D01*
X120150800Y-105925000D01*
X121152800Y-105925000D01*
X121152800Y-106927000D01*
X121152800Y-106927000D01*
G37*
G36*
X171482004Y-105471947D02*
X171518545Y-105483032D01*
X171552220Y-105501031D01*
X171581741Y-105525259D01*
X171605969Y-105554780D01*
X171623968Y-105588455D01*
X171635053Y-105624996D01*
X171639400Y-105669138D01*
X171639400Y-106618062D01*
X171635053Y-106662204D01*
X171623968Y-106698745D01*
X171605969Y-106732420D01*
X171581741Y-106761941D01*
X171552220Y-106786169D01*
X171518545Y-106804168D01*
X171482004Y-106815253D01*
X171437862Y-106819600D01*
X169988938Y-106819600D01*
X169944796Y-106815253D01*
X169908255Y-106804168D01*
X169874580Y-106786169D01*
X169845059Y-106761941D01*
X169820831Y-106732420D01*
X169802832Y-106698745D01*
X169791747Y-106662204D01*
X169787400Y-106618062D01*
X169787400Y-105669138D01*
X169791747Y-105624996D01*
X169802832Y-105588455D01*
X169820831Y-105554780D01*
X169845059Y-105525259D01*
X169874580Y-105501031D01*
X169908255Y-105483032D01*
X169944796Y-105471947D01*
X169988938Y-105467600D01*
X171437862Y-105467600D01*
X171482004Y-105471947D01*
X171482004Y-105471947D01*
G37*
G36*
X145562000Y-106675000D02*
X144760000Y-106675000D01*
X144760000Y-105023000D01*
X145562000Y-105023000D01*
X145562000Y-106675000D01*
X145562000Y-106675000D01*
G37*
G36*
X144292000Y-106675000D02*
X143490000Y-106675000D01*
X143490000Y-105023000D01*
X144292000Y-105023000D01*
X144292000Y-106675000D01*
X144292000Y-106675000D01*
G37*
G36*
X141752000Y-106675000D02*
X140950000Y-106675000D01*
X140950000Y-105023000D01*
X141752000Y-105023000D01*
X141752000Y-106675000D01*
X141752000Y-106675000D01*
G37*
G36*
X143022000Y-106675000D02*
X142220000Y-106675000D01*
X142220000Y-105023000D01*
X143022000Y-105023000D01*
X143022000Y-106675000D01*
X143022000Y-106675000D01*
G37*
G36*
X162423966Y-104688965D02*
X162462637Y-104700696D01*
X162498279Y-104719748D01*
X162529517Y-104745383D01*
X162555152Y-104776621D01*
X162574204Y-104812263D01*
X162585935Y-104850934D01*
X162590500Y-104897288D01*
X162590500Y-105973512D01*
X162585935Y-106019866D01*
X162574204Y-106058537D01*
X162555152Y-106094179D01*
X162529517Y-106125417D01*
X162498279Y-106151052D01*
X162462637Y-106170104D01*
X162423966Y-106181835D01*
X162377612Y-106186400D01*
X161726388Y-106186400D01*
X161680034Y-106181835D01*
X161641363Y-106170104D01*
X161605721Y-106151052D01*
X161574483Y-106125417D01*
X161548848Y-106094179D01*
X161529796Y-106058537D01*
X161518065Y-106019866D01*
X161513500Y-105973512D01*
X161513500Y-104897288D01*
X161518065Y-104850934D01*
X161529796Y-104812263D01*
X161548848Y-104776621D01*
X161574483Y-104745383D01*
X161605721Y-104719748D01*
X161641363Y-104700696D01*
X161680034Y-104688965D01*
X161726388Y-104684400D01*
X162377612Y-104684400D01*
X162423966Y-104688965D01*
X162423966Y-104688965D01*
G37*
G36*
X164298966Y-104688965D02*
X164337637Y-104700696D01*
X164373279Y-104719748D01*
X164404517Y-104745383D01*
X164430152Y-104776621D01*
X164449204Y-104812263D01*
X164460935Y-104850934D01*
X164465500Y-104897288D01*
X164465500Y-105973512D01*
X164460935Y-106019866D01*
X164449204Y-106058537D01*
X164430152Y-106094179D01*
X164404517Y-106125417D01*
X164373279Y-106151052D01*
X164337637Y-106170104D01*
X164298966Y-106181835D01*
X164252612Y-106186400D01*
X163601388Y-106186400D01*
X163555034Y-106181835D01*
X163516363Y-106170104D01*
X163480721Y-106151052D01*
X163449483Y-106125417D01*
X163423848Y-106094179D01*
X163404796Y-106058537D01*
X163393065Y-106019866D01*
X163388500Y-105973512D01*
X163388500Y-104897288D01*
X163393065Y-104850934D01*
X163404796Y-104812263D01*
X163423848Y-104776621D01*
X163449483Y-104745383D01*
X163480721Y-104719748D01*
X163516363Y-104700696D01*
X163555034Y-104688965D01*
X163601388Y-104684400D01*
X164252612Y-104684400D01*
X164298966Y-104688965D01*
X164298966Y-104688965D01*
G37*
G36*
X137252800Y-105657000D02*
X136250800Y-105657000D01*
X136250800Y-104655000D01*
X137252800Y-104655000D01*
X137252800Y-105657000D01*
X137252800Y-105657000D01*
G37*
G36*
X121152800Y-105657000D02*
X120150800Y-105657000D01*
X120150800Y-104655000D01*
X121152800Y-104655000D01*
X121152800Y-105657000D01*
X121152800Y-105657000D01*
G37*
G36*
X148696938Y-103898716D02*
X148717556Y-103904970D01*
X148736556Y-103915126D01*
X148753208Y-103928792D01*
X148766874Y-103945444D01*
X148777030Y-103964444D01*
X148783284Y-103985062D01*
X148786000Y-104012640D01*
X148786000Y-104521360D01*
X148783284Y-104548938D01*
X148777030Y-104569556D01*
X148766874Y-104588556D01*
X148753208Y-104605208D01*
X148736556Y-104618874D01*
X148717556Y-104629030D01*
X148696938Y-104635284D01*
X148669360Y-104638000D01*
X148210640Y-104638000D01*
X148183062Y-104635284D01*
X148162444Y-104629030D01*
X148143444Y-104618874D01*
X148126792Y-104605208D01*
X148113126Y-104588556D01*
X148102970Y-104569556D01*
X148096716Y-104548938D01*
X148094000Y-104521360D01*
X148094000Y-104012640D01*
X148096716Y-103985062D01*
X148102970Y-103964444D01*
X148113126Y-103945444D01*
X148126792Y-103928792D01*
X148143444Y-103915126D01*
X148162444Y-103904970D01*
X148183062Y-103898716D01*
X148210640Y-103896000D01*
X148669360Y-103896000D01*
X148696938Y-103898716D01*
X148696938Y-103898716D01*
G37*
G36*
X147726938Y-103898716D02*
X147747556Y-103904970D01*
X147766556Y-103915126D01*
X147783208Y-103928792D01*
X147796874Y-103945444D01*
X147807030Y-103964444D01*
X147813284Y-103985062D01*
X147816000Y-104012640D01*
X147816000Y-104521360D01*
X147813284Y-104548938D01*
X147807030Y-104569556D01*
X147796874Y-104588556D01*
X147783208Y-104605208D01*
X147766556Y-104618874D01*
X147747556Y-104629030D01*
X147726938Y-104635284D01*
X147699360Y-104638000D01*
X147240640Y-104638000D01*
X147213062Y-104635284D01*
X147192444Y-104629030D01*
X147173444Y-104618874D01*
X147156792Y-104605208D01*
X147143126Y-104588556D01*
X147132970Y-104569556D01*
X147126716Y-104548938D01*
X147124000Y-104521360D01*
X147124000Y-104012640D01*
X147126716Y-103985062D01*
X147132970Y-103964444D01*
X147143126Y-103945444D01*
X147156792Y-103928792D01*
X147173444Y-103915126D01*
X147192444Y-103904970D01*
X147213062Y-103898716D01*
X147240640Y-103896000D01*
X147699360Y-103896000D01*
X147726938Y-103898716D01*
X147726938Y-103898716D01*
G37*
G36*
X152158000Y-104406000D02*
X150356000Y-104406000D01*
X150356000Y-102604000D01*
X152158000Y-102604000D01*
X152158000Y-104406000D01*
X152158000Y-104406000D01*
G37*
G36*
X137252800Y-104387000D02*
X136250800Y-104387000D01*
X136250800Y-103385000D01*
X137252800Y-103385000D01*
X137252800Y-104387000D01*
X137252800Y-104387000D01*
G37*
G36*
X121152800Y-104387000D02*
X120150800Y-104387000D01*
X120150800Y-103385000D01*
X121152800Y-103385000D01*
X121152800Y-104387000D01*
X121152800Y-104387000D01*
G37*
G36*
X155501338Y-102859316D02*
X155521956Y-102865570D01*
X155540956Y-102875726D01*
X155557608Y-102889392D01*
X155571274Y-102906044D01*
X155581430Y-102925044D01*
X155587684Y-102945662D01*
X155590400Y-102973240D01*
X155590400Y-103431960D01*
X155587684Y-103459538D01*
X155581430Y-103480156D01*
X155571274Y-103499156D01*
X155557608Y-103515808D01*
X155540956Y-103529474D01*
X155521956Y-103539630D01*
X155501338Y-103545884D01*
X155473760Y-103548600D01*
X154965040Y-103548600D01*
X154937462Y-103545884D01*
X154916844Y-103539630D01*
X154897844Y-103529474D01*
X154881192Y-103515808D01*
X154867526Y-103499156D01*
X154857370Y-103480156D01*
X154851116Y-103459538D01*
X154848400Y-103431960D01*
X154848400Y-102973240D01*
X154851116Y-102945662D01*
X154857370Y-102925044D01*
X154867526Y-102906044D01*
X154881192Y-102889392D01*
X154897844Y-102875726D01*
X154916844Y-102865570D01*
X154937462Y-102859316D01*
X154965040Y-102856600D01*
X155473760Y-102856600D01*
X155501338Y-102859316D01*
X155501338Y-102859316D01*
G37*
G36*
X121152800Y-103117000D02*
X120150800Y-103117000D01*
X120150800Y-102115000D01*
X121152800Y-102115000D01*
X121152800Y-103117000D01*
X121152800Y-103117000D01*
G37*
G36*
X137252800Y-103117000D02*
X136250800Y-103117000D01*
X136250800Y-102115000D01*
X137252800Y-102115000D01*
X137252800Y-103117000D01*
X137252800Y-103117000D01*
G37*
G36*
X155501338Y-101889316D02*
X155521956Y-101895570D01*
X155540956Y-101905726D01*
X155557608Y-101919392D01*
X155571274Y-101936044D01*
X155581430Y-101955044D01*
X155587684Y-101975662D01*
X155590400Y-102003240D01*
X155590400Y-102461960D01*
X155587684Y-102489538D01*
X155581430Y-102510156D01*
X155571274Y-102529156D01*
X155557608Y-102545808D01*
X155540956Y-102559474D01*
X155521956Y-102569630D01*
X155501338Y-102575884D01*
X155473760Y-102578600D01*
X154965040Y-102578600D01*
X154937462Y-102575884D01*
X154916844Y-102569630D01*
X154897844Y-102559474D01*
X154881192Y-102545808D01*
X154867526Y-102529156D01*
X154857370Y-102510156D01*
X154851116Y-102489538D01*
X154848400Y-102461960D01*
X154848400Y-102003240D01*
X154851116Y-101975662D01*
X154857370Y-101955044D01*
X154867526Y-101936044D01*
X154881192Y-101919392D01*
X154897844Y-101905726D01*
X154916844Y-101895570D01*
X154937462Y-101889316D01*
X154965040Y-101886600D01*
X155473760Y-101886600D01*
X155501338Y-101889316D01*
X155501338Y-101889316D01*
G37*
G36*
X121152800Y-101847000D02*
X120150800Y-101847000D01*
X120150800Y-100845000D01*
X121152800Y-100845000D01*
X121152800Y-101847000D01*
X121152800Y-101847000D01*
G37*
G36*
X137252800Y-101847000D02*
X136250800Y-101847000D01*
X136250800Y-100845000D01*
X137252800Y-100845000D01*
X137252800Y-101847000D01*
X137252800Y-101847000D01*
G37*
G36*
X155598991Y-100455285D02*
X155632969Y-100465593D01*
X155664287Y-100482333D01*
X155691739Y-100504861D01*
X155714267Y-100532313D01*
X155731007Y-100563631D01*
X155741315Y-100597609D01*
X155745400Y-100639090D01*
X155745400Y-101240310D01*
X155741315Y-101281791D01*
X155731007Y-101315769D01*
X155714267Y-101347087D01*
X155691739Y-101374539D01*
X155664287Y-101397067D01*
X155632969Y-101413807D01*
X155598991Y-101424115D01*
X155557510Y-101428200D01*
X154881290Y-101428200D01*
X154839809Y-101424115D01*
X154805831Y-101413807D01*
X154774513Y-101397067D01*
X154747061Y-101374539D01*
X154724533Y-101347087D01*
X154707793Y-101315769D01*
X154697485Y-101281791D01*
X154693400Y-101240310D01*
X154693400Y-100639090D01*
X154697485Y-100597609D01*
X154707793Y-100563631D01*
X154724533Y-100532313D01*
X154747061Y-100504861D01*
X154774513Y-100482333D01*
X154805831Y-100465593D01*
X154839809Y-100455285D01*
X154881290Y-100451200D01*
X155557510Y-100451200D01*
X155598991Y-100455285D01*
X155598991Y-100455285D01*
G37*
G36*
X141752000Y-101225000D02*
X140950000Y-101225000D01*
X140950000Y-99573000D01*
X141752000Y-99573000D01*
X141752000Y-101225000D01*
X141752000Y-101225000D01*
G37*
G36*
X143022000Y-101225000D02*
X142220000Y-101225000D01*
X142220000Y-99573000D01*
X143022000Y-99573000D01*
X143022000Y-101225000D01*
X143022000Y-101225000D01*
G37*
G36*
X145562000Y-101225000D02*
X144760000Y-101225000D01*
X144760000Y-99573000D01*
X145562000Y-99573000D01*
X145562000Y-101225000D01*
X145562000Y-101225000D01*
G37*
G36*
X144292000Y-101225000D02*
X143490000Y-101225000D01*
X143490000Y-99573000D01*
X144292000Y-99573000D01*
X144292000Y-101225000D01*
X144292000Y-101225000D01*
G37*
G36*
X161519138Y-100215716D02*
X161539756Y-100221970D01*
X161558756Y-100232126D01*
X161575408Y-100245792D01*
X161589074Y-100262444D01*
X161599230Y-100281444D01*
X161605484Y-100302062D01*
X161608200Y-100329640D01*
X161608200Y-100838360D01*
X161605484Y-100865938D01*
X161599230Y-100886556D01*
X161589074Y-100905556D01*
X161575408Y-100922208D01*
X161558756Y-100935874D01*
X161539756Y-100946030D01*
X161519138Y-100952284D01*
X161491560Y-100955000D01*
X161032840Y-100955000D01*
X161005262Y-100952284D01*
X160984644Y-100946030D01*
X160965644Y-100935874D01*
X160948992Y-100922208D01*
X160935326Y-100905556D01*
X160925170Y-100886556D01*
X160918916Y-100865938D01*
X160916200Y-100838360D01*
X160916200Y-100329640D01*
X160918916Y-100302062D01*
X160925170Y-100281444D01*
X160935326Y-100262444D01*
X160948992Y-100245792D01*
X160965644Y-100232126D01*
X160984644Y-100221970D01*
X161005262Y-100215716D01*
X161032840Y-100213000D01*
X161491560Y-100213000D01*
X161519138Y-100215716D01*
X161519138Y-100215716D01*
G37*
G36*
X162489138Y-100215716D02*
X162509756Y-100221970D01*
X162528756Y-100232126D01*
X162545408Y-100245792D01*
X162559074Y-100262444D01*
X162569230Y-100281444D01*
X162575484Y-100302062D01*
X162578200Y-100329640D01*
X162578200Y-100838360D01*
X162575484Y-100865938D01*
X162569230Y-100886556D01*
X162559074Y-100905556D01*
X162545408Y-100922208D01*
X162528756Y-100935874D01*
X162509756Y-100946030D01*
X162489138Y-100952284D01*
X162461560Y-100955000D01*
X162002840Y-100955000D01*
X161975262Y-100952284D01*
X161954644Y-100946030D01*
X161935644Y-100935874D01*
X161918992Y-100922208D01*
X161905326Y-100905556D01*
X161895170Y-100886556D01*
X161888916Y-100865938D01*
X161886200Y-100838360D01*
X161886200Y-100329640D01*
X161888916Y-100302062D01*
X161895170Y-100281444D01*
X161905326Y-100262444D01*
X161918992Y-100245792D01*
X161935644Y-100232126D01*
X161954644Y-100221970D01*
X161975262Y-100215716D01*
X162002840Y-100213000D01*
X162461560Y-100213000D01*
X162489138Y-100215716D01*
X162489138Y-100215716D01*
G37*
G36*
X131742800Y-100577000D02*
X130740800Y-100577000D01*
X130740800Y-99575000D01*
X131742800Y-99575000D01*
X131742800Y-100577000D01*
X131742800Y-100577000D01*
G37*
G36*
X134282800Y-100577000D02*
X133280800Y-100577000D01*
X133280800Y-99575000D01*
X134282800Y-99575000D01*
X134282800Y-100577000D01*
X134282800Y-100577000D01*
G37*
G36*
X130472800Y-100577000D02*
X129470800Y-100577000D01*
X129470800Y-99575000D01*
X130472800Y-99575000D01*
X130472800Y-100577000D01*
X130472800Y-100577000D01*
G37*
G36*
X129202800Y-100577000D02*
X128200800Y-100577000D01*
X128200800Y-99575000D01*
X129202800Y-99575000D01*
X129202800Y-100577000D01*
X129202800Y-100577000D01*
G37*
G36*
X127932800Y-100577000D02*
X126930800Y-100577000D01*
X126930800Y-99575000D01*
X127932800Y-99575000D01*
X127932800Y-100577000D01*
X127932800Y-100577000D01*
G37*
G36*
X126662800Y-100577000D02*
X125660800Y-100577000D01*
X125660800Y-99575000D01*
X126662800Y-99575000D01*
X126662800Y-100577000D01*
X126662800Y-100577000D01*
G37*
G36*
X133012800Y-100577000D02*
X132010800Y-100577000D01*
X132010800Y-99575000D01*
X133012800Y-99575000D01*
X133012800Y-100577000D01*
X133012800Y-100577000D01*
G37*
G36*
X135552800Y-100577000D02*
X134550800Y-100577000D01*
X134550800Y-99575000D01*
X135552800Y-99575000D01*
X135552800Y-100577000D01*
X135552800Y-100577000D01*
G37*
G36*
X137252800Y-100577000D02*
X136250800Y-100577000D01*
X136250800Y-99575000D01*
X137252800Y-99575000D01*
X137252800Y-100577000D01*
X137252800Y-100577000D01*
G37*
G36*
X125392800Y-100577000D02*
X124390800Y-100577000D01*
X124390800Y-99575000D01*
X125392800Y-99575000D01*
X125392800Y-100577000D01*
X125392800Y-100577000D01*
G37*
G36*
X124122800Y-100577000D02*
X123120800Y-100577000D01*
X123120800Y-99575000D01*
X124122800Y-99575000D01*
X124122800Y-100577000D01*
X124122800Y-100577000D01*
G37*
G36*
X122852800Y-100577000D02*
X121850800Y-100577000D01*
X121850800Y-99575000D01*
X122852800Y-99575000D01*
X122852800Y-100577000D01*
X122852800Y-100577000D01*
G37*
G36*
X121152800Y-100577000D02*
X120150800Y-100577000D01*
X120150800Y-99575000D01*
X121152800Y-99575000D01*
X121152800Y-100577000D01*
X121152800Y-100577000D01*
G37*
G36*
X164061138Y-99227116D02*
X164081756Y-99233370D01*
X164100756Y-99243526D01*
X164117408Y-99257192D01*
X164131074Y-99273844D01*
X164141230Y-99292844D01*
X164147484Y-99313462D01*
X164150200Y-99341040D01*
X164150200Y-99799760D01*
X164147484Y-99827338D01*
X164141230Y-99847956D01*
X164131074Y-99866956D01*
X164117408Y-99883608D01*
X164100756Y-99897274D01*
X164081756Y-99907430D01*
X164061138Y-99913684D01*
X164033560Y-99916400D01*
X163524840Y-99916400D01*
X163497262Y-99913684D01*
X163476644Y-99907430D01*
X163457644Y-99897274D01*
X163440992Y-99883608D01*
X163427326Y-99866956D01*
X163417170Y-99847956D01*
X163410916Y-99827338D01*
X163408200Y-99799760D01*
X163408200Y-99341040D01*
X163410916Y-99313462D01*
X163417170Y-99292844D01*
X163427326Y-99273844D01*
X163440992Y-99257192D01*
X163457644Y-99243526D01*
X163476644Y-99233370D01*
X163497262Y-99227116D01*
X163524840Y-99224400D01*
X164033560Y-99224400D01*
X164061138Y-99227116D01*
X164061138Y-99227116D01*
G37*
G36*
X155598991Y-98880285D02*
X155632969Y-98890593D01*
X155664287Y-98907333D01*
X155691739Y-98929861D01*
X155714267Y-98957313D01*
X155731007Y-98988631D01*
X155741315Y-99022609D01*
X155745400Y-99064090D01*
X155745400Y-99665310D01*
X155741315Y-99706791D01*
X155731007Y-99740769D01*
X155714267Y-99772087D01*
X155691739Y-99799539D01*
X155664287Y-99822067D01*
X155632969Y-99838807D01*
X155598991Y-99849115D01*
X155557510Y-99853200D01*
X154881290Y-99853200D01*
X154839809Y-99849115D01*
X154805831Y-99838807D01*
X154774513Y-99822067D01*
X154747061Y-99799539D01*
X154724533Y-99772087D01*
X154707793Y-99740769D01*
X154697485Y-99706791D01*
X154693400Y-99665310D01*
X154693400Y-99064090D01*
X154697485Y-99022609D01*
X154707793Y-98988631D01*
X154724533Y-98957313D01*
X154747061Y-98929861D01*
X154774513Y-98907333D01*
X154805831Y-98890593D01*
X154839809Y-98880285D01*
X154881290Y-98876200D01*
X155557510Y-98876200D01*
X155598991Y-98880285D01*
X155598991Y-98880285D01*
G37*
G36*
X157099538Y-98894916D02*
X157120156Y-98901170D01*
X157139156Y-98911326D01*
X157155808Y-98924992D01*
X157169474Y-98941644D01*
X157179630Y-98960644D01*
X157185884Y-98981262D01*
X157188600Y-99008840D01*
X157188600Y-99517560D01*
X157185884Y-99545138D01*
X157179630Y-99565756D01*
X157169474Y-99584756D01*
X157155808Y-99601408D01*
X157139156Y-99615074D01*
X157120156Y-99625230D01*
X157099538Y-99631484D01*
X157071960Y-99634200D01*
X156613240Y-99634200D01*
X156585662Y-99631484D01*
X156565044Y-99625230D01*
X156546044Y-99615074D01*
X156529392Y-99601408D01*
X156515726Y-99584756D01*
X156505570Y-99565756D01*
X156499316Y-99545138D01*
X156496600Y-99517560D01*
X156496600Y-99008840D01*
X156499316Y-98981262D01*
X156505570Y-98960644D01*
X156515726Y-98941644D01*
X156529392Y-98924992D01*
X156546044Y-98911326D01*
X156565044Y-98901170D01*
X156585662Y-98894916D01*
X156613240Y-98892200D01*
X157071960Y-98892200D01*
X157099538Y-98894916D01*
X157099538Y-98894916D01*
G37*
G36*
X158069538Y-98894916D02*
X158090156Y-98901170D01*
X158109156Y-98911326D01*
X158125808Y-98924992D01*
X158139474Y-98941644D01*
X158149630Y-98960644D01*
X158155884Y-98981262D01*
X158158600Y-99008840D01*
X158158600Y-99517560D01*
X158155884Y-99545138D01*
X158149630Y-99565756D01*
X158139474Y-99584756D01*
X158125808Y-99601408D01*
X158109156Y-99615074D01*
X158090156Y-99625230D01*
X158069538Y-99631484D01*
X158041960Y-99634200D01*
X157583240Y-99634200D01*
X157555662Y-99631484D01*
X157535044Y-99625230D01*
X157516044Y-99615074D01*
X157499392Y-99601408D01*
X157485726Y-99584756D01*
X157475570Y-99565756D01*
X157469316Y-99545138D01*
X157466600Y-99517560D01*
X157466600Y-99008840D01*
X157469316Y-98981262D01*
X157475570Y-98960644D01*
X157485726Y-98941644D01*
X157499392Y-98924992D01*
X157516044Y-98911326D01*
X157535044Y-98901170D01*
X157555662Y-98894916D01*
X157583240Y-98892200D01*
X158041960Y-98892200D01*
X158069538Y-98894916D01*
X158069538Y-98894916D01*
G37*
G36*
X161571398Y-95714108D02*
X161571401Y-95714109D01*
X161571402Y-95714109D01*
X161609290Y-95725602D01*
X161644209Y-95744266D01*
X161674816Y-95769384D01*
X161699934Y-95799990D01*
X161714557Y-95827348D01*
X161718597Y-95834907D01*
X161730092Y-95872800D01*
X161733000Y-95902327D01*
X161733000Y-96372073D01*
X161730092Y-96401600D01*
X161730091Y-96401603D01*
X161718598Y-96439491D01*
X161699934Y-96474410D01*
X161699932Y-96474412D01*
X161698402Y-96477275D01*
X161689025Y-96499914D01*
X161684244Y-96523947D01*
X161684244Y-96548452D01*
X161689024Y-96572485D01*
X161698402Y-96595124D01*
X161712015Y-96615499D01*
X161729342Y-96632826D01*
X161749362Y-96646203D01*
X161754066Y-96655004D01*
X161769612Y-96673946D01*
X161788554Y-96689492D01*
X161810165Y-96701043D01*
X161833614Y-96708156D01*
X161858000Y-96710558D01*
X161882386Y-96708156D01*
X161905835Y-96701043D01*
X161916925Y-96695798D01*
X161919788Y-96694268D01*
X161919790Y-96694266D01*
X161954709Y-96675602D01*
X161992597Y-96664109D01*
X161992600Y-96664108D01*
X162022127Y-96661200D01*
X162491873Y-96661200D01*
X162521400Y-96664108D01*
X162521403Y-96664109D01*
X162559291Y-96675602D01*
X162594210Y-96694266D01*
X162624816Y-96719384D01*
X162649934Y-96749990D01*
X162667466Y-96782790D01*
X162668597Y-96784907D01*
X162680092Y-96822800D01*
X162683972Y-96862200D01*
X162680092Y-96901600D01*
X162680091Y-96901603D01*
X162668598Y-96939491D01*
X162649934Y-96974410D01*
X162624816Y-97005016D01*
X162624814Y-97005018D01*
X162611952Y-97015573D01*
X162594625Y-97032900D01*
X162581011Y-97053274D01*
X162571633Y-97075913D01*
X162566852Y-97099946D01*
X162566852Y-97124451D01*
X162571632Y-97148484D01*
X162581009Y-97171123D01*
X162594623Y-97191498D01*
X162611950Y-97208825D01*
X162624816Y-97219384D01*
X162649934Y-97249990D01*
X162668598Y-97284909D01*
X162676088Y-97309600D01*
X162680092Y-97322800D01*
X162683972Y-97362200D01*
X162680092Y-97401600D01*
X162680091Y-97401603D01*
X162668598Y-97439491D01*
X162649934Y-97474410D01*
X162628274Y-97500802D01*
X162624814Y-97505018D01*
X162611952Y-97515573D01*
X162594625Y-97532900D01*
X162581011Y-97553274D01*
X162571633Y-97575913D01*
X162566852Y-97599946D01*
X162566852Y-97624451D01*
X162571632Y-97648484D01*
X162581009Y-97671123D01*
X162594623Y-97691498D01*
X162611950Y-97708825D01*
X162624816Y-97719384D01*
X162649934Y-97749990D01*
X162667466Y-97782790D01*
X162668597Y-97784907D01*
X162680092Y-97822800D01*
X162683972Y-97862200D01*
X162680092Y-97901600D01*
X162680091Y-97901603D01*
X162668598Y-97939491D01*
X162649934Y-97974410D01*
X162624816Y-98005016D01*
X162624814Y-98005018D01*
X162611952Y-98015573D01*
X162594625Y-98032900D01*
X162581011Y-98053274D01*
X162571633Y-98075913D01*
X162566852Y-98099946D01*
X162566852Y-98124451D01*
X162571632Y-98148484D01*
X162581009Y-98171123D01*
X162594623Y-98191498D01*
X162611950Y-98208825D01*
X162624816Y-98219384D01*
X162649934Y-98249990D01*
X162668598Y-98284909D01*
X162671799Y-98295462D01*
X162680092Y-98322800D01*
X162683972Y-98362200D01*
X162680092Y-98401600D01*
X162680091Y-98401603D01*
X162668598Y-98439491D01*
X162649934Y-98474410D01*
X162624816Y-98505016D01*
X162594210Y-98530134D01*
X162559291Y-98548798D01*
X162528455Y-98558152D01*
X162521400Y-98560292D01*
X162491873Y-98563200D01*
X162022127Y-98563200D01*
X161992600Y-98560292D01*
X161985545Y-98558152D01*
X161954709Y-98548798D01*
X161919790Y-98530134D01*
X161919788Y-98530132D01*
X161916925Y-98528602D01*
X161894286Y-98519225D01*
X161870253Y-98514444D01*
X161845748Y-98514444D01*
X161821715Y-98519224D01*
X161799076Y-98528602D01*
X161778701Y-98542215D01*
X161761374Y-98559542D01*
X161747997Y-98579562D01*
X161739196Y-98584266D01*
X161720254Y-98599812D01*
X161704708Y-98618754D01*
X161693157Y-98640365D01*
X161686044Y-98663814D01*
X161683642Y-98688200D01*
X161686044Y-98712586D01*
X161693157Y-98736035D01*
X161698402Y-98747125D01*
X161699932Y-98749988D01*
X161699934Y-98749990D01*
X161713515Y-98775400D01*
X161718597Y-98784907D01*
X161730092Y-98822800D01*
X161733000Y-98852327D01*
X161733000Y-99322073D01*
X161730092Y-99351600D01*
X161730091Y-99351603D01*
X161718598Y-99389491D01*
X161699934Y-99424410D01*
X161674816Y-99455016D01*
X161644210Y-99480134D01*
X161609291Y-99498798D01*
X161578455Y-99508152D01*
X161571400Y-99510292D01*
X161532000Y-99514172D01*
X161492602Y-99510292D01*
X161492599Y-99510291D01*
X161492598Y-99510291D01*
X161454710Y-99498798D01*
X161419791Y-99480134D01*
X161389185Y-99455016D01*
X161378625Y-99442149D01*
X161361301Y-99424825D01*
X161340927Y-99411211D01*
X161318288Y-99401833D01*
X161294255Y-99397052D01*
X161269750Y-99397052D01*
X161245717Y-99401832D01*
X161223078Y-99411209D01*
X161202703Y-99424823D01*
X161185376Y-99442149D01*
X161185374Y-99442152D01*
X161174816Y-99455016D01*
X161144210Y-99480134D01*
X161109291Y-99498798D01*
X161078455Y-99508152D01*
X161071400Y-99510292D01*
X161032000Y-99514172D01*
X160992602Y-99510292D01*
X160992599Y-99510291D01*
X160992598Y-99510291D01*
X160954710Y-99498798D01*
X160919791Y-99480134D01*
X160889185Y-99455016D01*
X160878625Y-99442149D01*
X160861301Y-99424825D01*
X160840927Y-99411211D01*
X160818288Y-99401833D01*
X160794255Y-99397052D01*
X160769750Y-99397052D01*
X160745717Y-99401832D01*
X160723078Y-99411209D01*
X160702703Y-99424823D01*
X160685376Y-99442149D01*
X160685374Y-99442152D01*
X160674816Y-99455016D01*
X160644210Y-99480134D01*
X160609291Y-99498798D01*
X160578455Y-99508152D01*
X160571400Y-99510292D01*
X160532000Y-99514172D01*
X160492602Y-99510292D01*
X160492599Y-99510291D01*
X160492598Y-99510291D01*
X160454710Y-99498798D01*
X160419791Y-99480134D01*
X160389185Y-99455016D01*
X160378625Y-99442149D01*
X160361301Y-99424825D01*
X160340927Y-99411211D01*
X160318288Y-99401833D01*
X160294255Y-99397052D01*
X160269750Y-99397052D01*
X160245717Y-99401832D01*
X160223078Y-99411209D01*
X160202703Y-99424823D01*
X160185376Y-99442149D01*
X160185374Y-99442152D01*
X160174816Y-99455016D01*
X160144210Y-99480134D01*
X160109291Y-99498798D01*
X160078455Y-99508152D01*
X160071400Y-99510292D01*
X160032000Y-99514172D01*
X159992602Y-99510292D01*
X159992599Y-99510291D01*
X159992598Y-99510291D01*
X159954710Y-99498798D01*
X159919791Y-99480134D01*
X159889185Y-99455016D01*
X159864067Y-99424410D01*
X159845403Y-99389491D01*
X159833910Y-99351603D01*
X159833910Y-99351602D01*
X159833909Y-99351599D01*
X159831000Y-99322069D01*
X159831000Y-98852328D01*
X159833908Y-98822801D01*
X159845403Y-98784906D01*
X159858084Y-98761184D01*
X159864066Y-98749991D01*
X159864068Y-98749989D01*
X159865598Y-98747126D01*
X159874976Y-98724487D01*
X159879757Y-98700454D01*
X159879757Y-98675949D01*
X159874977Y-98651916D01*
X159865600Y-98629277D01*
X159851986Y-98608902D01*
X159834659Y-98591575D01*
X159814638Y-98578197D01*
X159809934Y-98569396D01*
X159794388Y-98550454D01*
X159775446Y-98534908D01*
X159753835Y-98523357D01*
X159730386Y-98516244D01*
X159706000Y-98513842D01*
X159681614Y-98516244D01*
X159658165Y-98523357D01*
X159647075Y-98528602D01*
X159644212Y-98530132D01*
X159644210Y-98530134D01*
X159609291Y-98548798D01*
X159578455Y-98558152D01*
X159571400Y-98560292D01*
X159541873Y-98563200D01*
X159072127Y-98563200D01*
X159042600Y-98560292D01*
X159035545Y-98558152D01*
X159004709Y-98548798D01*
X158969790Y-98530134D01*
X158939184Y-98505016D01*
X158914066Y-98474410D01*
X158895402Y-98439491D01*
X158883909Y-98401603D01*
X158883908Y-98401600D01*
X158880028Y-98362200D01*
X158883908Y-98322800D01*
X158892201Y-98295462D01*
X158895402Y-98284909D01*
X158914066Y-98249990D01*
X158939184Y-98219384D01*
X158952050Y-98208825D01*
X158969375Y-98191500D01*
X158982989Y-98171126D01*
X158992367Y-98148487D01*
X158997148Y-98124454D01*
X158997148Y-98099949D01*
X158992368Y-98075916D01*
X158982991Y-98053277D01*
X158969377Y-98032902D01*
X158952048Y-98015573D01*
X158939186Y-98005018D01*
X158939184Y-98005016D01*
X158914066Y-97974410D01*
X158895402Y-97939491D01*
X158883909Y-97901603D01*
X158883908Y-97901600D01*
X158880028Y-97862200D01*
X158883908Y-97822800D01*
X158895403Y-97784907D01*
X158896534Y-97782790D01*
X158914066Y-97749990D01*
X158939184Y-97719384D01*
X158952050Y-97708825D01*
X158969375Y-97691500D01*
X158982989Y-97671126D01*
X158992367Y-97648487D01*
X158997148Y-97624454D01*
X158997148Y-97599949D01*
X158992368Y-97575916D01*
X158982991Y-97553277D01*
X158969377Y-97532902D01*
X158952048Y-97515573D01*
X158939186Y-97505018D01*
X158935726Y-97500802D01*
X158914066Y-97474410D01*
X158895402Y-97439491D01*
X158883909Y-97401603D01*
X158883908Y-97401600D01*
X158880028Y-97362200D01*
X158883908Y-97322800D01*
X158887912Y-97309600D01*
X158895402Y-97284909D01*
X158914066Y-97249990D01*
X158939184Y-97219384D01*
X158952050Y-97208825D01*
X158969375Y-97191500D01*
X158982989Y-97171126D01*
X158992367Y-97148487D01*
X158997148Y-97124454D01*
X158997148Y-97099949D01*
X158992368Y-97075916D01*
X158982991Y-97053277D01*
X158969377Y-97032902D01*
X158952048Y-97015573D01*
X158939186Y-97005018D01*
X158939184Y-97005016D01*
X158914066Y-96974410D01*
X158895402Y-96939491D01*
X158883909Y-96901603D01*
X158883908Y-96901600D01*
X158880028Y-96862200D01*
X158883908Y-96822800D01*
X158895403Y-96784907D01*
X158896534Y-96782790D01*
X158914066Y-96749990D01*
X158939184Y-96719384D01*
X158969790Y-96694266D01*
X159004709Y-96675602D01*
X159042597Y-96664109D01*
X159042600Y-96664108D01*
X159072127Y-96661200D01*
X159541873Y-96661200D01*
X159571400Y-96664108D01*
X159571403Y-96664109D01*
X159609291Y-96675602D01*
X159644210Y-96694266D01*
X159644212Y-96694268D01*
X159647075Y-96695798D01*
X159669714Y-96705175D01*
X159693747Y-96709956D01*
X159718252Y-96709956D01*
X159742285Y-96705176D01*
X159764924Y-96695798D01*
X159785299Y-96682185D01*
X159802626Y-96664858D01*
X159816002Y-96644839D01*
X159824805Y-96640134D01*
X159843747Y-96624588D01*
X159859293Y-96605646D01*
X159870844Y-96584035D01*
X159877957Y-96560586D01*
X159880359Y-96536200D01*
X159877957Y-96511814D01*
X159870844Y-96488365D01*
X159865599Y-96477275D01*
X159864069Y-96474412D01*
X159864067Y-96474410D01*
X159845403Y-96439491D01*
X159833910Y-96401603D01*
X159833910Y-96401602D01*
X159833909Y-96401599D01*
X159831000Y-96372069D01*
X159831000Y-95902328D01*
X159833908Y-95872801D01*
X159845403Y-95834908D01*
X159851999Y-95822568D01*
X159864066Y-95799991D01*
X159889184Y-95769384D01*
X159919790Y-95744266D01*
X159954709Y-95725602D01*
X159992597Y-95714109D01*
X159992600Y-95714108D01*
X160032000Y-95710228D01*
X160071398Y-95714108D01*
X160071401Y-95714109D01*
X160071402Y-95714109D01*
X160109290Y-95725602D01*
X160144209Y-95744266D01*
X160174816Y-95769384D01*
X160174819Y-95769387D01*
X160185373Y-95782248D01*
X160202700Y-95799575D01*
X160223074Y-95813189D01*
X160245713Y-95822567D01*
X160269746Y-95827348D01*
X160294251Y-95827348D01*
X160318284Y-95822568D01*
X160340923Y-95813191D01*
X160361298Y-95799577D01*
X160378627Y-95782248D01*
X160389182Y-95769386D01*
X160389184Y-95769384D01*
X160419790Y-95744266D01*
X160454709Y-95725602D01*
X160492597Y-95714109D01*
X160492600Y-95714108D01*
X160532000Y-95710228D01*
X160571398Y-95714108D01*
X160571401Y-95714109D01*
X160571402Y-95714109D01*
X160609290Y-95725602D01*
X160644209Y-95744266D01*
X160674816Y-95769384D01*
X160674819Y-95769387D01*
X160685373Y-95782248D01*
X160702700Y-95799575D01*
X160723074Y-95813189D01*
X160745713Y-95822567D01*
X160769746Y-95827348D01*
X160794251Y-95827348D01*
X160818284Y-95822568D01*
X160840923Y-95813191D01*
X160861298Y-95799577D01*
X160878627Y-95782248D01*
X160889182Y-95769386D01*
X160889184Y-95769384D01*
X160919790Y-95744266D01*
X160954709Y-95725602D01*
X160992597Y-95714109D01*
X160992600Y-95714108D01*
X161032000Y-95710228D01*
X161071398Y-95714108D01*
X161071401Y-95714109D01*
X161071402Y-95714109D01*
X161109290Y-95725602D01*
X161144209Y-95744266D01*
X161174816Y-95769384D01*
X161174819Y-95769387D01*
X161185373Y-95782248D01*
X161202700Y-95799575D01*
X161223074Y-95813189D01*
X161245713Y-95822567D01*
X161269746Y-95827348D01*
X161294251Y-95827348D01*
X161318284Y-95822568D01*
X161340923Y-95813191D01*
X161361298Y-95799577D01*
X161378627Y-95782248D01*
X161389182Y-95769386D01*
X161389184Y-95769384D01*
X161419790Y-95744266D01*
X161454709Y-95725602D01*
X161492597Y-95714109D01*
X161492600Y-95714108D01*
X161532000Y-95710228D01*
X161571398Y-95714108D01*
X161571398Y-95714108D01*
G37*
G36*
X146487138Y-98209116D02*
X146507756Y-98215370D01*
X146526756Y-98225526D01*
X146543408Y-98239192D01*
X146557074Y-98255844D01*
X146567230Y-98274844D01*
X146573484Y-98295462D01*
X146576200Y-98323040D01*
X146576200Y-98831760D01*
X146573484Y-98859338D01*
X146567230Y-98879956D01*
X146557074Y-98898956D01*
X146543408Y-98915608D01*
X146526756Y-98929274D01*
X146507756Y-98939430D01*
X146487138Y-98945684D01*
X146459560Y-98948400D01*
X146000840Y-98948400D01*
X145973262Y-98945684D01*
X145952644Y-98939430D01*
X145933644Y-98929274D01*
X145916992Y-98915608D01*
X145903326Y-98898956D01*
X145893170Y-98879956D01*
X145886916Y-98859338D01*
X145884200Y-98831760D01*
X145884200Y-98323040D01*
X145886916Y-98295462D01*
X145893170Y-98274844D01*
X145903326Y-98255844D01*
X145916992Y-98239192D01*
X145933644Y-98225526D01*
X145952644Y-98215370D01*
X145973262Y-98209116D01*
X146000840Y-98206400D01*
X146459560Y-98206400D01*
X146487138Y-98209116D01*
X146487138Y-98209116D01*
G37*
G36*
X145517138Y-98209116D02*
X145537756Y-98215370D01*
X145556756Y-98225526D01*
X145573408Y-98239192D01*
X145587074Y-98255844D01*
X145597230Y-98274844D01*
X145603484Y-98295462D01*
X145606200Y-98323040D01*
X145606200Y-98831760D01*
X145603484Y-98859338D01*
X145597230Y-98879956D01*
X145587074Y-98898956D01*
X145573408Y-98915608D01*
X145556756Y-98929274D01*
X145537756Y-98939430D01*
X145517138Y-98945684D01*
X145489560Y-98948400D01*
X145030840Y-98948400D01*
X145003262Y-98945684D01*
X144982644Y-98939430D01*
X144963644Y-98929274D01*
X144946992Y-98915608D01*
X144933326Y-98898956D01*
X144923170Y-98879956D01*
X144916916Y-98859338D01*
X144914200Y-98831760D01*
X144914200Y-98323040D01*
X144916916Y-98295462D01*
X144923170Y-98274844D01*
X144933326Y-98255844D01*
X144946992Y-98239192D01*
X144963644Y-98225526D01*
X144982644Y-98215370D01*
X145003262Y-98209116D01*
X145030840Y-98206400D01*
X145489560Y-98206400D01*
X145517138Y-98209116D01*
X145517138Y-98209116D01*
G37*
G36*
X164061138Y-98257116D02*
X164081756Y-98263370D01*
X164100756Y-98273526D01*
X164117408Y-98287192D01*
X164131074Y-98303844D01*
X164141230Y-98322844D01*
X164147484Y-98343462D01*
X164150200Y-98371040D01*
X164150200Y-98829760D01*
X164147484Y-98857338D01*
X164141230Y-98877956D01*
X164131074Y-98896956D01*
X164117408Y-98913608D01*
X164100756Y-98927274D01*
X164081756Y-98937430D01*
X164061138Y-98943684D01*
X164033560Y-98946400D01*
X163524840Y-98946400D01*
X163497262Y-98943684D01*
X163476644Y-98937430D01*
X163457644Y-98927274D01*
X163440992Y-98913608D01*
X163427326Y-98896956D01*
X163417170Y-98877956D01*
X163410916Y-98857338D01*
X163408200Y-98829760D01*
X163408200Y-98371040D01*
X163410916Y-98343462D01*
X163417170Y-98322844D01*
X163427326Y-98303844D01*
X163440992Y-98287192D01*
X163457644Y-98273526D01*
X163476644Y-98263370D01*
X163497262Y-98257116D01*
X163524840Y-98254400D01*
X164033560Y-98254400D01*
X164061138Y-98257116D01*
X164061138Y-98257116D01*
G37*
G36*
X137713000Y-98024000D02*
X136861000Y-98024000D01*
X136861000Y-95822000D01*
X137713000Y-95822000D01*
X137713000Y-98024000D01*
X137713000Y-98024000D01*
G37*
G36*
X138983000Y-98024000D02*
X138131000Y-98024000D01*
X138131000Y-95822000D01*
X138983000Y-95822000D01*
X138983000Y-98024000D01*
X138983000Y-98024000D01*
G37*
G36*
X140253000Y-98024000D02*
X139401000Y-98024000D01*
X139401000Y-95822000D01*
X140253000Y-95822000D01*
X140253000Y-98024000D01*
X140253000Y-98024000D01*
G37*
G36*
X141523000Y-98024000D02*
X140671000Y-98024000D01*
X140671000Y-95822000D01*
X141523000Y-95822000D01*
X141523000Y-98024000D01*
X141523000Y-98024000D01*
G37*
G36*
X142793000Y-98024000D02*
X141941000Y-98024000D01*
X141941000Y-95822000D01*
X142793000Y-95822000D01*
X142793000Y-98024000D01*
X142793000Y-98024000D01*
G37*
G36*
X157845200Y-97818600D02*
X155743200Y-97818600D01*
X155743200Y-96916600D01*
X157845200Y-96916600D01*
X157845200Y-97818600D01*
X157845200Y-97818600D01*
G37*
G36*
X167392604Y-96232347D02*
X167429145Y-96243432D01*
X167462820Y-96261431D01*
X167492341Y-96285659D01*
X167516569Y-96315180D01*
X167534568Y-96348855D01*
X167545653Y-96385396D01*
X167550000Y-96429538D01*
X167550000Y-97378462D01*
X167545653Y-97422604D01*
X167534568Y-97459145D01*
X167516569Y-97492820D01*
X167492341Y-97522341D01*
X167462820Y-97546569D01*
X167429145Y-97564568D01*
X167392604Y-97575653D01*
X167348462Y-97580000D01*
X165899538Y-97580000D01*
X165855396Y-97575653D01*
X165818855Y-97564568D01*
X165785180Y-97546569D01*
X165755659Y-97522341D01*
X165731431Y-97492820D01*
X165713432Y-97459145D01*
X165702347Y-97422604D01*
X165698000Y-97378462D01*
X165698000Y-96429538D01*
X165702347Y-96385396D01*
X165713432Y-96348855D01*
X165731431Y-96315180D01*
X165755659Y-96285659D01*
X165785180Y-96261431D01*
X165818855Y-96243432D01*
X165855396Y-96232347D01*
X165899538Y-96228000D01*
X167348462Y-96228000D01*
X167392604Y-96232347D01*
X167392604Y-96232347D01*
G37*
G36*
X122821000Y-97294000D02*
X121019000Y-97294000D01*
X121019000Y-95492000D01*
X122821000Y-95492000D01*
X122821000Y-97294000D01*
X122821000Y-97294000D01*
G37*
G36*
X124570442Y-95498518D02*
X124636627Y-95505037D01*
X124749853Y-95539384D01*
X124806467Y-95556557D01*
X124945087Y-95630652D01*
X124962991Y-95640222D01*
X124998729Y-95669552D01*
X125100186Y-95752814D01*
X125167559Y-95834910D01*
X125212778Y-95890009D01*
X125212779Y-95890011D01*
X125296443Y-96046533D01*
X125308222Y-96085365D01*
X125347963Y-96216373D01*
X125365359Y-96393000D01*
X125347963Y-96569627D01*
X125319302Y-96664109D01*
X125296443Y-96739467D01*
X125251900Y-96822800D01*
X125212778Y-96895991D01*
X125183448Y-96931729D01*
X125100186Y-97033186D01*
X125003634Y-97112423D01*
X124962991Y-97145778D01*
X124962989Y-97145779D01*
X124806467Y-97229443D01*
X124749853Y-97246616D01*
X124636627Y-97280963D01*
X124570443Y-97287481D01*
X124504260Y-97294000D01*
X124415740Y-97294000D01*
X124349558Y-97287482D01*
X124283373Y-97280963D01*
X124170147Y-97246616D01*
X124113533Y-97229443D01*
X123957011Y-97145779D01*
X123957009Y-97145778D01*
X123916366Y-97112423D01*
X123819814Y-97033186D01*
X123736552Y-96931729D01*
X123707222Y-96895991D01*
X123668100Y-96822800D01*
X123623557Y-96739467D01*
X123600698Y-96664109D01*
X123572037Y-96569627D01*
X123554641Y-96393000D01*
X123572037Y-96216373D01*
X123611778Y-96085365D01*
X123623557Y-96046533D01*
X123707221Y-95890011D01*
X123707222Y-95890009D01*
X123752441Y-95834910D01*
X123819814Y-95752814D01*
X123921271Y-95669552D01*
X123957009Y-95640222D01*
X123974913Y-95630652D01*
X124113533Y-95556557D01*
X124170147Y-95539384D01*
X124283373Y-95505037D01*
X124349557Y-95498519D01*
X124415740Y-95492000D01*
X124504260Y-95492000D01*
X124570442Y-95498518D01*
X124570442Y-95498518D01*
G37*
G36*
X127110442Y-95498518D02*
X127176627Y-95505037D01*
X127289853Y-95539384D01*
X127346467Y-95556557D01*
X127485087Y-95630652D01*
X127502991Y-95640222D01*
X127538729Y-95669552D01*
X127640186Y-95752814D01*
X127707559Y-95834910D01*
X127752778Y-95890009D01*
X127752779Y-95890011D01*
X127836443Y-96046533D01*
X127848222Y-96085365D01*
X127887963Y-96216373D01*
X127905359Y-96393000D01*
X127887963Y-96569627D01*
X127859302Y-96664109D01*
X127836443Y-96739467D01*
X127791900Y-96822800D01*
X127752778Y-96895991D01*
X127723448Y-96931729D01*
X127640186Y-97033186D01*
X127543634Y-97112423D01*
X127502991Y-97145778D01*
X127502989Y-97145779D01*
X127346467Y-97229443D01*
X127289853Y-97246616D01*
X127176627Y-97280963D01*
X127110443Y-97287481D01*
X127044260Y-97294000D01*
X126955740Y-97294000D01*
X126889558Y-97287482D01*
X126823373Y-97280963D01*
X126710147Y-97246616D01*
X126653533Y-97229443D01*
X126497011Y-97145779D01*
X126497009Y-97145778D01*
X126456366Y-97112423D01*
X126359814Y-97033186D01*
X126276552Y-96931729D01*
X126247222Y-96895991D01*
X126208100Y-96822800D01*
X126163557Y-96739467D01*
X126140698Y-96664109D01*
X126112037Y-96569627D01*
X126094641Y-96393000D01*
X126112037Y-96216373D01*
X126151778Y-96085365D01*
X126163557Y-96046533D01*
X126247221Y-95890011D01*
X126247222Y-95890009D01*
X126292441Y-95834910D01*
X126359814Y-95752814D01*
X126461271Y-95669552D01*
X126497009Y-95640222D01*
X126514913Y-95630652D01*
X126653533Y-95556557D01*
X126710147Y-95539384D01*
X126823373Y-95505037D01*
X126889557Y-95498519D01*
X126955740Y-95492000D01*
X127044260Y-95492000D01*
X127110442Y-95498518D01*
X127110442Y-95498518D01*
G37*
G36*
X164770066Y-96085365D02*
X164808737Y-96097096D01*
X164844379Y-96116148D01*
X164875617Y-96141783D01*
X164901252Y-96173021D01*
X164920304Y-96208663D01*
X164932035Y-96247334D01*
X164936600Y-96293688D01*
X164936600Y-96944912D01*
X164932035Y-96991266D01*
X164920304Y-97029937D01*
X164901252Y-97065579D01*
X164875617Y-97096817D01*
X164844379Y-97122452D01*
X164808737Y-97141504D01*
X164770066Y-97153235D01*
X164723712Y-97157800D01*
X163647488Y-97157800D01*
X163601134Y-97153235D01*
X163562463Y-97141504D01*
X163526821Y-97122452D01*
X163495583Y-97096817D01*
X163469948Y-97065579D01*
X163450896Y-97029937D01*
X163439165Y-96991266D01*
X163434600Y-96944912D01*
X163434600Y-96293688D01*
X163439165Y-96247334D01*
X163450896Y-96208663D01*
X163469948Y-96173021D01*
X163495583Y-96141783D01*
X163526821Y-96116148D01*
X163562463Y-96097096D01*
X163601134Y-96085365D01*
X163647488Y-96080800D01*
X164723712Y-96080800D01*
X164770066Y-96085365D01*
X164770066Y-96085365D01*
G37*
G36*
X157845200Y-95818600D02*
X155743200Y-95818600D01*
X155743200Y-94916600D01*
X157845200Y-94916600D01*
X157845200Y-95818600D01*
X157845200Y-95818600D01*
G37*
G36*
X172446134Y-93127232D02*
X172655602Y-93213996D01*
X172844123Y-93339962D01*
X173004438Y-93500277D01*
X173130404Y-93688798D01*
X173217168Y-93898266D01*
X173261400Y-94120635D01*
X173261400Y-94347365D01*
X173217168Y-94569734D01*
X173130404Y-94779202D01*
X173004438Y-94967723D01*
X172844123Y-95128038D01*
X172655602Y-95254004D01*
X172446134Y-95340768D01*
X172223765Y-95385000D01*
X171997035Y-95385000D01*
X171774666Y-95340768D01*
X171565198Y-95254004D01*
X171376677Y-95128038D01*
X171216362Y-94967723D01*
X171090396Y-94779202D01*
X171003632Y-94569734D01*
X170959400Y-94347365D01*
X170959400Y-94120635D01*
X171003632Y-93898266D01*
X171090396Y-93688798D01*
X171216362Y-93500277D01*
X171376677Y-93339962D01*
X171565198Y-93213996D01*
X171774666Y-93127232D01*
X171997035Y-93083000D01*
X172223765Y-93083000D01*
X172446134Y-93127232D01*
X172446134Y-93127232D01*
G37*
G36*
X164770066Y-94210365D02*
X164808737Y-94222096D01*
X164844379Y-94241148D01*
X164875617Y-94266783D01*
X164901252Y-94298021D01*
X164920304Y-94333663D01*
X164932035Y-94372334D01*
X164936600Y-94418688D01*
X164936600Y-95069912D01*
X164932035Y-95116266D01*
X164920304Y-95154937D01*
X164901252Y-95190579D01*
X164875617Y-95221817D01*
X164844379Y-95247452D01*
X164808737Y-95266504D01*
X164770066Y-95278235D01*
X164723712Y-95282800D01*
X163647488Y-95282800D01*
X163601134Y-95278235D01*
X163562463Y-95266504D01*
X163526821Y-95247452D01*
X163495583Y-95221817D01*
X163469948Y-95190579D01*
X163450896Y-95154937D01*
X163439165Y-95116266D01*
X163434600Y-95069912D01*
X163434600Y-94418688D01*
X163439165Y-94372334D01*
X163450896Y-94333663D01*
X163469948Y-94298021D01*
X163495583Y-94266783D01*
X163526821Y-94241148D01*
X163562463Y-94222096D01*
X163601134Y-94210365D01*
X163647488Y-94205800D01*
X164723712Y-94205800D01*
X164770066Y-94210365D01*
X164770066Y-94210365D01*
G37*
G36*
X129567938Y-94502716D02*
X129588556Y-94508970D01*
X129607556Y-94519126D01*
X129624208Y-94532792D01*
X129637874Y-94549444D01*
X129648030Y-94568444D01*
X129654284Y-94589062D01*
X129657000Y-94616640D01*
X129657000Y-95075360D01*
X129654284Y-95102938D01*
X129648030Y-95123556D01*
X129637874Y-95142556D01*
X129624208Y-95159208D01*
X129607556Y-95172874D01*
X129588556Y-95183030D01*
X129567938Y-95189284D01*
X129540360Y-95192000D01*
X129031640Y-95192000D01*
X129004062Y-95189284D01*
X128983444Y-95183030D01*
X128964444Y-95172874D01*
X128947792Y-95159208D01*
X128934126Y-95142556D01*
X128923970Y-95123556D01*
X128917716Y-95102938D01*
X128915000Y-95075360D01*
X128915000Y-94616640D01*
X128917716Y-94589062D01*
X128923970Y-94568444D01*
X128934126Y-94549444D01*
X128947792Y-94532792D01*
X128964444Y-94519126D01*
X128983444Y-94508970D01*
X129004062Y-94502716D01*
X129031640Y-94500000D01*
X129540360Y-94500000D01*
X129567938Y-94502716D01*
X129567938Y-94502716D01*
G37*
G36*
X167392604Y-93432347D02*
X167429145Y-93443432D01*
X167462820Y-93461431D01*
X167492341Y-93485659D01*
X167516569Y-93515180D01*
X167534568Y-93548855D01*
X167545653Y-93585396D01*
X167550000Y-93629538D01*
X167550000Y-94578462D01*
X167545653Y-94622604D01*
X167534568Y-94659145D01*
X167516569Y-94692820D01*
X167492341Y-94722341D01*
X167462820Y-94746569D01*
X167429145Y-94764568D01*
X167392604Y-94775653D01*
X167348462Y-94780000D01*
X165899538Y-94780000D01*
X165855396Y-94775653D01*
X165818855Y-94764568D01*
X165785180Y-94746569D01*
X165755659Y-94722341D01*
X165731431Y-94692820D01*
X165713432Y-94659145D01*
X165702347Y-94622604D01*
X165698000Y-94578462D01*
X165698000Y-93629538D01*
X165702347Y-93585396D01*
X165713432Y-93548855D01*
X165731431Y-93515180D01*
X165755659Y-93485659D01*
X165785180Y-93461431D01*
X165818855Y-93443432D01*
X165855396Y-93432347D01*
X165899538Y-93428000D01*
X167348462Y-93428000D01*
X167392604Y-93432347D01*
X167392604Y-93432347D01*
G37*
G36*
X127110442Y-92958518D02*
X127176627Y-92965037D01*
X127289853Y-92999384D01*
X127346467Y-93016557D01*
X127470771Y-93083000D01*
X127502991Y-93100222D01*
X127538729Y-93129552D01*
X127640186Y-93212814D01*
X127723448Y-93314271D01*
X127752778Y-93350009D01*
X127752779Y-93350011D01*
X127836443Y-93506533D01*
X127839066Y-93515180D01*
X127887963Y-93676373D01*
X127905359Y-93853000D01*
X127887963Y-94029627D01*
X127860386Y-94120537D01*
X127836443Y-94199467D01*
X127813053Y-94243226D01*
X127752778Y-94355991D01*
X127723448Y-94391729D01*
X127640186Y-94493186D01*
X127538729Y-94576448D01*
X127502991Y-94605778D01*
X127502989Y-94605779D01*
X127346467Y-94689443D01*
X127289853Y-94706616D01*
X127176627Y-94740963D01*
X127119707Y-94746569D01*
X127044260Y-94754000D01*
X126955740Y-94754000D01*
X126880293Y-94746569D01*
X126823373Y-94740963D01*
X126710147Y-94706616D01*
X126653533Y-94689443D01*
X126497011Y-94605779D01*
X126497009Y-94605778D01*
X126461271Y-94576448D01*
X126359814Y-94493186D01*
X126276552Y-94391729D01*
X126247222Y-94355991D01*
X126186947Y-94243226D01*
X126163557Y-94199467D01*
X126139614Y-94120537D01*
X126112037Y-94029627D01*
X126094641Y-93853000D01*
X126112037Y-93676373D01*
X126160934Y-93515180D01*
X126163557Y-93506533D01*
X126247221Y-93350011D01*
X126247222Y-93350009D01*
X126276552Y-93314271D01*
X126359814Y-93212814D01*
X126461271Y-93129552D01*
X126497009Y-93100222D01*
X126529229Y-93083000D01*
X126653533Y-93016557D01*
X126710147Y-92999384D01*
X126823373Y-92965037D01*
X126889558Y-92958518D01*
X126955740Y-92952000D01*
X127044260Y-92952000D01*
X127110442Y-92958518D01*
X127110442Y-92958518D01*
G37*
G36*
X124570442Y-92958518D02*
X124636627Y-92965037D01*
X124749853Y-92999384D01*
X124806467Y-93016557D01*
X124930771Y-93083000D01*
X124962991Y-93100222D01*
X124998729Y-93129552D01*
X125100186Y-93212814D01*
X125183448Y-93314271D01*
X125212778Y-93350009D01*
X125212779Y-93350011D01*
X125296443Y-93506533D01*
X125299066Y-93515180D01*
X125347963Y-93676373D01*
X125365359Y-93853000D01*
X125347963Y-94029627D01*
X125320386Y-94120537D01*
X125296443Y-94199467D01*
X125273053Y-94243226D01*
X125212778Y-94355991D01*
X125183448Y-94391729D01*
X125100186Y-94493186D01*
X124998729Y-94576448D01*
X124962991Y-94605778D01*
X124962989Y-94605779D01*
X124806467Y-94689443D01*
X124749853Y-94706616D01*
X124636627Y-94740963D01*
X124579707Y-94746569D01*
X124504260Y-94754000D01*
X124415740Y-94754000D01*
X124340293Y-94746569D01*
X124283373Y-94740963D01*
X124170147Y-94706616D01*
X124113533Y-94689443D01*
X123957011Y-94605779D01*
X123957009Y-94605778D01*
X123921271Y-94576448D01*
X123819814Y-94493186D01*
X123736552Y-94391729D01*
X123707222Y-94355991D01*
X123646947Y-94243226D01*
X123623557Y-94199467D01*
X123599614Y-94120537D01*
X123572037Y-94029627D01*
X123554641Y-93853000D01*
X123572037Y-93676373D01*
X123620934Y-93515180D01*
X123623557Y-93506533D01*
X123707221Y-93350011D01*
X123707222Y-93350009D01*
X123736552Y-93314271D01*
X123819814Y-93212814D01*
X123921271Y-93129552D01*
X123957009Y-93100222D01*
X123989229Y-93083000D01*
X124113533Y-93016557D01*
X124170147Y-92999384D01*
X124283373Y-92965037D01*
X124349558Y-92958518D01*
X124415740Y-92952000D01*
X124504260Y-92952000D01*
X124570442Y-92958518D01*
X124570442Y-92958518D01*
G37*
G36*
X122030442Y-92958518D02*
X122096627Y-92965037D01*
X122209853Y-92999384D01*
X122266467Y-93016557D01*
X122390771Y-93083000D01*
X122422991Y-93100222D01*
X122458729Y-93129552D01*
X122560186Y-93212814D01*
X122643448Y-93314271D01*
X122672778Y-93350009D01*
X122672779Y-93350011D01*
X122756443Y-93506533D01*
X122759066Y-93515180D01*
X122807963Y-93676373D01*
X122825359Y-93853000D01*
X122807963Y-94029627D01*
X122780386Y-94120537D01*
X122756443Y-94199467D01*
X122733053Y-94243226D01*
X122672778Y-94355991D01*
X122643448Y-94391729D01*
X122560186Y-94493186D01*
X122458729Y-94576448D01*
X122422991Y-94605778D01*
X122422989Y-94605779D01*
X122266467Y-94689443D01*
X122209853Y-94706616D01*
X122096627Y-94740963D01*
X122039707Y-94746569D01*
X121964260Y-94754000D01*
X121875740Y-94754000D01*
X121800293Y-94746569D01*
X121743373Y-94740963D01*
X121630147Y-94706616D01*
X121573533Y-94689443D01*
X121417011Y-94605779D01*
X121417009Y-94605778D01*
X121381271Y-94576448D01*
X121279814Y-94493186D01*
X121196552Y-94391729D01*
X121167222Y-94355991D01*
X121106947Y-94243226D01*
X121083557Y-94199467D01*
X121059614Y-94120537D01*
X121032037Y-94029627D01*
X121014641Y-93853000D01*
X121032037Y-93676373D01*
X121080934Y-93515180D01*
X121083557Y-93506533D01*
X121167221Y-93350011D01*
X121167222Y-93350009D01*
X121196552Y-93314271D01*
X121279814Y-93212814D01*
X121381271Y-93129552D01*
X121417009Y-93100222D01*
X121449229Y-93083000D01*
X121573533Y-93016557D01*
X121630147Y-92999384D01*
X121743373Y-92965037D01*
X121809558Y-92958518D01*
X121875740Y-92952000D01*
X121964260Y-92952000D01*
X122030442Y-92958518D01*
X122030442Y-92958518D01*
G37*
G36*
X138983000Y-94424000D02*
X138131000Y-94424000D01*
X138131000Y-92222000D01*
X138983000Y-92222000D01*
X138983000Y-94424000D01*
X138983000Y-94424000D01*
G37*
G36*
X137713000Y-94424000D02*
X136861000Y-94424000D01*
X136861000Y-92222000D01*
X137713000Y-92222000D01*
X137713000Y-94424000D01*
X137713000Y-94424000D01*
G37*
G36*
X142793000Y-94424000D02*
X141941000Y-94424000D01*
X141941000Y-92222000D01*
X142793000Y-92222000D01*
X142793000Y-94424000D01*
X142793000Y-94424000D01*
G37*
G36*
X140253000Y-94424000D02*
X139401000Y-94424000D01*
X139401000Y-92222000D01*
X140253000Y-92222000D01*
X140253000Y-94424000D01*
X140253000Y-94424000D01*
G37*
G36*
X141523000Y-94424000D02*
X140671000Y-94424000D01*
X140671000Y-92222000D01*
X141523000Y-92222000D01*
X141523000Y-94424000D01*
X141523000Y-94424000D01*
G37*
G36*
X116667734Y-92111232D02*
X116877202Y-92197996D01*
X117065723Y-92323962D01*
X117226038Y-92484277D01*
X117352004Y-92672798D01*
X117438768Y-92882266D01*
X117483000Y-93104635D01*
X117483000Y-93331365D01*
X117438768Y-93553734D01*
X117352004Y-93763202D01*
X117226038Y-93951723D01*
X117065723Y-94112038D01*
X116877202Y-94238004D01*
X116667734Y-94324768D01*
X116445365Y-94369000D01*
X116218635Y-94369000D01*
X115996266Y-94324768D01*
X115786798Y-94238004D01*
X115598277Y-94112038D01*
X115437962Y-93951723D01*
X115311996Y-93763202D01*
X115225232Y-93553734D01*
X115181000Y-93331365D01*
X115181000Y-93104635D01*
X115225232Y-92882266D01*
X115311996Y-92672798D01*
X115437962Y-92484277D01*
X115598277Y-92323962D01*
X115786798Y-92197996D01*
X115996266Y-92111232D01*
X116218635Y-92067000D01*
X116445365Y-92067000D01*
X116667734Y-92111232D01*
X116667734Y-92111232D01*
G37*
G36*
X160542066Y-92750965D02*
X160580737Y-92762696D01*
X160616379Y-92781748D01*
X160647617Y-92807383D01*
X160673252Y-92838621D01*
X160692304Y-92874263D01*
X160704035Y-92912934D01*
X160708600Y-92959288D01*
X160708600Y-94035512D01*
X160704035Y-94081866D01*
X160692304Y-94120537D01*
X160673252Y-94156179D01*
X160647617Y-94187417D01*
X160616379Y-94213052D01*
X160580737Y-94232104D01*
X160542066Y-94243835D01*
X160495712Y-94248400D01*
X159844488Y-94248400D01*
X159798134Y-94243835D01*
X159759463Y-94232104D01*
X159723821Y-94213052D01*
X159692583Y-94187417D01*
X159666948Y-94156179D01*
X159647896Y-94120537D01*
X159636165Y-94081866D01*
X159631600Y-94035512D01*
X159631600Y-92959288D01*
X159636165Y-92912934D01*
X159647896Y-92874263D01*
X159666948Y-92838621D01*
X159692583Y-92807383D01*
X159723821Y-92781748D01*
X159759463Y-92762696D01*
X159798134Y-92750965D01*
X159844488Y-92746400D01*
X160495712Y-92746400D01*
X160542066Y-92750965D01*
X160542066Y-92750965D01*
G37*
G36*
X158667066Y-92750965D02*
X158705737Y-92762696D01*
X158741379Y-92781748D01*
X158772617Y-92807383D01*
X158798252Y-92838621D01*
X158817304Y-92874263D01*
X158829035Y-92912934D01*
X158833600Y-92959288D01*
X158833600Y-94035512D01*
X158829035Y-94081866D01*
X158817304Y-94120537D01*
X158798252Y-94156179D01*
X158772617Y-94187417D01*
X158741379Y-94213052D01*
X158705737Y-94232104D01*
X158667066Y-94243835D01*
X158620712Y-94248400D01*
X157969488Y-94248400D01*
X157923134Y-94243835D01*
X157884463Y-94232104D01*
X157848821Y-94213052D01*
X157817583Y-94187417D01*
X157791948Y-94156179D01*
X157772896Y-94120537D01*
X157761165Y-94081866D01*
X157756600Y-94035512D01*
X157756600Y-92959288D01*
X157761165Y-92912934D01*
X157772896Y-92874263D01*
X157791948Y-92838621D01*
X157817583Y-92807383D01*
X157848821Y-92781748D01*
X157884463Y-92762696D01*
X157923134Y-92750965D01*
X157969488Y-92746400D01*
X158620712Y-92746400D01*
X158667066Y-92750965D01*
X158667066Y-92750965D01*
G37*
G36*
X129567938Y-93532716D02*
X129588556Y-93538970D01*
X129607556Y-93549126D01*
X129624208Y-93562792D01*
X129637874Y-93579444D01*
X129648030Y-93598444D01*
X129654284Y-93619062D01*
X129657000Y-93646640D01*
X129657000Y-94105360D01*
X129654284Y-94132938D01*
X129648030Y-94153556D01*
X129637874Y-94172556D01*
X129624208Y-94189208D01*
X129607556Y-94202874D01*
X129588556Y-94213030D01*
X129567938Y-94219284D01*
X129540360Y-94222000D01*
X129031640Y-94222000D01*
X129004062Y-94219284D01*
X128983444Y-94213030D01*
X128964444Y-94202874D01*
X128947792Y-94189208D01*
X128934126Y-94172556D01*
X128923970Y-94153556D01*
X128917716Y-94132938D01*
X128915000Y-94105360D01*
X128915000Y-93646640D01*
X128917716Y-93619062D01*
X128923970Y-93598444D01*
X128934126Y-93579444D01*
X128947792Y-93562792D01*
X128964444Y-93549126D01*
X128983444Y-93538970D01*
X129004062Y-93532716D01*
X129031640Y-93530000D01*
X129540360Y-93530000D01*
X129567938Y-93532716D01*
X129567938Y-93532716D01*
G37*
M02*
