G04 #@! TF.GenerationSoftware,KiCad,Pcbnew,(6.0.0-rc1-dev-1030-g80d50d98b)*
G04 #@! TF.CreationDate,2019-02-11T22:54:28-07:00*
G04 #@! TF.ProjectId,airmed_board_w2.0,6169726D65645F626F6172645F77322E,rev?*
G04 #@! TF.SameCoordinates,Original*
G04 #@! TF.FileFunction,Soldermask,Bot*
G04 #@! TF.FilePolarity,Negative*
%FSLAX46Y46*%
G04 Gerber Fmt 4.6, Leading zero omitted, Abs format (unit mm)*
G04 Created by KiCad (PCBNEW (6.0.0-rc1-dev-1030-g80d50d98b)) date Monday, February 11, 2019 at 10:54:28 PM*
%MOMM*%
%LPD*%
G01*
G04 APERTURE LIST*
%ADD10C,0.050000*%
%ADD11C,0.100000*%
G04 APERTURE END LIST*
D10*
X113487200Y-135255000D02*
X113487200Y-90474800D01*
X187934600Y-135382000D02*
X113487200Y-135255000D01*
X187934600Y-90500200D02*
X187934600Y-135382000D01*
X113487200Y-90474800D02*
X187934600Y-90500200D01*
D11*
G36*
X173995534Y-131836832D02*
X174205002Y-131923596D01*
X174393523Y-132049562D01*
X174553838Y-132209877D01*
X174679804Y-132398398D01*
X174766568Y-132607866D01*
X174810800Y-132830235D01*
X174810800Y-133056965D01*
X174766568Y-133279334D01*
X174679804Y-133488802D01*
X174553838Y-133677323D01*
X174393523Y-133837638D01*
X174205002Y-133963604D01*
X173995534Y-134050368D01*
X173773165Y-134094600D01*
X173546435Y-134094600D01*
X173324066Y-134050368D01*
X173114598Y-133963604D01*
X172926077Y-133837638D01*
X172765762Y-133677323D01*
X172639796Y-133488802D01*
X172553032Y-133279334D01*
X172508800Y-133056965D01*
X172508800Y-132830235D01*
X172553032Y-132607866D01*
X172639796Y-132398398D01*
X172765762Y-132209877D01*
X172926077Y-132049562D01*
X173114598Y-131923596D01*
X173324066Y-131836832D01*
X173546435Y-131792600D01*
X173773165Y-131792600D01*
X173995534Y-131836832D01*
X173995534Y-131836832D01*
G37*
G36*
X134451042Y-132201518D02*
X134517227Y-132208037D01*
X134630453Y-132242384D01*
X134687067Y-132259557D01*
X134768465Y-132303066D01*
X134843591Y-132343222D01*
X134879329Y-132372552D01*
X134980786Y-132455814D01*
X135037922Y-132525436D01*
X135093378Y-132593009D01*
X135093379Y-132593011D01*
X135177043Y-132749533D01*
X135177043Y-132749534D01*
X135228563Y-132919373D01*
X135245959Y-133096000D01*
X135228563Y-133272627D01*
X135215594Y-133315379D01*
X135177043Y-133442467D01*
X135128738Y-133532838D01*
X135093378Y-133598991D01*
X135064048Y-133634729D01*
X134980786Y-133736186D01*
X134879329Y-133819448D01*
X134843591Y-133848778D01*
X134843589Y-133848779D01*
X134687067Y-133932443D01*
X134630453Y-133949616D01*
X134517227Y-133983963D01*
X134451043Y-133990481D01*
X134384860Y-133997000D01*
X134296340Y-133997000D01*
X134230157Y-133990481D01*
X134163973Y-133983963D01*
X134050747Y-133949616D01*
X133994133Y-133932443D01*
X133837611Y-133848779D01*
X133837609Y-133848778D01*
X133801871Y-133819448D01*
X133700414Y-133736186D01*
X133617152Y-133634729D01*
X133587822Y-133598991D01*
X133552462Y-133532838D01*
X133504157Y-133442467D01*
X133465606Y-133315379D01*
X133452637Y-133272627D01*
X133435241Y-133096000D01*
X133452637Y-132919373D01*
X133504157Y-132749534D01*
X133504157Y-132749533D01*
X133587821Y-132593011D01*
X133587822Y-132593009D01*
X133643278Y-132525436D01*
X133700414Y-132455814D01*
X133801871Y-132372552D01*
X133837609Y-132343222D01*
X133912735Y-132303066D01*
X133994133Y-132259557D01*
X134050747Y-132242384D01*
X134163973Y-132208037D01*
X134230158Y-132201518D01*
X134296340Y-132195000D01*
X134384860Y-132195000D01*
X134451042Y-132201518D01*
X134451042Y-132201518D01*
G37*
G36*
X131584000Y-133997000D02*
X129782000Y-133997000D01*
X129782000Y-132195000D01*
X131584000Y-132195000D01*
X131584000Y-133997000D01*
X131584000Y-133997000D01*
G37*
G36*
X128253442Y-132201518D02*
X128319627Y-132208037D01*
X128432853Y-132242384D01*
X128489467Y-132259557D01*
X128570865Y-132303066D01*
X128645991Y-132343222D01*
X128681729Y-132372552D01*
X128783186Y-132455814D01*
X128840322Y-132525436D01*
X128895778Y-132593009D01*
X128895779Y-132593011D01*
X128979443Y-132749533D01*
X128979443Y-132749534D01*
X129030963Y-132919373D01*
X129048359Y-133096000D01*
X129030963Y-133272627D01*
X129017994Y-133315379D01*
X128979443Y-133442467D01*
X128931138Y-133532838D01*
X128895778Y-133598991D01*
X128866448Y-133634729D01*
X128783186Y-133736186D01*
X128681729Y-133819448D01*
X128645991Y-133848778D01*
X128645989Y-133848779D01*
X128489467Y-133932443D01*
X128432853Y-133949616D01*
X128319627Y-133983963D01*
X128253443Y-133990481D01*
X128187260Y-133997000D01*
X128098740Y-133997000D01*
X128032557Y-133990481D01*
X127966373Y-133983963D01*
X127853147Y-133949616D01*
X127796533Y-133932443D01*
X127640011Y-133848779D01*
X127640009Y-133848778D01*
X127604271Y-133819448D01*
X127502814Y-133736186D01*
X127419552Y-133634729D01*
X127390222Y-133598991D01*
X127354862Y-133532838D01*
X127306557Y-133442467D01*
X127268006Y-133315379D01*
X127255037Y-133272627D01*
X127237641Y-133096000D01*
X127255037Y-132919373D01*
X127306557Y-132749534D01*
X127306557Y-132749533D01*
X127390221Y-132593011D01*
X127390222Y-132593009D01*
X127445678Y-132525436D01*
X127502814Y-132455814D01*
X127604271Y-132372552D01*
X127640009Y-132343222D01*
X127715135Y-132303066D01*
X127796533Y-132259557D01*
X127853147Y-132242384D01*
X127966373Y-132208037D01*
X128032558Y-132201518D01*
X128098740Y-132195000D01*
X128187260Y-132195000D01*
X128253442Y-132201518D01*
X128253442Y-132201518D01*
G37*
G36*
X125713442Y-132201518D02*
X125779627Y-132208037D01*
X125892853Y-132242384D01*
X125949467Y-132259557D01*
X126030865Y-132303066D01*
X126105991Y-132343222D01*
X126141729Y-132372552D01*
X126243186Y-132455814D01*
X126300322Y-132525436D01*
X126355778Y-132593009D01*
X126355779Y-132593011D01*
X126439443Y-132749533D01*
X126439443Y-132749534D01*
X126490963Y-132919373D01*
X126508359Y-133096000D01*
X126490963Y-133272627D01*
X126477994Y-133315379D01*
X126439443Y-133442467D01*
X126391138Y-133532838D01*
X126355778Y-133598991D01*
X126326448Y-133634729D01*
X126243186Y-133736186D01*
X126141729Y-133819448D01*
X126105991Y-133848778D01*
X126105989Y-133848779D01*
X125949467Y-133932443D01*
X125892853Y-133949616D01*
X125779627Y-133983963D01*
X125713443Y-133990481D01*
X125647260Y-133997000D01*
X125558740Y-133997000D01*
X125492557Y-133990481D01*
X125426373Y-133983963D01*
X125313147Y-133949616D01*
X125256533Y-133932443D01*
X125100011Y-133848779D01*
X125100009Y-133848778D01*
X125064271Y-133819448D01*
X124962814Y-133736186D01*
X124879552Y-133634729D01*
X124850222Y-133598991D01*
X124814862Y-133532838D01*
X124766557Y-133442467D01*
X124728006Y-133315379D01*
X124715037Y-133272627D01*
X124697641Y-133096000D01*
X124715037Y-132919373D01*
X124766557Y-132749534D01*
X124766557Y-132749533D01*
X124850221Y-132593011D01*
X124850222Y-132593009D01*
X124905678Y-132525436D01*
X124962814Y-132455814D01*
X125064271Y-132372552D01*
X125100009Y-132343222D01*
X125175135Y-132303066D01*
X125256533Y-132259557D01*
X125313147Y-132242384D01*
X125426373Y-132208037D01*
X125492558Y-132201518D01*
X125558740Y-132195000D01*
X125647260Y-132195000D01*
X125713442Y-132201518D01*
X125713442Y-132201518D01*
G37*
G36*
X137781600Y-133997000D02*
X135979600Y-133997000D01*
X135979600Y-132195000D01*
X137781600Y-132195000D01*
X137781600Y-133997000D01*
X137781600Y-133997000D01*
G37*
G36*
X116616934Y-131532032D02*
X116826402Y-131618796D01*
X117014923Y-131744762D01*
X117175238Y-131905077D01*
X117301204Y-132093598D01*
X117387968Y-132303066D01*
X117432200Y-132525435D01*
X117432200Y-132752165D01*
X117387968Y-132974534D01*
X117301204Y-133184002D01*
X117175238Y-133372523D01*
X117014923Y-133532838D01*
X116826402Y-133658804D01*
X116616934Y-133745568D01*
X116394565Y-133789800D01*
X116167835Y-133789800D01*
X115945466Y-133745568D01*
X115735998Y-133658804D01*
X115547477Y-133532838D01*
X115387162Y-133372523D01*
X115261196Y-133184002D01*
X115174432Y-132974534D01*
X115130200Y-132752165D01*
X115130200Y-132525435D01*
X115174432Y-132303066D01*
X115261196Y-132093598D01*
X115387162Y-131905077D01*
X115547477Y-131744762D01*
X115735998Y-131618796D01*
X115945466Y-131532032D01*
X116167835Y-131487800D01*
X116394565Y-131487800D01*
X116616934Y-131532032D01*
X116616934Y-131532032D01*
G37*
G36*
X148954443Y-131668119D02*
X149020627Y-131674637D01*
X149133853Y-131708984D01*
X149190467Y-131726157D01*
X149314771Y-131792600D01*
X149346991Y-131809822D01*
X149382729Y-131839152D01*
X149484186Y-131922414D01*
X149567448Y-132023871D01*
X149596778Y-132059609D01*
X149596779Y-132059611D01*
X149680443Y-132216133D01*
X149680443Y-132216134D01*
X149731963Y-132385973D01*
X149749359Y-132562600D01*
X149731963Y-132739227D01*
X149728038Y-132752165D01*
X149680443Y-132909067D01*
X149606348Y-133047687D01*
X149596778Y-133065591D01*
X149571822Y-133096000D01*
X149484186Y-133202786D01*
X149382729Y-133286048D01*
X149346991Y-133315378D01*
X149346989Y-133315379D01*
X149190467Y-133399043D01*
X149133853Y-133416216D01*
X149020627Y-133450563D01*
X148954443Y-133457081D01*
X148888260Y-133463600D01*
X148799740Y-133463600D01*
X148733557Y-133457081D01*
X148667373Y-133450563D01*
X148554147Y-133416216D01*
X148497533Y-133399043D01*
X148341011Y-133315379D01*
X148341009Y-133315378D01*
X148305271Y-133286048D01*
X148203814Y-133202786D01*
X148116178Y-133096000D01*
X148091222Y-133065591D01*
X148081652Y-133047687D01*
X148007557Y-132909067D01*
X147959962Y-132752165D01*
X147956037Y-132739227D01*
X147938641Y-132562600D01*
X147956037Y-132385973D01*
X148007557Y-132216134D01*
X148007557Y-132216133D01*
X148091221Y-132059611D01*
X148091222Y-132059609D01*
X148120552Y-132023871D01*
X148203814Y-131922414D01*
X148305271Y-131839152D01*
X148341009Y-131809822D01*
X148373229Y-131792600D01*
X148497533Y-131726157D01*
X148554147Y-131708984D01*
X148667373Y-131674637D01*
X148733557Y-131668119D01*
X148799740Y-131661600D01*
X148888260Y-131661600D01*
X148954443Y-131668119D01*
X148954443Y-131668119D01*
G37*
G36*
X141693200Y-132676200D02*
X139891200Y-132676200D01*
X139891200Y-130874200D01*
X141693200Y-130874200D01*
X141693200Y-132676200D01*
X141693200Y-132676200D01*
G37*
G36*
X148954443Y-129128119D02*
X149020627Y-129134637D01*
X149133853Y-129168984D01*
X149190467Y-129186157D01*
X149329087Y-129260252D01*
X149346991Y-129269822D01*
X149382729Y-129299152D01*
X149484186Y-129382414D01*
X149557932Y-129472275D01*
X149596778Y-129519609D01*
X149596779Y-129519611D01*
X149680443Y-129676133D01*
X149680443Y-129676134D01*
X149731963Y-129845973D01*
X149749359Y-130022600D01*
X149731963Y-130199227D01*
X149697616Y-130312453D01*
X149680443Y-130369067D01*
X149606348Y-130507687D01*
X149596778Y-130525591D01*
X149567448Y-130561329D01*
X149484186Y-130662786D01*
X149382729Y-130746048D01*
X149346991Y-130775378D01*
X149346989Y-130775379D01*
X149190467Y-130859043D01*
X149140500Y-130874200D01*
X149020627Y-130910563D01*
X148954443Y-130917081D01*
X148888260Y-130923600D01*
X148799740Y-130923600D01*
X148733557Y-130917081D01*
X148667373Y-130910563D01*
X148547500Y-130874200D01*
X148497533Y-130859043D01*
X148341011Y-130775379D01*
X148341009Y-130775378D01*
X148305271Y-130746048D01*
X148203814Y-130662786D01*
X148120552Y-130561329D01*
X148091222Y-130525591D01*
X148081652Y-130507687D01*
X148007557Y-130369067D01*
X147990384Y-130312453D01*
X147956037Y-130199227D01*
X147938641Y-130022600D01*
X147956037Y-129845973D01*
X148007557Y-129676134D01*
X148007557Y-129676133D01*
X148091221Y-129519611D01*
X148091222Y-129519609D01*
X148130068Y-129472275D01*
X148203814Y-129382414D01*
X148305271Y-129299152D01*
X148341009Y-129269822D01*
X148358913Y-129260252D01*
X148497533Y-129186157D01*
X148554147Y-129168984D01*
X148667373Y-129134637D01*
X148733557Y-129128119D01*
X148799740Y-129121600D01*
X148888260Y-129121600D01*
X148954443Y-129128119D01*
X148954443Y-129128119D01*
G37*
G36*
X140902642Y-128340718D02*
X140968827Y-128347237D01*
X141082053Y-128381584D01*
X141138667Y-128398757D01*
X141277287Y-128472852D01*
X141295191Y-128482422D01*
X141330929Y-128511752D01*
X141432386Y-128595014D01*
X141515648Y-128696471D01*
X141544978Y-128732209D01*
X141544979Y-128732211D01*
X141628643Y-128888733D01*
X141628643Y-128888734D01*
X141680163Y-129058573D01*
X141697559Y-129235200D01*
X141680163Y-129411827D01*
X141647468Y-129519609D01*
X141628643Y-129581667D01*
X141554548Y-129720287D01*
X141544978Y-129738191D01*
X141515648Y-129773929D01*
X141432386Y-129875386D01*
X141330929Y-129958648D01*
X141295191Y-129987978D01*
X141295189Y-129987979D01*
X141138667Y-130071643D01*
X141082053Y-130088816D01*
X140968827Y-130123163D01*
X140902642Y-130129682D01*
X140836460Y-130136200D01*
X140747940Y-130136200D01*
X140681758Y-130129682D01*
X140615573Y-130123163D01*
X140502347Y-130088816D01*
X140445733Y-130071643D01*
X140289211Y-129987979D01*
X140289209Y-129987978D01*
X140253471Y-129958648D01*
X140152014Y-129875386D01*
X140068752Y-129773929D01*
X140039422Y-129738191D01*
X140029852Y-129720287D01*
X139955757Y-129581667D01*
X139936932Y-129519609D01*
X139904237Y-129411827D01*
X139886841Y-129235200D01*
X139904237Y-129058573D01*
X139955757Y-128888734D01*
X139955757Y-128888733D01*
X140039421Y-128732211D01*
X140039422Y-128732209D01*
X140068752Y-128696471D01*
X140152014Y-128595014D01*
X140253471Y-128511752D01*
X140289209Y-128482422D01*
X140307113Y-128472852D01*
X140445733Y-128398757D01*
X140502347Y-128381584D01*
X140615573Y-128347237D01*
X140681758Y-128340718D01*
X140747940Y-128334200D01*
X140836460Y-128334200D01*
X140902642Y-128340718D01*
X140902642Y-128340718D01*
G37*
G36*
X171483487Y-127689831D02*
X171549671Y-127696349D01*
X171658164Y-127729260D01*
X171719511Y-127747869D01*
X171858131Y-127821964D01*
X171876035Y-127831534D01*
X171911773Y-127860864D01*
X172013230Y-127944126D01*
X172086953Y-128033959D01*
X172125822Y-128081321D01*
X172125823Y-128081323D01*
X172209487Y-128237845D01*
X172209487Y-128237846D01*
X172261007Y-128407685D01*
X172278403Y-128584312D01*
X172261007Y-128760939D01*
X172226660Y-128874165D01*
X172209487Y-128930779D01*
X172141179Y-129058573D01*
X172125822Y-129087303D01*
X172097675Y-129121600D01*
X172013230Y-129224498D01*
X171911773Y-129307760D01*
X171876035Y-129337090D01*
X171876033Y-129337091D01*
X171719511Y-129420755D01*
X171662897Y-129437928D01*
X171549671Y-129472275D01*
X171483487Y-129478793D01*
X171417304Y-129485312D01*
X171328784Y-129485312D01*
X171262601Y-129478793D01*
X171196417Y-129472275D01*
X171083191Y-129437928D01*
X171026577Y-129420755D01*
X170870055Y-129337091D01*
X170870053Y-129337090D01*
X170834315Y-129307760D01*
X170732858Y-129224498D01*
X170648413Y-129121600D01*
X170620266Y-129087303D01*
X170604909Y-129058573D01*
X170536601Y-128930779D01*
X170519428Y-128874165D01*
X170485081Y-128760939D01*
X170467685Y-128584312D01*
X170485081Y-128407685D01*
X170536601Y-128237846D01*
X170536601Y-128237845D01*
X170620265Y-128081323D01*
X170620266Y-128081321D01*
X170659135Y-128033959D01*
X170732858Y-127944126D01*
X170834315Y-127860864D01*
X170870053Y-127831534D01*
X170887957Y-127821964D01*
X171026577Y-127747869D01*
X171087924Y-127729260D01*
X171196417Y-127696349D01*
X171262601Y-127689831D01*
X171328784Y-127683312D01*
X171417304Y-127683312D01*
X171483487Y-127689831D01*
X171483487Y-127689831D01*
G37*
G36*
X174814044Y-129485312D02*
X173012044Y-129485312D01*
X173012044Y-127683312D01*
X174814044Y-127683312D01*
X174814044Y-129485312D01*
X174814044Y-129485312D01*
G37*
G36*
X166403487Y-127689831D02*
X166469671Y-127696349D01*
X166578164Y-127729260D01*
X166639511Y-127747869D01*
X166778131Y-127821964D01*
X166796035Y-127831534D01*
X166831773Y-127860864D01*
X166933230Y-127944126D01*
X167006953Y-128033959D01*
X167045822Y-128081321D01*
X167045823Y-128081323D01*
X167129487Y-128237845D01*
X167129487Y-128237846D01*
X167181007Y-128407685D01*
X167198403Y-128584312D01*
X167181007Y-128760939D01*
X167146660Y-128874165D01*
X167129487Y-128930779D01*
X167061179Y-129058573D01*
X167045822Y-129087303D01*
X167017675Y-129121600D01*
X166933230Y-129224498D01*
X166831773Y-129307760D01*
X166796035Y-129337090D01*
X166796033Y-129337091D01*
X166639511Y-129420755D01*
X166582897Y-129437928D01*
X166469671Y-129472275D01*
X166403487Y-129478793D01*
X166337304Y-129485312D01*
X166248784Y-129485312D01*
X166182601Y-129478793D01*
X166116417Y-129472275D01*
X166003191Y-129437928D01*
X165946577Y-129420755D01*
X165790055Y-129337091D01*
X165790053Y-129337090D01*
X165754315Y-129307760D01*
X165652858Y-129224498D01*
X165568413Y-129121600D01*
X165540266Y-129087303D01*
X165524909Y-129058573D01*
X165456601Y-128930779D01*
X165439428Y-128874165D01*
X165405081Y-128760939D01*
X165387685Y-128584312D01*
X165405081Y-128407685D01*
X165456601Y-128237846D01*
X165456601Y-128237845D01*
X165540265Y-128081323D01*
X165540266Y-128081321D01*
X165579135Y-128033959D01*
X165652858Y-127944126D01*
X165754315Y-127860864D01*
X165790053Y-127831534D01*
X165807957Y-127821964D01*
X165946577Y-127747869D01*
X166007924Y-127729260D01*
X166116417Y-127696349D01*
X166182601Y-127689831D01*
X166248784Y-127683312D01*
X166337304Y-127683312D01*
X166403487Y-127689831D01*
X166403487Y-127689831D01*
G37*
G36*
X153601887Y-127689831D02*
X153668071Y-127696349D01*
X153776564Y-127729260D01*
X153837911Y-127747869D01*
X153976531Y-127821964D01*
X153994435Y-127831534D01*
X154030173Y-127860864D01*
X154131630Y-127944126D01*
X154205353Y-128033959D01*
X154244222Y-128081321D01*
X154244223Y-128081323D01*
X154327887Y-128237845D01*
X154327887Y-128237846D01*
X154379407Y-128407685D01*
X154396803Y-128584312D01*
X154379407Y-128760939D01*
X154345060Y-128874165D01*
X154327887Y-128930779D01*
X154259579Y-129058573D01*
X154244222Y-129087303D01*
X154216075Y-129121600D01*
X154131630Y-129224498D01*
X154030173Y-129307760D01*
X153994435Y-129337090D01*
X153994433Y-129337091D01*
X153837911Y-129420755D01*
X153781297Y-129437928D01*
X153668071Y-129472275D01*
X153601887Y-129478793D01*
X153535704Y-129485312D01*
X153447184Y-129485312D01*
X153381001Y-129478793D01*
X153314817Y-129472275D01*
X153201591Y-129437928D01*
X153144977Y-129420755D01*
X152988455Y-129337091D01*
X152988453Y-129337090D01*
X152952715Y-129307760D01*
X152851258Y-129224498D01*
X152766813Y-129121600D01*
X152738666Y-129087303D01*
X152723309Y-129058573D01*
X152655001Y-128930779D01*
X152637828Y-128874165D01*
X152603481Y-128760939D01*
X152586085Y-128584312D01*
X152603481Y-128407685D01*
X152655001Y-128237846D01*
X152655001Y-128237845D01*
X152738665Y-128081323D01*
X152738666Y-128081321D01*
X152777535Y-128033959D01*
X152851258Y-127944126D01*
X152952715Y-127860864D01*
X152988453Y-127831534D01*
X153006357Y-127821964D01*
X153144977Y-127747869D01*
X153206324Y-127729260D01*
X153314817Y-127696349D01*
X153381001Y-127689831D01*
X153447184Y-127683312D01*
X153535704Y-127683312D01*
X153601887Y-127689831D01*
X153601887Y-127689831D01*
G37*
G36*
X156141887Y-127689831D02*
X156208071Y-127696349D01*
X156316564Y-127729260D01*
X156377911Y-127747869D01*
X156516531Y-127821964D01*
X156534435Y-127831534D01*
X156570173Y-127860864D01*
X156671630Y-127944126D01*
X156745353Y-128033959D01*
X156784222Y-128081321D01*
X156784223Y-128081323D01*
X156867887Y-128237845D01*
X156867887Y-128237846D01*
X156919407Y-128407685D01*
X156936803Y-128584312D01*
X156919407Y-128760939D01*
X156885060Y-128874165D01*
X156867887Y-128930779D01*
X156799579Y-129058573D01*
X156784222Y-129087303D01*
X156756075Y-129121600D01*
X156671630Y-129224498D01*
X156570173Y-129307760D01*
X156534435Y-129337090D01*
X156534433Y-129337091D01*
X156377911Y-129420755D01*
X156321297Y-129437928D01*
X156208071Y-129472275D01*
X156141887Y-129478793D01*
X156075704Y-129485312D01*
X155987184Y-129485312D01*
X155921001Y-129478793D01*
X155854817Y-129472275D01*
X155741591Y-129437928D01*
X155684977Y-129420755D01*
X155528455Y-129337091D01*
X155528453Y-129337090D01*
X155492715Y-129307760D01*
X155391258Y-129224498D01*
X155306813Y-129121600D01*
X155278666Y-129087303D01*
X155263309Y-129058573D01*
X155195001Y-128930779D01*
X155177828Y-128874165D01*
X155143481Y-128760939D01*
X155126085Y-128584312D01*
X155143481Y-128407685D01*
X155195001Y-128237846D01*
X155195001Y-128237845D01*
X155278665Y-128081323D01*
X155278666Y-128081321D01*
X155317535Y-128033959D01*
X155391258Y-127944126D01*
X155492715Y-127860864D01*
X155528453Y-127831534D01*
X155546357Y-127821964D01*
X155684977Y-127747869D01*
X155746324Y-127729260D01*
X155854817Y-127696349D01*
X155921001Y-127689831D01*
X155987184Y-127683312D01*
X156075704Y-127683312D01*
X156141887Y-127689831D01*
X156141887Y-127689831D01*
G37*
G36*
X168943487Y-127689831D02*
X169009671Y-127696349D01*
X169118164Y-127729260D01*
X169179511Y-127747869D01*
X169318131Y-127821964D01*
X169336035Y-127831534D01*
X169371773Y-127860864D01*
X169473230Y-127944126D01*
X169546953Y-128033959D01*
X169585822Y-128081321D01*
X169585823Y-128081323D01*
X169669487Y-128237845D01*
X169669487Y-128237846D01*
X169721007Y-128407685D01*
X169738403Y-128584312D01*
X169721007Y-128760939D01*
X169686660Y-128874165D01*
X169669487Y-128930779D01*
X169601179Y-129058573D01*
X169585822Y-129087303D01*
X169557675Y-129121600D01*
X169473230Y-129224498D01*
X169371773Y-129307760D01*
X169336035Y-129337090D01*
X169336033Y-129337091D01*
X169179511Y-129420755D01*
X169122897Y-129437928D01*
X169009671Y-129472275D01*
X168943487Y-129478793D01*
X168877304Y-129485312D01*
X168788784Y-129485312D01*
X168722601Y-129478793D01*
X168656417Y-129472275D01*
X168543191Y-129437928D01*
X168486577Y-129420755D01*
X168330055Y-129337091D01*
X168330053Y-129337090D01*
X168294315Y-129307760D01*
X168192858Y-129224498D01*
X168108413Y-129121600D01*
X168080266Y-129087303D01*
X168064909Y-129058573D01*
X167996601Y-128930779D01*
X167979428Y-128874165D01*
X167945081Y-128760939D01*
X167927685Y-128584312D01*
X167945081Y-128407685D01*
X167996601Y-128237846D01*
X167996601Y-128237845D01*
X168080265Y-128081323D01*
X168080266Y-128081321D01*
X168119135Y-128033959D01*
X168192858Y-127944126D01*
X168294315Y-127860864D01*
X168330053Y-127831534D01*
X168347957Y-127821964D01*
X168486577Y-127747869D01*
X168547924Y-127729260D01*
X168656417Y-127696349D01*
X168722601Y-127689831D01*
X168788784Y-127683312D01*
X168877304Y-127683312D01*
X168943487Y-127689831D01*
X168943487Y-127689831D01*
G37*
G36*
X158681887Y-127689831D02*
X158748071Y-127696349D01*
X158856564Y-127729260D01*
X158917911Y-127747869D01*
X159056531Y-127821964D01*
X159074435Y-127831534D01*
X159110173Y-127860864D01*
X159211630Y-127944126D01*
X159285353Y-128033959D01*
X159324222Y-128081321D01*
X159324223Y-128081323D01*
X159407887Y-128237845D01*
X159407887Y-128237846D01*
X159459407Y-128407685D01*
X159476803Y-128584312D01*
X159459407Y-128760939D01*
X159425060Y-128874165D01*
X159407887Y-128930779D01*
X159339579Y-129058573D01*
X159324222Y-129087303D01*
X159296075Y-129121600D01*
X159211630Y-129224498D01*
X159110173Y-129307760D01*
X159074435Y-129337090D01*
X159074433Y-129337091D01*
X158917911Y-129420755D01*
X158861297Y-129437928D01*
X158748071Y-129472275D01*
X158681887Y-129478793D01*
X158615704Y-129485312D01*
X158527184Y-129485312D01*
X158461001Y-129478793D01*
X158394817Y-129472275D01*
X158281591Y-129437928D01*
X158224977Y-129420755D01*
X158068455Y-129337091D01*
X158068453Y-129337090D01*
X158032715Y-129307760D01*
X157931258Y-129224498D01*
X157846813Y-129121600D01*
X157818666Y-129087303D01*
X157803309Y-129058573D01*
X157735001Y-128930779D01*
X157717828Y-128874165D01*
X157683481Y-128760939D01*
X157666085Y-128584312D01*
X157683481Y-128407685D01*
X157735001Y-128237846D01*
X157735001Y-128237845D01*
X157818665Y-128081323D01*
X157818666Y-128081321D01*
X157857535Y-128033959D01*
X157931258Y-127944126D01*
X158032715Y-127860864D01*
X158068453Y-127831534D01*
X158086357Y-127821964D01*
X158224977Y-127747869D01*
X158286324Y-127729260D01*
X158394817Y-127696349D01*
X158461001Y-127689831D01*
X158527184Y-127683312D01*
X158615704Y-127683312D01*
X158681887Y-127689831D01*
X158681887Y-127689831D01*
G37*
G36*
X162012444Y-129485312D02*
X160210444Y-129485312D01*
X160210444Y-127683312D01*
X162012444Y-127683312D01*
X162012444Y-129485312D01*
X162012444Y-129485312D01*
G37*
G36*
X125735477Y-128815337D02*
X123933477Y-128815337D01*
X123933477Y-127013337D01*
X125735477Y-127013337D01*
X125735477Y-128815337D01*
X125735477Y-128815337D01*
G37*
G36*
X148954442Y-126588118D02*
X149020627Y-126594637D01*
X149133853Y-126628984D01*
X149190467Y-126646157D01*
X149329087Y-126720252D01*
X149346991Y-126729822D01*
X149382729Y-126759152D01*
X149484186Y-126842414D01*
X149567448Y-126943871D01*
X149596778Y-126979609D01*
X149596779Y-126979611D01*
X149680443Y-127136133D01*
X149680443Y-127136134D01*
X149731963Y-127305973D01*
X149749359Y-127482600D01*
X149731963Y-127659227D01*
X149720702Y-127696349D01*
X149680443Y-127829067D01*
X149655570Y-127875600D01*
X149596778Y-127985591D01*
X149579602Y-128006520D01*
X149484186Y-128122786D01*
X149382729Y-128206048D01*
X149346991Y-128235378D01*
X149346989Y-128235379D01*
X149190467Y-128319043D01*
X149140500Y-128334200D01*
X149020627Y-128370563D01*
X148954443Y-128377081D01*
X148888260Y-128383600D01*
X148799740Y-128383600D01*
X148733557Y-128377081D01*
X148667373Y-128370563D01*
X148547500Y-128334200D01*
X148497533Y-128319043D01*
X148341011Y-128235379D01*
X148341009Y-128235378D01*
X148305271Y-128206048D01*
X148203814Y-128122786D01*
X148108398Y-128006520D01*
X148091222Y-127985591D01*
X148032430Y-127875600D01*
X148007557Y-127829067D01*
X147967298Y-127696349D01*
X147956037Y-127659227D01*
X147938641Y-127482600D01*
X147956037Y-127305973D01*
X148007557Y-127136134D01*
X148007557Y-127136133D01*
X148091221Y-126979611D01*
X148091222Y-126979609D01*
X148120552Y-126943871D01*
X148203814Y-126842414D01*
X148305271Y-126759152D01*
X148341009Y-126729822D01*
X148358913Y-126720252D01*
X148497533Y-126646157D01*
X148554147Y-126628984D01*
X148667373Y-126594637D01*
X148733558Y-126588118D01*
X148799740Y-126581600D01*
X148888260Y-126581600D01*
X148954442Y-126588118D01*
X148954442Y-126588118D01*
G37*
G36*
X184036642Y-125882330D02*
X184137450Y-125912911D01*
X184230359Y-125962572D01*
X184311796Y-126029404D01*
X184378628Y-126110841D01*
X184428289Y-126203750D01*
X184458870Y-126304558D01*
X184469800Y-126415540D01*
X184469800Y-127729260D01*
X184458870Y-127840242D01*
X184428289Y-127941050D01*
X184378628Y-128033959D01*
X184311796Y-128115396D01*
X184230359Y-128182228D01*
X184137450Y-128231889D01*
X184036642Y-128262470D01*
X183925660Y-128273400D01*
X180411940Y-128273400D01*
X180300958Y-128262470D01*
X180200150Y-128231889D01*
X180107241Y-128182228D01*
X180025804Y-128115396D01*
X179958972Y-128033959D01*
X179909311Y-127941050D01*
X179878730Y-127840242D01*
X179867800Y-127729260D01*
X179867800Y-126415540D01*
X179878730Y-126304558D01*
X179909311Y-126203750D01*
X179958972Y-126110841D01*
X180025804Y-126029404D01*
X180107241Y-125962572D01*
X180200150Y-125912911D01*
X180300958Y-125882330D01*
X180411940Y-125871400D01*
X183925660Y-125871400D01*
X184036642Y-125882330D01*
X184036642Y-125882330D01*
G37*
G36*
X135038400Y-127875600D02*
X133236400Y-127875600D01*
X133236400Y-126073600D01*
X135038400Y-126073600D01*
X135038400Y-127875600D01*
X135038400Y-127875600D01*
G37*
G36*
X124944919Y-124479855D02*
X125011104Y-124486374D01*
X125124330Y-124520721D01*
X125180944Y-124537894D01*
X125318135Y-124611225D01*
X125337468Y-124621559D01*
X125373206Y-124650889D01*
X125474663Y-124734151D01*
X125557925Y-124835608D01*
X125587255Y-124871346D01*
X125587256Y-124871348D01*
X125670920Y-125027870D01*
X125688093Y-125084484D01*
X125722440Y-125197710D01*
X125739836Y-125374337D01*
X125722440Y-125550964D01*
X125688093Y-125664190D01*
X125670920Y-125720804D01*
X125605283Y-125843600D01*
X125587255Y-125877328D01*
X125558053Y-125912911D01*
X125474663Y-126014523D01*
X125402676Y-126073600D01*
X125337468Y-126127115D01*
X125337466Y-126127116D01*
X125180944Y-126210780D01*
X125124330Y-126227953D01*
X125011104Y-126262300D01*
X124944919Y-126268819D01*
X124878737Y-126275337D01*
X124790217Y-126275337D01*
X124724035Y-126268819D01*
X124657850Y-126262300D01*
X124544624Y-126227953D01*
X124488010Y-126210780D01*
X124331488Y-126127116D01*
X124331486Y-126127115D01*
X124266278Y-126073600D01*
X124194291Y-126014523D01*
X124110901Y-125912911D01*
X124081699Y-125877328D01*
X124063671Y-125843600D01*
X123998034Y-125720804D01*
X123980861Y-125664190D01*
X123946514Y-125550964D01*
X123929118Y-125374337D01*
X123946514Y-125197710D01*
X123980861Y-125084484D01*
X123998034Y-125027870D01*
X124081698Y-124871348D01*
X124081699Y-124871346D01*
X124111029Y-124835608D01*
X124194291Y-124734151D01*
X124295748Y-124650889D01*
X124331486Y-124621559D01*
X124350819Y-124611225D01*
X124488010Y-124537894D01*
X124544624Y-124520721D01*
X124657850Y-124486374D01*
X124724035Y-124479855D01*
X124790217Y-124473337D01*
X124878737Y-124473337D01*
X124944919Y-124479855D01*
X124944919Y-124479855D01*
G37*
G36*
X149745000Y-125843600D02*
X147943000Y-125843600D01*
X147943000Y-124041600D01*
X149745000Y-124041600D01*
X149745000Y-125843600D01*
X149745000Y-125843600D01*
G37*
G36*
X134247842Y-123540118D02*
X134314027Y-123546637D01*
X134427253Y-123580984D01*
X134483867Y-123598157D01*
X134602658Y-123661653D01*
X134640391Y-123681822D01*
X134676129Y-123711152D01*
X134777586Y-123794414D01*
X134854609Y-123888268D01*
X134890178Y-123931609D01*
X134890179Y-123931611D01*
X134973843Y-124088133D01*
X134973843Y-124088134D01*
X135025363Y-124257973D01*
X135042759Y-124434600D01*
X135025363Y-124611227D01*
X134991016Y-124724453D01*
X134973843Y-124781067D01*
X134925587Y-124871346D01*
X134890178Y-124937591D01*
X134860848Y-124973329D01*
X134777586Y-125074786D01*
X134676129Y-125158048D01*
X134640391Y-125187378D01*
X134640389Y-125187379D01*
X134483867Y-125271043D01*
X134427253Y-125288216D01*
X134314027Y-125322563D01*
X134247843Y-125329081D01*
X134181660Y-125335600D01*
X134093140Y-125335600D01*
X134026957Y-125329081D01*
X133960773Y-125322563D01*
X133847547Y-125288216D01*
X133790933Y-125271043D01*
X133634411Y-125187379D01*
X133634409Y-125187378D01*
X133598671Y-125158048D01*
X133497214Y-125074786D01*
X133413952Y-124973329D01*
X133384622Y-124937591D01*
X133349213Y-124871346D01*
X133300957Y-124781067D01*
X133283784Y-124724453D01*
X133249437Y-124611227D01*
X133232041Y-124434600D01*
X133249437Y-124257973D01*
X133300957Y-124088134D01*
X133300957Y-124088133D01*
X133384621Y-123931611D01*
X133384622Y-123931609D01*
X133420191Y-123888268D01*
X133497214Y-123794414D01*
X133598671Y-123711152D01*
X133634409Y-123681822D01*
X133672142Y-123661653D01*
X133790933Y-123598157D01*
X133847547Y-123580984D01*
X133960773Y-123546637D01*
X134026958Y-123540118D01*
X134093140Y-123533600D01*
X134181660Y-123533600D01*
X134247842Y-123540118D01*
X134247842Y-123540118D01*
G37*
G36*
X154007465Y-123427625D02*
X154007468Y-123427626D01*
X154007469Y-123427626D01*
X154167883Y-123476287D01*
X154167885Y-123476288D01*
X154167888Y-123476289D01*
X154315722Y-123555307D01*
X154445303Y-123661653D01*
X154551649Y-123791234D01*
X154630667Y-123939068D01*
X154679331Y-124099491D01*
X154695761Y-124266312D01*
X154679331Y-124433133D01*
X154679330Y-124433136D01*
X154679330Y-124433137D01*
X154663181Y-124486374D01*
X154630667Y-124593556D01*
X154551649Y-124741390D01*
X154445303Y-124870971D01*
X154315722Y-124977317D01*
X154167888Y-125056335D01*
X154167885Y-125056336D01*
X154167883Y-125056337D01*
X154007469Y-125104998D01*
X154007468Y-125104998D01*
X154007465Y-125104999D01*
X153882448Y-125117312D01*
X152998840Y-125117312D01*
X152873823Y-125104999D01*
X152873820Y-125104998D01*
X152873819Y-125104998D01*
X152713405Y-125056337D01*
X152713403Y-125056336D01*
X152713400Y-125056335D01*
X152565566Y-124977317D01*
X152435985Y-124870971D01*
X152329639Y-124741390D01*
X152250621Y-124593556D01*
X152218108Y-124486374D01*
X152201958Y-124433137D01*
X152201958Y-124433136D01*
X152201957Y-124433133D01*
X152185527Y-124266312D01*
X152201957Y-124099491D01*
X152250621Y-123939068D01*
X152329639Y-123791234D01*
X152435985Y-123661653D01*
X152565566Y-123555307D01*
X152713400Y-123476289D01*
X152713403Y-123476288D01*
X152713405Y-123476287D01*
X152873819Y-123427626D01*
X152873820Y-123427626D01*
X152873823Y-123427625D01*
X152998840Y-123415312D01*
X153882448Y-123415312D01*
X154007465Y-123427625D01*
X154007465Y-123427625D01*
G37*
G36*
X161627465Y-123427625D02*
X161627468Y-123427626D01*
X161627469Y-123427626D01*
X161787883Y-123476287D01*
X161787885Y-123476288D01*
X161787888Y-123476289D01*
X161935722Y-123555307D01*
X162065303Y-123661653D01*
X162171649Y-123791234D01*
X162250667Y-123939068D01*
X162299331Y-124099491D01*
X162315761Y-124266312D01*
X162299331Y-124433133D01*
X162299330Y-124433136D01*
X162299330Y-124433137D01*
X162283181Y-124486374D01*
X162250667Y-124593556D01*
X162171649Y-124741390D01*
X162065303Y-124870971D01*
X161935722Y-124977317D01*
X161787888Y-125056335D01*
X161787885Y-125056336D01*
X161787883Y-125056337D01*
X161627469Y-125104998D01*
X161627468Y-125104998D01*
X161627465Y-125104999D01*
X161502448Y-125117312D01*
X160618840Y-125117312D01*
X160493823Y-125104999D01*
X160493820Y-125104998D01*
X160493819Y-125104998D01*
X160333405Y-125056337D01*
X160333403Y-125056336D01*
X160333400Y-125056335D01*
X160185566Y-124977317D01*
X160055985Y-124870971D01*
X159949639Y-124741390D01*
X159870621Y-124593556D01*
X159838108Y-124486374D01*
X159821958Y-124433137D01*
X159821958Y-124433136D01*
X159821957Y-124433133D01*
X159805527Y-124266312D01*
X159821957Y-124099491D01*
X159870621Y-123939068D01*
X159949639Y-123791234D01*
X160055985Y-123661653D01*
X160185566Y-123555307D01*
X160333400Y-123476289D01*
X160333403Y-123476288D01*
X160333405Y-123476287D01*
X160493819Y-123427626D01*
X160493820Y-123427626D01*
X160493823Y-123427625D01*
X160618840Y-123415312D01*
X161502448Y-123415312D01*
X161627465Y-123427625D01*
X161627465Y-123427625D01*
G37*
G36*
X174327465Y-123376825D02*
X174327468Y-123376826D01*
X174327469Y-123376826D01*
X174487883Y-123425487D01*
X174487885Y-123425488D01*
X174487888Y-123425489D01*
X174635722Y-123504507D01*
X174765303Y-123610853D01*
X174871649Y-123740434D01*
X174950667Y-123888268D01*
X174950668Y-123888271D01*
X174950669Y-123888273D01*
X174963815Y-123931611D01*
X174999331Y-124048691D01*
X175015761Y-124215512D01*
X174999331Y-124382333D01*
X174999330Y-124382336D01*
X174999330Y-124382337D01*
X174967771Y-124486374D01*
X174950667Y-124542756D01*
X174871649Y-124690590D01*
X174765303Y-124820171D01*
X174635722Y-124926517D01*
X174487888Y-125005535D01*
X174487885Y-125005536D01*
X174487883Y-125005537D01*
X174327469Y-125054198D01*
X174327468Y-125054198D01*
X174327465Y-125054199D01*
X174202448Y-125066512D01*
X173318840Y-125066512D01*
X173193823Y-125054199D01*
X173193820Y-125054198D01*
X173193819Y-125054198D01*
X173033405Y-125005537D01*
X173033403Y-125005536D01*
X173033400Y-125005535D01*
X172885566Y-124926517D01*
X172755985Y-124820171D01*
X172649639Y-124690590D01*
X172570621Y-124542756D01*
X172553518Y-124486374D01*
X172521958Y-124382337D01*
X172521958Y-124382336D01*
X172521957Y-124382333D01*
X172505527Y-124215512D01*
X172521957Y-124048691D01*
X172557473Y-123931611D01*
X172570619Y-123888273D01*
X172570620Y-123888271D01*
X172570621Y-123888268D01*
X172649639Y-123740434D01*
X172755985Y-123610853D01*
X172885566Y-123504507D01*
X173033400Y-123425489D01*
X173033403Y-123425488D01*
X173033405Y-123425487D01*
X173193819Y-123376826D01*
X173193820Y-123376826D01*
X173193823Y-123376825D01*
X173318840Y-123364512D01*
X174202448Y-123364512D01*
X174327465Y-123376825D01*
X174327465Y-123376825D01*
G37*
G36*
X166707465Y-123376825D02*
X166707468Y-123376826D01*
X166707469Y-123376826D01*
X166867883Y-123425487D01*
X166867885Y-123425488D01*
X166867888Y-123425489D01*
X167015722Y-123504507D01*
X167145303Y-123610853D01*
X167251649Y-123740434D01*
X167330667Y-123888268D01*
X167330668Y-123888271D01*
X167330669Y-123888273D01*
X167343815Y-123931611D01*
X167379331Y-124048691D01*
X167395761Y-124215512D01*
X167379331Y-124382333D01*
X167379330Y-124382336D01*
X167379330Y-124382337D01*
X167347771Y-124486374D01*
X167330667Y-124542756D01*
X167251649Y-124690590D01*
X167145303Y-124820171D01*
X167015722Y-124926517D01*
X166867888Y-125005535D01*
X166867885Y-125005536D01*
X166867883Y-125005537D01*
X166707469Y-125054198D01*
X166707468Y-125054198D01*
X166707465Y-125054199D01*
X166582448Y-125066512D01*
X165698840Y-125066512D01*
X165573823Y-125054199D01*
X165573820Y-125054198D01*
X165573819Y-125054198D01*
X165413405Y-125005537D01*
X165413403Y-125005536D01*
X165413400Y-125005535D01*
X165265566Y-124926517D01*
X165135985Y-124820171D01*
X165029639Y-124690590D01*
X164950621Y-124542756D01*
X164933518Y-124486374D01*
X164901958Y-124382337D01*
X164901958Y-124382336D01*
X164901957Y-124382333D01*
X164885527Y-124215512D01*
X164901957Y-124048691D01*
X164937473Y-123931611D01*
X164950619Y-123888273D01*
X164950620Y-123888271D01*
X164950621Y-123888268D01*
X165029639Y-123740434D01*
X165135985Y-123610853D01*
X165265566Y-123504507D01*
X165413400Y-123425489D01*
X165413403Y-123425488D01*
X165413405Y-123425487D01*
X165573819Y-123376826D01*
X165573820Y-123376826D01*
X165573823Y-123376825D01*
X165698840Y-123364512D01*
X166582448Y-123364512D01*
X166707465Y-123376825D01*
X166707465Y-123376825D01*
G37*
G36*
X154007465Y-120887625D02*
X154007468Y-120887626D01*
X154007469Y-120887626D01*
X154167883Y-120936287D01*
X154167885Y-120936288D01*
X154167888Y-120936289D01*
X154315722Y-121015307D01*
X154445303Y-121121653D01*
X154551649Y-121251234D01*
X154630667Y-121399068D01*
X154679331Y-121559491D01*
X154695761Y-121726312D01*
X154679331Y-121893133D01*
X154679330Y-121893136D01*
X154679330Y-121893137D01*
X154644936Y-122006520D01*
X154630667Y-122053556D01*
X154551649Y-122201390D01*
X154445303Y-122330971D01*
X154315722Y-122437317D01*
X154167888Y-122516335D01*
X154167885Y-122516336D01*
X154167883Y-122516337D01*
X154007469Y-122564998D01*
X154007468Y-122564998D01*
X154007465Y-122564999D01*
X153882448Y-122577312D01*
X152998840Y-122577312D01*
X152873823Y-122564999D01*
X152873820Y-122564998D01*
X152873819Y-122564998D01*
X152713405Y-122516337D01*
X152713403Y-122516336D01*
X152713400Y-122516335D01*
X152565566Y-122437317D01*
X152435985Y-122330971D01*
X152329639Y-122201390D01*
X152250621Y-122053556D01*
X152236353Y-122006520D01*
X152201958Y-121893137D01*
X152201958Y-121893136D01*
X152201957Y-121893133D01*
X152185527Y-121726312D01*
X152201957Y-121559491D01*
X152250621Y-121399068D01*
X152329639Y-121251234D01*
X152435985Y-121121653D01*
X152565566Y-121015307D01*
X152713400Y-120936289D01*
X152713403Y-120936288D01*
X152713405Y-120936287D01*
X152873819Y-120887626D01*
X152873820Y-120887626D01*
X152873823Y-120887625D01*
X152998840Y-120875312D01*
X153882448Y-120875312D01*
X154007465Y-120887625D01*
X154007465Y-120887625D01*
G37*
G36*
X161627465Y-120887625D02*
X161627468Y-120887626D01*
X161627469Y-120887626D01*
X161787883Y-120936287D01*
X161787885Y-120936288D01*
X161787888Y-120936289D01*
X161935722Y-121015307D01*
X162065303Y-121121653D01*
X162171649Y-121251234D01*
X162250667Y-121399068D01*
X162299331Y-121559491D01*
X162315761Y-121726312D01*
X162299331Y-121893133D01*
X162299330Y-121893136D01*
X162299330Y-121893137D01*
X162264936Y-122006520D01*
X162250667Y-122053556D01*
X162171649Y-122201390D01*
X162065303Y-122330971D01*
X161935722Y-122437317D01*
X161787888Y-122516335D01*
X161787885Y-122516336D01*
X161787883Y-122516337D01*
X161627469Y-122564998D01*
X161627468Y-122564998D01*
X161627465Y-122564999D01*
X161502448Y-122577312D01*
X160618840Y-122577312D01*
X160493823Y-122564999D01*
X160493820Y-122564998D01*
X160493819Y-122564998D01*
X160333405Y-122516337D01*
X160333403Y-122516336D01*
X160333400Y-122516335D01*
X160185566Y-122437317D01*
X160055985Y-122330971D01*
X159949639Y-122201390D01*
X159870621Y-122053556D01*
X159856353Y-122006520D01*
X159821958Y-121893137D01*
X159821958Y-121893136D01*
X159821957Y-121893133D01*
X159805527Y-121726312D01*
X159821957Y-121559491D01*
X159870621Y-121399068D01*
X159949639Y-121251234D01*
X160055985Y-121121653D01*
X160185566Y-121015307D01*
X160333400Y-120936289D01*
X160333403Y-120936288D01*
X160333405Y-120936287D01*
X160493819Y-120887626D01*
X160493820Y-120887626D01*
X160493823Y-120887625D01*
X160618840Y-120875312D01*
X161502448Y-120875312D01*
X161627465Y-120887625D01*
X161627465Y-120887625D01*
G37*
G36*
X174327465Y-120836825D02*
X174327468Y-120836826D01*
X174327469Y-120836826D01*
X174487883Y-120885487D01*
X174487885Y-120885488D01*
X174487888Y-120885489D01*
X174635722Y-120964507D01*
X174765303Y-121070853D01*
X174871649Y-121200434D01*
X174950667Y-121348268D01*
X174999331Y-121508691D01*
X175015761Y-121675512D01*
X174999331Y-121842333D01*
X174999330Y-121842336D01*
X174999330Y-121842337D01*
X174969386Y-121941050D01*
X174950667Y-122002756D01*
X174871649Y-122150590D01*
X174765303Y-122280171D01*
X174635722Y-122386517D01*
X174487888Y-122465535D01*
X174487885Y-122465536D01*
X174487883Y-122465537D01*
X174327469Y-122514198D01*
X174327468Y-122514198D01*
X174327465Y-122514199D01*
X174202448Y-122526512D01*
X173318840Y-122526512D01*
X173193823Y-122514199D01*
X173193820Y-122514198D01*
X173193819Y-122514198D01*
X173033405Y-122465537D01*
X173033403Y-122465536D01*
X173033400Y-122465535D01*
X172885566Y-122386517D01*
X172755985Y-122280171D01*
X172649639Y-122150590D01*
X172570621Y-122002756D01*
X172551903Y-121941050D01*
X172521958Y-121842337D01*
X172521958Y-121842336D01*
X172521957Y-121842333D01*
X172505527Y-121675512D01*
X172521957Y-121508691D01*
X172570621Y-121348268D01*
X172649639Y-121200434D01*
X172755985Y-121070853D01*
X172885566Y-120964507D01*
X173033400Y-120885489D01*
X173033403Y-120885488D01*
X173033405Y-120885487D01*
X173193819Y-120836826D01*
X173193820Y-120836826D01*
X173193823Y-120836825D01*
X173318840Y-120824512D01*
X174202448Y-120824512D01*
X174327465Y-120836825D01*
X174327465Y-120836825D01*
G37*
G36*
X166707465Y-120836825D02*
X166707468Y-120836826D01*
X166707469Y-120836826D01*
X166867883Y-120885487D01*
X166867885Y-120885488D01*
X166867888Y-120885489D01*
X167015722Y-120964507D01*
X167145303Y-121070853D01*
X167251649Y-121200434D01*
X167330667Y-121348268D01*
X167379331Y-121508691D01*
X167395761Y-121675512D01*
X167379331Y-121842333D01*
X167379330Y-121842336D01*
X167379330Y-121842337D01*
X167349386Y-121941050D01*
X167330667Y-122002756D01*
X167251649Y-122150590D01*
X167145303Y-122280171D01*
X167015722Y-122386517D01*
X166867888Y-122465535D01*
X166867885Y-122465536D01*
X166867883Y-122465537D01*
X166707469Y-122514198D01*
X166707468Y-122514198D01*
X166707465Y-122514199D01*
X166582448Y-122526512D01*
X165698840Y-122526512D01*
X165573823Y-122514199D01*
X165573820Y-122514198D01*
X165573819Y-122514198D01*
X165413405Y-122465537D01*
X165413403Y-122465536D01*
X165413400Y-122465535D01*
X165265566Y-122386517D01*
X165135985Y-122280171D01*
X165029639Y-122150590D01*
X164950621Y-122002756D01*
X164931903Y-121941050D01*
X164901958Y-121842337D01*
X164901958Y-121842336D01*
X164901957Y-121842333D01*
X164885527Y-121675512D01*
X164901957Y-121508691D01*
X164950621Y-121348268D01*
X165029639Y-121200434D01*
X165135985Y-121070853D01*
X165265566Y-120964507D01*
X165413400Y-120885489D01*
X165413403Y-120885488D01*
X165413405Y-120885487D01*
X165573819Y-120836826D01*
X165573820Y-120836826D01*
X165573823Y-120836825D01*
X165698840Y-120824512D01*
X166582448Y-120824512D01*
X166707465Y-120836825D01*
X166707465Y-120836825D01*
G37*
G36*
X184286642Y-119882330D02*
X184387450Y-119912911D01*
X184480359Y-119962572D01*
X184561796Y-120029404D01*
X184628628Y-120110841D01*
X184678289Y-120203750D01*
X184708870Y-120304558D01*
X184719800Y-120415540D01*
X184719800Y-121729260D01*
X184708870Y-121840242D01*
X184678289Y-121941050D01*
X184628628Y-122033959D01*
X184561796Y-122115396D01*
X184480359Y-122182228D01*
X184387450Y-122231889D01*
X184286642Y-122262470D01*
X184175660Y-122273400D01*
X180161940Y-122273400D01*
X180050958Y-122262470D01*
X179950150Y-122231889D01*
X179857241Y-122182228D01*
X179775804Y-122115396D01*
X179708972Y-122033959D01*
X179659311Y-121941050D01*
X179628730Y-121840242D01*
X179617800Y-121729260D01*
X179617800Y-120415540D01*
X179628730Y-120304558D01*
X179659311Y-120203750D01*
X179708972Y-120110841D01*
X179775804Y-120029404D01*
X179857241Y-119962572D01*
X179950150Y-119912911D01*
X180050958Y-119882330D01*
X180161940Y-119871400D01*
X184175660Y-119871400D01*
X184286642Y-119882330D01*
X184286642Y-119882330D01*
G37*
G36*
X154007465Y-118347625D02*
X154007468Y-118347626D01*
X154007469Y-118347626D01*
X154167883Y-118396287D01*
X154167885Y-118396288D01*
X154167888Y-118396289D01*
X154315722Y-118475307D01*
X154445303Y-118581653D01*
X154551649Y-118711234D01*
X154630667Y-118859068D01*
X154679331Y-119019491D01*
X154695761Y-119186312D01*
X154679331Y-119353133D01*
X154630667Y-119513556D01*
X154551649Y-119661390D01*
X154445303Y-119790971D01*
X154315722Y-119897317D01*
X154167888Y-119976335D01*
X154167885Y-119976336D01*
X154167883Y-119976337D01*
X154007469Y-120024998D01*
X154007468Y-120024998D01*
X154007465Y-120024999D01*
X153882448Y-120037312D01*
X152998840Y-120037312D01*
X152873823Y-120024999D01*
X152873820Y-120024998D01*
X152873819Y-120024998D01*
X152713405Y-119976337D01*
X152713403Y-119976336D01*
X152713400Y-119976335D01*
X152565566Y-119897317D01*
X152435985Y-119790971D01*
X152329639Y-119661390D01*
X152250621Y-119513556D01*
X152201957Y-119353133D01*
X152185527Y-119186312D01*
X152201957Y-119019491D01*
X152250621Y-118859068D01*
X152329639Y-118711234D01*
X152435985Y-118581653D01*
X152565566Y-118475307D01*
X152713400Y-118396289D01*
X152713403Y-118396288D01*
X152713405Y-118396287D01*
X152873819Y-118347626D01*
X152873820Y-118347626D01*
X152873823Y-118347625D01*
X152998840Y-118335312D01*
X153882448Y-118335312D01*
X154007465Y-118347625D01*
X154007465Y-118347625D01*
G37*
G36*
X161627465Y-118347625D02*
X161627468Y-118347626D01*
X161627469Y-118347626D01*
X161787883Y-118396287D01*
X161787885Y-118396288D01*
X161787888Y-118396289D01*
X161935722Y-118475307D01*
X162065303Y-118581653D01*
X162171649Y-118711234D01*
X162250667Y-118859068D01*
X162299331Y-119019491D01*
X162315761Y-119186312D01*
X162299331Y-119353133D01*
X162250667Y-119513556D01*
X162171649Y-119661390D01*
X162065303Y-119790971D01*
X161935722Y-119897317D01*
X161787888Y-119976335D01*
X161787885Y-119976336D01*
X161787883Y-119976337D01*
X161627469Y-120024998D01*
X161627468Y-120024998D01*
X161627465Y-120024999D01*
X161502448Y-120037312D01*
X160618840Y-120037312D01*
X160493823Y-120024999D01*
X160493820Y-120024998D01*
X160493819Y-120024998D01*
X160333405Y-119976337D01*
X160333403Y-119976336D01*
X160333400Y-119976335D01*
X160185566Y-119897317D01*
X160055985Y-119790971D01*
X159949639Y-119661390D01*
X159870621Y-119513556D01*
X159821957Y-119353133D01*
X159805527Y-119186312D01*
X159821957Y-119019491D01*
X159870621Y-118859068D01*
X159949639Y-118711234D01*
X160055985Y-118581653D01*
X160185566Y-118475307D01*
X160333400Y-118396289D01*
X160333403Y-118396288D01*
X160333405Y-118396287D01*
X160493819Y-118347626D01*
X160493820Y-118347626D01*
X160493823Y-118347625D01*
X160618840Y-118335312D01*
X161502448Y-118335312D01*
X161627465Y-118347625D01*
X161627465Y-118347625D01*
G37*
G36*
X174327465Y-118296825D02*
X174327468Y-118296826D01*
X174327469Y-118296826D01*
X174487883Y-118345487D01*
X174487885Y-118345488D01*
X174487888Y-118345489D01*
X174635722Y-118424507D01*
X174765303Y-118530853D01*
X174871649Y-118660434D01*
X174950667Y-118808268D01*
X174999331Y-118968691D01*
X175015761Y-119135512D01*
X174999331Y-119302333D01*
X174950667Y-119462756D01*
X174871649Y-119610590D01*
X174765303Y-119740171D01*
X174635722Y-119846517D01*
X174487888Y-119925535D01*
X174487885Y-119925536D01*
X174487883Y-119925537D01*
X174327469Y-119974198D01*
X174327468Y-119974198D01*
X174327465Y-119974199D01*
X174202448Y-119986512D01*
X173318840Y-119986512D01*
X173193823Y-119974199D01*
X173193820Y-119974198D01*
X173193819Y-119974198D01*
X173033405Y-119925537D01*
X173033403Y-119925536D01*
X173033400Y-119925535D01*
X172885566Y-119846517D01*
X172755985Y-119740171D01*
X172649639Y-119610590D01*
X172570621Y-119462756D01*
X172521957Y-119302333D01*
X172505527Y-119135512D01*
X172521957Y-118968691D01*
X172570621Y-118808268D01*
X172649639Y-118660434D01*
X172755985Y-118530853D01*
X172885566Y-118424507D01*
X173033400Y-118345489D01*
X173033403Y-118345488D01*
X173033405Y-118345487D01*
X173193819Y-118296826D01*
X173193820Y-118296826D01*
X173193823Y-118296825D01*
X173318840Y-118284512D01*
X174202448Y-118284512D01*
X174327465Y-118296825D01*
X174327465Y-118296825D01*
G37*
G36*
X166707465Y-118296825D02*
X166707468Y-118296826D01*
X166707469Y-118296826D01*
X166867883Y-118345487D01*
X166867885Y-118345488D01*
X166867888Y-118345489D01*
X167015722Y-118424507D01*
X167145303Y-118530853D01*
X167251649Y-118660434D01*
X167330667Y-118808268D01*
X167379331Y-118968691D01*
X167395761Y-119135512D01*
X167379331Y-119302333D01*
X167330667Y-119462756D01*
X167251649Y-119610590D01*
X167145303Y-119740171D01*
X167015722Y-119846517D01*
X166867888Y-119925535D01*
X166867885Y-119925536D01*
X166867883Y-119925537D01*
X166707469Y-119974198D01*
X166707468Y-119974198D01*
X166707465Y-119974199D01*
X166582448Y-119986512D01*
X165698840Y-119986512D01*
X165573823Y-119974199D01*
X165573820Y-119974198D01*
X165573819Y-119974198D01*
X165413405Y-119925537D01*
X165413403Y-119925536D01*
X165413400Y-119925535D01*
X165265566Y-119846517D01*
X165135985Y-119740171D01*
X165029639Y-119610590D01*
X164950621Y-119462756D01*
X164901957Y-119302333D01*
X164885527Y-119135512D01*
X164901957Y-118968691D01*
X164950621Y-118808268D01*
X165029639Y-118660434D01*
X165135985Y-118530853D01*
X165265566Y-118424507D01*
X165413400Y-118345489D01*
X165413403Y-118345488D01*
X165413405Y-118345487D01*
X165573819Y-118296826D01*
X165573820Y-118296826D01*
X165573823Y-118296825D01*
X165698840Y-118284512D01*
X166582448Y-118284512D01*
X166707465Y-118296825D01*
X166707465Y-118296825D01*
G37*
G36*
X161627465Y-115807625D02*
X161627468Y-115807626D01*
X161627469Y-115807626D01*
X161787883Y-115856287D01*
X161787885Y-115856288D01*
X161787888Y-115856289D01*
X161935722Y-115935307D01*
X162065303Y-116041653D01*
X162171649Y-116171234D01*
X162250667Y-116319068D01*
X162299331Y-116479491D01*
X162315761Y-116646312D01*
X162299331Y-116813133D01*
X162250667Y-116973556D01*
X162171649Y-117121390D01*
X162065303Y-117250971D01*
X161935722Y-117357317D01*
X161787888Y-117436335D01*
X161787885Y-117436336D01*
X161787883Y-117436337D01*
X161627469Y-117484998D01*
X161627468Y-117484998D01*
X161627465Y-117484999D01*
X161502448Y-117497312D01*
X160618840Y-117497312D01*
X160493823Y-117484999D01*
X160493820Y-117484998D01*
X160493819Y-117484998D01*
X160333405Y-117436337D01*
X160333403Y-117436336D01*
X160333400Y-117436335D01*
X160185566Y-117357317D01*
X160055985Y-117250971D01*
X159949639Y-117121390D01*
X159870621Y-116973556D01*
X159821957Y-116813133D01*
X159805527Y-116646312D01*
X159821957Y-116479491D01*
X159870621Y-116319068D01*
X159949639Y-116171234D01*
X160055985Y-116041653D01*
X160185566Y-115935307D01*
X160333400Y-115856289D01*
X160333403Y-115856288D01*
X160333405Y-115856287D01*
X160493819Y-115807626D01*
X160493820Y-115807626D01*
X160493823Y-115807625D01*
X160618840Y-115795312D01*
X161502448Y-115795312D01*
X161627465Y-115807625D01*
X161627465Y-115807625D01*
G37*
G36*
X154007465Y-115807625D02*
X154007468Y-115807626D01*
X154007469Y-115807626D01*
X154167883Y-115856287D01*
X154167885Y-115856288D01*
X154167888Y-115856289D01*
X154315722Y-115935307D01*
X154445303Y-116041653D01*
X154551649Y-116171234D01*
X154630667Y-116319068D01*
X154679331Y-116479491D01*
X154695761Y-116646312D01*
X154679331Y-116813133D01*
X154630667Y-116973556D01*
X154551649Y-117121390D01*
X154445303Y-117250971D01*
X154315722Y-117357317D01*
X154167888Y-117436335D01*
X154167885Y-117436336D01*
X154167883Y-117436337D01*
X154007469Y-117484998D01*
X154007468Y-117484998D01*
X154007465Y-117484999D01*
X153882448Y-117497312D01*
X152998840Y-117497312D01*
X152873823Y-117484999D01*
X152873820Y-117484998D01*
X152873819Y-117484998D01*
X152713405Y-117436337D01*
X152713403Y-117436336D01*
X152713400Y-117436335D01*
X152565566Y-117357317D01*
X152435985Y-117250971D01*
X152329639Y-117121390D01*
X152250621Y-116973556D01*
X152201957Y-116813133D01*
X152185527Y-116646312D01*
X152201957Y-116479491D01*
X152250621Y-116319068D01*
X152329639Y-116171234D01*
X152435985Y-116041653D01*
X152565566Y-115935307D01*
X152713400Y-115856289D01*
X152713403Y-115856288D01*
X152713405Y-115856287D01*
X152873819Y-115807626D01*
X152873820Y-115807626D01*
X152873823Y-115807625D01*
X152998840Y-115795312D01*
X153882448Y-115795312D01*
X154007465Y-115807625D01*
X154007465Y-115807625D01*
G37*
G36*
X174327465Y-115756825D02*
X174327468Y-115756826D01*
X174327469Y-115756826D01*
X174487883Y-115805487D01*
X174487885Y-115805488D01*
X174487888Y-115805489D01*
X174635722Y-115884507D01*
X174765303Y-115990853D01*
X174871649Y-116120434D01*
X174950667Y-116268268D01*
X174999331Y-116428691D01*
X175015761Y-116595512D01*
X174999331Y-116762333D01*
X174950667Y-116922756D01*
X174871649Y-117070590D01*
X174765303Y-117200171D01*
X174635722Y-117306517D01*
X174487888Y-117385535D01*
X174487885Y-117385536D01*
X174487883Y-117385537D01*
X174327469Y-117434198D01*
X174327468Y-117434198D01*
X174327465Y-117434199D01*
X174202448Y-117446512D01*
X173318840Y-117446512D01*
X173193823Y-117434199D01*
X173193820Y-117434198D01*
X173193819Y-117434198D01*
X173033405Y-117385537D01*
X173033403Y-117385536D01*
X173033400Y-117385535D01*
X172885566Y-117306517D01*
X172755985Y-117200171D01*
X172649639Y-117070590D01*
X172570621Y-116922756D01*
X172521957Y-116762333D01*
X172505527Y-116595512D01*
X172521957Y-116428691D01*
X172570621Y-116268268D01*
X172649639Y-116120434D01*
X172755985Y-115990853D01*
X172885566Y-115884507D01*
X173033400Y-115805489D01*
X173033403Y-115805488D01*
X173033405Y-115805487D01*
X173193819Y-115756826D01*
X173193820Y-115756826D01*
X173193823Y-115756825D01*
X173318840Y-115744512D01*
X174202448Y-115744512D01*
X174327465Y-115756825D01*
X174327465Y-115756825D01*
G37*
G36*
X166707465Y-115756825D02*
X166707468Y-115756826D01*
X166707469Y-115756826D01*
X166867883Y-115805487D01*
X166867885Y-115805488D01*
X166867888Y-115805489D01*
X167015722Y-115884507D01*
X167145303Y-115990853D01*
X167251649Y-116120434D01*
X167330667Y-116268268D01*
X167379331Y-116428691D01*
X167395761Y-116595512D01*
X167379331Y-116762333D01*
X167330667Y-116922756D01*
X167251649Y-117070590D01*
X167145303Y-117200171D01*
X167015722Y-117306517D01*
X166867888Y-117385535D01*
X166867885Y-117385536D01*
X166867883Y-117385537D01*
X166707469Y-117434198D01*
X166707468Y-117434198D01*
X166707465Y-117434199D01*
X166582448Y-117446512D01*
X165698840Y-117446512D01*
X165573823Y-117434199D01*
X165573820Y-117434198D01*
X165573819Y-117434198D01*
X165413405Y-117385537D01*
X165413403Y-117385536D01*
X165413400Y-117385535D01*
X165265566Y-117306517D01*
X165135985Y-117200171D01*
X165029639Y-117070590D01*
X164950621Y-116922756D01*
X164901957Y-116762333D01*
X164885527Y-116595512D01*
X164901957Y-116428691D01*
X164950621Y-116268268D01*
X165029639Y-116120434D01*
X165135985Y-115990853D01*
X165265566Y-115884507D01*
X165413400Y-115805489D01*
X165413403Y-115805488D01*
X165413405Y-115805487D01*
X165573819Y-115756826D01*
X165573820Y-115756826D01*
X165573823Y-115756825D01*
X165698840Y-115744512D01*
X166582448Y-115744512D01*
X166707465Y-115756825D01*
X166707465Y-115756825D01*
G37*
G36*
X154007465Y-113267625D02*
X154007468Y-113267626D01*
X154007469Y-113267626D01*
X154167883Y-113316287D01*
X154167885Y-113316288D01*
X154167888Y-113316289D01*
X154315722Y-113395307D01*
X154445303Y-113501653D01*
X154551649Y-113631234D01*
X154630667Y-113779068D01*
X154679331Y-113939491D01*
X154695761Y-114106312D01*
X154679331Y-114273133D01*
X154630667Y-114433556D01*
X154551649Y-114581390D01*
X154445303Y-114710971D01*
X154315722Y-114817317D01*
X154167888Y-114896335D01*
X154167885Y-114896336D01*
X154167883Y-114896337D01*
X154007469Y-114944998D01*
X154007468Y-114944998D01*
X154007465Y-114944999D01*
X153882448Y-114957312D01*
X152998840Y-114957312D01*
X152873823Y-114944999D01*
X152873820Y-114944998D01*
X152873819Y-114944998D01*
X152713405Y-114896337D01*
X152713403Y-114896336D01*
X152713400Y-114896335D01*
X152565566Y-114817317D01*
X152435985Y-114710971D01*
X152329639Y-114581390D01*
X152250621Y-114433556D01*
X152201957Y-114273133D01*
X152185527Y-114106312D01*
X152201957Y-113939491D01*
X152250621Y-113779068D01*
X152329639Y-113631234D01*
X152435985Y-113501653D01*
X152565566Y-113395307D01*
X152713400Y-113316289D01*
X152713403Y-113316288D01*
X152713405Y-113316287D01*
X152873819Y-113267626D01*
X152873820Y-113267626D01*
X152873823Y-113267625D01*
X152998840Y-113255312D01*
X153882448Y-113255312D01*
X154007465Y-113267625D01*
X154007465Y-113267625D01*
G37*
G36*
X161627465Y-113267625D02*
X161627468Y-113267626D01*
X161627469Y-113267626D01*
X161787883Y-113316287D01*
X161787885Y-113316288D01*
X161787888Y-113316289D01*
X161935722Y-113395307D01*
X162065303Y-113501653D01*
X162171649Y-113631234D01*
X162250667Y-113779068D01*
X162299331Y-113939491D01*
X162315761Y-114106312D01*
X162299331Y-114273133D01*
X162250667Y-114433556D01*
X162171649Y-114581390D01*
X162065303Y-114710971D01*
X161935722Y-114817317D01*
X161787888Y-114896335D01*
X161787885Y-114896336D01*
X161787883Y-114896337D01*
X161627469Y-114944998D01*
X161627468Y-114944998D01*
X161627465Y-114944999D01*
X161502448Y-114957312D01*
X160618840Y-114957312D01*
X160493823Y-114944999D01*
X160493820Y-114944998D01*
X160493819Y-114944998D01*
X160333405Y-114896337D01*
X160333403Y-114896336D01*
X160333400Y-114896335D01*
X160185566Y-114817317D01*
X160055985Y-114710971D01*
X159949639Y-114581390D01*
X159870621Y-114433556D01*
X159821957Y-114273133D01*
X159805527Y-114106312D01*
X159821957Y-113939491D01*
X159870621Y-113779068D01*
X159949639Y-113631234D01*
X160055985Y-113501653D01*
X160185566Y-113395307D01*
X160333400Y-113316289D01*
X160333403Y-113316288D01*
X160333405Y-113316287D01*
X160493819Y-113267626D01*
X160493820Y-113267626D01*
X160493823Y-113267625D01*
X160618840Y-113255312D01*
X161502448Y-113255312D01*
X161627465Y-113267625D01*
X161627465Y-113267625D01*
G37*
G36*
X174327465Y-113216825D02*
X174327468Y-113216826D01*
X174327469Y-113216826D01*
X174487883Y-113265487D01*
X174487885Y-113265488D01*
X174487888Y-113265489D01*
X174635722Y-113344507D01*
X174765303Y-113450853D01*
X174871649Y-113580434D01*
X174950667Y-113728268D01*
X174999331Y-113888691D01*
X175015761Y-114055512D01*
X174999331Y-114222333D01*
X174950667Y-114382756D01*
X174871649Y-114530590D01*
X174765303Y-114660171D01*
X174635722Y-114766517D01*
X174487888Y-114845535D01*
X174487885Y-114845536D01*
X174487883Y-114845537D01*
X174327469Y-114894198D01*
X174327468Y-114894198D01*
X174327465Y-114894199D01*
X174202448Y-114906512D01*
X173318840Y-114906512D01*
X173193823Y-114894199D01*
X173193820Y-114894198D01*
X173193819Y-114894198D01*
X173033405Y-114845537D01*
X173033403Y-114845536D01*
X173033400Y-114845535D01*
X172885566Y-114766517D01*
X172755985Y-114660171D01*
X172649639Y-114530590D01*
X172570621Y-114382756D01*
X172521957Y-114222333D01*
X172505527Y-114055512D01*
X172521957Y-113888691D01*
X172570621Y-113728268D01*
X172649639Y-113580434D01*
X172755985Y-113450853D01*
X172885566Y-113344507D01*
X173033400Y-113265489D01*
X173033403Y-113265488D01*
X173033405Y-113265487D01*
X173193819Y-113216826D01*
X173193820Y-113216826D01*
X173193823Y-113216825D01*
X173318840Y-113204512D01*
X174202448Y-113204512D01*
X174327465Y-113216825D01*
X174327465Y-113216825D01*
G37*
G36*
X166707465Y-113216825D02*
X166707468Y-113216826D01*
X166707469Y-113216826D01*
X166867883Y-113265487D01*
X166867885Y-113265488D01*
X166867888Y-113265489D01*
X167015722Y-113344507D01*
X167145303Y-113450853D01*
X167251649Y-113580434D01*
X167330667Y-113728268D01*
X167379331Y-113888691D01*
X167395761Y-114055512D01*
X167379331Y-114222333D01*
X167330667Y-114382756D01*
X167251649Y-114530590D01*
X167145303Y-114660171D01*
X167015722Y-114766517D01*
X166867888Y-114845535D01*
X166867885Y-114845536D01*
X166867883Y-114845537D01*
X166707469Y-114894198D01*
X166707468Y-114894198D01*
X166707465Y-114894199D01*
X166582448Y-114906512D01*
X165698840Y-114906512D01*
X165573823Y-114894199D01*
X165573820Y-114894198D01*
X165573819Y-114894198D01*
X165413405Y-114845537D01*
X165413403Y-114845536D01*
X165413400Y-114845535D01*
X165265566Y-114766517D01*
X165135985Y-114660171D01*
X165029639Y-114530590D01*
X164950621Y-114382756D01*
X164901957Y-114222333D01*
X164885527Y-114055512D01*
X164901957Y-113888691D01*
X164950621Y-113728268D01*
X165029639Y-113580434D01*
X165135985Y-113450853D01*
X165265566Y-113344507D01*
X165413400Y-113265489D01*
X165413403Y-113265488D01*
X165413405Y-113265487D01*
X165573819Y-113216826D01*
X165573820Y-113216826D01*
X165573823Y-113216825D01*
X165698840Y-113204512D01*
X166582448Y-113204512D01*
X166707465Y-113216825D01*
X166707465Y-113216825D01*
G37*
G36*
X161627465Y-110727625D02*
X161627468Y-110727626D01*
X161627469Y-110727626D01*
X161787883Y-110776287D01*
X161787885Y-110776288D01*
X161787888Y-110776289D01*
X161935722Y-110855307D01*
X162065303Y-110961653D01*
X162171649Y-111091234D01*
X162250667Y-111239068D01*
X162299331Y-111399491D01*
X162315761Y-111566312D01*
X162299331Y-111733133D01*
X162250667Y-111893556D01*
X162171649Y-112041390D01*
X162065303Y-112170971D01*
X161935722Y-112277317D01*
X161787888Y-112356335D01*
X161787885Y-112356336D01*
X161787883Y-112356337D01*
X161627469Y-112404998D01*
X161627468Y-112404998D01*
X161627465Y-112404999D01*
X161502448Y-112417312D01*
X160618840Y-112417312D01*
X160493823Y-112404999D01*
X160493820Y-112404998D01*
X160493819Y-112404998D01*
X160333405Y-112356337D01*
X160333403Y-112356336D01*
X160333400Y-112356335D01*
X160185566Y-112277317D01*
X160055985Y-112170971D01*
X159949639Y-112041390D01*
X159870621Y-111893556D01*
X159821957Y-111733133D01*
X159805527Y-111566312D01*
X159821957Y-111399491D01*
X159870621Y-111239068D01*
X159949639Y-111091234D01*
X160055985Y-110961653D01*
X160185566Y-110855307D01*
X160333400Y-110776289D01*
X160333403Y-110776288D01*
X160333405Y-110776287D01*
X160493819Y-110727626D01*
X160493820Y-110727626D01*
X160493823Y-110727625D01*
X160618840Y-110715312D01*
X161502448Y-110715312D01*
X161627465Y-110727625D01*
X161627465Y-110727625D01*
G37*
G36*
X154007465Y-110727625D02*
X154007468Y-110727626D01*
X154007469Y-110727626D01*
X154167883Y-110776287D01*
X154167885Y-110776288D01*
X154167888Y-110776289D01*
X154315722Y-110855307D01*
X154445303Y-110961653D01*
X154551649Y-111091234D01*
X154630667Y-111239068D01*
X154679331Y-111399491D01*
X154695761Y-111566312D01*
X154679331Y-111733133D01*
X154630667Y-111893556D01*
X154551649Y-112041390D01*
X154445303Y-112170971D01*
X154315722Y-112277317D01*
X154167888Y-112356335D01*
X154167885Y-112356336D01*
X154167883Y-112356337D01*
X154007469Y-112404998D01*
X154007468Y-112404998D01*
X154007465Y-112404999D01*
X153882448Y-112417312D01*
X152998840Y-112417312D01*
X152873823Y-112404999D01*
X152873820Y-112404998D01*
X152873819Y-112404998D01*
X152713405Y-112356337D01*
X152713403Y-112356336D01*
X152713400Y-112356335D01*
X152565566Y-112277317D01*
X152435985Y-112170971D01*
X152329639Y-112041390D01*
X152250621Y-111893556D01*
X152201957Y-111733133D01*
X152185527Y-111566312D01*
X152201957Y-111399491D01*
X152250621Y-111239068D01*
X152329639Y-111091234D01*
X152435985Y-110961653D01*
X152565566Y-110855307D01*
X152713400Y-110776289D01*
X152713403Y-110776288D01*
X152713405Y-110776287D01*
X152873819Y-110727626D01*
X152873820Y-110727626D01*
X152873823Y-110727625D01*
X152998840Y-110715312D01*
X153882448Y-110715312D01*
X154007465Y-110727625D01*
X154007465Y-110727625D01*
G37*
G36*
X174327465Y-110676825D02*
X174327468Y-110676826D01*
X174327469Y-110676826D01*
X174487883Y-110725487D01*
X174487885Y-110725488D01*
X174487888Y-110725489D01*
X174635722Y-110804507D01*
X174765303Y-110910853D01*
X174871649Y-111040434D01*
X174950667Y-111188268D01*
X174999331Y-111348691D01*
X175015761Y-111515512D01*
X174999331Y-111682333D01*
X174950667Y-111842756D01*
X174871649Y-111990590D01*
X174765303Y-112120171D01*
X174635722Y-112226517D01*
X174487888Y-112305535D01*
X174487885Y-112305536D01*
X174487883Y-112305537D01*
X174327469Y-112354198D01*
X174327468Y-112354198D01*
X174327465Y-112354199D01*
X174202448Y-112366512D01*
X173318840Y-112366512D01*
X173193823Y-112354199D01*
X173193820Y-112354198D01*
X173193819Y-112354198D01*
X173033405Y-112305537D01*
X173033403Y-112305536D01*
X173033400Y-112305535D01*
X172885566Y-112226517D01*
X172755985Y-112120171D01*
X172649639Y-111990590D01*
X172570621Y-111842756D01*
X172521957Y-111682333D01*
X172505527Y-111515512D01*
X172521957Y-111348691D01*
X172570621Y-111188268D01*
X172649639Y-111040434D01*
X172755985Y-110910853D01*
X172885566Y-110804507D01*
X173033400Y-110725489D01*
X173033403Y-110725488D01*
X173033405Y-110725487D01*
X173193819Y-110676826D01*
X173193820Y-110676826D01*
X173193823Y-110676825D01*
X173318840Y-110664512D01*
X174202448Y-110664512D01*
X174327465Y-110676825D01*
X174327465Y-110676825D01*
G37*
G36*
X166707465Y-110676825D02*
X166707468Y-110676826D01*
X166707469Y-110676826D01*
X166867883Y-110725487D01*
X166867885Y-110725488D01*
X166867888Y-110725489D01*
X167015722Y-110804507D01*
X167145303Y-110910853D01*
X167251649Y-111040434D01*
X167330667Y-111188268D01*
X167379331Y-111348691D01*
X167395761Y-111515512D01*
X167379331Y-111682333D01*
X167330667Y-111842756D01*
X167251649Y-111990590D01*
X167145303Y-112120171D01*
X167015722Y-112226517D01*
X166867888Y-112305535D01*
X166867885Y-112305536D01*
X166867883Y-112305537D01*
X166707469Y-112354198D01*
X166707468Y-112354198D01*
X166707465Y-112354199D01*
X166582448Y-112366512D01*
X165698840Y-112366512D01*
X165573823Y-112354199D01*
X165573820Y-112354198D01*
X165573819Y-112354198D01*
X165413405Y-112305537D01*
X165413403Y-112305536D01*
X165413400Y-112305535D01*
X165265566Y-112226517D01*
X165135985Y-112120171D01*
X165029639Y-111990590D01*
X164950621Y-111842756D01*
X164901957Y-111682333D01*
X164885527Y-111515512D01*
X164901957Y-111348691D01*
X164950621Y-111188268D01*
X165029639Y-111040434D01*
X165135985Y-110910853D01*
X165265566Y-110804507D01*
X165413400Y-110725489D01*
X165413403Y-110725488D01*
X165413405Y-110725487D01*
X165573819Y-110676826D01*
X165573820Y-110676826D01*
X165573823Y-110676825D01*
X165698840Y-110664512D01*
X166582448Y-110664512D01*
X166707465Y-110676825D01*
X166707465Y-110676825D01*
G37*
G36*
X161627465Y-108187625D02*
X161627468Y-108187626D01*
X161627469Y-108187626D01*
X161787883Y-108236287D01*
X161787885Y-108236288D01*
X161787888Y-108236289D01*
X161935722Y-108315307D01*
X162065303Y-108421653D01*
X162171649Y-108551234D01*
X162250667Y-108699068D01*
X162299331Y-108859491D01*
X162315761Y-109026312D01*
X162299331Y-109193133D01*
X162250667Y-109353556D01*
X162171649Y-109501390D01*
X162065303Y-109630971D01*
X161935722Y-109737317D01*
X161787888Y-109816335D01*
X161787885Y-109816336D01*
X161787883Y-109816337D01*
X161627469Y-109864998D01*
X161627468Y-109864998D01*
X161627465Y-109864999D01*
X161502448Y-109877312D01*
X160618840Y-109877312D01*
X160493823Y-109864999D01*
X160493820Y-109864998D01*
X160493819Y-109864998D01*
X160333405Y-109816337D01*
X160333403Y-109816336D01*
X160333400Y-109816335D01*
X160185566Y-109737317D01*
X160055985Y-109630971D01*
X159949639Y-109501390D01*
X159870621Y-109353556D01*
X159821957Y-109193133D01*
X159805527Y-109026312D01*
X159821957Y-108859491D01*
X159870621Y-108699068D01*
X159949639Y-108551234D01*
X160055985Y-108421653D01*
X160185566Y-108315307D01*
X160333400Y-108236289D01*
X160333403Y-108236288D01*
X160333405Y-108236287D01*
X160493819Y-108187626D01*
X160493820Y-108187626D01*
X160493823Y-108187625D01*
X160618840Y-108175312D01*
X161502448Y-108175312D01*
X161627465Y-108187625D01*
X161627465Y-108187625D01*
G37*
G36*
X154007465Y-108187625D02*
X154007468Y-108187626D01*
X154007469Y-108187626D01*
X154167883Y-108236287D01*
X154167885Y-108236288D01*
X154167888Y-108236289D01*
X154315722Y-108315307D01*
X154445303Y-108421653D01*
X154551649Y-108551234D01*
X154630667Y-108699068D01*
X154679331Y-108859491D01*
X154695761Y-109026312D01*
X154679331Y-109193133D01*
X154630667Y-109353556D01*
X154551649Y-109501390D01*
X154445303Y-109630971D01*
X154315722Y-109737317D01*
X154167888Y-109816335D01*
X154167885Y-109816336D01*
X154167883Y-109816337D01*
X154007469Y-109864998D01*
X154007468Y-109864998D01*
X154007465Y-109864999D01*
X153882448Y-109877312D01*
X152998840Y-109877312D01*
X152873823Y-109864999D01*
X152873820Y-109864998D01*
X152873819Y-109864998D01*
X152713405Y-109816337D01*
X152713403Y-109816336D01*
X152713400Y-109816335D01*
X152565566Y-109737317D01*
X152435985Y-109630971D01*
X152329639Y-109501390D01*
X152250621Y-109353556D01*
X152201957Y-109193133D01*
X152185527Y-109026312D01*
X152201957Y-108859491D01*
X152250621Y-108699068D01*
X152329639Y-108551234D01*
X152435985Y-108421653D01*
X152565566Y-108315307D01*
X152713400Y-108236289D01*
X152713403Y-108236288D01*
X152713405Y-108236287D01*
X152873819Y-108187626D01*
X152873820Y-108187626D01*
X152873823Y-108187625D01*
X152998840Y-108175312D01*
X153882448Y-108175312D01*
X154007465Y-108187625D01*
X154007465Y-108187625D01*
G37*
G36*
X174327465Y-108136825D02*
X174327468Y-108136826D01*
X174327469Y-108136826D01*
X174487883Y-108185487D01*
X174487885Y-108185488D01*
X174487888Y-108185489D01*
X174635722Y-108264507D01*
X174765303Y-108370853D01*
X174871649Y-108500434D01*
X174950667Y-108648268D01*
X174999331Y-108808691D01*
X175015761Y-108975512D01*
X174999331Y-109142333D01*
X174950667Y-109302756D01*
X174871649Y-109450590D01*
X174765303Y-109580171D01*
X174635722Y-109686517D01*
X174487888Y-109765535D01*
X174487885Y-109765536D01*
X174487883Y-109765537D01*
X174327469Y-109814198D01*
X174327468Y-109814198D01*
X174327465Y-109814199D01*
X174202448Y-109826512D01*
X173318840Y-109826512D01*
X173193823Y-109814199D01*
X173193820Y-109814198D01*
X173193819Y-109814198D01*
X173033405Y-109765537D01*
X173033403Y-109765536D01*
X173033400Y-109765535D01*
X172885566Y-109686517D01*
X172755985Y-109580171D01*
X172649639Y-109450590D01*
X172570621Y-109302756D01*
X172521957Y-109142333D01*
X172505527Y-108975512D01*
X172521957Y-108808691D01*
X172570621Y-108648268D01*
X172649639Y-108500434D01*
X172755985Y-108370853D01*
X172885566Y-108264507D01*
X173033400Y-108185489D01*
X173033403Y-108185488D01*
X173033405Y-108185487D01*
X173193819Y-108136826D01*
X173193820Y-108136826D01*
X173193823Y-108136825D01*
X173318840Y-108124512D01*
X174202448Y-108124512D01*
X174327465Y-108136825D01*
X174327465Y-108136825D01*
G37*
G36*
X166707465Y-108136825D02*
X166707468Y-108136826D01*
X166707469Y-108136826D01*
X166867883Y-108185487D01*
X166867885Y-108185488D01*
X166867888Y-108185489D01*
X167015722Y-108264507D01*
X167145303Y-108370853D01*
X167251649Y-108500434D01*
X167330667Y-108648268D01*
X167379331Y-108808691D01*
X167395761Y-108975512D01*
X167379331Y-109142333D01*
X167330667Y-109302756D01*
X167251649Y-109450590D01*
X167145303Y-109580171D01*
X167015722Y-109686517D01*
X166867888Y-109765535D01*
X166867885Y-109765536D01*
X166867883Y-109765537D01*
X166707469Y-109814198D01*
X166707468Y-109814198D01*
X166707465Y-109814199D01*
X166582448Y-109826512D01*
X165698840Y-109826512D01*
X165573823Y-109814199D01*
X165573820Y-109814198D01*
X165573819Y-109814198D01*
X165413405Y-109765537D01*
X165413403Y-109765536D01*
X165413400Y-109765535D01*
X165265566Y-109686517D01*
X165135985Y-109580171D01*
X165029639Y-109450590D01*
X164950621Y-109302756D01*
X164901957Y-109142333D01*
X164885527Y-108975512D01*
X164901957Y-108808691D01*
X164950621Y-108648268D01*
X165029639Y-108500434D01*
X165135985Y-108370853D01*
X165265566Y-108264507D01*
X165413400Y-108185489D01*
X165413403Y-108185488D01*
X165413405Y-108185487D01*
X165573819Y-108136826D01*
X165573820Y-108136826D01*
X165573823Y-108136825D01*
X165698840Y-108124512D01*
X166582448Y-108124512D01*
X166707465Y-108136825D01*
X166707465Y-108136825D01*
G37*
G36*
X161627465Y-105647625D02*
X161627468Y-105647626D01*
X161627469Y-105647626D01*
X161787883Y-105696287D01*
X161787885Y-105696288D01*
X161787888Y-105696289D01*
X161935722Y-105775307D01*
X162065303Y-105881653D01*
X162171649Y-106011234D01*
X162250667Y-106159068D01*
X162299331Y-106319491D01*
X162315761Y-106486312D01*
X162299331Y-106653133D01*
X162250667Y-106813556D01*
X162171649Y-106961390D01*
X162065303Y-107090971D01*
X161935722Y-107197317D01*
X161787888Y-107276335D01*
X161787885Y-107276336D01*
X161787883Y-107276337D01*
X161627469Y-107324998D01*
X161627468Y-107324998D01*
X161627465Y-107324999D01*
X161502448Y-107337312D01*
X160618840Y-107337312D01*
X160493823Y-107324999D01*
X160493820Y-107324998D01*
X160493819Y-107324998D01*
X160333405Y-107276337D01*
X160333403Y-107276336D01*
X160333400Y-107276335D01*
X160185566Y-107197317D01*
X160055985Y-107090971D01*
X159949639Y-106961390D01*
X159870621Y-106813556D01*
X159821957Y-106653133D01*
X159805527Y-106486312D01*
X159821957Y-106319491D01*
X159870621Y-106159068D01*
X159949639Y-106011234D01*
X160055985Y-105881653D01*
X160185566Y-105775307D01*
X160333400Y-105696289D01*
X160333403Y-105696288D01*
X160333405Y-105696287D01*
X160493819Y-105647626D01*
X160493820Y-105647626D01*
X160493823Y-105647625D01*
X160618840Y-105635312D01*
X161502448Y-105635312D01*
X161627465Y-105647625D01*
X161627465Y-105647625D01*
G37*
G36*
X154691644Y-107337312D02*
X152189644Y-107337312D01*
X152189644Y-105635312D01*
X154691644Y-105635312D01*
X154691644Y-107337312D01*
X154691644Y-107337312D01*
G37*
G36*
X174327465Y-105596825D02*
X174327468Y-105596826D01*
X174327469Y-105596826D01*
X174487883Y-105645487D01*
X174487885Y-105645488D01*
X174487888Y-105645489D01*
X174635722Y-105724507D01*
X174765303Y-105830853D01*
X174871649Y-105960434D01*
X174950667Y-106108268D01*
X174999331Y-106268691D01*
X175015761Y-106435512D01*
X174999331Y-106602333D01*
X174950667Y-106762756D01*
X174871649Y-106910590D01*
X174765303Y-107040171D01*
X174635722Y-107146517D01*
X174487888Y-107225535D01*
X174487885Y-107225536D01*
X174487883Y-107225537D01*
X174327469Y-107274198D01*
X174327468Y-107274198D01*
X174327465Y-107274199D01*
X174202448Y-107286512D01*
X173318840Y-107286512D01*
X173193823Y-107274199D01*
X173193820Y-107274198D01*
X173193819Y-107274198D01*
X173033405Y-107225537D01*
X173033403Y-107225536D01*
X173033400Y-107225535D01*
X172885566Y-107146517D01*
X172755985Y-107040171D01*
X172649639Y-106910590D01*
X172570621Y-106762756D01*
X172521957Y-106602333D01*
X172505527Y-106435512D01*
X172521957Y-106268691D01*
X172570621Y-106108268D01*
X172649639Y-105960434D01*
X172755985Y-105830853D01*
X172885566Y-105724507D01*
X173033400Y-105645489D01*
X173033403Y-105645488D01*
X173033405Y-105645487D01*
X173193819Y-105596826D01*
X173193820Y-105596826D01*
X173193823Y-105596825D01*
X173318840Y-105584512D01*
X174202448Y-105584512D01*
X174327465Y-105596825D01*
X174327465Y-105596825D01*
G37*
G36*
X167391644Y-107286512D02*
X164889644Y-107286512D01*
X164889644Y-105584512D01*
X167391644Y-105584512D01*
X167391644Y-107286512D01*
X167391644Y-107286512D01*
G37*
G36*
X152815242Y-102204118D02*
X152881427Y-102210637D01*
X152994653Y-102244984D01*
X153051267Y-102262157D01*
X153189887Y-102336252D01*
X153207791Y-102345822D01*
X153243529Y-102375152D01*
X153344986Y-102458414D01*
X153428248Y-102559871D01*
X153457578Y-102595609D01*
X153457579Y-102595611D01*
X153541243Y-102752133D01*
X153541243Y-102752134D01*
X153592763Y-102921973D01*
X153610159Y-103098600D01*
X153592763Y-103275227D01*
X153558416Y-103388453D01*
X153541243Y-103445067D01*
X153467148Y-103583687D01*
X153457578Y-103601591D01*
X153428248Y-103637329D01*
X153344986Y-103738786D01*
X153243529Y-103822048D01*
X153207791Y-103851378D01*
X153207789Y-103851379D01*
X153051267Y-103935043D01*
X152994653Y-103952216D01*
X152881427Y-103986563D01*
X152815243Y-103993081D01*
X152749060Y-103999600D01*
X152660540Y-103999600D01*
X152594358Y-103993082D01*
X152528173Y-103986563D01*
X152414947Y-103952216D01*
X152358333Y-103935043D01*
X152201811Y-103851379D01*
X152201809Y-103851378D01*
X152166071Y-103822048D01*
X152064614Y-103738786D01*
X151981352Y-103637329D01*
X151952022Y-103601591D01*
X151942452Y-103583687D01*
X151868357Y-103445067D01*
X151851184Y-103388453D01*
X151816837Y-103275227D01*
X151799441Y-103098600D01*
X151816837Y-102921973D01*
X151868357Y-102752134D01*
X151868357Y-102752133D01*
X151952021Y-102595611D01*
X151952022Y-102595609D01*
X151981352Y-102559871D01*
X152064614Y-102458414D01*
X152166071Y-102375152D01*
X152201809Y-102345822D01*
X152219713Y-102336252D01*
X152358333Y-102262157D01*
X152414947Y-102244984D01*
X152528173Y-102210637D01*
X152594358Y-102204118D01*
X152660540Y-102197600D01*
X152749060Y-102197600D01*
X152815242Y-102204118D01*
X152815242Y-102204118D01*
G37*
G36*
X156145800Y-103999600D02*
X154343800Y-103999600D01*
X154343800Y-102197600D01*
X156145800Y-102197600D01*
X156145800Y-103999600D01*
X156145800Y-103999600D01*
G37*
G36*
X166398905Y-95186500D02*
X166507550Y-95208111D01*
X166578390Y-95237454D01*
X166707916Y-95291105D01*
X166888250Y-95411601D01*
X167041599Y-95564950D01*
X167162095Y-95745284D01*
X167215746Y-95874810D01*
X167242450Y-95939278D01*
X167245089Y-95945651D01*
X167287400Y-96158360D01*
X167287400Y-96375240D01*
X167245089Y-96587949D01*
X167162095Y-96788316D01*
X167041599Y-96968650D01*
X166888250Y-97121999D01*
X166707916Y-97242495D01*
X166578390Y-97296146D01*
X166507550Y-97325489D01*
X166401194Y-97346645D01*
X166294840Y-97367800D01*
X166077960Y-97367800D01*
X165971605Y-97346644D01*
X165865250Y-97325489D01*
X165794410Y-97296146D01*
X165664884Y-97242495D01*
X165484550Y-97121999D01*
X165331201Y-96968650D01*
X165210705Y-96788316D01*
X165127711Y-96587949D01*
X165085400Y-96375240D01*
X165085400Y-96158360D01*
X165127711Y-95945651D01*
X165130351Y-95939278D01*
X165157054Y-95874810D01*
X165210705Y-95745284D01*
X165331201Y-95564950D01*
X165484550Y-95411601D01*
X165664884Y-95291105D01*
X165794410Y-95237454D01*
X165865250Y-95208111D01*
X165973895Y-95186500D01*
X166077960Y-95165800D01*
X166294840Y-95165800D01*
X166398905Y-95186500D01*
X166398905Y-95186500D01*
G37*
G36*
X159388905Y-95186500D02*
X159497550Y-95208111D01*
X159568390Y-95237454D01*
X159697916Y-95291105D01*
X159878250Y-95411601D01*
X160031599Y-95564950D01*
X160152095Y-95745284D01*
X160205746Y-95874810D01*
X160232450Y-95939278D01*
X160235089Y-95945651D01*
X160277400Y-96158360D01*
X160277400Y-96375240D01*
X160235089Y-96587949D01*
X160152095Y-96788316D01*
X160031599Y-96968650D01*
X159878250Y-97121999D01*
X159697916Y-97242495D01*
X159568390Y-97296146D01*
X159497550Y-97325489D01*
X159391194Y-97346645D01*
X159284840Y-97367800D01*
X159067960Y-97367800D01*
X158961605Y-97346644D01*
X158855250Y-97325489D01*
X158784410Y-97296146D01*
X158654884Y-97242495D01*
X158474550Y-97121999D01*
X158321201Y-96968650D01*
X158200705Y-96788316D01*
X158117711Y-96587949D01*
X158075400Y-96375240D01*
X158075400Y-96158360D01*
X158117711Y-95945651D01*
X158120351Y-95939278D01*
X158147054Y-95874810D01*
X158200705Y-95745284D01*
X158321201Y-95564950D01*
X158474550Y-95411601D01*
X158654884Y-95291105D01*
X158784410Y-95237454D01*
X158855250Y-95208111D01*
X158963895Y-95186500D01*
X159067960Y-95165800D01*
X159284840Y-95165800D01*
X159388905Y-95186500D01*
X159388905Y-95186500D01*
G37*
G36*
X126856443Y-94292019D02*
X126922627Y-94298537D01*
X127009099Y-94324768D01*
X127092467Y-94350057D01*
X127127906Y-94369000D01*
X127248991Y-94433722D01*
X127284729Y-94463052D01*
X127386186Y-94546314D01*
X127469448Y-94647771D01*
X127498778Y-94683509D01*
X127498779Y-94683511D01*
X127582443Y-94840033D01*
X127582443Y-94840034D01*
X127633963Y-95009873D01*
X127651359Y-95186500D01*
X127633963Y-95363127D01*
X127599616Y-95476353D01*
X127582443Y-95532967D01*
X127565347Y-95564950D01*
X127498778Y-95689491D01*
X127469448Y-95725229D01*
X127386186Y-95826686D01*
X127284729Y-95909948D01*
X127248991Y-95939278D01*
X127248989Y-95939279D01*
X127092467Y-96022943D01*
X127035853Y-96040116D01*
X126922627Y-96074463D01*
X126856442Y-96080982D01*
X126790260Y-96087500D01*
X126701740Y-96087500D01*
X126635558Y-96080982D01*
X126569373Y-96074463D01*
X126456147Y-96040116D01*
X126399533Y-96022943D01*
X126243011Y-95939279D01*
X126243009Y-95939278D01*
X126207271Y-95909948D01*
X126105814Y-95826686D01*
X126022552Y-95725229D01*
X125993222Y-95689491D01*
X125926653Y-95564950D01*
X125909557Y-95532967D01*
X125892384Y-95476353D01*
X125858037Y-95363127D01*
X125840641Y-95186500D01*
X125858037Y-95009873D01*
X125909557Y-94840034D01*
X125909557Y-94840033D01*
X125993221Y-94683511D01*
X125993222Y-94683509D01*
X126022552Y-94647771D01*
X126105814Y-94546314D01*
X126207271Y-94463052D01*
X126243009Y-94433722D01*
X126364094Y-94369000D01*
X126399533Y-94350057D01*
X126482901Y-94324768D01*
X126569373Y-94298537D01*
X126635557Y-94292019D01*
X126701740Y-94285500D01*
X126790260Y-94285500D01*
X126856443Y-94292019D01*
X126856443Y-94292019D01*
G37*
G36*
X124316443Y-94292019D02*
X124382627Y-94298537D01*
X124469099Y-94324768D01*
X124552467Y-94350057D01*
X124587906Y-94369000D01*
X124708991Y-94433722D01*
X124744729Y-94463052D01*
X124846186Y-94546314D01*
X124929448Y-94647771D01*
X124958778Y-94683509D01*
X124958779Y-94683511D01*
X125042443Y-94840033D01*
X125042443Y-94840034D01*
X125093963Y-95009873D01*
X125111359Y-95186500D01*
X125093963Y-95363127D01*
X125059616Y-95476353D01*
X125042443Y-95532967D01*
X125025347Y-95564950D01*
X124958778Y-95689491D01*
X124929448Y-95725229D01*
X124846186Y-95826686D01*
X124744729Y-95909948D01*
X124708991Y-95939278D01*
X124708989Y-95939279D01*
X124552467Y-96022943D01*
X124495853Y-96040116D01*
X124382627Y-96074463D01*
X124316442Y-96080982D01*
X124250260Y-96087500D01*
X124161740Y-96087500D01*
X124095558Y-96080982D01*
X124029373Y-96074463D01*
X123916147Y-96040116D01*
X123859533Y-96022943D01*
X123703011Y-95939279D01*
X123703009Y-95939278D01*
X123667271Y-95909948D01*
X123565814Y-95826686D01*
X123482552Y-95725229D01*
X123453222Y-95689491D01*
X123386653Y-95564950D01*
X123369557Y-95532967D01*
X123352384Y-95476353D01*
X123318037Y-95363127D01*
X123300641Y-95186500D01*
X123318037Y-95009873D01*
X123369557Y-94840034D01*
X123369557Y-94840033D01*
X123453221Y-94683511D01*
X123453222Y-94683509D01*
X123482552Y-94647771D01*
X123565814Y-94546314D01*
X123667271Y-94463052D01*
X123703009Y-94433722D01*
X123824094Y-94369000D01*
X123859533Y-94350057D01*
X123942901Y-94324768D01*
X124029373Y-94298537D01*
X124095557Y-94292019D01*
X124161740Y-94285500D01*
X124250260Y-94285500D01*
X124316443Y-94292019D01*
X124316443Y-94292019D01*
G37*
G36*
X122567000Y-96087500D02*
X120765000Y-96087500D01*
X120765000Y-94285500D01*
X122567000Y-94285500D01*
X122567000Y-96087500D01*
X122567000Y-96087500D01*
G37*
G36*
X160696504Y-92886385D02*
X160865026Y-92956189D01*
X161016691Y-93057528D01*
X161145672Y-93186509D01*
X161247011Y-93338174D01*
X161316815Y-93506696D01*
X161352400Y-93685597D01*
X161352400Y-93868003D01*
X161316815Y-94046904D01*
X161247011Y-94215426D01*
X161145672Y-94367091D01*
X161016691Y-94496072D01*
X160865026Y-94597411D01*
X160696504Y-94667215D01*
X160517603Y-94702800D01*
X160335197Y-94702800D01*
X160156296Y-94667215D01*
X159987774Y-94597411D01*
X159836109Y-94496072D01*
X159707128Y-94367091D01*
X159605789Y-94215426D01*
X159535985Y-94046904D01*
X159500400Y-93868003D01*
X159500400Y-93685597D01*
X159535985Y-93506696D01*
X159605789Y-93338174D01*
X159707128Y-93186509D01*
X159836109Y-93057528D01*
X159987774Y-92956189D01*
X160156296Y-92886385D01*
X160335197Y-92850800D01*
X160517603Y-92850800D01*
X160696504Y-92886385D01*
X160696504Y-92886385D01*
G37*
G36*
X165196504Y-92886385D02*
X165365026Y-92956189D01*
X165516691Y-93057528D01*
X165645672Y-93186509D01*
X165747011Y-93338174D01*
X165816815Y-93506696D01*
X165852400Y-93685597D01*
X165852400Y-93868003D01*
X165816815Y-94046904D01*
X165747011Y-94215426D01*
X165645672Y-94367091D01*
X165516691Y-94496072D01*
X165365026Y-94597411D01*
X165196504Y-94667215D01*
X165017603Y-94702800D01*
X164835197Y-94702800D01*
X164656296Y-94667215D01*
X164487774Y-94597411D01*
X164336109Y-94496072D01*
X164207128Y-94367091D01*
X164105789Y-94215426D01*
X164035985Y-94046904D01*
X164000400Y-93868003D01*
X164000400Y-93685597D01*
X164035985Y-93506696D01*
X164105789Y-93338174D01*
X164207128Y-93186509D01*
X164336109Y-93057528D01*
X164487774Y-92956189D01*
X164656296Y-92886385D01*
X164835197Y-92850800D01*
X165017603Y-92850800D01*
X165196504Y-92886385D01*
X165196504Y-92886385D01*
G37*
G36*
X184841334Y-92365232D02*
X185050802Y-92451996D01*
X185239323Y-92577962D01*
X185399638Y-92738277D01*
X185525604Y-92926798D01*
X185612368Y-93136266D01*
X185656600Y-93358635D01*
X185656600Y-93585365D01*
X185612368Y-93807734D01*
X185525604Y-94017202D01*
X185399638Y-94205723D01*
X185239323Y-94366038D01*
X185050802Y-94492004D01*
X184841334Y-94578768D01*
X184618965Y-94623000D01*
X184392235Y-94623000D01*
X184169866Y-94578768D01*
X183960398Y-94492004D01*
X183771877Y-94366038D01*
X183611562Y-94205723D01*
X183485596Y-94017202D01*
X183398832Y-93807734D01*
X183354600Y-93585365D01*
X183354600Y-93358635D01*
X183398832Y-93136266D01*
X183485596Y-92926798D01*
X183611562Y-92738277D01*
X183771877Y-92577962D01*
X183960398Y-92451996D01*
X184169866Y-92365232D01*
X184392235Y-92321000D01*
X184618965Y-92321000D01*
X184841334Y-92365232D01*
X184841334Y-92365232D01*
G37*
G36*
X116667734Y-92111232D02*
X116877202Y-92197996D01*
X117065723Y-92323962D01*
X117226038Y-92484277D01*
X117352004Y-92672798D01*
X117438768Y-92882266D01*
X117483000Y-93104635D01*
X117483000Y-93331365D01*
X117438768Y-93553734D01*
X117352004Y-93763202D01*
X117226038Y-93951723D01*
X117065723Y-94112038D01*
X116877202Y-94238004D01*
X116667734Y-94324768D01*
X116445365Y-94369000D01*
X116218635Y-94369000D01*
X115996266Y-94324768D01*
X115786798Y-94238004D01*
X115598277Y-94112038D01*
X115437962Y-93951723D01*
X115311996Y-93763202D01*
X115225232Y-93553734D01*
X115181000Y-93331365D01*
X115181000Y-93104635D01*
X115225232Y-92882266D01*
X115311996Y-92672798D01*
X115437962Y-92484277D01*
X115598277Y-92323962D01*
X115786798Y-92197996D01*
X115996266Y-92111232D01*
X116218635Y-92067000D01*
X116445365Y-92067000D01*
X116667734Y-92111232D01*
X116667734Y-92111232D01*
G37*
G36*
X126856442Y-91752018D02*
X126922627Y-91758537D01*
X127035853Y-91792884D01*
X127092467Y-91810057D01*
X127231087Y-91884152D01*
X127248991Y-91893722D01*
X127284729Y-91923052D01*
X127386186Y-92006314D01*
X127469448Y-92107771D01*
X127498778Y-92143509D01*
X127498779Y-92143511D01*
X127582443Y-92300033D01*
X127598935Y-92354400D01*
X127633963Y-92469873D01*
X127651359Y-92646500D01*
X127633963Y-92823127D01*
X127602515Y-92926797D01*
X127582443Y-92992967D01*
X127508348Y-93131587D01*
X127498778Y-93149491D01*
X127469448Y-93185229D01*
X127386186Y-93286686D01*
X127298513Y-93358636D01*
X127248991Y-93399278D01*
X127248989Y-93399279D01*
X127092467Y-93482943D01*
X127035853Y-93500116D01*
X126922627Y-93534463D01*
X126856442Y-93540982D01*
X126790260Y-93547500D01*
X126701740Y-93547500D01*
X126635558Y-93540982D01*
X126569373Y-93534463D01*
X126456147Y-93500116D01*
X126399533Y-93482943D01*
X126243011Y-93399279D01*
X126243009Y-93399278D01*
X126193487Y-93358636D01*
X126105814Y-93286686D01*
X126022552Y-93185229D01*
X125993222Y-93149491D01*
X125983652Y-93131587D01*
X125909557Y-92992967D01*
X125889485Y-92926797D01*
X125858037Y-92823127D01*
X125840641Y-92646500D01*
X125858037Y-92469873D01*
X125893065Y-92354400D01*
X125909557Y-92300033D01*
X125993221Y-92143511D01*
X125993222Y-92143509D01*
X126022552Y-92107771D01*
X126105814Y-92006314D01*
X126207271Y-91923052D01*
X126243009Y-91893722D01*
X126260913Y-91884152D01*
X126399533Y-91810057D01*
X126456147Y-91792884D01*
X126569373Y-91758537D01*
X126635558Y-91752018D01*
X126701740Y-91745500D01*
X126790260Y-91745500D01*
X126856442Y-91752018D01*
X126856442Y-91752018D01*
G37*
G36*
X124316442Y-91752018D02*
X124382627Y-91758537D01*
X124495853Y-91792884D01*
X124552467Y-91810057D01*
X124691087Y-91884152D01*
X124708991Y-91893722D01*
X124744729Y-91923052D01*
X124846186Y-92006314D01*
X124929448Y-92107771D01*
X124958778Y-92143509D01*
X124958779Y-92143511D01*
X125042443Y-92300033D01*
X125058935Y-92354400D01*
X125093963Y-92469873D01*
X125111359Y-92646500D01*
X125093963Y-92823127D01*
X125062515Y-92926797D01*
X125042443Y-92992967D01*
X124968348Y-93131587D01*
X124958778Y-93149491D01*
X124929448Y-93185229D01*
X124846186Y-93286686D01*
X124758513Y-93358636D01*
X124708991Y-93399278D01*
X124708989Y-93399279D01*
X124552467Y-93482943D01*
X124495853Y-93500116D01*
X124382627Y-93534463D01*
X124316442Y-93540982D01*
X124250260Y-93547500D01*
X124161740Y-93547500D01*
X124095558Y-93540982D01*
X124029373Y-93534463D01*
X123916147Y-93500116D01*
X123859533Y-93482943D01*
X123703011Y-93399279D01*
X123703009Y-93399278D01*
X123653487Y-93358636D01*
X123565814Y-93286686D01*
X123482552Y-93185229D01*
X123453222Y-93149491D01*
X123443652Y-93131587D01*
X123369557Y-92992967D01*
X123349485Y-92926797D01*
X123318037Y-92823127D01*
X123300641Y-92646500D01*
X123318037Y-92469873D01*
X123353065Y-92354400D01*
X123369557Y-92300033D01*
X123453221Y-92143511D01*
X123453222Y-92143509D01*
X123482552Y-92107771D01*
X123565814Y-92006314D01*
X123667271Y-91923052D01*
X123703009Y-91893722D01*
X123720913Y-91884152D01*
X123859533Y-91810057D01*
X123916147Y-91792884D01*
X124029373Y-91758537D01*
X124095558Y-91752018D01*
X124161740Y-91745500D01*
X124250260Y-91745500D01*
X124316442Y-91752018D01*
X124316442Y-91752018D01*
G37*
G36*
X121776442Y-91752018D02*
X121842627Y-91758537D01*
X121955853Y-91792884D01*
X122012467Y-91810057D01*
X122151087Y-91884152D01*
X122168991Y-91893722D01*
X122204729Y-91923052D01*
X122306186Y-92006314D01*
X122389448Y-92107771D01*
X122418778Y-92143509D01*
X122418779Y-92143511D01*
X122502443Y-92300033D01*
X122518935Y-92354400D01*
X122553963Y-92469873D01*
X122571359Y-92646500D01*
X122553963Y-92823127D01*
X122522515Y-92926797D01*
X122502443Y-92992967D01*
X122428348Y-93131587D01*
X122418778Y-93149491D01*
X122389448Y-93185229D01*
X122306186Y-93286686D01*
X122218513Y-93358636D01*
X122168991Y-93399278D01*
X122168989Y-93399279D01*
X122012467Y-93482943D01*
X121955853Y-93500116D01*
X121842627Y-93534463D01*
X121776442Y-93540982D01*
X121710260Y-93547500D01*
X121621740Y-93547500D01*
X121555558Y-93540982D01*
X121489373Y-93534463D01*
X121376147Y-93500116D01*
X121319533Y-93482943D01*
X121163011Y-93399279D01*
X121163009Y-93399278D01*
X121113487Y-93358636D01*
X121025814Y-93286686D01*
X120942552Y-93185229D01*
X120913222Y-93149491D01*
X120903652Y-93131587D01*
X120829557Y-92992967D01*
X120809485Y-92926797D01*
X120778037Y-92823127D01*
X120760641Y-92646500D01*
X120778037Y-92469873D01*
X120813065Y-92354400D01*
X120829557Y-92300033D01*
X120913221Y-92143511D01*
X120913222Y-92143509D01*
X120942552Y-92107771D01*
X121025814Y-92006314D01*
X121127271Y-91923052D01*
X121163009Y-91893722D01*
X121180913Y-91884152D01*
X121319533Y-91810057D01*
X121376147Y-91792884D01*
X121489373Y-91758537D01*
X121555558Y-91752018D01*
X121621740Y-91745500D01*
X121710260Y-91745500D01*
X121776442Y-91752018D01*
X121776442Y-91752018D01*
G37*
G36*
X151519842Y-91459918D02*
X151586027Y-91466437D01*
X151699253Y-91500784D01*
X151755867Y-91517957D01*
X151894487Y-91592052D01*
X151912391Y-91601622D01*
X151948129Y-91630952D01*
X152049586Y-91714214D01*
X152128241Y-91810057D01*
X152162178Y-91851409D01*
X152162179Y-91851411D01*
X152245843Y-92007933D01*
X152245843Y-92007934D01*
X152297363Y-92177773D01*
X152314759Y-92354400D01*
X152297363Y-92531027D01*
X152283126Y-92577960D01*
X152245843Y-92700867D01*
X152225845Y-92738280D01*
X152162178Y-92857391D01*
X152141763Y-92882266D01*
X152049586Y-92994586D01*
X151972886Y-93057531D01*
X151912391Y-93107178D01*
X151912389Y-93107179D01*
X151755867Y-93190843D01*
X151699253Y-93208016D01*
X151586027Y-93242363D01*
X151519843Y-93248881D01*
X151453660Y-93255400D01*
X151365140Y-93255400D01*
X151298958Y-93248882D01*
X151232773Y-93242363D01*
X151119547Y-93208016D01*
X151062933Y-93190843D01*
X150906411Y-93107179D01*
X150906409Y-93107178D01*
X150845914Y-93057531D01*
X150769214Y-92994586D01*
X150677037Y-92882266D01*
X150656622Y-92857391D01*
X150592955Y-92738280D01*
X150572957Y-92700867D01*
X150535674Y-92577960D01*
X150521437Y-92531027D01*
X150504041Y-92354400D01*
X150521437Y-92177773D01*
X150572957Y-92007934D01*
X150572957Y-92007933D01*
X150656621Y-91851411D01*
X150656622Y-91851409D01*
X150690559Y-91810057D01*
X150769214Y-91714214D01*
X150870671Y-91630952D01*
X150906409Y-91601622D01*
X150924313Y-91592052D01*
X151062933Y-91517957D01*
X151119547Y-91500784D01*
X151232773Y-91466437D01*
X151298958Y-91459918D01*
X151365140Y-91453400D01*
X151453660Y-91453400D01*
X151519842Y-91459918D01*
X151519842Y-91459918D01*
G37*
G36*
X149770400Y-93255400D02*
X147968400Y-93255400D01*
X147968400Y-91453400D01*
X149770400Y-91453400D01*
X149770400Y-93255400D01*
X149770400Y-93255400D01*
G37*
G36*
X154059842Y-91459918D02*
X154126027Y-91466437D01*
X154239253Y-91500784D01*
X154295867Y-91517957D01*
X154434487Y-91592052D01*
X154452391Y-91601622D01*
X154488129Y-91630952D01*
X154589586Y-91714214D01*
X154668241Y-91810057D01*
X154702178Y-91851409D01*
X154702179Y-91851411D01*
X154785843Y-92007933D01*
X154785843Y-92007934D01*
X154837363Y-92177773D01*
X154854759Y-92354400D01*
X154837363Y-92531027D01*
X154823126Y-92577960D01*
X154785843Y-92700867D01*
X154765845Y-92738280D01*
X154702178Y-92857391D01*
X154681763Y-92882266D01*
X154589586Y-92994586D01*
X154512886Y-93057531D01*
X154452391Y-93107178D01*
X154452389Y-93107179D01*
X154295867Y-93190843D01*
X154239253Y-93208016D01*
X154126027Y-93242363D01*
X154059843Y-93248881D01*
X153993660Y-93255400D01*
X153905140Y-93255400D01*
X153838958Y-93248882D01*
X153772773Y-93242363D01*
X153659547Y-93208016D01*
X153602933Y-93190843D01*
X153446411Y-93107179D01*
X153446409Y-93107178D01*
X153385914Y-93057531D01*
X153309214Y-92994586D01*
X153217037Y-92882266D01*
X153196622Y-92857391D01*
X153132955Y-92738280D01*
X153112957Y-92700867D01*
X153075674Y-92577960D01*
X153061437Y-92531027D01*
X153044041Y-92354400D01*
X153061437Y-92177773D01*
X153112957Y-92007934D01*
X153112957Y-92007933D01*
X153196621Y-91851411D01*
X153196622Y-91851409D01*
X153230559Y-91810057D01*
X153309214Y-91714214D01*
X153410671Y-91630952D01*
X153446409Y-91601622D01*
X153464313Y-91592052D01*
X153602933Y-91517957D01*
X153659547Y-91500784D01*
X153772773Y-91466437D01*
X153838958Y-91459918D01*
X153905140Y-91453400D01*
X153993660Y-91453400D01*
X154059842Y-91459918D01*
X154059842Y-91459918D01*
G37*
M02*
