M48
;DRILL file {KiCad (6.0.0-rc1-dev-1030-g80d50d98b)} date Monday, February 11, 2019 at 10:54:34 PM
;FORMAT={-:-/ absolute / metric / decimal}
FMAT,2
METRIC
T1C0.254
T2C0.800
T3C0.990
T4C1.000
T5C1.300
T6C2.200
%
G90
G05
M71
T1
X119.761Y-93.447
X119.786Y-91.084
X119.786Y-92.177
X119.786Y-94.894
X119.786Y-96.037
X119.786Y-97.307
X119.786Y-98.628
X119.786Y-130.708
X119.786Y-132.131
X119.786Y-133.706
X119.812Y-127.787
X119.812Y-129.261
X119.837Y-122.072
X119.837Y-123.596
X119.837Y-124.993
X119.837Y-126.289
X120.094Y-120.902
X121.768Y-111.506
X121.793Y-115.265
X121.818Y-107.696
X121.869Y-108.966
X122.149Y-112.776
X122.174Y-117.856
X122.987Y-123.8
X123.622Y-98.781
X124.892Y-98.704
X126.365Y-108.102
X126.416Y-114.097
X126.441Y-111.15
X126.949Y-122.326
X127.178Y-108.864
X127.203Y-107.29
X127.203Y-110.338
X127.203Y-111.887
X127.203Y-113.335
X127.203Y-114.884
X127.991Y-114.071
X128.016Y-108.128
X128.016Y-111.15
X128.016Y-130.073
X128.702Y-98.831
X129.413Y-108.077
X129.413Y-114.122
X129.464Y-111.15
X129.972Y-98.781
X130.175Y-110.312
X130.175Y-111.887
X130.175Y-113.309
X130.2Y-107.315
X130.2Y-108.864
X130.2Y-114.884
X130.683Y-124.612
X130.708Y-129.972
X130.962Y-111.15
X131.013Y-108.077
X131.013Y-114.122
X131.775Y-92.202
X132.41Y-108.077
X132.41Y-114.122
X132.436Y-111.125
X132.639Y-94.259
X133.027Y-98.882
X133.198Y-110.312
X133.198Y-111.887
X133.198Y-113.309
X133.198Y-114.884
X133.223Y-107.29
X133.223Y-108.864
X133.655Y-96.723
X133.985Y-114.097
X134.01Y-108.052
X134.01Y-111.15
X134.29Y-93.142
X137.058Y-128.727
X137.77Y-107.696
X137.77Y-105.181
X137.871Y-100.711
X138.074Y-114.046
X138.633Y-108.001
X138.684Y-112.776
X138.707Y-98.169
X138.967Y-101.959
X139.7Y-100.584
X140.081Y-110.109
X140.694Y-100.564
X140.818Y-97.561
X141.122Y-113.208
X142.189Y-92.329
X142.748Y-93.993
X143.561Y-105.715
X143.637Y-100.686
X144.424Y-92.71
X144.424Y-127.102
X144.856Y-111.328
X144.882Y-100.66
X145.771Y-101.905
X145.771Y-105.867
X145.872Y-97.714
X146.558Y-96.825
X146.66Y-123.479
X148.793Y-122.403
X148.869Y-119.126
X149.606Y-112.166
X149.708Y-121.717
X150.119Y-107.183
X150.952Y-114.325
X150.952Y-115.354
X150.952Y-116.408
X151.232Y-96.672
X153.492Y-132.499
X154.813Y-95.86
X155.613Y-132.499
X155.905Y-110.287
X155.905Y-111.887
X156.337Y-97.612
X156.553Y-103.353
X156.997Y-124.257
X157.632Y-91.872
X157.632Y-125.73
X157.772Y-132.474
X159.957Y-132.461
X162.509Y-91.923
X162.585Y-95.555
X163.716Y-114.414
X163.728Y-115.303
X163.728Y-116.243
X167.043Y-132.461
X168.986Y-132.461
X169.672Y-124.155
X169.824Y-107.213
X170.129Y-125.628
X170.853Y-132.461
X174.218Y-94.297
X175.945Y-97.726
X175.971Y-96.507
X176.403Y-132.461
X176.555Y-97.091
X177.114Y-94.297
X177.139Y-96.482
X177.139Y-97.701
X178.003Y-114.706
X178.359Y-132.461
X178.371Y-92.177
X178.688Y-109.816
X178.688Y-110.959
X179.272Y-110.375
X179.831Y-109.816
X179.882Y-110.933
X180.454Y-92.202
X180.454Y-132.461
X181.837Y-108.114
X182.091Y-110.984
X182.41Y-132.423
X182.474Y-92.202
X183.439Y-110.871
X184.442Y-132.423
T2
X166.141Y-106.436
X166.141Y-108.976
X166.141Y-111.516
X166.141Y-114.056
X166.141Y-116.596
X166.141Y-119.136
X166.141Y-121.676
X166.141Y-124.216
X173.761Y-106.436
X173.761Y-108.976
X173.761Y-111.516
X173.761Y-114.056
X173.761Y-116.596
X173.761Y-119.136
X173.761Y-121.676
X173.761Y-124.216
X153.441Y-106.486
X153.441Y-109.026
X153.441Y-111.566
X153.441Y-114.106
X153.441Y-116.646
X153.441Y-119.186
X153.441Y-121.726
X153.441Y-124.266
X161.061Y-106.486
X161.061Y-109.026
X161.061Y-111.566
X161.061Y-114.106
X161.061Y-116.646
X161.061Y-119.186
X161.061Y-121.726
X161.061Y-124.266
T3
X160.426Y-93.777
X164.926Y-93.777
T4
X152.705Y-103.099
X155.245Y-103.099
X124.834Y-125.374
X124.834Y-127.914
X134.137Y-124.435
X134.137Y-126.975
X121.666Y-92.646
X121.666Y-95.186
X124.206Y-92.646
X124.206Y-95.186
X126.746Y-92.646
X126.746Y-95.186
X125.603Y-133.096
X128.143Y-133.096
X130.683Y-133.096
X134.341Y-133.096
X136.881Y-133.096
X140.792Y-129.235
X140.792Y-131.775
X166.293Y-128.584
X168.833Y-128.584
X171.373Y-128.584
X173.913Y-128.584
X148.844Y-124.943
X148.844Y-127.483
X148.844Y-130.023
X148.844Y-132.563
X148.869Y-92.354
X151.409Y-92.354
X153.949Y-92.354
X153.491Y-128.584
X156.031Y-128.584
X158.571Y-128.584
X161.111Y-128.584
T5
X159.176Y-96.267
X166.186Y-96.267
T6
X184.506Y-93.472
X116.332Y-93.218
X173.66Y-132.944
X116.281Y-132.639
T4
G00X180.819Y-121.072
M15
G01X183.519Y-121.072
M16
G05
G00X181.069Y-127.072
M15
G01X183.269Y-127.072
M16
G05
T0
M30
