G04 #@! TF.GenerationSoftware,KiCad,Pcbnew,(6.0.0-rc1-dev-1030-g80d50d98b)*
G04 #@! TF.CreationDate,2019-02-11T22:54:28-07:00*
G04 #@! TF.ProjectId,airmed_board_w2.0,6169726D65645F626F6172645F77322E,rev?*
G04 #@! TF.SameCoordinates,Original*
G04 #@! TF.FileFunction,Legend,Bot*
G04 #@! TF.FilePolarity,Positive*
%FSLAX46Y46*%
G04 Gerber Fmt 4.6, Leading zero omitted, Abs format (unit mm)*
G04 Created by KiCad (PCBNEW (6.0.0-rc1-dev-1030-g80d50d98b)) date Monday, February 11, 2019 at 10:54:28 PM*
%MOMM*%
%LPD*%
G01*
G04 APERTURE LIST*
%ADD10C,0.300000*%
%ADD11C,0.050000*%
%ADD12C,0.010000*%
%ADD13C,0.150000*%
G04 APERTURE END LIST*
D10*
X183658400Y-98733600D02*
X183658400Y-99447885D01*
X184086971Y-98590742D02*
X182586971Y-99090742D01*
X184086971Y-99590742D01*
X183515542Y-100090742D02*
X183515542Y-101233600D01*
X182586971Y-101805028D02*
X184086971Y-102162171D01*
X183015542Y-102447885D01*
X184086971Y-102733600D01*
X182586971Y-103090742D01*
X182729828Y-103590742D02*
X182658400Y-103662171D01*
X182586971Y-103805028D01*
X182586971Y-104162171D01*
X182658400Y-104305028D01*
X182729828Y-104376457D01*
X182872685Y-104447885D01*
X183015542Y-104447885D01*
X183229828Y-104376457D01*
X184086971Y-103519314D01*
X184086971Y-104447885D01*
X183944114Y-105090742D02*
X184015542Y-105162171D01*
X184086971Y-105090742D01*
X184015542Y-105019314D01*
X183944114Y-105090742D01*
X184086971Y-105090742D01*
X182586971Y-106090742D02*
X182586971Y-106233600D01*
X182658400Y-106376457D01*
X182729828Y-106447885D01*
X182872685Y-106519314D01*
X183158400Y-106590742D01*
X183515542Y-106590742D01*
X183801257Y-106519314D01*
X183944114Y-106447885D01*
X184015542Y-106376457D01*
X184086971Y-106233600D01*
X184086971Y-106090742D01*
X184015542Y-105947885D01*
X183944114Y-105876457D01*
X183801257Y-105805028D01*
X183515542Y-105733600D01*
X183158400Y-105733600D01*
X182872685Y-105805028D01*
X182729828Y-105876457D01*
X182658400Y-105947885D01*
X182586971Y-106090742D01*
X183944114Y-107233600D02*
X184015542Y-107305028D01*
X184086971Y-107233600D01*
X184015542Y-107162171D01*
X183944114Y-107233600D01*
X184086971Y-107233600D01*
X184086971Y-108733600D02*
X184086971Y-107876457D01*
X184086971Y-108305028D02*
X182586971Y-108305028D01*
X182801257Y-108162171D01*
X182944114Y-108019314D01*
X183015542Y-107876457D01*
X185851257Y-97555028D02*
X185851257Y-97055028D01*
X186636971Y-97055028D02*
X185136971Y-97055028D01*
X185136971Y-97769314D01*
X186565542Y-98912171D02*
X186636971Y-98769314D01*
X186636971Y-98483600D01*
X186565542Y-98340742D01*
X186422685Y-98269314D01*
X185851257Y-98269314D01*
X185708400Y-98340742D01*
X185636971Y-98483600D01*
X185636971Y-98769314D01*
X185708400Y-98912171D01*
X185851257Y-98983600D01*
X185994114Y-98983600D01*
X186136971Y-98269314D01*
X186636971Y-99626457D02*
X185136971Y-99626457D01*
X185708400Y-99626457D02*
X185636971Y-99769314D01*
X185636971Y-100055028D01*
X185708400Y-100197885D01*
X185779828Y-100269314D01*
X185922685Y-100340742D01*
X186351257Y-100340742D01*
X186494114Y-100269314D01*
X186565542Y-100197885D01*
X186636971Y-100055028D01*
X186636971Y-99769314D01*
X186565542Y-99626457D01*
X186565542Y-101055028D02*
X186636971Y-101055028D01*
X186779828Y-100983600D01*
X186851257Y-100912171D01*
X186636971Y-102912171D02*
X186636971Y-103197885D01*
X186565542Y-103340742D01*
X186494114Y-103412171D01*
X186279828Y-103555028D01*
X185994114Y-103626457D01*
X185422685Y-103626457D01*
X185279828Y-103555028D01*
X185208400Y-103483600D01*
X185136971Y-103340742D01*
X185136971Y-103055028D01*
X185208400Y-102912171D01*
X185279828Y-102840742D01*
X185422685Y-102769314D01*
X185779828Y-102769314D01*
X185922685Y-102840742D01*
X185994114Y-102912171D01*
X186065542Y-103055028D01*
X186065542Y-103340742D01*
X185994114Y-103483600D01*
X185922685Y-103555028D01*
X185779828Y-103626457D01*
X185279828Y-105340742D02*
X185208400Y-105412171D01*
X185136971Y-105555028D01*
X185136971Y-105912171D01*
X185208400Y-106055028D01*
X185279828Y-106126457D01*
X185422685Y-106197885D01*
X185565542Y-106197885D01*
X185779828Y-106126457D01*
X186636971Y-105269314D01*
X186636971Y-106197885D01*
X185136971Y-107126457D02*
X185136971Y-107269314D01*
X185208400Y-107412171D01*
X185279828Y-107483600D01*
X185422685Y-107555028D01*
X185708400Y-107626457D01*
X186065542Y-107626457D01*
X186351257Y-107555028D01*
X186494114Y-107483600D01*
X186565542Y-107412171D01*
X186636971Y-107269314D01*
X186636971Y-107126457D01*
X186565542Y-106983600D01*
X186494114Y-106912171D01*
X186351257Y-106840742D01*
X186065542Y-106769314D01*
X185708400Y-106769314D01*
X185422685Y-106840742D01*
X185279828Y-106912171D01*
X185208400Y-106983600D01*
X185136971Y-107126457D01*
X186636971Y-109055028D02*
X186636971Y-108197885D01*
X186636971Y-108626457D02*
X185136971Y-108626457D01*
X185351257Y-108483600D01*
X185494114Y-108340742D01*
X185565542Y-108197885D01*
X186636971Y-109769314D02*
X186636971Y-110055028D01*
X186565542Y-110197885D01*
X186494114Y-110269314D01*
X186279828Y-110412171D01*
X185994114Y-110483600D01*
X185422685Y-110483600D01*
X185279828Y-110412171D01*
X185208400Y-110340742D01*
X185136971Y-110197885D01*
X185136971Y-109912171D01*
X185208400Y-109769314D01*
X185279828Y-109697885D01*
X185422685Y-109626457D01*
X185779828Y-109626457D01*
X185922685Y-109697885D01*
X185994114Y-109769314D01*
X186065542Y-109912171D01*
X186065542Y-110197885D01*
X185994114Y-110340742D01*
X185922685Y-110412171D01*
X185779828Y-110483600D01*
D11*
X113487200Y-135255000D02*
X113487200Y-90474800D01*
X187934600Y-135382000D02*
X113487200Y-135255000D01*
X187934600Y-90500200D02*
X187934600Y-135382000D01*
X113487200Y-90474800D02*
X187934600Y-90500200D01*
D12*
G04 #@! TO.C,G\002A\002A\002A*
G36*
X175743937Y-104212190D02*
X175743937Y-107139874D01*
X177802674Y-107139874D01*
X177802674Y-104212190D01*
X180676884Y-104212190D01*
X180676884Y-102153453D01*
X177802674Y-102153453D01*
X177802674Y-99319348D01*
X175743937Y-99319348D01*
X175743937Y-102153453D01*
X172949937Y-102153453D01*
X172949937Y-104212190D01*
X175743937Y-104212190D01*
X175743937Y-104212190D01*
G37*
X175743937Y-104212190D02*
X175743937Y-107139874D01*
X177802674Y-107139874D01*
X177802674Y-104212190D01*
X180676884Y-104212190D01*
X180676884Y-102153453D01*
X177802674Y-102153453D01*
X177802674Y-99319348D01*
X175743937Y-99319348D01*
X175743937Y-102153453D01*
X172949937Y-102153453D01*
X172949937Y-104212190D01*
X175743937Y-104212190D01*
G36*
X178257165Y-100234518D02*
X178280175Y-100403496D01*
X178322029Y-100561954D01*
X178342861Y-100618194D01*
X178390106Y-100720274D01*
X178446516Y-100811515D01*
X178517697Y-100900150D01*
X178578210Y-100963949D01*
X178635998Y-101019722D01*
X178685862Y-101061695D01*
X178737045Y-101096567D01*
X178798787Y-101131039D01*
X178832210Y-101148070D01*
X178995243Y-101216199D01*
X179166490Y-101262785D01*
X179342530Y-101288101D01*
X179519941Y-101292422D01*
X179695302Y-101276020D01*
X179865190Y-101239171D01*
X180026185Y-101182146D01*
X180174864Y-101105222D01*
X180279173Y-101032305D01*
X180396202Y-100922395D01*
X180494543Y-100794050D01*
X180573330Y-100648768D01*
X180631698Y-100488046D01*
X180657967Y-100377619D01*
X180669085Y-100294434D01*
X180674904Y-100193993D01*
X180675534Y-100085225D01*
X180671088Y-99977060D01*
X180661674Y-99878425D01*
X180650982Y-99813979D01*
X180602859Y-99645432D01*
X180533432Y-99492823D01*
X180443302Y-99356756D01*
X180333069Y-99237834D01*
X180203332Y-99136663D01*
X180054692Y-99053848D01*
X179887749Y-98989991D01*
X179812041Y-98968901D01*
X179733765Y-98954490D01*
X179636735Y-98944522D01*
X179528570Y-98939070D01*
X179467042Y-98938594D01*
X179467042Y-99572188D01*
X179625325Y-99579315D01*
X179761667Y-99601109D01*
X179876875Y-99638188D01*
X179971756Y-99691170D01*
X180047118Y-99760672D01*
X180103767Y-99847314D01*
X180142511Y-99951712D01*
X180164157Y-100074486D01*
X180166989Y-100108085D01*
X180165848Y-100130929D01*
X180161539Y-100171345D01*
X180155161Y-100219392D01*
X180127142Y-100333880D01*
X180078581Y-100431516D01*
X180009407Y-100512346D01*
X179919549Y-100576418D01*
X179808936Y-100623778D01*
X179677496Y-100654473D01*
X179525158Y-100668549D01*
X179467042Y-100669558D01*
X179308300Y-100661446D01*
X179170578Y-100637028D01*
X179053615Y-100596184D01*
X178957150Y-100538793D01*
X178880920Y-100464733D01*
X178824665Y-100373884D01*
X178823826Y-100372077D01*
X178807849Y-100335796D01*
X178797015Y-100304295D01*
X178790331Y-100270955D01*
X178786806Y-100229158D01*
X178785447Y-100172286D01*
X178785253Y-100114769D01*
X178785628Y-100042009D01*
X178787382Y-99989604D01*
X178791458Y-99951176D01*
X178798797Y-99920344D01*
X178810342Y-99890732D01*
X178821975Y-99866203D01*
X178875422Y-99778661D01*
X178942557Y-99707768D01*
X179025229Y-99652682D01*
X179125287Y-99612559D01*
X179244579Y-99586558D01*
X179384954Y-99573835D01*
X179467042Y-99572188D01*
X179467042Y-98938594D01*
X179416895Y-98938206D01*
X179309329Y-98942004D01*
X179213496Y-98950538D01*
X179142958Y-98962469D01*
X178968195Y-99014685D01*
X178810660Y-99086699D01*
X178671058Y-99177866D01*
X178550095Y-99287543D01*
X178448477Y-99415084D01*
X178366909Y-99559847D01*
X178306097Y-99721186D01*
X178303990Y-99728376D01*
X178268793Y-99890568D01*
X178253278Y-100061412D01*
X178257165Y-100234518D01*
X178257165Y-100234518D01*
G37*
X178257165Y-100234518D02*
X178280175Y-100403496D01*
X178322029Y-100561954D01*
X178342861Y-100618194D01*
X178390106Y-100720274D01*
X178446516Y-100811515D01*
X178517697Y-100900150D01*
X178578210Y-100963949D01*
X178635998Y-101019722D01*
X178685862Y-101061695D01*
X178737045Y-101096567D01*
X178798787Y-101131039D01*
X178832210Y-101148070D01*
X178995243Y-101216199D01*
X179166490Y-101262785D01*
X179342530Y-101288101D01*
X179519941Y-101292422D01*
X179695302Y-101276020D01*
X179865190Y-101239171D01*
X180026185Y-101182146D01*
X180174864Y-101105222D01*
X180279173Y-101032305D01*
X180396202Y-100922395D01*
X180494543Y-100794050D01*
X180573330Y-100648768D01*
X180631698Y-100488046D01*
X180657967Y-100377619D01*
X180669085Y-100294434D01*
X180674904Y-100193993D01*
X180675534Y-100085225D01*
X180671088Y-99977060D01*
X180661674Y-99878425D01*
X180650982Y-99813979D01*
X180602859Y-99645432D01*
X180533432Y-99492823D01*
X180443302Y-99356756D01*
X180333069Y-99237834D01*
X180203332Y-99136663D01*
X180054692Y-99053848D01*
X179887749Y-98989991D01*
X179812041Y-98968901D01*
X179733765Y-98954490D01*
X179636735Y-98944522D01*
X179528570Y-98939070D01*
X179467042Y-98938594D01*
X179467042Y-99572188D01*
X179625325Y-99579315D01*
X179761667Y-99601109D01*
X179876875Y-99638188D01*
X179971756Y-99691170D01*
X180047118Y-99760672D01*
X180103767Y-99847314D01*
X180142511Y-99951712D01*
X180164157Y-100074486D01*
X180166989Y-100108085D01*
X180165848Y-100130929D01*
X180161539Y-100171345D01*
X180155161Y-100219392D01*
X180127142Y-100333880D01*
X180078581Y-100431516D01*
X180009407Y-100512346D01*
X179919549Y-100576418D01*
X179808936Y-100623778D01*
X179677496Y-100654473D01*
X179525158Y-100668549D01*
X179467042Y-100669558D01*
X179308300Y-100661446D01*
X179170578Y-100637028D01*
X179053615Y-100596184D01*
X178957150Y-100538793D01*
X178880920Y-100464733D01*
X178824665Y-100373884D01*
X178823826Y-100372077D01*
X178807849Y-100335796D01*
X178797015Y-100304295D01*
X178790331Y-100270955D01*
X178786806Y-100229158D01*
X178785447Y-100172286D01*
X178785253Y-100114769D01*
X178785628Y-100042009D01*
X178787382Y-99989604D01*
X178791458Y-99951176D01*
X178798797Y-99920344D01*
X178810342Y-99890732D01*
X178821975Y-99866203D01*
X178875422Y-99778661D01*
X178942557Y-99707768D01*
X179025229Y-99652682D01*
X179125287Y-99612559D01*
X179244579Y-99586558D01*
X179384954Y-99573835D01*
X179467042Y-99572188D01*
X179467042Y-98938594D01*
X179416895Y-98938206D01*
X179309329Y-98942004D01*
X179213496Y-98950538D01*
X179142958Y-98962469D01*
X178968195Y-99014685D01*
X178810660Y-99086699D01*
X178671058Y-99177866D01*
X178550095Y-99287543D01*
X178448477Y-99415084D01*
X178366909Y-99559847D01*
X178306097Y-99721186D01*
X178303990Y-99728376D01*
X178268793Y-99890568D01*
X178253278Y-100061412D01*
X178257165Y-100234518D01*
G36*
X178261099Y-95085964D02*
X178283752Y-95233060D01*
X178290220Y-95262611D01*
X178334751Y-95403031D01*
X178398913Y-95526317D01*
X178481738Y-95631428D01*
X178582253Y-95717322D01*
X178699490Y-95782960D01*
X178811990Y-95822162D01*
X178857166Y-95832692D01*
X178908436Y-95841662D01*
X178967956Y-95849161D01*
X179037885Y-95855279D01*
X179120379Y-95860104D01*
X179217596Y-95863725D01*
X179331694Y-95866232D01*
X179464830Y-95867713D01*
X179619161Y-95868259D01*
X179796845Y-95867957D01*
X179908200Y-95867447D01*
X180616726Y-95863611D01*
X180616726Y-95288769D01*
X180519625Y-95268640D01*
X180422523Y-95248510D01*
X180462088Y-95208482D01*
X180510799Y-95148506D01*
X180559007Y-95069964D01*
X180602337Y-94980743D01*
X180632498Y-94901085D01*
X180646521Y-94854906D01*
X180656517Y-94812014D01*
X180663310Y-94765826D01*
X180667723Y-94709757D01*
X180670581Y-94637226D01*
X180671810Y-94586927D01*
X180672779Y-94486072D01*
X180670637Y-94406258D01*
X180665085Y-94341937D01*
X180655821Y-94287561D01*
X180655507Y-94286137D01*
X180614965Y-94155721D01*
X180555563Y-94044026D01*
X180477814Y-93951548D01*
X180382233Y-93878787D01*
X180269334Y-93826239D01*
X180148832Y-93795877D01*
X180079926Y-93789716D01*
X179995899Y-93790059D01*
X179981726Y-93791066D01*
X179981726Y-94408276D01*
X180066091Y-94416226D01*
X180132054Y-94440997D01*
X180180574Y-94483831D01*
X180212612Y-94545969D01*
X180229126Y-94628653D01*
X180231165Y-94731022D01*
X180227397Y-94794913D01*
X180220613Y-94842680D01*
X180208241Y-94884934D01*
X180187711Y-94932284D01*
X180177112Y-94954070D01*
X180114312Y-95054522D01*
X180034607Y-95134694D01*
X179936190Y-95196376D01*
X179928253Y-95200189D01*
X179893689Y-95215122D01*
X179860238Y-95225421D01*
X179821248Y-95232163D01*
X179770070Y-95236429D01*
X179700053Y-95239297D01*
X179684279Y-95239767D01*
X179603662Y-95241004D01*
X179548384Y-95239380D01*
X179518923Y-95234920D01*
X179513832Y-95230742D01*
X179523556Y-95211125D01*
X179526158Y-95209202D01*
X179538761Y-95190206D01*
X179555132Y-95148328D01*
X179574249Y-95086990D01*
X179595091Y-95009615D01*
X179616638Y-94919625D01*
X179628063Y-94867664D01*
X179658644Y-94739113D01*
X179691073Y-94635171D01*
X179726986Y-94553710D01*
X179768021Y-94492604D01*
X179815816Y-94449725D01*
X179872008Y-94422946D01*
X179938236Y-94410140D01*
X179981726Y-94408276D01*
X179981726Y-93791066D01*
X179907413Y-93796348D01*
X179825133Y-93808021D01*
X179794568Y-93814496D01*
X179681421Y-93854974D01*
X179577102Y-93918449D01*
X179485723Y-94001598D01*
X179411393Y-94101101D01*
X179388365Y-94142725D01*
X179362723Y-94197282D01*
X179340342Y-94253958D01*
X179320166Y-94316811D01*
X179301142Y-94389900D01*
X179282215Y-94477284D01*
X179262331Y-94583020D01*
X179240437Y-94711168D01*
X179239935Y-94714207D01*
X179219143Y-94837084D01*
X179200882Y-94936363D01*
X179184157Y-95014952D01*
X179167972Y-95075755D01*
X179151336Y-95121680D01*
X179133252Y-95155632D01*
X179112726Y-95180517D01*
X179088765Y-95199242D01*
X179070404Y-95209732D01*
X179015292Y-95226351D01*
X178951901Y-95227743D01*
X178890345Y-95215056D01*
X178840733Y-95189440D01*
X178832999Y-95182738D01*
X178789679Y-95130923D01*
X178759555Y-95068983D01*
X178741192Y-94992322D01*
X178733157Y-94896347D01*
X178732534Y-94860979D01*
X178734178Y-94778837D01*
X178739713Y-94712216D01*
X178748679Y-94666345D01*
X178749905Y-94662649D01*
X178790293Y-94587797D01*
X178853457Y-94524697D01*
X178937434Y-94474960D01*
X179011789Y-94447715D01*
X179065990Y-94432032D01*
X179069603Y-94146663D01*
X179073216Y-93861295D01*
X178969340Y-93870675D01*
X178824333Y-93895274D01*
X178693849Y-93941142D01*
X178579096Y-94007531D01*
X178481281Y-94093691D01*
X178401615Y-94198874D01*
X178380500Y-94235772D01*
X178332559Y-94346839D01*
X178295207Y-94477299D01*
X178268914Y-94621796D01*
X178254151Y-94774977D01*
X178251389Y-94931484D01*
X178261099Y-95085964D01*
X178261099Y-95085964D01*
G37*
X178261099Y-95085964D02*
X178283752Y-95233060D01*
X178290220Y-95262611D01*
X178334751Y-95403031D01*
X178398913Y-95526317D01*
X178481738Y-95631428D01*
X178582253Y-95717322D01*
X178699490Y-95782960D01*
X178811990Y-95822162D01*
X178857166Y-95832692D01*
X178908436Y-95841662D01*
X178967956Y-95849161D01*
X179037885Y-95855279D01*
X179120379Y-95860104D01*
X179217596Y-95863725D01*
X179331694Y-95866232D01*
X179464830Y-95867713D01*
X179619161Y-95868259D01*
X179796845Y-95867957D01*
X179908200Y-95867447D01*
X180616726Y-95863611D01*
X180616726Y-95288769D01*
X180519625Y-95268640D01*
X180422523Y-95248510D01*
X180462088Y-95208482D01*
X180510799Y-95148506D01*
X180559007Y-95069964D01*
X180602337Y-94980743D01*
X180632498Y-94901085D01*
X180646521Y-94854906D01*
X180656517Y-94812014D01*
X180663310Y-94765826D01*
X180667723Y-94709757D01*
X180670581Y-94637226D01*
X180671810Y-94586927D01*
X180672779Y-94486072D01*
X180670637Y-94406258D01*
X180665085Y-94341937D01*
X180655821Y-94287561D01*
X180655507Y-94286137D01*
X180614965Y-94155721D01*
X180555563Y-94044026D01*
X180477814Y-93951548D01*
X180382233Y-93878787D01*
X180269334Y-93826239D01*
X180148832Y-93795877D01*
X180079926Y-93789716D01*
X179995899Y-93790059D01*
X179981726Y-93791066D01*
X179981726Y-94408276D01*
X180066091Y-94416226D01*
X180132054Y-94440997D01*
X180180574Y-94483831D01*
X180212612Y-94545969D01*
X180229126Y-94628653D01*
X180231165Y-94731022D01*
X180227397Y-94794913D01*
X180220613Y-94842680D01*
X180208241Y-94884934D01*
X180187711Y-94932284D01*
X180177112Y-94954070D01*
X180114312Y-95054522D01*
X180034607Y-95134694D01*
X179936190Y-95196376D01*
X179928253Y-95200189D01*
X179893689Y-95215122D01*
X179860238Y-95225421D01*
X179821248Y-95232163D01*
X179770070Y-95236429D01*
X179700053Y-95239297D01*
X179684279Y-95239767D01*
X179603662Y-95241004D01*
X179548384Y-95239380D01*
X179518923Y-95234920D01*
X179513832Y-95230742D01*
X179523556Y-95211125D01*
X179526158Y-95209202D01*
X179538761Y-95190206D01*
X179555132Y-95148328D01*
X179574249Y-95086990D01*
X179595091Y-95009615D01*
X179616638Y-94919625D01*
X179628063Y-94867664D01*
X179658644Y-94739113D01*
X179691073Y-94635171D01*
X179726986Y-94553710D01*
X179768021Y-94492604D01*
X179815816Y-94449725D01*
X179872008Y-94422946D01*
X179938236Y-94410140D01*
X179981726Y-94408276D01*
X179981726Y-93791066D01*
X179907413Y-93796348D01*
X179825133Y-93808021D01*
X179794568Y-93814496D01*
X179681421Y-93854974D01*
X179577102Y-93918449D01*
X179485723Y-94001598D01*
X179411393Y-94101101D01*
X179388365Y-94142725D01*
X179362723Y-94197282D01*
X179340342Y-94253958D01*
X179320166Y-94316811D01*
X179301142Y-94389900D01*
X179282215Y-94477284D01*
X179262331Y-94583020D01*
X179240437Y-94711168D01*
X179239935Y-94714207D01*
X179219143Y-94837084D01*
X179200882Y-94936363D01*
X179184157Y-95014952D01*
X179167972Y-95075755D01*
X179151336Y-95121680D01*
X179133252Y-95155632D01*
X179112726Y-95180517D01*
X179088765Y-95199242D01*
X179070404Y-95209732D01*
X179015292Y-95226351D01*
X178951901Y-95227743D01*
X178890345Y-95215056D01*
X178840733Y-95189440D01*
X178832999Y-95182738D01*
X178789679Y-95130923D01*
X178759555Y-95068983D01*
X178741192Y-94992322D01*
X178733157Y-94896347D01*
X178732534Y-94860979D01*
X178734178Y-94778837D01*
X178739713Y-94712216D01*
X178748679Y-94666345D01*
X178749905Y-94662649D01*
X178790293Y-94587797D01*
X178853457Y-94524697D01*
X178937434Y-94474960D01*
X179011789Y-94447715D01*
X179065990Y-94432032D01*
X179069603Y-94146663D01*
X179073216Y-93861295D01*
X178969340Y-93870675D01*
X178824333Y-93895274D01*
X178693849Y-93941142D01*
X178579096Y-94007531D01*
X178481281Y-94093691D01*
X178401615Y-94198874D01*
X178380500Y-94235772D01*
X178332559Y-94346839D01*
X178295207Y-94477299D01*
X178268914Y-94621796D01*
X178254151Y-94774977D01*
X178251389Y-94931484D01*
X178261099Y-95085964D01*
G36*
X177565133Y-110451900D02*
X177568726Y-110756032D01*
X178130200Y-110762937D01*
X178249122Y-110764475D01*
X178358770Y-110766039D01*
X178456479Y-110767580D01*
X178539585Y-110769051D01*
X178605423Y-110770400D01*
X178651327Y-110771581D01*
X178674633Y-110772543D01*
X178676845Y-110772963D01*
X178651728Y-110786532D01*
X178615826Y-110816125D01*
X178574442Y-110856414D01*
X178532883Y-110902069D01*
X178496452Y-110947762D01*
X178481940Y-110968767D01*
X178451995Y-111021947D01*
X178421335Y-111087408D01*
X178396253Y-111151628D01*
X178394766Y-111156036D01*
X178379973Y-111203171D01*
X178369869Y-111244594D01*
X178363586Y-111287454D01*
X178360255Y-111338900D01*
X178359007Y-111406081D01*
X178358894Y-111451190D01*
X178359408Y-111529335D01*
X178361475Y-111587823D01*
X178365976Y-111633723D01*
X178373791Y-111674106D01*
X178385801Y-111716042D01*
X178395525Y-111745295D01*
X178448562Y-111867029D01*
X178519035Y-111976823D01*
X178603552Y-112070510D01*
X178698723Y-112143924D01*
X178738114Y-112166222D01*
X178765128Y-112179827D01*
X178790425Y-112191586D01*
X178816099Y-112201648D01*
X178844247Y-112210160D01*
X178876965Y-112217268D01*
X178916348Y-112223121D01*
X178964492Y-112227866D01*
X179023493Y-112231649D01*
X179095446Y-112234620D01*
X179182449Y-112236924D01*
X179286595Y-112238709D01*
X179409982Y-112240123D01*
X179554704Y-112241312D01*
X179722858Y-112242425D01*
X179831332Y-112243090D01*
X180716990Y-112248473D01*
X180716990Y-111619283D01*
X179911542Y-111614967D01*
X179728236Y-111613821D01*
X179570279Y-111612467D01*
X179436285Y-111610871D01*
X179324867Y-111608999D01*
X179234639Y-111606818D01*
X179164213Y-111604295D01*
X179112204Y-111601395D01*
X179077223Y-111598085D01*
X179057886Y-111594332D01*
X179057733Y-111594280D01*
X178974935Y-111553862D01*
X178911270Y-111495569D01*
X178885516Y-111457357D01*
X178870822Y-111428700D01*
X178861173Y-111400992D01*
X178855532Y-111367590D01*
X178852856Y-111321854D01*
X178852106Y-111257144D01*
X178852095Y-111243979D01*
X178852519Y-111176364D01*
X178854597Y-111128570D01*
X178859537Y-111093686D01*
X178868549Y-111064799D01*
X178882839Y-111034997D01*
X178891372Y-111019342D01*
X178953331Y-110931426D01*
X179031895Y-110862723D01*
X179128897Y-110811924D01*
X179222648Y-110782909D01*
X179246315Y-110778356D01*
X179276971Y-110774521D01*
X179316852Y-110771347D01*
X179368195Y-110768779D01*
X179433237Y-110766760D01*
X179514213Y-110765233D01*
X179613361Y-110764140D01*
X179732917Y-110763427D01*
X179875118Y-110763035D01*
X180011805Y-110762914D01*
X180716990Y-110762716D01*
X180716990Y-110147769D01*
X177561540Y-110147769D01*
X177565133Y-110451900D01*
X177565133Y-110451900D01*
G37*
X177565133Y-110451900D02*
X177568726Y-110756032D01*
X178130200Y-110762937D01*
X178249122Y-110764475D01*
X178358770Y-110766039D01*
X178456479Y-110767580D01*
X178539585Y-110769051D01*
X178605423Y-110770400D01*
X178651327Y-110771581D01*
X178674633Y-110772543D01*
X178676845Y-110772963D01*
X178651728Y-110786532D01*
X178615826Y-110816125D01*
X178574442Y-110856414D01*
X178532883Y-110902069D01*
X178496452Y-110947762D01*
X178481940Y-110968767D01*
X178451995Y-111021947D01*
X178421335Y-111087408D01*
X178396253Y-111151628D01*
X178394766Y-111156036D01*
X178379973Y-111203171D01*
X178369869Y-111244594D01*
X178363586Y-111287454D01*
X178360255Y-111338900D01*
X178359007Y-111406081D01*
X178358894Y-111451190D01*
X178359408Y-111529335D01*
X178361475Y-111587823D01*
X178365976Y-111633723D01*
X178373791Y-111674106D01*
X178385801Y-111716042D01*
X178395525Y-111745295D01*
X178448562Y-111867029D01*
X178519035Y-111976823D01*
X178603552Y-112070510D01*
X178698723Y-112143924D01*
X178738114Y-112166222D01*
X178765128Y-112179827D01*
X178790425Y-112191586D01*
X178816099Y-112201648D01*
X178844247Y-112210160D01*
X178876965Y-112217268D01*
X178916348Y-112223121D01*
X178964492Y-112227866D01*
X179023493Y-112231649D01*
X179095446Y-112234620D01*
X179182449Y-112236924D01*
X179286595Y-112238709D01*
X179409982Y-112240123D01*
X179554704Y-112241312D01*
X179722858Y-112242425D01*
X179831332Y-112243090D01*
X180716990Y-112248473D01*
X180716990Y-111619283D01*
X179911542Y-111614967D01*
X179728236Y-111613821D01*
X179570279Y-111612467D01*
X179436285Y-111610871D01*
X179324867Y-111608999D01*
X179234639Y-111606818D01*
X179164213Y-111604295D01*
X179112204Y-111601395D01*
X179077223Y-111598085D01*
X179057886Y-111594332D01*
X179057733Y-111594280D01*
X178974935Y-111553862D01*
X178911270Y-111495569D01*
X178885516Y-111457357D01*
X178870822Y-111428700D01*
X178861173Y-111400992D01*
X178855532Y-111367590D01*
X178852856Y-111321854D01*
X178852106Y-111257144D01*
X178852095Y-111243979D01*
X178852519Y-111176364D01*
X178854597Y-111128570D01*
X178859537Y-111093686D01*
X178868549Y-111064799D01*
X178882839Y-111034997D01*
X178891372Y-111019342D01*
X178953331Y-110931426D01*
X179031895Y-110862723D01*
X179128897Y-110811924D01*
X179222648Y-110782909D01*
X179246315Y-110778356D01*
X179276971Y-110774521D01*
X179316852Y-110771347D01*
X179368195Y-110768779D01*
X179433237Y-110766760D01*
X179514213Y-110765233D01*
X179613361Y-110764140D01*
X179732917Y-110763427D01*
X179875118Y-110763035D01*
X180011805Y-110762914D01*
X180716990Y-110762716D01*
X180716990Y-110147769D01*
X177561540Y-110147769D01*
X177565133Y-110451900D01*
G36*
X178362616Y-108952473D02*
X178398972Y-109110303D01*
X178450273Y-109245400D01*
X178527816Y-109382536D01*
X178623182Y-109499770D01*
X178736226Y-109596996D01*
X178866802Y-109674110D01*
X179014766Y-109731007D01*
X179176279Y-109767018D01*
X179233095Y-109775803D01*
X179233095Y-109148113D01*
X179183701Y-109138847D01*
X179091775Y-109108445D01*
X179009103Y-109055246D01*
X178940007Y-108982731D01*
X178893622Y-108905185D01*
X178879061Y-108867207D01*
X178870348Y-108825182D01*
X178866254Y-108770896D01*
X178865473Y-108717348D01*
X178866400Y-108653762D01*
X178870304Y-108607900D01*
X178878851Y-108570777D01*
X178893705Y-108533414D01*
X178903318Y-108513258D01*
X178957130Y-108433851D01*
X179033676Y-108368372D01*
X179132812Y-108316914D01*
X179254392Y-108279568D01*
X179279435Y-108274193D01*
X179337429Y-108266524D01*
X179414321Y-108262012D01*
X179502472Y-108260555D01*
X179594243Y-108262053D01*
X179681994Y-108266404D01*
X179758087Y-108273507D01*
X179805641Y-108281148D01*
X179932469Y-108317518D01*
X180039815Y-108368045D01*
X180126611Y-108431518D01*
X180191790Y-108506726D01*
X180234287Y-108592458D01*
X180253035Y-108687503D01*
X180248153Y-108783610D01*
X180219375Y-108889918D01*
X180170809Y-108980577D01*
X180104286Y-109053595D01*
X180021636Y-109106978D01*
X179924691Y-109138735D01*
X179921237Y-109139397D01*
X179874779Y-109148113D01*
X179874779Y-109760085D01*
X179905391Y-109760085D01*
X179955644Y-109754024D01*
X180022131Y-109737326D01*
X180097649Y-109712217D01*
X180174992Y-109680921D01*
X180202305Y-109668373D01*
X180336492Y-109589877D01*
X180456261Y-109489659D01*
X180560299Y-109369300D01*
X180647296Y-109230380D01*
X180715939Y-109074480D01*
X180730572Y-109031506D01*
X180746332Y-108964260D01*
X180757943Y-108878122D01*
X180765161Y-108780650D01*
X180767743Y-108679403D01*
X180765444Y-108581937D01*
X180758021Y-108495812D01*
X180749469Y-108445524D01*
X180702079Y-108288857D01*
X180633470Y-108148434D01*
X180543710Y-108024320D01*
X180432868Y-107916582D01*
X180301013Y-107825287D01*
X180148212Y-107750501D01*
X179974535Y-107692290D01*
X179971109Y-107691365D01*
X179926860Y-107679907D01*
X179887521Y-107671247D01*
X179848232Y-107664979D01*
X179804132Y-107660698D01*
X179750359Y-107658000D01*
X179682051Y-107656481D01*
X179594349Y-107655735D01*
X179540568Y-107655522D01*
X179439545Y-107655445D01*
X179360485Y-107656161D01*
X179298621Y-107657999D01*
X179249184Y-107661287D01*
X179207405Y-107666354D01*
X179168515Y-107673529D01*
X179127745Y-107683140D01*
X179123248Y-107684281D01*
X178958086Y-107736378D01*
X178814619Y-107803229D01*
X178691728Y-107885644D01*
X178588294Y-107984432D01*
X178503200Y-108100402D01*
X178472007Y-108155684D01*
X178411656Y-108298521D01*
X178370436Y-108454880D01*
X178348453Y-108619500D01*
X178345811Y-108787118D01*
X178362616Y-108952473D01*
X178362616Y-108952473D01*
G37*
X178362616Y-108952473D02*
X178398972Y-109110303D01*
X178450273Y-109245400D01*
X178527816Y-109382536D01*
X178623182Y-109499770D01*
X178736226Y-109596996D01*
X178866802Y-109674110D01*
X179014766Y-109731007D01*
X179176279Y-109767018D01*
X179233095Y-109775803D01*
X179233095Y-109148113D01*
X179183701Y-109138847D01*
X179091775Y-109108445D01*
X179009103Y-109055246D01*
X178940007Y-108982731D01*
X178893622Y-108905185D01*
X178879061Y-108867207D01*
X178870348Y-108825182D01*
X178866254Y-108770896D01*
X178865473Y-108717348D01*
X178866400Y-108653762D01*
X178870304Y-108607900D01*
X178878851Y-108570777D01*
X178893705Y-108533414D01*
X178903318Y-108513258D01*
X178957130Y-108433851D01*
X179033676Y-108368372D01*
X179132812Y-108316914D01*
X179254392Y-108279568D01*
X179279435Y-108274193D01*
X179337429Y-108266524D01*
X179414321Y-108262012D01*
X179502472Y-108260555D01*
X179594243Y-108262053D01*
X179681994Y-108266404D01*
X179758087Y-108273507D01*
X179805641Y-108281148D01*
X179932469Y-108317518D01*
X180039815Y-108368045D01*
X180126611Y-108431518D01*
X180191790Y-108506726D01*
X180234287Y-108592458D01*
X180253035Y-108687503D01*
X180248153Y-108783610D01*
X180219375Y-108889918D01*
X180170809Y-108980577D01*
X180104286Y-109053595D01*
X180021636Y-109106978D01*
X179924691Y-109138735D01*
X179921237Y-109139397D01*
X179874779Y-109148113D01*
X179874779Y-109760085D01*
X179905391Y-109760085D01*
X179955644Y-109754024D01*
X180022131Y-109737326D01*
X180097649Y-109712217D01*
X180174992Y-109680921D01*
X180202305Y-109668373D01*
X180336492Y-109589877D01*
X180456261Y-109489659D01*
X180560299Y-109369300D01*
X180647296Y-109230380D01*
X180715939Y-109074480D01*
X180730572Y-109031506D01*
X180746332Y-108964260D01*
X180757943Y-108878122D01*
X180765161Y-108780650D01*
X180767743Y-108679403D01*
X180765444Y-108581937D01*
X180758021Y-108495812D01*
X180749469Y-108445524D01*
X180702079Y-108288857D01*
X180633470Y-108148434D01*
X180543710Y-108024320D01*
X180432868Y-107916582D01*
X180301013Y-107825287D01*
X180148212Y-107750501D01*
X179974535Y-107692290D01*
X179971109Y-107691365D01*
X179926860Y-107679907D01*
X179887521Y-107671247D01*
X179848232Y-107664979D01*
X179804132Y-107660698D01*
X179750359Y-107658000D01*
X179682051Y-107656481D01*
X179594349Y-107655735D01*
X179540568Y-107655522D01*
X179439545Y-107655445D01*
X179360485Y-107656161D01*
X179298621Y-107657999D01*
X179249184Y-107661287D01*
X179207405Y-107666354D01*
X179168515Y-107673529D01*
X179127745Y-107683140D01*
X179123248Y-107684281D01*
X178958086Y-107736378D01*
X178814619Y-107803229D01*
X178691728Y-107885644D01*
X178588294Y-107984432D01*
X178503200Y-108100402D01*
X178472007Y-108155684D01*
X178411656Y-108298521D01*
X178370436Y-108454880D01*
X178348453Y-108619500D01*
X178345811Y-108787118D01*
X178362616Y-108952473D01*
G36*
X178360674Y-106409893D02*
X178399115Y-106568266D01*
X178459528Y-106711860D01*
X178541504Y-106840107D01*
X178644631Y-106952436D01*
X178768498Y-107048279D01*
X178912694Y-107127065D01*
X179076809Y-107188225D01*
X179193342Y-107218122D01*
X179249609Y-107228654D01*
X179318417Y-107239068D01*
X179394515Y-107248848D01*
X179472653Y-107257479D01*
X179547580Y-107264445D01*
X179614046Y-107269231D01*
X179666800Y-107271322D01*
X179700590Y-107270202D01*
X179707923Y-107268628D01*
X179712114Y-107264289D01*
X179715682Y-107253445D01*
X179718675Y-107234151D01*
X179721142Y-107204464D01*
X179723130Y-107162439D01*
X179724688Y-107106134D01*
X179725864Y-107033604D01*
X179726706Y-106942905D01*
X179727264Y-106832094D01*
X179727584Y-106699226D01*
X179727716Y-106542359D01*
X179727726Y-106471053D01*
X179727726Y-105681078D01*
X179791226Y-105690334D01*
X179922457Y-105720464D01*
X180037055Y-105769839D01*
X180133591Y-105837753D01*
X180176983Y-105881069D01*
X180229243Y-105957162D01*
X180263739Y-106044054D01*
X180281123Y-106137384D01*
X180282046Y-106232789D01*
X180267159Y-106325908D01*
X180237114Y-106412378D01*
X180192560Y-106487837D01*
X180134150Y-106547924D01*
X180071963Y-106584555D01*
X180021832Y-106605496D01*
X180021832Y-107236352D01*
X180058595Y-107227585D01*
X180106401Y-107211592D01*
X180168693Y-107184317D01*
X180237911Y-107149604D01*
X180306491Y-107111294D01*
X180366872Y-107073228D01*
X180378890Y-107064851D01*
X180474084Y-106983158D01*
X180562271Y-106881080D01*
X180639267Y-106764822D01*
X180700890Y-106640586D01*
X180738530Y-106531611D01*
X180749149Y-106476039D01*
X180757323Y-106400580D01*
X180762909Y-106311984D01*
X180765761Y-106217000D01*
X180765736Y-106122378D01*
X180762689Y-106034869D01*
X180756476Y-105961223D01*
X180751439Y-105927914D01*
X180708615Y-105759884D01*
X180647174Y-105610596D01*
X180566851Y-105479823D01*
X180467385Y-105367340D01*
X180348511Y-105272919D01*
X180209965Y-105196336D01*
X180051485Y-105137364D01*
X179872806Y-105095776D01*
X179763155Y-105079919D01*
X179656623Y-105071755D01*
X179538643Y-105069844D01*
X179417548Y-105073807D01*
X179326674Y-105081223D01*
X179326674Y-105705729D01*
X179326674Y-106635319D01*
X179258702Y-106626302D01*
X179148266Y-106601439D01*
X179053621Y-106557162D01*
X178970061Y-106491224D01*
X178964623Y-106485857D01*
X178905448Y-106416130D01*
X178866554Y-106342814D01*
X178845288Y-106259107D01*
X178838997Y-106163698D01*
X178840649Y-106104609D01*
X178847994Y-106058978D01*
X178864047Y-106013661D01*
X178882448Y-105974342D01*
X178911851Y-105922689D01*
X178945913Y-105874597D01*
X178975394Y-105842311D01*
X179036474Y-105798619D01*
X179111707Y-105759251D01*
X179190037Y-105729233D01*
X179258029Y-105713859D01*
X179326674Y-105705729D01*
X179326674Y-105081223D01*
X179301667Y-105083265D01*
X179199332Y-105097841D01*
X179152884Y-105107645D01*
X179091236Y-105125932D01*
X179017246Y-105152703D01*
X178942100Y-105183730D01*
X178899644Y-105203343D01*
X178833009Y-105237208D01*
X178780984Y-105268177D01*
X178734918Y-105302484D01*
X178686165Y-105346363D01*
X178645153Y-105386768D01*
X178548128Y-105497407D01*
X178472063Y-105614698D01*
X178415171Y-105742685D01*
X178375665Y-105885409D01*
X178351756Y-106046913D01*
X178351355Y-106051092D01*
X178344617Y-106237312D01*
X178360674Y-106409893D01*
X178360674Y-106409893D01*
G37*
X178360674Y-106409893D02*
X178399115Y-106568266D01*
X178459528Y-106711860D01*
X178541504Y-106840107D01*
X178644631Y-106952436D01*
X178768498Y-107048279D01*
X178912694Y-107127065D01*
X179076809Y-107188225D01*
X179193342Y-107218122D01*
X179249609Y-107228654D01*
X179318417Y-107239068D01*
X179394515Y-107248848D01*
X179472653Y-107257479D01*
X179547580Y-107264445D01*
X179614046Y-107269231D01*
X179666800Y-107271322D01*
X179700590Y-107270202D01*
X179707923Y-107268628D01*
X179712114Y-107264289D01*
X179715682Y-107253445D01*
X179718675Y-107234151D01*
X179721142Y-107204464D01*
X179723130Y-107162439D01*
X179724688Y-107106134D01*
X179725864Y-107033604D01*
X179726706Y-106942905D01*
X179727264Y-106832094D01*
X179727584Y-106699226D01*
X179727716Y-106542359D01*
X179727726Y-106471053D01*
X179727726Y-105681078D01*
X179791226Y-105690334D01*
X179922457Y-105720464D01*
X180037055Y-105769839D01*
X180133591Y-105837753D01*
X180176983Y-105881069D01*
X180229243Y-105957162D01*
X180263739Y-106044054D01*
X180281123Y-106137384D01*
X180282046Y-106232789D01*
X180267159Y-106325908D01*
X180237114Y-106412378D01*
X180192560Y-106487837D01*
X180134150Y-106547924D01*
X180071963Y-106584555D01*
X180021832Y-106605496D01*
X180021832Y-107236352D01*
X180058595Y-107227585D01*
X180106401Y-107211592D01*
X180168693Y-107184317D01*
X180237911Y-107149604D01*
X180306491Y-107111294D01*
X180366872Y-107073228D01*
X180378890Y-107064851D01*
X180474084Y-106983158D01*
X180562271Y-106881080D01*
X180639267Y-106764822D01*
X180700890Y-106640586D01*
X180738530Y-106531611D01*
X180749149Y-106476039D01*
X180757323Y-106400580D01*
X180762909Y-106311984D01*
X180765761Y-106217000D01*
X180765736Y-106122378D01*
X180762689Y-106034869D01*
X180756476Y-105961223D01*
X180751439Y-105927914D01*
X180708615Y-105759884D01*
X180647174Y-105610596D01*
X180566851Y-105479823D01*
X180467385Y-105367340D01*
X180348511Y-105272919D01*
X180209965Y-105196336D01*
X180051485Y-105137364D01*
X179872806Y-105095776D01*
X179763155Y-105079919D01*
X179656623Y-105071755D01*
X179538643Y-105069844D01*
X179417548Y-105073807D01*
X179326674Y-105081223D01*
X179326674Y-105705729D01*
X179326674Y-106635319D01*
X179258702Y-106626302D01*
X179148266Y-106601439D01*
X179053621Y-106557162D01*
X178970061Y-106491224D01*
X178964623Y-106485857D01*
X178905448Y-106416130D01*
X178866554Y-106342814D01*
X178845288Y-106259107D01*
X178838997Y-106163698D01*
X178840649Y-106104609D01*
X178847994Y-106058978D01*
X178864047Y-106013661D01*
X178882448Y-105974342D01*
X178911851Y-105922689D01*
X178945913Y-105874597D01*
X178975394Y-105842311D01*
X179036474Y-105798619D01*
X179111707Y-105759251D01*
X179190037Y-105729233D01*
X179258029Y-105713859D01*
X179326674Y-105705729D01*
X179326674Y-105081223D01*
X179301667Y-105083265D01*
X179199332Y-105097841D01*
X179152884Y-105107645D01*
X179091236Y-105125932D01*
X179017246Y-105152703D01*
X178942100Y-105183730D01*
X178899644Y-105203343D01*
X178833009Y-105237208D01*
X178780984Y-105268177D01*
X178734918Y-105302484D01*
X178686165Y-105346363D01*
X178645153Y-105386768D01*
X178548128Y-105497407D01*
X178472063Y-105614698D01*
X178415171Y-105742685D01*
X178375665Y-105885409D01*
X178351756Y-106046913D01*
X178351355Y-106051092D01*
X178344617Y-106237312D01*
X178360674Y-106409893D01*
G36*
X178265943Y-97716466D02*
X178300988Y-97866811D01*
X178359213Y-98004897D01*
X178439924Y-98129871D01*
X178542426Y-98240879D01*
X178666026Y-98337068D01*
X178810030Y-98417582D01*
X178973744Y-98481570D01*
X179019200Y-98495322D01*
X179172442Y-98529676D01*
X179339292Y-98550496D01*
X179509921Y-98557116D01*
X179674499Y-98548870D01*
X179723417Y-98543100D01*
X179910128Y-98507574D01*
X180078445Y-98454615D01*
X180227736Y-98384660D01*
X180357367Y-98298147D01*
X180466706Y-98195514D01*
X180555121Y-98077199D01*
X180621979Y-97943640D01*
X180633440Y-97913081D01*
X180655883Y-97828049D01*
X180670472Y-97727281D01*
X180676740Y-97620345D01*
X180674220Y-97516807D01*
X180662446Y-97426234D01*
X180658124Y-97407226D01*
X180610123Y-97270442D01*
X180538667Y-97143727D01*
X180446373Y-97031224D01*
X180384856Y-96974557D01*
X180326776Y-96926400D01*
X181706253Y-96926400D01*
X181706253Y-96324821D01*
X179460953Y-96324821D01*
X179460953Y-96911922D01*
X179556644Y-96915710D01*
X179644550Y-96923557D01*
X179707753Y-96933525D01*
X179837113Y-96970103D01*
X179944978Y-97021847D01*
X180031080Y-97088541D01*
X180095151Y-97169970D01*
X180136921Y-97265915D01*
X180141822Y-97283798D01*
X180149074Y-97336685D01*
X180150222Y-97405500D01*
X180145872Y-97480290D01*
X180136628Y-97551102D01*
X180123095Y-97607982D01*
X180121908Y-97611454D01*
X180083924Y-97685083D01*
X180025848Y-97754976D01*
X179954148Y-97814355D01*
X179897079Y-97847092D01*
X179832838Y-97874900D01*
X179772065Y-97895164D01*
X179708514Y-97908961D01*
X179635940Y-97917367D01*
X179548096Y-97921458D01*
X179460358Y-97922348D01*
X179344559Y-97919909D01*
X179249339Y-97911659D01*
X179168905Y-97896194D01*
X179097464Y-97872112D01*
X179029224Y-97838010D01*
X178977150Y-97805344D01*
X178888343Y-97732164D01*
X178822698Y-97649714D01*
X178779487Y-97560722D01*
X178757977Y-97467918D01*
X178757440Y-97374028D01*
X178777144Y-97281782D01*
X178816360Y-97193908D01*
X178874356Y-97113134D01*
X178950403Y-97042190D01*
X179043770Y-96983802D01*
X179153727Y-96940700D01*
X179212493Y-96926179D01*
X179280345Y-96917030D01*
X179366009Y-96912320D01*
X179460953Y-96911922D01*
X179460953Y-96324821D01*
X178310674Y-96324821D01*
X178310674Y-96913032D01*
X178584726Y-96913328D01*
X178537937Y-96949080D01*
X178436902Y-97040432D01*
X178358814Y-97143211D01*
X178302952Y-97258954D01*
X178268600Y-97389198D01*
X178255038Y-97535478D01*
X178254770Y-97554716D01*
X178265943Y-97716466D01*
X178265943Y-97716466D01*
G37*
X178265943Y-97716466D02*
X178300988Y-97866811D01*
X178359213Y-98004897D01*
X178439924Y-98129871D01*
X178542426Y-98240879D01*
X178666026Y-98337068D01*
X178810030Y-98417582D01*
X178973744Y-98481570D01*
X179019200Y-98495322D01*
X179172442Y-98529676D01*
X179339292Y-98550496D01*
X179509921Y-98557116D01*
X179674499Y-98548870D01*
X179723417Y-98543100D01*
X179910128Y-98507574D01*
X180078445Y-98454615D01*
X180227736Y-98384660D01*
X180357367Y-98298147D01*
X180466706Y-98195514D01*
X180555121Y-98077199D01*
X180621979Y-97943640D01*
X180633440Y-97913081D01*
X180655883Y-97828049D01*
X180670472Y-97727281D01*
X180676740Y-97620345D01*
X180674220Y-97516807D01*
X180662446Y-97426234D01*
X180658124Y-97407226D01*
X180610123Y-97270442D01*
X180538667Y-97143727D01*
X180446373Y-97031224D01*
X180384856Y-96974557D01*
X180326776Y-96926400D01*
X181706253Y-96926400D01*
X181706253Y-96324821D01*
X179460953Y-96324821D01*
X179460953Y-96911922D01*
X179556644Y-96915710D01*
X179644550Y-96923557D01*
X179707753Y-96933525D01*
X179837113Y-96970103D01*
X179944978Y-97021847D01*
X180031080Y-97088541D01*
X180095151Y-97169970D01*
X180136921Y-97265915D01*
X180141822Y-97283798D01*
X180149074Y-97336685D01*
X180150222Y-97405500D01*
X180145872Y-97480290D01*
X180136628Y-97551102D01*
X180123095Y-97607982D01*
X180121908Y-97611454D01*
X180083924Y-97685083D01*
X180025848Y-97754976D01*
X179954148Y-97814355D01*
X179897079Y-97847092D01*
X179832838Y-97874900D01*
X179772065Y-97895164D01*
X179708514Y-97908961D01*
X179635940Y-97917367D01*
X179548096Y-97921458D01*
X179460358Y-97922348D01*
X179344559Y-97919909D01*
X179249339Y-97911659D01*
X179168905Y-97896194D01*
X179097464Y-97872112D01*
X179029224Y-97838010D01*
X178977150Y-97805344D01*
X178888343Y-97732164D01*
X178822698Y-97649714D01*
X178779487Y-97560722D01*
X178757977Y-97467918D01*
X178757440Y-97374028D01*
X178777144Y-97281782D01*
X178816360Y-97193908D01*
X178874356Y-97113134D01*
X178950403Y-97042190D01*
X179043770Y-96983802D01*
X179153727Y-96940700D01*
X179212493Y-96926179D01*
X179280345Y-96917030D01*
X179366009Y-96912320D01*
X179460953Y-96911922D01*
X179460953Y-96324821D01*
X178310674Y-96324821D01*
X178310674Y-96913032D01*
X178584726Y-96913328D01*
X178537937Y-96949080D01*
X178436902Y-97040432D01*
X178358814Y-97143211D01*
X178302952Y-97258954D01*
X178268600Y-97389198D01*
X178255038Y-97535478D01*
X178254770Y-97554716D01*
X178265943Y-97716466D01*
G04 #@! TD*
G04 #@! TO.C,J9*
D13*
X149177333Y-122064980D02*
X149177333Y-122779266D01*
X149224952Y-122922123D01*
X149320190Y-123017361D01*
X149463047Y-123064980D01*
X149558285Y-123064980D01*
X148653523Y-123064980D02*
X148463047Y-123064980D01*
X148367809Y-123017361D01*
X148320190Y-122969742D01*
X148224952Y-122826885D01*
X148177333Y-122636409D01*
X148177333Y-122255457D01*
X148224952Y-122160219D01*
X148272571Y-122112600D01*
X148367809Y-122064980D01*
X148558285Y-122064980D01*
X148653523Y-122112600D01*
X148701142Y-122160219D01*
X148748761Y-122255457D01*
X148748761Y-122493552D01*
X148701142Y-122588790D01*
X148653523Y-122636409D01*
X148558285Y-122684028D01*
X148367809Y-122684028D01*
X148272571Y-122636409D01*
X148224952Y-122588790D01*
X148177333Y-122493552D01*
G04 #@! TO.C,J1*
X155357580Y-91944866D02*
X156071866Y-91944866D01*
X156214723Y-91897247D01*
X156309961Y-91802009D01*
X156357580Y-91659152D01*
X156357580Y-91563914D01*
X156357580Y-92944866D02*
X156357580Y-92373438D01*
X156357580Y-92659152D02*
X155357580Y-92659152D01*
X155500438Y-92563914D01*
X155595676Y-92468676D01*
X155643295Y-92373438D01*
G04 #@! TO.C,J10*
X125644000Y-122413717D02*
X125644000Y-123128003D01*
X125691619Y-123270860D01*
X125786857Y-123366098D01*
X125929715Y-123413717D01*
X126024953Y-123413717D01*
X124644000Y-123413717D02*
X125215429Y-123413717D01*
X124929715Y-123413717D02*
X124929715Y-122413717D01*
X125024953Y-122556575D01*
X125120191Y-122651813D01*
X125215429Y-122699432D01*
X124024953Y-122413717D02*
X123929715Y-122413717D01*
X123834477Y-122461337D01*
X123786857Y-122508956D01*
X123739238Y-122604194D01*
X123691619Y-122794670D01*
X123691619Y-123032765D01*
X123739238Y-123223241D01*
X123786857Y-123318479D01*
X123834477Y-123366098D01*
X123929715Y-123413717D01*
X124024953Y-123413717D01*
X124120191Y-123366098D01*
X124167810Y-123318479D01*
X124215429Y-123223241D01*
X124263048Y-123032765D01*
X124263048Y-122794670D01*
X124215429Y-122604194D01*
X124167810Y-122508956D01*
X124120191Y-122461337D01*
X124024953Y-122413717D01*
G04 #@! TO.C,U3*
X170789504Y-114996980D02*
X170789504Y-115806504D01*
X170741885Y-115901742D01*
X170694266Y-115949361D01*
X170599028Y-115996980D01*
X170408552Y-115996980D01*
X170313314Y-115949361D01*
X170265695Y-115901742D01*
X170218076Y-115806504D01*
X170218076Y-114996980D01*
X169837123Y-114996980D02*
X169218076Y-114996980D01*
X169551409Y-115377933D01*
X169408552Y-115377933D01*
X169313314Y-115425552D01*
X169265695Y-115473171D01*
X169218076Y-115568409D01*
X169218076Y-115806504D01*
X169265695Y-115901742D01*
X169313314Y-115949361D01*
X169408552Y-115996980D01*
X169694266Y-115996980D01*
X169789504Y-115949361D01*
X169837123Y-115901742D01*
G04 #@! TO.C,J8*
X134470733Y-121537480D02*
X134470733Y-122251766D01*
X134518352Y-122394623D01*
X134613590Y-122489861D01*
X134756447Y-122537480D01*
X134851685Y-122537480D01*
X133851685Y-121966052D02*
X133946923Y-121918433D01*
X133994542Y-121870814D01*
X134042161Y-121775576D01*
X134042161Y-121727957D01*
X133994542Y-121632719D01*
X133946923Y-121585100D01*
X133851685Y-121537480D01*
X133661209Y-121537480D01*
X133565971Y-121585100D01*
X133518352Y-121632719D01*
X133470733Y-121727957D01*
X133470733Y-121775576D01*
X133518352Y-121870814D01*
X133565971Y-121918433D01*
X133661209Y-121966052D01*
X133851685Y-121966052D01*
X133946923Y-122013671D01*
X133994542Y-122061290D01*
X134042161Y-122156528D01*
X134042161Y-122347004D01*
X133994542Y-122442242D01*
X133946923Y-122489861D01*
X133851685Y-122537480D01*
X133661209Y-122537480D01*
X133565971Y-122489861D01*
X133518352Y-122442242D01*
X133470733Y-122347004D01*
X133470733Y-122156528D01*
X133518352Y-122061290D01*
X133565971Y-122013671D01*
X133661209Y-121966052D01*
G04 #@! TO.C,J12*
X129257323Y-130186180D02*
X129257323Y-130900466D01*
X129304942Y-131043323D01*
X129400180Y-131138561D01*
X129543038Y-131186180D01*
X129638276Y-131186180D01*
X128257323Y-131186180D02*
X128828752Y-131186180D01*
X128543038Y-131186180D02*
X128543038Y-130186180D01*
X128638276Y-130329038D01*
X128733514Y-130424276D01*
X128828752Y-130471895D01*
X127876371Y-130281419D02*
X127828752Y-130233800D01*
X127733514Y-130186180D01*
X127495419Y-130186180D01*
X127400180Y-130233800D01*
X127352561Y-130281419D01*
X127304942Y-130376657D01*
X127304942Y-130471895D01*
X127352561Y-130614752D01*
X127923990Y-131186180D01*
X127304942Y-131186180D01*
G04 #@! TO.C,J11*
X137563123Y-129919480D02*
X137563123Y-130633766D01*
X137610742Y-130776623D01*
X137705980Y-130871861D01*
X137848838Y-130919480D01*
X137944076Y-130919480D01*
X136563123Y-130919480D02*
X137134552Y-130919480D01*
X136848838Y-130919480D02*
X136848838Y-129919480D01*
X136944076Y-130062338D01*
X137039314Y-130157576D01*
X137134552Y-130205195D01*
X135610742Y-130919480D02*
X136182171Y-130919480D01*
X135896457Y-130919480D02*
X135896457Y-129919480D01*
X135991695Y-130062338D01*
X136086933Y-130157576D01*
X136182171Y-130205195D01*
G04 #@! TO.C,J7*
X141176333Y-126528580D02*
X141176333Y-127242866D01*
X141223952Y-127385723D01*
X141319190Y-127480961D01*
X141462047Y-127528580D01*
X141557285Y-127528580D01*
X140795380Y-126528580D02*
X140128714Y-126528580D01*
X140557285Y-127528580D01*
G04 #@! TO.C,M1*
X170710123Y-131186180D02*
X170710123Y-130186180D01*
X170376790Y-130900466D01*
X170043457Y-130186180D01*
X170043457Y-131186180D01*
X169043457Y-131186180D02*
X169614885Y-131186180D01*
X169329171Y-131186180D02*
X169329171Y-130186180D01*
X169424409Y-130329038D01*
X169519647Y-130424276D01*
X169614885Y-130471895D01*
G04 #@! TO.C,SW1*
X164071133Y-92289261D02*
X163928276Y-92336880D01*
X163690180Y-92336880D01*
X163594942Y-92289261D01*
X163547323Y-92241642D01*
X163499704Y-92146404D01*
X163499704Y-92051166D01*
X163547323Y-91955928D01*
X163594942Y-91908309D01*
X163690180Y-91860690D01*
X163880657Y-91813071D01*
X163975895Y-91765452D01*
X164023514Y-91717833D01*
X164071133Y-91622595D01*
X164071133Y-91527357D01*
X164023514Y-91432119D01*
X163975895Y-91384500D01*
X163880657Y-91336880D01*
X163642561Y-91336880D01*
X163499704Y-91384500D01*
X163166371Y-91336880D02*
X162928276Y-92336880D01*
X162737800Y-91622595D01*
X162547323Y-92336880D01*
X162309228Y-91336880D01*
X161404466Y-92336880D02*
X161975895Y-92336880D01*
X161690180Y-92336880D02*
X161690180Y-91336880D01*
X161785419Y-91479738D01*
X161880657Y-91574976D01*
X161975895Y-91622595D01*
G04 #@! TO.C,J3*
X129466933Y-91019380D02*
X129466933Y-91733666D01*
X129514552Y-91876523D01*
X129609790Y-91971761D01*
X129752647Y-92019380D01*
X129847885Y-92019380D01*
X129085980Y-91019380D02*
X128466933Y-91019380D01*
X128800266Y-91400333D01*
X128657409Y-91400333D01*
X128562171Y-91447952D01*
X128514552Y-91495571D01*
X128466933Y-91590809D01*
X128466933Y-91828904D01*
X128514552Y-91924142D01*
X128562171Y-91971761D01*
X128657409Y-92019380D01*
X128943123Y-92019380D01*
X129038361Y-91971761D01*
X129085980Y-91924142D01*
G04 #@! TO.C,J2*
X181784666Y-129678180D02*
X181784666Y-130392466D01*
X181737047Y-130535323D01*
X181641809Y-130630561D01*
X181498952Y-130678180D01*
X181403714Y-130678180D01*
X182213238Y-129773419D02*
X182260857Y-129725800D01*
X182356095Y-129678180D01*
X182594190Y-129678180D01*
X182689428Y-129725800D01*
X182737047Y-129773419D01*
X182784666Y-129868657D01*
X182784666Y-129963895D01*
X182737047Y-130106752D01*
X182165619Y-130678180D01*
X182784666Y-130678180D01*
G04 #@! TO.C,G\002A\002A\002A*
D10*
X176733200Y-101679828D02*
X176660628Y-101534685D01*
X176660628Y-101316971D01*
X176733200Y-101099257D01*
X176878342Y-100954114D01*
X177023485Y-100881542D01*
X177313771Y-100808971D01*
X177531485Y-100808971D01*
X177821771Y-100881542D01*
X177966914Y-100954114D01*
X178112057Y-101099257D01*
X178184628Y-101316971D01*
X178184628Y-101462114D01*
X178112057Y-101679828D01*
X178039485Y-101752400D01*
X177531485Y-101752400D01*
X177531485Y-101462114D01*
X176660628Y-102623257D02*
X177023485Y-102623257D01*
X176878342Y-102260400D02*
X177023485Y-102623257D01*
X176878342Y-102986114D01*
X177313771Y-102405542D02*
X177023485Y-102623257D01*
X177313771Y-102840971D01*
X176660628Y-103784400D02*
X177023485Y-103784400D01*
X176878342Y-103421542D02*
X177023485Y-103784400D01*
X176878342Y-104147257D01*
X177313771Y-103566685D02*
X177023485Y-103784400D01*
X177313771Y-104002114D01*
X176660628Y-104945542D02*
X177023485Y-104945542D01*
X176878342Y-104582685D02*
X177023485Y-104945542D01*
X176878342Y-105308400D01*
X177313771Y-104727828D02*
X177023485Y-104945542D01*
X177313771Y-105163257D01*
X178184628Y-101885542D02*
X178184628Y-101159828D01*
X176660628Y-101159828D01*
X176660628Y-102683828D02*
X176660628Y-102974114D01*
X176733200Y-103119257D01*
X176878342Y-103264400D01*
X177168628Y-103336971D01*
X177676628Y-103336971D01*
X177966914Y-103264400D01*
X178112057Y-103119257D01*
X178184628Y-102974114D01*
X178184628Y-102683828D01*
X178112057Y-102538685D01*
X177966914Y-102393542D01*
X177676628Y-102320971D01*
X177168628Y-102320971D01*
X176878342Y-102393542D01*
X176733200Y-102538685D01*
X176660628Y-102683828D01*
X176733200Y-104788400D02*
X176660628Y-104643257D01*
X176660628Y-104425542D01*
X176733200Y-104207828D01*
X176878342Y-104062685D01*
X177023485Y-103990114D01*
X177313771Y-103917542D01*
X177531485Y-103917542D01*
X177821771Y-103990114D01*
X177966914Y-104062685D01*
X178112057Y-104207828D01*
X178184628Y-104425542D01*
X178184628Y-104570685D01*
X178112057Y-104788400D01*
X178039485Y-104860971D01*
X177531485Y-104860971D01*
X177531485Y-104570685D01*
X176660628Y-105804400D02*
X176660628Y-106094685D01*
X176733200Y-106239828D01*
X176878342Y-106384971D01*
X177168628Y-106457542D01*
X177676628Y-106457542D01*
X177966914Y-106384971D01*
X178112057Y-106239828D01*
X178184628Y-106094685D01*
X178184628Y-105804400D01*
X178112057Y-105659257D01*
X177966914Y-105514114D01*
X177676628Y-105441542D01*
X177168628Y-105441542D01*
X176878342Y-105514114D01*
X176733200Y-105659257D01*
X176660628Y-105804400D01*
G04 #@! TO.C,M2*
D13*
X158137123Y-131186180D02*
X158137123Y-130186180D01*
X157803790Y-130900466D01*
X157470457Y-130186180D01*
X157470457Y-131186180D01*
X157041885Y-130281419D02*
X156994266Y-130233800D01*
X156899028Y-130186180D01*
X156660933Y-130186180D01*
X156565695Y-130233800D01*
X156518076Y-130281419D01*
X156470457Y-130376657D01*
X156470457Y-130471895D01*
X156518076Y-130614752D01*
X157089504Y-131186180D01*
X156470457Y-131186180D01*
G04 #@! TO.C,U4*
X158038704Y-115123980D02*
X158038704Y-115933504D01*
X157991085Y-116028742D01*
X157943466Y-116076361D01*
X157848228Y-116123980D01*
X157657752Y-116123980D01*
X157562514Y-116076361D01*
X157514895Y-116028742D01*
X157467276Y-115933504D01*
X157467276Y-115123980D01*
X156562514Y-115457314D02*
X156562514Y-116123980D01*
X156800609Y-115076361D02*
X157038704Y-115790647D01*
X156419657Y-115790647D01*
G04 #@! TD*
M02*
