G04 #@! TF.GenerationSoftware,KiCad,Pcbnew,(6.0.0-rc1-dev-1030-g80d50d98b)*
G04 #@! TF.CreationDate,2018-11-12T11:24:30-07:00*
G04 #@! TF.ProjectId,airmed_board_v1.0,6169726D65645F626F6172645F76312E,rev?*
G04 #@! TF.SameCoordinates,Original*
G04 #@! TF.FileFunction,Soldermask,Top*
G04 #@! TF.FilePolarity,Negative*
%FSLAX46Y46*%
G04 Gerber Fmt 4.6, Leading zero omitted, Abs format (unit mm)*
G04 Created by KiCad (PCBNEW (6.0.0-rc1-dev-1030-g80d50d98b)) date Monday, November 12, 2018 at 11:24:30 AM*
%MOMM*%
%LPD*%
G01*
G04 APERTURE LIST*
%ADD10C,0.100000*%
G04 APERTURE END LIST*
D10*
G36*
X170902006Y-111763582D02*
X171302565Y-111929499D01*
X171663059Y-112170373D01*
X171969627Y-112476941D01*
X172210501Y-112837435D01*
X172376418Y-113237994D01*
X172461000Y-113663219D01*
X172461000Y-114096781D01*
X172376418Y-114522006D01*
X172210501Y-114922565D01*
X171969627Y-115283059D01*
X171663059Y-115589627D01*
X171302565Y-115830501D01*
X170902006Y-115996418D01*
X170476781Y-116081000D01*
X170043219Y-116081000D01*
X169617994Y-115996418D01*
X169217435Y-115830501D01*
X168856941Y-115589627D01*
X168550373Y-115283059D01*
X168309499Y-114922565D01*
X168143582Y-114522006D01*
X168059000Y-114096781D01*
X168059000Y-113663219D01*
X168143582Y-113237994D01*
X168309499Y-112837435D01*
X168550373Y-112476941D01*
X168856941Y-112170373D01*
X169217435Y-111929499D01*
X169617994Y-111763582D01*
X170043219Y-111679000D01*
X170476781Y-111679000D01*
X170902006Y-111763582D01*
X170902006Y-111763582D01*
G37*
G36*
X121372006Y-111763582D02*
X121772565Y-111929499D01*
X122133059Y-112170373D01*
X122439627Y-112476941D01*
X122680501Y-112837435D01*
X122846418Y-113237994D01*
X122931000Y-113663219D01*
X122931000Y-114096781D01*
X122846418Y-114522006D01*
X122680501Y-114922565D01*
X122439627Y-115283059D01*
X122133059Y-115589627D01*
X121772565Y-115830501D01*
X121372006Y-115996418D01*
X120946781Y-116081000D01*
X120513219Y-116081000D01*
X120087994Y-115996418D01*
X119687435Y-115830501D01*
X119326941Y-115589627D01*
X119020373Y-115283059D01*
X118779499Y-114922565D01*
X118613582Y-114522006D01*
X118529000Y-114096781D01*
X118529000Y-113663219D01*
X118613582Y-113237994D01*
X118779499Y-112837435D01*
X119020373Y-112476941D01*
X119326941Y-112170373D01*
X119687435Y-111929499D01*
X120087994Y-111763582D01*
X120513219Y-111679000D01*
X120946781Y-111679000D01*
X121372006Y-111763582D01*
X121372006Y-111763582D01*
G37*
G36*
X157155365Y-108043389D02*
X157346634Y-108122615D01*
X157518776Y-108237637D01*
X157665163Y-108384024D01*
X157780185Y-108556166D01*
X157859411Y-108747435D01*
X157899800Y-108950484D01*
X157899800Y-109157516D01*
X157859411Y-109360565D01*
X157780185Y-109551834D01*
X157665163Y-109723976D01*
X157518776Y-109870363D01*
X157346634Y-109985385D01*
X157155365Y-110064611D01*
X156952316Y-110105000D01*
X156745284Y-110105000D01*
X156542235Y-110064611D01*
X156350966Y-109985385D01*
X156178824Y-109870363D01*
X156032437Y-109723976D01*
X155917415Y-109551834D01*
X155838189Y-109360565D01*
X155797800Y-109157516D01*
X155797800Y-108950484D01*
X155838189Y-108747435D01*
X155917415Y-108556166D01*
X156032437Y-108384024D01*
X156178824Y-108237637D01*
X156350966Y-108122615D01*
X156542235Y-108043389D01*
X156745284Y-108003000D01*
X156952316Y-108003000D01*
X157155365Y-108043389D01*
X157155365Y-108043389D01*
G37*
G36*
X161655365Y-108043389D02*
X161846634Y-108122615D01*
X162018776Y-108237637D01*
X162165163Y-108384024D01*
X162280185Y-108556166D01*
X162359411Y-108747435D01*
X162399800Y-108950484D01*
X162399800Y-109157516D01*
X162359411Y-109360565D01*
X162280185Y-109551834D01*
X162165163Y-109723976D01*
X162018776Y-109870363D01*
X161846634Y-109985385D01*
X161655365Y-110064611D01*
X161452316Y-110105000D01*
X161245284Y-110105000D01*
X161042235Y-110064611D01*
X160850966Y-109985385D01*
X160678824Y-109870363D01*
X160532437Y-109723976D01*
X160417415Y-109551834D01*
X160338189Y-109360565D01*
X160297800Y-109157516D01*
X160297800Y-108950484D01*
X160338189Y-108747435D01*
X160417415Y-108556166D01*
X160532437Y-108384024D01*
X160678824Y-108237637D01*
X160850966Y-108122615D01*
X161042235Y-108043389D01*
X161245284Y-108003000D01*
X161452316Y-108003000D01*
X161655365Y-108043389D01*
X161655365Y-108043389D01*
G37*
G36*
X174663510Y-107997541D02*
X174787032Y-108009707D01*
X174985146Y-108069805D01*
X175167729Y-108167397D01*
X175327765Y-108298735D01*
X175459103Y-108458771D01*
X175556695Y-108641354D01*
X175616793Y-108839468D01*
X175637085Y-109045500D01*
X175616793Y-109251532D01*
X175556695Y-109449646D01*
X175459103Y-109632229D01*
X175327765Y-109792265D01*
X175167729Y-109923603D01*
X174985146Y-110021195D01*
X174787032Y-110081293D01*
X174663510Y-110093459D01*
X174632631Y-110096500D01*
X173029369Y-110096500D01*
X172998490Y-110093459D01*
X172874968Y-110081293D01*
X172676854Y-110021195D01*
X172494271Y-109923603D01*
X172334235Y-109792265D01*
X172202897Y-109632229D01*
X172105305Y-109449646D01*
X172045207Y-109251532D01*
X172024915Y-109045500D01*
X172045207Y-108839468D01*
X172105305Y-108641354D01*
X172202897Y-108458771D01*
X172334235Y-108298735D01*
X172494271Y-108167397D01*
X172676854Y-108069805D01*
X172874968Y-108009707D01*
X172998490Y-107997541D01*
X173029369Y-107994500D01*
X174632631Y-107994500D01*
X174663510Y-107997541D01*
X174663510Y-107997541D01*
G37*
G36*
X129358534Y-104869354D02*
X129575499Y-104935170D01*
X129575501Y-104935171D01*
X129575504Y-104935172D01*
X129775455Y-105042047D01*
X129950718Y-105185882D01*
X130094553Y-105361144D01*
X130196660Y-105552174D01*
X130210274Y-105572549D01*
X130227601Y-105589876D01*
X130247975Y-105603490D01*
X130270614Y-105612867D01*
X130294648Y-105617648D01*
X130319152Y-105617648D01*
X130343185Y-105612868D01*
X130365824Y-105603490D01*
X130386199Y-105589876D01*
X130403526Y-105572549D01*
X130417140Y-105552175D01*
X130426517Y-105529536D01*
X130431298Y-105505502D01*
X130431900Y-105493250D01*
X130431900Y-105352700D01*
X132033900Y-105352700D01*
X132033900Y-107954700D01*
X130431900Y-107954700D01*
X130431900Y-107814150D01*
X130429498Y-107789764D01*
X130422385Y-107766315D01*
X130410834Y-107744704D01*
X130395288Y-107725762D01*
X130376346Y-107710216D01*
X130354735Y-107698665D01*
X130331286Y-107691552D01*
X130306900Y-107689150D01*
X130282514Y-107691552D01*
X130259065Y-107698665D01*
X130237454Y-107710216D01*
X130218512Y-107725762D01*
X130202966Y-107744704D01*
X130196660Y-107755226D01*
X130094553Y-107946256D01*
X129950718Y-108121518D01*
X129775456Y-108265353D01*
X129575505Y-108372228D01*
X129575502Y-108372229D01*
X129575500Y-108372230D01*
X129358535Y-108438046D01*
X129132900Y-108460269D01*
X128907266Y-108438046D01*
X128690301Y-108372230D01*
X128690299Y-108372229D01*
X128690296Y-108372228D01*
X128490345Y-108265353D01*
X128315083Y-108121518D01*
X128171249Y-107946257D01*
X128064371Y-107746302D01*
X128058140Y-107725762D01*
X127998554Y-107529335D01*
X127981900Y-107360243D01*
X127981900Y-105947158D01*
X127984826Y-105917454D01*
X127992167Y-105842911D01*
X127998554Y-105778066D01*
X128064370Y-105561101D01*
X128064371Y-105561099D01*
X128064372Y-105561096D01*
X128171247Y-105361145D01*
X128315082Y-105185882D01*
X128490344Y-105042047D01*
X128690295Y-104935172D01*
X128690298Y-104935171D01*
X128690300Y-104935170D01*
X128907265Y-104869354D01*
X129132900Y-104847131D01*
X129358534Y-104869354D01*
X129358534Y-104869354D01*
G37*
G36*
X137558534Y-104869354D02*
X137775499Y-104935170D01*
X137775501Y-104935171D01*
X137775504Y-104935172D01*
X137975455Y-105042047D01*
X138150718Y-105185882D01*
X138294553Y-105361144D01*
X138401428Y-105561095D01*
X138401428Y-105561096D01*
X138401430Y-105561100D01*
X138467246Y-105778065D01*
X138483900Y-105947157D01*
X138483900Y-107360243D01*
X138467246Y-107529335D01*
X138407660Y-107725762D01*
X138401428Y-107746305D01*
X138294553Y-107946256D01*
X138150718Y-108121518D01*
X137975456Y-108265353D01*
X137775505Y-108372228D01*
X137775502Y-108372229D01*
X137775500Y-108372230D01*
X137558535Y-108438046D01*
X137332900Y-108460269D01*
X137107266Y-108438046D01*
X136890301Y-108372230D01*
X136890299Y-108372229D01*
X136890296Y-108372228D01*
X136690345Y-108265353D01*
X136515083Y-108121518D01*
X136371249Y-107946257D01*
X136264371Y-107746302D01*
X136257252Y-107722833D01*
X136198554Y-107529335D01*
X136197911Y-107527215D01*
X136193991Y-107507503D01*
X136184613Y-107484864D01*
X136171000Y-107464489D01*
X136153672Y-107447162D01*
X136133298Y-107433548D01*
X136110659Y-107424171D01*
X136086626Y-107419390D01*
X136062121Y-107419390D01*
X136038088Y-107424170D01*
X136015449Y-107433548D01*
X135995074Y-107447161D01*
X135977747Y-107464489D01*
X135964133Y-107484864D01*
X135902130Y-107600865D01*
X135802033Y-107722833D01*
X135680065Y-107822930D01*
X135540912Y-107897308D01*
X135389925Y-107943110D01*
X135232900Y-107958575D01*
X135075876Y-107943110D01*
X134924889Y-107897308D01*
X134785736Y-107822930D01*
X134663768Y-107722833D01*
X134563671Y-107600865D01*
X134489293Y-107461712D01*
X134443491Y-107310725D01*
X134431901Y-107193046D01*
X134431900Y-106114355D01*
X134443490Y-105996676D01*
X134489292Y-105845689D01*
X134563668Y-105706539D01*
X134621508Y-105636060D01*
X134663767Y-105584567D01*
X134663769Y-105584566D01*
X134663770Y-105584564D01*
X134785735Y-105484470D01*
X134924888Y-105410092D01*
X135075875Y-105364290D01*
X135232900Y-105348825D01*
X135389924Y-105364290D01*
X135540911Y-105410092D01*
X135680061Y-105484468D01*
X135731880Y-105526995D01*
X135802033Y-105584567D01*
X135802034Y-105584569D01*
X135802036Y-105584570D01*
X135902130Y-105706535D01*
X135964133Y-105822536D01*
X135977746Y-105842911D01*
X135995074Y-105860238D01*
X136015448Y-105873852D01*
X136038087Y-105883229D01*
X136062120Y-105888010D01*
X136086625Y-105888010D01*
X136110658Y-105883230D01*
X136133297Y-105873852D01*
X136153672Y-105860239D01*
X136170999Y-105842911D01*
X136184613Y-105822537D01*
X136193990Y-105799898D01*
X136197911Y-105780188D01*
X136198554Y-105778068D01*
X136198554Y-105778066D01*
X136264370Y-105561101D01*
X136264371Y-105561099D01*
X136264372Y-105561096D01*
X136371247Y-105361145D01*
X136515082Y-105185882D01*
X136690344Y-105042047D01*
X136890295Y-104935172D01*
X136890298Y-104935171D01*
X136890300Y-104935170D01*
X137107265Y-104869354D01*
X137332900Y-104847131D01*
X137558534Y-104869354D01*
X137558534Y-104869354D01*
G37*
G36*
X133389924Y-105364290D02*
X133540911Y-105410092D01*
X133680061Y-105484468D01*
X133731880Y-105526995D01*
X133802033Y-105584567D01*
X133802034Y-105584569D01*
X133802036Y-105584570D01*
X133902130Y-105706535D01*
X133976508Y-105845688D01*
X134022310Y-105996675D01*
X134033900Y-106114354D01*
X134033900Y-107193046D01*
X134022310Y-107310725D01*
X133976508Y-107461712D01*
X133902130Y-107600865D01*
X133802033Y-107722833D01*
X133680065Y-107822930D01*
X133540912Y-107897308D01*
X133389925Y-107943110D01*
X133232900Y-107958575D01*
X133075876Y-107943110D01*
X132924889Y-107897308D01*
X132785736Y-107822930D01*
X132663768Y-107722833D01*
X132563671Y-107600865D01*
X132489293Y-107461712D01*
X132443491Y-107310725D01*
X132431901Y-107193046D01*
X132431900Y-106114355D01*
X132443490Y-105996676D01*
X132489292Y-105845689D01*
X132563668Y-105706539D01*
X132621508Y-105636060D01*
X132663767Y-105584567D01*
X132663769Y-105584566D01*
X132663770Y-105584564D01*
X132785735Y-105484470D01*
X132924888Y-105410092D01*
X133075875Y-105364290D01*
X133232900Y-105348825D01*
X133389924Y-105364290D01*
X133389924Y-105364290D01*
G37*
G36*
X148094905Y-106064555D02*
X148128883Y-106074863D01*
X148160201Y-106091603D01*
X148192430Y-106118052D01*
X148617542Y-106543164D01*
X148643991Y-106575393D01*
X148660731Y-106606711D01*
X148671039Y-106640689D01*
X148674519Y-106676030D01*
X148671039Y-106711371D01*
X148660731Y-106745349D01*
X148643991Y-106776667D01*
X148617542Y-106808896D01*
X148139396Y-107287042D01*
X148107167Y-107313491D01*
X148075849Y-107330231D01*
X148041871Y-107340539D01*
X148006530Y-107344019D01*
X147971189Y-107340539D01*
X147937211Y-107330231D01*
X147905893Y-107313491D01*
X147873664Y-107287042D01*
X147448552Y-106861930D01*
X147422103Y-106829701D01*
X147405363Y-106798383D01*
X147395055Y-106764405D01*
X147391575Y-106729064D01*
X147395055Y-106693723D01*
X147405363Y-106659745D01*
X147422103Y-106628427D01*
X147448552Y-106596198D01*
X147926698Y-106118052D01*
X147958927Y-106091603D01*
X147990245Y-106074863D01*
X148024223Y-106064555D01*
X148059564Y-106061075D01*
X148094905Y-106064555D01*
X148094905Y-106064555D01*
G37*
G36*
X150859738Y-106298116D02*
X150880356Y-106304370D01*
X150899356Y-106314526D01*
X150916008Y-106328192D01*
X150929674Y-106344844D01*
X150939830Y-106363844D01*
X150946084Y-106384462D01*
X150948800Y-106412040D01*
X150948800Y-106920760D01*
X150946084Y-106948338D01*
X150939830Y-106968956D01*
X150929674Y-106987956D01*
X150916008Y-107004608D01*
X150899356Y-107018274D01*
X150880356Y-107028430D01*
X150859738Y-107034684D01*
X150832160Y-107037400D01*
X150373440Y-107037400D01*
X150345862Y-107034684D01*
X150325244Y-107028430D01*
X150306244Y-107018274D01*
X150289592Y-107004608D01*
X150275926Y-106987956D01*
X150265770Y-106968956D01*
X150259516Y-106948338D01*
X150256800Y-106920760D01*
X150256800Y-106412040D01*
X150259516Y-106384462D01*
X150265770Y-106363844D01*
X150275926Y-106344844D01*
X150289592Y-106328192D01*
X150306244Y-106314526D01*
X150325244Y-106304370D01*
X150345862Y-106298116D01*
X150373440Y-106295400D01*
X150832160Y-106295400D01*
X150859738Y-106298116D01*
X150859738Y-106298116D01*
G37*
G36*
X149889738Y-106298116D02*
X149910356Y-106304370D01*
X149929356Y-106314526D01*
X149946008Y-106328192D01*
X149959674Y-106344844D01*
X149969830Y-106363844D01*
X149976084Y-106384462D01*
X149978800Y-106412040D01*
X149978800Y-106920760D01*
X149976084Y-106948338D01*
X149969830Y-106968956D01*
X149959674Y-106987956D01*
X149946008Y-107004608D01*
X149929356Y-107018274D01*
X149910356Y-107028430D01*
X149889738Y-107034684D01*
X149862160Y-107037400D01*
X149403440Y-107037400D01*
X149375862Y-107034684D01*
X149355244Y-107028430D01*
X149336244Y-107018274D01*
X149319592Y-107004608D01*
X149305926Y-106987956D01*
X149295770Y-106968956D01*
X149289516Y-106948338D01*
X149286800Y-106920760D01*
X149286800Y-106412040D01*
X149289516Y-106384462D01*
X149295770Y-106363844D01*
X149305926Y-106344844D01*
X149319592Y-106328192D01*
X149336244Y-106314526D01*
X149355244Y-106304370D01*
X149375862Y-106298116D01*
X149403440Y-106295400D01*
X149862160Y-106295400D01*
X149889738Y-106298116D01*
X149889738Y-106298116D01*
G37*
G36*
X154412938Y-106033416D02*
X154433556Y-106039670D01*
X154452556Y-106049826D01*
X154469208Y-106063492D01*
X154482874Y-106080144D01*
X154493030Y-106099144D01*
X154499284Y-106119762D01*
X154502000Y-106147340D01*
X154502000Y-106606060D01*
X154499284Y-106633638D01*
X154493030Y-106654256D01*
X154482874Y-106673256D01*
X154469208Y-106689908D01*
X154452556Y-106703574D01*
X154433556Y-106713730D01*
X154412938Y-106719984D01*
X154385360Y-106722700D01*
X153876640Y-106722700D01*
X153849062Y-106719984D01*
X153828444Y-106713730D01*
X153809444Y-106703574D01*
X153792792Y-106689908D01*
X153779126Y-106673256D01*
X153768970Y-106654256D01*
X153762716Y-106633638D01*
X153760000Y-106606060D01*
X153760000Y-106147340D01*
X153762716Y-106119762D01*
X153768970Y-106099144D01*
X153779126Y-106080144D01*
X153792792Y-106063492D01*
X153809444Y-106049826D01*
X153828444Y-106039670D01*
X153849062Y-106033416D01*
X153876640Y-106030700D01*
X154385360Y-106030700D01*
X154412938Y-106033416D01*
X154412938Y-106033416D01*
G37*
G36*
X167882000Y-106596500D02*
X165780000Y-106596500D01*
X165780000Y-102494500D01*
X167882000Y-102494500D01*
X167882000Y-106596500D01*
X167882000Y-106596500D01*
G37*
G36*
X173037031Y-102859707D02*
X173235145Y-102919805D01*
X173417729Y-103017397D01*
X173577765Y-103148735D01*
X173577766Y-103148737D01*
X173577768Y-103148738D01*
X173642393Y-103227484D01*
X173709103Y-103308771D01*
X173806695Y-103491354D01*
X173866793Y-103689468D01*
X173882000Y-103843870D01*
X173882000Y-105247130D01*
X173866793Y-105401532D01*
X173806695Y-105599646D01*
X173709103Y-105782229D01*
X173577765Y-105942265D01*
X173417729Y-106073603D01*
X173235146Y-106171195D01*
X173037032Y-106231293D01*
X172831000Y-106251585D01*
X172624969Y-106231293D01*
X172426855Y-106171195D01*
X172244272Y-106073603D01*
X172084236Y-105942265D01*
X172028091Y-105873852D01*
X171952899Y-105782231D01*
X171855306Y-105599648D01*
X171796646Y-105406271D01*
X171795208Y-105401532D01*
X171795208Y-105401531D01*
X171795207Y-105401528D01*
X171780000Y-105247131D01*
X171780000Y-103843870D01*
X171785172Y-103791354D01*
X171795207Y-103689469D01*
X171855305Y-103491355D01*
X171858497Y-103485384D01*
X171861224Y-103480281D01*
X171952897Y-103308771D01*
X172084235Y-103148735D01*
X172084237Y-103148734D01*
X172084238Y-103148732D01*
X172199548Y-103054100D01*
X172244271Y-103017397D01*
X172426854Y-102919805D01*
X172624968Y-102859707D01*
X172831000Y-102839415D01*
X173037031Y-102859707D01*
X173037031Y-102859707D01*
G37*
G36*
X144505463Y-105318938D02*
X144526081Y-105325192D01*
X144545081Y-105335348D01*
X144566506Y-105352931D01*
X144890863Y-105677288D01*
X144908446Y-105698713D01*
X144918602Y-105717713D01*
X144924856Y-105738331D01*
X144926967Y-105759769D01*
X144924856Y-105781207D01*
X144918602Y-105801825D01*
X144908446Y-105820825D01*
X144890863Y-105842250D01*
X144531150Y-106201963D01*
X144509725Y-106219546D01*
X144490725Y-106229702D01*
X144470107Y-106235956D01*
X144448669Y-106238067D01*
X144427231Y-106235956D01*
X144406613Y-106229702D01*
X144387613Y-106219546D01*
X144366188Y-106201963D01*
X144041831Y-105877606D01*
X144024248Y-105856181D01*
X144014092Y-105837181D01*
X144007838Y-105816563D01*
X144005727Y-105795125D01*
X144007838Y-105773687D01*
X144014092Y-105753069D01*
X144024248Y-105734069D01*
X144041831Y-105712644D01*
X144401544Y-105352931D01*
X144422969Y-105335348D01*
X144441969Y-105325192D01*
X144462587Y-105318938D01*
X144484025Y-105316827D01*
X144505463Y-105318938D01*
X144505463Y-105318938D01*
G37*
G36*
X146981211Y-104950861D02*
X147015189Y-104961169D01*
X147046507Y-104977909D01*
X147078736Y-105004358D01*
X147503848Y-105429470D01*
X147530297Y-105461699D01*
X147547037Y-105493017D01*
X147557345Y-105526995D01*
X147560825Y-105562336D01*
X147557345Y-105597677D01*
X147547037Y-105631655D01*
X147530297Y-105662973D01*
X147503848Y-105695202D01*
X147025702Y-106173348D01*
X146993473Y-106199797D01*
X146962155Y-106216537D01*
X146928177Y-106226845D01*
X146892836Y-106230325D01*
X146857495Y-106226845D01*
X146823517Y-106216537D01*
X146792199Y-106199797D01*
X146759970Y-106173348D01*
X146334858Y-105748236D01*
X146308409Y-105716007D01*
X146291669Y-105684689D01*
X146281361Y-105650711D01*
X146277881Y-105615370D01*
X146281361Y-105580029D01*
X146291669Y-105546051D01*
X146308409Y-105514733D01*
X146334858Y-105482504D01*
X146813004Y-105004358D01*
X146845233Y-104977909D01*
X146876551Y-104961169D01*
X146910529Y-104950861D01*
X146945870Y-104947381D01*
X146981211Y-104950861D01*
X146981211Y-104950861D01*
G37*
G36*
X116849138Y-105358316D02*
X116869756Y-105364570D01*
X116888756Y-105374726D01*
X116905408Y-105388392D01*
X116919074Y-105405044D01*
X116929230Y-105424044D01*
X116935484Y-105444662D01*
X116938200Y-105472240D01*
X116938200Y-105980960D01*
X116935484Y-106008538D01*
X116929230Y-106029156D01*
X116919074Y-106048156D01*
X116905408Y-106064808D01*
X116888756Y-106078474D01*
X116869756Y-106088630D01*
X116849138Y-106094884D01*
X116821560Y-106097600D01*
X116362840Y-106097600D01*
X116335262Y-106094884D01*
X116314644Y-106088630D01*
X116295644Y-106078474D01*
X116278992Y-106064808D01*
X116265326Y-106048156D01*
X116255170Y-106029156D01*
X116248916Y-106008538D01*
X116246200Y-105980960D01*
X116246200Y-105472240D01*
X116248916Y-105444662D01*
X116255170Y-105424044D01*
X116265326Y-105405044D01*
X116278992Y-105388392D01*
X116295644Y-105374726D01*
X116314644Y-105364570D01*
X116335262Y-105358316D01*
X116362840Y-105355600D01*
X116821560Y-105355600D01*
X116849138Y-105358316D01*
X116849138Y-105358316D01*
G37*
G36*
X115879138Y-105358316D02*
X115899756Y-105364570D01*
X115918756Y-105374726D01*
X115935408Y-105388392D01*
X115949074Y-105405044D01*
X115959230Y-105424044D01*
X115965484Y-105444662D01*
X115968200Y-105472240D01*
X115968200Y-105980960D01*
X115965484Y-106008538D01*
X115959230Y-106029156D01*
X115949074Y-106048156D01*
X115935408Y-106064808D01*
X115918756Y-106078474D01*
X115899756Y-106088630D01*
X115879138Y-106094884D01*
X115851560Y-106097600D01*
X115392840Y-106097600D01*
X115365262Y-106094884D01*
X115344644Y-106088630D01*
X115325644Y-106078474D01*
X115308992Y-106064808D01*
X115295326Y-106048156D01*
X115285170Y-106029156D01*
X115278916Y-106008538D01*
X115276200Y-105980960D01*
X115276200Y-105472240D01*
X115278916Y-105444662D01*
X115285170Y-105424044D01*
X115295326Y-105405044D01*
X115308992Y-105388392D01*
X115325644Y-105374726D01*
X115344644Y-105364570D01*
X115365262Y-105358316D01*
X115392840Y-105355600D01*
X115851560Y-105355600D01*
X115879138Y-105358316D01*
X115879138Y-105358316D01*
G37*
G36*
X151545538Y-105091616D02*
X151566156Y-105097870D01*
X151585156Y-105108026D01*
X151601808Y-105121692D01*
X151615474Y-105138344D01*
X151625630Y-105157344D01*
X151631884Y-105177962D01*
X151634600Y-105205540D01*
X151634600Y-105714260D01*
X151631884Y-105741838D01*
X151625630Y-105762456D01*
X151615474Y-105781456D01*
X151601808Y-105798108D01*
X151585156Y-105811774D01*
X151566156Y-105821930D01*
X151545538Y-105828184D01*
X151517960Y-105830900D01*
X151059240Y-105830900D01*
X151031662Y-105828184D01*
X151011044Y-105821930D01*
X150992044Y-105811774D01*
X150975392Y-105798108D01*
X150961726Y-105781456D01*
X150951570Y-105762456D01*
X150945316Y-105741838D01*
X150942600Y-105714260D01*
X150942600Y-105205540D01*
X150945316Y-105177962D01*
X150951570Y-105157344D01*
X150961726Y-105138344D01*
X150975392Y-105121692D01*
X150992044Y-105108026D01*
X151011044Y-105097870D01*
X151031662Y-105091616D01*
X151059240Y-105088900D01*
X151517960Y-105088900D01*
X151545538Y-105091616D01*
X151545538Y-105091616D01*
G37*
G36*
X150575538Y-105091616D02*
X150596156Y-105097870D01*
X150615156Y-105108026D01*
X150631808Y-105121692D01*
X150645474Y-105138344D01*
X150655630Y-105157344D01*
X150661884Y-105177962D01*
X150664600Y-105205540D01*
X150664600Y-105714260D01*
X150661884Y-105741838D01*
X150655630Y-105762456D01*
X150645474Y-105781456D01*
X150631808Y-105798108D01*
X150615156Y-105811774D01*
X150596156Y-105821930D01*
X150575538Y-105828184D01*
X150547960Y-105830900D01*
X150089240Y-105830900D01*
X150061662Y-105828184D01*
X150041044Y-105821930D01*
X150022044Y-105811774D01*
X150005392Y-105798108D01*
X149991726Y-105781456D01*
X149981570Y-105762456D01*
X149975316Y-105741838D01*
X149972600Y-105714260D01*
X149972600Y-105205540D01*
X149975316Y-105177962D01*
X149981570Y-105157344D01*
X149991726Y-105138344D01*
X150005392Y-105121692D01*
X150022044Y-105108026D01*
X150041044Y-105097870D01*
X150061662Y-105091616D01*
X150089240Y-105088900D01*
X150547960Y-105088900D01*
X150575538Y-105091616D01*
X150575538Y-105091616D01*
G37*
G36*
X154412938Y-105063416D02*
X154433556Y-105069670D01*
X154452556Y-105079826D01*
X154469208Y-105093492D01*
X154482874Y-105110144D01*
X154493030Y-105129144D01*
X154499284Y-105149762D01*
X154502000Y-105177340D01*
X154502000Y-105636060D01*
X154499284Y-105663638D01*
X154493030Y-105684256D01*
X154482874Y-105703256D01*
X154469208Y-105719908D01*
X154452556Y-105733574D01*
X154433556Y-105743730D01*
X154412938Y-105749984D01*
X154385360Y-105752700D01*
X153876640Y-105752700D01*
X153849062Y-105749984D01*
X153828444Y-105743730D01*
X153809444Y-105733574D01*
X153792792Y-105719908D01*
X153779126Y-105703256D01*
X153768970Y-105684256D01*
X153762716Y-105663638D01*
X153760000Y-105636060D01*
X153760000Y-105177340D01*
X153762716Y-105149762D01*
X153768970Y-105129144D01*
X153779126Y-105110144D01*
X153792792Y-105093492D01*
X153809444Y-105079826D01*
X153828444Y-105069670D01*
X153849062Y-105063416D01*
X153876640Y-105060700D01*
X154385360Y-105060700D01*
X154412938Y-105063416D01*
X154412938Y-105063416D01*
G37*
G36*
X143819569Y-104633044D02*
X143840187Y-104639298D01*
X143859187Y-104649454D01*
X143880612Y-104667037D01*
X144204969Y-104991394D01*
X144222552Y-105012819D01*
X144232708Y-105031819D01*
X144238962Y-105052437D01*
X144241073Y-105073875D01*
X144238962Y-105095313D01*
X144232708Y-105115931D01*
X144222552Y-105134931D01*
X144204969Y-105156356D01*
X143845256Y-105516069D01*
X143823831Y-105533652D01*
X143804831Y-105543808D01*
X143784213Y-105550062D01*
X143762775Y-105552173D01*
X143741337Y-105550062D01*
X143720719Y-105543808D01*
X143701719Y-105533652D01*
X143680294Y-105516069D01*
X143355937Y-105191712D01*
X143338354Y-105170287D01*
X143328198Y-105151287D01*
X143321944Y-105130669D01*
X143319833Y-105109231D01*
X143321944Y-105087793D01*
X143328198Y-105067175D01*
X143338354Y-105048175D01*
X143355937Y-105026750D01*
X143715650Y-104667037D01*
X143737075Y-104649454D01*
X143756075Y-104639298D01*
X143776693Y-104633044D01*
X143798131Y-104630933D01*
X143819569Y-104633044D01*
X143819569Y-104633044D01*
G37*
G36*
X145486013Y-104582338D02*
X145506631Y-104588592D01*
X145525631Y-104598748D01*
X145547056Y-104616331D01*
X145906769Y-104976044D01*
X145924352Y-104997469D01*
X145934508Y-105016469D01*
X145940762Y-105037087D01*
X145942873Y-105058525D01*
X145940762Y-105079963D01*
X145934508Y-105100581D01*
X145924352Y-105119581D01*
X145906769Y-105141006D01*
X145582412Y-105465363D01*
X145560987Y-105482946D01*
X145541987Y-105493102D01*
X145521369Y-105499356D01*
X145499931Y-105501467D01*
X145478493Y-105499356D01*
X145457875Y-105493102D01*
X145438875Y-105482946D01*
X145417450Y-105465363D01*
X145057737Y-105105650D01*
X145040154Y-105084225D01*
X145029998Y-105065225D01*
X145023744Y-105044607D01*
X145021633Y-105023169D01*
X145023744Y-105001731D01*
X145029998Y-104981113D01*
X145040154Y-104962113D01*
X145057737Y-104940688D01*
X145382094Y-104616331D01*
X145403519Y-104598748D01*
X145422519Y-104588592D01*
X145443137Y-104582338D01*
X145464575Y-104580227D01*
X145486013Y-104582338D01*
X145486013Y-104582338D01*
G37*
G36*
X140496100Y-105433400D02*
X139394100Y-105433400D01*
X139394100Y-103581400D01*
X140496100Y-103581400D01*
X140496100Y-105433400D01*
X140496100Y-105433400D01*
G37*
G36*
X176079228Y-103727203D02*
X176234100Y-103791353D01*
X176373481Y-103884485D01*
X176492015Y-104003019D01*
X176585147Y-104142400D01*
X176649297Y-104297272D01*
X176682000Y-104461684D01*
X176682000Y-104629316D01*
X176649297Y-104793728D01*
X176585147Y-104948600D01*
X176492015Y-105087981D01*
X176373481Y-105206515D01*
X176234100Y-105299647D01*
X176079228Y-105363797D01*
X175914816Y-105396500D01*
X175747184Y-105396500D01*
X175582772Y-105363797D01*
X175427900Y-105299647D01*
X175288519Y-105206515D01*
X175169985Y-105087981D01*
X175076853Y-104948600D01*
X175012703Y-104793728D01*
X174980000Y-104629316D01*
X174980000Y-104461684D01*
X175012703Y-104297272D01*
X175076853Y-104142400D01*
X175169985Y-104003019D01*
X175288519Y-103884485D01*
X175427900Y-103791353D01*
X175582772Y-103727203D01*
X175747184Y-103694500D01*
X175914816Y-103694500D01*
X176079228Y-103727203D01*
X176079228Y-103727203D01*
G37*
G36*
X149112730Y-103294148D02*
X149149271Y-103305233D01*
X149182946Y-103323232D01*
X149217243Y-103351380D01*
X149888218Y-104022355D01*
X149916366Y-104056652D01*
X149934365Y-104090327D01*
X149945450Y-104126868D01*
X149949192Y-104164872D01*
X149945450Y-104202876D01*
X149934365Y-104239417D01*
X149916366Y-104273092D01*
X149888218Y-104307389D01*
X148863689Y-105331918D01*
X148829392Y-105360066D01*
X148795717Y-105378065D01*
X148759176Y-105389150D01*
X148721172Y-105392892D01*
X148683168Y-105389150D01*
X148646627Y-105378065D01*
X148612952Y-105360066D01*
X148578655Y-105331918D01*
X147907680Y-104660943D01*
X147879532Y-104626646D01*
X147861533Y-104592971D01*
X147850448Y-104556430D01*
X147846706Y-104518426D01*
X147850448Y-104480422D01*
X147861533Y-104443881D01*
X147879532Y-104410206D01*
X147907680Y-104375909D01*
X148932209Y-103351380D01*
X148966506Y-103323232D01*
X149000181Y-103305233D01*
X149036722Y-103294148D01*
X149074726Y-103290406D01*
X149112730Y-103294148D01*
X149112730Y-103294148D01*
G37*
G36*
X146171907Y-103896444D02*
X146192525Y-103902698D01*
X146211525Y-103912854D01*
X146232950Y-103930437D01*
X146592663Y-104290150D01*
X146610246Y-104311575D01*
X146620402Y-104330575D01*
X146626656Y-104351193D01*
X146628767Y-104372631D01*
X146626656Y-104394069D01*
X146620402Y-104414687D01*
X146610246Y-104433687D01*
X146592663Y-104455112D01*
X146268306Y-104779469D01*
X146246881Y-104797052D01*
X146227881Y-104807208D01*
X146207263Y-104813462D01*
X146185825Y-104815573D01*
X146164387Y-104813462D01*
X146143769Y-104807208D01*
X146124769Y-104797052D01*
X146103344Y-104779469D01*
X145743631Y-104419756D01*
X145726048Y-104398331D01*
X145715892Y-104379331D01*
X145709638Y-104358713D01*
X145707527Y-104337275D01*
X145709638Y-104315837D01*
X145715892Y-104295219D01*
X145726048Y-104276219D01*
X145743631Y-104254794D01*
X146067988Y-103930437D01*
X146089413Y-103912854D01*
X146108413Y-103902698D01*
X146129031Y-103896444D01*
X146150469Y-103894333D01*
X146171907Y-103896444D01*
X146171907Y-103896444D01*
G37*
G36*
X164611038Y-104026816D02*
X164631656Y-104033070D01*
X164650656Y-104043226D01*
X164667308Y-104056892D01*
X164680974Y-104073544D01*
X164691130Y-104092544D01*
X164697384Y-104113162D01*
X164700100Y-104140740D01*
X164700100Y-104599460D01*
X164697384Y-104627038D01*
X164691130Y-104647656D01*
X164680974Y-104666656D01*
X164667308Y-104683308D01*
X164650656Y-104696974D01*
X164631656Y-104707130D01*
X164611038Y-104713384D01*
X164583460Y-104716100D01*
X164074740Y-104716100D01*
X164047162Y-104713384D01*
X164026544Y-104707130D01*
X164007544Y-104696974D01*
X163990892Y-104683308D01*
X163977226Y-104666656D01*
X163967070Y-104647656D01*
X163960816Y-104627038D01*
X163958100Y-104599460D01*
X163958100Y-104140740D01*
X163960816Y-104113162D01*
X163967070Y-104092544D01*
X163977226Y-104073544D01*
X163990892Y-104056892D01*
X164007544Y-104043226D01*
X164026544Y-104033070D01*
X164047162Y-104026816D01*
X164074740Y-104024100D01*
X164583460Y-104024100D01*
X164611038Y-104026816D01*
X164611038Y-104026816D01*
G37*
G36*
X115893838Y-103976016D02*
X115914456Y-103982270D01*
X115933456Y-103992426D01*
X115950108Y-104006092D01*
X115963774Y-104022744D01*
X115973930Y-104041744D01*
X115980184Y-104062362D01*
X115982900Y-104089940D01*
X115982900Y-104548660D01*
X115980184Y-104576238D01*
X115973930Y-104596856D01*
X115963774Y-104615856D01*
X115950108Y-104632508D01*
X115933456Y-104646174D01*
X115914456Y-104656330D01*
X115893838Y-104662584D01*
X115866260Y-104665300D01*
X115357540Y-104665300D01*
X115329962Y-104662584D01*
X115309344Y-104656330D01*
X115290344Y-104646174D01*
X115273692Y-104632508D01*
X115260026Y-104615856D01*
X115249870Y-104596856D01*
X115243616Y-104576238D01*
X115240900Y-104548660D01*
X115240900Y-104089940D01*
X115243616Y-104062362D01*
X115249870Y-104041744D01*
X115260026Y-104022744D01*
X115273692Y-104006092D01*
X115290344Y-103992426D01*
X115309344Y-103982270D01*
X115329962Y-103976016D01*
X115357540Y-103973300D01*
X115866260Y-103973300D01*
X115893838Y-103976016D01*
X115893838Y-103976016D01*
G37*
G36*
X152282138Y-103859716D02*
X152302756Y-103865970D01*
X152321756Y-103876126D01*
X152338408Y-103889792D01*
X152352074Y-103906444D01*
X152362230Y-103925444D01*
X152368484Y-103946062D01*
X152371200Y-103973640D01*
X152371200Y-104482360D01*
X152368484Y-104509938D01*
X152362230Y-104530556D01*
X152352074Y-104549556D01*
X152338408Y-104566208D01*
X152321756Y-104579874D01*
X152302756Y-104590030D01*
X152282138Y-104596284D01*
X152254560Y-104599000D01*
X151795840Y-104599000D01*
X151768262Y-104596284D01*
X151747644Y-104590030D01*
X151728644Y-104579874D01*
X151711992Y-104566208D01*
X151698326Y-104549556D01*
X151688170Y-104530556D01*
X151681916Y-104509938D01*
X151679200Y-104482360D01*
X151679200Y-103973640D01*
X151681916Y-103946062D01*
X151688170Y-103925444D01*
X151698326Y-103906444D01*
X151711992Y-103889792D01*
X151728644Y-103876126D01*
X151747644Y-103865970D01*
X151768262Y-103859716D01*
X151795840Y-103857000D01*
X152254560Y-103857000D01*
X152282138Y-103859716D01*
X152282138Y-103859716D01*
G37*
G36*
X151312138Y-103859716D02*
X151332756Y-103865970D01*
X151351756Y-103876126D01*
X151368408Y-103889792D01*
X151382074Y-103906444D01*
X151392230Y-103925444D01*
X151398484Y-103946062D01*
X151401200Y-103973640D01*
X151401200Y-104482360D01*
X151398484Y-104509938D01*
X151392230Y-104530556D01*
X151382074Y-104549556D01*
X151368408Y-104566208D01*
X151351756Y-104579874D01*
X151332756Y-104590030D01*
X151312138Y-104596284D01*
X151284560Y-104599000D01*
X150825840Y-104599000D01*
X150798262Y-104596284D01*
X150777644Y-104590030D01*
X150758644Y-104579874D01*
X150741992Y-104566208D01*
X150728326Y-104549556D01*
X150718170Y-104530556D01*
X150711916Y-104509938D01*
X150709200Y-104482360D01*
X150709200Y-103973640D01*
X150711916Y-103946062D01*
X150718170Y-103925444D01*
X150728326Y-103906444D01*
X150741992Y-103889792D01*
X150758644Y-103876126D01*
X150777644Y-103865970D01*
X150798262Y-103859716D01*
X150825840Y-103857000D01*
X151284560Y-103857000D01*
X151312138Y-103859716D01*
X151312138Y-103859716D01*
G37*
G36*
X164611038Y-103056816D02*
X164631656Y-103063070D01*
X164650656Y-103073226D01*
X164667308Y-103086892D01*
X164680974Y-103103544D01*
X164691130Y-103122544D01*
X164697384Y-103143162D01*
X164700100Y-103170740D01*
X164700100Y-103629460D01*
X164697384Y-103657038D01*
X164691130Y-103677656D01*
X164680974Y-103696656D01*
X164667308Y-103713308D01*
X164650656Y-103726974D01*
X164631656Y-103737130D01*
X164611038Y-103743384D01*
X164583460Y-103746100D01*
X164074740Y-103746100D01*
X164047162Y-103743384D01*
X164026544Y-103737130D01*
X164007544Y-103726974D01*
X163990892Y-103713308D01*
X163977226Y-103696656D01*
X163967070Y-103677656D01*
X163960816Y-103657038D01*
X163958100Y-103629460D01*
X163958100Y-103170740D01*
X163960816Y-103143162D01*
X163967070Y-103122544D01*
X163977226Y-103103544D01*
X163990892Y-103086892D01*
X164007544Y-103073226D01*
X164026544Y-103063070D01*
X164047162Y-103056816D01*
X164074740Y-103054100D01*
X164583460Y-103054100D01*
X164611038Y-103056816D01*
X164611038Y-103056816D01*
G37*
G36*
X115893838Y-103006016D02*
X115914456Y-103012270D01*
X115933456Y-103022426D01*
X115950108Y-103036092D01*
X115963774Y-103052744D01*
X115973930Y-103071744D01*
X115980184Y-103092362D01*
X115982900Y-103119940D01*
X115982900Y-103578660D01*
X115980184Y-103606238D01*
X115973930Y-103626856D01*
X115963774Y-103645856D01*
X115950108Y-103662508D01*
X115933456Y-103676174D01*
X115914456Y-103686330D01*
X115893838Y-103692584D01*
X115866260Y-103695300D01*
X115357540Y-103695300D01*
X115329962Y-103692584D01*
X115309344Y-103686330D01*
X115290344Y-103676174D01*
X115273692Y-103662508D01*
X115260026Y-103645856D01*
X115249870Y-103626856D01*
X115243616Y-103606238D01*
X115240900Y-103578660D01*
X115240900Y-103119940D01*
X115243616Y-103092362D01*
X115249870Y-103071744D01*
X115260026Y-103052744D01*
X115273692Y-103036092D01*
X115290344Y-103022426D01*
X115309344Y-103012270D01*
X115329962Y-103006016D01*
X115357540Y-103003300D01*
X115866260Y-103003300D01*
X115893838Y-103006016D01*
X115893838Y-103006016D01*
G37*
G36*
X161655365Y-101543389D02*
X161846634Y-101622615D01*
X162018776Y-101737637D01*
X162165163Y-101884024D01*
X162280185Y-102056166D01*
X162359411Y-102247435D01*
X162399800Y-102450484D01*
X162399800Y-102657516D01*
X162359411Y-102860565D01*
X162280185Y-103051834D01*
X162165163Y-103223976D01*
X162018776Y-103370363D01*
X161846634Y-103485385D01*
X161655365Y-103564611D01*
X161452316Y-103605000D01*
X161245284Y-103605000D01*
X161042235Y-103564611D01*
X160850966Y-103485385D01*
X160678824Y-103370363D01*
X160532437Y-103223976D01*
X160417415Y-103051834D01*
X160338189Y-102860565D01*
X160297800Y-102657516D01*
X160297800Y-102450484D01*
X160338189Y-102247435D01*
X160417415Y-102056166D01*
X160532437Y-101884024D01*
X160678824Y-101737637D01*
X160850966Y-101622615D01*
X161042235Y-101543389D01*
X161245284Y-101503000D01*
X161452316Y-101503000D01*
X161655365Y-101543389D01*
X161655365Y-101543389D01*
G37*
G36*
X157155365Y-101543389D02*
X157346634Y-101622615D01*
X157518776Y-101737637D01*
X157665163Y-101884024D01*
X157780185Y-102056166D01*
X157859411Y-102247435D01*
X157899800Y-102450484D01*
X157899800Y-102657516D01*
X157859411Y-102860565D01*
X157780185Y-103051834D01*
X157665163Y-103223976D01*
X157518776Y-103370363D01*
X157346634Y-103485385D01*
X157155365Y-103564611D01*
X156952316Y-103605000D01*
X156745284Y-103605000D01*
X156542235Y-103564611D01*
X156350966Y-103485385D01*
X156178824Y-103370363D01*
X156032437Y-103223976D01*
X155917415Y-103051834D01*
X155838189Y-102860565D01*
X155797800Y-102657516D01*
X155797800Y-102450484D01*
X155838189Y-102247435D01*
X155917415Y-102056166D01*
X156032437Y-101884024D01*
X156178824Y-101737637D01*
X156350966Y-101622615D01*
X156542235Y-101543389D01*
X156745284Y-101503000D01*
X156952316Y-101503000D01*
X157155365Y-101543389D01*
X157155365Y-101543389D01*
G37*
G36*
X147132832Y-101314250D02*
X147169373Y-101325335D01*
X147203048Y-101343334D01*
X147237345Y-101371482D01*
X147908320Y-102042457D01*
X147936468Y-102076754D01*
X147954467Y-102110429D01*
X147965552Y-102146970D01*
X147969294Y-102184974D01*
X147965552Y-102222978D01*
X147954467Y-102259519D01*
X147936468Y-102293194D01*
X147908320Y-102327491D01*
X146883791Y-103352020D01*
X146849494Y-103380168D01*
X146815819Y-103398167D01*
X146779278Y-103409252D01*
X146741274Y-103412994D01*
X146703270Y-103409252D01*
X146666729Y-103398167D01*
X146633054Y-103380168D01*
X146598757Y-103352020D01*
X145927782Y-102681045D01*
X145899634Y-102646748D01*
X145881635Y-102613073D01*
X145870550Y-102576532D01*
X145866808Y-102538528D01*
X145870550Y-102500524D01*
X145881635Y-102463983D01*
X145899634Y-102430308D01*
X145927782Y-102396011D01*
X146952311Y-101371482D01*
X146986608Y-101343334D01*
X147020283Y-101325335D01*
X147056824Y-101314250D01*
X147094828Y-101310508D01*
X147132832Y-101314250D01*
X147132832Y-101314250D01*
G37*
G36*
X151789104Y-101541047D02*
X151825645Y-101552132D01*
X151859320Y-101570131D01*
X151888841Y-101594359D01*
X151913069Y-101623880D01*
X151931068Y-101657555D01*
X151942153Y-101694096D01*
X151946500Y-101738238D01*
X151946500Y-103187162D01*
X151942153Y-103231304D01*
X151931068Y-103267845D01*
X151913069Y-103301520D01*
X151888841Y-103331041D01*
X151859320Y-103355269D01*
X151825645Y-103373268D01*
X151789104Y-103384353D01*
X151744962Y-103388700D01*
X150796038Y-103388700D01*
X150751896Y-103384353D01*
X150715355Y-103373268D01*
X150681680Y-103355269D01*
X150652159Y-103331041D01*
X150627931Y-103301520D01*
X150609932Y-103267845D01*
X150598847Y-103231304D01*
X150594500Y-103187162D01*
X150594500Y-101738238D01*
X150598847Y-101694096D01*
X150609932Y-101657555D01*
X150627931Y-101623880D01*
X150652159Y-101594359D01*
X150681680Y-101570131D01*
X150715355Y-101552132D01*
X150751896Y-101541047D01*
X150796038Y-101536700D01*
X151744962Y-101536700D01*
X151789104Y-101541047D01*
X151789104Y-101541047D01*
G37*
G36*
X154589104Y-101541047D02*
X154625645Y-101552132D01*
X154659320Y-101570131D01*
X154688841Y-101594359D01*
X154713069Y-101623880D01*
X154731068Y-101657555D01*
X154742153Y-101694096D01*
X154746500Y-101738238D01*
X154746500Y-103187162D01*
X154742153Y-103231304D01*
X154731068Y-103267845D01*
X154713069Y-103301520D01*
X154688841Y-103331041D01*
X154659320Y-103355269D01*
X154625645Y-103373268D01*
X154589104Y-103384353D01*
X154544962Y-103388700D01*
X153596038Y-103388700D01*
X153551896Y-103384353D01*
X153515355Y-103373268D01*
X153481680Y-103355269D01*
X153452159Y-103331041D01*
X153427931Y-103301520D01*
X153409932Y-103267845D01*
X153398847Y-103231304D01*
X153394500Y-103187162D01*
X153394500Y-101738238D01*
X153398847Y-101694096D01*
X153409932Y-101657555D01*
X153427931Y-101623880D01*
X153452159Y-101594359D01*
X153481680Y-101570131D01*
X153515355Y-101552132D01*
X153551896Y-101541047D01*
X153596038Y-101536700D01*
X154544962Y-101536700D01*
X154589104Y-101541047D01*
X154589104Y-101541047D01*
G37*
G36*
X140138138Y-102540916D02*
X140158756Y-102547170D01*
X140177756Y-102557326D01*
X140194408Y-102570992D01*
X140208074Y-102587644D01*
X140218230Y-102606644D01*
X140224484Y-102627262D01*
X140227200Y-102654840D01*
X140227200Y-103113560D01*
X140224484Y-103141138D01*
X140218230Y-103161756D01*
X140208074Y-103180756D01*
X140194408Y-103197408D01*
X140177756Y-103211074D01*
X140158756Y-103221230D01*
X140138138Y-103227484D01*
X140110560Y-103230200D01*
X139601840Y-103230200D01*
X139574262Y-103227484D01*
X139553644Y-103221230D01*
X139534644Y-103211074D01*
X139517992Y-103197408D01*
X139504326Y-103180756D01*
X139494170Y-103161756D01*
X139487916Y-103141138D01*
X139485200Y-103113560D01*
X139485200Y-102654840D01*
X139487916Y-102627262D01*
X139494170Y-102606644D01*
X139504326Y-102587644D01*
X139517992Y-102570992D01*
X139534644Y-102557326D01*
X139553644Y-102547170D01*
X139574262Y-102540916D01*
X139601840Y-102538200D01*
X140110560Y-102538200D01*
X140138138Y-102540916D01*
X140138138Y-102540916D01*
G37*
G36*
X141370038Y-102109116D02*
X141390656Y-102115370D01*
X141409656Y-102125526D01*
X141426308Y-102139192D01*
X141439974Y-102155844D01*
X141450130Y-102174844D01*
X141456384Y-102195462D01*
X141459100Y-102223040D01*
X141459100Y-102681760D01*
X141456384Y-102709338D01*
X141450130Y-102729956D01*
X141439974Y-102748956D01*
X141426308Y-102765608D01*
X141409656Y-102779274D01*
X141390656Y-102789430D01*
X141370038Y-102795684D01*
X141342460Y-102798400D01*
X140833740Y-102798400D01*
X140806162Y-102795684D01*
X140785544Y-102789430D01*
X140766544Y-102779274D01*
X140749892Y-102765608D01*
X140736226Y-102748956D01*
X140726070Y-102729956D01*
X140719816Y-102709338D01*
X140717100Y-102681760D01*
X140717100Y-102223040D01*
X140719816Y-102195462D01*
X140726070Y-102174844D01*
X140736226Y-102155844D01*
X140749892Y-102139192D01*
X140766544Y-102125526D01*
X140785544Y-102115370D01*
X140806162Y-102109116D01*
X140833740Y-102106400D01*
X141342460Y-102106400D01*
X141370038Y-102109116D01*
X141370038Y-102109116D01*
G37*
G36*
X138858500Y-102579400D02*
X136256500Y-102579400D01*
X136256500Y-101277400D01*
X138858500Y-101277400D01*
X138858500Y-102579400D01*
X138858500Y-102579400D01*
G37*
G36*
X140138138Y-101570916D02*
X140158756Y-101577170D01*
X140177756Y-101587326D01*
X140194408Y-101600992D01*
X140208074Y-101617644D01*
X140218230Y-101636644D01*
X140224484Y-101657262D01*
X140227200Y-101684840D01*
X140227200Y-102143560D01*
X140224484Y-102171138D01*
X140218230Y-102191756D01*
X140208074Y-102210756D01*
X140194408Y-102227408D01*
X140177756Y-102241074D01*
X140158756Y-102251230D01*
X140138138Y-102257484D01*
X140110560Y-102260200D01*
X139601840Y-102260200D01*
X139574262Y-102257484D01*
X139553644Y-102251230D01*
X139534644Y-102241074D01*
X139517992Y-102227408D01*
X139504326Y-102210756D01*
X139494170Y-102191756D01*
X139487916Y-102171138D01*
X139485200Y-102143560D01*
X139485200Y-101684840D01*
X139487916Y-101657262D01*
X139494170Y-101636644D01*
X139504326Y-101617644D01*
X139517992Y-101600992D01*
X139534644Y-101587326D01*
X139553644Y-101577170D01*
X139574262Y-101570916D01*
X139601840Y-101568200D01*
X140110560Y-101568200D01*
X140138138Y-101570916D01*
X140138138Y-101570916D01*
G37*
G36*
X141370038Y-101139116D02*
X141390656Y-101145370D01*
X141409656Y-101155526D01*
X141426308Y-101169192D01*
X141439974Y-101185844D01*
X141450130Y-101204844D01*
X141456384Y-101225462D01*
X141459100Y-101253040D01*
X141459100Y-101711760D01*
X141456384Y-101739338D01*
X141450130Y-101759956D01*
X141439974Y-101778956D01*
X141426308Y-101795608D01*
X141409656Y-101809274D01*
X141390656Y-101819430D01*
X141370038Y-101825684D01*
X141342460Y-101828400D01*
X140833740Y-101828400D01*
X140806162Y-101825684D01*
X140785544Y-101819430D01*
X140766544Y-101809274D01*
X140749892Y-101795608D01*
X140736226Y-101778956D01*
X140726070Y-101759956D01*
X140719816Y-101739338D01*
X140717100Y-101711760D01*
X140717100Y-101253040D01*
X140719816Y-101225462D01*
X140726070Y-101204844D01*
X140736226Y-101185844D01*
X140749892Y-101169192D01*
X140766544Y-101155526D01*
X140785544Y-101145370D01*
X140806162Y-101139116D01*
X140833740Y-101136400D01*
X141342460Y-101136400D01*
X141370038Y-101139116D01*
X141370038Y-101139116D01*
G37*
G36*
X135655038Y-100864516D02*
X135675656Y-100870770D01*
X135694656Y-100880926D01*
X135711308Y-100894592D01*
X135724974Y-100911244D01*
X135735130Y-100930244D01*
X135741384Y-100950862D01*
X135744100Y-100978440D01*
X135744100Y-101437160D01*
X135741384Y-101464738D01*
X135735130Y-101485356D01*
X135724974Y-101504356D01*
X135711308Y-101521008D01*
X135694656Y-101534674D01*
X135675656Y-101544830D01*
X135655038Y-101551084D01*
X135627460Y-101553800D01*
X135118740Y-101553800D01*
X135091162Y-101551084D01*
X135070544Y-101544830D01*
X135051544Y-101534674D01*
X135034892Y-101521008D01*
X135021226Y-101504356D01*
X135011070Y-101485356D01*
X135004816Y-101464738D01*
X135002100Y-101437160D01*
X135002100Y-100978440D01*
X135004816Y-100950862D01*
X135011070Y-100930244D01*
X135021226Y-100911244D01*
X135034892Y-100894592D01*
X135051544Y-100880926D01*
X135070544Y-100870770D01*
X135091162Y-100864516D01*
X135118740Y-100861800D01*
X135627460Y-100861800D01*
X135655038Y-100864516D01*
X135655038Y-100864516D01*
G37*
G36*
X134512038Y-100864516D02*
X134532656Y-100870770D01*
X134551656Y-100880926D01*
X134568308Y-100894592D01*
X134581974Y-100911244D01*
X134592130Y-100930244D01*
X134598384Y-100950862D01*
X134601100Y-100978440D01*
X134601100Y-101437160D01*
X134598384Y-101464738D01*
X134592130Y-101485356D01*
X134581974Y-101504356D01*
X134568308Y-101521008D01*
X134551656Y-101534674D01*
X134532656Y-101544830D01*
X134512038Y-101551084D01*
X134484460Y-101553800D01*
X133975740Y-101553800D01*
X133948162Y-101551084D01*
X133927544Y-101544830D01*
X133908544Y-101534674D01*
X133891892Y-101521008D01*
X133878226Y-101504356D01*
X133868070Y-101485356D01*
X133861816Y-101464738D01*
X133859100Y-101437160D01*
X133859100Y-100978440D01*
X133861816Y-100950862D01*
X133868070Y-100930244D01*
X133878226Y-100911244D01*
X133891892Y-100894592D01*
X133908544Y-100880926D01*
X133927544Y-100870770D01*
X133948162Y-100864516D01*
X133975740Y-100861800D01*
X134484460Y-100861800D01*
X134512038Y-100864516D01*
X134512038Y-100864516D01*
G37*
G36*
X149086675Y-95993543D02*
X143541543Y-101538675D01*
X143045154Y-101042286D01*
X148590286Y-95497154D01*
X149086675Y-95993543D01*
X149086675Y-95993543D01*
G37*
G36*
X137584169Y-95762320D02*
X137584175Y-95762325D01*
X138002771Y-96180921D01*
X138002776Y-96180927D01*
X138291276Y-96469427D01*
X138291282Y-96469432D01*
X138709878Y-96888028D01*
X138709883Y-96888034D01*
X139351936Y-97530087D01*
X139351942Y-97530092D01*
X139770538Y-97948688D01*
X139770543Y-97948694D01*
X140059043Y-98237194D01*
X140059049Y-98237199D01*
X140477645Y-98655795D01*
X140477650Y-98655801D01*
X141119703Y-99297854D01*
X141119709Y-99297859D01*
X141538305Y-99716455D01*
X141538310Y-99716461D01*
X142864135Y-101042286D01*
X142367746Y-101538675D01*
X140976873Y-100147802D01*
X140976868Y-100147796D01*
X140688368Y-99859296D01*
X140688362Y-99859291D01*
X139916213Y-99087142D01*
X139916208Y-99087136D01*
X139627708Y-98798636D01*
X139627702Y-98798631D01*
X139209106Y-98380035D01*
X139209101Y-98380029D01*
X138920601Y-98091529D01*
X138920595Y-98091524D01*
X138148446Y-97319375D01*
X138148441Y-97319369D01*
X137859941Y-97030869D01*
X137859935Y-97030864D01*
X137441339Y-96612268D01*
X137441334Y-96612262D01*
X137152834Y-96323762D01*
X137152828Y-96323757D01*
X136822614Y-95993543D01*
X137319003Y-95497154D01*
X137584169Y-95762320D01*
X137584169Y-95762320D01*
G37*
G36*
X174663510Y-98997541D02*
X174787032Y-99009707D01*
X174985146Y-99069805D01*
X175167729Y-99167397D01*
X175327765Y-99298735D01*
X175459103Y-99458771D01*
X175556695Y-99641354D01*
X175616793Y-99839468D01*
X175637085Y-100045500D01*
X175616793Y-100251532D01*
X175556695Y-100449646D01*
X175459103Y-100632229D01*
X175327765Y-100792265D01*
X175167729Y-100923603D01*
X174985146Y-101021195D01*
X174787032Y-101081293D01*
X174663510Y-101093459D01*
X174632631Y-101096500D01*
X173029369Y-101096500D01*
X172998490Y-101093459D01*
X172874968Y-101081293D01*
X172676854Y-101021195D01*
X172494271Y-100923603D01*
X172334235Y-100792265D01*
X172202897Y-100632229D01*
X172105305Y-100449646D01*
X172045207Y-100251532D01*
X172024915Y-100045500D01*
X172045207Y-99839468D01*
X172105305Y-99641354D01*
X172202897Y-99458771D01*
X172334235Y-99298735D01*
X172494271Y-99167397D01*
X172676854Y-99069805D01*
X172874968Y-99009707D01*
X172998490Y-98997541D01*
X173029369Y-98994500D01*
X174632631Y-98994500D01*
X174663510Y-98997541D01*
X174663510Y-98997541D01*
G37*
G36*
X155118005Y-99663755D02*
X155151983Y-99674063D01*
X155183301Y-99690803D01*
X155215530Y-99717252D01*
X155640642Y-100142364D01*
X155667091Y-100174593D01*
X155683831Y-100205911D01*
X155694139Y-100239889D01*
X155697619Y-100275230D01*
X155694139Y-100310571D01*
X155683831Y-100344549D01*
X155667091Y-100375867D01*
X155640642Y-100408096D01*
X155162496Y-100886242D01*
X155130267Y-100912691D01*
X155098949Y-100929431D01*
X155064971Y-100939739D01*
X155029630Y-100943219D01*
X154994289Y-100939739D01*
X154960311Y-100929431D01*
X154928993Y-100912691D01*
X154896764Y-100886242D01*
X154471652Y-100461130D01*
X154445203Y-100428901D01*
X154428463Y-100397583D01*
X154418155Y-100363605D01*
X154414675Y-100328264D01*
X154418155Y-100292923D01*
X154428463Y-100258945D01*
X154445203Y-100227627D01*
X154471652Y-100195398D01*
X154949798Y-99717252D01*
X154982027Y-99690803D01*
X155013345Y-99674063D01*
X155047323Y-99663755D01*
X155082664Y-99660275D01*
X155118005Y-99663755D01*
X155118005Y-99663755D01*
G37*
G36*
X138858500Y-100879400D02*
X136256500Y-100879400D01*
X136256500Y-99577400D01*
X138858500Y-99577400D01*
X138858500Y-100879400D01*
X138858500Y-100879400D01*
G37*
G36*
X158174938Y-100113216D02*
X158195556Y-100119470D01*
X158214556Y-100129626D01*
X158231208Y-100143292D01*
X158244874Y-100159944D01*
X158255030Y-100178944D01*
X158261284Y-100199562D01*
X158264000Y-100227140D01*
X158264000Y-100735860D01*
X158261284Y-100763438D01*
X158255030Y-100784056D01*
X158244874Y-100803056D01*
X158231208Y-100819708D01*
X158214556Y-100833374D01*
X158195556Y-100843530D01*
X158174938Y-100849784D01*
X158147360Y-100852500D01*
X157688640Y-100852500D01*
X157661062Y-100849784D01*
X157640444Y-100843530D01*
X157621444Y-100833374D01*
X157604792Y-100819708D01*
X157591126Y-100803056D01*
X157580970Y-100784056D01*
X157574716Y-100763438D01*
X157572000Y-100735860D01*
X157572000Y-100227140D01*
X157574716Y-100199562D01*
X157580970Y-100178944D01*
X157591126Y-100159944D01*
X157604792Y-100143292D01*
X157621444Y-100129626D01*
X157640444Y-100119470D01*
X157661062Y-100113216D01*
X157688640Y-100110500D01*
X158147360Y-100110500D01*
X158174938Y-100113216D01*
X158174938Y-100113216D01*
G37*
G36*
X157204938Y-100113216D02*
X157225556Y-100119470D01*
X157244556Y-100129626D01*
X157261208Y-100143292D01*
X157274874Y-100159944D01*
X157285030Y-100178944D01*
X157291284Y-100199562D01*
X157294000Y-100227140D01*
X157294000Y-100735860D01*
X157291284Y-100763438D01*
X157285030Y-100784056D01*
X157274874Y-100803056D01*
X157261208Y-100819708D01*
X157244556Y-100833374D01*
X157225556Y-100843530D01*
X157204938Y-100849784D01*
X157177360Y-100852500D01*
X156718640Y-100852500D01*
X156691062Y-100849784D01*
X156670444Y-100843530D01*
X156651444Y-100833374D01*
X156634792Y-100819708D01*
X156621126Y-100803056D01*
X156610970Y-100784056D01*
X156604716Y-100763438D01*
X156602000Y-100735860D01*
X156602000Y-100227140D01*
X156604716Y-100199562D01*
X156610970Y-100178944D01*
X156621126Y-100159944D01*
X156634792Y-100143292D01*
X156651444Y-100129626D01*
X156670444Y-100119470D01*
X156691062Y-100113216D01*
X156718640Y-100110500D01*
X157177360Y-100110500D01*
X157204938Y-100113216D01*
X157204938Y-100113216D01*
G37*
G36*
X150296663Y-99857938D02*
X150317281Y-99864192D01*
X150336281Y-99874348D01*
X150357706Y-99891931D01*
X150682063Y-100216288D01*
X150699646Y-100237713D01*
X150709802Y-100256713D01*
X150716056Y-100277331D01*
X150718167Y-100298769D01*
X150716056Y-100320207D01*
X150709802Y-100340825D01*
X150699646Y-100359825D01*
X150682063Y-100381250D01*
X150322350Y-100740963D01*
X150300925Y-100758546D01*
X150281925Y-100768702D01*
X150261307Y-100774956D01*
X150239869Y-100777067D01*
X150218431Y-100774956D01*
X150197813Y-100768702D01*
X150178813Y-100758546D01*
X150157388Y-100740963D01*
X149833031Y-100416606D01*
X149815448Y-100395181D01*
X149805292Y-100376181D01*
X149799038Y-100355563D01*
X149796927Y-100334125D01*
X149799038Y-100312687D01*
X149805292Y-100292069D01*
X149815448Y-100273069D01*
X149833031Y-100251644D01*
X150192744Y-99891931D01*
X150214169Y-99874348D01*
X150233169Y-99864192D01*
X150253787Y-99857938D01*
X150275225Y-99855827D01*
X150296663Y-99857938D01*
X150296663Y-99857938D01*
G37*
G36*
X135655038Y-99894516D02*
X135675656Y-99900770D01*
X135694656Y-99910926D01*
X135711308Y-99924592D01*
X135724974Y-99941244D01*
X135735130Y-99960244D01*
X135741384Y-99980862D01*
X135744100Y-100008440D01*
X135744100Y-100467160D01*
X135741384Y-100494738D01*
X135735130Y-100515356D01*
X135724974Y-100534356D01*
X135711308Y-100551008D01*
X135694656Y-100564674D01*
X135675656Y-100574830D01*
X135655038Y-100581084D01*
X135627460Y-100583800D01*
X135118740Y-100583800D01*
X135091162Y-100581084D01*
X135070544Y-100574830D01*
X135051544Y-100564674D01*
X135034892Y-100551008D01*
X135021226Y-100534356D01*
X135011070Y-100515356D01*
X135004816Y-100494738D01*
X135002100Y-100467160D01*
X135002100Y-100008440D01*
X135004816Y-99980862D01*
X135011070Y-99960244D01*
X135021226Y-99941244D01*
X135034892Y-99924592D01*
X135051544Y-99910926D01*
X135070544Y-99900770D01*
X135091162Y-99894516D01*
X135118740Y-99891800D01*
X135627460Y-99891800D01*
X135655038Y-99894516D01*
X135655038Y-99894516D01*
G37*
G36*
X134512038Y-99894516D02*
X134532656Y-99900770D01*
X134551656Y-99910926D01*
X134568308Y-99924592D01*
X134581974Y-99941244D01*
X134592130Y-99960244D01*
X134598384Y-99980862D01*
X134601100Y-100008440D01*
X134601100Y-100467160D01*
X134598384Y-100494738D01*
X134592130Y-100515356D01*
X134581974Y-100534356D01*
X134568308Y-100551008D01*
X134551656Y-100564674D01*
X134532656Y-100574830D01*
X134512038Y-100581084D01*
X134484460Y-100583800D01*
X133975740Y-100583800D01*
X133948162Y-100581084D01*
X133927544Y-100574830D01*
X133908544Y-100564674D01*
X133891892Y-100551008D01*
X133878226Y-100534356D01*
X133868070Y-100515356D01*
X133861816Y-100494738D01*
X133859100Y-100467160D01*
X133859100Y-100008440D01*
X133861816Y-99980862D01*
X133868070Y-99960244D01*
X133878226Y-99941244D01*
X133891892Y-99924592D01*
X133908544Y-99910926D01*
X133927544Y-99900770D01*
X133948162Y-99894516D01*
X133975740Y-99891800D01*
X134484460Y-99891800D01*
X134512038Y-99894516D01*
X134512038Y-99894516D01*
G37*
G36*
X133028938Y-99732216D02*
X133049556Y-99738470D01*
X133068556Y-99748626D01*
X133085208Y-99762292D01*
X133098874Y-99778944D01*
X133109030Y-99797944D01*
X133115284Y-99818562D01*
X133118000Y-99846140D01*
X133118000Y-100354860D01*
X133115284Y-100382438D01*
X133109030Y-100403056D01*
X133098874Y-100422056D01*
X133085208Y-100438708D01*
X133068556Y-100452374D01*
X133049556Y-100462530D01*
X133028938Y-100468784D01*
X133001360Y-100471500D01*
X132542640Y-100471500D01*
X132515062Y-100468784D01*
X132494444Y-100462530D01*
X132475444Y-100452374D01*
X132458792Y-100438708D01*
X132445126Y-100422056D01*
X132434970Y-100403056D01*
X132428716Y-100382438D01*
X132426000Y-100354860D01*
X132426000Y-99846140D01*
X132428716Y-99818562D01*
X132434970Y-99797944D01*
X132445126Y-99778944D01*
X132458792Y-99762292D01*
X132475444Y-99748626D01*
X132494444Y-99738470D01*
X132515062Y-99732216D01*
X132542640Y-99729500D01*
X133001360Y-99729500D01*
X133028938Y-99732216D01*
X133028938Y-99732216D01*
G37*
G36*
X132058938Y-99732216D02*
X132079556Y-99738470D01*
X132098556Y-99748626D01*
X132115208Y-99762292D01*
X132128874Y-99778944D01*
X132139030Y-99797944D01*
X132145284Y-99818562D01*
X132148000Y-99846140D01*
X132148000Y-100354860D01*
X132145284Y-100382438D01*
X132139030Y-100403056D01*
X132128874Y-100422056D01*
X132115208Y-100438708D01*
X132098556Y-100452374D01*
X132079556Y-100462530D01*
X132058938Y-100468784D01*
X132031360Y-100471500D01*
X131572640Y-100471500D01*
X131545062Y-100468784D01*
X131524444Y-100462530D01*
X131505444Y-100452374D01*
X131488792Y-100438708D01*
X131475126Y-100422056D01*
X131464970Y-100403056D01*
X131458716Y-100382438D01*
X131456000Y-100354860D01*
X131456000Y-99846140D01*
X131458716Y-99818562D01*
X131464970Y-99797944D01*
X131475126Y-99778944D01*
X131488792Y-99762292D01*
X131505444Y-99748626D01*
X131524444Y-99738470D01*
X131545062Y-99732216D01*
X131572640Y-99729500D01*
X132031360Y-99729500D01*
X132058938Y-99732216D01*
X132058938Y-99732216D01*
G37*
G36*
X149610769Y-99172044D02*
X149631387Y-99178298D01*
X149650387Y-99188454D01*
X149671812Y-99206037D01*
X149996169Y-99530394D01*
X150013752Y-99551819D01*
X150023908Y-99570819D01*
X150030162Y-99591437D01*
X150032273Y-99612875D01*
X150030162Y-99634313D01*
X150023908Y-99654931D01*
X150013752Y-99673931D01*
X149996169Y-99695356D01*
X149636456Y-100055069D01*
X149615031Y-100072652D01*
X149596031Y-100082808D01*
X149575413Y-100089062D01*
X149553975Y-100091173D01*
X149532537Y-100089062D01*
X149511919Y-100082808D01*
X149492919Y-100072652D01*
X149471494Y-100055069D01*
X149147137Y-99730712D01*
X149129554Y-99709287D01*
X149119398Y-99690287D01*
X149113144Y-99669669D01*
X149111033Y-99648231D01*
X149113144Y-99626793D01*
X149119398Y-99606175D01*
X149129554Y-99587175D01*
X149147137Y-99565750D01*
X149506850Y-99206037D01*
X149528275Y-99188454D01*
X149547275Y-99178298D01*
X149567893Y-99172044D01*
X149589331Y-99169933D01*
X149610769Y-99172044D01*
X149610769Y-99172044D01*
G37*
G36*
X147481543Y-95406645D02*
X142954645Y-99933543D01*
X138427747Y-95406645D01*
X142954645Y-90879747D01*
X147481543Y-95406645D01*
X147481543Y-95406645D01*
G37*
G36*
X154004311Y-98550061D02*
X154038289Y-98560369D01*
X154069607Y-98577109D01*
X154101836Y-98603558D01*
X154526948Y-99028670D01*
X154553397Y-99060899D01*
X154570137Y-99092217D01*
X154580445Y-99126195D01*
X154583925Y-99161536D01*
X154580445Y-99196877D01*
X154570137Y-99230855D01*
X154553397Y-99262173D01*
X154526948Y-99294402D01*
X154048802Y-99772548D01*
X154016573Y-99798997D01*
X153985255Y-99815737D01*
X153951277Y-99826045D01*
X153915936Y-99829525D01*
X153880595Y-99826045D01*
X153846617Y-99815737D01*
X153815299Y-99798997D01*
X153783070Y-99772548D01*
X153357958Y-99347436D01*
X153331509Y-99315207D01*
X153314769Y-99283889D01*
X153304461Y-99249911D01*
X153300981Y-99214570D01*
X153304461Y-99179229D01*
X153314769Y-99145251D01*
X153331509Y-99113933D01*
X153357958Y-99081704D01*
X153836104Y-98603558D01*
X153868333Y-98577109D01*
X153899651Y-98560369D01*
X153933629Y-98550061D01*
X153968970Y-98546581D01*
X154004311Y-98550061D01*
X154004311Y-98550061D01*
G37*
G36*
X151656078Y-97668048D02*
X151692619Y-97679133D01*
X151726294Y-97697132D01*
X151760591Y-97725280D01*
X152785120Y-98749809D01*
X152813268Y-98784106D01*
X152831267Y-98817781D01*
X152842352Y-98854322D01*
X152846094Y-98892326D01*
X152842352Y-98930330D01*
X152831267Y-98966871D01*
X152813268Y-99000546D01*
X152785120Y-99034843D01*
X152114145Y-99705818D01*
X152079848Y-99733966D01*
X152046173Y-99751965D01*
X152009632Y-99763050D01*
X151971628Y-99766792D01*
X151933624Y-99763050D01*
X151897083Y-99751965D01*
X151863408Y-99733966D01*
X151829111Y-99705818D01*
X150804582Y-98681289D01*
X150776434Y-98646992D01*
X150758435Y-98613317D01*
X150747350Y-98576776D01*
X150743608Y-98538772D01*
X150747350Y-98500768D01*
X150758435Y-98464227D01*
X150776434Y-98430552D01*
X150804582Y-98396255D01*
X151475557Y-97725280D01*
X151509854Y-97697132D01*
X151543529Y-97679133D01*
X151580070Y-97668048D01*
X151618074Y-97664306D01*
X151656078Y-97668048D01*
X151656078Y-97668048D01*
G37*
G36*
X156591205Y-98228655D02*
X156625183Y-98238963D01*
X156656501Y-98255703D01*
X156688730Y-98282152D01*
X157113842Y-98707264D01*
X157140291Y-98739493D01*
X157157031Y-98770811D01*
X157167339Y-98804789D01*
X157170819Y-98840130D01*
X157167339Y-98875471D01*
X157157031Y-98909449D01*
X157140291Y-98940767D01*
X157113842Y-98972996D01*
X156635696Y-99451142D01*
X156603467Y-99477591D01*
X156572149Y-99494331D01*
X156538171Y-99504639D01*
X156502830Y-99508119D01*
X156467489Y-99504639D01*
X156433511Y-99494331D01*
X156402193Y-99477591D01*
X156369964Y-99451142D01*
X155944852Y-99026030D01*
X155918403Y-98993801D01*
X155901663Y-98962483D01*
X155891355Y-98928505D01*
X155887875Y-98893164D01*
X155891355Y-98857823D01*
X155901663Y-98823845D01*
X155918403Y-98792527D01*
X155944852Y-98760298D01*
X156422998Y-98282152D01*
X156455227Y-98255703D01*
X156486545Y-98238963D01*
X156520523Y-98228655D01*
X156555864Y-98225175D01*
X156591205Y-98228655D01*
X156591205Y-98228655D01*
G37*
G36*
X134789500Y-98883200D02*
X132287500Y-98883200D01*
X132287500Y-98041200D01*
X134789500Y-98041200D01*
X134789500Y-98883200D01*
X134789500Y-98883200D01*
G37*
G36*
X130889500Y-98883200D02*
X128387500Y-98883200D01*
X128387500Y-98041200D01*
X130889500Y-98041200D01*
X130889500Y-98883200D01*
X130889500Y-98883200D01*
G37*
G36*
X155477511Y-97114961D02*
X155511489Y-97125269D01*
X155542807Y-97142009D01*
X155575036Y-97168458D01*
X156000148Y-97593570D01*
X156026597Y-97625799D01*
X156043337Y-97657117D01*
X156053645Y-97691095D01*
X156057125Y-97726436D01*
X156053645Y-97761777D01*
X156043337Y-97795755D01*
X156026597Y-97827073D01*
X156000148Y-97859302D01*
X155522002Y-98337448D01*
X155489773Y-98363897D01*
X155458455Y-98380637D01*
X155424477Y-98390945D01*
X155389136Y-98394425D01*
X155353795Y-98390945D01*
X155319817Y-98380637D01*
X155288499Y-98363897D01*
X155256270Y-98337448D01*
X154831158Y-97912336D01*
X154804709Y-97880107D01*
X154787969Y-97848789D01*
X154777661Y-97814811D01*
X154774181Y-97779470D01*
X154777661Y-97744129D01*
X154787969Y-97710151D01*
X154804709Y-97678833D01*
X154831158Y-97646604D01*
X155309304Y-97168458D01*
X155341533Y-97142009D01*
X155372851Y-97125269D01*
X155406829Y-97114961D01*
X155442170Y-97111481D01*
X155477511Y-97114961D01*
X155477511Y-97114961D01*
G37*
G36*
X160012162Y-96561851D02*
X160084129Y-96568939D01*
X160197355Y-96603286D01*
X160253969Y-96620459D01*
X160392589Y-96694554D01*
X160410493Y-96704124D01*
X160446231Y-96733454D01*
X160547688Y-96816716D01*
X160606211Y-96888028D01*
X160660280Y-96953911D01*
X160660281Y-96953913D01*
X160743945Y-97110435D01*
X160753523Y-97142009D01*
X160795465Y-97280275D01*
X160812861Y-97456902D01*
X160795465Y-97633529D01*
X160767282Y-97726436D01*
X160743945Y-97803369D01*
X160712534Y-97862134D01*
X160660280Y-97959893D01*
X160650321Y-97972028D01*
X160547688Y-98097088D01*
X160446231Y-98180350D01*
X160410493Y-98209680D01*
X160410491Y-98209681D01*
X160253969Y-98293345D01*
X160239935Y-98297602D01*
X160084129Y-98344865D01*
X160026417Y-98350549D01*
X159951762Y-98357902D01*
X159863242Y-98357902D01*
X159788587Y-98350549D01*
X159730875Y-98344865D01*
X159575069Y-98297602D01*
X159561035Y-98293345D01*
X159404513Y-98209681D01*
X159404511Y-98209680D01*
X159368773Y-98180350D01*
X159267316Y-98097088D01*
X159164683Y-97972028D01*
X159154724Y-97959893D01*
X159102470Y-97862134D01*
X159071059Y-97803369D01*
X159047722Y-97726436D01*
X159019539Y-97633529D01*
X159002143Y-97456902D01*
X159019539Y-97280275D01*
X159061481Y-97142009D01*
X159071059Y-97110435D01*
X159154723Y-96953913D01*
X159154724Y-96953911D01*
X159208793Y-96888028D01*
X159267316Y-96816716D01*
X159368773Y-96733454D01*
X159404511Y-96704124D01*
X159422415Y-96694554D01*
X159561035Y-96620459D01*
X159617649Y-96603286D01*
X159730875Y-96568939D01*
X159802842Y-96561851D01*
X159863242Y-96555902D01*
X159951762Y-96555902D01*
X160012162Y-96561851D01*
X160012162Y-96561851D01*
G37*
G36*
X153635976Y-95688150D02*
X153672517Y-95699235D01*
X153706192Y-95717234D01*
X153740489Y-95745382D01*
X154765018Y-96769911D01*
X154793166Y-96804208D01*
X154811165Y-96837883D01*
X154822250Y-96874424D01*
X154825992Y-96912428D01*
X154822250Y-96950432D01*
X154811165Y-96986973D01*
X154793166Y-97020648D01*
X154765018Y-97054945D01*
X154094043Y-97725920D01*
X154059746Y-97754068D01*
X154026071Y-97772067D01*
X153989530Y-97783152D01*
X153951526Y-97786894D01*
X153913522Y-97783152D01*
X153876981Y-97772067D01*
X153843306Y-97754068D01*
X153809009Y-97725920D01*
X152784480Y-96701391D01*
X152756332Y-96667094D01*
X152738333Y-96633419D01*
X152727248Y-96596878D01*
X152723506Y-96558874D01*
X152727248Y-96520870D01*
X152738333Y-96484329D01*
X152756332Y-96450654D01*
X152784480Y-96416357D01*
X153455455Y-95745382D01*
X153489752Y-95717234D01*
X153523427Y-95699235D01*
X153559968Y-95688150D01*
X153597972Y-95684408D01*
X153635976Y-95688150D01*
X153635976Y-95688150D01*
G37*
G36*
X174878100Y-97615900D02*
X168376100Y-97615900D01*
X168376100Y-91713900D01*
X174878100Y-91713900D01*
X174878100Y-97615900D01*
X174878100Y-97615900D01*
G37*
G36*
X134789500Y-97613200D02*
X132287500Y-97613200D01*
X132287500Y-96771200D01*
X134789500Y-96771200D01*
X134789500Y-97613200D01*
X134789500Y-97613200D01*
G37*
G36*
X130889500Y-97613200D02*
X128387500Y-97613200D01*
X128387500Y-96771200D01*
X130889500Y-96771200D01*
X130889500Y-97613200D01*
X130889500Y-97613200D01*
G37*
G36*
X179078100Y-97595900D02*
X176776100Y-97595900D01*
X176776100Y-96293900D01*
X179078100Y-96293900D01*
X179078100Y-97595900D01*
X179078100Y-97595900D01*
G37*
G36*
X150484177Y-95383855D02*
X150518155Y-95394163D01*
X150549473Y-95410903D01*
X150581702Y-95437352D01*
X151059848Y-95915498D01*
X151086297Y-95947727D01*
X151103037Y-95979045D01*
X151113345Y-96013023D01*
X151116825Y-96048364D01*
X151113345Y-96083705D01*
X151103037Y-96117683D01*
X151086297Y-96149001D01*
X151059848Y-96181230D01*
X150634736Y-96606342D01*
X150602507Y-96632791D01*
X150571189Y-96649531D01*
X150537211Y-96659839D01*
X150501870Y-96663319D01*
X150466529Y-96659839D01*
X150432551Y-96649531D01*
X150401233Y-96632791D01*
X150369004Y-96606342D01*
X149890858Y-96128196D01*
X149864409Y-96095967D01*
X149847669Y-96064649D01*
X149837361Y-96030671D01*
X149833881Y-95995330D01*
X149837361Y-95959989D01*
X149847669Y-95926011D01*
X149864409Y-95894693D01*
X149890858Y-95862464D01*
X150315970Y-95437352D01*
X150348199Y-95410903D01*
X150379517Y-95394163D01*
X150413495Y-95383855D01*
X150448836Y-95380375D01*
X150484177Y-95383855D01*
X150484177Y-95383855D01*
G37*
G36*
X161808214Y-94765800D02*
X161880181Y-94772888D01*
X161975504Y-94801804D01*
X162050021Y-94824408D01*
X162185986Y-94897084D01*
X162206545Y-94908073D01*
X162223962Y-94922367D01*
X162343740Y-95020665D01*
X162414905Y-95107381D01*
X162456332Y-95157860D01*
X162456333Y-95157862D01*
X162539997Y-95314384D01*
X162539997Y-95314385D01*
X162591517Y-95484224D01*
X162608913Y-95660851D01*
X162591517Y-95837478D01*
X162574161Y-95894693D01*
X162539997Y-96007318D01*
X162496443Y-96088800D01*
X162456332Y-96163842D01*
X162427002Y-96199580D01*
X162343740Y-96301037D01*
X162242283Y-96384299D01*
X162206545Y-96413629D01*
X162206543Y-96413630D01*
X162050021Y-96497294D01*
X162020918Y-96506122D01*
X161880181Y-96548814D01*
X161813997Y-96555332D01*
X161747814Y-96561851D01*
X161659294Y-96561851D01*
X161593111Y-96555332D01*
X161526927Y-96548814D01*
X161386190Y-96506122D01*
X161357087Y-96497294D01*
X161200565Y-96413630D01*
X161200563Y-96413629D01*
X161164825Y-96384299D01*
X161063368Y-96301037D01*
X160980106Y-96199580D01*
X160950776Y-96163842D01*
X160910665Y-96088800D01*
X160867111Y-96007318D01*
X160832947Y-95894693D01*
X160815591Y-95837478D01*
X160798195Y-95660851D01*
X160815591Y-95484224D01*
X160867111Y-95314385D01*
X160867111Y-95314384D01*
X160950775Y-95157862D01*
X160950776Y-95157860D01*
X160992203Y-95107381D01*
X161063368Y-95020665D01*
X161183146Y-94922367D01*
X161200563Y-94908073D01*
X161221122Y-94897084D01*
X161357087Y-94824408D01*
X161431604Y-94801804D01*
X161526927Y-94772888D01*
X161598894Y-94765800D01*
X161659294Y-94759851D01*
X161747814Y-94759851D01*
X161808214Y-94765800D01*
X161808214Y-94765800D01*
G37*
G36*
X158216111Y-94765800D02*
X158288078Y-94772888D01*
X158383401Y-94801804D01*
X158457918Y-94824408D01*
X158593883Y-94897084D01*
X158614442Y-94908073D01*
X158631859Y-94922367D01*
X158751637Y-95020665D01*
X158822802Y-95107381D01*
X158864229Y-95157860D01*
X158864230Y-95157862D01*
X158947894Y-95314384D01*
X158947894Y-95314385D01*
X158999414Y-95484224D01*
X159016810Y-95660851D01*
X158999414Y-95837478D01*
X158982058Y-95894693D01*
X158947894Y-96007318D01*
X158904340Y-96088800D01*
X158864229Y-96163842D01*
X158834899Y-96199580D01*
X158751637Y-96301037D01*
X158650180Y-96384299D01*
X158614442Y-96413629D01*
X158614440Y-96413630D01*
X158457918Y-96497294D01*
X158428815Y-96506122D01*
X158288078Y-96548814D01*
X158221894Y-96555332D01*
X158155711Y-96561851D01*
X158067191Y-96561851D01*
X158001008Y-96555332D01*
X157934824Y-96548814D01*
X157794087Y-96506122D01*
X157764984Y-96497294D01*
X157608462Y-96413630D01*
X157608460Y-96413629D01*
X157572722Y-96384299D01*
X157471265Y-96301037D01*
X157388003Y-96199580D01*
X157358673Y-96163842D01*
X157318562Y-96088800D01*
X157275008Y-96007318D01*
X157240844Y-95894693D01*
X157223488Y-95837478D01*
X157206092Y-95660851D01*
X157223488Y-95484224D01*
X157275008Y-95314385D01*
X157275008Y-95314384D01*
X157358672Y-95157862D01*
X157358673Y-95157860D01*
X157400100Y-95107381D01*
X157471265Y-95020665D01*
X157591043Y-94922367D01*
X157608460Y-94908073D01*
X157629019Y-94897084D01*
X157764984Y-94824408D01*
X157839501Y-94801804D01*
X157934824Y-94772888D01*
X158006791Y-94765800D01*
X158067191Y-94759851D01*
X158155711Y-94759851D01*
X158216111Y-94765800D01*
X158216111Y-94765800D01*
G37*
G36*
X134789500Y-96343200D02*
X132287500Y-96343200D01*
X132287500Y-95501200D01*
X134789500Y-95501200D01*
X134789500Y-96343200D01*
X134789500Y-96343200D01*
G37*
G36*
X130889500Y-96343200D02*
X128387500Y-96343200D01*
X128387500Y-95501200D01*
X130889500Y-95501200D01*
X130889500Y-96343200D01*
X130889500Y-96343200D01*
G37*
G36*
X151597871Y-94270161D02*
X151631849Y-94280469D01*
X151663167Y-94297209D01*
X151695396Y-94323658D01*
X152173542Y-94801804D01*
X152199991Y-94834033D01*
X152216731Y-94865351D01*
X152227039Y-94899329D01*
X152230519Y-94934670D01*
X152227039Y-94970011D01*
X152216731Y-95003989D01*
X152199991Y-95035307D01*
X152173542Y-95067536D01*
X151748430Y-95492648D01*
X151716201Y-95519097D01*
X151684883Y-95535837D01*
X151650905Y-95546145D01*
X151615564Y-95549625D01*
X151580223Y-95546145D01*
X151546245Y-95535837D01*
X151514927Y-95519097D01*
X151482698Y-95492648D01*
X151004552Y-95014502D01*
X150978103Y-94982273D01*
X150961363Y-94950955D01*
X150951055Y-94916977D01*
X150947575Y-94881636D01*
X150951055Y-94846295D01*
X150961363Y-94812317D01*
X150978103Y-94780999D01*
X151004552Y-94748770D01*
X151429664Y-94323658D01*
X151461893Y-94297209D01*
X151493211Y-94280469D01*
X151527189Y-94270161D01*
X151562530Y-94266681D01*
X151597871Y-94270161D01*
X151597871Y-94270161D01*
G37*
G36*
X142864136Y-89771004D02*
X137319004Y-95316136D01*
X136822614Y-94819746D01*
X137152823Y-94489537D01*
X137152834Y-94489528D01*
X137176169Y-94466194D01*
X137176168Y-94466193D01*
X137417999Y-94224362D01*
X137418000Y-94224363D01*
X137441334Y-94201028D01*
X137441343Y-94201017D01*
X137859930Y-93782430D01*
X137859941Y-93782421D01*
X137883275Y-93759086D01*
X138478659Y-93163702D01*
X138501994Y-93140368D01*
X138502003Y-93140357D01*
X138920590Y-92721770D01*
X138920601Y-92721761D01*
X138943935Y-92698426D01*
X140246426Y-91395935D01*
X140269761Y-91372601D01*
X140269770Y-91372590D01*
X140688357Y-90954003D01*
X140688368Y-90953994D01*
X140711702Y-90930659D01*
X141307086Y-90335275D01*
X141330421Y-90311941D01*
X141330430Y-90311930D01*
X141749017Y-89893343D01*
X141749028Y-89893334D01*
X141772363Y-89870000D01*
X141772362Y-89869999D01*
X142014193Y-89628168D01*
X142014194Y-89628169D01*
X142037528Y-89604834D01*
X142037537Y-89604823D01*
X142367746Y-89274614D01*
X142864136Y-89771004D01*
X142864136Y-89771004D01*
G37*
G36*
X143871757Y-89604828D02*
X143871762Y-89604834D01*
X144160262Y-89893334D01*
X144160268Y-89893339D01*
X144578864Y-90311935D01*
X144578869Y-90311941D01*
X144867369Y-90600441D01*
X144867375Y-90600446D01*
X145639524Y-91372595D01*
X145639529Y-91372601D01*
X145928029Y-91661101D01*
X145928035Y-91661106D01*
X146346631Y-92079702D01*
X146346636Y-92079708D01*
X146635136Y-92368208D01*
X146635142Y-92368213D01*
X147407291Y-93140362D01*
X147407296Y-93140368D01*
X147695796Y-93428868D01*
X147695802Y-93428873D01*
X149086675Y-94819746D01*
X148590286Y-95316135D01*
X147264461Y-93990310D01*
X147264455Y-93990305D01*
X146845859Y-93571709D01*
X146845854Y-93571703D01*
X146203801Y-92929650D01*
X146203795Y-92929645D01*
X145785199Y-92511049D01*
X145785194Y-92511043D01*
X145496694Y-92222543D01*
X145496688Y-92222538D01*
X145078092Y-91803942D01*
X145078087Y-91803936D01*
X144436034Y-91161883D01*
X144436028Y-91161878D01*
X144017432Y-90743282D01*
X144017427Y-90743276D01*
X143728927Y-90454776D01*
X143728921Y-90454771D01*
X143310325Y-90036175D01*
X143310320Y-90036169D01*
X143045154Y-89771003D01*
X143541543Y-89274614D01*
X143871757Y-89604828D01*
X143871757Y-89604828D01*
G37*
G36*
X157589607Y-93864800D02*
X156315400Y-95139007D01*
X155041193Y-93864800D01*
X156315400Y-92590593D01*
X157589607Y-93864800D01*
X157589607Y-93864800D01*
G37*
G36*
X134789500Y-95073200D02*
X132287500Y-95073200D01*
X132287500Y-94231200D01*
X134789500Y-94231200D01*
X134789500Y-95073200D01*
X134789500Y-95073200D01*
G37*
G36*
X130889500Y-95073200D02*
X128387500Y-95073200D01*
X128387500Y-94231200D01*
X130889500Y-94231200D01*
X130889500Y-95073200D01*
X130889500Y-95073200D01*
G37*
G36*
X153268463Y-94003238D02*
X153289081Y-94009492D01*
X153308081Y-94019648D01*
X153329506Y-94037231D01*
X153653863Y-94361588D01*
X153671446Y-94383013D01*
X153681602Y-94402013D01*
X153687856Y-94422631D01*
X153689967Y-94444069D01*
X153687856Y-94465507D01*
X153681602Y-94486125D01*
X153671446Y-94505125D01*
X153653863Y-94526550D01*
X153294150Y-94886263D01*
X153272725Y-94903846D01*
X153253725Y-94914002D01*
X153233107Y-94920256D01*
X153211669Y-94922367D01*
X153190231Y-94920256D01*
X153169613Y-94914002D01*
X153150613Y-94903846D01*
X153129188Y-94886263D01*
X152804831Y-94561906D01*
X152787248Y-94540481D01*
X152777092Y-94521481D01*
X152770838Y-94500863D01*
X152768727Y-94479425D01*
X152770838Y-94457987D01*
X152777092Y-94437369D01*
X152787248Y-94418369D01*
X152804831Y-94396944D01*
X153164544Y-94037231D01*
X153185969Y-94019648D01*
X153204969Y-94009492D01*
X153225587Y-94003238D01*
X153247025Y-94001127D01*
X153268463Y-94003238D01*
X153268463Y-94003238D01*
G37*
G36*
X160012162Y-92969749D02*
X160084129Y-92976837D01*
X160180830Y-93006171D01*
X160253969Y-93028357D01*
X160339322Y-93073980D01*
X160410493Y-93112022D01*
X160445019Y-93140357D01*
X160547688Y-93224614D01*
X160628921Y-93323598D01*
X160660280Y-93361809D01*
X160660281Y-93361811D01*
X160743945Y-93518333D01*
X160753056Y-93548368D01*
X160795465Y-93688173D01*
X160812861Y-93864800D01*
X160795465Y-94041427D01*
X160784649Y-94077081D01*
X160743945Y-94211267D01*
X160684895Y-94321740D01*
X160660280Y-94367791D01*
X160632195Y-94402013D01*
X160547688Y-94504986D01*
X160458822Y-94577915D01*
X160410493Y-94617578D01*
X160410491Y-94617579D01*
X160253969Y-94701243D01*
X160228644Y-94708925D01*
X160084129Y-94752763D01*
X160017944Y-94759282D01*
X159951762Y-94765800D01*
X159863242Y-94765800D01*
X159797060Y-94759282D01*
X159730875Y-94752763D01*
X159586360Y-94708925D01*
X159561035Y-94701243D01*
X159404513Y-94617579D01*
X159404511Y-94617578D01*
X159356182Y-94577915D01*
X159267316Y-94504986D01*
X159182809Y-94402013D01*
X159154724Y-94367791D01*
X159130109Y-94321740D01*
X159071059Y-94211267D01*
X159030355Y-94077081D01*
X159019539Y-94041427D01*
X159002143Y-93864800D01*
X159019539Y-93688173D01*
X159061948Y-93548368D01*
X159071059Y-93518333D01*
X159154723Y-93361811D01*
X159154724Y-93361809D01*
X159186083Y-93323598D01*
X159267316Y-93224614D01*
X159369985Y-93140357D01*
X159404511Y-93112022D01*
X159475682Y-93073980D01*
X159561035Y-93028357D01*
X159634174Y-93006171D01*
X159730875Y-92976837D01*
X159802842Y-92969749D01*
X159863242Y-92963800D01*
X159951762Y-92963800D01*
X160012162Y-92969749D01*
X160012162Y-92969749D01*
G37*
G36*
X150870813Y-93317438D02*
X150891431Y-93323692D01*
X150910431Y-93333848D01*
X150931856Y-93351431D01*
X151291569Y-93711144D01*
X151309152Y-93732569D01*
X151319308Y-93751569D01*
X151325562Y-93772187D01*
X151327673Y-93793625D01*
X151325562Y-93815063D01*
X151319308Y-93835681D01*
X151309152Y-93854681D01*
X151291569Y-93876106D01*
X150967212Y-94200463D01*
X150945787Y-94218046D01*
X150926787Y-94228202D01*
X150906169Y-94234456D01*
X150884731Y-94236567D01*
X150863293Y-94234456D01*
X150842675Y-94228202D01*
X150823675Y-94218046D01*
X150802250Y-94200463D01*
X150442537Y-93840750D01*
X150424954Y-93819325D01*
X150414798Y-93800325D01*
X150408544Y-93779707D01*
X150406433Y-93758269D01*
X150408544Y-93736831D01*
X150414798Y-93716213D01*
X150424954Y-93697213D01*
X150442537Y-93675788D01*
X150766894Y-93351431D01*
X150788319Y-93333848D01*
X150807319Y-93323692D01*
X150827937Y-93317438D01*
X150849375Y-93315327D01*
X150870813Y-93317438D01*
X150870813Y-93317438D01*
G37*
G36*
X152582569Y-93317344D02*
X152603187Y-93323598D01*
X152622187Y-93333754D01*
X152643612Y-93351337D01*
X152967969Y-93675694D01*
X152985552Y-93697119D01*
X152995708Y-93716119D01*
X153001962Y-93736737D01*
X153004073Y-93758175D01*
X153001962Y-93779613D01*
X152995708Y-93800231D01*
X152985552Y-93819231D01*
X152967969Y-93840656D01*
X152608256Y-94200369D01*
X152586831Y-94217952D01*
X152567831Y-94228108D01*
X152547213Y-94234362D01*
X152525775Y-94236473D01*
X152504337Y-94234362D01*
X152483719Y-94228108D01*
X152464719Y-94217952D01*
X152443294Y-94200369D01*
X152118937Y-93876012D01*
X152101354Y-93854587D01*
X152091198Y-93835587D01*
X152084944Y-93814969D01*
X152082833Y-93793531D01*
X152084944Y-93772093D01*
X152091198Y-93751475D01*
X152101354Y-93732475D01*
X152118937Y-93711050D01*
X152478650Y-93351337D01*
X152500075Y-93333754D01*
X152519075Y-93323598D01*
X152539693Y-93317344D01*
X152561131Y-93315233D01*
X152582569Y-93317344D01*
X152582569Y-93317344D01*
G37*
G36*
X134789500Y-93803200D02*
X132287500Y-93803200D01*
X132287500Y-92961200D01*
X134789500Y-92961200D01*
X134789500Y-93803200D01*
X134789500Y-93803200D01*
G37*
G36*
X130889500Y-93803200D02*
X128387500Y-93803200D01*
X128387500Y-92961200D01*
X130889500Y-92961200D01*
X130889500Y-93803200D01*
X130889500Y-93803200D01*
G37*
G36*
X151556707Y-92631544D02*
X151577325Y-92637798D01*
X151596325Y-92647954D01*
X151617750Y-92665537D01*
X151977463Y-93025250D01*
X151995046Y-93046675D01*
X152005202Y-93065675D01*
X152011456Y-93086293D01*
X152013567Y-93107731D01*
X152011456Y-93129169D01*
X152005202Y-93149787D01*
X151995046Y-93168787D01*
X151977463Y-93190212D01*
X151653106Y-93514569D01*
X151631681Y-93532152D01*
X151612681Y-93542308D01*
X151592063Y-93548562D01*
X151570625Y-93550673D01*
X151549187Y-93548562D01*
X151528569Y-93542308D01*
X151509569Y-93532152D01*
X151488144Y-93514569D01*
X151128431Y-93154856D01*
X151110848Y-93133431D01*
X151100692Y-93114431D01*
X151094438Y-93093813D01*
X151092327Y-93072375D01*
X151094438Y-93050937D01*
X151100692Y-93030319D01*
X151110848Y-93011319D01*
X151128431Y-92989894D01*
X151452788Y-92665537D01*
X151474213Y-92647954D01*
X151493213Y-92637798D01*
X151513831Y-92631544D01*
X151535269Y-92629433D01*
X151556707Y-92631544D01*
X151556707Y-92631544D01*
G37*
G36*
X179078100Y-93035900D02*
X176776100Y-93035900D01*
X176776100Y-91733900D01*
X179078100Y-91733900D01*
X179078100Y-93035900D01*
X179078100Y-93035900D01*
G37*
G36*
X158221893Y-91174267D02*
X158288078Y-91180786D01*
X158401304Y-91215133D01*
X158457918Y-91232306D01*
X158555026Y-91284212D01*
X158614442Y-91315971D01*
X158629740Y-91328526D01*
X158751637Y-91428563D01*
X158818305Y-91509800D01*
X158864229Y-91565758D01*
X158864230Y-91565760D01*
X158947894Y-91722282D01*
X158947894Y-91722283D01*
X158999414Y-91892122D01*
X159016810Y-92068749D01*
X158999414Y-92245376D01*
X158969232Y-92344873D01*
X158947894Y-92415216D01*
X158896669Y-92511049D01*
X158864229Y-92571740D01*
X158848756Y-92590594D01*
X158751637Y-92708935D01*
X158650180Y-92792197D01*
X158614442Y-92821527D01*
X158614440Y-92821528D01*
X158457918Y-92905192D01*
X158401304Y-92922365D01*
X158288078Y-92956712D01*
X158221893Y-92963231D01*
X158155711Y-92969749D01*
X158067191Y-92969749D01*
X158001008Y-92963230D01*
X157934824Y-92956712D01*
X157821598Y-92922365D01*
X157764984Y-92905192D01*
X157608462Y-92821528D01*
X157608460Y-92821527D01*
X157572722Y-92792197D01*
X157471265Y-92708935D01*
X157374146Y-92590594D01*
X157358673Y-92571740D01*
X157326233Y-92511049D01*
X157275008Y-92415216D01*
X157253670Y-92344873D01*
X157223488Y-92245376D01*
X157206092Y-92068749D01*
X157223488Y-91892122D01*
X157275008Y-91722283D01*
X157275008Y-91722282D01*
X157358672Y-91565760D01*
X157358673Y-91565758D01*
X157404597Y-91509800D01*
X157471265Y-91428563D01*
X157593162Y-91328526D01*
X157608460Y-91315971D01*
X157667876Y-91284212D01*
X157764984Y-91232306D01*
X157821598Y-91215133D01*
X157934824Y-91180786D01*
X158001008Y-91174268D01*
X158067191Y-91167749D01*
X158155711Y-91167749D01*
X158221893Y-91174267D01*
X158221893Y-91174267D01*
G37*
G36*
X134451338Y-91312116D02*
X134471956Y-91318370D01*
X134490956Y-91328526D01*
X134507608Y-91342192D01*
X134521274Y-91358844D01*
X134531430Y-91377844D01*
X134537684Y-91398462D01*
X134540400Y-91426040D01*
X134540400Y-91934760D01*
X134537684Y-91962338D01*
X134531430Y-91982956D01*
X134521274Y-92001956D01*
X134507608Y-92018608D01*
X134490956Y-92032274D01*
X134471956Y-92042430D01*
X134451338Y-92048684D01*
X134423760Y-92051400D01*
X133965040Y-92051400D01*
X133937462Y-92048684D01*
X133916844Y-92042430D01*
X133897844Y-92032274D01*
X133881192Y-92018608D01*
X133867526Y-92001956D01*
X133857370Y-91982956D01*
X133851116Y-91962338D01*
X133848400Y-91934760D01*
X133848400Y-91426040D01*
X133851116Y-91398462D01*
X133857370Y-91377844D01*
X133867526Y-91358844D01*
X133881192Y-91342192D01*
X133897844Y-91328526D01*
X133916844Y-91318370D01*
X133937462Y-91312116D01*
X133965040Y-91309400D01*
X134423760Y-91309400D01*
X134451338Y-91312116D01*
X134451338Y-91312116D01*
G37*
G36*
X133481338Y-91312116D02*
X133501956Y-91318370D01*
X133520956Y-91328526D01*
X133537608Y-91342192D01*
X133551274Y-91358844D01*
X133561430Y-91377844D01*
X133567684Y-91398462D01*
X133570400Y-91426040D01*
X133570400Y-91934760D01*
X133567684Y-91962338D01*
X133561430Y-91982956D01*
X133551274Y-92001956D01*
X133537608Y-92018608D01*
X133520956Y-92032274D01*
X133501956Y-92042430D01*
X133481338Y-92048684D01*
X133453760Y-92051400D01*
X132995040Y-92051400D01*
X132967462Y-92048684D01*
X132946844Y-92042430D01*
X132927844Y-92032274D01*
X132911192Y-92018608D01*
X132897526Y-92001956D01*
X132887370Y-91982956D01*
X132881116Y-91962338D01*
X132878400Y-91934760D01*
X132878400Y-91426040D01*
X132881116Y-91398462D01*
X132887370Y-91377844D01*
X132897526Y-91358844D01*
X132911192Y-91342192D01*
X132927844Y-91328526D01*
X132946844Y-91318370D01*
X132967462Y-91312116D01*
X132995040Y-91309400D01*
X133453760Y-91309400D01*
X133481338Y-91312116D01*
X133481338Y-91312116D01*
G37*
G36*
X132520938Y-91312116D02*
X132541556Y-91318370D01*
X132560556Y-91328526D01*
X132577208Y-91342192D01*
X132590874Y-91358844D01*
X132601030Y-91377844D01*
X132607284Y-91398462D01*
X132610000Y-91426040D01*
X132610000Y-91934760D01*
X132607284Y-91962338D01*
X132601030Y-91982956D01*
X132590874Y-92001956D01*
X132577208Y-92018608D01*
X132560556Y-92032274D01*
X132541556Y-92042430D01*
X132520938Y-92048684D01*
X132493360Y-92051400D01*
X132034640Y-92051400D01*
X132007062Y-92048684D01*
X131986444Y-92042430D01*
X131967444Y-92032274D01*
X131950792Y-92018608D01*
X131937126Y-92001956D01*
X131926970Y-91982956D01*
X131920716Y-91962338D01*
X131918000Y-91934760D01*
X131918000Y-91426040D01*
X131920716Y-91398462D01*
X131926970Y-91377844D01*
X131937126Y-91358844D01*
X131950792Y-91342192D01*
X131967444Y-91328526D01*
X131986444Y-91318370D01*
X132007062Y-91312116D01*
X132034640Y-91309400D01*
X132493360Y-91309400D01*
X132520938Y-91312116D01*
X132520938Y-91312116D01*
G37*
G36*
X131550938Y-91312116D02*
X131571556Y-91318370D01*
X131590556Y-91328526D01*
X131607208Y-91342192D01*
X131620874Y-91358844D01*
X131631030Y-91377844D01*
X131637284Y-91398462D01*
X131640000Y-91426040D01*
X131640000Y-91934760D01*
X131637284Y-91962338D01*
X131631030Y-91982956D01*
X131620874Y-92001956D01*
X131607208Y-92018608D01*
X131590556Y-92032274D01*
X131571556Y-92042430D01*
X131550938Y-92048684D01*
X131523360Y-92051400D01*
X131064640Y-92051400D01*
X131037062Y-92048684D01*
X131016444Y-92042430D01*
X130997444Y-92032274D01*
X130980792Y-92018608D01*
X130967126Y-92001956D01*
X130956970Y-91982956D01*
X130950716Y-91962338D01*
X130948000Y-91934760D01*
X130948000Y-91426040D01*
X130950716Y-91398462D01*
X130956970Y-91377844D01*
X130967126Y-91358844D01*
X130980792Y-91342192D01*
X130997444Y-91328526D01*
X131016444Y-91318370D01*
X131037062Y-91312116D01*
X131064640Y-91309400D01*
X131523360Y-91309400D01*
X131550938Y-91312116D01*
X131550938Y-91312116D01*
G37*
G36*
X128111238Y-91339516D02*
X128131856Y-91345770D01*
X128150856Y-91355926D01*
X128167508Y-91369592D01*
X128181174Y-91386244D01*
X128191330Y-91405244D01*
X128197584Y-91425862D01*
X128200300Y-91453440D01*
X128200300Y-91912160D01*
X128197584Y-91939738D01*
X128191330Y-91960356D01*
X128181174Y-91979356D01*
X128167508Y-91996008D01*
X128150856Y-92009674D01*
X128131856Y-92019830D01*
X128111238Y-92026084D01*
X128083660Y-92028800D01*
X127574940Y-92028800D01*
X127547362Y-92026084D01*
X127526744Y-92019830D01*
X127507744Y-92009674D01*
X127491092Y-91996008D01*
X127477426Y-91979356D01*
X127467270Y-91960356D01*
X127461016Y-91939738D01*
X127458300Y-91912160D01*
X127458300Y-91453440D01*
X127461016Y-91425862D01*
X127467270Y-91405244D01*
X127477426Y-91386244D01*
X127491092Y-91369592D01*
X127507744Y-91355926D01*
X127526744Y-91345770D01*
X127547362Y-91339516D01*
X127574940Y-91336800D01*
X128083660Y-91336800D01*
X128111238Y-91339516D01*
X128111238Y-91339516D01*
G37*
G36*
X161609891Y-90230885D02*
X161643869Y-90241193D01*
X161675187Y-90257933D01*
X161702639Y-90280461D01*
X161725167Y-90307913D01*
X161741907Y-90339231D01*
X161752215Y-90373209D01*
X161756300Y-90414690D01*
X161756300Y-91015910D01*
X161752215Y-91057391D01*
X161741907Y-91091369D01*
X161725167Y-91122687D01*
X161702639Y-91150139D01*
X161675187Y-91172667D01*
X161643869Y-91189407D01*
X161609891Y-91199715D01*
X161568410Y-91203800D01*
X160892190Y-91203800D01*
X160850709Y-91199715D01*
X160816731Y-91189407D01*
X160785413Y-91172667D01*
X160757961Y-91150139D01*
X160735433Y-91122687D01*
X160718693Y-91091369D01*
X160708385Y-91057391D01*
X160704300Y-91015910D01*
X160704300Y-90414690D01*
X160708385Y-90373209D01*
X160718693Y-90339231D01*
X160735433Y-90307913D01*
X160757961Y-90280461D01*
X160785413Y-90257933D01*
X160816731Y-90241193D01*
X160850709Y-90230885D01*
X160892190Y-90226800D01*
X161568410Y-90226800D01*
X161609891Y-90230885D01*
X161609891Y-90230885D01*
G37*
G36*
X128111238Y-90369516D02*
X128131856Y-90375770D01*
X128150856Y-90385926D01*
X128167508Y-90399592D01*
X128181174Y-90416244D01*
X128191330Y-90435244D01*
X128197584Y-90455862D01*
X128200300Y-90483440D01*
X128200300Y-90942160D01*
X128197584Y-90969738D01*
X128191330Y-90990356D01*
X128181174Y-91009356D01*
X128167508Y-91026008D01*
X128150856Y-91039674D01*
X128131856Y-91049830D01*
X128111238Y-91056084D01*
X128083660Y-91058800D01*
X127574940Y-91058800D01*
X127547362Y-91056084D01*
X127526744Y-91049830D01*
X127507744Y-91039674D01*
X127491092Y-91026008D01*
X127477426Y-91009356D01*
X127467270Y-90990356D01*
X127461016Y-90969738D01*
X127458300Y-90942160D01*
X127458300Y-90483440D01*
X127461016Y-90455862D01*
X127467270Y-90435244D01*
X127477426Y-90416244D01*
X127491092Y-90399592D01*
X127507744Y-90385926D01*
X127526744Y-90375770D01*
X127547362Y-90369516D01*
X127574940Y-90366800D01*
X128083660Y-90366800D01*
X128111238Y-90369516D01*
X128111238Y-90369516D01*
G37*
G36*
X131515328Y-89960564D02*
X131536411Y-89966960D01*
X131555842Y-89977346D01*
X131572875Y-89991325D01*
X131586854Y-90008358D01*
X131597240Y-90027789D01*
X131603636Y-90048872D01*
X131606400Y-90076940D01*
X131606400Y-90540660D01*
X131603636Y-90568728D01*
X131597240Y-90589811D01*
X131586854Y-90609242D01*
X131572875Y-90626275D01*
X131555842Y-90640254D01*
X131536411Y-90650640D01*
X131515328Y-90657036D01*
X131487260Y-90659800D01*
X130073540Y-90659800D01*
X130045472Y-90657036D01*
X130024389Y-90650640D01*
X130004958Y-90640254D01*
X129987925Y-90626275D01*
X129973946Y-90609242D01*
X129963560Y-90589811D01*
X129957164Y-90568728D01*
X129954400Y-90540660D01*
X129954400Y-90076940D01*
X129957164Y-90048872D01*
X129963560Y-90027789D01*
X129973946Y-90008358D01*
X129987925Y-89991325D01*
X130004958Y-89977346D01*
X130024389Y-89966960D01*
X130045472Y-89960564D01*
X130073540Y-89957800D01*
X131487260Y-89957800D01*
X131515328Y-89960564D01*
X131515328Y-89960564D01*
G37*
G36*
X136865328Y-89960564D02*
X136886411Y-89966960D01*
X136905842Y-89977346D01*
X136922875Y-89991325D01*
X136936854Y-90008358D01*
X136947240Y-90027789D01*
X136953636Y-90048872D01*
X136956400Y-90076940D01*
X136956400Y-90540660D01*
X136953636Y-90568728D01*
X136947240Y-90589811D01*
X136936854Y-90609242D01*
X136922875Y-90626275D01*
X136905842Y-90640254D01*
X136886411Y-90650640D01*
X136865328Y-90657036D01*
X136837260Y-90659800D01*
X135423540Y-90659800D01*
X135395472Y-90657036D01*
X135374389Y-90650640D01*
X135354958Y-90640254D01*
X135337925Y-90626275D01*
X135323946Y-90609242D01*
X135313560Y-90589811D01*
X135307164Y-90568728D01*
X135304400Y-90540660D01*
X135304400Y-90076940D01*
X135307164Y-90048872D01*
X135313560Y-90027789D01*
X135323946Y-90008358D01*
X135337925Y-89991325D01*
X135354958Y-89977346D01*
X135374389Y-89966960D01*
X135395472Y-89960564D01*
X135423540Y-89957800D01*
X136837260Y-89957800D01*
X136865328Y-89960564D01*
X136865328Y-89960564D01*
G37*
G36*
X170974138Y-89913316D02*
X170994756Y-89919570D01*
X171013756Y-89929726D01*
X171030408Y-89943392D01*
X171044074Y-89960044D01*
X171054230Y-89979044D01*
X171060484Y-89999662D01*
X171063200Y-90027240D01*
X171063200Y-90485960D01*
X171060484Y-90513538D01*
X171054230Y-90534156D01*
X171044074Y-90553156D01*
X171030408Y-90569808D01*
X171013756Y-90583474D01*
X170994756Y-90593630D01*
X170974138Y-90599884D01*
X170946560Y-90602600D01*
X170437840Y-90602600D01*
X170410262Y-90599884D01*
X170389644Y-90593630D01*
X170370644Y-90583474D01*
X170353992Y-90569808D01*
X170340326Y-90553156D01*
X170330170Y-90534156D01*
X170323916Y-90513538D01*
X170321200Y-90485960D01*
X170321200Y-90027240D01*
X170323916Y-89999662D01*
X170330170Y-89979044D01*
X170340326Y-89960044D01*
X170353992Y-89943392D01*
X170370644Y-89929726D01*
X170389644Y-89919570D01*
X170410262Y-89913316D01*
X170437840Y-89910600D01*
X170946560Y-89910600D01*
X170974138Y-89913316D01*
X170974138Y-89913316D01*
G37*
G36*
X173474138Y-89913316D02*
X173494756Y-89919570D01*
X173513756Y-89929726D01*
X173530408Y-89943392D01*
X173544074Y-89960044D01*
X173554230Y-89979044D01*
X173560484Y-89999662D01*
X173563200Y-90027240D01*
X173563200Y-90485960D01*
X173560484Y-90513538D01*
X173554230Y-90534156D01*
X173544074Y-90553156D01*
X173530408Y-90569808D01*
X173513756Y-90583474D01*
X173494756Y-90593630D01*
X173474138Y-90599884D01*
X173446560Y-90602600D01*
X172937840Y-90602600D01*
X172910262Y-90599884D01*
X172889644Y-90593630D01*
X172870644Y-90583474D01*
X172853992Y-90569808D01*
X172840326Y-90553156D01*
X172830170Y-90534156D01*
X172823916Y-90513538D01*
X172821200Y-90485960D01*
X172821200Y-90027240D01*
X172823916Y-89999662D01*
X172830170Y-89979044D01*
X172840326Y-89960044D01*
X172853992Y-89943392D01*
X172870644Y-89929726D01*
X172889644Y-89919570D01*
X172910262Y-89913316D01*
X172937840Y-89910600D01*
X173446560Y-89910600D01*
X173474138Y-89913316D01*
X173474138Y-89913316D01*
G37*
G36*
X168724138Y-89913316D02*
X168744756Y-89919570D01*
X168763756Y-89929726D01*
X168780408Y-89943392D01*
X168794074Y-89960044D01*
X168804230Y-89979044D01*
X168810484Y-89999662D01*
X168813200Y-90027240D01*
X168813200Y-90485960D01*
X168810484Y-90513538D01*
X168804230Y-90534156D01*
X168794074Y-90553156D01*
X168780408Y-90569808D01*
X168763756Y-90583474D01*
X168744756Y-90593630D01*
X168724138Y-90599884D01*
X168696560Y-90602600D01*
X168187840Y-90602600D01*
X168160262Y-90599884D01*
X168139644Y-90593630D01*
X168120644Y-90583474D01*
X168103992Y-90569808D01*
X168090326Y-90553156D01*
X168080170Y-90534156D01*
X168073916Y-90513538D01*
X168071200Y-90485960D01*
X168071200Y-90027240D01*
X168073916Y-89999662D01*
X168080170Y-89979044D01*
X168090326Y-89960044D01*
X168103992Y-89943392D01*
X168120644Y-89929726D01*
X168139644Y-89919570D01*
X168160262Y-89913316D01*
X168187840Y-89910600D01*
X168696560Y-89910600D01*
X168724138Y-89913316D01*
X168724138Y-89913316D01*
G37*
G36*
X164141138Y-89904416D02*
X164161756Y-89910670D01*
X164180756Y-89920826D01*
X164197408Y-89934492D01*
X164211074Y-89951144D01*
X164221230Y-89970144D01*
X164227484Y-89990762D01*
X164230200Y-90018340D01*
X164230200Y-90477060D01*
X164227484Y-90504638D01*
X164221230Y-90525256D01*
X164211074Y-90544256D01*
X164197408Y-90560908D01*
X164180756Y-90574574D01*
X164161756Y-90584730D01*
X164141138Y-90590984D01*
X164113560Y-90593700D01*
X163604840Y-90593700D01*
X163577262Y-90590984D01*
X163556644Y-90584730D01*
X163537644Y-90574574D01*
X163520992Y-90560908D01*
X163507326Y-90544256D01*
X163497170Y-90525256D01*
X163490916Y-90504638D01*
X163488200Y-90477060D01*
X163488200Y-90018340D01*
X163490916Y-89990762D01*
X163497170Y-89970144D01*
X163507326Y-89951144D01*
X163520992Y-89934492D01*
X163537644Y-89920826D01*
X163556644Y-89910670D01*
X163577262Y-89904416D01*
X163604840Y-89901700D01*
X164113560Y-89901700D01*
X164141138Y-89904416D01*
X164141138Y-89904416D01*
G37*
G36*
X166389038Y-89904416D02*
X166409656Y-89910670D01*
X166428656Y-89920826D01*
X166445308Y-89934492D01*
X166458974Y-89951144D01*
X166469130Y-89970144D01*
X166475384Y-89990762D01*
X166478100Y-90018340D01*
X166478100Y-90477060D01*
X166475384Y-90504638D01*
X166469130Y-90525256D01*
X166458974Y-90544256D01*
X166445308Y-90560908D01*
X166428656Y-90574574D01*
X166409656Y-90584730D01*
X166389038Y-90590984D01*
X166361460Y-90593700D01*
X165852740Y-90593700D01*
X165825162Y-90590984D01*
X165804544Y-90584730D01*
X165785544Y-90574574D01*
X165768892Y-90560908D01*
X165755226Y-90544256D01*
X165745070Y-90525256D01*
X165738816Y-90504638D01*
X165736100Y-90477060D01*
X165736100Y-90018340D01*
X165738816Y-89990762D01*
X165745070Y-89970144D01*
X165755226Y-89951144D01*
X165768892Y-89934492D01*
X165785544Y-89920826D01*
X165804544Y-89910670D01*
X165825162Y-89904416D01*
X165852740Y-89901700D01*
X166361460Y-89901700D01*
X166389038Y-89904416D01*
X166389038Y-89904416D01*
G37*
G36*
X148795591Y-89291085D02*
X148829569Y-89301393D01*
X148860887Y-89318133D01*
X148888339Y-89340661D01*
X148910867Y-89368113D01*
X148927607Y-89399431D01*
X148937915Y-89433409D01*
X148942000Y-89474890D01*
X148942000Y-90076110D01*
X148937915Y-90117591D01*
X148927607Y-90151569D01*
X148910867Y-90182887D01*
X148888339Y-90210339D01*
X148860887Y-90232867D01*
X148829569Y-90249607D01*
X148795591Y-90259915D01*
X148754110Y-90264000D01*
X148077890Y-90264000D01*
X148036409Y-90259915D01*
X148002431Y-90249607D01*
X147971113Y-90232867D01*
X147943661Y-90210339D01*
X147921133Y-90182887D01*
X147904393Y-90151569D01*
X147894085Y-90117591D01*
X147890000Y-90076110D01*
X147890000Y-89474890D01*
X147894085Y-89433409D01*
X147904393Y-89399431D01*
X147921133Y-89368113D01*
X147943661Y-89340661D01*
X147971113Y-89318133D01*
X148002431Y-89301393D01*
X148036409Y-89291085D01*
X148077890Y-89287000D01*
X148754110Y-89287000D01*
X148795591Y-89291085D01*
X148795591Y-89291085D01*
G37*
G36*
X170974138Y-88943316D02*
X170994756Y-88949570D01*
X171013756Y-88959726D01*
X171030408Y-88973392D01*
X171044074Y-88990044D01*
X171054230Y-89009044D01*
X171060484Y-89029662D01*
X171063200Y-89057240D01*
X171063200Y-89515960D01*
X171060484Y-89543538D01*
X171054230Y-89564156D01*
X171044074Y-89583156D01*
X171030408Y-89599808D01*
X171013756Y-89613474D01*
X170994756Y-89623630D01*
X170974138Y-89629884D01*
X170946560Y-89632600D01*
X170437840Y-89632600D01*
X170410262Y-89629884D01*
X170389644Y-89623630D01*
X170370644Y-89613474D01*
X170353992Y-89599808D01*
X170340326Y-89583156D01*
X170330170Y-89564156D01*
X170323916Y-89543538D01*
X170321200Y-89515960D01*
X170321200Y-89057240D01*
X170323916Y-89029662D01*
X170330170Y-89009044D01*
X170340326Y-88990044D01*
X170353992Y-88973392D01*
X170370644Y-88959726D01*
X170389644Y-88949570D01*
X170410262Y-88943316D01*
X170437840Y-88940600D01*
X170946560Y-88940600D01*
X170974138Y-88943316D01*
X170974138Y-88943316D01*
G37*
G36*
X173474138Y-88943316D02*
X173494756Y-88949570D01*
X173513756Y-88959726D01*
X173530408Y-88973392D01*
X173544074Y-88990044D01*
X173554230Y-89009044D01*
X173560484Y-89029662D01*
X173563200Y-89057240D01*
X173563200Y-89515960D01*
X173560484Y-89543538D01*
X173554230Y-89564156D01*
X173544074Y-89583156D01*
X173530408Y-89599808D01*
X173513756Y-89613474D01*
X173494756Y-89623630D01*
X173474138Y-89629884D01*
X173446560Y-89632600D01*
X172937840Y-89632600D01*
X172910262Y-89629884D01*
X172889644Y-89623630D01*
X172870644Y-89613474D01*
X172853992Y-89599808D01*
X172840326Y-89583156D01*
X172830170Y-89564156D01*
X172823916Y-89543538D01*
X172821200Y-89515960D01*
X172821200Y-89057240D01*
X172823916Y-89029662D01*
X172830170Y-89009044D01*
X172840326Y-88990044D01*
X172853992Y-88973392D01*
X172870644Y-88959726D01*
X172889644Y-88949570D01*
X172910262Y-88943316D01*
X172937840Y-88940600D01*
X173446560Y-88940600D01*
X173474138Y-88943316D01*
X173474138Y-88943316D01*
G37*
G36*
X168724138Y-88943316D02*
X168744756Y-88949570D01*
X168763756Y-88959726D01*
X168780408Y-88973392D01*
X168794074Y-88990044D01*
X168804230Y-89009044D01*
X168810484Y-89029662D01*
X168813200Y-89057240D01*
X168813200Y-89515960D01*
X168810484Y-89543538D01*
X168804230Y-89564156D01*
X168794074Y-89583156D01*
X168780408Y-89599808D01*
X168763756Y-89613474D01*
X168744756Y-89623630D01*
X168724138Y-89629884D01*
X168696560Y-89632600D01*
X168187840Y-89632600D01*
X168160262Y-89629884D01*
X168139644Y-89623630D01*
X168120644Y-89613474D01*
X168103992Y-89599808D01*
X168090326Y-89583156D01*
X168080170Y-89564156D01*
X168073916Y-89543538D01*
X168071200Y-89515960D01*
X168071200Y-89057240D01*
X168073916Y-89029662D01*
X168080170Y-89009044D01*
X168090326Y-88990044D01*
X168103992Y-88973392D01*
X168120644Y-88959726D01*
X168139644Y-88949570D01*
X168160262Y-88943316D01*
X168187840Y-88940600D01*
X168696560Y-88940600D01*
X168724138Y-88943316D01*
X168724138Y-88943316D01*
G37*
G36*
X161609891Y-88655885D02*
X161643869Y-88666193D01*
X161675187Y-88682933D01*
X161702639Y-88705461D01*
X161725167Y-88732913D01*
X161741907Y-88764231D01*
X161752215Y-88798209D01*
X161756300Y-88839690D01*
X161756300Y-89440910D01*
X161752215Y-89482391D01*
X161741907Y-89516369D01*
X161725167Y-89547687D01*
X161702639Y-89575139D01*
X161675187Y-89597667D01*
X161643869Y-89614407D01*
X161609891Y-89624715D01*
X161568410Y-89628800D01*
X160892190Y-89628800D01*
X160850709Y-89624715D01*
X160816731Y-89614407D01*
X160785413Y-89597667D01*
X160757961Y-89575139D01*
X160735433Y-89547687D01*
X160718693Y-89516369D01*
X160708385Y-89482391D01*
X160704300Y-89440910D01*
X160704300Y-88839690D01*
X160708385Y-88798209D01*
X160718693Y-88764231D01*
X160735433Y-88732913D01*
X160757961Y-88705461D01*
X160785413Y-88682933D01*
X160816731Y-88666193D01*
X160850709Y-88655885D01*
X160892190Y-88651800D01*
X161568410Y-88651800D01*
X161609891Y-88655885D01*
X161609891Y-88655885D01*
G37*
G36*
X166389038Y-88934416D02*
X166409656Y-88940670D01*
X166428656Y-88950826D01*
X166445308Y-88964492D01*
X166458974Y-88981144D01*
X166469130Y-89000144D01*
X166475384Y-89020762D01*
X166478100Y-89048340D01*
X166478100Y-89507060D01*
X166475384Y-89534638D01*
X166469130Y-89555256D01*
X166458974Y-89574256D01*
X166445308Y-89590908D01*
X166428656Y-89604574D01*
X166409656Y-89614730D01*
X166389038Y-89620984D01*
X166361460Y-89623700D01*
X165852740Y-89623700D01*
X165825162Y-89620984D01*
X165804544Y-89614730D01*
X165785544Y-89604574D01*
X165768892Y-89590908D01*
X165755226Y-89574256D01*
X165745070Y-89555256D01*
X165738816Y-89534638D01*
X165736100Y-89507060D01*
X165736100Y-89048340D01*
X165738816Y-89020762D01*
X165745070Y-89000144D01*
X165755226Y-88981144D01*
X165768892Y-88964492D01*
X165785544Y-88950826D01*
X165804544Y-88940670D01*
X165825162Y-88934416D01*
X165852740Y-88931700D01*
X166361460Y-88931700D01*
X166389038Y-88934416D01*
X166389038Y-88934416D01*
G37*
G36*
X164141138Y-88934416D02*
X164161756Y-88940670D01*
X164180756Y-88950826D01*
X164197408Y-88964492D01*
X164211074Y-88981144D01*
X164221230Y-89000144D01*
X164227484Y-89020762D01*
X164230200Y-89048340D01*
X164230200Y-89507060D01*
X164227484Y-89534638D01*
X164221230Y-89555256D01*
X164211074Y-89574256D01*
X164197408Y-89590908D01*
X164180756Y-89604574D01*
X164161756Y-89614730D01*
X164141138Y-89620984D01*
X164113560Y-89623700D01*
X163604840Y-89623700D01*
X163577262Y-89620984D01*
X163556644Y-89614730D01*
X163537644Y-89604574D01*
X163520992Y-89590908D01*
X163507326Y-89574256D01*
X163497170Y-89555256D01*
X163490916Y-89534638D01*
X163488200Y-89507060D01*
X163488200Y-89048340D01*
X163490916Y-89020762D01*
X163497170Y-89000144D01*
X163507326Y-88981144D01*
X163520992Y-88964492D01*
X163537644Y-88950826D01*
X163556644Y-88940670D01*
X163577262Y-88934416D01*
X163604840Y-88931700D01*
X164113560Y-88931700D01*
X164141138Y-88934416D01*
X164141138Y-88934416D01*
G37*
G36*
X150219938Y-88746716D02*
X150240556Y-88752970D01*
X150259556Y-88763126D01*
X150276208Y-88776792D01*
X150289874Y-88793444D01*
X150300030Y-88812444D01*
X150306284Y-88833062D01*
X150309000Y-88860640D01*
X150309000Y-89369360D01*
X150306284Y-89396938D01*
X150300030Y-89417556D01*
X150289874Y-89436556D01*
X150276208Y-89453208D01*
X150259556Y-89466874D01*
X150240556Y-89477030D01*
X150219938Y-89483284D01*
X150192360Y-89486000D01*
X149733640Y-89486000D01*
X149706062Y-89483284D01*
X149685444Y-89477030D01*
X149666444Y-89466874D01*
X149649792Y-89453208D01*
X149636126Y-89436556D01*
X149625970Y-89417556D01*
X149619716Y-89396938D01*
X149617000Y-89369360D01*
X149617000Y-88860640D01*
X149619716Y-88833062D01*
X149625970Y-88812444D01*
X149636126Y-88793444D01*
X149649792Y-88776792D01*
X149666444Y-88763126D01*
X149685444Y-88752970D01*
X149706062Y-88746716D01*
X149733640Y-88744000D01*
X150192360Y-88744000D01*
X150219938Y-88746716D01*
X150219938Y-88746716D01*
G37*
G36*
X151189938Y-88746716D02*
X151210556Y-88752970D01*
X151229556Y-88763126D01*
X151246208Y-88776792D01*
X151259874Y-88793444D01*
X151270030Y-88812444D01*
X151276284Y-88833062D01*
X151279000Y-88860640D01*
X151279000Y-89369360D01*
X151276284Y-89396938D01*
X151270030Y-89417556D01*
X151259874Y-89436556D01*
X151246208Y-89453208D01*
X151229556Y-89466874D01*
X151210556Y-89477030D01*
X151189938Y-89483284D01*
X151162360Y-89486000D01*
X150703640Y-89486000D01*
X150676062Y-89483284D01*
X150655444Y-89477030D01*
X150636444Y-89466874D01*
X150619792Y-89453208D01*
X150606126Y-89436556D01*
X150595970Y-89417556D01*
X150589716Y-89396938D01*
X150587000Y-89369360D01*
X150587000Y-88860640D01*
X150589716Y-88833062D01*
X150595970Y-88812444D01*
X150606126Y-88793444D01*
X150619792Y-88776792D01*
X150636444Y-88763126D01*
X150655444Y-88752970D01*
X150676062Y-88746716D01*
X150703640Y-88744000D01*
X151162360Y-88744000D01*
X151189938Y-88746716D01*
X151189938Y-88746716D01*
G37*
G36*
X136865328Y-88690564D02*
X136886411Y-88696960D01*
X136905842Y-88707346D01*
X136922875Y-88721325D01*
X136936854Y-88738358D01*
X136947240Y-88757789D01*
X136953636Y-88778872D01*
X136956400Y-88806940D01*
X136956400Y-89270660D01*
X136953636Y-89298728D01*
X136947240Y-89319811D01*
X136936854Y-89339242D01*
X136922875Y-89356275D01*
X136905842Y-89370254D01*
X136886411Y-89380640D01*
X136865328Y-89387036D01*
X136837260Y-89389800D01*
X135423540Y-89389800D01*
X135395472Y-89387036D01*
X135374389Y-89380640D01*
X135354958Y-89370254D01*
X135337925Y-89356275D01*
X135323946Y-89339242D01*
X135313560Y-89319811D01*
X135307164Y-89298728D01*
X135304400Y-89270660D01*
X135304400Y-88806940D01*
X135307164Y-88778872D01*
X135313560Y-88757789D01*
X135323946Y-88738358D01*
X135337925Y-88721325D01*
X135354958Y-88707346D01*
X135374389Y-88696960D01*
X135395472Y-88690564D01*
X135423540Y-88687800D01*
X136837260Y-88687800D01*
X136865328Y-88690564D01*
X136865328Y-88690564D01*
G37*
G36*
X131515328Y-88690564D02*
X131536411Y-88696960D01*
X131555842Y-88707346D01*
X131572875Y-88721325D01*
X131586854Y-88738358D01*
X131597240Y-88757789D01*
X131603636Y-88778872D01*
X131606400Y-88806940D01*
X131606400Y-89270660D01*
X131603636Y-89298728D01*
X131597240Y-89319811D01*
X131586854Y-89339242D01*
X131572875Y-89356275D01*
X131555842Y-89370254D01*
X131536411Y-89380640D01*
X131515328Y-89387036D01*
X131487260Y-89389800D01*
X130073540Y-89389800D01*
X130045472Y-89387036D01*
X130024389Y-89380640D01*
X130004958Y-89370254D01*
X129987925Y-89356275D01*
X129973946Y-89339242D01*
X129963560Y-89319811D01*
X129957164Y-89298728D01*
X129954400Y-89270660D01*
X129954400Y-88806940D01*
X129957164Y-88778872D01*
X129963560Y-88757789D01*
X129973946Y-88738358D01*
X129987925Y-88721325D01*
X130004958Y-88707346D01*
X130024389Y-88696960D01*
X130045472Y-88690564D01*
X130073540Y-88687800D01*
X131487260Y-88687800D01*
X131515328Y-88690564D01*
X131515328Y-88690564D01*
G37*
G36*
X153422338Y-88570916D02*
X153442956Y-88577170D01*
X153461956Y-88587326D01*
X153478608Y-88600992D01*
X153492274Y-88617644D01*
X153502430Y-88636644D01*
X153508684Y-88657262D01*
X153511400Y-88684840D01*
X153511400Y-89143560D01*
X153508684Y-89171138D01*
X153502430Y-89191756D01*
X153492274Y-89210756D01*
X153478608Y-89227408D01*
X153461956Y-89241074D01*
X153442956Y-89251230D01*
X153422338Y-89257484D01*
X153394760Y-89260200D01*
X152886040Y-89260200D01*
X152858462Y-89257484D01*
X152837844Y-89251230D01*
X152818844Y-89241074D01*
X152802192Y-89227408D01*
X152788526Y-89210756D01*
X152778370Y-89191756D01*
X152772116Y-89171138D01*
X152769400Y-89143560D01*
X152769400Y-88684840D01*
X152772116Y-88657262D01*
X152778370Y-88636644D01*
X152788526Y-88617644D01*
X152802192Y-88600992D01*
X152818844Y-88587326D01*
X152837844Y-88577170D01*
X152858462Y-88570916D01*
X152886040Y-88568200D01*
X153394760Y-88568200D01*
X153422338Y-88570916D01*
X153422338Y-88570916D01*
G37*
G36*
X157265600Y-88730800D02*
X155263600Y-88730800D01*
X155263600Y-87528800D01*
X157265600Y-87528800D01*
X157265600Y-88730800D01*
X157265600Y-88730800D01*
G37*
G36*
X148795591Y-87716085D02*
X148829569Y-87726393D01*
X148860887Y-87743133D01*
X148888339Y-87765661D01*
X148910867Y-87793113D01*
X148927607Y-87824431D01*
X148937915Y-87858409D01*
X148942000Y-87899890D01*
X148942000Y-88501110D01*
X148937915Y-88542591D01*
X148927607Y-88576569D01*
X148910867Y-88607887D01*
X148888339Y-88635339D01*
X148860887Y-88657867D01*
X148829569Y-88674607D01*
X148795591Y-88684915D01*
X148754110Y-88689000D01*
X148077890Y-88689000D01*
X148036409Y-88684915D01*
X148002431Y-88674607D01*
X147971113Y-88657867D01*
X147943661Y-88635339D01*
X147921133Y-88607887D01*
X147904393Y-88576569D01*
X147894085Y-88542591D01*
X147890000Y-88501110D01*
X147890000Y-87899890D01*
X147894085Y-87858409D01*
X147904393Y-87824431D01*
X147921133Y-87793113D01*
X147943661Y-87765661D01*
X147971113Y-87743133D01*
X148002431Y-87726393D01*
X148036409Y-87716085D01*
X148077890Y-87712000D01*
X148754110Y-87712000D01*
X148795591Y-87716085D01*
X148795591Y-87716085D01*
G37*
G36*
X150219938Y-87603716D02*
X150240556Y-87609970D01*
X150259556Y-87620126D01*
X150276208Y-87633792D01*
X150289874Y-87650444D01*
X150300030Y-87669444D01*
X150306284Y-87690062D01*
X150309000Y-87717640D01*
X150309000Y-88226360D01*
X150306284Y-88253938D01*
X150300030Y-88274556D01*
X150289874Y-88293556D01*
X150276208Y-88310208D01*
X150259556Y-88323874D01*
X150240556Y-88334030D01*
X150219938Y-88340284D01*
X150192360Y-88343000D01*
X149733640Y-88343000D01*
X149706062Y-88340284D01*
X149685444Y-88334030D01*
X149666444Y-88323874D01*
X149649792Y-88310208D01*
X149636126Y-88293556D01*
X149625970Y-88274556D01*
X149619716Y-88253938D01*
X149617000Y-88226360D01*
X149617000Y-87717640D01*
X149619716Y-87690062D01*
X149625970Y-87669444D01*
X149636126Y-87650444D01*
X149649792Y-87633792D01*
X149666444Y-87620126D01*
X149685444Y-87609970D01*
X149706062Y-87603716D01*
X149733640Y-87601000D01*
X150192360Y-87601000D01*
X150219938Y-87603716D01*
X150219938Y-87603716D01*
G37*
G36*
X151189938Y-87603716D02*
X151210556Y-87609970D01*
X151229556Y-87620126D01*
X151246208Y-87633792D01*
X151259874Y-87650444D01*
X151270030Y-87669444D01*
X151276284Y-87690062D01*
X151279000Y-87717640D01*
X151279000Y-88226360D01*
X151276284Y-88253938D01*
X151270030Y-88274556D01*
X151259874Y-88293556D01*
X151246208Y-88310208D01*
X151229556Y-88323874D01*
X151210556Y-88334030D01*
X151189938Y-88340284D01*
X151162360Y-88343000D01*
X150703640Y-88343000D01*
X150676062Y-88340284D01*
X150655444Y-88334030D01*
X150636444Y-88323874D01*
X150619792Y-88310208D01*
X150606126Y-88293556D01*
X150595970Y-88274556D01*
X150589716Y-88253938D01*
X150587000Y-88226360D01*
X150587000Y-87717640D01*
X150589716Y-87690062D01*
X150595970Y-87669444D01*
X150606126Y-87650444D01*
X150619792Y-87633792D01*
X150636444Y-87620126D01*
X150655444Y-87609970D01*
X150676062Y-87603716D01*
X150703640Y-87601000D01*
X151162360Y-87601000D01*
X151189938Y-87603716D01*
X151189938Y-87603716D01*
G37*
G36*
X153422338Y-87600916D02*
X153442956Y-87607170D01*
X153461956Y-87617326D01*
X153478608Y-87630992D01*
X153492274Y-87647644D01*
X153502430Y-87666644D01*
X153508684Y-87687262D01*
X153511400Y-87714840D01*
X153511400Y-88173560D01*
X153508684Y-88201138D01*
X153502430Y-88221756D01*
X153492274Y-88240756D01*
X153478608Y-88257408D01*
X153461956Y-88271074D01*
X153442956Y-88281230D01*
X153422338Y-88287484D01*
X153394760Y-88290200D01*
X152886040Y-88290200D01*
X152858462Y-88287484D01*
X152837844Y-88281230D01*
X152818844Y-88271074D01*
X152802192Y-88257408D01*
X152788526Y-88240756D01*
X152778370Y-88221756D01*
X152772116Y-88201138D01*
X152769400Y-88173560D01*
X152769400Y-87714840D01*
X152772116Y-87687262D01*
X152778370Y-87666644D01*
X152788526Y-87647644D01*
X152802192Y-87630992D01*
X152818844Y-87617326D01*
X152837844Y-87607170D01*
X152858462Y-87600916D01*
X152886040Y-87598200D01*
X153394760Y-87598200D01*
X153422338Y-87600916D01*
X153422338Y-87600916D01*
G37*
G36*
X131515328Y-87420564D02*
X131536411Y-87426960D01*
X131555842Y-87437346D01*
X131572875Y-87451325D01*
X131586854Y-87468358D01*
X131597240Y-87487789D01*
X131603636Y-87508872D01*
X131606400Y-87536940D01*
X131606400Y-88000660D01*
X131603636Y-88028728D01*
X131597240Y-88049811D01*
X131586854Y-88069242D01*
X131572875Y-88086275D01*
X131555842Y-88100254D01*
X131536411Y-88110640D01*
X131515328Y-88117036D01*
X131487260Y-88119800D01*
X130073540Y-88119800D01*
X130045472Y-88117036D01*
X130024389Y-88110640D01*
X130004958Y-88100254D01*
X129987925Y-88086275D01*
X129973946Y-88069242D01*
X129963560Y-88049811D01*
X129957164Y-88028728D01*
X129954400Y-88000660D01*
X129954400Y-87536940D01*
X129957164Y-87508872D01*
X129963560Y-87487789D01*
X129973946Y-87468358D01*
X129987925Y-87451325D01*
X130004958Y-87437346D01*
X130024389Y-87426960D01*
X130045472Y-87420564D01*
X130073540Y-87417800D01*
X131487260Y-87417800D01*
X131515328Y-87420564D01*
X131515328Y-87420564D01*
G37*
G36*
X136865328Y-87420564D02*
X136886411Y-87426960D01*
X136905842Y-87437346D01*
X136922875Y-87451325D01*
X136936854Y-87468358D01*
X136947240Y-87487789D01*
X136953636Y-87508872D01*
X136956400Y-87536940D01*
X136956400Y-88000660D01*
X136953636Y-88028728D01*
X136947240Y-88049811D01*
X136936854Y-88069242D01*
X136922875Y-88086275D01*
X136905842Y-88100254D01*
X136886411Y-88110640D01*
X136865328Y-88117036D01*
X136837260Y-88119800D01*
X135423540Y-88119800D01*
X135395472Y-88117036D01*
X135374389Y-88110640D01*
X135354958Y-88100254D01*
X135337925Y-88086275D01*
X135323946Y-88069242D01*
X135313560Y-88049811D01*
X135307164Y-88028728D01*
X135304400Y-88000660D01*
X135304400Y-87536940D01*
X135307164Y-87508872D01*
X135313560Y-87487789D01*
X135323946Y-87468358D01*
X135337925Y-87451325D01*
X135354958Y-87437346D01*
X135374389Y-87426960D01*
X135395472Y-87420564D01*
X135423540Y-87417800D01*
X136837260Y-87417800D01*
X136865328Y-87420564D01*
X136865328Y-87420564D01*
G37*
G36*
X154666938Y-87300916D02*
X154687556Y-87307170D01*
X154706556Y-87317326D01*
X154723208Y-87330992D01*
X154736874Y-87347644D01*
X154747030Y-87366644D01*
X154753284Y-87387262D01*
X154756000Y-87414840D01*
X154756000Y-87873560D01*
X154753284Y-87901138D01*
X154747030Y-87921756D01*
X154736874Y-87940756D01*
X154723208Y-87957408D01*
X154706556Y-87971074D01*
X154687556Y-87981230D01*
X154666938Y-87987484D01*
X154639360Y-87990200D01*
X154130640Y-87990200D01*
X154103062Y-87987484D01*
X154082444Y-87981230D01*
X154063444Y-87971074D01*
X154046792Y-87957408D01*
X154033126Y-87940756D01*
X154022970Y-87921756D01*
X154016716Y-87901138D01*
X154014000Y-87873560D01*
X154014000Y-87414840D01*
X154016716Y-87387262D01*
X154022970Y-87366644D01*
X154033126Y-87347644D01*
X154046792Y-87330992D01*
X154063444Y-87317326D01*
X154082444Y-87307170D01*
X154103062Y-87300916D01*
X154130640Y-87298200D01*
X154639360Y-87298200D01*
X154666938Y-87300916D01*
X154666938Y-87300916D01*
G37*
G36*
X172677400Y-87911200D02*
X163175400Y-87911200D01*
X163175400Y-77009200D01*
X172677400Y-77009200D01*
X172677400Y-87911200D01*
X172677400Y-87911200D01*
G37*
G36*
X154666938Y-86330916D02*
X154687556Y-86337170D01*
X154706556Y-86347326D01*
X154723208Y-86360992D01*
X154736874Y-86377644D01*
X154747030Y-86396644D01*
X154753284Y-86417262D01*
X154756000Y-86444840D01*
X154756000Y-86903560D01*
X154753284Y-86931138D01*
X154747030Y-86951756D01*
X154736874Y-86970756D01*
X154723208Y-86987408D01*
X154706556Y-87001074D01*
X154687556Y-87011230D01*
X154666938Y-87017484D01*
X154639360Y-87020200D01*
X154130640Y-87020200D01*
X154103062Y-87017484D01*
X154082444Y-87011230D01*
X154063444Y-87001074D01*
X154046792Y-86987408D01*
X154033126Y-86970756D01*
X154022970Y-86951756D01*
X154016716Y-86931138D01*
X154014000Y-86903560D01*
X154014000Y-86444840D01*
X154016716Y-86417262D01*
X154022970Y-86396644D01*
X154033126Y-86377644D01*
X154046792Y-86360992D01*
X154063444Y-86347326D01*
X154082444Y-86337170D01*
X154103062Y-86330916D01*
X154130640Y-86328200D01*
X154639360Y-86328200D01*
X154666938Y-86330916D01*
X154666938Y-86330916D01*
G37*
G36*
X151096604Y-85018347D02*
X151133145Y-85029432D01*
X151166820Y-85047431D01*
X151196341Y-85071659D01*
X151220569Y-85101180D01*
X151238568Y-85134855D01*
X151249653Y-85171396D01*
X151254000Y-85215538D01*
X151254000Y-86664462D01*
X151249653Y-86708604D01*
X151238568Y-86745145D01*
X151220569Y-86778820D01*
X151196341Y-86808341D01*
X151166820Y-86832569D01*
X151133145Y-86850568D01*
X151096604Y-86861653D01*
X151052462Y-86866000D01*
X150103538Y-86866000D01*
X150059396Y-86861653D01*
X150022855Y-86850568D01*
X149989180Y-86832569D01*
X149959659Y-86808341D01*
X149935431Y-86778820D01*
X149917432Y-86745145D01*
X149906347Y-86708604D01*
X149902000Y-86664462D01*
X149902000Y-85215538D01*
X149906347Y-85171396D01*
X149917432Y-85134855D01*
X149935431Y-85101180D01*
X149959659Y-85071659D01*
X149989180Y-85047431D01*
X150022855Y-85029432D01*
X150059396Y-85018347D01*
X150103538Y-85014000D01*
X151052462Y-85014000D01*
X151096604Y-85018347D01*
X151096604Y-85018347D01*
G37*
G36*
X148296604Y-85018347D02*
X148333145Y-85029432D01*
X148366820Y-85047431D01*
X148396341Y-85071659D01*
X148420569Y-85101180D01*
X148438568Y-85134855D01*
X148449653Y-85171396D01*
X148454000Y-85215538D01*
X148454000Y-86664462D01*
X148449653Y-86708604D01*
X148438568Y-86745145D01*
X148420569Y-86778820D01*
X148396341Y-86808341D01*
X148366820Y-86832569D01*
X148333145Y-86850568D01*
X148296604Y-86861653D01*
X148252462Y-86866000D01*
X147303538Y-86866000D01*
X147259396Y-86861653D01*
X147222855Y-86850568D01*
X147189180Y-86832569D01*
X147159659Y-86808341D01*
X147135431Y-86778820D01*
X147117432Y-86745145D01*
X147106347Y-86708604D01*
X147102000Y-86664462D01*
X147102000Y-85215538D01*
X147106347Y-85171396D01*
X147117432Y-85134855D01*
X147135431Y-85101180D01*
X147159659Y-85071659D01*
X147189180Y-85047431D01*
X147222855Y-85029432D01*
X147259396Y-85018347D01*
X147303538Y-85014000D01*
X148252462Y-85014000D01*
X148296604Y-85018347D01*
X148296604Y-85018347D01*
G37*
G36*
X136865328Y-86150564D02*
X136886411Y-86156960D01*
X136905842Y-86167346D01*
X136922875Y-86181325D01*
X136936854Y-86198358D01*
X136947240Y-86217789D01*
X136953636Y-86238872D01*
X136956400Y-86266940D01*
X136956400Y-86730660D01*
X136953636Y-86758728D01*
X136947240Y-86779811D01*
X136936854Y-86799242D01*
X136922875Y-86816275D01*
X136905842Y-86830254D01*
X136886411Y-86840640D01*
X136865328Y-86847036D01*
X136837260Y-86849800D01*
X135423540Y-86849800D01*
X135395472Y-86847036D01*
X135374389Y-86840640D01*
X135354958Y-86830254D01*
X135337925Y-86816275D01*
X135323946Y-86799242D01*
X135313560Y-86779811D01*
X135307164Y-86758728D01*
X135304400Y-86730660D01*
X135304400Y-86266940D01*
X135307164Y-86238872D01*
X135313560Y-86217789D01*
X135323946Y-86198358D01*
X135337925Y-86181325D01*
X135354958Y-86167346D01*
X135374389Y-86156960D01*
X135395472Y-86150564D01*
X135423540Y-86147800D01*
X136837260Y-86147800D01*
X136865328Y-86150564D01*
X136865328Y-86150564D01*
G37*
G36*
X131515328Y-86150564D02*
X131536411Y-86156960D01*
X131555842Y-86167346D01*
X131572875Y-86181325D01*
X131586854Y-86198358D01*
X131597240Y-86217789D01*
X131603636Y-86238872D01*
X131606400Y-86266940D01*
X131606400Y-86730660D01*
X131603636Y-86758728D01*
X131597240Y-86779811D01*
X131586854Y-86799242D01*
X131572875Y-86816275D01*
X131555842Y-86830254D01*
X131536411Y-86840640D01*
X131515328Y-86847036D01*
X131487260Y-86849800D01*
X130073540Y-86849800D01*
X130045472Y-86847036D01*
X130024389Y-86840640D01*
X130004958Y-86830254D01*
X129987925Y-86816275D01*
X129973946Y-86799242D01*
X129963560Y-86779811D01*
X129957164Y-86758728D01*
X129954400Y-86730660D01*
X129954400Y-86266940D01*
X129957164Y-86238872D01*
X129963560Y-86217789D01*
X129973946Y-86198358D01*
X129987925Y-86181325D01*
X130004958Y-86167346D01*
X130024389Y-86156960D01*
X130045472Y-86150564D01*
X130073540Y-86147800D01*
X131487260Y-86147800D01*
X131515328Y-86150564D01*
X131515328Y-86150564D01*
G37*
G36*
X161635291Y-85595385D02*
X161669269Y-85605693D01*
X161700587Y-85622433D01*
X161728039Y-85644961D01*
X161750567Y-85672413D01*
X161767307Y-85703731D01*
X161777615Y-85737709D01*
X161781700Y-85779190D01*
X161781700Y-86380410D01*
X161777615Y-86421891D01*
X161767307Y-86455869D01*
X161750567Y-86487187D01*
X161728039Y-86514639D01*
X161700587Y-86537167D01*
X161669269Y-86553907D01*
X161635291Y-86564215D01*
X161593810Y-86568300D01*
X160917590Y-86568300D01*
X160876109Y-86564215D01*
X160842131Y-86553907D01*
X160810813Y-86537167D01*
X160783361Y-86514639D01*
X160760833Y-86487187D01*
X160744093Y-86455869D01*
X160733785Y-86421891D01*
X160729700Y-86380410D01*
X160729700Y-85779190D01*
X160733785Y-85737709D01*
X160744093Y-85703731D01*
X160760833Y-85672413D01*
X160783361Y-85644961D01*
X160810813Y-85622433D01*
X160842131Y-85605693D01*
X160876109Y-85595385D01*
X160917590Y-85591300D01*
X161593810Y-85591300D01*
X161635291Y-85595385D01*
X161635291Y-85595385D01*
G37*
G36*
X157265600Y-86230800D02*
X155263600Y-86230800D01*
X155263600Y-85028800D01*
X157265600Y-85028800D01*
X157265600Y-86230800D01*
X157265600Y-86230800D01*
G37*
G36*
X179427400Y-85601200D02*
X174725400Y-85601200D01*
X174725400Y-84399200D01*
X179427400Y-84399200D01*
X179427400Y-85601200D01*
X179427400Y-85601200D01*
G37*
G36*
X161635291Y-84020385D02*
X161669269Y-84030693D01*
X161700587Y-84047433D01*
X161728039Y-84069961D01*
X161750567Y-84097413D01*
X161767307Y-84128731D01*
X161777615Y-84162709D01*
X161781700Y-84204190D01*
X161781700Y-84805410D01*
X161777615Y-84846891D01*
X161767307Y-84880869D01*
X161750567Y-84912187D01*
X161728039Y-84939639D01*
X161700587Y-84962167D01*
X161669269Y-84978907D01*
X161635291Y-84989215D01*
X161593810Y-84993300D01*
X160917590Y-84993300D01*
X160876109Y-84989215D01*
X160842131Y-84978907D01*
X160810813Y-84962167D01*
X160783361Y-84939639D01*
X160760833Y-84912187D01*
X160744093Y-84880869D01*
X160733785Y-84846891D01*
X160729700Y-84805410D01*
X160729700Y-84204190D01*
X160733785Y-84162709D01*
X160744093Y-84128731D01*
X160760833Y-84097413D01*
X160783361Y-84069961D01*
X160810813Y-84047433D01*
X160842131Y-84030693D01*
X160876109Y-84020385D01*
X160917590Y-84016300D01*
X161593810Y-84016300D01*
X161635291Y-84020385D01*
X161635291Y-84020385D01*
G37*
G36*
X105683800Y-84339800D02*
X104381800Y-84339800D01*
X104381800Y-83737800D01*
X105683800Y-83737800D01*
X105683800Y-84339800D01*
X105683800Y-84339800D01*
G37*
G36*
X148526443Y-80219519D02*
X148592627Y-80226037D01*
X148705853Y-80260384D01*
X148762467Y-80277557D01*
X148901087Y-80351652D01*
X148918991Y-80361222D01*
X148936705Y-80375760D01*
X149056186Y-80473814D01*
X149139448Y-80575271D01*
X149168778Y-80611009D01*
X149168779Y-80611011D01*
X149252443Y-80767533D01*
X149257307Y-80783569D01*
X149303963Y-80937373D01*
X149321359Y-81114000D01*
X149303963Y-81290627D01*
X149269616Y-81403853D01*
X149252443Y-81460467D01*
X149191897Y-81573738D01*
X149168778Y-81616991D01*
X149158095Y-81630008D01*
X149056186Y-81754186D01*
X148954729Y-81837448D01*
X148918991Y-81866778D01*
X148918989Y-81866779D01*
X148762467Y-81950443D01*
X148705853Y-81967616D01*
X148592627Y-82001963D01*
X148526442Y-82008482D01*
X148460260Y-82015000D01*
X148371740Y-82015000D01*
X148305558Y-82008482D01*
X148239373Y-82001963D01*
X148126147Y-81967616D01*
X148069533Y-81950443D01*
X147913011Y-81866779D01*
X147913009Y-81866778D01*
X147877271Y-81837448D01*
X147775814Y-81754186D01*
X147673905Y-81630008D01*
X147663222Y-81616991D01*
X147640103Y-81573738D01*
X147579557Y-81460467D01*
X147562384Y-81403853D01*
X147528037Y-81290627D01*
X147510641Y-81114000D01*
X147528037Y-80937373D01*
X147574693Y-80783569D01*
X147579557Y-80767533D01*
X147663221Y-80611011D01*
X147663222Y-80611009D01*
X147692552Y-80575271D01*
X147775814Y-80473814D01*
X147895295Y-80375760D01*
X147913009Y-80361222D01*
X147930913Y-80351652D01*
X148069533Y-80277557D01*
X148126147Y-80260384D01*
X148239373Y-80226037D01*
X148305557Y-80219519D01*
X148371740Y-80213000D01*
X148460260Y-80213000D01*
X148526443Y-80219519D01*
X148526443Y-80219519D01*
G37*
G36*
X145986443Y-80219519D02*
X146052627Y-80226037D01*
X146165853Y-80260384D01*
X146222467Y-80277557D01*
X146361087Y-80351652D01*
X146378991Y-80361222D01*
X146396705Y-80375760D01*
X146516186Y-80473814D01*
X146599448Y-80575271D01*
X146628778Y-80611009D01*
X146628779Y-80611011D01*
X146712443Y-80767533D01*
X146717307Y-80783569D01*
X146763963Y-80937373D01*
X146781359Y-81114000D01*
X146763963Y-81290627D01*
X146729616Y-81403853D01*
X146712443Y-81460467D01*
X146651897Y-81573738D01*
X146628778Y-81616991D01*
X146618095Y-81630008D01*
X146516186Y-81754186D01*
X146414729Y-81837448D01*
X146378991Y-81866778D01*
X146378989Y-81866779D01*
X146222467Y-81950443D01*
X146165853Y-81967616D01*
X146052627Y-82001963D01*
X145986442Y-82008482D01*
X145920260Y-82015000D01*
X145831740Y-82015000D01*
X145765558Y-82008482D01*
X145699373Y-82001963D01*
X145586147Y-81967616D01*
X145529533Y-81950443D01*
X145373011Y-81866779D01*
X145373009Y-81866778D01*
X145337271Y-81837448D01*
X145235814Y-81754186D01*
X145133905Y-81630008D01*
X145123222Y-81616991D01*
X145100103Y-81573738D01*
X145039557Y-81460467D01*
X145022384Y-81403853D01*
X144988037Y-81290627D01*
X144970641Y-81114000D01*
X144988037Y-80937373D01*
X145034693Y-80783569D01*
X145039557Y-80767533D01*
X145123221Y-80611011D01*
X145123222Y-80611009D01*
X145152552Y-80575271D01*
X145235814Y-80473814D01*
X145355295Y-80375760D01*
X145373009Y-80361222D01*
X145390913Y-80351652D01*
X145529533Y-80277557D01*
X145586147Y-80260384D01*
X145699373Y-80226037D01*
X145765557Y-80219519D01*
X145831740Y-80213000D01*
X145920260Y-80213000D01*
X145986443Y-80219519D01*
X145986443Y-80219519D01*
G37*
G36*
X162017000Y-82015000D02*
X160215000Y-82015000D01*
X160215000Y-80213000D01*
X162017000Y-80213000D01*
X162017000Y-82015000D01*
X162017000Y-82015000D01*
G37*
G36*
X158686443Y-80219519D02*
X158752627Y-80226037D01*
X158865853Y-80260384D01*
X158922467Y-80277557D01*
X159061087Y-80351652D01*
X159078991Y-80361222D01*
X159096705Y-80375760D01*
X159216186Y-80473814D01*
X159299448Y-80575271D01*
X159328778Y-80611009D01*
X159328779Y-80611011D01*
X159412443Y-80767533D01*
X159417307Y-80783569D01*
X159463963Y-80937373D01*
X159481359Y-81114000D01*
X159463963Y-81290627D01*
X159429616Y-81403853D01*
X159412443Y-81460467D01*
X159351897Y-81573738D01*
X159328778Y-81616991D01*
X159318095Y-81630008D01*
X159216186Y-81754186D01*
X159114729Y-81837448D01*
X159078991Y-81866778D01*
X159078989Y-81866779D01*
X158922467Y-81950443D01*
X158865853Y-81967616D01*
X158752627Y-82001963D01*
X158686442Y-82008482D01*
X158620260Y-82015000D01*
X158531740Y-82015000D01*
X158465558Y-82008482D01*
X158399373Y-82001963D01*
X158286147Y-81967616D01*
X158229533Y-81950443D01*
X158073011Y-81866779D01*
X158073009Y-81866778D01*
X158037271Y-81837448D01*
X157935814Y-81754186D01*
X157833905Y-81630008D01*
X157823222Y-81616991D01*
X157800103Y-81573738D01*
X157739557Y-81460467D01*
X157722384Y-81403853D01*
X157688037Y-81290627D01*
X157670641Y-81114000D01*
X157688037Y-80937373D01*
X157734693Y-80783569D01*
X157739557Y-80767533D01*
X157823221Y-80611011D01*
X157823222Y-80611009D01*
X157852552Y-80575271D01*
X157935814Y-80473814D01*
X158055295Y-80375760D01*
X158073009Y-80361222D01*
X158090913Y-80351652D01*
X158229533Y-80277557D01*
X158286147Y-80260384D01*
X158399373Y-80226037D01*
X158465557Y-80219519D01*
X158531740Y-80213000D01*
X158620260Y-80213000D01*
X158686443Y-80219519D01*
X158686443Y-80219519D01*
G37*
G36*
X156146443Y-80219519D02*
X156212627Y-80226037D01*
X156325853Y-80260384D01*
X156382467Y-80277557D01*
X156521087Y-80351652D01*
X156538991Y-80361222D01*
X156556705Y-80375760D01*
X156676186Y-80473814D01*
X156759448Y-80575271D01*
X156788778Y-80611009D01*
X156788779Y-80611011D01*
X156872443Y-80767533D01*
X156877307Y-80783569D01*
X156923963Y-80937373D01*
X156941359Y-81114000D01*
X156923963Y-81290627D01*
X156889616Y-81403853D01*
X156872443Y-81460467D01*
X156811897Y-81573738D01*
X156788778Y-81616991D01*
X156778095Y-81630008D01*
X156676186Y-81754186D01*
X156574729Y-81837448D01*
X156538991Y-81866778D01*
X156538989Y-81866779D01*
X156382467Y-81950443D01*
X156325853Y-81967616D01*
X156212627Y-82001963D01*
X156146442Y-82008482D01*
X156080260Y-82015000D01*
X155991740Y-82015000D01*
X155925558Y-82008482D01*
X155859373Y-82001963D01*
X155746147Y-81967616D01*
X155689533Y-81950443D01*
X155533011Y-81866779D01*
X155533009Y-81866778D01*
X155497271Y-81837448D01*
X155395814Y-81754186D01*
X155293905Y-81630008D01*
X155283222Y-81616991D01*
X155260103Y-81573738D01*
X155199557Y-81460467D01*
X155182384Y-81403853D01*
X155148037Y-81290627D01*
X155130641Y-81114000D01*
X155148037Y-80937373D01*
X155194693Y-80783569D01*
X155199557Y-80767533D01*
X155283221Y-80611011D01*
X155283222Y-80611009D01*
X155312552Y-80575271D01*
X155395814Y-80473814D01*
X155515295Y-80375760D01*
X155533009Y-80361222D01*
X155550913Y-80351652D01*
X155689533Y-80277557D01*
X155746147Y-80260384D01*
X155859373Y-80226037D01*
X155925557Y-80219519D01*
X155991740Y-80213000D01*
X156080260Y-80213000D01*
X156146443Y-80219519D01*
X156146443Y-80219519D01*
G37*
G36*
X153606443Y-80219519D02*
X153672627Y-80226037D01*
X153785853Y-80260384D01*
X153842467Y-80277557D01*
X153981087Y-80351652D01*
X153998991Y-80361222D01*
X154016705Y-80375760D01*
X154136186Y-80473814D01*
X154219448Y-80575271D01*
X154248778Y-80611009D01*
X154248779Y-80611011D01*
X154332443Y-80767533D01*
X154337307Y-80783569D01*
X154383963Y-80937373D01*
X154401359Y-81114000D01*
X154383963Y-81290627D01*
X154349616Y-81403853D01*
X154332443Y-81460467D01*
X154271897Y-81573738D01*
X154248778Y-81616991D01*
X154238095Y-81630008D01*
X154136186Y-81754186D01*
X154034729Y-81837448D01*
X153998991Y-81866778D01*
X153998989Y-81866779D01*
X153842467Y-81950443D01*
X153785853Y-81967616D01*
X153672627Y-82001963D01*
X153606442Y-82008482D01*
X153540260Y-82015000D01*
X153451740Y-82015000D01*
X153385558Y-82008482D01*
X153319373Y-82001963D01*
X153206147Y-81967616D01*
X153149533Y-81950443D01*
X152993011Y-81866779D01*
X152993009Y-81866778D01*
X152957271Y-81837448D01*
X152855814Y-81754186D01*
X152753905Y-81630008D01*
X152743222Y-81616991D01*
X152720103Y-81573738D01*
X152659557Y-81460467D01*
X152642384Y-81403853D01*
X152608037Y-81290627D01*
X152590641Y-81114000D01*
X152608037Y-80937373D01*
X152654693Y-80783569D01*
X152659557Y-80767533D01*
X152743221Y-80611011D01*
X152743222Y-80611009D01*
X152772552Y-80575271D01*
X152855814Y-80473814D01*
X152975295Y-80375760D01*
X152993009Y-80361222D01*
X153010913Y-80351652D01*
X153149533Y-80277557D01*
X153206147Y-80260384D01*
X153319373Y-80226037D01*
X153385557Y-80219519D01*
X153451740Y-80213000D01*
X153540260Y-80213000D01*
X153606443Y-80219519D01*
X153606443Y-80219519D01*
G37*
G36*
X151066443Y-80219519D02*
X151132627Y-80226037D01*
X151245853Y-80260384D01*
X151302467Y-80277557D01*
X151441087Y-80351652D01*
X151458991Y-80361222D01*
X151476705Y-80375760D01*
X151596186Y-80473814D01*
X151679448Y-80575271D01*
X151708778Y-80611009D01*
X151708779Y-80611011D01*
X151792443Y-80767533D01*
X151797307Y-80783569D01*
X151843963Y-80937373D01*
X151861359Y-81114000D01*
X151843963Y-81290627D01*
X151809616Y-81403853D01*
X151792443Y-81460467D01*
X151731897Y-81573738D01*
X151708778Y-81616991D01*
X151698095Y-81630008D01*
X151596186Y-81754186D01*
X151494729Y-81837448D01*
X151458991Y-81866778D01*
X151458989Y-81866779D01*
X151302467Y-81950443D01*
X151245853Y-81967616D01*
X151132627Y-82001963D01*
X151066442Y-82008482D01*
X151000260Y-82015000D01*
X150911740Y-82015000D01*
X150845558Y-82008482D01*
X150779373Y-82001963D01*
X150666147Y-81967616D01*
X150609533Y-81950443D01*
X150453011Y-81866779D01*
X150453009Y-81866778D01*
X150417271Y-81837448D01*
X150315814Y-81754186D01*
X150213905Y-81630008D01*
X150203222Y-81616991D01*
X150180103Y-81573738D01*
X150119557Y-81460467D01*
X150102384Y-81403853D01*
X150068037Y-81290627D01*
X150050641Y-81114000D01*
X150068037Y-80937373D01*
X150114693Y-80783569D01*
X150119557Y-80767533D01*
X150203221Y-80611011D01*
X150203222Y-80611009D01*
X150232552Y-80575271D01*
X150315814Y-80473814D01*
X150435295Y-80375760D01*
X150453009Y-80361222D01*
X150470913Y-80351652D01*
X150609533Y-80277557D01*
X150666147Y-80260384D01*
X150779373Y-80226037D01*
X150845557Y-80219519D01*
X150911740Y-80213000D01*
X151000260Y-80213000D01*
X151066443Y-80219519D01*
X151066443Y-80219519D01*
G37*
G36*
X143446443Y-80219519D02*
X143512627Y-80226037D01*
X143625853Y-80260384D01*
X143682467Y-80277557D01*
X143821087Y-80351652D01*
X143838991Y-80361222D01*
X143856705Y-80375760D01*
X143976186Y-80473814D01*
X144059448Y-80575271D01*
X144088778Y-80611009D01*
X144088779Y-80611011D01*
X144172443Y-80767533D01*
X144177307Y-80783569D01*
X144223963Y-80937373D01*
X144241359Y-81114000D01*
X144223963Y-81290627D01*
X144189616Y-81403853D01*
X144172443Y-81460467D01*
X144111897Y-81573738D01*
X144088778Y-81616991D01*
X144078095Y-81630008D01*
X143976186Y-81754186D01*
X143874729Y-81837448D01*
X143838991Y-81866778D01*
X143838989Y-81866779D01*
X143682467Y-81950443D01*
X143625853Y-81967616D01*
X143512627Y-82001963D01*
X143446442Y-82008482D01*
X143380260Y-82015000D01*
X143291740Y-82015000D01*
X143225558Y-82008482D01*
X143159373Y-82001963D01*
X143046147Y-81967616D01*
X142989533Y-81950443D01*
X142833011Y-81866779D01*
X142833009Y-81866778D01*
X142797271Y-81837448D01*
X142695814Y-81754186D01*
X142593905Y-81630008D01*
X142583222Y-81616991D01*
X142560103Y-81573738D01*
X142499557Y-81460467D01*
X142482384Y-81403853D01*
X142448037Y-81290627D01*
X142430641Y-81114000D01*
X142448037Y-80937373D01*
X142494693Y-80783569D01*
X142499557Y-80767533D01*
X142583221Y-80611011D01*
X142583222Y-80611009D01*
X142612552Y-80575271D01*
X142695814Y-80473814D01*
X142815295Y-80375760D01*
X142833009Y-80361222D01*
X142850913Y-80351652D01*
X142989533Y-80277557D01*
X143046147Y-80260384D01*
X143159373Y-80226037D01*
X143225557Y-80219519D01*
X143291740Y-80213000D01*
X143380260Y-80213000D01*
X143446443Y-80219519D01*
X143446443Y-80219519D01*
G37*
G36*
X140906443Y-80219519D02*
X140972627Y-80226037D01*
X141085853Y-80260384D01*
X141142467Y-80277557D01*
X141281087Y-80351652D01*
X141298991Y-80361222D01*
X141316705Y-80375760D01*
X141436186Y-80473814D01*
X141519448Y-80575271D01*
X141548778Y-80611009D01*
X141548779Y-80611011D01*
X141632443Y-80767533D01*
X141637307Y-80783569D01*
X141683963Y-80937373D01*
X141701359Y-81114000D01*
X141683963Y-81290627D01*
X141649616Y-81403853D01*
X141632443Y-81460467D01*
X141571897Y-81573738D01*
X141548778Y-81616991D01*
X141538095Y-81630008D01*
X141436186Y-81754186D01*
X141334729Y-81837448D01*
X141298991Y-81866778D01*
X141298989Y-81866779D01*
X141142467Y-81950443D01*
X141085853Y-81967616D01*
X140972627Y-82001963D01*
X140906442Y-82008482D01*
X140840260Y-82015000D01*
X140751740Y-82015000D01*
X140685558Y-82008482D01*
X140619373Y-82001963D01*
X140506147Y-81967616D01*
X140449533Y-81950443D01*
X140293011Y-81866779D01*
X140293009Y-81866778D01*
X140257271Y-81837448D01*
X140155814Y-81754186D01*
X140053905Y-81630008D01*
X140043222Y-81616991D01*
X140020103Y-81573738D01*
X139959557Y-81460467D01*
X139942384Y-81403853D01*
X139908037Y-81290627D01*
X139890641Y-81114000D01*
X139908037Y-80937373D01*
X139954693Y-80783569D01*
X139959557Y-80767533D01*
X140043221Y-80611011D01*
X140043222Y-80611009D01*
X140072552Y-80575271D01*
X140155814Y-80473814D01*
X140275295Y-80375760D01*
X140293009Y-80361222D01*
X140310913Y-80351652D01*
X140449533Y-80277557D01*
X140506147Y-80260384D01*
X140619373Y-80226037D01*
X140685557Y-80219519D01*
X140751740Y-80213000D01*
X140840260Y-80213000D01*
X140906443Y-80219519D01*
X140906443Y-80219519D01*
G37*
G36*
X138366443Y-80219519D02*
X138432627Y-80226037D01*
X138545853Y-80260384D01*
X138602467Y-80277557D01*
X138741087Y-80351652D01*
X138758991Y-80361222D01*
X138776705Y-80375760D01*
X138896186Y-80473814D01*
X138979448Y-80575271D01*
X139008778Y-80611009D01*
X139008779Y-80611011D01*
X139092443Y-80767533D01*
X139097307Y-80783569D01*
X139143963Y-80937373D01*
X139161359Y-81114000D01*
X139143963Y-81290627D01*
X139109616Y-81403853D01*
X139092443Y-81460467D01*
X139031897Y-81573738D01*
X139008778Y-81616991D01*
X138998095Y-81630008D01*
X138896186Y-81754186D01*
X138794729Y-81837448D01*
X138758991Y-81866778D01*
X138758989Y-81866779D01*
X138602467Y-81950443D01*
X138545853Y-81967616D01*
X138432627Y-82001963D01*
X138366442Y-82008482D01*
X138300260Y-82015000D01*
X138211740Y-82015000D01*
X138145558Y-82008482D01*
X138079373Y-82001963D01*
X137966147Y-81967616D01*
X137909533Y-81950443D01*
X137753011Y-81866779D01*
X137753009Y-81866778D01*
X137717271Y-81837448D01*
X137615814Y-81754186D01*
X137513905Y-81630008D01*
X137503222Y-81616991D01*
X137480103Y-81573738D01*
X137419557Y-81460467D01*
X137402384Y-81403853D01*
X137368037Y-81290627D01*
X137350641Y-81114000D01*
X137368037Y-80937373D01*
X137414693Y-80783569D01*
X137419557Y-80767533D01*
X137503221Y-80611011D01*
X137503222Y-80611009D01*
X137532552Y-80575271D01*
X137615814Y-80473814D01*
X137735295Y-80375760D01*
X137753009Y-80361222D01*
X137770913Y-80351652D01*
X137909533Y-80277557D01*
X137966147Y-80260384D01*
X138079373Y-80226037D01*
X138145557Y-80219519D01*
X138211740Y-80213000D01*
X138300260Y-80213000D01*
X138366443Y-80219519D01*
X138366443Y-80219519D01*
G37*
G36*
X135826443Y-80219519D02*
X135892627Y-80226037D01*
X136005853Y-80260384D01*
X136062467Y-80277557D01*
X136201087Y-80351652D01*
X136218991Y-80361222D01*
X136236705Y-80375760D01*
X136356186Y-80473814D01*
X136439448Y-80575271D01*
X136468778Y-80611009D01*
X136468779Y-80611011D01*
X136552443Y-80767533D01*
X136557307Y-80783569D01*
X136603963Y-80937373D01*
X136621359Y-81114000D01*
X136603963Y-81290627D01*
X136569616Y-81403853D01*
X136552443Y-81460467D01*
X136491897Y-81573738D01*
X136468778Y-81616991D01*
X136458095Y-81630008D01*
X136356186Y-81754186D01*
X136254729Y-81837448D01*
X136218991Y-81866778D01*
X136218989Y-81866779D01*
X136062467Y-81950443D01*
X136005853Y-81967616D01*
X135892627Y-82001963D01*
X135826442Y-82008482D01*
X135760260Y-82015000D01*
X135671740Y-82015000D01*
X135605558Y-82008482D01*
X135539373Y-82001963D01*
X135426147Y-81967616D01*
X135369533Y-81950443D01*
X135213011Y-81866779D01*
X135213009Y-81866778D01*
X135177271Y-81837448D01*
X135075814Y-81754186D01*
X134973905Y-81630008D01*
X134963222Y-81616991D01*
X134940103Y-81573738D01*
X134879557Y-81460467D01*
X134862384Y-81403853D01*
X134828037Y-81290627D01*
X134810641Y-81114000D01*
X134828037Y-80937373D01*
X134874693Y-80783569D01*
X134879557Y-80767533D01*
X134963221Y-80611011D01*
X134963222Y-80611009D01*
X134992552Y-80575271D01*
X135075814Y-80473814D01*
X135195295Y-80375760D01*
X135213009Y-80361222D01*
X135230913Y-80351652D01*
X135369533Y-80277557D01*
X135426147Y-80260384D01*
X135539373Y-80226037D01*
X135605557Y-80219519D01*
X135671740Y-80213000D01*
X135760260Y-80213000D01*
X135826443Y-80219519D01*
X135826443Y-80219519D01*
G37*
G36*
X133286443Y-80219519D02*
X133352627Y-80226037D01*
X133465853Y-80260384D01*
X133522467Y-80277557D01*
X133661087Y-80351652D01*
X133678991Y-80361222D01*
X133696705Y-80375760D01*
X133816186Y-80473814D01*
X133899448Y-80575271D01*
X133928778Y-80611009D01*
X133928779Y-80611011D01*
X134012443Y-80767533D01*
X134017307Y-80783569D01*
X134063963Y-80937373D01*
X134081359Y-81114000D01*
X134063963Y-81290627D01*
X134029616Y-81403853D01*
X134012443Y-81460467D01*
X133951897Y-81573738D01*
X133928778Y-81616991D01*
X133918095Y-81630008D01*
X133816186Y-81754186D01*
X133714729Y-81837448D01*
X133678991Y-81866778D01*
X133678989Y-81866779D01*
X133522467Y-81950443D01*
X133465853Y-81967616D01*
X133352627Y-82001963D01*
X133286442Y-82008482D01*
X133220260Y-82015000D01*
X133131740Y-82015000D01*
X133065558Y-82008482D01*
X132999373Y-82001963D01*
X132886147Y-81967616D01*
X132829533Y-81950443D01*
X132673011Y-81866779D01*
X132673009Y-81866778D01*
X132637271Y-81837448D01*
X132535814Y-81754186D01*
X132433905Y-81630008D01*
X132423222Y-81616991D01*
X132400103Y-81573738D01*
X132339557Y-81460467D01*
X132322384Y-81403853D01*
X132288037Y-81290627D01*
X132270641Y-81114000D01*
X132288037Y-80937373D01*
X132334693Y-80783569D01*
X132339557Y-80767533D01*
X132423221Y-80611011D01*
X132423222Y-80611009D01*
X132452552Y-80575271D01*
X132535814Y-80473814D01*
X132655295Y-80375760D01*
X132673009Y-80361222D01*
X132690913Y-80351652D01*
X132829533Y-80277557D01*
X132886147Y-80260384D01*
X132999373Y-80226037D01*
X133065557Y-80219519D01*
X133131740Y-80213000D01*
X133220260Y-80213000D01*
X133286443Y-80219519D01*
X133286443Y-80219519D01*
G37*
G36*
X130746443Y-80219519D02*
X130812627Y-80226037D01*
X130925853Y-80260384D01*
X130982467Y-80277557D01*
X131121087Y-80351652D01*
X131138991Y-80361222D01*
X131156705Y-80375760D01*
X131276186Y-80473814D01*
X131359448Y-80575271D01*
X131388778Y-80611009D01*
X131388779Y-80611011D01*
X131472443Y-80767533D01*
X131477307Y-80783569D01*
X131523963Y-80937373D01*
X131541359Y-81114000D01*
X131523963Y-81290627D01*
X131489616Y-81403853D01*
X131472443Y-81460467D01*
X131411897Y-81573738D01*
X131388778Y-81616991D01*
X131378095Y-81630008D01*
X131276186Y-81754186D01*
X131174729Y-81837448D01*
X131138991Y-81866778D01*
X131138989Y-81866779D01*
X130982467Y-81950443D01*
X130925853Y-81967616D01*
X130812627Y-82001963D01*
X130746442Y-82008482D01*
X130680260Y-82015000D01*
X130591740Y-82015000D01*
X130525558Y-82008482D01*
X130459373Y-82001963D01*
X130346147Y-81967616D01*
X130289533Y-81950443D01*
X130133011Y-81866779D01*
X130133009Y-81866778D01*
X130097271Y-81837448D01*
X129995814Y-81754186D01*
X129893905Y-81630008D01*
X129883222Y-81616991D01*
X129860103Y-81573738D01*
X129799557Y-81460467D01*
X129782384Y-81403853D01*
X129748037Y-81290627D01*
X129730641Y-81114000D01*
X129748037Y-80937373D01*
X129794693Y-80783569D01*
X129799557Y-80767533D01*
X129883221Y-80611011D01*
X129883222Y-80611009D01*
X129912552Y-80575271D01*
X129995814Y-80473814D01*
X130115295Y-80375760D01*
X130133009Y-80361222D01*
X130150913Y-80351652D01*
X130289533Y-80277557D01*
X130346147Y-80260384D01*
X130459373Y-80226037D01*
X130525557Y-80219519D01*
X130591740Y-80213000D01*
X130680260Y-80213000D01*
X130746443Y-80219519D01*
X130746443Y-80219519D01*
G37*
G36*
X128206443Y-80219519D02*
X128272627Y-80226037D01*
X128385853Y-80260384D01*
X128442467Y-80277557D01*
X128581087Y-80351652D01*
X128598991Y-80361222D01*
X128616705Y-80375760D01*
X128736186Y-80473814D01*
X128819448Y-80575271D01*
X128848778Y-80611009D01*
X128848779Y-80611011D01*
X128932443Y-80767533D01*
X128937307Y-80783569D01*
X128983963Y-80937373D01*
X129001359Y-81114000D01*
X128983963Y-81290627D01*
X128949616Y-81403853D01*
X128932443Y-81460467D01*
X128871897Y-81573738D01*
X128848778Y-81616991D01*
X128838095Y-81630008D01*
X128736186Y-81754186D01*
X128634729Y-81837448D01*
X128598991Y-81866778D01*
X128598989Y-81866779D01*
X128442467Y-81950443D01*
X128385853Y-81967616D01*
X128272627Y-82001963D01*
X128206442Y-82008482D01*
X128140260Y-82015000D01*
X128051740Y-82015000D01*
X127985558Y-82008482D01*
X127919373Y-82001963D01*
X127806147Y-81967616D01*
X127749533Y-81950443D01*
X127593011Y-81866779D01*
X127593009Y-81866778D01*
X127557271Y-81837448D01*
X127455814Y-81754186D01*
X127353905Y-81630008D01*
X127343222Y-81616991D01*
X127320103Y-81573738D01*
X127259557Y-81460467D01*
X127242384Y-81403853D01*
X127208037Y-81290627D01*
X127190641Y-81114000D01*
X127208037Y-80937373D01*
X127254693Y-80783569D01*
X127259557Y-80767533D01*
X127343221Y-80611011D01*
X127343222Y-80611009D01*
X127372552Y-80575271D01*
X127455814Y-80473814D01*
X127575295Y-80375760D01*
X127593009Y-80361222D01*
X127610913Y-80351652D01*
X127749533Y-80277557D01*
X127806147Y-80260384D01*
X127919373Y-80226037D01*
X127985557Y-80219519D01*
X128051740Y-80213000D01*
X128140260Y-80213000D01*
X128206443Y-80219519D01*
X128206443Y-80219519D01*
G37*
G36*
X125666443Y-80219519D02*
X125732627Y-80226037D01*
X125845853Y-80260384D01*
X125902467Y-80277557D01*
X126041087Y-80351652D01*
X126058991Y-80361222D01*
X126076705Y-80375760D01*
X126196186Y-80473814D01*
X126279448Y-80575271D01*
X126308778Y-80611009D01*
X126308779Y-80611011D01*
X126392443Y-80767533D01*
X126397307Y-80783569D01*
X126443963Y-80937373D01*
X126461359Y-81114000D01*
X126443963Y-81290627D01*
X126409616Y-81403853D01*
X126392443Y-81460467D01*
X126331897Y-81573738D01*
X126308778Y-81616991D01*
X126298095Y-81630008D01*
X126196186Y-81754186D01*
X126094729Y-81837448D01*
X126058991Y-81866778D01*
X126058989Y-81866779D01*
X125902467Y-81950443D01*
X125845853Y-81967616D01*
X125732627Y-82001963D01*
X125666442Y-82008482D01*
X125600260Y-82015000D01*
X125511740Y-82015000D01*
X125445558Y-82008482D01*
X125379373Y-82001963D01*
X125266147Y-81967616D01*
X125209533Y-81950443D01*
X125053011Y-81866779D01*
X125053009Y-81866778D01*
X125017271Y-81837448D01*
X124915814Y-81754186D01*
X124813905Y-81630008D01*
X124803222Y-81616991D01*
X124780103Y-81573738D01*
X124719557Y-81460467D01*
X124702384Y-81403853D01*
X124668037Y-81290627D01*
X124650641Y-81114000D01*
X124668037Y-80937373D01*
X124714693Y-80783569D01*
X124719557Y-80767533D01*
X124803221Y-80611011D01*
X124803222Y-80611009D01*
X124832552Y-80575271D01*
X124915814Y-80473814D01*
X125035295Y-80375760D01*
X125053009Y-80361222D01*
X125070913Y-80351652D01*
X125209533Y-80277557D01*
X125266147Y-80260384D01*
X125379373Y-80226037D01*
X125445557Y-80219519D01*
X125511740Y-80213000D01*
X125600260Y-80213000D01*
X125666443Y-80219519D01*
X125666443Y-80219519D01*
G37*
G36*
X109148138Y-80923516D02*
X109168756Y-80929770D01*
X109187756Y-80939926D01*
X109204408Y-80953592D01*
X109218074Y-80970244D01*
X109228230Y-80989244D01*
X109234484Y-81009862D01*
X109237200Y-81037440D01*
X109237200Y-81546160D01*
X109234484Y-81573738D01*
X109228230Y-81594356D01*
X109218074Y-81613356D01*
X109204408Y-81630008D01*
X109187756Y-81643674D01*
X109168756Y-81653830D01*
X109148138Y-81660084D01*
X109120560Y-81662800D01*
X108661840Y-81662800D01*
X108634262Y-81660084D01*
X108613644Y-81653830D01*
X108594644Y-81643674D01*
X108577992Y-81630008D01*
X108564326Y-81613356D01*
X108554170Y-81594356D01*
X108547916Y-81573738D01*
X108545200Y-81546160D01*
X108545200Y-81037440D01*
X108547916Y-81009862D01*
X108554170Y-80989244D01*
X108564326Y-80970244D01*
X108577992Y-80953592D01*
X108594644Y-80939926D01*
X108613644Y-80929770D01*
X108634262Y-80923516D01*
X108661840Y-80920800D01*
X109120560Y-80920800D01*
X109148138Y-80923516D01*
X109148138Y-80923516D01*
G37*
G36*
X110118138Y-80923516D02*
X110138756Y-80929770D01*
X110157756Y-80939926D01*
X110174408Y-80953592D01*
X110188074Y-80970244D01*
X110198230Y-80989244D01*
X110204484Y-81009862D01*
X110207200Y-81037440D01*
X110207200Y-81546160D01*
X110204484Y-81573738D01*
X110198230Y-81594356D01*
X110188074Y-81613356D01*
X110174408Y-81630008D01*
X110157756Y-81643674D01*
X110138756Y-81653830D01*
X110118138Y-81660084D01*
X110090560Y-81662800D01*
X109631840Y-81662800D01*
X109604262Y-81660084D01*
X109583644Y-81653830D01*
X109564644Y-81643674D01*
X109547992Y-81630008D01*
X109534326Y-81613356D01*
X109524170Y-81594356D01*
X109517916Y-81573738D01*
X109515200Y-81546160D01*
X109515200Y-81037440D01*
X109517916Y-81009862D01*
X109524170Y-80989244D01*
X109534326Y-80970244D01*
X109547992Y-80953592D01*
X109564644Y-80939926D01*
X109583644Y-80929770D01*
X109604262Y-80923516D01*
X109631840Y-80920800D01*
X110090560Y-80920800D01*
X110118138Y-80923516D01*
X110118138Y-80923516D01*
G37*
G36*
X105683800Y-81639800D02*
X104381800Y-81639800D01*
X104381800Y-81037800D01*
X105683800Y-81037800D01*
X105683800Y-81639800D01*
X105683800Y-81639800D01*
G37*
G36*
X107930938Y-80773116D02*
X107951556Y-80779370D01*
X107970556Y-80789526D01*
X107987208Y-80803192D01*
X108000874Y-80819844D01*
X108011030Y-80838844D01*
X108017284Y-80859462D01*
X108020000Y-80887040D01*
X108020000Y-81345760D01*
X108017284Y-81373338D01*
X108011030Y-81393956D01*
X108000874Y-81412956D01*
X107987208Y-81429608D01*
X107970556Y-81443274D01*
X107951556Y-81453430D01*
X107930938Y-81459684D01*
X107903360Y-81462400D01*
X107394640Y-81462400D01*
X107367062Y-81459684D01*
X107346444Y-81453430D01*
X107327444Y-81443274D01*
X107310792Y-81429608D01*
X107297126Y-81412956D01*
X107286970Y-81393956D01*
X107280716Y-81373338D01*
X107278000Y-81345760D01*
X107278000Y-80887040D01*
X107280716Y-80859462D01*
X107286970Y-80838844D01*
X107297126Y-80819844D01*
X107310792Y-80803192D01*
X107327444Y-80789526D01*
X107346444Y-80779370D01*
X107367062Y-80773116D01*
X107394640Y-80770400D01*
X107903360Y-80770400D01*
X107930938Y-80773116D01*
X107930938Y-80773116D01*
G37*
G36*
X179427400Y-80521200D02*
X174725400Y-80521200D01*
X174725400Y-79319200D01*
X179427400Y-79319200D01*
X179427400Y-80521200D01*
X179427400Y-80521200D01*
G37*
G36*
X107930938Y-79803116D02*
X107951556Y-79809370D01*
X107970556Y-79819526D01*
X107987208Y-79833192D01*
X108000874Y-79849844D01*
X108011030Y-79868844D01*
X108017284Y-79889462D01*
X108020000Y-79917040D01*
X108020000Y-80375760D01*
X108017284Y-80403338D01*
X108011030Y-80423956D01*
X108000874Y-80442956D01*
X107987208Y-80459608D01*
X107970556Y-80473274D01*
X107951556Y-80483430D01*
X107930938Y-80489684D01*
X107903360Y-80492400D01*
X107394640Y-80492400D01*
X107367062Y-80489684D01*
X107346444Y-80483430D01*
X107327444Y-80473274D01*
X107310792Y-80459608D01*
X107297126Y-80442956D01*
X107286970Y-80423956D01*
X107280716Y-80403338D01*
X107278000Y-80375760D01*
X107278000Y-79917040D01*
X107280716Y-79889462D01*
X107286970Y-79868844D01*
X107297126Y-79849844D01*
X107310792Y-79833192D01*
X107327444Y-79819526D01*
X107346444Y-79809370D01*
X107367062Y-79803116D01*
X107394640Y-79800400D01*
X107903360Y-79800400D01*
X107930938Y-79803116D01*
X107930938Y-79803116D01*
G37*
G36*
X138366443Y-77679519D02*
X138432627Y-77686037D01*
X138545853Y-77720384D01*
X138602467Y-77737557D01*
X138741087Y-77811652D01*
X138758991Y-77821222D01*
X138794729Y-77850552D01*
X138896186Y-77933814D01*
X138979448Y-78035271D01*
X139008778Y-78071009D01*
X139008779Y-78071011D01*
X139092443Y-78227533D01*
X139092443Y-78227534D01*
X139143963Y-78397373D01*
X139161359Y-78574000D01*
X139143963Y-78750627D01*
X139109616Y-78863853D01*
X139092443Y-78920467D01*
X139018348Y-79059087D01*
X139008778Y-79076991D01*
X138979448Y-79112729D01*
X138896186Y-79214186D01*
X138794729Y-79297448D01*
X138758991Y-79326778D01*
X138758989Y-79326779D01*
X138602467Y-79410443D01*
X138545853Y-79427616D01*
X138432627Y-79461963D01*
X138366443Y-79468481D01*
X138300260Y-79475000D01*
X138211740Y-79475000D01*
X138145557Y-79468481D01*
X138079373Y-79461963D01*
X137966147Y-79427616D01*
X137909533Y-79410443D01*
X137753011Y-79326779D01*
X137753009Y-79326778D01*
X137717271Y-79297448D01*
X137615814Y-79214186D01*
X137532552Y-79112729D01*
X137503222Y-79076991D01*
X137493652Y-79059087D01*
X137419557Y-78920467D01*
X137402384Y-78863853D01*
X137368037Y-78750627D01*
X137350641Y-78574000D01*
X137368037Y-78397373D01*
X137419557Y-78227534D01*
X137419557Y-78227533D01*
X137503221Y-78071011D01*
X137503222Y-78071009D01*
X137532552Y-78035271D01*
X137615814Y-77933814D01*
X137717271Y-77850552D01*
X137753009Y-77821222D01*
X137770913Y-77811652D01*
X137909533Y-77737557D01*
X137966147Y-77720384D01*
X138079373Y-77686037D01*
X138145557Y-77679519D01*
X138211740Y-77673000D01*
X138300260Y-77673000D01*
X138366443Y-77679519D01*
X138366443Y-77679519D01*
G37*
G36*
X140906443Y-77679519D02*
X140972627Y-77686037D01*
X141085853Y-77720384D01*
X141142467Y-77737557D01*
X141281087Y-77811652D01*
X141298991Y-77821222D01*
X141334729Y-77850552D01*
X141436186Y-77933814D01*
X141519448Y-78035271D01*
X141548778Y-78071009D01*
X141548779Y-78071011D01*
X141632443Y-78227533D01*
X141632443Y-78227534D01*
X141683963Y-78397373D01*
X141701359Y-78574000D01*
X141683963Y-78750627D01*
X141649616Y-78863853D01*
X141632443Y-78920467D01*
X141558348Y-79059087D01*
X141548778Y-79076991D01*
X141519448Y-79112729D01*
X141436186Y-79214186D01*
X141334729Y-79297448D01*
X141298991Y-79326778D01*
X141298989Y-79326779D01*
X141142467Y-79410443D01*
X141085853Y-79427616D01*
X140972627Y-79461963D01*
X140906443Y-79468481D01*
X140840260Y-79475000D01*
X140751740Y-79475000D01*
X140685557Y-79468481D01*
X140619373Y-79461963D01*
X140506147Y-79427616D01*
X140449533Y-79410443D01*
X140293011Y-79326779D01*
X140293009Y-79326778D01*
X140257271Y-79297448D01*
X140155814Y-79214186D01*
X140072552Y-79112729D01*
X140043222Y-79076991D01*
X140033652Y-79059087D01*
X139959557Y-78920467D01*
X139942384Y-78863853D01*
X139908037Y-78750627D01*
X139890641Y-78574000D01*
X139908037Y-78397373D01*
X139959557Y-78227534D01*
X139959557Y-78227533D01*
X140043221Y-78071011D01*
X140043222Y-78071009D01*
X140072552Y-78035271D01*
X140155814Y-77933814D01*
X140257271Y-77850552D01*
X140293009Y-77821222D01*
X140310913Y-77811652D01*
X140449533Y-77737557D01*
X140506147Y-77720384D01*
X140619373Y-77686037D01*
X140685557Y-77679519D01*
X140751740Y-77673000D01*
X140840260Y-77673000D01*
X140906443Y-77679519D01*
X140906443Y-77679519D01*
G37*
G36*
X143446443Y-77679519D02*
X143512627Y-77686037D01*
X143625853Y-77720384D01*
X143682467Y-77737557D01*
X143821087Y-77811652D01*
X143838991Y-77821222D01*
X143874729Y-77850552D01*
X143976186Y-77933814D01*
X144059448Y-78035271D01*
X144088778Y-78071009D01*
X144088779Y-78071011D01*
X144172443Y-78227533D01*
X144172443Y-78227534D01*
X144223963Y-78397373D01*
X144241359Y-78574000D01*
X144223963Y-78750627D01*
X144189616Y-78863853D01*
X144172443Y-78920467D01*
X144098348Y-79059087D01*
X144088778Y-79076991D01*
X144059448Y-79112729D01*
X143976186Y-79214186D01*
X143874729Y-79297448D01*
X143838991Y-79326778D01*
X143838989Y-79326779D01*
X143682467Y-79410443D01*
X143625853Y-79427616D01*
X143512627Y-79461963D01*
X143446443Y-79468481D01*
X143380260Y-79475000D01*
X143291740Y-79475000D01*
X143225557Y-79468481D01*
X143159373Y-79461963D01*
X143046147Y-79427616D01*
X142989533Y-79410443D01*
X142833011Y-79326779D01*
X142833009Y-79326778D01*
X142797271Y-79297448D01*
X142695814Y-79214186D01*
X142612552Y-79112729D01*
X142583222Y-79076991D01*
X142573652Y-79059087D01*
X142499557Y-78920467D01*
X142482384Y-78863853D01*
X142448037Y-78750627D01*
X142430641Y-78574000D01*
X142448037Y-78397373D01*
X142499557Y-78227534D01*
X142499557Y-78227533D01*
X142583221Y-78071011D01*
X142583222Y-78071009D01*
X142612552Y-78035271D01*
X142695814Y-77933814D01*
X142797271Y-77850552D01*
X142833009Y-77821222D01*
X142850913Y-77811652D01*
X142989533Y-77737557D01*
X143046147Y-77720384D01*
X143159373Y-77686037D01*
X143225557Y-77679519D01*
X143291740Y-77673000D01*
X143380260Y-77673000D01*
X143446443Y-77679519D01*
X143446443Y-77679519D01*
G37*
G36*
X145986443Y-77679519D02*
X146052627Y-77686037D01*
X146165853Y-77720384D01*
X146222467Y-77737557D01*
X146361087Y-77811652D01*
X146378991Y-77821222D01*
X146414729Y-77850552D01*
X146516186Y-77933814D01*
X146599448Y-78035271D01*
X146628778Y-78071009D01*
X146628779Y-78071011D01*
X146712443Y-78227533D01*
X146712443Y-78227534D01*
X146763963Y-78397373D01*
X146781359Y-78574000D01*
X146763963Y-78750627D01*
X146729616Y-78863853D01*
X146712443Y-78920467D01*
X146638348Y-79059087D01*
X146628778Y-79076991D01*
X146599448Y-79112729D01*
X146516186Y-79214186D01*
X146414729Y-79297448D01*
X146378991Y-79326778D01*
X146378989Y-79326779D01*
X146222467Y-79410443D01*
X146165853Y-79427616D01*
X146052627Y-79461963D01*
X145986443Y-79468481D01*
X145920260Y-79475000D01*
X145831740Y-79475000D01*
X145765557Y-79468481D01*
X145699373Y-79461963D01*
X145586147Y-79427616D01*
X145529533Y-79410443D01*
X145373011Y-79326779D01*
X145373009Y-79326778D01*
X145337271Y-79297448D01*
X145235814Y-79214186D01*
X145152552Y-79112729D01*
X145123222Y-79076991D01*
X145113652Y-79059087D01*
X145039557Y-78920467D01*
X145022384Y-78863853D01*
X144988037Y-78750627D01*
X144970641Y-78574000D01*
X144988037Y-78397373D01*
X145039557Y-78227534D01*
X145039557Y-78227533D01*
X145123221Y-78071011D01*
X145123222Y-78071009D01*
X145152552Y-78035271D01*
X145235814Y-77933814D01*
X145337271Y-77850552D01*
X145373009Y-77821222D01*
X145390913Y-77811652D01*
X145529533Y-77737557D01*
X145586147Y-77720384D01*
X145699373Y-77686037D01*
X145765557Y-77679519D01*
X145831740Y-77673000D01*
X145920260Y-77673000D01*
X145986443Y-77679519D01*
X145986443Y-77679519D01*
G37*
G36*
X148526443Y-77679519D02*
X148592627Y-77686037D01*
X148705853Y-77720384D01*
X148762467Y-77737557D01*
X148901087Y-77811652D01*
X148918991Y-77821222D01*
X148954729Y-77850552D01*
X149056186Y-77933814D01*
X149139448Y-78035271D01*
X149168778Y-78071009D01*
X149168779Y-78071011D01*
X149252443Y-78227533D01*
X149252443Y-78227534D01*
X149303963Y-78397373D01*
X149321359Y-78574000D01*
X149303963Y-78750627D01*
X149269616Y-78863853D01*
X149252443Y-78920467D01*
X149178348Y-79059087D01*
X149168778Y-79076991D01*
X149139448Y-79112729D01*
X149056186Y-79214186D01*
X148954729Y-79297448D01*
X148918991Y-79326778D01*
X148918989Y-79326779D01*
X148762467Y-79410443D01*
X148705853Y-79427616D01*
X148592627Y-79461963D01*
X148526443Y-79468481D01*
X148460260Y-79475000D01*
X148371740Y-79475000D01*
X148305557Y-79468481D01*
X148239373Y-79461963D01*
X148126147Y-79427616D01*
X148069533Y-79410443D01*
X147913011Y-79326779D01*
X147913009Y-79326778D01*
X147877271Y-79297448D01*
X147775814Y-79214186D01*
X147692552Y-79112729D01*
X147663222Y-79076991D01*
X147653652Y-79059087D01*
X147579557Y-78920467D01*
X147562384Y-78863853D01*
X147528037Y-78750627D01*
X147510641Y-78574000D01*
X147528037Y-78397373D01*
X147579557Y-78227534D01*
X147579557Y-78227533D01*
X147663221Y-78071011D01*
X147663222Y-78071009D01*
X147692552Y-78035271D01*
X147775814Y-77933814D01*
X147877271Y-77850552D01*
X147913009Y-77821222D01*
X147930913Y-77811652D01*
X148069533Y-77737557D01*
X148126147Y-77720384D01*
X148239373Y-77686037D01*
X148305557Y-77679519D01*
X148371740Y-77673000D01*
X148460260Y-77673000D01*
X148526443Y-77679519D01*
X148526443Y-77679519D01*
G37*
G36*
X151066443Y-77679519D02*
X151132627Y-77686037D01*
X151245853Y-77720384D01*
X151302467Y-77737557D01*
X151441087Y-77811652D01*
X151458991Y-77821222D01*
X151494729Y-77850552D01*
X151596186Y-77933814D01*
X151679448Y-78035271D01*
X151708778Y-78071009D01*
X151708779Y-78071011D01*
X151792443Y-78227533D01*
X151792443Y-78227534D01*
X151843963Y-78397373D01*
X151861359Y-78574000D01*
X151843963Y-78750627D01*
X151809616Y-78863853D01*
X151792443Y-78920467D01*
X151718348Y-79059087D01*
X151708778Y-79076991D01*
X151679448Y-79112729D01*
X151596186Y-79214186D01*
X151494729Y-79297448D01*
X151458991Y-79326778D01*
X151458989Y-79326779D01*
X151302467Y-79410443D01*
X151245853Y-79427616D01*
X151132627Y-79461963D01*
X151066443Y-79468481D01*
X151000260Y-79475000D01*
X150911740Y-79475000D01*
X150845557Y-79468481D01*
X150779373Y-79461963D01*
X150666147Y-79427616D01*
X150609533Y-79410443D01*
X150453011Y-79326779D01*
X150453009Y-79326778D01*
X150417271Y-79297448D01*
X150315814Y-79214186D01*
X150232552Y-79112729D01*
X150203222Y-79076991D01*
X150193652Y-79059087D01*
X150119557Y-78920467D01*
X150102384Y-78863853D01*
X150068037Y-78750627D01*
X150050641Y-78574000D01*
X150068037Y-78397373D01*
X150119557Y-78227534D01*
X150119557Y-78227533D01*
X150203221Y-78071011D01*
X150203222Y-78071009D01*
X150232552Y-78035271D01*
X150315814Y-77933814D01*
X150417271Y-77850552D01*
X150453009Y-77821222D01*
X150470913Y-77811652D01*
X150609533Y-77737557D01*
X150666147Y-77720384D01*
X150779373Y-77686037D01*
X150845557Y-77679519D01*
X150911740Y-77673000D01*
X151000260Y-77673000D01*
X151066443Y-77679519D01*
X151066443Y-77679519D01*
G37*
G36*
X153606443Y-77679519D02*
X153672627Y-77686037D01*
X153785853Y-77720384D01*
X153842467Y-77737557D01*
X153981087Y-77811652D01*
X153998991Y-77821222D01*
X154034729Y-77850552D01*
X154136186Y-77933814D01*
X154219448Y-78035271D01*
X154248778Y-78071009D01*
X154248779Y-78071011D01*
X154332443Y-78227533D01*
X154332443Y-78227534D01*
X154383963Y-78397373D01*
X154401359Y-78574000D01*
X154383963Y-78750627D01*
X154349616Y-78863853D01*
X154332443Y-78920467D01*
X154258348Y-79059087D01*
X154248778Y-79076991D01*
X154219448Y-79112729D01*
X154136186Y-79214186D01*
X154034729Y-79297448D01*
X153998991Y-79326778D01*
X153998989Y-79326779D01*
X153842467Y-79410443D01*
X153785853Y-79427616D01*
X153672627Y-79461963D01*
X153606443Y-79468481D01*
X153540260Y-79475000D01*
X153451740Y-79475000D01*
X153385557Y-79468481D01*
X153319373Y-79461963D01*
X153206147Y-79427616D01*
X153149533Y-79410443D01*
X152993011Y-79326779D01*
X152993009Y-79326778D01*
X152957271Y-79297448D01*
X152855814Y-79214186D01*
X152772552Y-79112729D01*
X152743222Y-79076991D01*
X152733652Y-79059087D01*
X152659557Y-78920467D01*
X152642384Y-78863853D01*
X152608037Y-78750627D01*
X152590641Y-78574000D01*
X152608037Y-78397373D01*
X152659557Y-78227534D01*
X152659557Y-78227533D01*
X152743221Y-78071011D01*
X152743222Y-78071009D01*
X152772552Y-78035271D01*
X152855814Y-77933814D01*
X152957271Y-77850552D01*
X152993009Y-77821222D01*
X153010913Y-77811652D01*
X153149533Y-77737557D01*
X153206147Y-77720384D01*
X153319373Y-77686037D01*
X153385557Y-77679519D01*
X153451740Y-77673000D01*
X153540260Y-77673000D01*
X153606443Y-77679519D01*
X153606443Y-77679519D01*
G37*
G36*
X156146443Y-77679519D02*
X156212627Y-77686037D01*
X156325853Y-77720384D01*
X156382467Y-77737557D01*
X156521087Y-77811652D01*
X156538991Y-77821222D01*
X156574729Y-77850552D01*
X156676186Y-77933814D01*
X156759448Y-78035271D01*
X156788778Y-78071009D01*
X156788779Y-78071011D01*
X156872443Y-78227533D01*
X156872443Y-78227534D01*
X156923963Y-78397373D01*
X156941359Y-78574000D01*
X156923963Y-78750627D01*
X156889616Y-78863853D01*
X156872443Y-78920467D01*
X156798348Y-79059087D01*
X156788778Y-79076991D01*
X156759448Y-79112729D01*
X156676186Y-79214186D01*
X156574729Y-79297448D01*
X156538991Y-79326778D01*
X156538989Y-79326779D01*
X156382467Y-79410443D01*
X156325853Y-79427616D01*
X156212627Y-79461963D01*
X156146443Y-79468481D01*
X156080260Y-79475000D01*
X155991740Y-79475000D01*
X155925557Y-79468481D01*
X155859373Y-79461963D01*
X155746147Y-79427616D01*
X155689533Y-79410443D01*
X155533011Y-79326779D01*
X155533009Y-79326778D01*
X155497271Y-79297448D01*
X155395814Y-79214186D01*
X155312552Y-79112729D01*
X155283222Y-79076991D01*
X155273652Y-79059087D01*
X155199557Y-78920467D01*
X155182384Y-78863853D01*
X155148037Y-78750627D01*
X155130641Y-78574000D01*
X155148037Y-78397373D01*
X155199557Y-78227534D01*
X155199557Y-78227533D01*
X155283221Y-78071011D01*
X155283222Y-78071009D01*
X155312552Y-78035271D01*
X155395814Y-77933814D01*
X155497271Y-77850552D01*
X155533009Y-77821222D01*
X155550913Y-77811652D01*
X155689533Y-77737557D01*
X155746147Y-77720384D01*
X155859373Y-77686037D01*
X155925557Y-77679519D01*
X155991740Y-77673000D01*
X156080260Y-77673000D01*
X156146443Y-77679519D01*
X156146443Y-77679519D01*
G37*
G36*
X158686443Y-77679519D02*
X158752627Y-77686037D01*
X158865853Y-77720384D01*
X158922467Y-77737557D01*
X159061087Y-77811652D01*
X159078991Y-77821222D01*
X159114729Y-77850552D01*
X159216186Y-77933814D01*
X159299448Y-78035271D01*
X159328778Y-78071009D01*
X159328779Y-78071011D01*
X159412443Y-78227533D01*
X159412443Y-78227534D01*
X159463963Y-78397373D01*
X159481359Y-78574000D01*
X159463963Y-78750627D01*
X159429616Y-78863853D01*
X159412443Y-78920467D01*
X159338348Y-79059087D01*
X159328778Y-79076991D01*
X159299448Y-79112729D01*
X159216186Y-79214186D01*
X159114729Y-79297448D01*
X159078991Y-79326778D01*
X159078989Y-79326779D01*
X158922467Y-79410443D01*
X158865853Y-79427616D01*
X158752627Y-79461963D01*
X158686443Y-79468481D01*
X158620260Y-79475000D01*
X158531740Y-79475000D01*
X158465557Y-79468481D01*
X158399373Y-79461963D01*
X158286147Y-79427616D01*
X158229533Y-79410443D01*
X158073011Y-79326779D01*
X158073009Y-79326778D01*
X158037271Y-79297448D01*
X157935814Y-79214186D01*
X157852552Y-79112729D01*
X157823222Y-79076991D01*
X157813652Y-79059087D01*
X157739557Y-78920467D01*
X157722384Y-78863853D01*
X157688037Y-78750627D01*
X157670641Y-78574000D01*
X157688037Y-78397373D01*
X157739557Y-78227534D01*
X157739557Y-78227533D01*
X157823221Y-78071011D01*
X157823222Y-78071009D01*
X157852552Y-78035271D01*
X157935814Y-77933814D01*
X158037271Y-77850552D01*
X158073009Y-77821222D01*
X158090913Y-77811652D01*
X158229533Y-77737557D01*
X158286147Y-77720384D01*
X158399373Y-77686037D01*
X158465557Y-77679519D01*
X158531740Y-77673000D01*
X158620260Y-77673000D01*
X158686443Y-77679519D01*
X158686443Y-77679519D01*
G37*
G36*
X161226443Y-77679519D02*
X161292627Y-77686037D01*
X161405853Y-77720384D01*
X161462467Y-77737557D01*
X161601087Y-77811652D01*
X161618991Y-77821222D01*
X161654729Y-77850552D01*
X161756186Y-77933814D01*
X161839448Y-78035271D01*
X161868778Y-78071009D01*
X161868779Y-78071011D01*
X161952443Y-78227533D01*
X161952443Y-78227534D01*
X162003963Y-78397373D01*
X162021359Y-78574000D01*
X162003963Y-78750627D01*
X161969616Y-78863853D01*
X161952443Y-78920467D01*
X161878348Y-79059087D01*
X161868778Y-79076991D01*
X161839448Y-79112729D01*
X161756186Y-79214186D01*
X161654729Y-79297448D01*
X161618991Y-79326778D01*
X161618989Y-79326779D01*
X161462467Y-79410443D01*
X161405853Y-79427616D01*
X161292627Y-79461963D01*
X161226443Y-79468481D01*
X161160260Y-79475000D01*
X161071740Y-79475000D01*
X161005557Y-79468481D01*
X160939373Y-79461963D01*
X160826147Y-79427616D01*
X160769533Y-79410443D01*
X160613011Y-79326779D01*
X160613009Y-79326778D01*
X160577271Y-79297448D01*
X160475814Y-79214186D01*
X160392552Y-79112729D01*
X160363222Y-79076991D01*
X160353652Y-79059087D01*
X160279557Y-78920467D01*
X160262384Y-78863853D01*
X160228037Y-78750627D01*
X160210641Y-78574000D01*
X160228037Y-78397373D01*
X160279557Y-78227534D01*
X160279557Y-78227533D01*
X160363221Y-78071011D01*
X160363222Y-78071009D01*
X160392552Y-78035271D01*
X160475814Y-77933814D01*
X160577271Y-77850552D01*
X160613009Y-77821222D01*
X160630913Y-77811652D01*
X160769533Y-77737557D01*
X160826147Y-77720384D01*
X160939373Y-77686037D01*
X161005557Y-77679519D01*
X161071740Y-77673000D01*
X161160260Y-77673000D01*
X161226443Y-77679519D01*
X161226443Y-77679519D01*
G37*
G36*
X135826443Y-77679519D02*
X135892627Y-77686037D01*
X136005853Y-77720384D01*
X136062467Y-77737557D01*
X136201087Y-77811652D01*
X136218991Y-77821222D01*
X136254729Y-77850552D01*
X136356186Y-77933814D01*
X136439448Y-78035271D01*
X136468778Y-78071009D01*
X136468779Y-78071011D01*
X136552443Y-78227533D01*
X136552443Y-78227534D01*
X136603963Y-78397373D01*
X136621359Y-78574000D01*
X136603963Y-78750627D01*
X136569616Y-78863853D01*
X136552443Y-78920467D01*
X136478348Y-79059087D01*
X136468778Y-79076991D01*
X136439448Y-79112729D01*
X136356186Y-79214186D01*
X136254729Y-79297448D01*
X136218991Y-79326778D01*
X136218989Y-79326779D01*
X136062467Y-79410443D01*
X136005853Y-79427616D01*
X135892627Y-79461963D01*
X135826443Y-79468481D01*
X135760260Y-79475000D01*
X135671740Y-79475000D01*
X135605557Y-79468481D01*
X135539373Y-79461963D01*
X135426147Y-79427616D01*
X135369533Y-79410443D01*
X135213011Y-79326779D01*
X135213009Y-79326778D01*
X135177271Y-79297448D01*
X135075814Y-79214186D01*
X134992552Y-79112729D01*
X134963222Y-79076991D01*
X134953652Y-79059087D01*
X134879557Y-78920467D01*
X134862384Y-78863853D01*
X134828037Y-78750627D01*
X134810641Y-78574000D01*
X134828037Y-78397373D01*
X134879557Y-78227534D01*
X134879557Y-78227533D01*
X134963221Y-78071011D01*
X134963222Y-78071009D01*
X134992552Y-78035271D01*
X135075814Y-77933814D01*
X135177271Y-77850552D01*
X135213009Y-77821222D01*
X135230913Y-77811652D01*
X135369533Y-77737557D01*
X135426147Y-77720384D01*
X135539373Y-77686037D01*
X135605557Y-77679519D01*
X135671740Y-77673000D01*
X135760260Y-77673000D01*
X135826443Y-77679519D01*
X135826443Y-77679519D01*
G37*
G36*
X133286443Y-77679519D02*
X133352627Y-77686037D01*
X133465853Y-77720384D01*
X133522467Y-77737557D01*
X133661087Y-77811652D01*
X133678991Y-77821222D01*
X133714729Y-77850552D01*
X133816186Y-77933814D01*
X133899448Y-78035271D01*
X133928778Y-78071009D01*
X133928779Y-78071011D01*
X134012443Y-78227533D01*
X134012443Y-78227534D01*
X134063963Y-78397373D01*
X134081359Y-78574000D01*
X134063963Y-78750627D01*
X134029616Y-78863853D01*
X134012443Y-78920467D01*
X133938348Y-79059087D01*
X133928778Y-79076991D01*
X133899448Y-79112729D01*
X133816186Y-79214186D01*
X133714729Y-79297448D01*
X133678991Y-79326778D01*
X133678989Y-79326779D01*
X133522467Y-79410443D01*
X133465853Y-79427616D01*
X133352627Y-79461963D01*
X133286443Y-79468481D01*
X133220260Y-79475000D01*
X133131740Y-79475000D01*
X133065557Y-79468481D01*
X132999373Y-79461963D01*
X132886147Y-79427616D01*
X132829533Y-79410443D01*
X132673011Y-79326779D01*
X132673009Y-79326778D01*
X132637271Y-79297448D01*
X132535814Y-79214186D01*
X132452552Y-79112729D01*
X132423222Y-79076991D01*
X132413652Y-79059087D01*
X132339557Y-78920467D01*
X132322384Y-78863853D01*
X132288037Y-78750627D01*
X132270641Y-78574000D01*
X132288037Y-78397373D01*
X132339557Y-78227534D01*
X132339557Y-78227533D01*
X132423221Y-78071011D01*
X132423222Y-78071009D01*
X132452552Y-78035271D01*
X132535814Y-77933814D01*
X132637271Y-77850552D01*
X132673009Y-77821222D01*
X132690913Y-77811652D01*
X132829533Y-77737557D01*
X132886147Y-77720384D01*
X132999373Y-77686037D01*
X133065557Y-77679519D01*
X133131740Y-77673000D01*
X133220260Y-77673000D01*
X133286443Y-77679519D01*
X133286443Y-77679519D01*
G37*
G36*
X130746443Y-77679519D02*
X130812627Y-77686037D01*
X130925853Y-77720384D01*
X130982467Y-77737557D01*
X131121087Y-77811652D01*
X131138991Y-77821222D01*
X131174729Y-77850552D01*
X131276186Y-77933814D01*
X131359448Y-78035271D01*
X131388778Y-78071009D01*
X131388779Y-78071011D01*
X131472443Y-78227533D01*
X131472443Y-78227534D01*
X131523963Y-78397373D01*
X131541359Y-78574000D01*
X131523963Y-78750627D01*
X131489616Y-78863853D01*
X131472443Y-78920467D01*
X131398348Y-79059087D01*
X131388778Y-79076991D01*
X131359448Y-79112729D01*
X131276186Y-79214186D01*
X131174729Y-79297448D01*
X131138991Y-79326778D01*
X131138989Y-79326779D01*
X130982467Y-79410443D01*
X130925853Y-79427616D01*
X130812627Y-79461963D01*
X130746443Y-79468481D01*
X130680260Y-79475000D01*
X130591740Y-79475000D01*
X130525557Y-79468481D01*
X130459373Y-79461963D01*
X130346147Y-79427616D01*
X130289533Y-79410443D01*
X130133011Y-79326779D01*
X130133009Y-79326778D01*
X130097271Y-79297448D01*
X129995814Y-79214186D01*
X129912552Y-79112729D01*
X129883222Y-79076991D01*
X129873652Y-79059087D01*
X129799557Y-78920467D01*
X129782384Y-78863853D01*
X129748037Y-78750627D01*
X129730641Y-78574000D01*
X129748037Y-78397373D01*
X129799557Y-78227534D01*
X129799557Y-78227533D01*
X129883221Y-78071011D01*
X129883222Y-78071009D01*
X129912552Y-78035271D01*
X129995814Y-77933814D01*
X130097271Y-77850552D01*
X130133009Y-77821222D01*
X130150913Y-77811652D01*
X130289533Y-77737557D01*
X130346147Y-77720384D01*
X130459373Y-77686037D01*
X130525557Y-77679519D01*
X130591740Y-77673000D01*
X130680260Y-77673000D01*
X130746443Y-77679519D01*
X130746443Y-77679519D01*
G37*
G36*
X125666443Y-77679519D02*
X125732627Y-77686037D01*
X125845853Y-77720384D01*
X125902467Y-77737557D01*
X126041087Y-77811652D01*
X126058991Y-77821222D01*
X126094729Y-77850552D01*
X126196186Y-77933814D01*
X126279448Y-78035271D01*
X126308778Y-78071009D01*
X126308779Y-78071011D01*
X126392443Y-78227533D01*
X126392443Y-78227534D01*
X126443963Y-78397373D01*
X126461359Y-78574000D01*
X126443963Y-78750627D01*
X126409616Y-78863853D01*
X126392443Y-78920467D01*
X126318348Y-79059087D01*
X126308778Y-79076991D01*
X126279448Y-79112729D01*
X126196186Y-79214186D01*
X126094729Y-79297448D01*
X126058991Y-79326778D01*
X126058989Y-79326779D01*
X125902467Y-79410443D01*
X125845853Y-79427616D01*
X125732627Y-79461963D01*
X125666443Y-79468481D01*
X125600260Y-79475000D01*
X125511740Y-79475000D01*
X125445557Y-79468481D01*
X125379373Y-79461963D01*
X125266147Y-79427616D01*
X125209533Y-79410443D01*
X125053011Y-79326779D01*
X125053009Y-79326778D01*
X125017271Y-79297448D01*
X124915814Y-79214186D01*
X124832552Y-79112729D01*
X124803222Y-79076991D01*
X124793652Y-79059087D01*
X124719557Y-78920467D01*
X124702384Y-78863853D01*
X124668037Y-78750627D01*
X124650641Y-78574000D01*
X124668037Y-78397373D01*
X124719557Y-78227534D01*
X124719557Y-78227533D01*
X124803221Y-78071011D01*
X124803222Y-78071009D01*
X124832552Y-78035271D01*
X124915814Y-77933814D01*
X125017271Y-77850552D01*
X125053009Y-77821222D01*
X125070913Y-77811652D01*
X125209533Y-77737557D01*
X125266147Y-77720384D01*
X125379373Y-77686037D01*
X125445557Y-77679519D01*
X125511740Y-77673000D01*
X125600260Y-77673000D01*
X125666443Y-77679519D01*
X125666443Y-77679519D01*
G37*
G36*
X128206443Y-77679519D02*
X128272627Y-77686037D01*
X128385853Y-77720384D01*
X128442467Y-77737557D01*
X128581087Y-77811652D01*
X128598991Y-77821222D01*
X128634729Y-77850552D01*
X128736186Y-77933814D01*
X128819448Y-78035271D01*
X128848778Y-78071009D01*
X128848779Y-78071011D01*
X128932443Y-78227533D01*
X128932443Y-78227534D01*
X128983963Y-78397373D01*
X129001359Y-78574000D01*
X128983963Y-78750627D01*
X128949616Y-78863853D01*
X128932443Y-78920467D01*
X128858348Y-79059087D01*
X128848778Y-79076991D01*
X128819448Y-79112729D01*
X128736186Y-79214186D01*
X128634729Y-79297448D01*
X128598991Y-79326778D01*
X128598989Y-79326779D01*
X128442467Y-79410443D01*
X128385853Y-79427616D01*
X128272627Y-79461963D01*
X128206443Y-79468481D01*
X128140260Y-79475000D01*
X128051740Y-79475000D01*
X127985557Y-79468481D01*
X127919373Y-79461963D01*
X127806147Y-79427616D01*
X127749533Y-79410443D01*
X127593011Y-79326779D01*
X127593009Y-79326778D01*
X127557271Y-79297448D01*
X127455814Y-79214186D01*
X127372552Y-79112729D01*
X127343222Y-79076991D01*
X127333652Y-79059087D01*
X127259557Y-78920467D01*
X127242384Y-78863853D01*
X127208037Y-78750627D01*
X127190641Y-78574000D01*
X127208037Y-78397373D01*
X127259557Y-78227534D01*
X127259557Y-78227533D01*
X127343221Y-78071011D01*
X127343222Y-78071009D01*
X127372552Y-78035271D01*
X127455814Y-77933814D01*
X127557271Y-77850552D01*
X127593009Y-77821222D01*
X127610913Y-77811652D01*
X127749533Y-77737557D01*
X127806147Y-77720384D01*
X127919373Y-77686037D01*
X127985557Y-77679519D01*
X128051740Y-77673000D01*
X128140260Y-77673000D01*
X128206443Y-77679519D01*
X128206443Y-77679519D01*
G37*
G36*
X170902006Y-69853582D02*
X171302565Y-70019499D01*
X171663059Y-70260373D01*
X171969627Y-70566941D01*
X172210501Y-70927435D01*
X172376418Y-71327994D01*
X172461000Y-71753219D01*
X172461000Y-72186781D01*
X172376418Y-72612006D01*
X172210501Y-73012565D01*
X171969627Y-73373059D01*
X171663059Y-73679627D01*
X171302565Y-73920501D01*
X170902006Y-74086418D01*
X170476781Y-74171000D01*
X170043219Y-74171000D01*
X169617994Y-74086418D01*
X169217435Y-73920501D01*
X168856941Y-73679627D01*
X168550373Y-73373059D01*
X168309499Y-73012565D01*
X168143582Y-72612006D01*
X168059000Y-72186781D01*
X168059000Y-71753219D01*
X168143582Y-71327994D01*
X168309499Y-70927435D01*
X168550373Y-70566941D01*
X168856941Y-70260373D01*
X169217435Y-70019499D01*
X169617994Y-69853582D01*
X170043219Y-69769000D01*
X170476781Y-69769000D01*
X170902006Y-69853582D01*
X170902006Y-69853582D01*
G37*
G36*
X121372006Y-69853582D02*
X121772565Y-70019499D01*
X122133059Y-70260373D01*
X122439627Y-70566941D01*
X122680501Y-70927435D01*
X122846418Y-71327994D01*
X122931000Y-71753219D01*
X122931000Y-72186781D01*
X122846418Y-72612006D01*
X122680501Y-73012565D01*
X122439627Y-73373059D01*
X122133059Y-73679627D01*
X121772565Y-73920501D01*
X121372006Y-74086418D01*
X120946781Y-74171000D01*
X120513219Y-74171000D01*
X120087994Y-74086418D01*
X119687435Y-73920501D01*
X119326941Y-73679627D01*
X119020373Y-73373059D01*
X118779499Y-73012565D01*
X118613582Y-72612006D01*
X118529000Y-72186781D01*
X118529000Y-71753219D01*
X118613582Y-71327994D01*
X118779499Y-70927435D01*
X119020373Y-70566941D01*
X119326941Y-70260373D01*
X119687435Y-70019499D01*
X120087994Y-69853582D01*
X120513219Y-69769000D01*
X120946781Y-69769000D01*
X121372006Y-69853582D01*
X121372006Y-69853582D01*
G37*
M02*
