M48
;DRILL file {KiCad (6.0.0-rc1-dev-1030-g80d50d98b)} date Thursday, November 08, 2018 at 02:32:59 PM
;FORMAT={-:-/ absolute / metric / decimal}
FMAT,2
METRIC
T1C0.400
T2C0.900
T3C1.000
T4C1.100
T5C1.500
T6C1.600
T7C4.300
%
G90
G05
M71
T1
X104.22Y-70.954
X104.22Y-74.002
X104.22Y-77.05
X104.271Y-79.539
X105.236Y-86.702
X105.236Y-87.972
X105.49Y-79.59
X106.506Y-87.972
X106.76Y-79.59
X107.014Y-70.954
X107.014Y-74.002
X107.014Y-77.05
X107.776Y-87.972
X108.538Y-82.638
X109.3Y-87.972
X110.062Y-84.416
X110.316Y-70.954
X110.316Y-74.002
X110.316Y-77.05
X110.316Y-80.098
X110.316Y-82.638
X110.824Y-87.972
X112.094Y-80.098
X112.094Y-82.638
X112.348Y-87.972
X113.11Y-84.416
X113.134Y-108.633
X113.134Y-110.089
X113.364Y-90.004
X113.364Y-91.274
X113.364Y-92.544
X113.364Y-94.068
X113.364Y-95.338
X113.364Y-96.608
X113.364Y-97.878
X113.364Y-99.148
X113.364Y-100.418
X113.364Y-101.688
X113.364Y-102.958
X113.364Y-104.228
X113.364Y-107.022
X113.872Y-70.954
X113.872Y-74.002
X113.872Y-77.05
X113.872Y-80.098
X113.872Y-82.638
X115.65Y-80.098
X115.65Y-82.638
X116.158Y-84.416
X116.158Y-87.21
X116.158Y-90.004
X116.158Y-92.544
X116.158Y-95.338
X116.158Y-98.132
X116.158Y-100.926
X116.158Y-106.768
X116.158Y-109.054
X116.158Y-112.356
X116.158Y-115.658
X117.682Y-77.05
X117.682Y-80.098
X117.682Y-82.638
X117.936Y-104.736
X117.936Y-106.768
X119.206Y-87.21
X119.206Y-90.004
X119.206Y-92.544
X119.206Y-95.338
X119.206Y-98.132
X119.206Y-100.926
X119.46Y-80.098
X119.714Y-82.638
X119.714Y-104.736
X119.714Y-106.768
X120.73Y-77.05
X120.73Y-83.908
X120.984Y-80.098
X121.492Y-104.736
X121.492Y-106.768
X122.0Y-80.86
X122.0Y-85.432
X122.254Y-90.004
X122.254Y-92.544
X122.254Y-95.338
X122.254Y-98.132
X122.254Y-100.926
X123.27Y-77.304
X123.27Y-78.32
X123.27Y-79.59
X123.27Y-80.86
X123.27Y-82.13
X123.27Y-86.702
X123.27Y-104.736
X123.27Y-106.768
X123.524Y-87.972
X124.794Y-83.654
X124.794Y-87.972
X124.794Y-89.242
X125.048Y-104.736
X125.048Y-106.768
X125.048Y-108.292
X125.048Y-109.816
X125.302Y-90.512
X125.302Y-91.782
X125.302Y-93.306
X125.302Y-94.576
X125.302Y-95.846
X125.302Y-97.116
X125.302Y-98.386
X125.302Y-99.656
X125.302Y-100.926
X125.302Y-102.196
X126.064Y-83.654
X126.064Y-84.67
X126.572Y-109.816
X126.826Y-100.926
X126.826Y-102.196
X127.334Y-84.67
X127.334Y-85.686
X127.829Y-89.572
X127.829Y-92.595
X128.35Y-86.702
X128.35Y-88.48
X128.35Y-103.466
X129.074Y-91.769
X130.306Y-99.974
X130.89Y-102.196
X131.499Y-94.672
X131.55Y-93.382
X131.575Y-98.449
X131.601Y-95.592
X131.601Y-97.192
X132.287Y-87.769
X132.35Y-90.372
X132.414Y-102.196
X132.414Y-103.466
X132.643Y-89.039
X133.303Y-86.753
X133.938Y-103.466
X134.192Y-109.816
X134.598Y-87.083
X135.282Y-99.186
X135.335Y-97.903
X135.462Y-103.466
X135.475Y-93.687
X135.538Y-94.678
X135.716Y-109.816
X135.763Y-96.503
X136.554Y-97.192
X136.986Y-103.466
X137.24Y-109.816
X137.824Y-85.889
X138.473Y-86.409
X138.586Y-103.796
X138.764Y-109.816
X139.89Y-94.592
X139.89Y-96.092
X139.932Y-106.006
X140.288Y-106.768
X140.288Y-108.292
X140.288Y-109.816
X140.64Y-93.842
X140.64Y-95.342
X140.64Y-96.842
X141.39Y-93.092
X141.39Y-94.592
X141.39Y-96.092
X141.39Y-97.592
X141.558Y-106.006
X142.14Y-92.342
X142.14Y-93.842
X142.14Y-95.342
X142.14Y-96.842
X142.14Y-98.342
X142.495Y-102.069
X142.89Y-93.092
X142.89Y-94.592
X142.89Y-96.092
X142.89Y-97.592
X143.031Y-88.836
X143.414Y-102.386
X143.64Y-92.342
X143.64Y-93.842
X143.64Y-95.342
X143.64Y-96.842
X143.64Y-98.342
X144.064Y-103.098
X144.39Y-93.092
X144.39Y-94.592
X144.39Y-96.092
X144.39Y-97.592
X144.492Y-104.347
X145.14Y-93.842
X145.14Y-95.342
X145.14Y-96.842
X145.217Y-103.258
X145.292Y-106.438
X145.876Y-101.459
X145.89Y-94.592
X145.89Y-96.092
X148.138Y-90.818
X148.53Y-99.631
X148.873Y-98.064
X149.127Y-85.991
X149.33Y-95.338
X149.432Y-102.526
X149.559Y-91.076
X150.092Y-98.691
X152.04Y-92.569
X152.201Y-85.559
X152.937Y-92.061
X153.556Y-87.083
X160.024Y-86.118
X164.342Y-102.552
X170.006Y-102.45
X170.006Y-107.53
X176.61Y-102.196
X176.864Y-107.53
X177.08Y-81.109
X177.88Y-95.668
X177.944Y-90.385
T2
X131.233Y-106.654
X133.233Y-106.654
X135.233Y-106.654
T3
X125.556Y-78.574
X125.556Y-81.114
X128.096Y-78.574
X128.096Y-81.114
X130.636Y-78.574
X130.636Y-81.114
X133.176Y-78.574
X133.176Y-81.114
X135.716Y-78.574
X135.716Y-81.114
X138.256Y-78.574
X138.256Y-81.114
X140.796Y-78.574
X140.796Y-81.114
X143.336Y-78.574
X143.336Y-81.114
X145.876Y-78.574
X145.876Y-81.114
X148.416Y-78.574
X148.416Y-81.114
X150.956Y-78.574
X150.956Y-81.114
X153.496Y-78.574
X153.496Y-81.114
X156.036Y-78.574
X156.036Y-81.114
X158.576Y-78.574
X158.576Y-81.114
X161.116Y-78.574
X161.116Y-81.114
X156.315Y-93.865
X158.111Y-92.069
X158.111Y-95.661
X159.908Y-93.865
X159.908Y-97.457
X161.704Y-95.661
T4
X156.849Y-102.554
X156.849Y-109.054
X161.349Y-102.554
X161.349Y-109.054
T5
X129.133Y-106.654
X137.333Y-106.654
T6
X175.831Y-104.545
T7
X120.73Y-113.88
X120.73Y-71.97
X170.26Y-113.88
X170.26Y-71.97
T3
G00X166.831Y-105.545
M15
G01X166.831Y-103.545
M16
G05
G00X172.831Y-105.195
M15
G01X172.831Y-103.895
M16
G05
G00X173.081Y-100.045
M15
G01X174.581Y-100.045
M16
G05
G00X173.081Y-109.045
M15
G01X174.581Y-109.045
M16
G05
T0
M30
