G04 #@! TF.GenerationSoftware,KiCad,Pcbnew,(6.0.0-rc1-dev-1030-g80d50d98b)*
G04 #@! TF.CreationDate,2018-11-12T11:24:30-07:00*
G04 #@! TF.ProjectId,airmed_board_v1.0,6169726D65645F626F6172645F76312E,rev?*
G04 #@! TF.SameCoordinates,Original*
G04 #@! TF.FileFunction,Soldermask,Bot*
G04 #@! TF.FilePolarity,Negative*
%FSLAX46Y46*%
G04 Gerber Fmt 4.6, Leading zero omitted, Abs format (unit mm)*
G04 Created by KiCad (PCBNEW (6.0.0-rc1-dev-1030-g80d50d98b)) date Monday, November 12, 2018 at 11:24:30 AM*
%MOMM*%
%LPD*%
G01*
G04 APERTURE LIST*
%ADD10C,0.100000*%
G04 APERTURE END LIST*
D10*
G36*
X170902006Y-111763582D02*
X171302565Y-111929499D01*
X171663059Y-112170373D01*
X171969627Y-112476941D01*
X172210501Y-112837435D01*
X172376418Y-113237994D01*
X172461000Y-113663219D01*
X172461000Y-114096781D01*
X172376418Y-114522006D01*
X172210501Y-114922565D01*
X171969627Y-115283059D01*
X171663059Y-115589627D01*
X171302565Y-115830501D01*
X170902006Y-115996418D01*
X170476781Y-116081000D01*
X170043219Y-116081000D01*
X169617994Y-115996418D01*
X169217435Y-115830501D01*
X168856941Y-115589627D01*
X168550373Y-115283059D01*
X168309499Y-114922565D01*
X168143582Y-114522006D01*
X168059000Y-114096781D01*
X168059000Y-113663219D01*
X168143582Y-113237994D01*
X168309499Y-112837435D01*
X168550373Y-112476941D01*
X168856941Y-112170373D01*
X169217435Y-111929499D01*
X169617994Y-111763582D01*
X170043219Y-111679000D01*
X170476781Y-111679000D01*
X170902006Y-111763582D01*
X170902006Y-111763582D01*
G37*
G36*
X121372006Y-111763582D02*
X121772565Y-111929499D01*
X122133059Y-112170373D01*
X122439627Y-112476941D01*
X122680501Y-112837435D01*
X122846418Y-113237994D01*
X122931000Y-113663219D01*
X122931000Y-114096781D01*
X122846418Y-114522006D01*
X122680501Y-114922565D01*
X122439627Y-115283059D01*
X122133059Y-115589627D01*
X121772565Y-115830501D01*
X121372006Y-115996418D01*
X120946781Y-116081000D01*
X120513219Y-116081000D01*
X120087994Y-115996418D01*
X119687435Y-115830501D01*
X119326941Y-115589627D01*
X119020373Y-115283059D01*
X118779499Y-114922565D01*
X118613582Y-114522006D01*
X118529000Y-114096781D01*
X118529000Y-113663219D01*
X118613582Y-113237994D01*
X118779499Y-112837435D01*
X119020373Y-112476941D01*
X119326941Y-112170373D01*
X119687435Y-111929499D01*
X120087994Y-111763582D01*
X120513219Y-111679000D01*
X120946781Y-111679000D01*
X121372006Y-111763582D01*
X121372006Y-111763582D01*
G37*
G36*
X157155365Y-108043389D02*
X157346634Y-108122615D01*
X157518776Y-108237637D01*
X157665163Y-108384024D01*
X157780185Y-108556166D01*
X157859411Y-108747435D01*
X157899800Y-108950484D01*
X157899800Y-109157516D01*
X157859411Y-109360565D01*
X157780185Y-109551834D01*
X157665163Y-109723976D01*
X157518776Y-109870363D01*
X157346634Y-109985385D01*
X157155365Y-110064611D01*
X156952316Y-110105000D01*
X156745284Y-110105000D01*
X156542235Y-110064611D01*
X156350966Y-109985385D01*
X156178824Y-109870363D01*
X156032437Y-109723976D01*
X155917415Y-109551834D01*
X155838189Y-109360565D01*
X155797800Y-109157516D01*
X155797800Y-108950484D01*
X155838189Y-108747435D01*
X155917415Y-108556166D01*
X156032437Y-108384024D01*
X156178824Y-108237637D01*
X156350966Y-108122615D01*
X156542235Y-108043389D01*
X156745284Y-108003000D01*
X156952316Y-108003000D01*
X157155365Y-108043389D01*
X157155365Y-108043389D01*
G37*
G36*
X161655365Y-108043389D02*
X161846634Y-108122615D01*
X162018776Y-108237637D01*
X162165163Y-108384024D01*
X162280185Y-108556166D01*
X162359411Y-108747435D01*
X162399800Y-108950484D01*
X162399800Y-109157516D01*
X162359411Y-109360565D01*
X162280185Y-109551834D01*
X162165163Y-109723976D01*
X162018776Y-109870363D01*
X161846634Y-109985385D01*
X161655365Y-110064611D01*
X161452316Y-110105000D01*
X161245284Y-110105000D01*
X161042235Y-110064611D01*
X160850966Y-109985385D01*
X160678824Y-109870363D01*
X160532437Y-109723976D01*
X160417415Y-109551834D01*
X160338189Y-109360565D01*
X160297800Y-109157516D01*
X160297800Y-108950484D01*
X160338189Y-108747435D01*
X160417415Y-108556166D01*
X160532437Y-108384024D01*
X160678824Y-108237637D01*
X160850966Y-108122615D01*
X161042235Y-108043389D01*
X161245284Y-108003000D01*
X161452316Y-108003000D01*
X161655365Y-108043389D01*
X161655365Y-108043389D01*
G37*
G36*
X174663510Y-107997541D02*
X174787032Y-108009707D01*
X174985146Y-108069805D01*
X175167729Y-108167397D01*
X175327765Y-108298735D01*
X175459103Y-108458771D01*
X175556695Y-108641354D01*
X175616793Y-108839468D01*
X175637085Y-109045500D01*
X175616793Y-109251532D01*
X175556695Y-109449646D01*
X175459103Y-109632229D01*
X175327765Y-109792265D01*
X175167729Y-109923603D01*
X174985146Y-110021195D01*
X174787032Y-110081293D01*
X174663510Y-110093459D01*
X174632631Y-110096500D01*
X173029369Y-110096500D01*
X172998490Y-110093459D01*
X172874968Y-110081293D01*
X172676854Y-110021195D01*
X172494271Y-109923603D01*
X172334235Y-109792265D01*
X172202897Y-109632229D01*
X172105305Y-109449646D01*
X172045207Y-109251532D01*
X172024915Y-109045500D01*
X172045207Y-108839468D01*
X172105305Y-108641354D01*
X172202897Y-108458771D01*
X172334235Y-108298735D01*
X172494271Y-108167397D01*
X172676854Y-108069805D01*
X172874968Y-108009707D01*
X172998490Y-107997541D01*
X173029369Y-107994500D01*
X174632631Y-107994500D01*
X174663510Y-107997541D01*
X174663510Y-107997541D01*
G37*
G36*
X137558534Y-104869354D02*
X137775499Y-104935170D01*
X137775501Y-104935171D01*
X137775504Y-104935172D01*
X137975455Y-105042047D01*
X138150718Y-105185882D01*
X138294553Y-105361144D01*
X138401428Y-105561095D01*
X138401428Y-105561096D01*
X138401430Y-105561100D01*
X138467246Y-105778065D01*
X138483900Y-105947157D01*
X138483900Y-107360243D01*
X138467246Y-107529335D01*
X138407660Y-107725762D01*
X138401428Y-107746305D01*
X138294553Y-107946256D01*
X138150718Y-108121518D01*
X137975456Y-108265353D01*
X137775505Y-108372228D01*
X137775502Y-108372229D01*
X137775500Y-108372230D01*
X137558535Y-108438046D01*
X137332900Y-108460269D01*
X137107266Y-108438046D01*
X136890301Y-108372230D01*
X136890299Y-108372229D01*
X136890296Y-108372228D01*
X136690345Y-108265353D01*
X136515083Y-108121518D01*
X136371249Y-107946257D01*
X136264371Y-107746302D01*
X136257252Y-107722833D01*
X136198554Y-107529335D01*
X136197911Y-107527215D01*
X136193991Y-107507503D01*
X136184613Y-107484864D01*
X136171000Y-107464489D01*
X136153672Y-107447162D01*
X136133298Y-107433548D01*
X136110659Y-107424171D01*
X136086626Y-107419390D01*
X136062121Y-107419390D01*
X136038088Y-107424170D01*
X136015449Y-107433548D01*
X135995074Y-107447161D01*
X135977747Y-107464489D01*
X135964133Y-107484864D01*
X135902130Y-107600865D01*
X135802033Y-107722833D01*
X135680065Y-107822930D01*
X135540912Y-107897308D01*
X135389925Y-107943110D01*
X135232900Y-107958575D01*
X135075876Y-107943110D01*
X134924889Y-107897308D01*
X134785736Y-107822930D01*
X134663768Y-107722833D01*
X134563671Y-107600865D01*
X134489293Y-107461712D01*
X134443491Y-107310725D01*
X134431901Y-107193046D01*
X134431900Y-106114355D01*
X134443490Y-105996676D01*
X134489292Y-105845689D01*
X134563668Y-105706539D01*
X134613719Y-105645552D01*
X134663767Y-105584567D01*
X134663769Y-105584566D01*
X134663770Y-105584564D01*
X134785735Y-105484470D01*
X134924888Y-105410092D01*
X135075875Y-105364290D01*
X135232900Y-105348825D01*
X135389924Y-105364290D01*
X135540911Y-105410092D01*
X135680061Y-105484468D01*
X135705691Y-105505502D01*
X135802033Y-105584567D01*
X135802034Y-105584569D01*
X135802036Y-105584570D01*
X135902130Y-105706535D01*
X135964133Y-105822536D01*
X135977746Y-105842911D01*
X135995074Y-105860238D01*
X136015448Y-105873852D01*
X136038087Y-105883229D01*
X136062120Y-105888010D01*
X136086625Y-105888010D01*
X136110658Y-105883230D01*
X136133297Y-105873852D01*
X136153672Y-105860239D01*
X136170999Y-105842911D01*
X136184613Y-105822537D01*
X136193990Y-105799898D01*
X136197911Y-105780188D01*
X136198554Y-105778068D01*
X136198554Y-105778066D01*
X136264370Y-105561101D01*
X136264371Y-105561099D01*
X136264372Y-105561096D01*
X136371247Y-105361145D01*
X136515082Y-105185882D01*
X136690344Y-105042047D01*
X136890295Y-104935172D01*
X136890298Y-104935171D01*
X136890300Y-104935170D01*
X137107265Y-104869354D01*
X137332900Y-104847131D01*
X137558534Y-104869354D01*
X137558534Y-104869354D01*
G37*
G36*
X129358534Y-104869354D02*
X129575499Y-104935170D01*
X129575501Y-104935171D01*
X129575504Y-104935172D01*
X129775455Y-105042047D01*
X129950718Y-105185882D01*
X130094553Y-105361144D01*
X130196660Y-105552174D01*
X130210274Y-105572549D01*
X130227601Y-105589876D01*
X130247975Y-105603490D01*
X130270614Y-105612867D01*
X130294648Y-105617648D01*
X130319152Y-105617648D01*
X130343185Y-105612868D01*
X130365824Y-105603490D01*
X130386199Y-105589876D01*
X130403526Y-105572549D01*
X130417140Y-105552175D01*
X130426517Y-105529536D01*
X130431298Y-105505502D01*
X130431900Y-105493250D01*
X130431900Y-105352700D01*
X132033900Y-105352700D01*
X132033900Y-107954700D01*
X130431900Y-107954700D01*
X130431900Y-107814150D01*
X130429498Y-107789764D01*
X130422385Y-107766315D01*
X130410834Y-107744704D01*
X130395288Y-107725762D01*
X130376346Y-107710216D01*
X130354735Y-107698665D01*
X130331286Y-107691552D01*
X130306900Y-107689150D01*
X130282514Y-107691552D01*
X130259065Y-107698665D01*
X130237454Y-107710216D01*
X130218512Y-107725762D01*
X130202966Y-107744704D01*
X130196660Y-107755226D01*
X130094553Y-107946256D01*
X129950718Y-108121518D01*
X129775456Y-108265353D01*
X129575505Y-108372228D01*
X129575502Y-108372229D01*
X129575500Y-108372230D01*
X129358535Y-108438046D01*
X129132900Y-108460269D01*
X128907266Y-108438046D01*
X128690301Y-108372230D01*
X128690299Y-108372229D01*
X128690296Y-108372228D01*
X128490345Y-108265353D01*
X128315083Y-108121518D01*
X128171249Y-107946257D01*
X128064371Y-107746302D01*
X128058140Y-107725762D01*
X127998554Y-107529335D01*
X127981900Y-107360243D01*
X127981900Y-105947158D01*
X127998554Y-105778066D01*
X128064370Y-105561101D01*
X128064371Y-105561099D01*
X128064372Y-105561096D01*
X128171247Y-105361145D01*
X128315082Y-105185882D01*
X128490344Y-105042047D01*
X128690295Y-104935172D01*
X128690298Y-104935171D01*
X128690300Y-104935170D01*
X128907265Y-104869354D01*
X129132900Y-104847131D01*
X129358534Y-104869354D01*
X129358534Y-104869354D01*
G37*
G36*
X133389924Y-105364290D02*
X133540911Y-105410092D01*
X133680061Y-105484468D01*
X133705691Y-105505502D01*
X133802033Y-105584567D01*
X133802034Y-105584569D01*
X133802036Y-105584570D01*
X133902130Y-105706535D01*
X133976508Y-105845688D01*
X134022310Y-105996675D01*
X134033900Y-106114354D01*
X134033900Y-107193046D01*
X134022310Y-107310725D01*
X133976508Y-107461712D01*
X133902130Y-107600865D01*
X133802033Y-107722833D01*
X133680065Y-107822930D01*
X133540912Y-107897308D01*
X133389925Y-107943110D01*
X133232900Y-107958575D01*
X133075876Y-107943110D01*
X132924889Y-107897308D01*
X132785736Y-107822930D01*
X132663768Y-107722833D01*
X132563671Y-107600865D01*
X132489293Y-107461712D01*
X132443491Y-107310725D01*
X132431901Y-107193046D01*
X132431900Y-106114355D01*
X132443490Y-105996676D01*
X132489292Y-105845689D01*
X132563668Y-105706539D01*
X132613719Y-105645552D01*
X132663767Y-105584567D01*
X132663769Y-105584566D01*
X132663770Y-105584564D01*
X132785735Y-105484470D01*
X132924888Y-105410092D01*
X133075875Y-105364290D01*
X133232900Y-105348825D01*
X133389924Y-105364290D01*
X133389924Y-105364290D01*
G37*
G36*
X167882000Y-106596500D02*
X165780000Y-106596500D01*
X165780000Y-102494500D01*
X167882000Y-102494500D01*
X167882000Y-106596500D01*
X167882000Y-106596500D01*
G37*
G36*
X173037031Y-102859707D02*
X173235145Y-102919805D01*
X173417729Y-103017397D01*
X173577765Y-103148735D01*
X173577766Y-103148737D01*
X173577768Y-103148738D01*
X173639511Y-103223973D01*
X173709103Y-103308771D01*
X173806695Y-103491354D01*
X173866793Y-103689468D01*
X173882000Y-103843870D01*
X173882000Y-105247130D01*
X173866793Y-105401532D01*
X173806695Y-105599646D01*
X173709103Y-105782229D01*
X173577765Y-105942265D01*
X173417729Y-106073603D01*
X173235146Y-106171195D01*
X173037032Y-106231293D01*
X172831000Y-106251585D01*
X172624969Y-106231293D01*
X172426855Y-106171195D01*
X172244272Y-106073603D01*
X172084236Y-105942265D01*
X172002698Y-105842911D01*
X171952899Y-105782231D01*
X171855306Y-105599648D01*
X171795207Y-105401528D01*
X171780000Y-105247131D01*
X171780000Y-103843870D01*
X171785172Y-103791354D01*
X171795207Y-103689469D01*
X171855305Y-103491355D01*
X171858497Y-103485384D01*
X171919976Y-103370363D01*
X171952897Y-103308771D01*
X172084235Y-103148735D01*
X172084237Y-103148734D01*
X172084238Y-103148732D01*
X172244269Y-103017399D01*
X172244271Y-103017397D01*
X172426854Y-102919805D01*
X172624968Y-102859707D01*
X172831000Y-102839415D01*
X173037031Y-102859707D01*
X173037031Y-102859707D01*
G37*
G36*
X176079228Y-103727203D02*
X176234100Y-103791353D01*
X176373481Y-103884485D01*
X176492015Y-104003019D01*
X176585147Y-104142400D01*
X176649297Y-104297272D01*
X176682000Y-104461684D01*
X176682000Y-104629316D01*
X176649297Y-104793728D01*
X176585147Y-104948600D01*
X176492015Y-105087981D01*
X176373481Y-105206515D01*
X176234100Y-105299647D01*
X176079228Y-105363797D01*
X175914816Y-105396500D01*
X175747184Y-105396500D01*
X175582772Y-105363797D01*
X175427900Y-105299647D01*
X175288519Y-105206515D01*
X175169985Y-105087981D01*
X175076853Y-104948600D01*
X175012703Y-104793728D01*
X174980000Y-104629316D01*
X174980000Y-104461684D01*
X175012703Y-104297272D01*
X175076853Y-104142400D01*
X175169985Y-104003019D01*
X175288519Y-103884485D01*
X175427900Y-103791353D01*
X175582772Y-103727203D01*
X175747184Y-103694500D01*
X175914816Y-103694500D01*
X176079228Y-103727203D01*
X176079228Y-103727203D01*
G37*
G36*
X161655365Y-101543389D02*
X161846634Y-101622615D01*
X162018776Y-101737637D01*
X162165163Y-101884024D01*
X162280185Y-102056166D01*
X162359411Y-102247435D01*
X162399800Y-102450484D01*
X162399800Y-102657516D01*
X162359411Y-102860565D01*
X162280185Y-103051834D01*
X162165163Y-103223976D01*
X162018776Y-103370363D01*
X161846634Y-103485385D01*
X161655365Y-103564611D01*
X161452316Y-103605000D01*
X161245284Y-103605000D01*
X161042235Y-103564611D01*
X160850966Y-103485385D01*
X160678824Y-103370363D01*
X160532437Y-103223976D01*
X160417415Y-103051834D01*
X160338189Y-102860565D01*
X160297800Y-102657516D01*
X160297800Y-102450484D01*
X160338189Y-102247435D01*
X160417415Y-102056166D01*
X160532437Y-101884024D01*
X160678824Y-101737637D01*
X160850966Y-101622615D01*
X161042235Y-101543389D01*
X161245284Y-101503000D01*
X161452316Y-101503000D01*
X161655365Y-101543389D01*
X161655365Y-101543389D01*
G37*
G36*
X157155365Y-101543389D02*
X157346634Y-101622615D01*
X157518776Y-101737637D01*
X157665163Y-101884024D01*
X157780185Y-102056166D01*
X157859411Y-102247435D01*
X157899800Y-102450484D01*
X157899800Y-102657516D01*
X157859411Y-102860565D01*
X157780185Y-103051834D01*
X157665163Y-103223976D01*
X157518776Y-103370363D01*
X157346634Y-103485385D01*
X157155365Y-103564611D01*
X156952316Y-103605000D01*
X156745284Y-103605000D01*
X156542235Y-103564611D01*
X156350966Y-103485385D01*
X156178824Y-103370363D01*
X156032437Y-103223976D01*
X155917415Y-103051834D01*
X155838189Y-102860565D01*
X155797800Y-102657516D01*
X155797800Y-102450484D01*
X155838189Y-102247435D01*
X155917415Y-102056166D01*
X156032437Y-101884024D01*
X156178824Y-101737637D01*
X156350966Y-101622615D01*
X156542235Y-101543389D01*
X156745284Y-101503000D01*
X156952316Y-101503000D01*
X157155365Y-101543389D01*
X157155365Y-101543389D01*
G37*
G36*
X174663510Y-98997541D02*
X174787032Y-99009707D01*
X174985146Y-99069805D01*
X175167729Y-99167397D01*
X175327765Y-99298735D01*
X175459103Y-99458771D01*
X175556695Y-99641354D01*
X175616793Y-99839468D01*
X175637085Y-100045500D01*
X175616793Y-100251532D01*
X175556695Y-100449646D01*
X175459103Y-100632229D01*
X175327765Y-100792265D01*
X175167729Y-100923603D01*
X174985146Y-101021195D01*
X174787032Y-101081293D01*
X174663510Y-101093459D01*
X174632631Y-101096500D01*
X173029369Y-101096500D01*
X172998490Y-101093459D01*
X172874968Y-101081293D01*
X172676854Y-101021195D01*
X172494271Y-100923603D01*
X172334235Y-100792265D01*
X172202897Y-100632229D01*
X172105305Y-100449646D01*
X172045207Y-100251532D01*
X172024915Y-100045500D01*
X172045207Y-99839468D01*
X172105305Y-99641354D01*
X172202897Y-99458771D01*
X172334235Y-99298735D01*
X172494271Y-99167397D01*
X172676854Y-99069805D01*
X172874968Y-99009707D01*
X172998490Y-98997541D01*
X173029369Y-98994500D01*
X174632631Y-98994500D01*
X174663510Y-98997541D01*
X174663510Y-98997541D01*
G37*
G36*
X160012162Y-96561851D02*
X160084129Y-96568939D01*
X160197355Y-96603286D01*
X160253969Y-96620459D01*
X160392589Y-96694554D01*
X160410493Y-96704124D01*
X160446231Y-96733454D01*
X160547688Y-96816716D01*
X160630950Y-96918173D01*
X160660280Y-96953911D01*
X160660281Y-96953913D01*
X160743945Y-97110435D01*
X160743945Y-97110436D01*
X160795465Y-97280275D01*
X160812861Y-97456902D01*
X160795465Y-97633529D01*
X160761118Y-97746755D01*
X160743945Y-97803369D01*
X160669850Y-97941989D01*
X160660280Y-97959893D01*
X160630950Y-97995631D01*
X160547688Y-98097088D01*
X160446231Y-98180350D01*
X160410493Y-98209680D01*
X160410491Y-98209681D01*
X160253969Y-98293345D01*
X160197355Y-98310518D01*
X160084129Y-98344865D01*
X160017944Y-98351384D01*
X159951762Y-98357902D01*
X159863242Y-98357902D01*
X159797060Y-98351384D01*
X159730875Y-98344865D01*
X159617649Y-98310518D01*
X159561035Y-98293345D01*
X159404513Y-98209681D01*
X159404511Y-98209680D01*
X159368773Y-98180350D01*
X159267316Y-98097088D01*
X159184054Y-97995631D01*
X159154724Y-97959893D01*
X159145154Y-97941989D01*
X159071059Y-97803369D01*
X159053886Y-97746755D01*
X159019539Y-97633529D01*
X159002143Y-97456902D01*
X159019539Y-97280275D01*
X159071059Y-97110436D01*
X159071059Y-97110435D01*
X159154723Y-96953913D01*
X159154724Y-96953911D01*
X159184054Y-96918173D01*
X159267316Y-96816716D01*
X159368773Y-96733454D01*
X159404511Y-96704124D01*
X159422415Y-96694554D01*
X159561035Y-96620459D01*
X159617649Y-96603286D01*
X159730875Y-96568939D01*
X159802842Y-96561851D01*
X159863242Y-96555902D01*
X159951762Y-96555902D01*
X160012162Y-96561851D01*
X160012162Y-96561851D01*
G37*
G36*
X161808214Y-94765800D02*
X161880181Y-94772888D01*
X161993407Y-94807235D01*
X162050021Y-94824408D01*
X162188641Y-94898503D01*
X162206545Y-94908073D01*
X162242283Y-94937403D01*
X162343740Y-95020665D01*
X162427002Y-95122122D01*
X162456332Y-95157860D01*
X162456333Y-95157862D01*
X162539997Y-95314384D01*
X162539997Y-95314385D01*
X162591517Y-95484224D01*
X162608913Y-95660851D01*
X162591517Y-95837478D01*
X162557170Y-95950704D01*
X162539997Y-96007318D01*
X162465902Y-96145938D01*
X162456332Y-96163842D01*
X162427002Y-96199580D01*
X162343740Y-96301037D01*
X162242283Y-96384299D01*
X162206545Y-96413629D01*
X162206543Y-96413630D01*
X162050021Y-96497294D01*
X161993407Y-96514467D01*
X161880181Y-96548814D01*
X161813997Y-96555332D01*
X161747814Y-96561851D01*
X161659294Y-96561851D01*
X161593111Y-96555332D01*
X161526927Y-96548814D01*
X161413701Y-96514467D01*
X161357087Y-96497294D01*
X161200565Y-96413630D01*
X161200563Y-96413629D01*
X161164825Y-96384299D01*
X161063368Y-96301037D01*
X160980106Y-96199580D01*
X160950776Y-96163842D01*
X160941206Y-96145938D01*
X160867111Y-96007318D01*
X160849938Y-95950704D01*
X160815591Y-95837478D01*
X160798195Y-95660851D01*
X160815591Y-95484224D01*
X160867111Y-95314385D01*
X160867111Y-95314384D01*
X160950775Y-95157862D01*
X160950776Y-95157860D01*
X160980106Y-95122122D01*
X161063368Y-95020665D01*
X161164825Y-94937403D01*
X161200563Y-94908073D01*
X161218467Y-94898503D01*
X161357087Y-94824408D01*
X161413701Y-94807235D01*
X161526927Y-94772888D01*
X161598894Y-94765800D01*
X161659294Y-94759851D01*
X161747814Y-94759851D01*
X161808214Y-94765800D01*
X161808214Y-94765800D01*
G37*
G36*
X158216111Y-94765800D02*
X158288078Y-94772888D01*
X158401304Y-94807235D01*
X158457918Y-94824408D01*
X158596538Y-94898503D01*
X158614442Y-94908073D01*
X158650180Y-94937403D01*
X158751637Y-95020665D01*
X158834899Y-95122122D01*
X158864229Y-95157860D01*
X158864230Y-95157862D01*
X158947894Y-95314384D01*
X158947894Y-95314385D01*
X158999414Y-95484224D01*
X159016810Y-95660851D01*
X158999414Y-95837478D01*
X158965067Y-95950704D01*
X158947894Y-96007318D01*
X158873799Y-96145938D01*
X158864229Y-96163842D01*
X158834899Y-96199580D01*
X158751637Y-96301037D01*
X158650180Y-96384299D01*
X158614442Y-96413629D01*
X158614440Y-96413630D01*
X158457918Y-96497294D01*
X158401304Y-96514467D01*
X158288078Y-96548814D01*
X158221894Y-96555332D01*
X158155711Y-96561851D01*
X158067191Y-96561851D01*
X158001008Y-96555332D01*
X157934824Y-96548814D01*
X157821598Y-96514467D01*
X157764984Y-96497294D01*
X157608462Y-96413630D01*
X157608460Y-96413629D01*
X157572722Y-96384299D01*
X157471265Y-96301037D01*
X157388003Y-96199580D01*
X157358673Y-96163842D01*
X157349103Y-96145938D01*
X157275008Y-96007318D01*
X157257835Y-95950704D01*
X157223488Y-95837478D01*
X157206092Y-95660851D01*
X157223488Y-95484224D01*
X157275008Y-95314385D01*
X157275008Y-95314384D01*
X157358672Y-95157862D01*
X157358673Y-95157860D01*
X157388003Y-95122122D01*
X157471265Y-95020665D01*
X157572722Y-94937403D01*
X157608460Y-94908073D01*
X157626364Y-94898503D01*
X157764984Y-94824408D01*
X157821598Y-94807235D01*
X157934824Y-94772888D01*
X158006791Y-94765800D01*
X158067191Y-94759851D01*
X158155711Y-94759851D01*
X158216111Y-94765800D01*
X158216111Y-94765800D01*
G37*
G36*
X157589607Y-93864800D02*
X156315400Y-95139007D01*
X155041193Y-93864800D01*
X156315400Y-92590593D01*
X157589607Y-93864800D01*
X157589607Y-93864800D01*
G37*
G36*
X160012162Y-92969749D02*
X160084129Y-92976837D01*
X160197355Y-93011184D01*
X160253969Y-93028357D01*
X160392589Y-93102452D01*
X160410493Y-93112022D01*
X160446231Y-93141352D01*
X160547688Y-93224614D01*
X160630950Y-93326071D01*
X160660280Y-93361809D01*
X160660281Y-93361811D01*
X160743945Y-93518333D01*
X160743945Y-93518334D01*
X160795465Y-93688173D01*
X160812861Y-93864800D01*
X160795465Y-94041427D01*
X160761118Y-94154653D01*
X160743945Y-94211267D01*
X160669850Y-94349887D01*
X160660280Y-94367791D01*
X160630950Y-94403529D01*
X160547688Y-94504986D01*
X160446231Y-94588248D01*
X160410493Y-94617578D01*
X160410491Y-94617579D01*
X160253969Y-94701243D01*
X160197355Y-94718416D01*
X160084129Y-94752763D01*
X160017944Y-94759282D01*
X159951762Y-94765800D01*
X159863242Y-94765800D01*
X159797060Y-94759282D01*
X159730875Y-94752763D01*
X159617649Y-94718416D01*
X159561035Y-94701243D01*
X159404513Y-94617579D01*
X159404511Y-94617578D01*
X159368773Y-94588248D01*
X159267316Y-94504986D01*
X159184054Y-94403529D01*
X159154724Y-94367791D01*
X159145154Y-94349887D01*
X159071059Y-94211267D01*
X159053886Y-94154653D01*
X159019539Y-94041427D01*
X159002143Y-93864800D01*
X159019539Y-93688173D01*
X159071059Y-93518334D01*
X159071059Y-93518333D01*
X159154723Y-93361811D01*
X159154724Y-93361809D01*
X159184054Y-93326071D01*
X159267316Y-93224614D01*
X159368773Y-93141352D01*
X159404511Y-93112022D01*
X159422415Y-93102452D01*
X159561035Y-93028357D01*
X159617649Y-93011184D01*
X159730875Y-92976837D01*
X159802842Y-92969749D01*
X159863242Y-92963800D01*
X159951762Y-92963800D01*
X160012162Y-92969749D01*
X160012162Y-92969749D01*
G37*
G36*
X158221893Y-91174267D02*
X158288078Y-91180786D01*
X158401304Y-91215133D01*
X158457918Y-91232306D01*
X158596538Y-91306401D01*
X158614442Y-91315971D01*
X158650180Y-91345301D01*
X158751637Y-91428563D01*
X158834899Y-91530020D01*
X158864229Y-91565758D01*
X158864230Y-91565760D01*
X158947894Y-91722282D01*
X158947894Y-91722283D01*
X158999414Y-91892122D01*
X159016810Y-92068749D01*
X158999414Y-92245376D01*
X158965067Y-92358602D01*
X158947894Y-92415216D01*
X158873799Y-92553836D01*
X158864229Y-92571740D01*
X158848756Y-92590594D01*
X158751637Y-92708935D01*
X158650180Y-92792197D01*
X158614442Y-92821527D01*
X158614440Y-92821528D01*
X158457918Y-92905192D01*
X158401304Y-92922365D01*
X158288078Y-92956712D01*
X158221893Y-92963231D01*
X158155711Y-92969749D01*
X158067191Y-92969749D01*
X158001008Y-92963230D01*
X157934824Y-92956712D01*
X157821598Y-92922365D01*
X157764984Y-92905192D01*
X157608462Y-92821528D01*
X157608460Y-92821527D01*
X157572722Y-92792197D01*
X157471265Y-92708935D01*
X157374146Y-92590594D01*
X157358673Y-92571740D01*
X157349103Y-92553836D01*
X157275008Y-92415216D01*
X157257835Y-92358602D01*
X157223488Y-92245376D01*
X157206092Y-92068749D01*
X157223488Y-91892122D01*
X157275008Y-91722283D01*
X157275008Y-91722282D01*
X157358672Y-91565760D01*
X157358673Y-91565758D01*
X157388003Y-91530020D01*
X157471265Y-91428563D01*
X157572722Y-91345301D01*
X157608460Y-91315971D01*
X157626364Y-91306401D01*
X157764984Y-91232306D01*
X157821598Y-91215133D01*
X157934824Y-91180786D01*
X158001008Y-91174268D01*
X158067191Y-91167749D01*
X158155711Y-91167749D01*
X158221893Y-91174267D01*
X158221893Y-91174267D01*
G37*
G36*
X143446443Y-80219519D02*
X143512627Y-80226037D01*
X143625853Y-80260384D01*
X143682467Y-80277557D01*
X143821087Y-80351652D01*
X143838991Y-80361222D01*
X143874729Y-80390552D01*
X143976186Y-80473814D01*
X144059448Y-80575271D01*
X144088778Y-80611009D01*
X144088779Y-80611011D01*
X144172443Y-80767533D01*
X144172443Y-80767534D01*
X144223963Y-80937373D01*
X144241359Y-81114000D01*
X144223963Y-81290627D01*
X144189616Y-81403853D01*
X144172443Y-81460467D01*
X144098348Y-81599087D01*
X144088778Y-81616991D01*
X144059448Y-81652729D01*
X143976186Y-81754186D01*
X143874729Y-81837448D01*
X143838991Y-81866778D01*
X143838989Y-81866779D01*
X143682467Y-81950443D01*
X143625853Y-81967616D01*
X143512627Y-82001963D01*
X143446442Y-82008482D01*
X143380260Y-82015000D01*
X143291740Y-82015000D01*
X143225558Y-82008482D01*
X143159373Y-82001963D01*
X143046147Y-81967616D01*
X142989533Y-81950443D01*
X142833011Y-81866779D01*
X142833009Y-81866778D01*
X142797271Y-81837448D01*
X142695814Y-81754186D01*
X142612552Y-81652729D01*
X142583222Y-81616991D01*
X142573652Y-81599087D01*
X142499557Y-81460467D01*
X142482384Y-81403853D01*
X142448037Y-81290627D01*
X142430641Y-81114000D01*
X142448037Y-80937373D01*
X142499557Y-80767534D01*
X142499557Y-80767533D01*
X142583221Y-80611011D01*
X142583222Y-80611009D01*
X142612552Y-80575271D01*
X142695814Y-80473814D01*
X142797271Y-80390552D01*
X142833009Y-80361222D01*
X142850913Y-80351652D01*
X142989533Y-80277557D01*
X143046147Y-80260384D01*
X143159373Y-80226037D01*
X143225557Y-80219519D01*
X143291740Y-80213000D01*
X143380260Y-80213000D01*
X143446443Y-80219519D01*
X143446443Y-80219519D01*
G37*
G36*
X162017000Y-82015000D02*
X160215000Y-82015000D01*
X160215000Y-80213000D01*
X162017000Y-80213000D01*
X162017000Y-82015000D01*
X162017000Y-82015000D01*
G37*
G36*
X158686443Y-80219519D02*
X158752627Y-80226037D01*
X158865853Y-80260384D01*
X158922467Y-80277557D01*
X159061087Y-80351652D01*
X159078991Y-80361222D01*
X159114729Y-80390552D01*
X159216186Y-80473814D01*
X159299448Y-80575271D01*
X159328778Y-80611009D01*
X159328779Y-80611011D01*
X159412443Y-80767533D01*
X159412443Y-80767534D01*
X159463963Y-80937373D01*
X159481359Y-81114000D01*
X159463963Y-81290627D01*
X159429616Y-81403853D01*
X159412443Y-81460467D01*
X159338348Y-81599087D01*
X159328778Y-81616991D01*
X159299448Y-81652729D01*
X159216186Y-81754186D01*
X159114729Y-81837448D01*
X159078991Y-81866778D01*
X159078989Y-81866779D01*
X158922467Y-81950443D01*
X158865853Y-81967616D01*
X158752627Y-82001963D01*
X158686442Y-82008482D01*
X158620260Y-82015000D01*
X158531740Y-82015000D01*
X158465558Y-82008482D01*
X158399373Y-82001963D01*
X158286147Y-81967616D01*
X158229533Y-81950443D01*
X158073011Y-81866779D01*
X158073009Y-81866778D01*
X158037271Y-81837448D01*
X157935814Y-81754186D01*
X157852552Y-81652729D01*
X157823222Y-81616991D01*
X157813652Y-81599087D01*
X157739557Y-81460467D01*
X157722384Y-81403853D01*
X157688037Y-81290627D01*
X157670641Y-81114000D01*
X157688037Y-80937373D01*
X157739557Y-80767534D01*
X157739557Y-80767533D01*
X157823221Y-80611011D01*
X157823222Y-80611009D01*
X157852552Y-80575271D01*
X157935814Y-80473814D01*
X158037271Y-80390552D01*
X158073009Y-80361222D01*
X158090913Y-80351652D01*
X158229533Y-80277557D01*
X158286147Y-80260384D01*
X158399373Y-80226037D01*
X158465557Y-80219519D01*
X158531740Y-80213000D01*
X158620260Y-80213000D01*
X158686443Y-80219519D01*
X158686443Y-80219519D01*
G37*
G36*
X156146443Y-80219519D02*
X156212627Y-80226037D01*
X156325853Y-80260384D01*
X156382467Y-80277557D01*
X156521087Y-80351652D01*
X156538991Y-80361222D01*
X156574729Y-80390552D01*
X156676186Y-80473814D01*
X156759448Y-80575271D01*
X156788778Y-80611009D01*
X156788779Y-80611011D01*
X156872443Y-80767533D01*
X156872443Y-80767534D01*
X156923963Y-80937373D01*
X156941359Y-81114000D01*
X156923963Y-81290627D01*
X156889616Y-81403853D01*
X156872443Y-81460467D01*
X156798348Y-81599087D01*
X156788778Y-81616991D01*
X156759448Y-81652729D01*
X156676186Y-81754186D01*
X156574729Y-81837448D01*
X156538991Y-81866778D01*
X156538989Y-81866779D01*
X156382467Y-81950443D01*
X156325853Y-81967616D01*
X156212627Y-82001963D01*
X156146442Y-82008482D01*
X156080260Y-82015000D01*
X155991740Y-82015000D01*
X155925558Y-82008482D01*
X155859373Y-82001963D01*
X155746147Y-81967616D01*
X155689533Y-81950443D01*
X155533011Y-81866779D01*
X155533009Y-81866778D01*
X155497271Y-81837448D01*
X155395814Y-81754186D01*
X155312552Y-81652729D01*
X155283222Y-81616991D01*
X155273652Y-81599087D01*
X155199557Y-81460467D01*
X155182384Y-81403853D01*
X155148037Y-81290627D01*
X155130641Y-81114000D01*
X155148037Y-80937373D01*
X155199557Y-80767534D01*
X155199557Y-80767533D01*
X155283221Y-80611011D01*
X155283222Y-80611009D01*
X155312552Y-80575271D01*
X155395814Y-80473814D01*
X155497271Y-80390552D01*
X155533009Y-80361222D01*
X155550913Y-80351652D01*
X155689533Y-80277557D01*
X155746147Y-80260384D01*
X155859373Y-80226037D01*
X155925557Y-80219519D01*
X155991740Y-80213000D01*
X156080260Y-80213000D01*
X156146443Y-80219519D01*
X156146443Y-80219519D01*
G37*
G36*
X153606443Y-80219519D02*
X153672627Y-80226037D01*
X153785853Y-80260384D01*
X153842467Y-80277557D01*
X153981087Y-80351652D01*
X153998991Y-80361222D01*
X154034729Y-80390552D01*
X154136186Y-80473814D01*
X154219448Y-80575271D01*
X154248778Y-80611009D01*
X154248779Y-80611011D01*
X154332443Y-80767533D01*
X154332443Y-80767534D01*
X154383963Y-80937373D01*
X154401359Y-81114000D01*
X154383963Y-81290627D01*
X154349616Y-81403853D01*
X154332443Y-81460467D01*
X154258348Y-81599087D01*
X154248778Y-81616991D01*
X154219448Y-81652729D01*
X154136186Y-81754186D01*
X154034729Y-81837448D01*
X153998991Y-81866778D01*
X153998989Y-81866779D01*
X153842467Y-81950443D01*
X153785853Y-81967616D01*
X153672627Y-82001963D01*
X153606442Y-82008482D01*
X153540260Y-82015000D01*
X153451740Y-82015000D01*
X153385558Y-82008482D01*
X153319373Y-82001963D01*
X153206147Y-81967616D01*
X153149533Y-81950443D01*
X152993011Y-81866779D01*
X152993009Y-81866778D01*
X152957271Y-81837448D01*
X152855814Y-81754186D01*
X152772552Y-81652729D01*
X152743222Y-81616991D01*
X152733652Y-81599087D01*
X152659557Y-81460467D01*
X152642384Y-81403853D01*
X152608037Y-81290627D01*
X152590641Y-81114000D01*
X152608037Y-80937373D01*
X152659557Y-80767534D01*
X152659557Y-80767533D01*
X152743221Y-80611011D01*
X152743222Y-80611009D01*
X152772552Y-80575271D01*
X152855814Y-80473814D01*
X152957271Y-80390552D01*
X152993009Y-80361222D01*
X153010913Y-80351652D01*
X153149533Y-80277557D01*
X153206147Y-80260384D01*
X153319373Y-80226037D01*
X153385557Y-80219519D01*
X153451740Y-80213000D01*
X153540260Y-80213000D01*
X153606443Y-80219519D01*
X153606443Y-80219519D01*
G37*
G36*
X151066443Y-80219519D02*
X151132627Y-80226037D01*
X151245853Y-80260384D01*
X151302467Y-80277557D01*
X151441087Y-80351652D01*
X151458991Y-80361222D01*
X151494729Y-80390552D01*
X151596186Y-80473814D01*
X151679448Y-80575271D01*
X151708778Y-80611009D01*
X151708779Y-80611011D01*
X151792443Y-80767533D01*
X151792443Y-80767534D01*
X151843963Y-80937373D01*
X151861359Y-81114000D01*
X151843963Y-81290627D01*
X151809616Y-81403853D01*
X151792443Y-81460467D01*
X151718348Y-81599087D01*
X151708778Y-81616991D01*
X151679448Y-81652729D01*
X151596186Y-81754186D01*
X151494729Y-81837448D01*
X151458991Y-81866778D01*
X151458989Y-81866779D01*
X151302467Y-81950443D01*
X151245853Y-81967616D01*
X151132627Y-82001963D01*
X151066442Y-82008482D01*
X151000260Y-82015000D01*
X150911740Y-82015000D01*
X150845558Y-82008482D01*
X150779373Y-82001963D01*
X150666147Y-81967616D01*
X150609533Y-81950443D01*
X150453011Y-81866779D01*
X150453009Y-81866778D01*
X150417271Y-81837448D01*
X150315814Y-81754186D01*
X150232552Y-81652729D01*
X150203222Y-81616991D01*
X150193652Y-81599087D01*
X150119557Y-81460467D01*
X150102384Y-81403853D01*
X150068037Y-81290627D01*
X150050641Y-81114000D01*
X150068037Y-80937373D01*
X150119557Y-80767534D01*
X150119557Y-80767533D01*
X150203221Y-80611011D01*
X150203222Y-80611009D01*
X150232552Y-80575271D01*
X150315814Y-80473814D01*
X150417271Y-80390552D01*
X150453009Y-80361222D01*
X150470913Y-80351652D01*
X150609533Y-80277557D01*
X150666147Y-80260384D01*
X150779373Y-80226037D01*
X150845557Y-80219519D01*
X150911740Y-80213000D01*
X151000260Y-80213000D01*
X151066443Y-80219519D01*
X151066443Y-80219519D01*
G37*
G36*
X148526443Y-80219519D02*
X148592627Y-80226037D01*
X148705853Y-80260384D01*
X148762467Y-80277557D01*
X148901087Y-80351652D01*
X148918991Y-80361222D01*
X148954729Y-80390552D01*
X149056186Y-80473814D01*
X149139448Y-80575271D01*
X149168778Y-80611009D01*
X149168779Y-80611011D01*
X149252443Y-80767533D01*
X149252443Y-80767534D01*
X149303963Y-80937373D01*
X149321359Y-81114000D01*
X149303963Y-81290627D01*
X149269616Y-81403853D01*
X149252443Y-81460467D01*
X149178348Y-81599087D01*
X149168778Y-81616991D01*
X149139448Y-81652729D01*
X149056186Y-81754186D01*
X148954729Y-81837448D01*
X148918991Y-81866778D01*
X148918989Y-81866779D01*
X148762467Y-81950443D01*
X148705853Y-81967616D01*
X148592627Y-82001963D01*
X148526442Y-82008482D01*
X148460260Y-82015000D01*
X148371740Y-82015000D01*
X148305558Y-82008482D01*
X148239373Y-82001963D01*
X148126147Y-81967616D01*
X148069533Y-81950443D01*
X147913011Y-81866779D01*
X147913009Y-81866778D01*
X147877271Y-81837448D01*
X147775814Y-81754186D01*
X147692552Y-81652729D01*
X147663222Y-81616991D01*
X147653652Y-81599087D01*
X147579557Y-81460467D01*
X147562384Y-81403853D01*
X147528037Y-81290627D01*
X147510641Y-81114000D01*
X147528037Y-80937373D01*
X147579557Y-80767534D01*
X147579557Y-80767533D01*
X147663221Y-80611011D01*
X147663222Y-80611009D01*
X147692552Y-80575271D01*
X147775814Y-80473814D01*
X147877271Y-80390552D01*
X147913009Y-80361222D01*
X147930913Y-80351652D01*
X148069533Y-80277557D01*
X148126147Y-80260384D01*
X148239373Y-80226037D01*
X148305557Y-80219519D01*
X148371740Y-80213000D01*
X148460260Y-80213000D01*
X148526443Y-80219519D01*
X148526443Y-80219519D01*
G37*
G36*
X145986443Y-80219519D02*
X146052627Y-80226037D01*
X146165853Y-80260384D01*
X146222467Y-80277557D01*
X146361087Y-80351652D01*
X146378991Y-80361222D01*
X146414729Y-80390552D01*
X146516186Y-80473814D01*
X146599448Y-80575271D01*
X146628778Y-80611009D01*
X146628779Y-80611011D01*
X146712443Y-80767533D01*
X146712443Y-80767534D01*
X146763963Y-80937373D01*
X146781359Y-81114000D01*
X146763963Y-81290627D01*
X146729616Y-81403853D01*
X146712443Y-81460467D01*
X146638348Y-81599087D01*
X146628778Y-81616991D01*
X146599448Y-81652729D01*
X146516186Y-81754186D01*
X146414729Y-81837448D01*
X146378991Y-81866778D01*
X146378989Y-81866779D01*
X146222467Y-81950443D01*
X146165853Y-81967616D01*
X146052627Y-82001963D01*
X145986442Y-82008482D01*
X145920260Y-82015000D01*
X145831740Y-82015000D01*
X145765558Y-82008482D01*
X145699373Y-82001963D01*
X145586147Y-81967616D01*
X145529533Y-81950443D01*
X145373011Y-81866779D01*
X145373009Y-81866778D01*
X145337271Y-81837448D01*
X145235814Y-81754186D01*
X145152552Y-81652729D01*
X145123222Y-81616991D01*
X145113652Y-81599087D01*
X145039557Y-81460467D01*
X145022384Y-81403853D01*
X144988037Y-81290627D01*
X144970641Y-81114000D01*
X144988037Y-80937373D01*
X145039557Y-80767534D01*
X145039557Y-80767533D01*
X145123221Y-80611011D01*
X145123222Y-80611009D01*
X145152552Y-80575271D01*
X145235814Y-80473814D01*
X145337271Y-80390552D01*
X145373009Y-80361222D01*
X145390913Y-80351652D01*
X145529533Y-80277557D01*
X145586147Y-80260384D01*
X145699373Y-80226037D01*
X145765557Y-80219519D01*
X145831740Y-80213000D01*
X145920260Y-80213000D01*
X145986443Y-80219519D01*
X145986443Y-80219519D01*
G37*
G36*
X140906443Y-80219519D02*
X140972627Y-80226037D01*
X141085853Y-80260384D01*
X141142467Y-80277557D01*
X141281087Y-80351652D01*
X141298991Y-80361222D01*
X141334729Y-80390552D01*
X141436186Y-80473814D01*
X141519448Y-80575271D01*
X141548778Y-80611009D01*
X141548779Y-80611011D01*
X141632443Y-80767533D01*
X141632443Y-80767534D01*
X141683963Y-80937373D01*
X141701359Y-81114000D01*
X141683963Y-81290627D01*
X141649616Y-81403853D01*
X141632443Y-81460467D01*
X141558348Y-81599087D01*
X141548778Y-81616991D01*
X141519448Y-81652729D01*
X141436186Y-81754186D01*
X141334729Y-81837448D01*
X141298991Y-81866778D01*
X141298989Y-81866779D01*
X141142467Y-81950443D01*
X141085853Y-81967616D01*
X140972627Y-82001963D01*
X140906442Y-82008482D01*
X140840260Y-82015000D01*
X140751740Y-82015000D01*
X140685558Y-82008482D01*
X140619373Y-82001963D01*
X140506147Y-81967616D01*
X140449533Y-81950443D01*
X140293011Y-81866779D01*
X140293009Y-81866778D01*
X140257271Y-81837448D01*
X140155814Y-81754186D01*
X140072552Y-81652729D01*
X140043222Y-81616991D01*
X140033652Y-81599087D01*
X139959557Y-81460467D01*
X139942384Y-81403853D01*
X139908037Y-81290627D01*
X139890641Y-81114000D01*
X139908037Y-80937373D01*
X139959557Y-80767534D01*
X139959557Y-80767533D01*
X140043221Y-80611011D01*
X140043222Y-80611009D01*
X140072552Y-80575271D01*
X140155814Y-80473814D01*
X140257271Y-80390552D01*
X140293009Y-80361222D01*
X140310913Y-80351652D01*
X140449533Y-80277557D01*
X140506147Y-80260384D01*
X140619373Y-80226037D01*
X140685557Y-80219519D01*
X140751740Y-80213000D01*
X140840260Y-80213000D01*
X140906443Y-80219519D01*
X140906443Y-80219519D01*
G37*
G36*
X138366443Y-80219519D02*
X138432627Y-80226037D01*
X138545853Y-80260384D01*
X138602467Y-80277557D01*
X138741087Y-80351652D01*
X138758991Y-80361222D01*
X138794729Y-80390552D01*
X138896186Y-80473814D01*
X138979448Y-80575271D01*
X139008778Y-80611009D01*
X139008779Y-80611011D01*
X139092443Y-80767533D01*
X139092443Y-80767534D01*
X139143963Y-80937373D01*
X139161359Y-81114000D01*
X139143963Y-81290627D01*
X139109616Y-81403853D01*
X139092443Y-81460467D01*
X139018348Y-81599087D01*
X139008778Y-81616991D01*
X138979448Y-81652729D01*
X138896186Y-81754186D01*
X138794729Y-81837448D01*
X138758991Y-81866778D01*
X138758989Y-81866779D01*
X138602467Y-81950443D01*
X138545853Y-81967616D01*
X138432627Y-82001963D01*
X138366442Y-82008482D01*
X138300260Y-82015000D01*
X138211740Y-82015000D01*
X138145558Y-82008482D01*
X138079373Y-82001963D01*
X137966147Y-81967616D01*
X137909533Y-81950443D01*
X137753011Y-81866779D01*
X137753009Y-81866778D01*
X137717271Y-81837448D01*
X137615814Y-81754186D01*
X137532552Y-81652729D01*
X137503222Y-81616991D01*
X137493652Y-81599087D01*
X137419557Y-81460467D01*
X137402384Y-81403853D01*
X137368037Y-81290627D01*
X137350641Y-81114000D01*
X137368037Y-80937373D01*
X137419557Y-80767534D01*
X137419557Y-80767533D01*
X137503221Y-80611011D01*
X137503222Y-80611009D01*
X137532552Y-80575271D01*
X137615814Y-80473814D01*
X137717271Y-80390552D01*
X137753009Y-80361222D01*
X137770913Y-80351652D01*
X137909533Y-80277557D01*
X137966147Y-80260384D01*
X138079373Y-80226037D01*
X138145557Y-80219519D01*
X138211740Y-80213000D01*
X138300260Y-80213000D01*
X138366443Y-80219519D01*
X138366443Y-80219519D01*
G37*
G36*
X135826443Y-80219519D02*
X135892627Y-80226037D01*
X136005853Y-80260384D01*
X136062467Y-80277557D01*
X136201087Y-80351652D01*
X136218991Y-80361222D01*
X136254729Y-80390552D01*
X136356186Y-80473814D01*
X136439448Y-80575271D01*
X136468778Y-80611009D01*
X136468779Y-80611011D01*
X136552443Y-80767533D01*
X136552443Y-80767534D01*
X136603963Y-80937373D01*
X136621359Y-81114000D01*
X136603963Y-81290627D01*
X136569616Y-81403853D01*
X136552443Y-81460467D01*
X136478348Y-81599087D01*
X136468778Y-81616991D01*
X136439448Y-81652729D01*
X136356186Y-81754186D01*
X136254729Y-81837448D01*
X136218991Y-81866778D01*
X136218989Y-81866779D01*
X136062467Y-81950443D01*
X136005853Y-81967616D01*
X135892627Y-82001963D01*
X135826442Y-82008482D01*
X135760260Y-82015000D01*
X135671740Y-82015000D01*
X135605558Y-82008482D01*
X135539373Y-82001963D01*
X135426147Y-81967616D01*
X135369533Y-81950443D01*
X135213011Y-81866779D01*
X135213009Y-81866778D01*
X135177271Y-81837448D01*
X135075814Y-81754186D01*
X134992552Y-81652729D01*
X134963222Y-81616991D01*
X134953652Y-81599087D01*
X134879557Y-81460467D01*
X134862384Y-81403853D01*
X134828037Y-81290627D01*
X134810641Y-81114000D01*
X134828037Y-80937373D01*
X134879557Y-80767534D01*
X134879557Y-80767533D01*
X134963221Y-80611011D01*
X134963222Y-80611009D01*
X134992552Y-80575271D01*
X135075814Y-80473814D01*
X135177271Y-80390552D01*
X135213009Y-80361222D01*
X135230913Y-80351652D01*
X135369533Y-80277557D01*
X135426147Y-80260384D01*
X135539373Y-80226037D01*
X135605557Y-80219519D01*
X135671740Y-80213000D01*
X135760260Y-80213000D01*
X135826443Y-80219519D01*
X135826443Y-80219519D01*
G37*
G36*
X133286443Y-80219519D02*
X133352627Y-80226037D01*
X133465853Y-80260384D01*
X133522467Y-80277557D01*
X133661087Y-80351652D01*
X133678991Y-80361222D01*
X133714729Y-80390552D01*
X133816186Y-80473814D01*
X133899448Y-80575271D01*
X133928778Y-80611009D01*
X133928779Y-80611011D01*
X134012443Y-80767533D01*
X134012443Y-80767534D01*
X134063963Y-80937373D01*
X134081359Y-81114000D01*
X134063963Y-81290627D01*
X134029616Y-81403853D01*
X134012443Y-81460467D01*
X133938348Y-81599087D01*
X133928778Y-81616991D01*
X133899448Y-81652729D01*
X133816186Y-81754186D01*
X133714729Y-81837448D01*
X133678991Y-81866778D01*
X133678989Y-81866779D01*
X133522467Y-81950443D01*
X133465853Y-81967616D01*
X133352627Y-82001963D01*
X133286442Y-82008482D01*
X133220260Y-82015000D01*
X133131740Y-82015000D01*
X133065558Y-82008482D01*
X132999373Y-82001963D01*
X132886147Y-81967616D01*
X132829533Y-81950443D01*
X132673011Y-81866779D01*
X132673009Y-81866778D01*
X132637271Y-81837448D01*
X132535814Y-81754186D01*
X132452552Y-81652729D01*
X132423222Y-81616991D01*
X132413652Y-81599087D01*
X132339557Y-81460467D01*
X132322384Y-81403853D01*
X132288037Y-81290627D01*
X132270641Y-81114000D01*
X132288037Y-80937373D01*
X132339557Y-80767534D01*
X132339557Y-80767533D01*
X132423221Y-80611011D01*
X132423222Y-80611009D01*
X132452552Y-80575271D01*
X132535814Y-80473814D01*
X132637271Y-80390552D01*
X132673009Y-80361222D01*
X132690913Y-80351652D01*
X132829533Y-80277557D01*
X132886147Y-80260384D01*
X132999373Y-80226037D01*
X133065557Y-80219519D01*
X133131740Y-80213000D01*
X133220260Y-80213000D01*
X133286443Y-80219519D01*
X133286443Y-80219519D01*
G37*
G36*
X130746443Y-80219519D02*
X130812627Y-80226037D01*
X130925853Y-80260384D01*
X130982467Y-80277557D01*
X131121087Y-80351652D01*
X131138991Y-80361222D01*
X131174729Y-80390552D01*
X131276186Y-80473814D01*
X131359448Y-80575271D01*
X131388778Y-80611009D01*
X131388779Y-80611011D01*
X131472443Y-80767533D01*
X131472443Y-80767534D01*
X131523963Y-80937373D01*
X131541359Y-81114000D01*
X131523963Y-81290627D01*
X131489616Y-81403853D01*
X131472443Y-81460467D01*
X131398348Y-81599087D01*
X131388778Y-81616991D01*
X131359448Y-81652729D01*
X131276186Y-81754186D01*
X131174729Y-81837448D01*
X131138991Y-81866778D01*
X131138989Y-81866779D01*
X130982467Y-81950443D01*
X130925853Y-81967616D01*
X130812627Y-82001963D01*
X130746442Y-82008482D01*
X130680260Y-82015000D01*
X130591740Y-82015000D01*
X130525558Y-82008482D01*
X130459373Y-82001963D01*
X130346147Y-81967616D01*
X130289533Y-81950443D01*
X130133011Y-81866779D01*
X130133009Y-81866778D01*
X130097271Y-81837448D01*
X129995814Y-81754186D01*
X129912552Y-81652729D01*
X129883222Y-81616991D01*
X129873652Y-81599087D01*
X129799557Y-81460467D01*
X129782384Y-81403853D01*
X129748037Y-81290627D01*
X129730641Y-81114000D01*
X129748037Y-80937373D01*
X129799557Y-80767534D01*
X129799557Y-80767533D01*
X129883221Y-80611011D01*
X129883222Y-80611009D01*
X129912552Y-80575271D01*
X129995814Y-80473814D01*
X130097271Y-80390552D01*
X130133009Y-80361222D01*
X130150913Y-80351652D01*
X130289533Y-80277557D01*
X130346147Y-80260384D01*
X130459373Y-80226037D01*
X130525557Y-80219519D01*
X130591740Y-80213000D01*
X130680260Y-80213000D01*
X130746443Y-80219519D01*
X130746443Y-80219519D01*
G37*
G36*
X128206443Y-80219519D02*
X128272627Y-80226037D01*
X128385853Y-80260384D01*
X128442467Y-80277557D01*
X128581087Y-80351652D01*
X128598991Y-80361222D01*
X128634729Y-80390552D01*
X128736186Y-80473814D01*
X128819448Y-80575271D01*
X128848778Y-80611009D01*
X128848779Y-80611011D01*
X128932443Y-80767533D01*
X128932443Y-80767534D01*
X128983963Y-80937373D01*
X129001359Y-81114000D01*
X128983963Y-81290627D01*
X128949616Y-81403853D01*
X128932443Y-81460467D01*
X128858348Y-81599087D01*
X128848778Y-81616991D01*
X128819448Y-81652729D01*
X128736186Y-81754186D01*
X128634729Y-81837448D01*
X128598991Y-81866778D01*
X128598989Y-81866779D01*
X128442467Y-81950443D01*
X128385853Y-81967616D01*
X128272627Y-82001963D01*
X128206442Y-82008482D01*
X128140260Y-82015000D01*
X128051740Y-82015000D01*
X127985558Y-82008482D01*
X127919373Y-82001963D01*
X127806147Y-81967616D01*
X127749533Y-81950443D01*
X127593011Y-81866779D01*
X127593009Y-81866778D01*
X127557271Y-81837448D01*
X127455814Y-81754186D01*
X127372552Y-81652729D01*
X127343222Y-81616991D01*
X127333652Y-81599087D01*
X127259557Y-81460467D01*
X127242384Y-81403853D01*
X127208037Y-81290627D01*
X127190641Y-81114000D01*
X127208037Y-80937373D01*
X127259557Y-80767534D01*
X127259557Y-80767533D01*
X127343221Y-80611011D01*
X127343222Y-80611009D01*
X127372552Y-80575271D01*
X127455814Y-80473814D01*
X127557271Y-80390552D01*
X127593009Y-80361222D01*
X127610913Y-80351652D01*
X127749533Y-80277557D01*
X127806147Y-80260384D01*
X127919373Y-80226037D01*
X127985557Y-80219519D01*
X128051740Y-80213000D01*
X128140260Y-80213000D01*
X128206443Y-80219519D01*
X128206443Y-80219519D01*
G37*
G36*
X125666443Y-80219519D02*
X125732627Y-80226037D01*
X125845853Y-80260384D01*
X125902467Y-80277557D01*
X126041087Y-80351652D01*
X126058991Y-80361222D01*
X126094729Y-80390552D01*
X126196186Y-80473814D01*
X126279448Y-80575271D01*
X126308778Y-80611009D01*
X126308779Y-80611011D01*
X126392443Y-80767533D01*
X126392443Y-80767534D01*
X126443963Y-80937373D01*
X126461359Y-81114000D01*
X126443963Y-81290627D01*
X126409616Y-81403853D01*
X126392443Y-81460467D01*
X126318348Y-81599087D01*
X126308778Y-81616991D01*
X126279448Y-81652729D01*
X126196186Y-81754186D01*
X126094729Y-81837448D01*
X126058991Y-81866778D01*
X126058989Y-81866779D01*
X125902467Y-81950443D01*
X125845853Y-81967616D01*
X125732627Y-82001963D01*
X125666442Y-82008482D01*
X125600260Y-82015000D01*
X125511740Y-82015000D01*
X125445558Y-82008482D01*
X125379373Y-82001963D01*
X125266147Y-81967616D01*
X125209533Y-81950443D01*
X125053011Y-81866779D01*
X125053009Y-81866778D01*
X125017271Y-81837448D01*
X124915814Y-81754186D01*
X124832552Y-81652729D01*
X124803222Y-81616991D01*
X124793652Y-81599087D01*
X124719557Y-81460467D01*
X124702384Y-81403853D01*
X124668037Y-81290627D01*
X124650641Y-81114000D01*
X124668037Y-80937373D01*
X124719557Y-80767534D01*
X124719557Y-80767533D01*
X124803221Y-80611011D01*
X124803222Y-80611009D01*
X124832552Y-80575271D01*
X124915814Y-80473814D01*
X125017271Y-80390552D01*
X125053009Y-80361222D01*
X125070913Y-80351652D01*
X125209533Y-80277557D01*
X125266147Y-80260384D01*
X125379373Y-80226037D01*
X125445557Y-80219519D01*
X125511740Y-80213000D01*
X125600260Y-80213000D01*
X125666443Y-80219519D01*
X125666443Y-80219519D01*
G37*
G36*
X143446443Y-77679519D02*
X143512627Y-77686037D01*
X143625853Y-77720384D01*
X143682467Y-77737557D01*
X143821087Y-77811652D01*
X143838991Y-77821222D01*
X143874729Y-77850552D01*
X143976186Y-77933814D01*
X144059448Y-78035271D01*
X144088778Y-78071009D01*
X144088779Y-78071011D01*
X144172443Y-78227533D01*
X144172443Y-78227534D01*
X144223963Y-78397373D01*
X144241359Y-78574000D01*
X144223963Y-78750627D01*
X144189616Y-78863853D01*
X144172443Y-78920467D01*
X144098348Y-79059087D01*
X144088778Y-79076991D01*
X144059448Y-79112729D01*
X143976186Y-79214186D01*
X143874729Y-79297448D01*
X143838991Y-79326778D01*
X143838989Y-79326779D01*
X143682467Y-79410443D01*
X143625853Y-79427616D01*
X143512627Y-79461963D01*
X143446443Y-79468481D01*
X143380260Y-79475000D01*
X143291740Y-79475000D01*
X143225557Y-79468481D01*
X143159373Y-79461963D01*
X143046147Y-79427616D01*
X142989533Y-79410443D01*
X142833011Y-79326779D01*
X142833009Y-79326778D01*
X142797271Y-79297448D01*
X142695814Y-79214186D01*
X142612552Y-79112729D01*
X142583222Y-79076991D01*
X142573652Y-79059087D01*
X142499557Y-78920467D01*
X142482384Y-78863853D01*
X142448037Y-78750627D01*
X142430641Y-78574000D01*
X142448037Y-78397373D01*
X142499557Y-78227534D01*
X142499557Y-78227533D01*
X142583221Y-78071011D01*
X142583222Y-78071009D01*
X142612552Y-78035271D01*
X142695814Y-77933814D01*
X142797271Y-77850552D01*
X142833009Y-77821222D01*
X142850913Y-77811652D01*
X142989533Y-77737557D01*
X143046147Y-77720384D01*
X143159373Y-77686037D01*
X143225557Y-77679519D01*
X143291740Y-77673000D01*
X143380260Y-77673000D01*
X143446443Y-77679519D01*
X143446443Y-77679519D01*
G37*
G36*
X145986443Y-77679519D02*
X146052627Y-77686037D01*
X146165853Y-77720384D01*
X146222467Y-77737557D01*
X146361087Y-77811652D01*
X146378991Y-77821222D01*
X146414729Y-77850552D01*
X146516186Y-77933814D01*
X146599448Y-78035271D01*
X146628778Y-78071009D01*
X146628779Y-78071011D01*
X146712443Y-78227533D01*
X146712443Y-78227534D01*
X146763963Y-78397373D01*
X146781359Y-78574000D01*
X146763963Y-78750627D01*
X146729616Y-78863853D01*
X146712443Y-78920467D01*
X146638348Y-79059087D01*
X146628778Y-79076991D01*
X146599448Y-79112729D01*
X146516186Y-79214186D01*
X146414729Y-79297448D01*
X146378991Y-79326778D01*
X146378989Y-79326779D01*
X146222467Y-79410443D01*
X146165853Y-79427616D01*
X146052627Y-79461963D01*
X145986443Y-79468481D01*
X145920260Y-79475000D01*
X145831740Y-79475000D01*
X145765557Y-79468481D01*
X145699373Y-79461963D01*
X145586147Y-79427616D01*
X145529533Y-79410443D01*
X145373011Y-79326779D01*
X145373009Y-79326778D01*
X145337271Y-79297448D01*
X145235814Y-79214186D01*
X145152552Y-79112729D01*
X145123222Y-79076991D01*
X145113652Y-79059087D01*
X145039557Y-78920467D01*
X145022384Y-78863853D01*
X144988037Y-78750627D01*
X144970641Y-78574000D01*
X144988037Y-78397373D01*
X145039557Y-78227534D01*
X145039557Y-78227533D01*
X145123221Y-78071011D01*
X145123222Y-78071009D01*
X145152552Y-78035271D01*
X145235814Y-77933814D01*
X145337271Y-77850552D01*
X145373009Y-77821222D01*
X145390913Y-77811652D01*
X145529533Y-77737557D01*
X145586147Y-77720384D01*
X145699373Y-77686037D01*
X145765557Y-77679519D01*
X145831740Y-77673000D01*
X145920260Y-77673000D01*
X145986443Y-77679519D01*
X145986443Y-77679519D01*
G37*
G36*
X140906443Y-77679519D02*
X140972627Y-77686037D01*
X141085853Y-77720384D01*
X141142467Y-77737557D01*
X141281087Y-77811652D01*
X141298991Y-77821222D01*
X141334729Y-77850552D01*
X141436186Y-77933814D01*
X141519448Y-78035271D01*
X141548778Y-78071009D01*
X141548779Y-78071011D01*
X141632443Y-78227533D01*
X141632443Y-78227534D01*
X141683963Y-78397373D01*
X141701359Y-78574000D01*
X141683963Y-78750627D01*
X141649616Y-78863853D01*
X141632443Y-78920467D01*
X141558348Y-79059087D01*
X141548778Y-79076991D01*
X141519448Y-79112729D01*
X141436186Y-79214186D01*
X141334729Y-79297448D01*
X141298991Y-79326778D01*
X141298989Y-79326779D01*
X141142467Y-79410443D01*
X141085853Y-79427616D01*
X140972627Y-79461963D01*
X140906443Y-79468481D01*
X140840260Y-79475000D01*
X140751740Y-79475000D01*
X140685557Y-79468481D01*
X140619373Y-79461963D01*
X140506147Y-79427616D01*
X140449533Y-79410443D01*
X140293011Y-79326779D01*
X140293009Y-79326778D01*
X140257271Y-79297448D01*
X140155814Y-79214186D01*
X140072552Y-79112729D01*
X140043222Y-79076991D01*
X140033652Y-79059087D01*
X139959557Y-78920467D01*
X139942384Y-78863853D01*
X139908037Y-78750627D01*
X139890641Y-78574000D01*
X139908037Y-78397373D01*
X139959557Y-78227534D01*
X139959557Y-78227533D01*
X140043221Y-78071011D01*
X140043222Y-78071009D01*
X140072552Y-78035271D01*
X140155814Y-77933814D01*
X140257271Y-77850552D01*
X140293009Y-77821222D01*
X140310913Y-77811652D01*
X140449533Y-77737557D01*
X140506147Y-77720384D01*
X140619373Y-77686037D01*
X140685557Y-77679519D01*
X140751740Y-77673000D01*
X140840260Y-77673000D01*
X140906443Y-77679519D01*
X140906443Y-77679519D01*
G37*
G36*
X148526443Y-77679519D02*
X148592627Y-77686037D01*
X148705853Y-77720384D01*
X148762467Y-77737557D01*
X148901087Y-77811652D01*
X148918991Y-77821222D01*
X148954729Y-77850552D01*
X149056186Y-77933814D01*
X149139448Y-78035271D01*
X149168778Y-78071009D01*
X149168779Y-78071011D01*
X149252443Y-78227533D01*
X149252443Y-78227534D01*
X149303963Y-78397373D01*
X149321359Y-78574000D01*
X149303963Y-78750627D01*
X149269616Y-78863853D01*
X149252443Y-78920467D01*
X149178348Y-79059087D01*
X149168778Y-79076991D01*
X149139448Y-79112729D01*
X149056186Y-79214186D01*
X148954729Y-79297448D01*
X148918991Y-79326778D01*
X148918989Y-79326779D01*
X148762467Y-79410443D01*
X148705853Y-79427616D01*
X148592627Y-79461963D01*
X148526443Y-79468481D01*
X148460260Y-79475000D01*
X148371740Y-79475000D01*
X148305557Y-79468481D01*
X148239373Y-79461963D01*
X148126147Y-79427616D01*
X148069533Y-79410443D01*
X147913011Y-79326779D01*
X147913009Y-79326778D01*
X147877271Y-79297448D01*
X147775814Y-79214186D01*
X147692552Y-79112729D01*
X147663222Y-79076991D01*
X147653652Y-79059087D01*
X147579557Y-78920467D01*
X147562384Y-78863853D01*
X147528037Y-78750627D01*
X147510641Y-78574000D01*
X147528037Y-78397373D01*
X147579557Y-78227534D01*
X147579557Y-78227533D01*
X147663221Y-78071011D01*
X147663222Y-78071009D01*
X147692552Y-78035271D01*
X147775814Y-77933814D01*
X147877271Y-77850552D01*
X147913009Y-77821222D01*
X147930913Y-77811652D01*
X148069533Y-77737557D01*
X148126147Y-77720384D01*
X148239373Y-77686037D01*
X148305557Y-77679519D01*
X148371740Y-77673000D01*
X148460260Y-77673000D01*
X148526443Y-77679519D01*
X148526443Y-77679519D01*
G37*
G36*
X138366443Y-77679519D02*
X138432627Y-77686037D01*
X138545853Y-77720384D01*
X138602467Y-77737557D01*
X138741087Y-77811652D01*
X138758991Y-77821222D01*
X138794729Y-77850552D01*
X138896186Y-77933814D01*
X138979448Y-78035271D01*
X139008778Y-78071009D01*
X139008779Y-78071011D01*
X139092443Y-78227533D01*
X139092443Y-78227534D01*
X139143963Y-78397373D01*
X139161359Y-78574000D01*
X139143963Y-78750627D01*
X139109616Y-78863853D01*
X139092443Y-78920467D01*
X139018348Y-79059087D01*
X139008778Y-79076991D01*
X138979448Y-79112729D01*
X138896186Y-79214186D01*
X138794729Y-79297448D01*
X138758991Y-79326778D01*
X138758989Y-79326779D01*
X138602467Y-79410443D01*
X138545853Y-79427616D01*
X138432627Y-79461963D01*
X138366443Y-79468481D01*
X138300260Y-79475000D01*
X138211740Y-79475000D01*
X138145557Y-79468481D01*
X138079373Y-79461963D01*
X137966147Y-79427616D01*
X137909533Y-79410443D01*
X137753011Y-79326779D01*
X137753009Y-79326778D01*
X137717271Y-79297448D01*
X137615814Y-79214186D01*
X137532552Y-79112729D01*
X137503222Y-79076991D01*
X137493652Y-79059087D01*
X137419557Y-78920467D01*
X137402384Y-78863853D01*
X137368037Y-78750627D01*
X137350641Y-78574000D01*
X137368037Y-78397373D01*
X137419557Y-78227534D01*
X137419557Y-78227533D01*
X137503221Y-78071011D01*
X137503222Y-78071009D01*
X137532552Y-78035271D01*
X137615814Y-77933814D01*
X137717271Y-77850552D01*
X137753009Y-77821222D01*
X137770913Y-77811652D01*
X137909533Y-77737557D01*
X137966147Y-77720384D01*
X138079373Y-77686037D01*
X138145557Y-77679519D01*
X138211740Y-77673000D01*
X138300260Y-77673000D01*
X138366443Y-77679519D01*
X138366443Y-77679519D01*
G37*
G36*
X151066443Y-77679519D02*
X151132627Y-77686037D01*
X151245853Y-77720384D01*
X151302467Y-77737557D01*
X151441087Y-77811652D01*
X151458991Y-77821222D01*
X151494729Y-77850552D01*
X151596186Y-77933814D01*
X151679448Y-78035271D01*
X151708778Y-78071009D01*
X151708779Y-78071011D01*
X151792443Y-78227533D01*
X151792443Y-78227534D01*
X151843963Y-78397373D01*
X151861359Y-78574000D01*
X151843963Y-78750627D01*
X151809616Y-78863853D01*
X151792443Y-78920467D01*
X151718348Y-79059087D01*
X151708778Y-79076991D01*
X151679448Y-79112729D01*
X151596186Y-79214186D01*
X151494729Y-79297448D01*
X151458991Y-79326778D01*
X151458989Y-79326779D01*
X151302467Y-79410443D01*
X151245853Y-79427616D01*
X151132627Y-79461963D01*
X151066443Y-79468481D01*
X151000260Y-79475000D01*
X150911740Y-79475000D01*
X150845557Y-79468481D01*
X150779373Y-79461963D01*
X150666147Y-79427616D01*
X150609533Y-79410443D01*
X150453011Y-79326779D01*
X150453009Y-79326778D01*
X150417271Y-79297448D01*
X150315814Y-79214186D01*
X150232552Y-79112729D01*
X150203222Y-79076991D01*
X150193652Y-79059087D01*
X150119557Y-78920467D01*
X150102384Y-78863853D01*
X150068037Y-78750627D01*
X150050641Y-78574000D01*
X150068037Y-78397373D01*
X150119557Y-78227534D01*
X150119557Y-78227533D01*
X150203221Y-78071011D01*
X150203222Y-78071009D01*
X150232552Y-78035271D01*
X150315814Y-77933814D01*
X150417271Y-77850552D01*
X150453009Y-77821222D01*
X150470913Y-77811652D01*
X150609533Y-77737557D01*
X150666147Y-77720384D01*
X150779373Y-77686037D01*
X150845557Y-77679519D01*
X150911740Y-77673000D01*
X151000260Y-77673000D01*
X151066443Y-77679519D01*
X151066443Y-77679519D01*
G37*
G36*
X135826443Y-77679519D02*
X135892627Y-77686037D01*
X136005853Y-77720384D01*
X136062467Y-77737557D01*
X136201087Y-77811652D01*
X136218991Y-77821222D01*
X136254729Y-77850552D01*
X136356186Y-77933814D01*
X136439448Y-78035271D01*
X136468778Y-78071009D01*
X136468779Y-78071011D01*
X136552443Y-78227533D01*
X136552443Y-78227534D01*
X136603963Y-78397373D01*
X136621359Y-78574000D01*
X136603963Y-78750627D01*
X136569616Y-78863853D01*
X136552443Y-78920467D01*
X136478348Y-79059087D01*
X136468778Y-79076991D01*
X136439448Y-79112729D01*
X136356186Y-79214186D01*
X136254729Y-79297448D01*
X136218991Y-79326778D01*
X136218989Y-79326779D01*
X136062467Y-79410443D01*
X136005853Y-79427616D01*
X135892627Y-79461963D01*
X135826443Y-79468481D01*
X135760260Y-79475000D01*
X135671740Y-79475000D01*
X135605557Y-79468481D01*
X135539373Y-79461963D01*
X135426147Y-79427616D01*
X135369533Y-79410443D01*
X135213011Y-79326779D01*
X135213009Y-79326778D01*
X135177271Y-79297448D01*
X135075814Y-79214186D01*
X134992552Y-79112729D01*
X134963222Y-79076991D01*
X134953652Y-79059087D01*
X134879557Y-78920467D01*
X134862384Y-78863853D01*
X134828037Y-78750627D01*
X134810641Y-78574000D01*
X134828037Y-78397373D01*
X134879557Y-78227534D01*
X134879557Y-78227533D01*
X134963221Y-78071011D01*
X134963222Y-78071009D01*
X134992552Y-78035271D01*
X135075814Y-77933814D01*
X135177271Y-77850552D01*
X135213009Y-77821222D01*
X135230913Y-77811652D01*
X135369533Y-77737557D01*
X135426147Y-77720384D01*
X135539373Y-77686037D01*
X135605557Y-77679519D01*
X135671740Y-77673000D01*
X135760260Y-77673000D01*
X135826443Y-77679519D01*
X135826443Y-77679519D01*
G37*
G36*
X153606443Y-77679519D02*
X153672627Y-77686037D01*
X153785853Y-77720384D01*
X153842467Y-77737557D01*
X153981087Y-77811652D01*
X153998991Y-77821222D01*
X154034729Y-77850552D01*
X154136186Y-77933814D01*
X154219448Y-78035271D01*
X154248778Y-78071009D01*
X154248779Y-78071011D01*
X154332443Y-78227533D01*
X154332443Y-78227534D01*
X154383963Y-78397373D01*
X154401359Y-78574000D01*
X154383963Y-78750627D01*
X154349616Y-78863853D01*
X154332443Y-78920467D01*
X154258348Y-79059087D01*
X154248778Y-79076991D01*
X154219448Y-79112729D01*
X154136186Y-79214186D01*
X154034729Y-79297448D01*
X153998991Y-79326778D01*
X153998989Y-79326779D01*
X153842467Y-79410443D01*
X153785853Y-79427616D01*
X153672627Y-79461963D01*
X153606443Y-79468481D01*
X153540260Y-79475000D01*
X153451740Y-79475000D01*
X153385557Y-79468481D01*
X153319373Y-79461963D01*
X153206147Y-79427616D01*
X153149533Y-79410443D01*
X152993011Y-79326779D01*
X152993009Y-79326778D01*
X152957271Y-79297448D01*
X152855814Y-79214186D01*
X152772552Y-79112729D01*
X152743222Y-79076991D01*
X152733652Y-79059087D01*
X152659557Y-78920467D01*
X152642384Y-78863853D01*
X152608037Y-78750627D01*
X152590641Y-78574000D01*
X152608037Y-78397373D01*
X152659557Y-78227534D01*
X152659557Y-78227533D01*
X152743221Y-78071011D01*
X152743222Y-78071009D01*
X152772552Y-78035271D01*
X152855814Y-77933814D01*
X152957271Y-77850552D01*
X152993009Y-77821222D01*
X153010913Y-77811652D01*
X153149533Y-77737557D01*
X153206147Y-77720384D01*
X153319373Y-77686037D01*
X153385557Y-77679519D01*
X153451740Y-77673000D01*
X153540260Y-77673000D01*
X153606443Y-77679519D01*
X153606443Y-77679519D01*
G37*
G36*
X133286443Y-77679519D02*
X133352627Y-77686037D01*
X133465853Y-77720384D01*
X133522467Y-77737557D01*
X133661087Y-77811652D01*
X133678991Y-77821222D01*
X133714729Y-77850552D01*
X133816186Y-77933814D01*
X133899448Y-78035271D01*
X133928778Y-78071009D01*
X133928779Y-78071011D01*
X134012443Y-78227533D01*
X134012443Y-78227534D01*
X134063963Y-78397373D01*
X134081359Y-78574000D01*
X134063963Y-78750627D01*
X134029616Y-78863853D01*
X134012443Y-78920467D01*
X133938348Y-79059087D01*
X133928778Y-79076991D01*
X133899448Y-79112729D01*
X133816186Y-79214186D01*
X133714729Y-79297448D01*
X133678991Y-79326778D01*
X133678989Y-79326779D01*
X133522467Y-79410443D01*
X133465853Y-79427616D01*
X133352627Y-79461963D01*
X133286443Y-79468481D01*
X133220260Y-79475000D01*
X133131740Y-79475000D01*
X133065557Y-79468481D01*
X132999373Y-79461963D01*
X132886147Y-79427616D01*
X132829533Y-79410443D01*
X132673011Y-79326779D01*
X132673009Y-79326778D01*
X132637271Y-79297448D01*
X132535814Y-79214186D01*
X132452552Y-79112729D01*
X132423222Y-79076991D01*
X132413652Y-79059087D01*
X132339557Y-78920467D01*
X132322384Y-78863853D01*
X132288037Y-78750627D01*
X132270641Y-78574000D01*
X132288037Y-78397373D01*
X132339557Y-78227534D01*
X132339557Y-78227533D01*
X132423221Y-78071011D01*
X132423222Y-78071009D01*
X132452552Y-78035271D01*
X132535814Y-77933814D01*
X132637271Y-77850552D01*
X132673009Y-77821222D01*
X132690913Y-77811652D01*
X132829533Y-77737557D01*
X132886147Y-77720384D01*
X132999373Y-77686037D01*
X133065557Y-77679519D01*
X133131740Y-77673000D01*
X133220260Y-77673000D01*
X133286443Y-77679519D01*
X133286443Y-77679519D01*
G37*
G36*
X156146443Y-77679519D02*
X156212627Y-77686037D01*
X156325853Y-77720384D01*
X156382467Y-77737557D01*
X156521087Y-77811652D01*
X156538991Y-77821222D01*
X156574729Y-77850552D01*
X156676186Y-77933814D01*
X156759448Y-78035271D01*
X156788778Y-78071009D01*
X156788779Y-78071011D01*
X156872443Y-78227533D01*
X156872443Y-78227534D01*
X156923963Y-78397373D01*
X156941359Y-78574000D01*
X156923963Y-78750627D01*
X156889616Y-78863853D01*
X156872443Y-78920467D01*
X156798348Y-79059087D01*
X156788778Y-79076991D01*
X156759448Y-79112729D01*
X156676186Y-79214186D01*
X156574729Y-79297448D01*
X156538991Y-79326778D01*
X156538989Y-79326779D01*
X156382467Y-79410443D01*
X156325853Y-79427616D01*
X156212627Y-79461963D01*
X156146443Y-79468481D01*
X156080260Y-79475000D01*
X155991740Y-79475000D01*
X155925557Y-79468481D01*
X155859373Y-79461963D01*
X155746147Y-79427616D01*
X155689533Y-79410443D01*
X155533011Y-79326779D01*
X155533009Y-79326778D01*
X155497271Y-79297448D01*
X155395814Y-79214186D01*
X155312552Y-79112729D01*
X155283222Y-79076991D01*
X155273652Y-79059087D01*
X155199557Y-78920467D01*
X155182384Y-78863853D01*
X155148037Y-78750627D01*
X155130641Y-78574000D01*
X155148037Y-78397373D01*
X155199557Y-78227534D01*
X155199557Y-78227533D01*
X155283221Y-78071011D01*
X155283222Y-78071009D01*
X155312552Y-78035271D01*
X155395814Y-77933814D01*
X155497271Y-77850552D01*
X155533009Y-77821222D01*
X155550913Y-77811652D01*
X155689533Y-77737557D01*
X155746147Y-77720384D01*
X155859373Y-77686037D01*
X155925557Y-77679519D01*
X155991740Y-77673000D01*
X156080260Y-77673000D01*
X156146443Y-77679519D01*
X156146443Y-77679519D01*
G37*
G36*
X130746443Y-77679519D02*
X130812627Y-77686037D01*
X130925853Y-77720384D01*
X130982467Y-77737557D01*
X131121087Y-77811652D01*
X131138991Y-77821222D01*
X131174729Y-77850552D01*
X131276186Y-77933814D01*
X131359448Y-78035271D01*
X131388778Y-78071009D01*
X131388779Y-78071011D01*
X131472443Y-78227533D01*
X131472443Y-78227534D01*
X131523963Y-78397373D01*
X131541359Y-78574000D01*
X131523963Y-78750627D01*
X131489616Y-78863853D01*
X131472443Y-78920467D01*
X131398348Y-79059087D01*
X131388778Y-79076991D01*
X131359448Y-79112729D01*
X131276186Y-79214186D01*
X131174729Y-79297448D01*
X131138991Y-79326778D01*
X131138989Y-79326779D01*
X130982467Y-79410443D01*
X130925853Y-79427616D01*
X130812627Y-79461963D01*
X130746443Y-79468481D01*
X130680260Y-79475000D01*
X130591740Y-79475000D01*
X130525557Y-79468481D01*
X130459373Y-79461963D01*
X130346147Y-79427616D01*
X130289533Y-79410443D01*
X130133011Y-79326779D01*
X130133009Y-79326778D01*
X130097271Y-79297448D01*
X129995814Y-79214186D01*
X129912552Y-79112729D01*
X129883222Y-79076991D01*
X129873652Y-79059087D01*
X129799557Y-78920467D01*
X129782384Y-78863853D01*
X129748037Y-78750627D01*
X129730641Y-78574000D01*
X129748037Y-78397373D01*
X129799557Y-78227534D01*
X129799557Y-78227533D01*
X129883221Y-78071011D01*
X129883222Y-78071009D01*
X129912552Y-78035271D01*
X129995814Y-77933814D01*
X130097271Y-77850552D01*
X130133009Y-77821222D01*
X130150913Y-77811652D01*
X130289533Y-77737557D01*
X130346147Y-77720384D01*
X130459373Y-77686037D01*
X130525557Y-77679519D01*
X130591740Y-77673000D01*
X130680260Y-77673000D01*
X130746443Y-77679519D01*
X130746443Y-77679519D01*
G37*
G36*
X158686443Y-77679519D02*
X158752627Y-77686037D01*
X158865853Y-77720384D01*
X158922467Y-77737557D01*
X159061087Y-77811652D01*
X159078991Y-77821222D01*
X159114729Y-77850552D01*
X159216186Y-77933814D01*
X159299448Y-78035271D01*
X159328778Y-78071009D01*
X159328779Y-78071011D01*
X159412443Y-78227533D01*
X159412443Y-78227534D01*
X159463963Y-78397373D01*
X159481359Y-78574000D01*
X159463963Y-78750627D01*
X159429616Y-78863853D01*
X159412443Y-78920467D01*
X159338348Y-79059087D01*
X159328778Y-79076991D01*
X159299448Y-79112729D01*
X159216186Y-79214186D01*
X159114729Y-79297448D01*
X159078991Y-79326778D01*
X159078989Y-79326779D01*
X158922467Y-79410443D01*
X158865853Y-79427616D01*
X158752627Y-79461963D01*
X158686443Y-79468481D01*
X158620260Y-79475000D01*
X158531740Y-79475000D01*
X158465557Y-79468481D01*
X158399373Y-79461963D01*
X158286147Y-79427616D01*
X158229533Y-79410443D01*
X158073011Y-79326779D01*
X158073009Y-79326778D01*
X158037271Y-79297448D01*
X157935814Y-79214186D01*
X157852552Y-79112729D01*
X157823222Y-79076991D01*
X157813652Y-79059087D01*
X157739557Y-78920467D01*
X157722384Y-78863853D01*
X157688037Y-78750627D01*
X157670641Y-78574000D01*
X157688037Y-78397373D01*
X157739557Y-78227534D01*
X157739557Y-78227533D01*
X157823221Y-78071011D01*
X157823222Y-78071009D01*
X157852552Y-78035271D01*
X157935814Y-77933814D01*
X158037271Y-77850552D01*
X158073009Y-77821222D01*
X158090913Y-77811652D01*
X158229533Y-77737557D01*
X158286147Y-77720384D01*
X158399373Y-77686037D01*
X158465557Y-77679519D01*
X158531740Y-77673000D01*
X158620260Y-77673000D01*
X158686443Y-77679519D01*
X158686443Y-77679519D01*
G37*
G36*
X128206443Y-77679519D02*
X128272627Y-77686037D01*
X128385853Y-77720384D01*
X128442467Y-77737557D01*
X128581087Y-77811652D01*
X128598991Y-77821222D01*
X128634729Y-77850552D01*
X128736186Y-77933814D01*
X128819448Y-78035271D01*
X128848778Y-78071009D01*
X128848779Y-78071011D01*
X128932443Y-78227533D01*
X128932443Y-78227534D01*
X128983963Y-78397373D01*
X129001359Y-78574000D01*
X128983963Y-78750627D01*
X128949616Y-78863853D01*
X128932443Y-78920467D01*
X128858348Y-79059087D01*
X128848778Y-79076991D01*
X128819448Y-79112729D01*
X128736186Y-79214186D01*
X128634729Y-79297448D01*
X128598991Y-79326778D01*
X128598989Y-79326779D01*
X128442467Y-79410443D01*
X128385853Y-79427616D01*
X128272627Y-79461963D01*
X128206443Y-79468481D01*
X128140260Y-79475000D01*
X128051740Y-79475000D01*
X127985557Y-79468481D01*
X127919373Y-79461963D01*
X127806147Y-79427616D01*
X127749533Y-79410443D01*
X127593011Y-79326779D01*
X127593009Y-79326778D01*
X127557271Y-79297448D01*
X127455814Y-79214186D01*
X127372552Y-79112729D01*
X127343222Y-79076991D01*
X127333652Y-79059087D01*
X127259557Y-78920467D01*
X127242384Y-78863853D01*
X127208037Y-78750627D01*
X127190641Y-78574000D01*
X127208037Y-78397373D01*
X127259557Y-78227534D01*
X127259557Y-78227533D01*
X127343221Y-78071011D01*
X127343222Y-78071009D01*
X127372552Y-78035271D01*
X127455814Y-77933814D01*
X127557271Y-77850552D01*
X127593009Y-77821222D01*
X127610913Y-77811652D01*
X127749533Y-77737557D01*
X127806147Y-77720384D01*
X127919373Y-77686037D01*
X127985557Y-77679519D01*
X128051740Y-77673000D01*
X128140260Y-77673000D01*
X128206443Y-77679519D01*
X128206443Y-77679519D01*
G37*
G36*
X161226443Y-77679519D02*
X161292627Y-77686037D01*
X161405853Y-77720384D01*
X161462467Y-77737557D01*
X161601087Y-77811652D01*
X161618991Y-77821222D01*
X161654729Y-77850552D01*
X161756186Y-77933814D01*
X161839448Y-78035271D01*
X161868778Y-78071009D01*
X161868779Y-78071011D01*
X161952443Y-78227533D01*
X161952443Y-78227534D01*
X162003963Y-78397373D01*
X162021359Y-78574000D01*
X162003963Y-78750627D01*
X161969616Y-78863853D01*
X161952443Y-78920467D01*
X161878348Y-79059087D01*
X161868778Y-79076991D01*
X161839448Y-79112729D01*
X161756186Y-79214186D01*
X161654729Y-79297448D01*
X161618991Y-79326778D01*
X161618989Y-79326779D01*
X161462467Y-79410443D01*
X161405853Y-79427616D01*
X161292627Y-79461963D01*
X161226443Y-79468481D01*
X161160260Y-79475000D01*
X161071740Y-79475000D01*
X161005557Y-79468481D01*
X160939373Y-79461963D01*
X160826147Y-79427616D01*
X160769533Y-79410443D01*
X160613011Y-79326779D01*
X160613009Y-79326778D01*
X160577271Y-79297448D01*
X160475814Y-79214186D01*
X160392552Y-79112729D01*
X160363222Y-79076991D01*
X160353652Y-79059087D01*
X160279557Y-78920467D01*
X160262384Y-78863853D01*
X160228037Y-78750627D01*
X160210641Y-78574000D01*
X160228037Y-78397373D01*
X160279557Y-78227534D01*
X160279557Y-78227533D01*
X160363221Y-78071011D01*
X160363222Y-78071009D01*
X160392552Y-78035271D01*
X160475814Y-77933814D01*
X160577271Y-77850552D01*
X160613009Y-77821222D01*
X160630913Y-77811652D01*
X160769533Y-77737557D01*
X160826147Y-77720384D01*
X160939373Y-77686037D01*
X161005557Y-77679519D01*
X161071740Y-77673000D01*
X161160260Y-77673000D01*
X161226443Y-77679519D01*
X161226443Y-77679519D01*
G37*
G36*
X125666443Y-77679519D02*
X125732627Y-77686037D01*
X125845853Y-77720384D01*
X125902467Y-77737557D01*
X126041087Y-77811652D01*
X126058991Y-77821222D01*
X126094729Y-77850552D01*
X126196186Y-77933814D01*
X126279448Y-78035271D01*
X126308778Y-78071009D01*
X126308779Y-78071011D01*
X126392443Y-78227533D01*
X126392443Y-78227534D01*
X126443963Y-78397373D01*
X126461359Y-78574000D01*
X126443963Y-78750627D01*
X126409616Y-78863853D01*
X126392443Y-78920467D01*
X126318348Y-79059087D01*
X126308778Y-79076991D01*
X126279448Y-79112729D01*
X126196186Y-79214186D01*
X126094729Y-79297448D01*
X126058991Y-79326778D01*
X126058989Y-79326779D01*
X125902467Y-79410443D01*
X125845853Y-79427616D01*
X125732627Y-79461963D01*
X125666443Y-79468481D01*
X125600260Y-79475000D01*
X125511740Y-79475000D01*
X125445557Y-79468481D01*
X125379373Y-79461963D01*
X125266147Y-79427616D01*
X125209533Y-79410443D01*
X125053011Y-79326779D01*
X125053009Y-79326778D01*
X125017271Y-79297448D01*
X124915814Y-79214186D01*
X124832552Y-79112729D01*
X124803222Y-79076991D01*
X124793652Y-79059087D01*
X124719557Y-78920467D01*
X124702384Y-78863853D01*
X124668037Y-78750627D01*
X124650641Y-78574000D01*
X124668037Y-78397373D01*
X124719557Y-78227534D01*
X124719557Y-78227533D01*
X124803221Y-78071011D01*
X124803222Y-78071009D01*
X124832552Y-78035271D01*
X124915814Y-77933814D01*
X125017271Y-77850552D01*
X125053009Y-77821222D01*
X125070913Y-77811652D01*
X125209533Y-77737557D01*
X125266147Y-77720384D01*
X125379373Y-77686037D01*
X125445557Y-77679519D01*
X125511740Y-77673000D01*
X125600260Y-77673000D01*
X125666443Y-77679519D01*
X125666443Y-77679519D01*
G37*
G36*
X170902006Y-69853582D02*
X171302565Y-70019499D01*
X171663059Y-70260373D01*
X171969627Y-70566941D01*
X172210501Y-70927435D01*
X172376418Y-71327994D01*
X172461000Y-71753219D01*
X172461000Y-72186781D01*
X172376418Y-72612006D01*
X172210501Y-73012565D01*
X171969627Y-73373059D01*
X171663059Y-73679627D01*
X171302565Y-73920501D01*
X170902006Y-74086418D01*
X170476781Y-74171000D01*
X170043219Y-74171000D01*
X169617994Y-74086418D01*
X169217435Y-73920501D01*
X168856941Y-73679627D01*
X168550373Y-73373059D01*
X168309499Y-73012565D01*
X168143582Y-72612006D01*
X168059000Y-72186781D01*
X168059000Y-71753219D01*
X168143582Y-71327994D01*
X168309499Y-70927435D01*
X168550373Y-70566941D01*
X168856941Y-70260373D01*
X169217435Y-70019499D01*
X169617994Y-69853582D01*
X170043219Y-69769000D01*
X170476781Y-69769000D01*
X170902006Y-69853582D01*
X170902006Y-69853582D01*
G37*
G36*
X121372006Y-69853582D02*
X121772565Y-70019499D01*
X122133059Y-70260373D01*
X122439627Y-70566941D01*
X122680501Y-70927435D01*
X122846418Y-71327994D01*
X122931000Y-71753219D01*
X122931000Y-72186781D01*
X122846418Y-72612006D01*
X122680501Y-73012565D01*
X122439627Y-73373059D01*
X122133059Y-73679627D01*
X121772565Y-73920501D01*
X121372006Y-74086418D01*
X120946781Y-74171000D01*
X120513219Y-74171000D01*
X120087994Y-74086418D01*
X119687435Y-73920501D01*
X119326941Y-73679627D01*
X119020373Y-73373059D01*
X118779499Y-73012565D01*
X118613582Y-72612006D01*
X118529000Y-72186781D01*
X118529000Y-71753219D01*
X118613582Y-71327994D01*
X118779499Y-70927435D01*
X119020373Y-70566941D01*
X119326941Y-70260373D01*
X119687435Y-70019499D01*
X120087994Y-69853582D01*
X120513219Y-69769000D01*
X120946781Y-69769000D01*
X121372006Y-69853582D01*
X121372006Y-69853582D01*
G37*
M02*
